<svg width="59" height="59" viewBox="0 0 59 59" fill="none" xmlns="http://www.w3.org/2000/svg">
<path d="M11.0723 31.3767C11.0723 31.3767 15.8594 31.3767 16.0797 27.3707C16.3 23.3648 17.3015 16.1841 26.9358 16.1841C30.0304 16.1841 31.8932 14.3815 32.2938 13.1797" stroke="#08863A" stroke-width="1.7" stroke-linecap="round" stroke-linejoin="round"/>
<path d="M34.6572 16.6348C34.841 17.7087 35.2963 18.7178 35.9799 19.5662C36.6635 20.4146 37.5527 21.074 38.563 21.482C42.1984 23.1645 44.7422 25.4879 47.7767 31.3666" stroke="#08863A" stroke-width="1.7" stroke-linecap="round" stroke-linejoin="round"/>
<path d="M23.8811 30.4541C23.8811 29.9121 23.4439 29.4727 22.9047 29.4727C22.3654 29.4727 21.9282 29.9121 21.9282 30.4541V31.8862C21.9282 32.4283 22.3654 32.8677 22.9047 32.8677C23.4439 32.8677 23.8811 32.4283 23.8811 31.8862V30.4541Z" fill="#08863A"/>
<path d="M37.1809 30.4541C37.1809 29.9121 36.7438 29.4727 36.2045 29.4727C35.6652 29.4727 35.228 29.9121 35.228 30.4541V31.8862C35.228 32.4283 35.6652 32.8677 36.2045 32.8677C36.7438 32.8677 37.1809 32.4283 37.1809 31.8862V30.4541Z" fill="#08863A"/>
<path d="M35.188 26.6092C35.9183 26.4134 36.6906 26.4415 37.4049 26.6897C38.1191 26.9379 38.7424 27.3948 39.1939 28.0013" stroke="#08863A" stroke-width="1.7" stroke-linecap="round" stroke-linejoin="round"/>
<path d="M23.9215 26.6092C23.1911 26.4134 22.4188 26.4415 21.7046 26.6897C20.9903 26.9379 20.3671 27.3948 19.9155 28.0013" stroke="#08863A" stroke-width="1.7" stroke-linecap="round" stroke-linejoin="round"/>
<path d="M25.2134 44.3047C25.703 44.9201 26.3251 45.4171 27.0334 45.7588C27.7418 46.1004 28.518 46.2778 29.3044 46.2778C30.0909 46.2778 30.8671 46.1004 31.5755 45.7588C32.2838 45.4171 32.9059 44.9201 33.3955 44.3047" stroke="#08863A" stroke-width="1.7" stroke-linecap="round" stroke-linejoin="round"/>
<path d="M46.4846 37.084C46.114 38.416 45.6734 39.758 45.1726 41.0899C42.4386 48.3106 37.6615 54.9906 29.3592 54.9906C21.3473 54.9906 16.5802 48.2005 13.7861 40.9697C13.2853 39.6878 12.8547 38.3959 12.4741 37.124" stroke="#08863A" stroke-width="1.7" stroke-linecap="round" stroke-linejoin="round"/>
<path d="M13.7861 40.9297C13.2853 39.6478 12.8547 38.3559 12.4741 37.084C12.8847 38.3559 13.2853 39.6478 13.7861 40.9297Z" stroke="#08863A" stroke-width="1.7" stroke-linecap="round" stroke-linejoin="round"/>
<path d="M12.4744 37.0848C12.8549 38.3566 13.2856 39.6486 13.7863 40.9305H13.7262C13.235 41.064 12.7223 41.0995 12.2173 41.0349C11.7124 40.9702 11.2252 40.8068 10.7834 40.5538C10.3417 40.3009 9.95408 39.9634 9.64278 39.5606C9.33149 39.1578 9.10259 38.6977 8.96915 38.2064L8.0578 34.8514C7.88875 34.2274 7.96077 33.5626 8.25952 32.9892C8.55827 32.4158 9.06187 31.9759 9.67019 31.7569L9.87049 31.6968L10.5615 31.5065L11.0723 31.3663C10.5382 28.7767 10.1537 26.1584 9.92056 23.5246C9.52542 21.3764 9.60769 19.1675 10.1616 17.0545C10.7154 14.9416 11.7273 12.9764 13.1255 11.2982C14.5236 9.62004 16.2739 8.26997 18.2521 7.34373C20.2303 6.41748 22.388 5.93775 24.5723 5.93854H33.5857C36.9305 5.94278 40.2428 5.28236 43.3301 3.99565C43.4266 3.95767 43.5328 3.95256 43.6324 3.98113C43.7321 4.0097 43.8195 4.07035 43.8811 4.15366C43.9427 4.23698 43.9751 4.33831 43.9733 4.44192C43.9715 4.54554 43.9355 4.64566 43.8709 4.72674C43.1526 5.61795 42.3764 6.46102 41.5475 7.25048C41.4936 7.30028 41.4521 7.362 41.4262 7.4307C41.4004 7.4994 41.391 7.57319 41.3988 7.64617C41.4066 7.71915 41.4314 7.78929 41.4711 7.85101C41.5108 7.91272 41.5644 7.96429 41.6276 8.0016C44.2798 9.54639 46.3906 11.8719 47.6722 14.6608C48.9537 17.4497 49.3434 20.5661 48.7882 23.5847C48.6136 26.2132 48.2791 28.8285 47.7868 31.4163L48.648 31.6567L49.0987 31.7769C49.7573 31.9551 50.3181 32.3875 50.658 32.979C50.9979 33.5706 51.089 34.2729 50.9114 34.9316L50 38.2865C49.7329 39.288 49.0881 40.1469 48.2011 40.6828C47.314 41.2188 46.2537 41.3901 45.243 41.1608H45.1829C45.6836 39.8188 46.1243 38.4768 46.4948 37.1549" stroke="#08863A" stroke-width="1.7" stroke-linecap="round" stroke-linejoin="round"/>
<path d="M29.8701 33.5801C29.8701 33.5801 30.8716 36.4143 28.8687 37.0853" stroke="#08863A" stroke-width="1.7" stroke-linecap="round" stroke-linejoin="round"/>
</svg>
