<svg width="59" height="59" viewBox="0 0 59 59" fill="none" xmlns="http://www.w3.org/2000/svg">
<path d="M11.23 31.0899C11.23 31.0899 16.01 31.0899 16.23 27.0899C16.45 23.0899 17.44 15.9199 27.06 15.9199C30.16 15.9199 32.06 14.1199 32.41 12.9199" stroke="#A9612D" stroke-width="1.7" stroke-linecap="round" stroke-linejoin="round"/>
<path d="M34.7803 16.3691C34.9638 17.4415 35.4184 18.4491 36.101 19.2962C36.7836 20.1433 37.6715 20.8018 38.6803 21.2091C42.3203 22.8891 44.8503 25.2091 47.8903 31.0791" stroke="#A9612D" stroke-width="1.7" stroke-linecap="round" stroke-linejoin="round"/>
<path d="M24.0301 30.1695C24.0301 29.6282 23.5936 29.1895 23.0551 29.1895C22.5166 29.1895 22.0801 29.6282 22.0801 30.1695V31.5995C22.0801 32.1407 22.5166 32.5795 23.0551 32.5795C23.5936 32.5795 24.0301 32.1407 24.0301 31.5995V30.1695Z" fill="#A9612D"/>
<path d="M37.3099 30.1695C37.3099 29.6282 36.8733 29.1895 36.3349 29.1895C35.7964 29.1895 35.3599 29.6282 35.3599 30.1695V31.5995C35.3599 32.1407 35.7964 32.5795 36.3349 32.5795C36.8733 32.5795 37.3099 32.1407 37.3099 31.5995V30.1695Z" fill="#A9612D"/>
<path d="M35.21 26.7999C35.8735 26.4504 36.6259 26.3057 37.3717 26.384C38.1176 26.4623 38.8235 26.7602 39.4 27.2399" stroke="#A9612D" stroke-width="1.7" stroke-linecap="round" stroke-linejoin="round"/>
<path d="M24.17 26.7808C23.5016 26.4381 22.7465 26.3017 22.0005 26.3889C21.2545 26.4762 20.5512 26.7831 19.98 27.2708" stroke="#A9612D" stroke-width="1.7" stroke-linecap="round" stroke-linejoin="round"/>
<path d="M46.6001 36.7891C46.2201 38.1191 45.7901 39.4591 45.2801 40.7891C42.5501 47.9791 37.7801 54.6591 29.4901 54.6591C21.4901 54.6591 16.7401 47.8791 13.9401 40.6591C13.4501 39.3791 13.0201 38.0891 12.6401 36.8191" stroke="#A9612D" stroke-width="1.7" stroke-linecap="round" stroke-linejoin="round"/>
<path d="M14.0002 40.6291C13.5102 39.3491 13.0802 38.0591 12.7002 36.7891C13.0502 38.0591 13.4602 39.3491 14.0002 40.6291Z" stroke="#A9612D" stroke-width="1.7" stroke-linecap="round" stroke-linejoin="round"/>
<path d="M12.64 36.7899C13.02 38.0599 13.45 39.3499 13.94 40.6299C12.9481 40.8995 11.8898 40.7644 10.9973 40.2545C10.1049 39.7445 9.45128 38.9013 9.17996 37.9099L8.27996 34.5599C8.10874 33.9367 8.17955 33.2718 8.47817 32.6987C8.77679 32.1256 9.28113 31.6866 9.88996 31.4699L10.08 31.4099L10.77 31.2199L11.28 31.0799C10.7465 28.4945 10.3658 25.88 10.14 23.2499C9.74631 21.1098 9.82714 18.9093 10.3768 16.8039C10.9264 14.6984 11.9314 12.7392 13.3209 11.0646C14.7104 9.38999 16.4505 8.04072 18.4183 7.11204C20.3862 6.18335 22.534 5.69788 24.71 5.68988H33.71C37.0465 5.69412 40.3507 5.03466 43.43 3.74988C43.5268 3.70781 43.6349 3.69955 43.737 3.72644C43.8391 3.75333 43.9292 3.81381 43.9927 3.89812C44.0562 3.98243 44.0895 4.08567 44.0872 4.1912C44.0849 4.29674 44.0471 4.39843 43.98 4.47988C43.2659 5.36946 42.4942 6.21127 41.67 6.99988C41.6157 7.04889 41.5736 7.1099 41.547 7.17805C41.5204 7.2462 41.5101 7.31961 41.5169 7.39243C41.5237 7.46526 41.5474 7.53549 41.5862 7.59755C41.6249 7.6596 41.6775 7.71176 41.74 7.74988C44.3912 9.28914 46.5016 11.6107 47.7816 14.3964C49.0617 17.1821 49.4488 20.2955 48.89 23.3099C48.7131 25.9342 48.3791 28.5455 47.89 31.1299L48.75 31.3699L49.2 31.4899C49.8447 31.6704 50.3935 32.0953 50.7297 32.6743C51.0658 33.2532 51.1628 33.9405 51 34.5899L50.09 37.9399C49.8233 38.9398 49.1794 39.7975 48.2937 40.3326C47.4079 40.8678 46.3492 41.0389 45.34 40.8099H45.27C45.78 39.4699 46.21 38.1299 46.59 36.8099" stroke="#A9612D" stroke-width="1.7" stroke-linecap="round" stroke-linejoin="round"/>
<path d="M30 33.2891C30 33.2891 31 36.1191 29 36.7891" stroke="#A9612D" stroke-width="1.7" stroke-linecap="round" stroke-linejoin="round"/>
<path d="M24.8599 44.9805H33.8799" stroke="#A9612D" stroke-width="1.7" stroke-linecap="round" stroke-linejoin="round"/>
</svg>
