<svg width="59" height="59" viewBox="0 0 59 59" fill="none" xmlns="http://www.w3.org/2000/svg">
<path d="M11.5601 31.0899C11.5601 31.0899 16.3401 31.0899 16.6101 27.0899C16.8801 23.0899 17.8201 15.9199 27.4401 15.9199C30.5401 15.9199 32.3901 14.1199 32.8001 12.9199" stroke="#B54435" stroke-width="1.7" stroke-linecap="round" stroke-linejoin="round"/>
<path d="M35.1099 16.3691C35.2924 17.4404 35.7455 18.4473 36.4263 19.2943C37.1071 20.1414 37.9929 20.8005 38.9999 21.2091C42.6299 22.8891 45.1699 25.2091 48.1999 31.0791" stroke="#B54435" stroke-width="1.7" stroke-linecap="round" stroke-linejoin="round"/>
<path d="M24.3602 30.1695C24.3602 29.6282 23.9236 29.1895 23.3851 29.1895C22.8467 29.1895 22.4102 29.6282 22.4102 30.1695V31.5995C22.4102 32.1407 22.8467 32.5795 23.3851 32.5795C23.9236 32.5795 24.3602 32.1407 24.3602 31.5995V30.1695Z" fill="#B54435"/>
<path d="M37.6399 30.1695C37.6399 29.6282 37.2034 29.1895 36.6649 29.1895C36.1265 29.1895 35.6899 29.6282 35.6899 30.1695V31.5995C35.6899 32.1407 36.1265 32.5795 36.6649 32.5795C37.2034 32.5795 37.6399 32.1407 37.6399 31.5995V30.1695Z" fill="#B54435"/>
<path d="M35.2402 27.1595C35.8352 26.7008 36.5531 26.4293 37.3027 26.3795C38.0522 26.3296 38.7997 26.5036 39.4502 26.8795" stroke="#B54435" stroke-width="1.7" stroke-linecap="round" stroke-linejoin="round"/>
<path d="M24.7298 26.9993C24.1066 26.5784 23.3718 26.3535 22.6198 26.3535C21.8678 26.3535 21.133 26.5784 20.5098 26.9993" stroke="#B54435" stroke-width="1.7" stroke-linecap="round" stroke-linejoin="round"/>
<path d="M46.9297 36.7891C46.5597 38.1191 46.1197 39.4591 45.6197 40.7891C42.8797 47.9791 38.1097 54.6591 29.8197 54.6591C21.8197 54.6591 17.0697 47.8791 14.2697 40.6591C13.7797 39.3791 13.3497 38.0891 12.9697 36.8191" stroke="#B54435" stroke-width="1.7" stroke-linecap="round" stroke-linejoin="round"/>
<path d="M14.28 40.6291C13.79 39.3491 13.36 38.0591 12.98 36.7891C13.38 38.0591 13.8 39.3491 14.28 40.6291Z" stroke="#B54435" stroke-width="1.7" stroke-linecap="round" stroke-linejoin="round"/>
<path d="M13 36.7899C13.38 38.0599 13.81 39.3499 14.3 40.6299H14.25C13.7595 40.7632 13.2476 40.7987 12.7434 40.7341C12.2392 40.6696 11.7527 40.5064 11.3116 40.2538C10.8705 40.0012 10.4835 39.6642 10.1727 39.262C9.86183 38.8599 9.63326 38.4004 9.50002 37.9099L8.59002 34.5599C8.4188 33.9367 8.48961 33.2718 8.78823 32.6987C9.08685 32.1256 9.59118 31.6866 10.2 31.4699L10.4 31.4099L11.08 31.2199L11.59 31.0799C11.0566 28.4945 10.6759 25.88 10.45 23.2499C10.0567 21.1114 10.137 18.9127 10.6855 16.8087C11.234 14.7047 12.2372 12.7465 13.6245 11.0723C15.0118 9.39799 16.7494 8.04832 18.7148 7.11836C20.6803 6.18841 22.8257 5.7008 25 5.68988H34C37.3366 5.69412 40.6407 5.03466 43.72 3.74988C43.8168 3.70781 43.925 3.69955 44.0271 3.72644C44.1292 3.75333 44.2192 3.81381 44.2827 3.89812C44.3463 3.98243 44.3795 4.08567 44.3772 4.1912C44.3749 4.29674 44.3372 4.39843 44.27 4.47988C43.5688 5.36821 42.8105 6.20999 42 6.99988C41.9457 7.04889 41.9036 7.1099 41.8771 7.17805C41.8505 7.2462 41.8402 7.31961 41.847 7.39243C41.8538 7.46526 41.8775 7.53549 41.9162 7.59755C41.9549 7.6596 42.0076 7.71176 42.07 7.74988C44.7213 9.28914 46.8316 11.6107 48.1117 14.3964C49.3917 17.1821 49.7789 20.2955 49.22 23.3099C49.0493 25.9348 48.7153 28.5465 48.22 31.1299L49.08 31.3699L49.53 31.4899C50.1876 31.6678 50.7476 32.0996 51.087 32.6902C51.4264 33.2809 51.5174 33.9822 51.34 34.6399L50.43 37.9899C50.1633 38.9898 49.5195 39.8475 48.6337 40.3826C47.748 40.9178 46.6892 41.0889 45.68 40.8599H45.62C46.12 39.5199 46.56 38.1799 46.93 36.8599" stroke="#B54435" stroke-width="1.7" stroke-linecap="round" stroke-linejoin="round"/>
<path d="M30.3301 33.2891C30.3301 33.2891 31.3301 36.1191 29.3301 36.7891" stroke="#B54435" stroke-width="1.7" stroke-linecap="round" stroke-linejoin="round"/>
<path d="M34.0499 45.9995C33.561 45.385 32.9398 44.8887 32.2325 44.5476C31.5252 44.2065 30.7501 44.0293 29.9649 44.0293C29.1796 44.0293 28.4045 44.2065 27.6972 44.5476C26.99 44.8887 26.3687 45.385 25.8799 45.9995" stroke="#B54435" stroke-width="1.7" stroke-linecap="round" stroke-linejoin="round"/>
</svg>
