<svg width="59" height="59" viewBox="0 0 59 59" fill="none" xmlns="http://www.w3.org/2000/svg">
<path d="M11.1201 31.0906C11.1201 31.0906 15.8901 31.0906 16.1201 27.0906C16.3501 23.0906 17.3701 15.8906 27.0001 15.8906C30.0901 15.8906 31.9401 14.0906 32.3501 12.8906" stroke="white" stroke-width="1.7" stroke-linecap="round" stroke-linejoin="round"/>
<path d="M34.6699 16.3594C34.8527 17.4332 35.307 18.4424 35.9896 19.2913C36.6721 20.1401 37.5604 20.8004 38.5699 21.2094C42.1999 22.8894 44.7399 25.2094 47.7699 31.0794" stroke="white" stroke-width="1.7" stroke-linecap="round" stroke-linejoin="round"/>
<path d="M23.91 30.1695C23.91 29.6282 23.4734 29.1895 22.935 29.1895C22.3965 29.1895 21.96 29.6282 21.96 30.1695V31.5995C21.96 32.1407 22.3965 32.5795 22.935 32.5795C23.4734 32.5795 23.91 32.1407 23.91 31.5995V30.1695Z" fill="white"/>
<path d="M37.1902 30.1695C37.1902 29.6282 36.7537 29.1895 36.2152 29.1895C35.6767 29.1895 35.2402 29.6282 35.2402 30.1695V31.5995C35.2402 32.1407 35.6767 32.5795 36.2152 32.5795C36.7537 32.5795 37.1902 32.1407 37.1902 31.5995V30.1695Z" fill="white"/>
<path d="M34.8003 26.7699C35.4663 26.421 36.2209 26.2775 36.9686 26.3576C37.7162 26.4377 38.4233 26.7378 39.0003 27.2199" stroke="white" stroke-width="1.7" stroke-linecap="round" stroke-linejoin="round"/>
<path d="M24.2803 26.9999C23.6404 26.6073 22.8979 26.4147 22.1478 26.4468C21.3978 26.4789 20.6744 26.7341 20.0703 27.1799" stroke="white" stroke-width="1.7" stroke-linecap="round" stroke-linejoin="round"/>
<path d="M46.4805 36.7891C46.1105 38.1191 45.6705 39.4591 45.1705 40.7891C42.4405 47.9791 37.6705 54.6591 29.3705 54.6591C21.3705 54.6591 16.6205 47.8791 13.8305 40.6591C13.3305 39.3791 12.9005 38.0891 12.5205 36.8191" stroke="white" stroke-width="1.7" stroke-linecap="round" stroke-linejoin="round"/>
<path d="M13.1504 38.7594C17.3804 38.2494 21.8804 37.7594 25.0604 35.2194C27.9804 32.8594 31.2704 32.7194 33.9404 35.2194C36.9404 38.0094 41.6404 38.2194 45.8804 38.7594" stroke="white" stroke-width="1.7" stroke-linecap="round" stroke-linejoin="round"/>
<path d="M45.1702 40.7999H45.2302C46.2409 41.0351 47.3036 40.8682 48.1936 40.3346C49.0836 39.8009 49.7314 38.9422 50.0002 37.9399L50.2602 36.9899L50.9102 34.5899C51.0876 33.9322 50.9966 33.2309 50.6572 32.6402C50.3178 32.0496 49.7578 31.6178 49.1002 31.4399L48.6502 31.3199L47.7902 31.0799C48.2818 28.4959 48.6158 25.8844 48.7902 23.2599C49.2411 20.8236 49.0756 18.3132 48.3089 15.9572C47.5422 13.6012 46.1985 11.4742 44.4002 9.76988C43.5624 8.97657 42.6363 8.28203 41.6402 7.69988C41.5771 7.66263 41.5236 7.61114 41.4839 7.54952C41.4442 7.4879 41.4195 7.41785 41.4117 7.34498C41.404 7.27211 41.4133 7.19844 41.4391 7.12983C41.4649 7.06123 41.5064 6.99961 41.5602 6.94988C42.3965 6.17865 43.1815 5.35355 43.9102 4.47988C43.9773 4.39843 44.0151 4.29674 44.0174 4.1912C44.0197 4.08567 43.9864 3.98243 43.9229 3.89812C43.8594 3.81381 43.7693 3.75333 43.6672 3.72644C43.5652 3.69955 43.457 3.70781 43.3602 3.74988C40.2809 5.03466 36.9768 5.69412 33.6402 5.68988H24.6402C20.9378 5.691 17.3701 7.07884 14.6402 9.57988C14.1228 10.024 13.6319 10.4982 13.1702 10.9999C11.7677 12.6816 10.7559 14.6537 10.2077 16.7737C9.65956 18.8938 9.58867 21.1091 10.0002 23.2599C10.2329 25.8898 10.6169 28.5041 11.1502 31.0899L10.6402 31.2299L9.95018 31.4199L9.75019 31.4799C9.14277 31.6986 8.63991 32.1379 8.3416 32.7104C8.04329 33.2829 7.97139 33.9468 8.14019 34.5699L8.80019 36.9899L9.05019 37.9199C9.18343 38.4104 9.41199 38.8699 9.72283 39.272C10.0337 39.6742 10.4207 40.0112 10.8618 40.2638C11.3029 40.5164 11.7894 40.6796 12.2936 40.7441C12.7977 40.8087 13.3097 40.7732 13.8002 40.6399H13.8602" stroke="white" stroke-width="1.7" stroke-linecap="round" stroke-linejoin="round"/>
<path d="M22.1502 47.2692C21.8455 47.3486 21.5241 47.3358 21.2267 47.2323C20.9293 47.1288 20.6693 46.9394 20.4797 46.688C20.2901 46.4366 20.1794 46.1345 20.1617 45.8201C20.144 45.5057 20.22 45.1931 20.3802 44.922C20.5403 44.6509 20.7774 44.4334 21.0613 44.2971C21.3452 44.1609 21.6631 44.112 21.9748 44.1567C22.2865 44.2014 22.578 44.3377 22.8122 44.5482C23.0463 44.7587 23.2127 45.034 23.2902 45.3392" stroke="white" stroke-width="1.7" stroke-linecap="round" stroke-linejoin="round"/>
<path d="M33.2303 44.3301C32.0625 44.4743 30.887 44.5478 29.7103 44.5501C28.661 44.5508 27.6126 44.4907 26.5703 44.3701" stroke="white" stroke-width="1.7" stroke-linecap="round" stroke-linejoin="round"/>
<path d="M33.2303 39.8203C32.0632 39.9729 30.8874 40.0497 29.7103 40.0503C28.6612 40.046 27.613 39.986 26.5703 39.8703" stroke="white" stroke-width="1.7" stroke-linecap="round" stroke-linejoin="round"/>
<path d="M33.2303 42.0703C31.0187 42.3426 28.782 42.3426 26.5703 42.0703" stroke="white" stroke-width="1.7" stroke-linecap="round" stroke-linejoin="round"/>
</svg>
