<svg width="59" height="59" viewBox="0 0 59 59" fill="none" xmlns="http://www.w3.org/2000/svg">
<path d="M11.1602 28.9207C11.1602 28.9207 15.9402 28.9207 16.1602 24.9207C16.3802 20.9207 17.4202 13.7207 27.0002 13.7207C30.0902 13.7207 31.9502 11.9207 32.3502 10.7207" stroke="white" stroke-width="1.7" stroke-linecap="round" stroke-linejoin="round"/>
<path d="M34.71 14.1914C34.8928 15.2652 35.347 16.2744 36.0296 17.1233C36.7122 17.9721 37.6004 18.6324 38.61 19.0414C42.24 20.7214 44.78 23.0414 47.81 28.9114" stroke="white" stroke-width="1.7" stroke-linecap="round" stroke-linejoin="round"/>
<path d="M12.5601 34.6211C12.9401 35.8911 13.3701 37.1811 13.8701 38.4611C15.4601 42.6111 17.7001 46.6011 20.8201 49.2611" stroke="white" stroke-width="1.7" stroke-linecap="round" stroke-linejoin="round"/>
<path d="M38.2603 49.2911C41.4303 46.6711 43.6502 42.7311 45.2102 38.6211C45.7102 37.2911 46.1502 35.9511 46.5202 34.6211" stroke="white" stroke-width="1.7" stroke-linecap="round" stroke-linejoin="round"/>
<path d="M46.5202 34.6209C46.1502 35.9509 45.7102 37.2909 45.2102 38.6209H45.2702C46.2738 38.8449 47.3251 38.6738 48.2059 38.1431C49.0867 37.6124 49.7292 36.7628 50.0002 35.7709L50.9102 32.4209C51.0876 31.7631 50.9966 31.0619 50.6572 30.4712C50.3178 29.8806 49.7578 29.4488 49.1002 29.2709L48.6502 29.1509L47.7902 28.9109C48.2818 26.3269 48.6158 23.7154 48.7902 21.0909C49.3446 18.0767 48.9554 14.965 47.6757 12.1802C46.3961 9.39545 44.2884 7.07338 41.6402 5.53087C41.5771 5.49362 41.5235 5.44213 41.4839 5.38051C41.4442 5.31889 41.4195 5.24884 41.4117 5.17597C41.404 5.1031 41.4133 5.02943 41.4391 4.96083C41.4649 4.89222 41.5063 4.8306 41.5602 4.78087C42.399 4.00865 43.1842 3.18006 43.9102 2.30087C43.9723 2.21894 44.0058 2.11888 44.0057 2.01605C44.0055 1.91322 43.9716 1.81328 43.9092 1.73157C43.8467 1.64985 43.7592 1.59086 43.6601 1.56364C43.5609 1.53642 43.4556 1.54247 43.3602 1.58087C40.2808 2.86565 36.9768 3.52511 33.6402 3.52087H24.6402C22.4573 3.51835 20.3005 3.99647 18.3232 4.92128C16.3459 5.8461 14.5964 7.19492 13.199 8.87196C11.8016 10.549 10.7906 12.5131 10.2378 14.6249C9.68494 16.7367 9.60381 18.9442 10.0002 21.0909C10.2329 23.7208 10.6169 26.3351 11.1502 28.9209L10.6402 29.0609L9.95018 29.2509L9.75017 29.3109C9.14276 29.5296 8.63991 29.9689 8.3416 30.5414C8.04329 31.1139 7.97139 31.7777 8.14019 32.4009L9.05016 35.7509C9.1834 36.2414 9.41196 36.7009 9.7228 37.103C10.0336 37.5052 10.4207 37.8422 10.8617 38.0948C11.3028 38.3474 11.7894 38.5106 12.2935 38.5751C12.7977 38.6397 13.3097 38.6042 13.8002 38.4709H13.8602C13.3602 37.1909 12.9302 35.9009 12.5502 34.6309" stroke="white" stroke-width="1.7" stroke-linecap="round" stroke-linejoin="round"/>
<path d="M41.7699 32.741L36.7699 44.821H36.1099C35.3324 43.975 34.3881 43.2993 33.3366 42.8363C32.285 42.3733 31.1489 42.1332 29.9999 42.131H29.0599C26.9767 42.1281 24.968 42.9059 23.4299 44.311C23.2599 44.471 23.0899 44.641 22.9299 44.821H22.2699L17.2699 32.741C16.813 31.6673 16.6317 30.4963 16.7426 29.3347C16.8535 28.173 17.2531 27.0575 17.905 26.0896C18.5569 25.1218 19.4404 24.3322 20.4752 23.7928C21.51 23.2533 22.6631 22.9812 23.8299 23.001H35.2499C36.4133 22.9879 37.5617 23.265 38.5911 23.8073C39.6204 24.3495 40.4984 25.1398 41.1456 26.1066C41.7929 27.0735 42.1889 28.1864 42.2979 29.3448C42.4069 30.5031 42.2254 31.6704 41.7699 32.741Z" stroke="white" stroke-width="1.7" stroke-linecap="round" stroke-linejoin="round"/>
<path d="M38.3404 50.3709C38.3377 52.0877 37.6538 53.7334 36.4389 54.9465C35.2239 56.1595 33.5772 56.8409 31.8604 56.8409H27.2804C26.3725 56.8418 25.4745 56.6534 24.6435 56.2878C23.8126 55.9221 23.067 55.3872 22.4544 54.7172C21.8418 54.0472 21.3757 53.2568 21.0857 52.3966C20.7957 51.5363 20.6883 50.625 20.7704 49.7209C20.7704 49.5709 20.7704 49.4109 20.8204 49.2609C21.0614 47.6004 21.8007 46.0522 22.9404 44.8209C23.1004 44.6409 23.2704 44.4709 23.4404 44.3109C24.9784 42.9058 26.9871 42.128 29.0704 42.1309H30.0004C32.0056 42.1365 33.9421 42.8627 35.4565 44.1771C36.971 45.4914 37.9625 47.3064 38.2504 49.2909C38.289 49.5325 38.3124 49.7763 38.3204 50.0209C38.3404 50.1309 38.3404 50.2509 38.3404 50.3709Z" stroke="white" stroke-width="1.7" stroke-linecap="round" stroke-linejoin="round"/>
<path d="M36.81 31.6902C37.9698 31.6902 38.91 30.75 38.91 29.5902C38.91 28.4304 37.9698 27.4902 36.81 27.4902C35.6502 27.4902 34.71 28.4304 34.71 29.5902C34.71 30.75 35.6502 31.6902 36.81 31.6902Z" stroke="white" stroke-width="1.7" stroke-linecap="round" stroke-linejoin="round"/>
<path d="M22.8402 31.95C24 31.95 24.9402 31.0098 24.9402 29.85C24.9402 28.6902 24 27.75 22.8402 27.75C21.6804 27.75 20.7402 28.6902 20.7402 29.85C20.7402 31.0098 21.6804 31.95 22.8402 31.95Z" stroke="white" stroke-width="1.7" stroke-linecap="round" stroke-linejoin="round"/>
<path d="M29.54 53.6502C32.8648 53.6502 35.56 51.9175 35.56 49.7802C35.56 47.6428 32.8648 45.9102 29.54 45.9102C26.2153 45.9102 23.52 47.6428 23.52 49.7802C23.52 51.9175 26.2153 53.6502 29.54 53.6502Z" stroke="white" stroke-width="1.7" stroke-linecap="round" stroke-linejoin="round"/>
<path d="M27.4404 48.4414H31.8504" stroke="white" stroke-width="1.7" stroke-linecap="round" stroke-linejoin="round"/>
<path d="M28.2002 51.3203H31.0902" stroke="white" stroke-width="1.7" stroke-linecap="round" stroke-linejoin="round"/>
</svg>
