<svg width="59" height="59" viewBox="0 0 59 59" fill="none" xmlns="http://www.w3.org/2000/svg">
<path d="M34.8501 43.5508V53.0208" stroke="#08863A" stroke-width="1.7" stroke-linecap="round" stroke-linejoin="round"/>
<path d="M26.8101 48.5809V43.1309" stroke="#08863A" stroke-width="1.7" stroke-linecap="round" stroke-linejoin="round"/>
<path d="M26.8101 51.4014V53.3114" stroke="#08863A" stroke-width="1.7" stroke-linecap="round" stroke-linejoin="round"/>
<path d="M10.0298 53.3115H48.9999" stroke="#08863A" stroke-width="1.7" stroke-linecap="round" stroke-linejoin="round"/>
<path d="M20.71 53.3509C20.7422 52.3724 21.0934 51.4313 21.71 50.6709" stroke="#08863A" stroke-width="1.7" stroke-linecap="round" stroke-linejoin="round"/>
<path d="M19.92 53.0209C19.92 53.0209 19.65 51.7409 19.29 50.6309" stroke="#08863A" stroke-width="1.7" stroke-linecap="round" stroke-linejoin="round"/>
<path d="M41.4897 53.3509C41.5168 52.3714 41.8686 51.4287 42.4897 50.6709" stroke="#08863A" stroke-width="1.7" stroke-linecap="round" stroke-linejoin="round"/>
<path d="M40.7096 53.0209C40.7096 53.0209 40.4396 51.7409 40.0796 50.6309" stroke="#08863A" stroke-width="1.7" stroke-linecap="round" stroke-linejoin="round"/>
<path d="M10.0298 22.8311H14.7199" stroke="#08863A" stroke-width="1.7" stroke-linecap="round" stroke-linejoin="round"/>
<path d="M36.77 16.3516H39.49" stroke="#08863A" stroke-width="1.7" stroke-linecap="round" stroke-linejoin="round"/>
<path d="M31.8301 34.3516H34.5501" stroke="#08863A" stroke-width="1.7" stroke-linecap="round" stroke-linejoin="round"/>
<path d="M24.2197 32.2012H32.3497" stroke="#08863A" stroke-width="1.7" stroke-linecap="round" stroke-linejoin="round"/>
<path d="M40.71 44.8809H44.34" stroke="#08863A" stroke-width="1.7" stroke-linecap="round" stroke-linejoin="round"/>
<path d="M15.27 12.4014H22.52" stroke="#08863A" stroke-width="1.7" stroke-linecap="round" stroke-linejoin="round"/>
<path d="M36.4601 7.88117C36.4996 8.32602 36.4727 8.77426 36.3801 9.21117C36.3517 9.36973 36.3591 9.53264 36.4017 9.68797C36.4444 9.8433 36.5213 9.98712 36.6267 10.1089C36.7322 10.2306 36.8636 10.3273 37.0112 10.3917C37.1589 10.4561 37.3191 10.4867 37.4801 10.4812C40.2201 10.4812 42.4801 12.4812 42.4801 14.9312C42.4801 17.3812 40.4802 19.2012 40.8902 19.3812C42.092 19.8092 43.1366 20.5898 43.8877 21.621C44.6388 22.6522 45.0614 23.886 45.1001 25.1612C45.0738 26.3214 44.725 27.4514 44.0927 28.4246C43.4604 29.3978 42.5696 30.1757 41.5202 30.6712C42.4343 31.2067 43.1956 31.9678 43.7313 32.8818C44.2671 33.7958 44.5594 34.832 44.5801 35.8912C44.5801 39.3912 41.4101 42.2112 37.5101 42.2112C36.9931 42.2128 36.4771 42.1625 35.9701 42.0612C35.4627 42.8296 34.7853 43.4708 33.9902 43.9354C33.1952 44.3999 32.3039 44.6752 31.3854 44.74C30.4669 44.8048 29.5457 44.6573 28.6934 44.3089C27.841 43.9606 27.0803 43.4207 26.4701 42.7312C25.7965 42.9891 25.0814 43.1213 24.3601 43.1212C22.7688 43.1212 21.2427 42.4891 20.1174 41.3638C18.9922 40.2386 18.3601 38.7125 18.3601 37.1212C18.3589 35.9832 18.6852 34.8688 19.3001 33.9112C18.4229 33.3753 17.6981 32.6229 17.1952 31.7264C16.6923 30.8298 16.4282 29.8191 16.4282 28.7912C16.4282 27.7632 16.6923 26.7525 17.1952 25.856C17.6981 24.9594 18.4229 24.2071 19.3001 23.6712C18.7881 22.9753 18.4626 22.1601 18.3542 21.303C18.2459 20.4459 18.3583 19.5753 18.6809 18.7739C19.0035 17.9725 19.5255 17.2668 20.1974 16.7238C20.8693 16.1807 21.6689 15.8184 22.5201 15.6712C22.3899 15.2469 22.3257 14.805 22.3301 14.3612C22.3288 13.7681 22.4445 13.1805 22.6705 12.6322C22.8966 12.0839 23.2285 11.5855 23.6475 11.1657C24.0664 10.7458 24.564 10.4127 25.1118 10.1854C25.6597 9.95816 26.247 9.84117 26.8401 9.84117C27.1286 9.84161 27.4164 9.86839 27.7001 9.92117C27.5141 9.41171 27.4193 8.8735 27.4201 8.33117C27.419 7.37669 27.7209 6.4465 28.2821 5.67447C28.8434 4.90244 29.6351 4.32838 30.5433 4.03489C31.4516 3.74141 32.4295 3.74365 33.3364 4.04128C34.2433 4.3389 35.0324 4.91658 35.5901 5.69117" stroke="#08863A" stroke-width="1.7" stroke-linecap="round" stroke-linejoin="round"/>
</svg>
