<svg width="41" height="51" viewBox="0 0 41 51" fill="none" xmlns="http://www.w3.org/2000/svg">
<path d="M25.2627 39.457V48.6605" stroke="#A9612D" stroke-width="1.7" stroke-linecap="round" stroke-linejoin="round"/>
<path d="M17.4678 44.3399V39.3887" stroke="#A9612D" stroke-width="1.7" stroke-linecap="round" stroke-linejoin="round"/>
<path d="M17.4678 47.0781V48.9324" stroke="#A9612D" stroke-width="1.7" stroke-linecap="round" stroke-linejoin="round"/>
<path d="M1.16699 48.9326H39.0003" stroke="#A9612D" stroke-width="1.7" stroke-linecap="round" stroke-linejoin="round"/>
<path d="M30.6804 48.9324C30.1721 47.957 29.9884 46.8448 30.1561 45.7578" stroke="#A9612D" stroke-width="1.7" stroke-linecap="round" stroke-linejoin="round"/>
<path d="M31.1367 48.9324C31.3629 47.7748 32.0362 46.7528 33.0105 46.0879" stroke="#A9612D" stroke-width="1.7" stroke-linecap="round" stroke-linejoin="round"/>
<path d="M11.5351 48.932C11.406 48.3791 11.4279 47.8017 11.5987 47.2602C11.7695 46.7188 12.0829 46.2332 12.5059 45.8545" stroke="#A9612D" stroke-width="1.7" stroke-linecap="round" stroke-linejoin="round"/>
<path d="M10.7688 48.6021C10.3169 48.2474 10.0214 47.7302 9.94525 47.1608C9.86908 46.5914 10.0182 46.0147 10.361 45.5537" stroke="#A9612D" stroke-width="1.7" stroke-linecap="round" stroke-linejoin="round"/>
<path d="M15.1469 22.3407C15.2032 21.8355 15.4554 21.3726 15.8493 21.0513C16.2432 20.73 16.7475 20.576 17.2537 20.6223M17.2537 26.4473H8.42871H17.4964C19.438 26.4473 20.9719 25.0979 20.9719 23.5348C20.9719 21.9718 19.3506 20.6223 17.3604 20.6223H17.2924" stroke="#A9612D" stroke-width="1.7" stroke-linecap="round" stroke-linejoin="round"/>
<path d="M12.7201 32.5151C12.7188 32.6549 12.7452 32.7936 12.7978 32.9231C12.8504 33.0526 12.9281 33.1704 13.0265 33.2697C13.1249 33.369 13.242 33.4478 13.371 33.5016C13.5001 33.5554 13.6385 33.5831 13.7782 33.5831C14.2597 33.5921 14.7251 33.4094 15.0719 33.0754C15.4187 32.7413 15.6187 32.2831 15.6277 31.8016C15.6367 31.3201 15.4541 30.8547 15.12 30.5079C14.7859 30.1611 14.3278 29.9612 13.8463 29.9521H5.01172" stroke="#A9612D" stroke-width="1.7" stroke-linecap="round" stroke-linejoin="round"/>
<path d="M1.16699 19.3418H5.72025" stroke="#A9612D" stroke-width="1.7" stroke-linecap="round" stroke-linejoin="round"/>
<path d="M6.02148 9.22559H13.0697" stroke="#A9612D" stroke-width="1.7" stroke-linecap="round" stroke-linejoin="round"/>
<path d="M28.3499 4.99245C29.0101 6.93412 27.1559 7.35157 27.816 7.35157C30.3208 7.75932 32.9711 10.7301 32.6702 13.0795C32.2819 15.6619 29.9906 15.8852 30.4275 16.0696C31.6317 16.6252 32.6558 17.5074 33.3835 18.6161C34.1112 19.7248 34.5132 21.0154 34.5438 22.3412C34.5438 24.6324 32.5051 25.9333 30.4275 26.9818C32.2236 28.0982 34.1749 30.4185 34.1749 32.5155C34.1749 35.9134 31.6605 38.1658 27.8645 38.1658C27.3626 38.1668 26.8618 38.1181 26.3695 38.0201C25.8389 38.8224 25.1178 39.4807 24.2708 39.9364C23.4238 40.3921 22.4772 40.631 21.5153 40.6317C20.6181 40.6445 19.7272 40.4796 18.894 40.1463C18.0609 39.8131 17.302 39.3181 16.6612 38.69C15.9985 38.9076 15.3094 39.035 14.6126 39.0686C10.3701 39.4764 8.35081 36.3794 8.35081 33.166C8.50561 32.0492 8.97349 30.999 9.70028 30.137C8.04016 29.1662 7.39942 27.2245 7.39942 25.1663C7.39858 24.166 7.65537 23.1822 8.14508 22.3099C8.63479 21.4376 9.34094 20.7062 10.1954 20.186C9.69558 19.5105 9.3773 18.7181 9.27116 17.8845C9.16501 17.0509 9.27452 16.204 9.58912 15.4248C9.90372 14.6456 10.413 13.9602 11.0681 13.434C11.7233 12.9077 12.5025 12.5584 13.3312 12.4193C13.2022 12.0044 13.1368 11.5723 13.1371 11.1378C13.1371 9.974 13.5994 8.85786 14.4223 8.03492C15.2452 7.21198 16.3613 6.74966 17.5251 6.74966C18.0743 6.7684 18.622 6.81701 19.1659 6.89528C19.1659 6.38074 19.8649 1.45863 24.9035 1.92462C26.0593 2.12089 27.099 2.74469 27.816 3.67212" stroke="#A9612D" stroke-width="1.7" stroke-linecap="round" stroke-linejoin="round"/>
</svg>
