<svg width="59" height="59" viewBox="0 0 59 59" fill="none" xmlns="http://www.w3.org/2000/svg">
<path d="M19.8501 16.6506C19.8566 16.4339 19.9057 16.2206 19.9946 16.0228C20.0836 15.8251 20.2107 15.6469 20.3685 15.4983C20.5264 15.3497 20.7121 15.2337 20.9148 15.1568C21.1175 15.08 21.3335 15.0439 21.5502 15.0506M21.5502 20.5106H10.1802H21.7401C22.4642 20.496 23.1528 20.1944 23.6544 19.6721C24.1561 19.1498 24.4297 18.4496 24.4152 17.7256C24.4006 17.0015 24.0989 16.313 23.5767 15.8113C23.0544 15.3096 22.3542 15.036 21.6301 15.0506H21.5801" stroke="white" stroke-width="1.7" stroke-linecap="round" stroke-linejoin="round"/>
<path d="M29.6802 30.65C29.6866 30.8668 29.7358 31.0801 29.8247 31.2778C29.9137 31.4755 30.0406 31.6538 30.1985 31.8023C30.3564 31.9509 30.542 32.067 30.7448 32.1438C30.9475 32.2206 31.1634 32.2567 31.3801 32.25C31.7386 32.2573 32.0951 32.1938 32.4291 32.0633C32.7631 31.9328 33.068 31.7377 33.3267 31.4893C33.5853 31.2409 33.7924 30.944 33.9363 30.6156C34.0801 30.2871 34.1579 29.9335 34.1652 29.575C34.1724 29.2165 34.1089 28.8601 33.9784 28.5261C33.8479 28.1921 33.6528 27.8871 33.4044 27.6285C33.156 27.3699 32.8591 27.1628 32.5306 27.0189C32.2022 26.875 31.8486 26.7973 31.4901 26.79H7.8501" stroke="white" stroke-width="1.7" stroke-linecap="round" stroke-linejoin="round"/>
<path d="M12.3501 23.71H19.4302" stroke="white" stroke-width="1.7" stroke-linecap="round" stroke-linejoin="round"/>
<path d="M32.3501 44.5399C32.3501 44.5399 33.0901 42.1099 35.6301 43.4199C35.6301 43.4199 34.6301 45.9999 32.3501 44.5399Z" fill="white"/>
<path d="M10.51 37.5703C10.51 37.5703 9.04991 34.8803 12.3199 33.8203C12.3199 33.8203 13.72 36.8803 10.51 37.5703Z" fill="white"/>
<path d="M28.52 12.0003C28.52 12.0003 30.8 10.0003 32.58 12.9203C32.58 12.9303 29.91 15.0003 28.52 12.0003Z" fill="white"/>
<path d="M15.6301 40.5399C15.1797 41.1829 14.7658 41.8506 14.3901 42.5399C15.8808 43.4468 17.4847 44.1529 19.1602 44.6399L19.7401 44.7999C19.7914 44.5395 19.8582 44.2824 19.9401 44.0299C20.6221 41.8512 22.1198 40.0203 24.1201 38.9199" stroke="white" stroke-width="1.7" stroke-linecap="round" stroke-linejoin="round"/>
<path d="M20.1899 35.8105C18.9478 36.7482 17.8142 37.8215 16.8101 39.0105" stroke="white" stroke-width="1.7" stroke-linecap="round" stroke-linejoin="round"/>
<path d="M43.9998 13.6801C43.6044 13.6402 43.2073 13.6201 42.8099 13.6201C38.9199 13.6201 35.6298 15.4801 34.5698 18.0401C33.644 17.355 32.5461 16.9404 31.3985 16.8425C30.2509 16.7446 29.0988 16.9672 28.0703 17.4856C27.0418 18.004 26.1774 18.7978 25.5734 19.7785C24.9695 20.7592 24.6498 21.8884 24.6498 23.0401V23.1701C24.008 22.9425 23.3308 22.8308 22.6498 22.8401C21.3775 22.8808 20.151 23.3252 19.1479 24.1089C18.1447 24.8926 17.4169 25.9751 17.0695 27.1998C16.7222 28.4245 16.7732 29.7279 17.2155 30.9216C17.6578 32.1153 18.4684 33.1374 19.5299 33.8401C19.5872 34.2659 19.6877 34.6847 19.8298 35.0901C19.8298 35.2101 19.9098 35.3201 19.9598 35.4401C20.3283 36.3026 20.8939 37.0667 21.6112 37.6711C22.3284 38.2754 23.1773 38.7032 24.0898 38.9201C24.5162 39.0194 24.9521 39.0731 25.3898 39.0801H25.4498C26.2615 39.0781 27.0645 38.9114 27.8099 38.5901C28.3357 38.3647 28.8245 38.0613 29.2598 37.6901C29.4764 38.0118 29.7136 38.3191 29.9698 38.6101C30.3975 39.0944 30.8771 39.5303 31.3998 39.9101C32.8531 40.9705 34.601 41.5508 36.3998 41.5701H36.5399C38.7723 41.5705 40.9196 40.7138 42.5385 39.1767C44.1575 37.6396 45.1245 35.5396 45.2398 33.3101V33.3001L45.3898 33.3701C45.6553 33.402 45.9224 33.4187 46.1898 33.4201C46.868 33.4156 47.542 33.3112 48.1898 33.1101C49.4717 32.7331 50.5998 31.9564 51.4092 30.8932C52.2187 29.8301 52.6673 28.5362 52.6898 27.2001C52.6922 26.8443 52.6587 26.4892 52.5898 26.1401C53.4839 25.9152 54.2786 25.401 54.8502 24.6776C55.4217 23.9541 55.738 23.062 55.7498 22.1401C55.7317 21.5793 55.6032 21.0275 55.3718 20.5163C55.1403 20.0052 54.8104 19.5446 54.4008 19.1611C53.9913 18.7775 53.5102 18.4784 52.9849 18.2809C52.4597 18.0835 51.9006 17.9914 51.3398 18.0101H50.9898C50.7466 17.4316 50.4086 16.8976 49.9898 16.4301C48.9759 15.3399 47.6877 14.5421 46.2598 14.1201" stroke="white" stroke-width="1.7" stroke-linecap="round" stroke-linejoin="round"/>
<path d="M39.1699 35.4805H47.0199" stroke="white" stroke-width="1.7" stroke-linecap="round" stroke-linejoin="round"/>
<path d="M4.81982 46.5606C4.81982 46.5606 4.81989 44.4606 8.13989 43.3506" stroke="white" stroke-width="1.7" stroke-linecap="round" stroke-linejoin="round"/>
<path d="M6.72998 46.7605C7.14037 46.0518 7.8114 45.5315 8.59998 45.3105" stroke="white" stroke-width="1.7" stroke-linecap="round" stroke-linejoin="round"/>
<path d="M25.8098 46.6806C25.7356 46.0479 25.8297 45.4069 26.0825 44.8222C26.3353 44.2375 26.7379 43.7299 27.2497 43.3506" stroke="white" stroke-width="1.7" stroke-linecap="round" stroke-linejoin="round"/>
<path d="M26.5601 47.0504C26.2901 46.6804 27.43 44.5404 29.14 44.3604" stroke="white" stroke-width="1.7" stroke-linecap="round" stroke-linejoin="round"/>
<path d="M1.70996 47.0498H40.4" stroke="white" stroke-width="1.7" stroke-linecap="round" stroke-linejoin="round"/>
<path d="M39.02 42.1904H43.6899" stroke="white" stroke-width="1.7" stroke-linecap="round" stroke-linejoin="round"/>
</svg>
