<svg width="28" height="28" viewBox="0 0 28 28" fill="none" xmlns="http://www.w3.org/2000/svg">
<g clip-path="url(#clip0_1018_21839)">
<path d="M14.0172 24.7461L14.0172 2.81463H15.7074C15.7299 2.81307 15.7524 2.81635 15.7735 2.82424C15.7946 2.83213 15.8137 2.84446 15.8297 2.86038C15.8456 2.8763 15.8579 2.89543 15.8658 2.91651C15.8737 2.9376 15.877 2.96015 15.8754 2.98261L15.9804 18.342L22.164 13.0927C22.1872 13.0719 22.2161 13.0584 22.247 13.054C22.2778 13.0495 22.3093 13.0544 22.3374 13.0679C22.3655 13.0814 22.389 13.1029 22.4049 13.1298C22.4207 13.1566 22.4283 13.1876 22.4265 13.2187L22.4265 17.5651C22.4257 17.5879 22.4196 17.6102 22.4087 17.6303C22.3977 17.6503 22.3823 17.6676 22.3635 17.6806L14.0907 24.7146C14.0698 24.7322 14.0443 24.7432 14.0172 24.7461Z" fill="#65A5EF"/>
<path d="M5.44024 13.3019C5.44119 13.2707 5.45083 13.2404 5.46805 13.2144C5.48528 13.1883 5.50939 13.1676 5.53774 13.1545C5.56609 13.1414 5.59754 13.1365 5.62854 13.1403C5.65953 13.1441 5.68885 13.1564 5.71321 13.176L11.9598 18.3517L11.8654 2.99234C11.8654 2.94779 11.8831 2.90508 11.9146 2.87357C11.9461 2.84207 11.9888 2.82436 12.0333 2.82436H14.0176L14.0176 24.7454C14.0009 24.7523 13.9831 24.7559 13.9651 24.7559C13.947 24.7559 13.9292 24.7523 13.9126 24.7454L5.51374 17.8163C5.49278 17.803 5.47582 17.7843 5.46472 17.7621C5.45362 17.7399 5.4488 17.7151 5.45075 17.6903L5.44024 13.3019Z" fill="#4D93E6"/>
</g>
<defs>
<clipPath id="clip0_1018_21839">
<rect width="17.0182" height="21.942" fill="white" transform="translate(22.458 24.7461) rotate(-180)"/>
</clipPath>
</defs>
</svg>
