<svg width="59" height="59" viewBox="0 0 59 59" fill="none" xmlns="http://www.w3.org/2000/svg">
<path d="M14.5654 25.8623H20.7975" stroke="#08863A" stroke-width="1.7" stroke-linecap="round" stroke-linejoin="round"/>
<path d="M14.5654 31.7998H20.7975" stroke="#08863A" stroke-width="1.7" stroke-linecap="round" stroke-linejoin="round"/>
<path d="M14.5654 13.9668H20.7975" stroke="#08863A" stroke-width="1.7" stroke-linecap="round" stroke-linejoin="round"/>
<path d="M14.5654 19.915H20.7975" stroke="#08863A" stroke-width="1.7" stroke-linecap="round" stroke-linejoin="round"/>
<path d="M25.4331 8.883C25.7858 7.90998 26.4721 7.09358 27.3701 6.57896C28.268 6.06435 29.3194 5.88486 30.3373 6.07243C31.3551 6.25999 32.2735 6.80245 32.9291 7.60334C33.5846 8.40424 33.9348 9.41166 33.9175 10.4465V38.3597C35.3318 39.299 36.406 40.6687 36.9813 42.266C37.5566 43.8633 37.6024 45.6034 37.1119 47.2288C36.6213 48.8541 35.6204 50.2783 34.2574 51.2906C32.8945 52.3029 31.2419 52.8496 29.5441 52.8496C27.8463 52.8496 26.1937 52.3029 24.8308 51.2906C23.4678 50.2783 22.4669 48.8541 21.9763 47.2288C21.4858 45.6034 21.5316 43.8633 22.1069 42.266C22.6822 40.6687 23.7564 39.299 25.1707 38.3597V12.4145" stroke="#08863A" stroke-width="1.7" stroke-miterlimit="10" stroke-linecap="round"/>
<path d="M34.6175 44.9196C34.6175 46.2709 34.0807 47.5668 33.1252 48.5223C32.1697 49.4778 30.8737 50.0146 29.5224 50.0146C28.1712 50.0146 26.8753 49.4778 25.9198 48.5223C24.9643 47.5668 24.4275 46.2709 24.4275 44.9196C24.4109 44.6867 24.4109 44.4528 24.4275 44.2199C24.5891 42.9946 25.1904 41.8698 26.1197 41.055C27.049 40.2402 28.2429 39.791 29.4788 39.791C30.7147 39.791 31.9084 40.2402 32.8377 41.055C33.767 41.8698 34.3685 42.9946 34.5301 44.2199C34.576 44.4507 34.6051 44.6846 34.6175 44.9196Z" stroke="#08863A" stroke-width="1.7" stroke-miterlimit="10"/>
<path d="M29.5332 39.4531V25.4473" stroke="#08863A" stroke-width="1.7" stroke-linecap="round" stroke-linejoin="round"/>
<path d="M47.0881 8.27273V17H45.2983L41.8253 11.9631H41.7699V17H39.6605V8.27273H41.4759L44.9105 13.3011H44.983V8.27273H47.0881Z" fill="#08863A"/>
</svg>
