<svg width="59" height="59" viewBox="0 0 59 59" fill="none" xmlns="http://www.w3.org/2000/svg">
<path d="M48.1643 18.5157C48.0736 20.8465 47.2035 23.0795 45.6933 24.8571C45.6622 24.8972 45.6225 24.9299 45.577 24.9526C45.5316 24.9753 45.4817 24.9875 45.4309 24.9883C45.3827 24.988 45.3352 24.977 45.2917 24.9562C45.2482 24.9354 45.21 24.9053 45.1794 24.868C43.4082 22.9109 43.6378 21.588 43.8018 20.6368C43.8071 20.5494 43.8071 20.4618 43.8018 20.3744C44.102 18.9546 44.0265 17.4811 43.5831 16.0994C43.407 16.871 43.1081 17.6094 42.6975 18.2861L42.4351 18.7562C41.9261 19.5397 41.5562 20.4052 41.3418 21.3147C41.229 22.0806 41.3465 22.8627 41.6794 23.5616C42.0124 24.2605 42.5456 24.8447 43.2114 25.2398C43.2772 25.274 43.33 25.329 43.3616 25.3961C43.3933 25.4633 43.4019 25.5389 43.3863 25.6115C43.37 25.6852 43.3303 25.7516 43.2732 25.8008C43.216 25.8501 43.1445 25.8796 43.0692 25.8849H42.7413C41.5009 25.8857 40.3086 25.4052 39.4153 24.5446C38.5221 23.684 37.9977 22.5104 37.9524 21.2709C37.927 20.5485 38.0809 19.831 38.4006 19.1826C38.5679 18.8574 38.7617 18.5466 38.9801 18.2533C39.0701 18.1412 39.154 18.0244 39.2316 17.9034C39.8821 16.8893 40.2999 15.7437 40.4549 14.549C40.6099 13.3542 40.4984 12.1399 40.1282 10.9934C39.9236 10.2093 39.579 9.46852 39.1113 8.80673C39.0661 8.74901 39.0415 8.67779 39.0415 8.60446C39.0415 8.53113 39.0661 8.45992 39.1113 8.40219C39.1428 8.35635 39.1853 8.31926 39.235 8.29439C39.2848 8.26953 39.34 8.25772 39.3956 8.26006H39.5049C44.9388 10.1297 48.1643 13.9127 48.1643 18.5157Z" fill="#A9612D"/>
<path d="M14.5654 25.8623H20.7975" stroke="#A9612D" stroke-width="1.7" stroke-linecap="round" stroke-linejoin="round"/>
<path d="M14.5654 31.7998H20.7975" stroke="#A9612D" stroke-width="1.7" stroke-linecap="round" stroke-linejoin="round"/>
<path d="M14.5654 13.9668H20.7975" stroke="#A9612D" stroke-width="1.7" stroke-linecap="round" stroke-linejoin="round"/>
<path d="M14.5654 19.915H20.7975" stroke="#A9612D" stroke-width="1.7" stroke-linecap="round" stroke-linejoin="round"/>
<path d="M25.4331 8.883C25.7858 7.90998 26.4721 7.09358 27.3701 6.57896C28.268 6.06435 29.3194 5.88486 30.3373 6.07243C31.3551 6.25999 32.2735 6.80245 32.9291 7.60334C33.5846 8.40424 33.9348 9.41166 33.9175 10.4465V38.3597C35.3318 39.299 36.406 40.6687 36.9813 42.266C37.5566 43.8633 37.6024 45.6034 37.1119 47.2288C36.6213 48.8541 35.6204 50.2783 34.2574 51.2906C32.8945 52.3029 31.2419 52.8496 29.5441 52.8496C27.8463 52.8496 26.1937 52.3029 24.8308 51.2906C23.4678 50.2783 22.4669 48.8541 21.9763 47.2288C21.4858 45.6034 21.5316 43.8633 22.1069 42.266C22.6822 40.6687 23.7564 39.299 25.1707 38.3597V12.4145" stroke="#A9612D" stroke-width="1.7" stroke-miterlimit="10" stroke-linecap="round"/>
<path d="M34.6175 44.9196C34.6175 46.2709 34.0807 47.5668 33.1252 48.5223C32.1697 49.4778 30.8737 50.0146 29.5224 50.0146C28.1712 50.0146 26.8753 49.4778 25.9198 48.5223C24.9643 47.5668 24.4275 46.2709 24.4275 44.9196C24.4109 44.6867 24.4109 44.4528 24.4275 44.2199C24.5891 42.9946 25.1904 41.8698 26.1197 41.055C27.049 40.2402 28.2429 39.791 29.4788 39.791C30.7147 39.791 31.9084 40.2402 32.8377 41.055C33.767 41.8698 34.3685 42.9946 34.5301 44.2199C34.576 44.4507 34.6051 44.6846 34.6175 44.9196Z" stroke="#A9612D" stroke-width="1.7" stroke-miterlimit="10"/>
<path d="M29.5332 39.4531V25.4473" stroke="#A9612D" stroke-width="1.7" stroke-linecap="round" stroke-linejoin="round"/>
</svg>
