<svg width="59" height="59" viewBox="0 0 59 59" fill="none" xmlns="http://www.w3.org/2000/svg">
<path d="M44.5931 18.0719C44.0858 18.074 43.5892 17.9255 43.1663 17.6452C42.7435 17.3649 42.4134 16.9654 42.2177 16.4973C42.0221 16.0292 41.9698 15.5135 42.0675 15.0157C42.1651 14.5179 42.4085 14.0602 42.7665 13.7007C43.1244 13.3412 43.581 13.0961 44.0784 12.9963C44.5758 12.8966 45.0918 12.9467 45.5607 13.1403C46.0296 13.334 46.4305 13.6625 46.7126 14.0841C46.9947 14.5058 47.1452 15.0017 47.1452 15.5091C47.1452 16.1869 46.8766 16.8371 46.3983 17.3175C45.92 17.7978 45.2709 18.069 44.5931 18.0719ZM44.5931 13.6111C44.2147 13.609 43.8442 13.7194 43.5287 13.9283C43.2131 14.1372 42.9668 14.4352 42.821 14.7844C42.6752 15.1336 42.6366 15.5183 42.7099 15.8895C42.7832 16.2608 42.9651 16.6018 43.2327 16.8694C43.5003 17.137 43.8415 17.319 44.2127 17.3923C44.584 17.4656 44.9685 17.4269 45.3177 17.2811C45.6669 17.1353 45.965 16.889 46.1739 16.5735C46.3829 16.258 46.4932 15.8875 46.4911 15.5091C46.4911 15.0057 46.2911 14.5229 45.9352 14.167C45.5792 13.8111 45.0965 13.6111 44.5931 13.6111Z" fill="#008698"/>
<path d="M44.5927 18.2431C44.0515 18.2453 43.5218 18.0867 43.0707 17.7875C42.6196 17.4884 42.2675 17.0621 42.0589 16.5626C41.8503 16.0632 41.7946 15.513 41.8989 14.9819C42.0032 14.4508 42.2628 13.9626 42.6448 13.5791C43.0267 13.1956 43.5138 12.9341 44.0446 12.8277C44.5753 12.7214 45.1256 12.7749 45.6259 12.9815C46.1262 13.1882 46.5538 13.5386 46.8548 13.9885C47.1557 14.4384 47.3164 14.9675 47.3164 15.5088C47.3164 16.2321 47.0298 16.926 46.5193 17.4385C46.0088 17.951 45.3161 18.2403 44.5927 18.2431ZM44.5927 13.1175C44.1168 13.1154 43.651 13.2547 43.2543 13.5179C42.8577 13.781 42.5482 14.156 42.365 14.5953C42.1819 15.0347 42.1334 15.5185 42.2258 15.9854C42.3181 16.4524 42.5471 16.8813 42.8836 17.2179C43.2202 17.5545 43.6491 17.7834 44.116 17.8758C44.583 17.9681 45.0668 17.9196 45.5061 17.7365C45.9455 17.5534 46.3206 17.2439 46.5837 16.8472C46.8468 16.4506 46.9861 15.9847 46.984 15.5088C46.984 14.8746 46.7321 14.2663 46.2837 13.8179C45.8352 13.3695 45.2269 13.1175 44.5927 13.1175ZM44.5927 17.589C44.1809 17.5911 43.7776 17.471 43.4341 17.2437C43.0906 17.0164 42.8223 16.6922 42.6632 16.3123C42.5041 15.9324 42.4614 15.5138 42.5404 15.1095C42.6195 14.7053 42.8167 14.3336 43.1072 14.0416C43.3977 13.7496 43.7684 13.5504 44.1722 13.4693C44.576 13.3881 44.9949 13.4287 45.3756 13.5858C45.7564 13.743 46.0818 14.0096 46.3109 14.3519C46.5399 14.6942 46.6623 15.0969 46.6623 15.5088C46.6624 16.0586 46.4446 16.5861 46.0568 16.976C45.669 17.3658 45.1426 17.5862 44.5927 17.589ZM44.5927 13.7716C44.2462 13.7695 43.9068 13.8705 43.6177 14.0617C43.3286 14.253 43.1029 14.5258 42.9692 14.8456C42.8356 15.1655 42.8002 15.5178 42.8673 15.8578C42.9344 16.1979 43.101 16.5103 43.3461 16.7554C43.5912 17.0005 43.9036 17.1671 44.2436 17.2342C44.5837 17.3013 44.9361 17.2658 45.2559 17.1322C45.5757 16.9986 45.8486 16.7729 46.0398 16.4838C46.231 16.1948 46.332 15.8554 46.3299 15.5088C46.3271 15.0489 46.1431 14.6087 45.8179 14.2835C45.4928 13.9584 45.0526 13.7744 44.5927 13.7716Z" fill="#008698"/>
<path d="M43.0164 14.2114C42.9727 14.2116 42.9293 14.2032 42.8888 14.1867C42.8483 14.1701 42.8116 14.1457 42.7806 14.1149L38.9524 10.2546C38.9216 10.2246 38.8971 10.1888 38.8804 10.1492C38.8637 10.1096 38.855 10.0671 38.855 10.0241C38.855 9.98109 38.8637 9.93855 38.8804 9.89895C38.8971 9.85935 38.9216 9.82351 38.9524 9.79353C38.9833 9.76241 39.02 9.7377 39.0605 9.72085C39.101 9.70399 39.1444 9.69531 39.1882 9.69531C39.2321 9.69531 39.2755 9.70399 39.316 9.72085C39.3565 9.7377 39.3933 9.76241 39.4242 9.79353L43.2523 13.6538C43.2831 13.6838 43.3076 13.7196 43.3243 13.7592C43.341 13.7988 43.3497 13.8414 43.3497 13.8844C43.3497 13.9273 43.341 13.9699 43.3243 14.0095C43.3076 14.0491 43.2831 14.0849 43.2523 14.1149C43.223 14.1479 43.1864 14.1738 43.1455 14.1905C43.1046 14.2072 43.0605 14.2144 43.0164 14.2114Z" fill="#008698"/>
<path d="M43.0167 14.3831C42.8835 14.3818 42.7562 14.3278 42.6627 14.233L38.8347 10.3727C38.7814 10.2993 38.7494 10.2126 38.7423 10.1222C38.7351 10.0318 38.7531 9.94111 38.7941 9.8602C38.8351 9.77929 38.8976 9.71126 38.9747 9.66358C39.0519 9.6159 39.1407 9.59042 39.2314 9.58995C39.2967 9.58861 39.3615 9.60024 39.4223 9.62417C39.483 9.6481 39.5384 9.68385 39.5852 9.72935L43.4134 13.5896C43.5057 13.6821 43.5575 13.8074 43.5575 13.9381C43.5575 14.0688 43.5057 14.1941 43.4134 14.2866C43.3577 14.3295 43.2935 14.3602 43.2252 14.3769C43.1569 14.3935 43.0859 14.3956 43.0167 14.3831ZM39.2314 9.86875C39.1935 9.85381 39.1514 9.85381 39.1135 9.86875C39.0883 9.90086 39.0745 9.94051 39.0745 9.98134C39.0745 10.0222 39.0883 10.0618 39.1135 10.0939L42.9415 13.9542C42.9556 13.9702 42.973 13.983 42.9925 13.9917C43.0119 14.0005 43.0328 14.005 43.0541 14.005C43.0754 14.005 43.0965 14.0005 43.1159 13.9917C43.1353 13.983 43.1527 13.9702 43.1668 13.9542C43.1963 13.9241 43.2128 13.8837 43.2128 13.8416C43.2128 13.7995 43.1963 13.7591 43.1668 13.729L39.3279 9.86875C39.3111 9.86104 39.2929 9.85704 39.2744 9.85704C39.2558 9.85704 39.2375 9.86104 39.2207 9.86875H39.2314Z" fill="#008698"/>
<path d="M41.097 12.2811H38.5771C38.5005 12.2671 38.4312 12.2268 38.3813 12.167C38.3314 12.1072 38.3042 12.0319 38.3042 11.954C38.3042 11.8762 38.3314 11.8008 38.3813 11.741C38.4312 11.6812 38.5005 11.6409 38.5771 11.627H41.1077C41.194 11.6297 41.2758 11.666 41.3359 11.728C41.3959 11.7901 41.4295 11.873 41.4295 11.9594C41.4295 12.0025 41.4208 12.0453 41.4039 12.085C41.3871 12.1247 41.3624 12.1607 41.3314 12.1907C41.3004 12.2207 41.2637 12.2442 41.2234 12.2597C41.1832 12.2752 41.1401 12.2825 41.097 12.2811Z" fill="#008698"/>
<path d="M41.0971 12.4526H38.5772C38.4454 12.4498 38.3199 12.3955 38.2277 12.3013C38.1355 12.2071 38.084 12.0805 38.084 11.9487C38.0867 11.8187 38.1395 11.6948 38.2314 11.6029C38.3233 11.511 38.4472 11.4581 38.5772 11.4554H41.1078C41.1716 11.453 41.2352 11.4642 41.2943 11.4882C41.3535 11.5122 41.4068 11.5486 41.4509 11.5948C41.522 11.6638 41.5707 11.7526 41.5906 11.8496C41.6105 11.9467 41.6007 12.0475 41.5625 12.1389C41.5244 12.2303 41.4596 12.3081 41.3765 12.3621C41.2935 12.4162 41.1961 12.444 41.0971 12.4419V12.4526ZM38.5772 11.7878C38.5374 11.7878 38.4992 11.8036 38.471 11.8318C38.4429 11.8599 38.4271 11.8981 38.4271 11.9379C38.4256 11.9585 38.4284 11.9792 38.4353 11.9987C38.4422 12.0182 38.453 12.036 38.4671 12.0511C38.4812 12.0662 38.4982 12.0782 38.5171 12.0864C38.5361 12.0946 38.5566 12.0988 38.5772 12.0988H41.0971C41.1177 12.1003 41.1383 12.0975 41.1578 12.0906C41.1773 12.0837 41.1952 12.0729 41.2103 12.0588C41.2254 12.0447 41.2373 12.0276 41.2455 12.0087C41.2537 11.9897 41.258 11.9693 41.258 11.9487C41.2729 11.9108 41.2729 11.8686 41.258 11.8307C41.241 11.8236 41.2227 11.82 41.2043 11.82C41.1859 11.82 41.1677 11.8236 41.1507 11.8307L38.5772 11.7878Z" fill="#008698"/>
<path d="M41.0971 12.2814C41.0127 12.2787 40.9324 12.244 40.8726 12.1842C40.8129 12.1245 40.7781 12.0442 40.7754 11.9597V9.42911C40.7807 9.3437 40.8178 9.26335 40.8793 9.20383C40.9408 9.14432 41.0223 9.10993 41.1079 9.10742C41.151 9.1074 41.1938 9.11606 41.2335 9.13289C41.2733 9.14973 41.3091 9.17438 41.3392 9.2054C41.3692 9.23642 41.3928 9.27316 41.4083 9.31343C41.4238 9.35371 41.431 9.3967 41.4296 9.43984V11.9597C41.4296 12.0029 41.4209 12.0456 41.4041 12.0854C41.3873 12.1251 41.3626 12.1611 41.3316 12.1911C41.3006 12.2211 41.2639 12.2446 41.2236 12.2601C41.1833 12.2756 41.1403 12.2829 41.0971 12.2814Z" fill="#008698"/>
<path d="M41.0972 12.4527C40.9681 12.4474 40.8457 12.3938 40.7543 12.3024C40.6629 12.211 40.6093 12.0886 40.604 11.9594V9.42881C40.6067 9.29884 40.6596 9.17497 40.7515 9.08305C40.8434 8.99113 40.9673 8.93828 41.0972 8.93555C41.2304 8.93687 41.3575 8.99085 41.451 9.08567C41.5401 9.18208 41.5898 9.30831 41.5904 9.43953V11.9594C41.5877 12.0894 41.535 12.2133 41.443 12.3052C41.3511 12.3971 41.2272 12.45 41.0972 12.4527ZM41.0972 9.23579C41.0546 9.23579 41.0136 9.25274 40.9835 9.2829C40.9533 9.31307 40.9363 9.35398 40.9363 9.39664V11.9165C40.9363 11.9564 40.9522 11.9945 40.9803 12.0227C41.0085 12.0508 41.0467 12.0667 41.0865 12.0667C41.1071 12.0681 41.1278 12.0654 41.1472 12.0585C41.1667 12.0516 41.1846 12.0408 41.1997 12.0267C41.2148 12.0126 41.2268 11.9955 41.2351 11.9766C41.2433 11.9576 41.2474 11.9372 41.2474 11.9165V9.43953C41.2477 9.40034 41.2338 9.36237 41.2081 9.33275C41.1824 9.30313 41.1468 9.28391 41.108 9.27868L41.0972 9.23579Z" fill="#008698"/>
<path d="M39.1565 21.3851C39.1128 21.3854 39.0694 21.377 39.0289 21.3604C38.9884 21.3438 38.9515 21.3194 38.9205 21.2886C38.8897 21.2587 38.8652 21.2228 38.8485 21.1832C38.8318 21.1436 38.8232 21.1011 38.8232 21.0581C38.8232 21.0151 38.8318 20.9726 38.8485 20.933C38.8652 20.8934 38.8897 20.8575 38.9205 20.8275L42.7487 16.9673C42.7772 16.9297 42.8133 16.8987 42.8547 16.8762C42.8961 16.8537 42.9419 16.8403 42.9889 16.8368C43.0359 16.8334 43.0831 16.8399 43.1274 16.8561C43.1716 16.8723 43.212 16.8977 43.2457 16.9306C43.2794 16.9636 43.3057 17.0033 43.3229 17.0472C43.3401 17.0911 43.3477 17.1381 43.3453 17.1852C43.3429 17.2322 43.3306 17.2783 43.3091 17.3202C43.2875 17.3621 43.2573 17.399 43.2204 17.4283L39.3924 21.2886C39.3613 21.3194 39.3245 21.3438 39.284 21.3604C39.2435 21.377 39.2002 21.3854 39.1565 21.3851Z" fill="#008698"/>
<path d="M39.1563 21.546C39.0254 21.5434 38.8998 21.4939 38.8023 21.4066C38.71 21.3142 38.6582 21.1888 38.6582 21.0581C38.6582 20.9275 38.71 20.8021 38.8023 20.7096L42.6305 16.8494C42.6761 16.8014 42.7309 16.7634 42.7918 16.7375C42.8526 16.7117 42.9182 16.6987 42.9843 16.6992C43.1152 16.7019 43.2407 16.7513 43.3381 16.8386C43.4311 16.9329 43.4833 17.0601 43.4833 17.1925C43.4833 17.3249 43.4311 17.4521 43.3381 17.5464L39.5101 21.4066C39.4126 21.4939 39.2871 21.5434 39.1563 21.546ZM42.9843 17.0317C42.9675 17.0239 42.9492 17.0199 42.9307 17.0199C42.9121 17.0199 42.8939 17.0239 42.8771 17.0317L39.0382 20.8919C39.013 20.924 38.9993 20.9637 38.9993 21.0045C38.9993 21.0454 39.013 21.085 39.0382 21.1171C39.0683 21.1466 39.1088 21.1631 39.1509 21.1631C39.193 21.1631 39.2334 21.1466 39.2635 21.1171L43.1023 17.2568C43.1165 17.2429 43.1279 17.2262 43.1356 17.2078C43.1434 17.1893 43.1473 17.1696 43.1473 17.1496C43.1473 17.1296 43.1434 17.1099 43.1356 17.0914C43.1279 17.073 43.1165 17.0564 43.1023 17.0424C43.0849 17.0313 43.0652 17.0245 43.0447 17.0226C43.0241 17.0208 43.0034 17.0239 42.9843 17.0317Z" fill="#008698"/>
<path d="M38.5449 19.4658C38.4605 19.4631 38.3802 19.4284 38.3204 19.3686C38.2607 19.3089 38.226 19.2286 38.2233 19.1441C38.2219 19.101 38.2291 19.058 38.2447 19.0177C38.2602 18.9774 38.2836 18.9407 38.3136 18.9097C38.3437 18.8787 38.3795 18.854 38.4193 18.8372C38.459 18.8203 38.5018 18.8117 38.5449 18.8117H41.0648C41.108 18.8103 41.151 18.8175 41.1913 18.833C41.2315 18.8486 41.2682 18.872 41.2993 18.902C41.3303 18.9321 41.3549 18.968 41.3718 19.0078C41.3886 19.0475 41.3973 19.0902 41.3973 19.1334C41.3948 19.2189 41.3603 19.3005 41.3008 19.362C41.2413 19.4235 41.161 19.4605 41.0755 19.4658H38.5449Z" fill="#008698"/>
<path d="M38.5557 19.637C38.4258 19.6343 38.302 19.5814 38.21 19.4895C38.1181 19.3976 38.0653 19.2737 38.0625 19.1437C38.062 19.0776 38.0749 19.0121 38.1007 18.9512C38.1266 18.8903 38.1647 18.8354 38.2127 18.7899C38.2562 18.7422 38.3092 18.7043 38.3683 18.6784C38.4274 18.6525 38.4912 18.6394 38.5557 18.6398H41.0756C41.1747 18.6377 41.2721 18.6655 41.3551 18.7195C41.4381 18.7736 41.5029 18.8514 41.5411 18.9428C41.5793 19.0342 41.5891 19.135 41.5692 19.232C41.5493 19.3291 41.5006 19.4179 41.4296 19.4869C41.3376 19.5761 41.2145 19.6261 41.0863 19.6263L38.5557 19.637ZM41.0649 18.9614H38.545C38.528 18.9544 38.5099 18.9507 38.4915 18.9507C38.4731 18.9507 38.4548 18.9544 38.4378 18.9614C38.4293 18.978 38.4248 18.9964 38.4248 19.0151C38.4248 19.0337 38.4293 19.0521 38.4378 19.0687C38.4363 19.0893 38.4392 19.11 38.446 19.1294C38.4529 19.1489 38.4636 19.1667 38.4777 19.1818C38.4918 19.1969 38.5089 19.209 38.5279 19.2172C38.5468 19.2254 38.5673 19.2296 38.5879 19.2295H41.1185C41.1596 19.2251 41.1976 19.2061 41.2258 19.1759C41.2335 19.1591 41.2375 19.1408 41.2375 19.1223C41.2375 19.1038 41.2335 19.0855 41.2258 19.0687C41.2142 19.0358 41.1923 19.0075 41.1633 18.9882C41.1343 18.9689 41.0997 18.9595 41.0649 18.9614Z" fill="#008698"/>
<path d="M41.0755 21.975C40.9882 21.9723 40.9052 21.9364 40.8434 21.8746C40.7817 21.8129 40.7459 21.7299 40.7432 21.6426V19.1226C40.7432 19.0373 40.7771 18.9555 40.8374 18.8952C40.8977 18.8349 40.9795 18.801 41.0648 18.801C41.1079 18.7995 41.1509 18.8068 41.1912 18.8223C41.2315 18.8378 41.2682 18.8613 41.2992 18.8913C41.3302 18.9213 41.3549 18.9573 41.3717 18.997C41.3886 19.0368 41.3973 19.0795 41.3973 19.1226V21.6426C41.3987 21.6857 41.3914 21.7287 41.3759 21.769C41.3604 21.8092 41.3369 21.846 41.3069 21.877C41.2769 21.908 41.2409 21.9327 41.2012 21.9495C41.1614 21.9663 41.1187 21.975 41.0755 21.975Z" fill="#008698"/>
<path d="M41.0757 22.1353C40.9449 22.1353 40.8195 22.0834 40.727 21.9909C40.6345 21.8984 40.5825 21.7729 40.5825 21.6421V19.1222C40.5838 18.989 40.6378 18.8618 40.7327 18.7683C40.8246 18.679 40.9476 18.629 41.0757 18.6289C41.2076 18.6289 41.3342 18.6805 41.4284 18.7727C41.5226 18.8649 41.5769 18.9904 41.5797 19.1222V21.6421C41.5771 21.7729 41.5277 21.8985 41.4404 21.9959C41.3923 22.0427 41.3352 22.0793 41.2725 22.1032C41.2098 22.1272 41.1428 22.1381 41.0757 22.1353ZM41.0757 18.9184C41.0551 18.9195 41.035 18.9248 41.0166 18.9341C40.9981 18.9433 40.9818 18.9562 40.9685 18.972C40.9608 18.9889 40.9569 19.0072 40.9569 19.0257C40.9569 19.0442 40.9608 19.0625 40.9685 19.0793V21.5992C40.9724 21.6283 40.9838 21.656 41.0015 21.6795C41.0192 21.703 41.0425 21.7215 41.0695 21.7334C41.0964 21.7452 41.1259 21.7499 41.1552 21.7471C41.1845 21.7443 41.2125 21.7339 41.2366 21.7171C41.2505 21.6791 41.2505 21.6373 41.2366 21.5992V19.1222C41.2367 19.1001 41.2321 19.0783 41.2234 19.058C41.2146 19.0378 41.2019 19.0195 41.1858 19.0045C41.1697 18.9894 41.1507 18.9778 41.1299 18.9703C41.1092 18.9629 41.087 18.9598 41.065 18.9613L41.0757 18.9184Z" fill="#008698"/>
<path d="M42.341 15.8729H36.9043C36.8617 15.8744 36.8193 15.8671 36.7796 15.8514C36.7399 15.8358 36.7037 15.8121 36.6736 15.782C36.6434 15.7518 36.6198 15.7157 36.6042 15.676C36.5885 15.6363 36.5812 15.5938 36.5827 15.5512C36.5813 15.508 36.5885 15.465 36.604 15.4248C36.6196 15.3845 36.643 15.3477 36.673 15.3167C36.703 15.2857 36.739 15.2611 36.7788 15.2442C36.8185 15.2274 36.8612 15.2187 36.9043 15.2188H42.341C42.4291 15.2188 42.5137 15.2538 42.576 15.3161C42.6384 15.3785 42.6733 15.463 42.6733 15.5512C42.6733 15.5943 42.6647 15.6371 42.6479 15.6768C42.6311 15.7165 42.6064 15.7525 42.5754 15.7825C42.5444 15.8125 42.5075 15.836 42.4673 15.8515C42.427 15.867 42.3841 15.8743 42.341 15.8729Z" fill="#008698"/>
<path d="M42.341 16.0236H36.9043C36.7735 16.0236 36.6481 15.9717 36.5556 15.8792C36.4631 15.7866 36.4111 15.6612 36.4111 15.5304C36.4111 15.3995 36.4631 15.2741 36.5556 15.1816C36.6481 15.0891 36.7735 15.0371 36.9043 15.0371H42.3517C42.416 15.0371 42.4796 15.0499 42.5389 15.0748C42.5982 15.0998 42.6518 15.1363 42.6968 15.1822C42.7417 15.2282 42.777 15.2826 42.8006 15.3424C42.8242 15.4022 42.8356 15.4661 42.8342 15.5304C42.8315 15.6603 42.7786 15.7842 42.6867 15.8761C42.5948 15.968 42.4709 16.0209 42.341 16.0236ZM36.9043 15.3266C36.8617 15.3266 36.8208 15.3436 36.7906 15.3737C36.7604 15.4039 36.7436 15.4448 36.7436 15.4875C36.7304 15.522 36.7304 15.5602 36.7436 15.5947C36.7558 15.6117 36.7719 15.6254 36.7906 15.6348C36.8093 15.6441 36.8299 15.6488 36.8508 15.6483H42.2873C42.33 15.6483 42.3709 15.6314 42.4011 15.6012C42.4312 15.571 42.4482 15.5301 42.4482 15.4875C42.4482 15.4448 42.4312 15.4039 42.4011 15.3737C42.3709 15.3436 42.33 15.3266 42.2873 15.3266H36.9043Z" fill="#008698"/>
<path d="M37.8268 17.6215C37.783 17.6217 37.7398 17.6133 37.6993 17.5968C37.6588 17.5802 37.6219 17.5558 37.5909 17.525C37.5601 17.495 37.5356 17.4592 37.5189 17.4196C37.5022 17.38 37.4937 17.3374 37.4937 17.2944C37.4937 17.2515 37.5022 17.2089 37.5189 17.1693C37.5356 17.1297 37.5601 17.0939 37.5909 17.0639L39.3924 15.2946C39.4224 15.2638 39.4582 15.2393 39.4978 15.2226C39.5374 15.2059 39.58 15.1973 39.6229 15.1973C39.6659 15.1973 39.7085 15.2059 39.7481 15.2226C39.7877 15.2393 39.8235 15.2638 39.8534 15.2946C39.8846 15.3255 39.9094 15.3623 39.9262 15.4027C39.9431 15.4432 39.9517 15.4867 39.9517 15.5305C39.9517 15.5744 39.9431 15.6178 39.9262 15.6583C39.9094 15.6988 39.8846 15.7355 39.8534 15.7664L38.0521 17.525C37.9927 17.5856 37.9116 17.6203 37.8268 17.6215Z" fill="#008698"/>
<path d="M37.8266 17.7931C37.7605 17.7936 37.6951 17.7806 37.6342 17.7548C37.5733 17.729 37.5183 17.6909 37.4728 17.643C37.3798 17.5487 37.3276 17.4215 37.3276 17.2891C37.3276 17.1567 37.3798 17.0295 37.4728 16.9352L39.2743 15.1767C39.3191 15.1284 39.3741 15.0909 39.4353 15.0667C39.4966 15.0426 39.5625 15.0325 39.6281 15.0373C39.6937 15.0342 39.7592 15.0449 39.8204 15.0686C39.8816 15.0923 39.9374 15.1285 39.9838 15.175C40.0302 15.2214 40.0664 15.277 40.0901 15.3382C40.1138 15.3994 40.1244 15.4649 40.1214 15.5305C40.1219 15.5967 40.109 15.6622 40.0831 15.7231C40.0573 15.7839 40.0191 15.8388 39.9712 15.8844L38.1591 17.643C38.0722 17.7346 37.9528 17.7885 37.8266 17.7931ZM39.6281 15.3697C39.5902 15.3547 39.5481 15.3547 39.5102 15.3697L37.7087 17.139C37.6985 17.174 37.6985 17.2112 37.7087 17.2462C37.6937 17.2841 37.6937 17.3263 37.7087 17.3642C37.7387 17.3936 37.7793 17.4101 37.8214 17.4101C37.8635 17.4101 37.9039 17.3936 37.9339 17.3642L39.7353 15.5949C39.743 15.578 39.7471 15.5598 39.7471 15.5413C39.7471 15.5227 39.743 15.5045 39.7353 15.4876C39.7503 15.4497 39.7503 15.4076 39.7353 15.3697C39.7003 15.3596 39.6632 15.3596 39.6281 15.3697Z" fill="#008698"/>
<path d="M39.6281 15.852C39.5844 15.8523 39.541 15.8439 39.5005 15.8273C39.46 15.8107 39.4233 15.7863 39.3922 15.7555L37.6229 13.9648C37.5618 13.9036 37.5273 13.8207 37.5273 13.7342C37.5273 13.6478 37.5618 13.5648 37.6229 13.5037C37.684 13.4426 37.7669 13.4082 37.8534 13.4082C37.9399 13.4082 38.0229 13.4426 38.084 13.5037L39.8532 15.2944C39.884 15.3244 39.9085 15.3603 39.9252 15.3999C39.9419 15.4395 39.9506 15.482 39.9506 15.525C39.9506 15.568 39.9419 15.6105 39.9252 15.6501C39.9085 15.6897 39.884 15.7256 39.8532 15.7555C39.7938 15.8161 39.7129 15.8508 39.6281 15.852Z" fill="#008698"/>
<path d="M39.6283 16.0234C39.5621 16.0239 39.4966 16.0109 39.4357 15.985C39.3748 15.9592 39.32 15.9212 39.2745 15.8732L37.5051 14.0825C37.4572 14.0369 37.4192 13.982 37.3934 13.9211C37.3675 13.8603 37.3544 13.7947 37.355 13.7286C37.3546 13.6641 37.3678 13.6002 37.3936 13.5411C37.4195 13.482 37.4575 13.429 37.5051 13.3855C37.5507 13.3376 37.6055 13.2995 37.6664 13.2737C37.7273 13.2478 37.7928 13.2348 37.8589 13.2354C37.9235 13.235 37.9874 13.2482 38.0465 13.274C38.1056 13.2999 38.1586 13.3379 38.2022 13.3855L39.9713 15.1762C40.0187 15.2222 40.0564 15.2772 40.0821 15.338C40.1078 15.3988 40.1211 15.4641 40.1211 15.5301C40.1211 15.5961 40.1078 15.6614 40.0821 15.7222C40.0564 15.783 40.0187 15.838 39.9713 15.884C39.8782 15.9714 39.756 16.0211 39.6283 16.0234ZM37.8482 13.5785C37.8312 13.5714 37.8131 13.5678 37.7947 13.5678C37.7763 13.5678 37.758 13.5714 37.741 13.5785C37.725 13.5926 37.7122 13.6099 37.7034 13.6293C37.6947 13.6487 37.6902 13.6698 37.6902 13.6911C37.6902 13.7124 37.6947 13.7334 37.7034 13.7529C37.7122 13.7723 37.725 13.7896 37.741 13.8037L39.5103 15.5944C39.5242 15.6129 39.5418 15.6281 39.562 15.6391C39.5823 15.6502 39.6046 15.6567 39.6276 15.6584C39.6506 15.66 39.6737 15.6567 39.6953 15.6486C39.7169 15.6406 39.7365 15.628 39.7528 15.6117C39.769 15.5954 39.7816 15.5758 39.7897 15.5542C39.7977 15.5326 39.8011 15.5095 39.7995 15.4865C39.7978 15.4635 39.7913 15.4412 39.7802 15.4209C39.7692 15.4007 39.7539 15.3831 39.7355 15.3692L37.9662 13.5785C37.9316 13.5653 37.8935 13.5653 37.8589 13.5785H37.8482Z" fill="#008698"/>
<path d="M50.2225 21.3854C50.1804 21.3854 50.1387 21.3769 50.1 21.3603C50.0613 21.3437 50.0264 21.3194 49.9973 21.2889L46.1692 17.4287C46.108 17.3675 46.0737 17.2846 46.0737 17.1981C46.0737 17.1116 46.108 17.0287 46.1692 16.9676C46.2303 16.9064 46.3133 16.8721 46.3998 16.8721C46.4863 16.8721 46.5692 16.9064 46.6303 16.9676L50.4584 20.8278C50.4892 20.8578 50.5136 20.8937 50.5303 20.9333C50.5471 20.9729 50.5557 21.0154 50.5557 21.0584C50.5557 21.1014 50.5471 21.1439 50.5303 21.1835C50.5136 21.2231 50.4892 21.259 50.4584 21.2889C50.4273 21.3198 50.3906 21.3441 50.3501 21.3607C50.3096 21.3773 50.2662 21.3857 50.2225 21.3854Z" fill="#008698"/>
<path d="M50.2225 21.546C50.0944 21.5459 49.9714 21.4959 49.8795 21.4066L46.0405 17.5464C45.9476 17.4521 45.8955 17.3249 45.8955 17.1925C45.8955 17.0601 45.9476 16.9329 46.0405 16.8386C46.1325 16.7494 46.2556 16.6994 46.3838 16.6992C46.4499 16.6987 46.5153 16.7117 46.5762 16.7375C46.637 16.7634 46.692 16.8014 46.7376 16.8494L50.5656 20.7096C50.6579 20.8021 50.7099 20.9275 50.7099 21.0581C50.7099 21.1888 50.6579 21.3142 50.5656 21.4066C50.472 21.4932 50.35 21.5428 50.2225 21.546ZM46.3945 17.0317C46.36 17.0184 46.3217 17.0184 46.2871 17.0317C46.2714 17.0447 46.2588 17.0611 46.2501 17.0797C46.2414 17.0982 46.2369 17.1184 46.2369 17.1389C46.2369 17.1594 46.2414 17.1796 46.2501 17.1981C46.2588 17.2166 46.2714 17.233 46.2871 17.2461L50.1153 21.1064C50.1454 21.1359 50.1858 21.1524 50.2279 21.1524C50.27 21.1524 50.3104 21.1359 50.3405 21.1064C50.3565 21.0923 50.3693 21.075 50.378 21.0556C50.3868 21.0362 50.3913 21.0151 50.3913 20.9938C50.3913 20.9725 50.3868 20.9514 50.378 20.932C50.3693 20.9126 50.3565 20.8953 50.3405 20.8812L46.5124 17.0209C46.4743 17.007 46.4326 17.007 46.3945 17.0209V17.0317Z" fill="#008698"/>
<path d="M50.8337 19.4658H48.3138C48.2265 19.4631 48.1435 19.4272 48.0817 19.3655C48.0199 19.3037 47.9841 19.2207 47.9814 19.1334C47.9814 19.0902 47.99 19.0475 48.0068 19.0078C48.0237 18.968 48.0483 18.9321 48.0794 18.902C48.1104 18.872 48.1472 18.8486 48.1875 18.833C48.2278 18.8175 48.2707 18.8103 48.3138 18.8117H50.8337C50.9103 18.8256 50.9796 18.866 51.0295 18.9258C51.0794 18.9855 51.1067 19.0609 51.1067 19.1388C51.1067 19.2166 51.0794 19.292 51.0295 19.3517C50.9796 19.4115 50.9103 19.4519 50.8337 19.4658Z" fill="#008698"/>
<path d="M50.8335 19.6369H48.3029C48.1752 19.6346 48.0529 19.5849 47.9598 19.4975C47.8938 19.4266 47.8496 19.3382 47.8326 19.2428C47.8155 19.1475 47.8264 19.0493 47.8637 18.9599C47.901 18.8705 47.9632 18.7938 48.043 18.7389C48.1228 18.684 48.2168 18.6533 48.3136 18.6504H50.8335C50.9666 18.6517 51.0939 18.7057 51.1874 18.8005C51.2764 18.8969 51.3262 19.0231 51.3268 19.1544C51.3214 19.2825 51.2673 19.4036 51.1756 19.4933C51.084 19.5829 50.9616 19.6343 50.8335 19.6369ZM48.3136 18.9614C48.2709 18.9614 48.23 18.9783 48.1999 19.0085C48.1697 19.0386 48.1527 19.0795 48.1527 19.1222C48.145 19.139 48.1411 19.1573 48.1411 19.1758C48.1411 19.1943 48.145 19.2126 48.1527 19.2294C48.1835 19.262 48.226 19.2813 48.2708 19.283H50.7907C50.8315 19.2831 50.8709 19.2677 50.9008 19.2398C50.9306 19.2119 50.9488 19.1737 50.9515 19.1329C50.9655 19.0948 50.9655 19.0531 50.9515 19.015C50.9347 19.0073 50.9164 19.0033 50.8979 19.0033C50.8794 19.0033 50.861 19.0073 50.8442 19.015L48.3136 18.9614Z" fill="#008698"/>
<path d="M48.3027 21.975C48.2596 21.975 48.217 21.9663 48.1772 21.9495C48.1375 21.9327 48.1015 21.908 48.0715 21.877C48.0414 21.846 48.018 21.8092 48.0025 21.769C47.987 21.7287 47.9797 21.6857 47.9811 21.6426V19.1227C47.9811 19.0795 47.9897 19.0368 48.0065 18.997C48.0234 18.9573 48.048 18.9213 48.079 18.8913C48.1101 18.8613 48.1469 18.8378 48.1872 18.8223C48.2274 18.8068 48.2703 18.7995 48.3135 18.801C48.3561 18.7995 48.3986 18.8068 48.4384 18.8224C48.4781 18.838 48.5141 18.8617 48.5443 18.8919C48.5744 18.922 48.5981 18.9581 48.6138 18.9978C48.6294 19.0375 48.6367 19.08 48.6352 19.1227V21.6426C48.6352 21.7307 48.6002 21.8153 48.5378 21.8776C48.4755 21.94 48.3909 21.975 48.3027 21.975Z" fill="#008698"/>
<path d="M48.3028 22.1353C48.239 22.1377 48.1754 22.1266 48.1163 22.1025C48.0571 22.0785 48.0038 22.0422 47.9597 21.9959C47.8649 21.9024 47.8109 21.7752 47.8096 21.6421V19.1222C47.8096 18.9913 47.8616 18.8659 47.9541 18.7734C48.0466 18.6809 48.172 18.6289 48.3028 18.6289C48.4327 18.6316 48.5567 18.6845 48.6486 18.7764C48.7405 18.8683 48.7934 18.9922 48.7961 19.1222V21.6421C48.7976 21.7072 48.7858 21.772 48.7616 21.8326C48.7373 21.8931 48.701 21.948 48.6549 21.9941C48.6088 22.0402 48.5539 22.0765 48.4934 22.1008C48.4329 22.125 48.368 22.1368 48.3028 22.1353ZM48.3028 18.9184C48.2601 18.9184 48.2192 18.9354 48.189 18.9655C48.1589 18.9957 48.142 19.0366 48.142 19.0793V21.5992C48.1281 21.6373 48.1281 21.6791 48.142 21.7171C48.1771 21.7273 48.2142 21.7273 48.2493 21.7171C48.2919 21.7171 48.3328 21.7002 48.363 21.67C48.3932 21.6399 48.4101 21.5989 48.4101 21.5563V19.1222C48.4129 19.0886 48.4051 19.0551 48.3877 19.0262C48.3704 18.9974 48.3444 18.9747 48.3135 18.9613L48.3028 18.9184Z" fill="#008698"/>
<path d="M46.4265 14.2116C46.3844 14.2116 46.3427 14.2031 46.304 14.1865C46.2653 14.1699 46.2304 14.1456 46.2014 14.1151C46.1706 14.0851 46.1461 14.0493 46.1294 14.0097C46.1127 13.9701 46.104 13.9275 46.104 13.8846C46.104 13.8416 46.1127 13.799 46.1294 13.7594C46.1461 13.7198 46.1706 13.684 46.2014 13.654L50.0294 9.79374C50.0906 9.73259 50.1736 9.69824 50.2601 9.69824C50.3466 9.69824 50.4294 9.73259 50.4906 9.79374C50.5517 9.85488 50.5861 9.93781 50.5861 10.0243C50.5861 10.1108 50.5517 10.1937 50.4906 10.2548L46.6625 14.1151C46.6315 14.1459 46.5946 14.1703 46.5542 14.1869C46.5137 14.2034 46.4703 14.2118 46.4265 14.2116Z" fill="#008698"/>
<path d="M46.4263 14.3829C46.3618 14.3833 46.298 14.3701 46.2388 14.3443C46.1797 14.3184 46.1267 14.2804 46.0832 14.2328C45.9909 14.1403 45.939 14.015 45.939 13.8843C45.939 13.7536 45.9909 13.6283 46.0832 13.5358L49.922 9.67553C50.0128 9.58327 50.1358 9.52951 50.2652 9.52541C50.3313 9.52485 50.3968 9.53789 50.4576 9.56371C50.5185 9.58954 50.5735 9.6276 50.619 9.67553C50.7114 9.76801 50.7633 9.89335 50.7633 10.024C50.7633 10.1547 50.7114 10.28 50.619 10.3725L46.791 14.2328C46.7442 14.2821 46.6874 14.3209 46.6246 14.3468C46.5618 14.3727 46.4942 14.385 46.4263 14.3829ZM50.2545 9.86854C50.2375 9.86147 50.2192 9.85782 50.2008 9.85782C50.1824 9.85782 50.1643 9.86147 50.1473 9.86854L46.3191 13.7288C46.2959 13.7598 46.2845 13.7981 46.2873 13.8367C46.29 13.8754 46.3066 13.9117 46.334 13.9391C46.3614 13.9664 46.3977 13.983 46.4364 13.9858C46.475 13.9885 46.5133 13.9772 46.5442 13.954L50.3724 10.0937C50.4019 10.0637 50.4184 10.0232 50.4184 9.98113C50.4184 9.93903 50.4019 9.89861 50.3724 9.86854C50.3345 9.85361 50.2924 9.85361 50.2545 9.86854Z" fill="#008698"/>
<path d="M48.3457 12.2812C48.3025 12.2827 48.2595 12.2754 48.2192 12.2599C48.1789 12.2444 48.1422 12.2209 48.1112 12.1909C48.0802 12.1609 48.0555 12.1249 48.0387 12.0852C48.0219 12.0454 48.0132 12.0027 48.0132 11.9596C48.0132 11.8714 48.0482 11.7868 48.1106 11.7245C48.1729 11.6622 48.2575 11.6271 48.3457 11.6271H50.8655C50.9082 11.6256 50.9507 11.6329 50.9904 11.6486C51.0301 11.6642 51.0661 11.6879 51.0963 11.718C51.1265 11.7482 51.1502 11.7843 51.1658 11.824C51.1815 11.8637 51.1888 11.9062 51.1873 11.9488C51.1887 11.992 51.1815 12.035 51.1659 12.0752C51.1504 12.1155 51.127 12.1523 51.097 12.1833C51.0669 12.2143 51.0309 12.2389 50.9912 12.2558C50.9515 12.2726 50.9087 12.2813 50.8655 12.2812H48.3457Z" fill="#008698"/>
<path d="M48.3458 12.4525C48.2149 12.4525 48.0894 12.4005 47.9969 12.308C47.9044 12.2155 47.8525 12.09 47.8525 11.9592C47.8496 11.8946 47.8599 11.83 47.8829 11.7695C47.906 11.709 47.9413 11.654 47.9866 11.6077C48.0318 11.5614 48.0861 11.525 48.146 11.5006C48.206 11.4762 48.2703 11.4644 48.335 11.466H50.8656C50.9853 11.4836 51.0947 11.5436 51.1738 11.6351C51.2528 11.7267 51.2963 11.8436 51.2963 11.9646C51.2963 12.0855 51.2528 12.2025 51.1738 12.294C51.0947 12.3855 50.9853 12.4456 50.8656 12.4632L48.3458 12.4525ZM50.8656 11.7876H48.3458C48.3242 11.786 48.3027 11.7891 48.2824 11.7966C48.2622 11.8041 48.2437 11.8159 48.2285 11.8312C48.2132 11.8465 48.2014 11.8648 48.1939 11.8851C48.1864 11.9053 48.1833 11.927 48.1849 11.9485C48.1876 11.9893 48.2058 12.0275 48.2357 12.0554C48.2656 12.0832 48.3049 12.0987 48.3458 12.0986H50.8656C50.9083 12.0986 50.9492 12.0817 50.9794 12.0515C51.0096 12.0213 51.0265 11.9804 51.0265 11.9378C51.0238 11.897 51.0056 11.8588 50.9757 11.8309C50.9459 11.803 50.9065 11.7876 50.8656 11.7876Z" fill="#008698"/>
<path d="M48.3458 12.2814C48.3027 12.2829 48.2597 12.2756 48.2194 12.2601C48.1791 12.2446 48.1424 12.2211 48.1114 12.1911C48.0804 12.1611 48.0557 12.1251 48.0389 12.0854C48.0221 12.0456 48.0133 12.0029 48.0134 11.9597V9.43984C48.0119 9.3967 48.0193 9.35371 48.0348 9.31343C48.0503 9.27316 48.0738 9.23642 48.1038 9.2054C48.1338 9.17438 48.1697 9.14973 48.2094 9.13289C48.2492 9.11606 48.2919 9.1074 48.3351 9.10742C48.4214 9.10738 48.5044 9.14092 48.5664 9.20096C48.6284 9.261 48.6648 9.34282 48.6676 9.42911V11.9597C48.6676 12.0451 48.6337 12.1269 48.5733 12.1872C48.513 12.2475 48.4312 12.2814 48.3458 12.2814Z" fill="#008698"/>
<path d="M48.3458 12.4527C48.2149 12.4527 48.0894 12.4007 47.9969 12.3082C47.9044 12.2157 47.8525 12.0903 47.8525 11.9594V9.43953C47.8525 9.3077 47.9041 9.18111 47.9963 9.0869C48.0885 8.99268 48.214 8.93835 48.3458 8.93555C48.4105 8.93555 48.4747 8.94831 48.5345 8.97309C48.5944 8.99788 48.6488 9.03422 48.6946 9.08002C48.7404 9.12582 48.7766 9.1802 48.8014 9.24004C48.8262 9.29989 48.839 9.36403 48.839 9.42881V11.9594C48.8362 12.0894 48.7834 12.2133 48.6915 12.3052C48.5995 12.3971 48.4757 12.45 48.3458 12.4527ZM48.3458 9.23579C48.3031 9.23579 48.2622 9.25274 48.232 9.2829C48.2018 9.31307 48.1849 9.35398 48.1849 9.39664V11.9165C48.1876 11.9573 48.2058 11.9955 48.2357 12.0234C48.2655 12.0513 48.3049 12.0668 48.3458 12.0667C48.3866 12.0668 48.426 12.0513 48.4558 12.0234C48.4857 11.9955 48.5039 11.9573 48.5066 11.9165V9.43953C48.5067 9.41747 48.5022 9.39564 48.4934 9.37539C48.4847 9.35515 48.4718 9.33691 48.4557 9.32183C48.4396 9.30674 48.4207 9.29513 48.3999 9.28771C48.3792 9.28028 48.357 9.27721 48.335 9.27868L48.3458 9.23579Z" fill="#008698"/>
<path d="M52.5065 15.8943H47.07C47.0273 15.8958 46.9848 15.8885 46.9451 15.8729C46.9054 15.8573 46.8693 15.8336 46.8391 15.8034C46.8089 15.7733 46.7853 15.7372 46.7697 15.6975C46.7541 15.6578 46.7467 15.6153 46.7482 15.5726C46.7468 15.5295 46.7541 15.4865 46.7696 15.4462C46.7851 15.406 46.8085 15.3692 46.8386 15.3382C46.8686 15.3072 46.9046 15.2825 46.9443 15.2657C46.9841 15.2489 47.0268 15.2402 47.07 15.2402H52.5065C52.5938 15.2429 52.6768 15.2788 52.7386 15.3406C52.8003 15.4023 52.8361 15.4853 52.8388 15.5726C52.836 15.6589 52.7998 15.7408 52.7378 15.8008C52.6757 15.8608 52.5928 15.8944 52.5065 15.8943Z" fill="#008698"/>
<path d="M52.5065 16.0236H47.07C46.9392 16.0236 46.8137 15.9717 46.7212 15.8792C46.6287 15.7867 46.5767 15.6612 46.5767 15.5304C46.5767 15.3996 46.6287 15.2741 46.7212 15.1816C46.8137 15.0891 46.9392 15.0371 47.07 15.0371H52.5065C52.5726 15.0366 52.6382 15.0496 52.6991 15.0754C52.7599 15.1013 52.8148 15.1393 52.8603 15.1872C52.9066 15.2313 52.943 15.2847 52.967 15.3438C52.991 15.403 53.0021 15.4666 52.9997 15.5304C52.9997 15.6612 52.9479 15.7867 52.8554 15.8792C52.7628 15.9717 52.6373 16.0236 52.5065 16.0236ZM47.07 15.3266C47.0273 15.3266 46.9864 15.3436 46.9563 15.3738C46.9261 15.4039 46.9091 15.4448 46.9091 15.4875C46.9091 15.5302 46.9261 15.5711 46.9563 15.6012C46.9864 15.6314 47.0273 15.6483 47.07 15.6483H52.5065C52.5374 15.648 52.5675 15.6387 52.5933 15.6217C52.6191 15.6046 52.6394 15.5806 52.6518 15.5523C52.6642 15.524 52.6683 15.4928 52.6635 15.4623C52.6586 15.4317 52.645 15.4033 52.6245 15.3803C52.5937 15.3477 52.5513 15.3284 52.5065 15.3266H47.07Z" fill="#008698"/>
<path d="M49.7932 15.8736C49.7495 15.8738 49.7062 15.8654 49.6657 15.8488C49.6252 15.8323 49.5884 15.8079 49.5573 15.7771C49.5265 15.7471 49.5021 15.7112 49.4854 15.6717C49.4686 15.6321 49.46 15.5895 49.46 15.5465C49.46 15.5035 49.4686 15.461 49.4854 15.4214C49.5021 15.3818 49.5265 15.346 49.5573 15.316L51.3589 13.5574C51.42 13.4963 51.5029 13.4619 51.5894 13.4619C51.6758 13.4619 51.7587 13.4963 51.8199 13.5574C51.881 13.6186 51.9154 13.7015 51.9154 13.788C51.9154 13.8744 51.881 13.9574 51.8199 14.0185L50.0185 15.7878C49.9886 15.8164 49.9531 15.8387 49.9144 15.8534C49.8758 15.8681 49.8346 15.875 49.7932 15.8736Z" fill="#008698"/>
<path d="M49.7935 16.0234C49.6607 16.0207 49.5341 15.9667 49.4402 15.8728C49.3463 15.7788 49.2923 15.6522 49.2896 15.5194C49.2957 15.3905 49.3492 15.2683 49.4397 15.1763L51.2411 13.407C51.3369 13.317 51.4636 13.2672 51.595 13.2676C51.6595 13.2672 51.7234 13.2804 51.7825 13.3062C51.8416 13.3321 51.8946 13.3701 51.9381 13.4177C51.986 13.4633 52.0241 13.5182 52.0499 13.579C52.0757 13.6399 52.0888 13.7054 52.0882 13.7716C52.0886 13.8361 52.0755 13.9 52.0496 13.9591C52.0238 14.0182 51.9857 14.0712 51.9381 14.1147L50.1367 15.884C50.0436 15.9714 49.9212 16.0211 49.7935 16.0234ZM51.5843 13.6107C51.5498 13.5975 51.5116 13.5975 51.4771 13.6107L49.6756 15.3693C49.6596 15.3834 49.6468 15.4007 49.638 15.4201C49.6292 15.4395 49.6248 15.4606 49.6248 15.4819C49.6248 15.5032 49.6292 15.5242 49.638 15.5437C49.6468 15.5631 49.6596 15.5804 49.6756 15.5945C49.7056 15.6239 49.746 15.6405 49.7881 15.6405C49.8302 15.6405 49.8706 15.6239 49.9007 15.5945L51.7022 13.8252C51.7317 13.7951 51.7482 13.7547 51.7482 13.7126C51.7482 13.6705 51.7317 13.6301 51.7022 13.6C51.6852 13.5929 51.667 13.5893 51.6486 13.5893C51.6302 13.5893 51.612 13.5929 51.595 13.6L51.5843 13.6107Z" fill="#008698"/>
<path d="M51.5628 17.6749C51.5191 17.6751 51.4757 17.6667 51.4352 17.6502C51.3947 17.6336 51.358 17.6092 51.3269 17.5784L49.5576 15.7769C49.528 15.7467 49.5047 15.7109 49.489 15.6716C49.4733 15.6323 49.4653 15.5903 49.4658 15.548C49.4663 15.5057 49.4752 15.4638 49.4919 15.4249C49.5085 15.386 49.5327 15.3508 49.563 15.3212C49.5932 15.2916 49.6291 15.2683 49.6683 15.2526C49.7076 15.2369 49.7496 15.229 49.7919 15.2295C49.8342 15.23 49.876 15.2388 49.9149 15.2555C49.9539 15.2721 49.9892 15.2963 50.0187 15.3266L51.7987 17.1173C51.8583 17.1793 51.8916 17.2619 51.8916 17.3479C51.8916 17.4338 51.8583 17.5165 51.7987 17.5784C51.7684 17.6102 51.7317 17.6353 51.6911 17.6519C51.6504 17.6686 51.6067 17.6764 51.5628 17.6749Z" fill="#008698"/>
<path d="M51.5628 17.8352C51.4974 17.8378 51.4321 17.8268 51.3712 17.8028C51.3102 17.7788 51.2551 17.7424 51.209 17.6958L49.4397 15.8944C49.3473 15.8019 49.2954 15.6766 49.2954 15.5459C49.2954 15.4152 49.3473 15.2899 49.4397 15.1974C49.4857 15.1509 49.5409 15.1145 49.6018 15.0905C49.6628 15.0665 49.728 15.0554 49.7935 15.058C49.858 15.0576 49.9219 15.0708 49.981 15.0966C50.0402 15.1225 50.0932 15.1605 50.1367 15.2081L51.9166 16.9989C52.0056 17.0953 52.0554 17.2215 52.056 17.3527C52.0551 17.417 52.0415 17.4805 52.0157 17.5394C51.9899 17.5984 51.9525 17.6515 51.9059 17.6958C51.8618 17.7421 51.8085 17.7784 51.7493 17.8025C51.6902 17.8265 51.6266 17.8377 51.5628 17.8352ZM49.7935 15.3904C49.7549 15.3799 49.7142 15.3799 49.6755 15.3904C49.6596 15.4045 49.6467 15.4218 49.638 15.4412C49.6292 15.4606 49.6247 15.4817 49.6247 15.503C49.6247 15.5243 49.6292 15.5453 49.638 15.5648C49.6467 15.5842 49.6596 15.6015 49.6755 15.6156L51.4449 17.417C51.477 17.4423 51.5166 17.456 51.5574 17.456C51.5983 17.456 51.6379 17.4423 51.67 17.417C51.6995 17.387 51.7159 17.3466 51.7159 17.3045C51.7159 17.2624 51.6995 17.2219 51.67 17.1919L49.9543 15.444C49.9411 15.4282 49.9248 15.4153 49.9063 15.406C49.8879 15.3968 49.8677 15.3915 49.8471 15.3904H49.7935Z" fill="#008698"/>
<path d="M44.5929 13.4823C44.5503 13.4838 44.5078 13.4765 44.4681 13.4608C44.4283 13.4452 44.3923 13.4216 44.3622 13.3914C44.332 13.3612 44.3083 13.3251 44.2927 13.2854C44.277 13.2457 44.2697 13.2032 44.2712 13.1606V7.72401C44.2711 7.63768 44.3047 7.55471 44.3648 7.49267C44.4248 7.43063 44.5066 7.39439 44.5929 7.3916C44.6802 7.39429 44.7632 7.43017 44.825 7.49194C44.8868 7.55371 44.9227 7.6367 44.9254 7.72401V13.1606C44.9254 13.2037 44.9167 13.2465 44.8999 13.2862C44.883 13.326 44.8584 13.3619 44.8274 13.3919C44.7963 13.4219 44.7597 13.4454 44.7194 13.4609C44.6791 13.4765 44.6361 13.4837 44.5929 13.4823Z" fill="#008698"/>
<path d="M44.5928 13.6536C44.462 13.6536 44.3365 13.6017 44.244 13.5092C44.1515 13.4167 44.0996 13.2912 44.0996 13.1604V7.72381C44.0996 7.59299 44.1515 7.46752 44.244 7.37502C44.3365 7.28252 44.462 7.23055 44.5928 7.23055C44.659 7.22933 44.7248 7.24207 44.7858 7.26794C44.8467 7.2938 44.9015 7.33222 44.9466 7.38067C44.9947 7.42332 45.0323 7.47646 45.0565 7.53597C45.0806 7.59547 45.0907 7.65975 45.086 7.72381V13.1604C45.086 13.2912 45.0342 13.4167 44.9417 13.5092C44.8492 13.6017 44.7236 13.6536 44.5928 13.6536ZM44.5928 7.56296C44.551 7.5655 44.5116 7.58327 44.482 7.6129C44.4523 7.64253 44.4345 7.68198 44.432 7.72381V13.1604C44.432 13.203 44.4489 13.2439 44.4791 13.2741C44.5092 13.3043 44.5502 13.3212 44.5928 13.3212C44.6355 13.3212 44.6764 13.3043 44.7066 13.2741C44.7367 13.2439 44.7537 13.203 44.7537 13.1604V7.72381C44.7614 7.70699 44.7653 7.6887 44.7653 7.67019C44.7653 7.65169 44.7614 7.6334 44.7537 7.61658C44.7338 7.59447 44.7086 7.57791 44.6804 7.56851C44.6522 7.55911 44.622 7.5572 44.5928 7.56296Z" fill="#008698"/>
<path d="M44.5929 10.769C44.5492 10.7692 44.5058 10.7608 44.4653 10.7443C44.4248 10.7277 44.3881 10.7033 44.3571 10.6725L42.5985 8.87104C42.5373 8.80989 42.5029 8.72696 42.5029 8.64049C42.5029 8.55402 42.5373 8.47109 42.5985 8.40995C42.6596 8.3488 42.7425 8.31445 42.829 8.31445C42.9155 8.31445 42.9984 8.3488 43.0595 8.40995L44.8288 10.2114C44.8596 10.2414 44.8841 10.2772 44.9008 10.3168C44.9175 10.3564 44.9262 10.399 44.9262 10.442C44.9262 10.4849 44.9175 10.5275 44.9008 10.5671C44.8841 10.6067 44.8596 10.6425 44.8288 10.6725C44.7978 10.7033 44.7611 10.7277 44.7206 10.7443C44.6801 10.7608 44.6367 10.7692 44.5929 10.769Z" fill="#008698"/>
<path d="M44.5931 10.9403C44.4599 10.939 44.3328 10.885 44.2393 10.7902L42.4485 8.98871C42.3561 8.89486 42.3047 8.76813 42.3057 8.63642C42.3067 8.5047 42.36 8.37878 42.4539 8.28635C42.5477 8.19392 42.6744 8.14256 42.8061 8.14357C42.9378 8.14457 43.0638 8.19786 43.1562 8.29171L44.9148 10.0932C45.0072 10.1857 45.0589 10.311 45.0589 10.4417C45.0589 10.5724 45.0072 10.6977 44.9148 10.7902C44.8294 10.8776 44.715 10.9309 44.5931 10.9403ZM42.8023 8.51689C42.7644 8.50196 42.7223 8.50196 42.6844 8.51689C42.6684 8.53098 42.6557 8.54831 42.6469 8.56772C42.6382 8.58713 42.6336 8.60819 42.6336 8.62949C42.6336 8.65078 42.6382 8.67184 42.6469 8.69125C42.6557 8.71067 42.6684 8.72799 42.6844 8.74208L44.4537 10.5435C44.4675 10.562 44.4852 10.5772 44.5054 10.5883C44.5256 10.5993 44.548 10.6058 44.571 10.6075C44.594 10.6091 44.617 10.6058 44.6386 10.5977C44.6602 10.5897 44.6798 10.5771 44.6961 10.5608C44.7124 10.5445 44.725 10.5249 44.733 10.5033C44.7411 10.4817 44.7445 10.4586 44.7428 10.4356C44.7412 10.4126 44.7346 10.3903 44.7236 10.37C44.7126 10.3498 44.6973 10.3322 44.6788 10.3184L42.9096 8.51689C42.8751 8.50369 42.8368 8.50369 42.8023 8.51689Z" fill="#008698"/>
<path d="M44.593 10.7691C44.5507 10.7704 44.5086 10.7625 44.4697 10.7458C44.4308 10.7291 44.3961 10.7041 44.3679 10.6726C44.3371 10.6426 44.3126 10.6067 44.2959 10.5671C44.2792 10.5275 44.2705 10.485 44.2705 10.442C44.2705 10.399 44.2792 10.3565 44.2959 10.3169C44.3126 10.2773 44.3371 10.2414 44.3679 10.2115L46.1586 8.44217C46.2197 8.38103 46.3027 8.34668 46.3892 8.34668C46.4757 8.34668 46.5586 8.38103 46.6197 8.44217C46.6808 8.50332 46.7151 8.58625 46.7151 8.67272C46.7151 8.75919 46.6808 8.84212 46.6197 8.90326L44.7967 10.6618C44.7437 10.7207 44.6716 10.7587 44.593 10.7691Z" fill="#008698"/>
<path d="M44.5928 10.9404C44.4597 10.939 44.3325 10.8851 44.239 10.7903C44.15 10.6938 44.1003 10.5676 44.0996 10.4364C44.0992 10.3719 44.1124 10.308 44.1382 10.2489C44.1641 10.1898 44.2021 10.1368 44.2498 10.0933L46.0404 8.31323C46.1368 8.22421 46.2631 8.17448 46.3944 8.17384C46.4589 8.17346 46.5227 8.18663 46.5818 8.21249C46.6409 8.23835 46.6939 8.27632 46.7374 8.32396C46.8298 8.41644 46.8817 8.54178 46.8817 8.67246C46.8817 8.80313 46.8298 8.92847 46.7374 9.02095L44.9466 10.7903C44.8532 10.8851 44.726 10.939 44.5928 10.9404ZM46.3944 8.50625C46.3495 8.50802 46.3071 8.52726 46.2763 8.55986L44.4856 10.3292C44.4724 10.3637 44.4724 10.4019 44.4856 10.4364C44.4717 10.4745 44.4717 10.5163 44.4856 10.5543C44.5157 10.5838 44.5561 10.6003 44.5982 10.6003C44.6403 10.6003 44.6807 10.5838 44.7108 10.5543L46.5016 8.78505C46.531 8.75498 46.5475 8.71456 46.5475 8.67246C46.5475 8.63035 46.531 8.58993 46.5016 8.55986C46.4883 8.54404 46.472 8.53111 46.4535 8.52189C46.4351 8.51266 46.415 8.50734 46.3944 8.50625Z" fill="#008698"/>
<path d="M44.5927 23.5291C44.5064 23.5292 44.4235 23.4956 44.3614 23.4356C44.2994 23.3756 44.263 23.2937 44.2603 23.2075V17.7709C44.2603 17.6827 44.2953 17.5982 44.3576 17.5358C44.42 17.4735 44.5046 17.4385 44.5927 17.4385C44.678 17.4385 44.7599 17.4724 44.8202 17.5327C44.8806 17.593 44.9145 17.6749 44.9145 17.7602V23.1967C44.9159 23.2399 44.9087 23.2829 44.8931 23.3231C44.8776 23.3634 44.854 23.4001 44.824 23.4312C44.794 23.4622 44.7581 23.4868 44.7184 23.5037C44.6786 23.5205 44.6359 23.5292 44.5927 23.5291Z" fill="#008698"/>
<path d="M44.5929 23.7229C44.463 23.7201 44.3392 23.6673 44.2472 23.5754C44.1553 23.4835 44.1025 23.3596 44.0997 23.2296V17.793C44.0983 17.7283 44.1096 17.6638 44.1331 17.6034C44.1566 17.5431 44.1917 17.4879 44.2365 17.4411C44.2813 17.3943 44.3349 17.3568 44.3942 17.3307C44.4536 17.3046 44.5174 17.2905 44.5822 17.2891C44.714 17.289 44.8406 17.3407 44.9348 17.4329C45.0291 17.5251 45.0834 17.6505 45.0862 17.7823V23.2189C45.0876 23.2846 45.0759 23.3499 45.0517 23.4109C45.0276 23.472 44.9915 23.5277 44.9456 23.5746C44.8996 23.6216 44.8447 23.6589 44.7842 23.6843C44.7236 23.7098 44.6586 23.7229 44.5929 23.7229ZM44.5929 17.6322C44.5503 17.6322 44.5094 17.6491 44.4792 17.6793C44.449 17.7095 44.4321 17.7504 44.4321 17.793V23.2296C44.4348 23.2704 44.453 23.3086 44.4829 23.3365C44.5127 23.3644 44.5521 23.3798 44.5929 23.3797C44.6338 23.3798 44.6732 23.3644 44.703 23.3365C44.7329 23.3086 44.7511 23.2704 44.7538 23.2296V17.7823C44.7565 17.7524 44.7507 17.7223 44.7372 17.6954C44.7237 17.6686 44.7029 17.6461 44.6772 17.6304C44.6516 17.6148 44.622 17.6067 44.5919 17.607C44.5618 17.6073 44.5326 17.616 44.5072 17.6322H44.5929Z" fill="#008698"/>
<path d="M42.7591 22.629C42.7177 22.631 42.6763 22.6244 42.6375 22.6097C42.5988 22.5949 42.5634 22.5723 42.5339 22.5432C42.4742 22.4813 42.4409 22.3986 42.4409 22.3126C42.4409 22.2267 42.4742 22.144 42.5339 22.0821L44.3032 20.2806C44.3327 20.2497 44.3682 20.2248 44.4074 20.2075C44.4465 20.1902 44.4886 20.1808 44.5315 20.1798C44.5743 20.1788 44.6169 20.1862 44.6569 20.2017C44.6968 20.2172 44.7333 20.2403 44.7643 20.2699C44.7953 20.2995 44.8201 20.3349 44.8374 20.374C44.8547 20.4132 44.8641 20.4554 44.8651 20.4982C44.8661 20.541 44.8587 20.5836 44.8433 20.6236C44.8278 20.6635 44.8046 20.7 44.7751 20.731L43.0057 22.5325C42.9734 22.5646 42.9348 22.5897 42.8924 22.6063C42.85 22.6229 42.8047 22.6306 42.7591 22.629Z" fill="#008698"/>
<path d="M42.759 22.8007C42.6313 22.7984 42.5089 22.7487 42.4158 22.6613C42.3678 22.6157 42.3298 22.5608 42.304 22.5C42.2782 22.4391 42.2651 22.3735 42.2656 22.3074C42.2658 22.1793 42.3158 22.0562 42.405 21.9643L44.1744 20.1628C44.2179 20.1152 44.2709 20.0772 44.33 20.0514C44.3891 20.0255 44.4531 20.0123 44.5176 20.0127C44.6453 20.015 44.7675 20.0647 44.8607 20.1521C44.9086 20.1977 44.9466 20.2526 44.9724 20.3134C44.9983 20.3743 45.0114 20.4398 45.0108 20.506C45.0107 20.6341 44.9607 20.7572 44.8714 20.8491L43.1021 22.6506C43.0578 22.6972 43.0046 22.7345 42.9456 22.7603C42.8867 22.7861 42.8233 22.7998 42.759 22.8007ZM44.5282 20.3451C44.4901 20.3312 44.4483 20.3312 44.4102 20.3451L42.6517 22.1466C42.6439 22.1634 42.64 22.1817 42.64 22.2002C42.64 22.2187 42.6439 22.237 42.6517 22.2538C42.6377 22.2919 42.6377 22.3337 42.6517 22.3718C42.6817 22.4012 42.7223 22.4177 42.7644 22.4177C42.8065 22.4177 42.8469 22.4012 42.8769 22.3718L44.6355 20.5703C44.6513 20.5572 44.6639 20.5408 44.6726 20.5223C44.6813 20.5038 44.6858 20.4835 44.6858 20.4631C44.6858 20.4426 44.6813 20.4224 44.6726 20.4038C44.6639 20.3853 44.6513 20.3689 44.6355 20.3558C44.6214 20.342 44.6046 20.331 44.5862 20.3237C44.5678 20.3163 44.548 20.3127 44.5282 20.3129V20.3451Z" fill="#008698"/>
<path d="M46.3192 22.6073C46.2771 22.6073 46.2354 22.5988 46.1967 22.5822C46.158 22.5656 46.1231 22.5413 46.0941 22.5108L44.2926 20.7415C44.2618 20.7116 44.2373 20.6757 44.2206 20.6361C44.2039 20.5965 44.1953 20.554 44.1953 20.511C44.1953 20.468 44.2039 20.4255 44.2206 20.3859C44.2373 20.3463 44.2618 20.3104 44.2926 20.2804C44.3545 20.2208 44.4372 20.1875 44.5232 20.1875C44.6092 20.1875 44.6918 20.2208 44.7537 20.2804L46.5551 22.0605C46.5859 22.0904 46.6104 22.1263 46.6271 22.1659C46.6438 22.2055 46.6525 22.248 46.6525 22.291C46.6525 22.334 46.6438 22.3765 46.6271 22.4161C46.6104 22.4557 46.5859 22.4916 46.5551 22.5215C46.4907 22.5799 46.4061 22.6107 46.3192 22.6073Z" fill="#008698"/>
<path d="M46.319 22.7792C46.2545 22.7796 46.1907 22.7665 46.1315 22.7406C46.0724 22.7147 46.0194 22.6768 45.9759 22.6291L44.1744 20.8598C44.0821 20.7673 44.0303 20.642 44.0303 20.5113C44.0303 20.3807 44.0821 20.2553 44.1744 20.1628C44.2199 20.1149 44.2749 20.0768 44.3358 20.051C44.3967 20.0252 44.4621 20.0122 44.5282 20.0127C44.6563 20.0128 44.7795 20.0628 44.8714 20.1521L46.6728 21.9214C46.7601 22.0189 46.8096 22.1444 46.8122 22.2753C46.8135 22.3405 46.802 22.4054 46.778 22.4662C46.7541 22.5269 46.7183 22.5823 46.6728 22.6291C46.6273 22.6771 46.5724 22.7151 46.5115 22.7409C46.4507 22.7668 46.3851 22.7798 46.319 22.7792ZM44.5282 20.313C44.4901 20.299 44.4483 20.299 44.4103 20.313C44.385 20.3451 44.3714 20.3847 44.3714 20.4255C44.3714 20.4664 44.385 20.506 44.4103 20.5381L46.2118 22.3074C46.2428 22.3307 46.281 22.3419 46.3196 22.3392C46.3583 22.3365 46.3946 22.3199 46.422 22.2925C46.4494 22.2651 46.466 22.2288 46.4687 22.1902C46.4715 22.1515 46.4602 22.1132 46.4369 22.0823L44.5926 20.3987C44.5824 20.3632 44.5595 20.3327 44.5282 20.313Z" fill="#008698"/>
<path d="M13.5283 25.9316H19.6512" stroke="#008698" stroke-width="1.7" stroke-linecap="round" stroke-linejoin="round"/>
<path d="M13.5283 31.7539H19.6512" stroke="#008698" stroke-width="1.7" stroke-linecap="round" stroke-linejoin="round"/>
<path d="M13.5283 14.2646H19.6512" stroke="#008698" stroke-width="1.7" stroke-linecap="round" stroke-linejoin="round"/>
<path d="M13.5283 20.0986H19.6512" stroke="#008698" stroke-width="1.7" stroke-linecap="round" stroke-linejoin="round"/>
<path d="M24.2194 9.27867C24.5653 8.32438 25.2384 7.5237 26.1191 7.01899C26.9998 6.51428 28.031 6.33825 29.0292 6.5222C30.0274 6.70616 30.928 7.23817 31.5709 8.02365C32.2139 8.80912 32.5574 9.79715 32.5405 10.8121V38.1879C33.9275 39.1091 34.9811 40.4524 35.5453 42.019C36.1096 43.5855 36.1545 45.2921 35.6734 46.8862C35.1922 48.4802 34.2106 49.8771 32.8739 50.8699C31.5372 51.8627 29.9164 52.3988 28.2513 52.3988C26.5862 52.3988 24.9654 51.8627 23.6287 50.8699C22.292 49.8771 21.3103 48.4802 20.8292 46.8862C20.3481 45.2921 20.393 43.5855 20.9572 42.019C21.5215 40.4524 22.575 39.1091 23.9621 38.1879V12.7422" stroke="#008698" stroke-width="1.7" stroke-miterlimit="10" stroke-linecap="round"/>
<path d="M33.194 44.6217C33.194 45.9469 32.6676 47.2179 31.7305 48.155C30.7934 49.0921 29.5223 49.6186 28.1971 49.6186C26.8718 49.6186 25.6009 49.0921 24.6638 48.155C23.7267 47.2179 23.2002 45.9469 23.2002 44.6217C23.1839 44.3932 23.1839 44.1639 23.2002 43.9354C23.3587 42.7337 23.9485 41.6306 24.8599 40.8315C25.7713 40.0324 26.9421 39.5918 28.1543 39.5918C29.3664 39.5918 30.5371 40.0324 31.4485 40.8315C32.3599 41.6306 32.9498 42.7337 33.1083 43.9354C33.1533 44.1618 33.1819 44.3912 33.194 44.6217Z" stroke="#008698" stroke-width="1.7" stroke-miterlimit="10"/>
<path d="M28.208 39.26V31.7539" stroke="#008698" stroke-width="1.7" stroke-linecap="round" stroke-linejoin="round"/>
</svg>
