<svg width="52" height="52" viewBox="0 0 52 52" fill="none" xmlns="http://www.w3.org/2000/svg">
<path d="M37.5771 13.7832C38.1294 13.7832 38.5771 13.3355 38.5771 12.7832C38.5771 12.2309 38.1294 11.7832 37.5771 11.7832C37.0248 11.7832 36.5771 12.2309 36.5771 12.7832C36.5771 13.3355 37.0248 13.7832 37.5771 13.7832Z" fill="white"/>
<path d="M39.6904 15.9258C40.2427 15.9258 40.6904 15.4781 40.6904 14.9258C40.6904 14.3735 40.2427 13.9258 39.6904 13.9258C39.1381 13.9258 38.6904 14.3735 38.6904 14.9258C38.6904 15.4781 39.1381 15.9258 39.6904 15.9258Z" fill="white"/>
<path d="M18.8489 2.01172C15.5006 3.01685 12.3999 4.71014 9.74606 6.98277C7.09225 9.25541 4.94403 12.0571 3.43947 15.2079C1.93492 18.3587 1.10728 21.7888 1.00975 25.2779C0.912229 28.767 1.54695 32.2378 2.87316 35.4675C4.19938 38.6971 6.18775 41.614 8.71048 44.0309C11.2332 46.4477 14.2345 48.3109 17.5216 49.5009C20.8086 50.6909 24.3087 51.1812 27.7968 50.9404C31.285 50.6996 34.6841 49.7331 37.7758 48.1028" stroke="white" stroke-width="1.5" stroke-linecap="round" stroke-linejoin="round"/>
<path d="M22.0874 1.29788C27.4594 0.462832 32.9577 1.39462 37.7527 3.95263C42.5477 6.51065 46.3791 10.5561 48.6689 15.4786C50.9588 20.401 51.5827 25.9334 50.4466 31.2409C49.3105 36.5483 46.4759 41.343 42.3707 44.9012C42.0132 45.2056 41.6557 45.51 41.3192 45.7934" stroke="white" stroke-width="1.5" stroke-linecap="round" stroke-linejoin="round"/>
<path d="M25.9255 47.6615C37.9 47.6615 47.6073 37.971 47.6073 26.0173C47.6073 14.0635 37.9 4.37305 25.9255 4.37305C13.951 4.37305 4.24365 14.0635 4.24365 26.0173C4.24365 37.971 13.951 47.6615 25.9255 47.6615Z" stroke="white" stroke-width="1.5" stroke-linecap="round" stroke-linejoin="round"/>
<path d="M28.3651 22.7435L32.8656 19.752L35.8413 25.3152L30.8467 27.4146C30.7953 28.2305 30.5354 29.0197 30.0918 29.7069C29.6482 30.3941 29.0357 30.9565 28.3126 31.3403C27.435 31.8089 26.434 31.9958 25.4461 31.8756C24.4581 31.7554 23.5314 31.3339 22.7922 30.6685L9.85889 35.5495L21.1414 27.614C21.0067 26.7182 21.1283 25.8027 21.4921 24.9729C21.8559 24.1431 22.4471 23.4328 23.1977 22.9238C23.9482 22.4148 24.8276 22.1278 25.7344 22.0959C26.6412 22.064 27.5385 22.2885 28.3231 22.7435H28.3651Z" stroke="white" stroke-width="1.5" stroke-linecap="round" stroke-linejoin="round"/>
<path d="M26.0097 29.5028C27.4092 29.5028 28.5438 28.3702 28.5438 26.9731C28.5438 25.5759 27.4092 24.4434 26.0097 24.4434C24.6101 24.4434 23.4756 25.5759 23.4756 26.9731C23.4756 28.3702 24.6101 29.5028 26.0097 29.5028Z" fill="white"/>
<path d="M13.2349 15.7793C13.7872 15.7793 14.2349 15.3316 14.2349 14.7793C14.2349 14.227 13.7872 13.7793 13.2349 13.7793C12.6826 13.7793 12.2349 14.227 12.2349 14.7793C12.2349 15.3316 12.6826 15.7793 13.2349 15.7793Z" fill="white"/>
<path d="M15.3799 13.668C15.9322 13.668 16.3799 13.2203 16.3799 12.668C16.3799 12.1157 15.9322 11.668 15.3799 11.668C14.8276 11.668 14.3799 12.1157 14.3799 12.668C14.3799 13.2203 14.8276 13.668 15.3799 13.668Z" fill="white"/>
<path d="M17.8511 11.957C18.4034 11.957 18.8511 11.5093 18.8511 10.957C18.8511 10.4047 18.4034 9.95703 17.8511 9.95703C17.2988 9.95703 16.8511 10.4047 16.8511 10.957C16.8511 11.5093 17.2988 11.957 17.8511 11.957Z" fill="white"/>
<path d="M20.585 10.6973C21.1372 10.6973 21.585 10.2496 21.585 9.69727C21.585 9.14498 21.1372 8.69727 20.585 8.69727C20.0327 8.69727 19.585 9.14498 19.585 9.69727C19.585 10.2496 20.0327 10.6973 20.585 10.6973Z" fill="white"/>
<path d="M23.4976 9.94141C24.0498 9.94141 24.4976 9.49369 24.4976 8.94141C24.4976 8.38912 24.0498 7.94141 23.4976 7.94141C22.9453 7.94141 22.4976 8.38912 22.4976 8.94141C22.4976 9.49369 22.9453 9.94141 23.4976 9.94141Z" fill="white"/>
<path d="M26.5049 9.68945C27.0572 9.68945 27.5049 9.24174 27.5049 8.68945C27.5049 8.13717 27.0572 7.68945 26.5049 7.68945C25.9526 7.68945 25.5049 8.13717 25.5049 8.68945C25.5049 9.24174 25.9526 9.68945 26.5049 9.68945Z" fill="white"/>
<path d="M29.5015 9.97461C30.0538 9.97461 30.5015 9.52689 30.5015 8.97461C30.5015 8.42232 30.0538 7.97461 29.5015 7.97461C28.9492 7.97461 28.5015 8.42232 28.5015 8.97461C28.5015 9.52689 28.9492 9.97461 29.5015 9.97461Z" fill="white"/>
<path d="M32.4038 10.7617C32.9561 10.7617 33.4038 10.314 33.4038 9.76172C33.4038 9.20943 32.9561 8.76172 32.4038 8.76172C31.8515 8.76172 31.4038 9.20943 31.4038 9.76172C31.4038 10.314 31.8515 10.7617 32.4038 10.7617Z" fill="white"/>
<path d="M35.1167 12.0527C35.669 12.0527 36.1167 11.605 36.1167 11.0527C36.1167 10.5005 35.669 10.0527 35.1167 10.0527C34.5644 10.0527 34.1167 10.5005 34.1167 11.0527C34.1167 11.605 34.5644 12.0527 35.1167 12.0527Z" fill="white"/>
<path d="M10.8052 17.4199C8.78614 20.8665 8.0085 24.8987 8.60142 28.8472C9.19435 32.7957 11.1221 36.4231 14.0648 39.1271" stroke="white" stroke-width="1.5" stroke-miterlimit="10" stroke-linecap="round"/>
<path d="M40.9726 17.4199C43.0515 20.9657 43.8127 25.1294 43.1224 29.1797C42.432 33.23 40.3344 36.908 37.1978 39.568" stroke="white" stroke-width="1.5" stroke-miterlimit="10" stroke-linecap="round"/>
</svg>
