<svg width="59" height="59" viewBox="0 0 59 59" fill="none" xmlns="http://www.w3.org/2000/svg">
<path d="M21.9335 6.01172C18.5786 7.00183 15.4688 8.68415 12.8047 10.9501C10.1406 13.216 7.98154 16.0151 6.46689 19.1668C4.95224 22.3185 4.11566 25.7526 4.01117 29.2475C3.90667 32.7423 4.53661 36.2203 5.86026 39.4567C7.18391 42.6932 9.1719 45.6162 11.6958 48.0371C14.2198 50.458 17.2236 52.3229 20.5133 53.5115C23.8031 54.7001 27.3056 55.1859 30.7948 54.9376C34.2841 54.6893 37.6825 53.7124 40.7705 52.0699" stroke="#A9612D" stroke-width="1.7" stroke-linecap="round" stroke-linejoin="round"/>
<path d="M25.1445 5.29767C30.5059 4.46321 35.9934 5.39433 40.7789 7.95053C45.5644 10.5067 49.3883 14.5493 51.6736 19.4682C53.9589 24.3872 54.5815 29.9156 53.4477 35.2193C52.3138 40.523 49.4848 45.3142 45.3877 48.8699C45.0309 49.1741 44.6741 49.4783 44.3383 49.7615" stroke="#A9612D" stroke-width="1.7" stroke-linecap="round" stroke-linejoin="round"/>
<path d="M28.9959 51.6287C40.9467 51.6287 50.6348 41.9451 50.6348 29.9999C50.6348 18.0546 40.9467 8.37109 28.9959 8.37109C17.045 8.37109 7.35693 18.0546 7.35693 29.9999C7.35693 41.9451 17.045 51.6287 28.9959 51.6287Z" stroke="#A9612D" stroke-width="1.7" stroke-linecap="round" stroke-linejoin="round"/>
<path d="M33.5398 30.3145L38.661 32.0137L36.0899 37.7723L31.441 35.1185C30.6908 35.6262 29.8126 35.9121 28.9073 35.9434C28.0019 35.9748 27.106 35.7503 26.3225 35.2957C25.539 34.8412 24.8996 34.175 24.4778 33.3737C24.0559 32.5723 23.8687 31.6684 23.9377 30.7655L11.9849 23.6328L25.2914 27.7026C25.9138 27.0508 26.7066 26.5867 27.5797 26.3629C28.4529 26.1392 29.3714 26.1648 30.2307 26.4369C31.09 26.709 31.8557 27.2166 32.4407 27.9021C33.0257 28.5876 33.4065 29.4234 33.5398 30.3145Z" stroke="#A9612D" stroke-width="1.7" stroke-linecap="round" stroke-linejoin="round"/>
<path d="M28.7546 33.5871C30.1514 33.5871 31.2837 32.4553 31.2837 31.0592C31.2837 29.663 30.1514 28.5312 28.7546 28.5312C27.3579 28.5312 26.2256 29.663 26.2256 31.0592C26.2256 32.4553 27.3579 33.5871 28.7546 33.5871Z" fill="#A9612D"/>
<path d="M16.3325 19.7695C16.8848 19.7695 17.3325 19.3218 17.3325 18.7695C17.3325 18.2172 16.8848 17.7695 16.3325 17.7695C15.7802 17.7695 15.3325 18.2172 15.3325 18.7695C15.3325 19.3218 15.7802 19.7695 16.3325 19.7695Z" fill="#A9612D"/>
<path d="M18.4629 17.6602C19.0152 17.6602 19.4629 17.2124 19.4629 16.6602C19.4629 16.1079 19.0152 15.6602 18.4629 15.6602C17.9106 15.6602 17.4629 16.1079 17.4629 16.6602C17.4629 17.2124 17.9106 17.6602 18.4629 17.6602Z" fill="#A9612D"/>
<path d="M20.9395 15.9512C21.4917 15.9512 21.9395 15.5035 21.9395 14.9512C21.9395 14.3989 21.4917 13.9512 20.9395 13.9512C20.3872 13.9512 19.9395 14.3989 19.9395 14.9512C19.9395 15.5035 20.3872 15.9512 20.9395 15.9512Z" fill="#A9612D"/>
<path d="M23.668 14.6934C24.2203 14.6934 24.668 14.2456 24.668 13.6934C24.668 13.1411 24.2203 12.6934 23.668 12.6934C23.1157 12.6934 22.668 13.1411 22.668 13.6934C22.668 14.2456 23.1157 14.6934 23.668 14.6934Z" fill="#A9612D"/>
<path d="M26.5751 13.9375C27.1274 13.9375 27.5752 13.4898 27.5752 12.9375C27.5752 12.3852 27.1274 11.9375 26.5751 11.9375C26.0229 11.9375 25.5752 12.3852 25.5752 12.9375C25.5752 13.4898 26.0229 13.9375 26.5751 13.9375Z" fill="#A9612D"/>
<path d="M29.5659 13.6855C30.1182 13.6855 30.5659 13.2378 30.5659 12.6855C30.5659 12.1333 30.1182 11.6855 29.5659 11.6855C29.0136 11.6855 28.5659 12.1333 28.5659 12.6855C28.5659 13.2378 29.0136 13.6855 29.5659 13.6855Z" fill="#A9612D"/>
<path d="M32.5566 13.9688C33.1089 13.9688 33.5566 13.521 33.5566 12.9687C33.5566 12.4165 33.1089 11.9688 32.5566 11.9688C32.0044 11.9688 31.5566 12.4165 31.5566 12.9687C31.5566 13.521 32.0044 13.9688 32.5566 13.9688Z" fill="#A9612D"/>
<path d="M35.4634 14.7559C36.0157 14.7559 36.4634 14.3081 36.4634 13.7559C36.4634 13.2036 36.0157 12.7559 35.4634 12.7559C34.9111 12.7559 34.4634 13.2036 34.4634 13.7559C34.4634 14.3081 34.9111 14.7559 35.4634 14.7559Z" fill="#A9612D"/>
<path d="M38.1709 16.0449C38.7232 16.0449 39.1709 15.5972 39.1709 15.0449C39.1709 14.4926 38.7232 14.0449 38.1709 14.0449C37.6186 14.0449 37.1709 14.4926 37.1709 15.0449C37.1709 15.5972 37.6186 16.0449 38.1709 16.0449Z" fill="#A9612D"/>
<path d="M40.6265 17.7773C41.1788 17.7773 41.6265 17.3296 41.6265 16.7773C41.6265 16.2251 41.1788 15.7773 40.6265 15.7773C40.0742 15.7773 39.6265 16.2251 39.6265 16.7773C39.6265 17.3296 40.0742 17.7773 40.6265 17.7773Z" fill="#A9612D"/>
<path d="M42.7358 19.916C43.2881 19.916 43.7358 19.4683 43.7358 18.916C43.7358 18.3637 43.2881 17.916 42.7358 17.916C42.1836 17.916 41.7358 18.3637 41.7358 18.916C41.7358 19.4683 42.1836 19.916 42.7358 19.916Z" fill="#A9612D"/>
<path d="M13.8952 21.4082C11.8826 24.8532 11.1059 28.8815 11.6936 32.8274C12.2813 36.7732 14.1981 40.4007 17.1273 43.1104" stroke="#A9612D" stroke-width="1.7" stroke-miterlimit="10" stroke-linecap="round"/>
<path d="M44.1075 21.4082C46.177 24.9538 46.9326 29.1141 46.2419 33.1605C45.5512 37.2069 43.4582 40.8814 40.3296 43.5405" stroke="#A9612D" stroke-width="1.7" stroke-miterlimit="10" stroke-linecap="round"/>
</svg>
