<svg width="59" height="59" viewBox="0 0 59 59" fill="none" xmlns="http://www.w3.org/2000/svg">
<path d="M21.9345 6.00586C18.5795 6.99608 15.4694 8.67858 12.8052 10.9448C10.141 13.2109 7.98177 16.0104 6.46703 19.1624C4.95229 22.3144 4.11567 25.7489 4.01117 29.2441C3.90667 32.7394 4.53664 36.2177 5.86037 39.4545C7.18409 42.6913 9.17213 45.6146 11.6962 48.0358C14.2203 50.457 17.2243 52.3221 20.5143 53.5108C23.8042 54.6996 27.3069 55.1854 30.7963 54.9371C34.2858 54.6888 37.6844 53.7117 40.7726 52.0691" stroke="#08863A" stroke-width="1.7" stroke-linecap="round" stroke-linejoin="round"/>
<path d="M25.167 5.29226C30.526 4.46611 36.0084 5.40257 40.7889 7.96066C45.5693 10.5187 49.389 14.56 51.6728 19.4759C53.9565 24.3918 54.5808 29.9162 53.4515 35.2175C52.3222 40.5187 49.5006 45.3098 45.4114 48.8692C45.0546 49.1735 44.6873 49.4777 44.3619 49.7609" stroke="#08863A" stroke-width="1.7" stroke-linecap="round" stroke-linejoin="round"/>
<path d="M28.9976 51.6275C40.9491 51.6275 50.6378 41.9429 50.6378 29.9964C50.6378 18.0498 40.9491 8.36523 28.9976 8.36523C17.0461 8.36523 7.35742 18.0498 7.35742 29.9964C7.35742 41.9429 17.0461 51.6275 28.9976 51.6275Z" stroke="#08863A" stroke-width="1.7" stroke-linecap="round" stroke-linejoin="round"/>
<path d="M31.4009 35.0437L31.8837 40.4148H25.5869L26.1536 35.0542C25.3888 34.57 24.776 33.8802 24.3855 33.0639C23.9949 32.2476 23.8424 31.3377 23.9453 30.4387C24.0483 29.5397 24.4027 28.6879 24.9677 27.981C25.5328 27.274 26.2856 26.7405 27.1401 26.4416L28.9347 11.3984L30.5614 26.4206C31.41 26.7335 32.1533 27.2788 32.7063 27.9943C33.2593 28.7097 33.5996 29.5663 33.6883 30.466C33.777 31.3658 33.6105 32.2723 33.2079 33.0819C32.8052 33.8914 32.1826 34.5713 31.4114 35.0437H31.4009Z" stroke="#08863A" stroke-width="1.7" stroke-linecap="round" stroke-linejoin="round"/>
<path d="M28.7982 33.4802C30.1951 33.4802 31.3275 32.3483 31.3275 30.952C31.3275 29.5557 30.1951 28.4238 28.7982 28.4238C27.4014 28.4238 26.269 29.5557 26.269 30.952C26.269 32.3483 27.4014 33.4802 28.7982 33.4802Z" fill="#08863A"/>
<path d="M16.3335 19.7656C16.8858 19.7656 17.3335 19.3179 17.3335 18.7656C17.3335 18.2133 16.8858 17.7656 16.3335 17.7656C15.7812 17.7656 15.3335 18.2133 15.3335 18.7656C15.3335 19.3179 15.7812 19.7656 16.3335 19.7656Z" fill="#08863A"/>
<path d="M18.4639 17.6562C19.0162 17.6562 19.4639 17.2085 19.4639 16.6562C19.4639 16.104 19.0162 15.6562 18.4639 15.6562C17.9116 15.6562 17.4639 16.104 17.4639 16.6562C17.4639 17.2085 17.9116 17.6562 18.4639 17.6562Z" fill="#08863A"/>
<path d="M20.9404 15.9473C21.4927 15.9473 21.9404 15.4996 21.9404 14.9473C21.9404 14.395 21.4927 13.9473 20.9404 13.9473C20.3881 13.9473 19.9404 14.395 19.9404 14.9473C19.9404 15.4996 20.3881 15.9473 20.9404 15.9473Z" fill="#08863A"/>
<path d="M23.6689 14.6875C24.2212 14.6875 24.6689 14.2398 24.6689 13.6875C24.6689 13.1352 24.2212 12.6875 23.6689 12.6875C23.1167 12.6875 22.6689 13.1352 22.6689 13.6875C22.6689 14.2398 23.1167 14.6875 23.6689 14.6875Z" fill="#08863A"/>
<path d="M26.5762 13.9336C27.1285 13.9336 27.5762 13.4859 27.5762 12.9336C27.5762 12.3813 27.1285 11.9336 26.5762 11.9336C26.0239 11.9336 25.5762 12.3813 25.5762 12.9336C25.5762 13.4859 26.0239 13.9336 26.5762 13.9336Z" fill="#08863A"/>
<path d="M29.1551 12.8566C29.4797 12.8566 29.7428 12.5935 29.7428 12.2691C29.7428 11.9447 29.4797 11.6816 29.1551 11.6816C28.8305 11.6816 28.5674 11.9447 28.5674 12.2691C28.5674 12.5935 28.8305 12.8566 29.1551 12.8566Z" fill="#08863A"/>
<path d="M32.5581 13.9648C33.1104 13.9648 33.5581 13.5171 33.5581 12.9648C33.5581 12.4126 33.1104 11.9648 32.5581 11.9648C32.0058 11.9648 31.5581 12.4126 31.5581 12.9648C31.5581 13.5171 32.0058 13.9648 32.5581 13.9648Z" fill="#08863A"/>
<path d="M35.4546 14.75C36.0069 14.75 36.4546 14.3023 36.4546 13.75C36.4546 13.1977 36.0069 12.75 35.4546 12.75C34.9023 12.75 34.4546 13.1977 34.4546 13.75C34.4546 14.3023 34.9023 14.75 35.4546 14.75Z" fill="#08863A"/>
<path d="M38.1729 16.041C38.7251 16.041 39.1729 15.5933 39.1729 15.041C39.1729 14.4887 38.7251 14.041 38.1729 14.041C37.6206 14.041 37.1729 14.4887 37.1729 15.041C37.1729 15.5933 37.6206 16.041 38.1729 16.041Z" fill="#08863A"/>
<path d="M40.6289 17.7715C41.1812 17.7715 41.6289 17.3238 41.6289 16.7715C41.6289 16.2192 41.1812 15.7715 40.6289 15.7715C40.0766 15.7715 39.6289 16.2192 39.6289 16.7715C39.6289 17.3238 40.0766 17.7715 40.6289 17.7715Z" fill="#08863A"/>
<path d="M42.7383 19.9121C43.2906 19.9121 43.7383 19.4644 43.7383 18.9121C43.7383 18.3598 43.2906 17.9121 42.7383 17.9121C42.186 17.9121 41.7383 18.3598 41.7383 18.9121C41.7383 19.4644 42.186 19.9121 42.7383 19.9121Z" fill="#08863A"/>
<path d="M13.8953 21.4062C11.8826 24.8517 11.1059 28.8803 11.6936 32.8266C12.2813 36.773 14.1983 40.4008 17.1277 43.1108" stroke="#08863A" stroke-width="1.7" stroke-miterlimit="10" stroke-linecap="round"/>
<path d="M44.1102 21.4062C46.1798 24.9522 46.9354 29.113 46.2447 33.1598C45.5539 37.2066 43.4608 40.8815 40.332 43.5409" stroke="#08863A" stroke-width="1.7" stroke-miterlimit="10" stroke-linecap="round"/>
</svg>
