<svg width="52" height="52" viewBox="0 0 52 52" fill="none" xmlns="http://www.w3.org/2000/svg">
<path d="M18.9345 2.00586C15.5794 2.99608 12.4694 4.67858 9.80521 6.94475C7.14098 9.21092 4.98177 12.0104 3.46703 15.1624C1.95229 18.3144 1.11567 21.7489 1.01117 25.2441C0.906665 28.7394 1.53664 32.2177 2.86037 35.4545C4.1841 38.6913 6.17214 41.6146 8.69622 44.0358C11.2203 46.457 14.2243 48.3221 17.5142 49.5108C20.8042 50.6996 24.3069 51.1854 27.7964 50.9371C31.2858 50.6888 34.6844 49.7117 37.7726 48.0691" stroke="#A9612D" stroke-width="1.7" stroke-linecap="round" stroke-linejoin="round"/>
<path d="M22.167 1.29226C27.526 0.466106 33.0085 1.40257 37.7889 3.96066C42.5693 6.51874 46.389 10.56 48.6727 15.4759C50.9565 20.3918 51.5807 25.9162 50.4515 31.2175C49.3222 36.5187 46.5006 41.3098 42.4114 44.8692C42.0546 45.1735 41.6873 45.4777 41.362 45.7609" stroke="#A9612D" stroke-width="1.7" stroke-linecap="round" stroke-linejoin="round"/>
<path d="M25.9976 47.6275C37.9492 47.6275 47.6378 37.9429 47.6378 25.9964C47.6378 14.0498 37.9492 4.36523 25.9976 4.36523C14.0461 4.36523 4.35742 14.0498 4.35742 25.9964C4.35742 37.9429 14.0461 47.6275 25.9976 47.6275Z" stroke="#A9612D" stroke-width="1.7" stroke-linecap="round" stroke-linejoin="round"/>
<path d="M22.912 30.6654L18.5566 33.8125L15.3452 28.4204L20.2778 26.1335C20.2998 25.2294 20.5762 24.3498 21.0752 23.5954C21.5742 22.841 22.2756 22.2424 23.0992 21.868C23.9228 21.4936 24.8352 21.3586 25.732 21.4785C26.6287 21.5983 27.4736 21.9682 28.1698 22.5458L41.2673 16.7656H41.3722L41.2778 16.8391L29.87 25.4831C30.0419 26.3725 29.9593 27.2922 29.6318 28.1368C29.3043 28.9813 28.7451 29.7164 28.0185 30.2576C27.2919 30.7988 26.4272 31.1241 25.5239 31.1963C24.6206 31.2684 23.7153 31.0844 22.912 30.6654Z" stroke="#A9612D" stroke-width="1.7" stroke-linecap="round" stroke-linejoin="round"/>
<path d="M25.0742 28.861C26.4711 28.861 27.6034 27.7291 27.6034 26.3329C27.6034 24.9366 26.4711 23.8047 25.0742 23.8047C23.6773 23.8047 22.5449 24.9366 22.5449 26.3329C22.5449 27.7291 23.6773 28.861 25.0742 28.861Z" fill="#A9612D"/>
<path d="M13.3335 15.7656C13.8858 15.7656 14.3335 15.3179 14.3335 14.7656C14.3335 14.2133 13.8858 13.7656 13.3335 13.7656C12.7812 13.7656 12.3335 14.2133 12.3335 14.7656C12.3335 15.3179 12.7812 15.7656 13.3335 15.7656Z" fill="#A9612D"/>
<path d="M15.4639 13.6562C16.0162 13.6562 16.4639 13.2085 16.4639 12.6562C16.4639 12.104 16.0162 11.6562 15.4639 11.6562C14.9116 11.6562 14.4639 12.104 14.4639 12.6562C14.4639 13.2085 14.9116 13.6562 15.4639 13.6562Z" fill="#A9612D"/>
<path d="M17.9404 11.9473C18.4927 11.9473 18.9404 11.4996 18.9404 10.9473C18.9404 10.395 18.4927 9.94727 17.9404 9.94727C17.3881 9.94727 16.9404 10.395 16.9404 10.9473C16.9404 11.4996 17.3881 11.9473 17.9404 11.9473Z" fill="#A9612D"/>
<path d="M20.6689 10.6875C21.2212 10.6875 21.6689 10.2398 21.6689 9.6875C21.6689 9.13521 21.2212 8.6875 20.6689 8.6875C20.1167 8.6875 19.6689 9.13521 19.6689 9.6875C19.6689 10.2398 20.1167 10.6875 20.6689 10.6875Z" fill="#A9612D"/>
<path d="M23.5762 9.93359C24.1285 9.93359 24.5762 9.48588 24.5762 8.9336C24.5762 8.38131 24.1285 7.93359 23.5762 7.93359C23.0239 7.93359 22.5762 8.38131 22.5762 8.9336C22.5762 9.48588 23.0239 9.93359 23.5762 9.93359Z" fill="#A9612D"/>
<path d="M26.5674 9.68164C27.1197 9.68164 27.5674 9.23393 27.5674 8.68164C27.5674 8.12936 27.1197 7.68164 26.5674 7.68164C26.0151 7.68164 25.5674 8.12936 25.5674 8.68164C25.5674 9.23393 26.0151 9.68164 26.5674 9.68164Z" fill="#A9612D"/>
<path d="M29.5581 9.96484C30.1104 9.96484 30.5581 9.51713 30.5581 8.96484C30.5581 8.41256 30.1104 7.96484 29.5581 7.96484C29.0058 7.96484 28.5581 8.41256 28.5581 8.96484C28.5581 9.51713 29.0058 9.96484 29.5581 9.96484Z" fill="#A9612D"/>
<path d="M32.4546 10.75C33.0069 10.75 33.4546 10.3023 33.4546 9.75C33.4546 9.19771 33.0069 8.75 32.4546 8.75C31.9023 8.75 31.4546 9.19771 31.4546 9.75C31.4546 10.3023 31.9023 10.75 32.4546 10.75Z" fill="#A9612D"/>
<path d="M35.1729 12.041C35.7251 12.041 36.1729 11.5933 36.1729 11.041C36.1729 10.4887 35.7251 10.041 35.1729 10.041C34.6206 10.041 34.1729 10.4887 34.1729 11.041C34.1729 11.5933 34.6206 12.041 35.1729 12.041Z" fill="#A9612D"/>
<path d="M37.6289 13.7715C38.1812 13.7715 38.6289 13.3238 38.6289 12.7715C38.6289 12.2192 38.1812 11.7715 37.6289 11.7715C37.0766 11.7715 36.6289 12.2192 36.6289 12.7715C36.6289 13.3238 37.0766 13.7715 37.6289 13.7715Z" fill="#A9612D"/>
<path d="M39.7383 15.9121C40.2906 15.9121 40.7383 15.4644 40.7383 14.9121C40.7383 14.3598 40.2906 13.9121 39.7383 13.9121C39.186 13.9121 38.7383 14.3598 38.7383 14.9121C38.7383 15.4644 39.186 15.9121 39.7383 15.9121Z" fill="#A9612D"/>
<path d="M10.8958 17.4062C8.88306 20.8517 8.10639 24.8803 8.6941 28.8266C9.28181 32.773 11.1988 36.4008 14.1282 39.1108" stroke="#A9612D" stroke-width="1.7" stroke-miterlimit="10" stroke-linecap="round"/>
<path d="M41.1101 17.4062C43.1798 20.9522 43.9354 25.113 43.2447 29.1598C42.5539 33.2066 40.4609 36.8815 37.332 39.5409" stroke="#A9612D" stroke-width="1.7" stroke-miterlimit="10" stroke-linecap="round"/>
</svg>
