<svg width="50" height="50" viewBox="0 0 50 50" fill="none" xmlns="http://www.w3.org/2000/svg">
<path d="M18.0999 2.32031C14.9154 3.27788 11.9666 4.89104 9.44275 7.05613C6.9189 9.22123 4.87588 11.8904 3.44501 14.892C2.01413 17.8937 1.22703 21.1615 1.13428 24.4855C1.04153 27.8095 1.64516 31.1161 2.90643 34.1929C4.1677 37.2697 6.05869 40.0486 8.45788 42.3511C10.8571 44.6535 13.7114 46.4286 16.8375 47.5623C19.9635 48.6959 23.2922 49.1631 26.6096 48.9337C29.9269 48.7043 33.1596 47.7834 36.0999 46.2303" stroke="white" stroke-width="1.7" stroke-linecap="round" stroke-linejoin="round"/>
<path d="M21.1797 1.63985C26.2869 0.849483 31.5127 1.74013 36.0698 4.17762C40.6269 6.61512 44.2685 10.4674 46.446 15.1543C48.6236 19.8412 49.2192 25.1087 48.1431 30.1635C47.067 35.2182 44.3775 39.7864 40.4797 43.1799C40.1397 43.4699 39.7897 43.7598 39.4797 44.0299" stroke="white" stroke-width="1.7" stroke-linecap="round" stroke-linejoin="round"/>
<path d="M24.8398 45.8103C36.2279 45.8103 45.4598 36.5784 45.4598 25.1903C45.4598 13.8022 36.2279 4.57031 24.8398 4.57031C13.4517 4.57031 4.21973 13.8022 4.21973 25.1903C4.21973 36.5784 13.4517 45.8103 24.8398 45.8103Z" stroke="white" stroke-width="1.7" stroke-linecap="round" stroke-linejoin="round"/>
<path d="M19.3097 26.6493L14.4497 24.9993L16.9397 19.5293L21.3897 22.1093C22.1086 21.6328 22.9471 21.3684 23.8093 21.3465C24.6714 21.3246 25.5223 21.5461 26.2644 21.9855C27.0065 22.4249 27.6098 23.0645 28.0052 23.831C28.4005 24.5975 28.5719 25.4599 28.4997 26.3193L40.1497 33.4093L40.2397 33.4693H40.1397L27.1397 29.3093C26.538 29.9272 25.7744 30.363 24.9363 30.5669C24.0983 30.7708 23.2198 30.7344 22.4015 30.462C21.5832 30.1896 20.8582 29.6921 20.3096 29.0266C19.761 28.3611 19.411 27.5546 19.2997 26.6993L19.3097 26.6493Z" stroke="white" stroke-width="1.7" stroke-linecap="round" stroke-linejoin="round"/>
<path d="M23.8699 28.3903C25.2009 28.3903 26.28 27.3113 26.28 25.9803C26.28 24.6493 25.2009 23.5703 23.8699 23.5703C22.5389 23.5703 21.46 24.6493 21.46 25.9803C21.46 27.3113 22.5389 28.3903 23.8699 28.3903Z" fill="white"/>
<path d="M12.8101 15.5293C13.3623 15.5293 13.8101 15.0816 13.8101 14.5293C13.8101 13.977 13.3623 13.5293 12.8101 13.5293C12.2578 13.5293 11.8101 13.977 11.8101 14.5293C11.8101 15.0816 12.2578 15.5293 12.8101 15.5293Z" fill="white"/>
<path d="M14.8496 13.5195C15.4019 13.5195 15.8496 13.0718 15.8496 12.5195C15.8496 11.9672 15.4019 11.5195 14.8496 11.5195C14.2973 11.5195 13.8496 11.9672 13.8496 12.5195C13.8496 13.0718 14.2973 13.5195 14.8496 13.5195Z" fill="white"/>
<path d="M17.1997 11.8906C17.752 11.8906 18.1997 11.4429 18.1997 10.8906C18.1997 10.3383 17.752 9.89062 17.1997 9.89062C16.6474 9.89062 16.1997 10.3383 16.1997 10.8906C16.1997 11.4429 16.6474 11.8906 17.1997 11.8906Z" fill="white"/>
<path d="M19.8101 10.6895C20.3623 10.6895 20.8101 10.2417 20.8101 9.68945C20.8101 9.13717 20.3623 8.68945 19.8101 8.68945C19.2578 8.68945 18.8101 9.13717 18.8101 9.68945C18.8101 10.2417 19.2578 10.6895 19.8101 10.6895Z" fill="white"/>
<path d="M22.5698 9.9707C23.1221 9.9707 23.5698 9.52299 23.5698 8.9707C23.5698 8.41842 23.1221 7.9707 22.5698 7.9707C22.0175 7.9707 21.5698 8.41842 21.5698 8.9707C21.5698 9.52299 22.0175 9.9707 22.5698 9.9707Z" fill="white"/>
<path d="M25.4297 9.73047C25.982 9.73047 26.4297 9.28275 26.4297 8.73047C26.4297 8.17819 25.982 7.73047 25.4297 7.73047C24.8774 7.73047 24.4297 8.17819 24.4297 8.73047C24.4297 9.28275 24.8774 9.73047 25.4297 9.73047Z" fill="white"/>
<path d="M28.2798 10C28.8321 10 29.2798 9.55228 29.2798 9C29.2798 8.44771 28.8321 8 28.2798 8C27.7275 8 27.2798 8.44771 27.2798 9C27.2798 9.55228 27.7275 10 28.2798 10Z" fill="white"/>
<path d="M31.04 10.75C31.5923 10.75 32.04 10.3023 32.04 9.75C32.04 9.19771 31.5923 8.75 31.04 8.75C30.4878 8.75 30.04 9.19771 30.04 9.75C30.04 10.3023 30.4878 10.75 31.04 10.75Z" fill="white"/>
<path d="M33.6299 11.9805C34.1822 11.9805 34.6299 11.5328 34.6299 10.9805C34.6299 10.4282 34.1822 9.98047 33.6299 9.98047C33.0776 9.98047 32.6299 10.4282 32.6299 10.9805C32.6299 11.5328 33.0776 11.9805 33.6299 11.9805Z" fill="white"/>
<path d="M35.96 13.6289C36.5122 13.6289 36.96 13.1812 36.96 12.6289C36.96 12.0766 36.5122 11.6289 35.96 11.6289C35.4077 11.6289 34.96 12.0766 34.96 12.6289C34.96 13.1812 35.4077 13.6289 35.96 13.6289Z" fill="white"/>
<path d="M37.98 15.6699C38.5323 15.6699 38.98 15.2222 38.98 14.6699C38.98 14.1176 38.5323 13.6699 37.98 13.6699C37.4277 13.6699 36.98 14.1176 36.98 14.6699C36.98 15.2222 37.4277 15.6699 37.98 15.6699Z" fill="white"/>
<path d="M10.45 17C8.52489 20.2823 7.78061 24.1245 8.3409 27.8882C8.90119 31.652 10.7323 35.1108 13.53 37.69" stroke="white" stroke-width="1.7" stroke-miterlimit="10" stroke-linecap="round"/>
<path d="M39.2396 17C41.2117 20.3802 41.9317 24.3465 41.2735 28.2041C40.6153 32.0618 38.621 35.5649 35.6396 38.1" stroke="white" stroke-width="1.7" stroke-miterlimit="10" stroke-linecap="round"/>
</svg>
