<svg width="53" height="52" viewBox="0 0 53 52" fill="none" xmlns="http://www.w3.org/2000/svg">
<path d="M18.9526 26.8584C18.8133 26.3592 18.7426 25.8432 18.7428 25.3248C18.7368 24.2872 19.0308 23.27 19.5894 22.3959C20.1479 21.5218 20.9472 20.8281 21.8907 20.3984" stroke="white" stroke-width="1.7" stroke-miterlimit="10" stroke-linecap="round"/>
<path d="M11.1456 39.2548C10.5304 38.4278 10.253 37.3972 10.37 36.3728C10.4869 35.3483 10.9894 34.4069 11.7752 33.7402C12.4423 33.1765 13.2759 32.8476 14.1479 32.804C15.0199 32.7603 15.882 33.0044 16.6021 33.4986L20.8623 29.9062L22.2683 31.6079L18.0081 35.1898C18.3686 35.9868 18.4613 36.8793 18.2721 37.7335C18.0829 38.5876 17.6221 39.3573 16.9588 39.9271C16.2867 40.4951 15.4459 40.8248 14.5671 40.8647C13.6884 40.9046 12.8212 40.6525 12.1005 40.1477L11.1456 39.2548Z" stroke="white" stroke-width="1.7" stroke-linecap="round" stroke-linejoin="round"/>
<path d="M23.9473 33.5195C24.6789 33.8787 25.4829 34.0655 26.2977 34.0657C27.1124 34.0644 27.9162 33.8777 28.6482 33.5195" stroke="white" stroke-width="1.7" stroke-miterlimit="10" stroke-linecap="round"/>
<path d="M33.5905 26.8584C33.7298 26.3592 33.8004 25.8432 33.8003 25.3248C33.8063 24.2872 33.5123 23.27 32.9537 22.3959C32.3952 21.5218 31.5959 20.8281 30.6523 20.3984" stroke="white" stroke-width="1.7" stroke-miterlimit="10" stroke-linecap="round"/>
<path d="M30.306 26.5433C30.3074 27.0716 30.2048 27.595 30.0041 28.0837C29.8034 28.5723 29.5085 29.0166 29.1363 29.3911C28.7641 29.7657 28.3218 30.0632 27.8348 30.2666C27.3477 30.4701 26.8254 30.5755 26.2976 30.5769C25.4309 30.5632 24.5916 30.2701 23.9044 29.7411C23.2173 29.2121 22.7189 28.4754 22.4833 27.6403C22.2476 26.8052 22.2873 25.9164 22.5964 25.1056C22.9055 24.2949 23.4675 23.6056 24.199 23.14C24.8258 22.7374 25.5529 22.519 26.2976 22.5098C27.0427 22.5167 27.7704 22.7353 28.3962 23.14C28.9763 23.4991 29.4557 23.9998 29.7897 24.595C30.1237 25.1902 30.3014 25.8606 30.306 26.5433Z" stroke="white" stroke-width="1.7" stroke-linecap="round" stroke-linejoin="round"/>
<path d="M22.2998 10.3267C22.3685 11.145 22.6843 11.9229 23.2054 12.5571C23.7265 13.1913 24.428 13.6517 25.2169 13.8771V19.5072H27.3155V18.4568V15.9779V13.8771C28.2521 13.6168 29.0631 13.0264 29.5991 12.2147C30.1351 11.403 30.36 10.4247 30.2322 9.46017C30.1044 8.4956 29.6326 7.60979 28.9037 6.96602C28.1749 6.32224 27.2382 5.96389 26.2662 5.95703C25.3153 5.96517 24.3982 6.31052 23.6777 6.93172C22.9573 7.55292 22.4802 8.40972 22.3313 9.34983L22.2998 10.3267Z" stroke="white" stroke-width="1.7" stroke-linecap="round" stroke-linejoin="round"/>
<path d="M37.3049 40.8926C36.7572 40.7408 36.2489 40.4721 35.8149 40.1048C35.1559 39.5321 34.6981 38.7625 34.5092 37.9095C34.3203 37.0566 34.4102 36.1654 34.7656 35.3675L30.5054 31.7856L31.9219 30.084L36.1821 33.6659C36.9029 33.1773 37.7633 32.9375 38.6326 32.983C39.5019 33.0285 40.3326 33.3568 40.9985 33.918C41.6085 34.4277 42.0543 35.1065 42.2799 35.8692C42.5055 36.6319 42.5009 37.4443 42.2665 38.2043C42.0321 38.9643 41.5785 39.638 40.9626 40.1406C40.3468 40.6432 39.5963 40.9524 38.8054 41.0292C38.3012 41.0627 37.7948 41.0167 37.3049 40.8926Z" stroke="white" stroke-width="1.7" stroke-linecap="round" stroke-linejoin="round"/>
<path d="M3.35967 16.2402C0.839417 22.2207 0.738393 28.9473 3.07794 35.0009C5.41749 41.0545 10.0146 45.9617 15.8994 48.6871C21.7843 51.4124 28.4966 51.7429 34.6202 49.6088C40.7438 47.4747 45.7998 43.0428 48.7215 37.2483" stroke="white" stroke-width="1.7" stroke-linecap="round" stroke-linejoin="round"/>
<path d="M6.00391 11.5339C9.38458 6.77052 14.3235 3.34113 19.9648 1.84006C25.606 0.338989 31.5941 0.860836 36.8914 3.31517C42.1886 5.7695 46.4612 10.0016 48.9687 15.2782C51.4763 20.5548 52.0607 26.5433 50.6208 32.2059" stroke="white" stroke-width="1.7" stroke-linecap="round" stroke-linejoin="round"/>
</svg>
