<svg width="102" height="77" viewBox="0 0 102 77" fill="none" xmlns="http://www.w3.org/2000/svg">
<g clip-path="url(#clip0_1531_26917)">
<mask id="mask0_1531_26917" style="mask-type:luminance" maskUnits="userSpaceOnUse" x="0" y="0" width="102" height="77">
<path d="M102 0H0V77H102V0Z" fill="white"/>
</mask>
<g mask="url(#mask0_1531_26917)">
<mask id="mask1_1531_26917" style="mask-type:luminance" maskUnits="userSpaceOnUse" x="48" y="13" width="102" height="77">
<path d="M150 13H48V90H150V13Z" fill="white"/>
</mask>
<g mask="url(#mask1_1531_26917)">
<path d="M63.2676 68.7962H134.624C134.894 68.7962 135.162 68.8486 135.412 68.9503C135.661 69.0521 135.888 69.2012 136.079 69.3892C136.27 69.5771 136.422 69.8003 136.525 70.0459C136.628 70.2916 136.682 70.5548 136.682 70.8207V81.8663C136.682 84.0234 135.811 86.0922 134.261 87.6174C132.711 89.1427 130.608 89.9996 128.416 89.9996H69.4395C67.2474 89.9996 65.1451 89.1427 63.595 87.6174C62.045 86.0922 61.1742 84.0234 61.1742 81.8663V70.8562C61.1693 70.5843 61.2201 70.3143 61.3235 70.0622C61.427 69.8101 61.581 69.5811 61.7764 69.3888C61.9718 69.1966 62.2045 69.045 62.4607 68.9432C62.7169 68.8414 62.9913 68.7914 63.2676 68.7962Z" fill="#6276DF"/>
<path d="M149.531 47.023L142.89 33.8108C142.416 32.8436 141.673 32.0292 140.746 31.463C139.819 30.8969 138.747 30.6024 137.656 30.6142C131.051 30.6171 124.511 29.3253 118.419 26.8141C112.326 24.3431 106.784 20.7235 102.104 16.1591L100.367 14.4495C99.5885 13.6835 98.3396 13.6835 97.5613 14.4495L95.824 16.1591C86.4052 25.4351 73.6336 30.6587 60.3079 30.6853C59.2179 30.6778 58.1481 30.974 57.222 31.5397C56.2959 32.1053 55.5514 32.9173 55.0746 33.8818L48.4694 47.094C48.0512 47.9379 47.9065 48.8878 48.055 49.8153C48.2035 50.7428 48.6378 51.6029 49.2995 52.2794L56.5182 59.5958C56.9929 60.0602 57.5561 60.4279 58.1755 60.6777C58.7948 60.9276 59.4581 61.0548 60.1275 61.052H137.945C139.295 61.0499 140.591 60.5271 141.554 59.5958L148.773 52.2794C149.434 51.5864 149.861 50.7098 149.996 49.7691C150.132 48.8284 149.97 47.8694 149.531 47.023ZM99.0002 51.7822C93.6945 51.7822 89.3992 44.1816 89.3992 39.4224C89.3189 38.1354 89.5073 36.8458 89.9526 35.6332C90.3979 34.4205 91.0906 33.3103 91.9884 32.371C92.8861 31.4317 93.9697 30.6832 95.1725 30.1716C96.3753 29.6599 97.6718 29.396 98.9821 29.396C100.293 29.396 101.589 29.6599 102.792 30.1716C103.994 30.6832 105.078 31.4317 105.976 32.371C106.874 33.3103 107.566 34.4205 108.012 35.6332C108.457 36.8458 108.645 38.1354 108.565 39.4224C108.565 44.1816 104.27 51.7822 99.0002 51.7822Z" fill="#6276DF"/>
<path d="M102.357 40.2401C102.357 41.9094 100.841 44.5731 99.0002 44.5731C97.1594 44.5731 95.6074 41.9094 95.6074 40.2401C95.5585 39.7752 95.6092 39.3053 95.7566 38.8609C95.9039 38.4165 96.1445 38.0075 96.4626 37.6604C96.7807 37.3132 97.1693 37.0357 97.6033 36.8457C98.0373 36.6558 98.5071 36.5576 98.9821 36.5576C99.4572 36.5576 99.9269 36.6558 100.361 36.8457C100.795 37.0357 101.184 37.3132 101.502 37.6604C101.82 38.0075 102.06 38.4165 102.208 38.8609C102.355 39.3053 102.406 39.7752 102.357 40.2401Z" fill="#6276DF"/>
</g>
</g>
</g>
<defs>
<clipPath id="clip0_1531_26917">
<rect width="102" height="77" rx="10" fill="white"/>
</clipPath>
</defs>
</svg>
