<svg width="9" height="10" viewBox="0 0 9 10" fill="none" xmlns="http://www.w3.org/2000/svg">
<path d="M5.27519 0.944408L6.16005 2.39813C6.28632 2.60272 6.48213 2.75024 6.70836 2.81123L8.30978 3.2381C8.45973 3.27792 8.59756 3.35658 8.71042 3.46674C8.82329 3.57691 8.90751 3.71501 8.95526 3.86817C9.00301 4.02133 9.01273 4.18457 8.98351 4.34269C8.95428 4.50081 8.88707 4.64866 8.78813 4.77247L7.735 6.09833C7.58553 6.28521 7.51045 6.52451 7.52513 6.76716L7.62913 8.48447C7.63909 8.64506 7.60984 8.80565 7.54413 8.95132C7.47841 9.09699 7.37835 9.223 7.25325 9.31762C7.12815 9.41225 6.98208 9.47241 6.82863 9.49252C6.67517 9.51263 6.51933 9.49203 6.37559 9.43264L4.83844 8.79922C4.62119 8.70881 4.37881 8.70881 4.16156 8.79922L2.62441 9.43264C2.48056 9.49191 2.32467 9.51242 2.17117 9.49228C2.01766 9.47215 1.87152 9.41201 1.74631 9.31744C1.6211 9.22288 1.52086 9.09695 1.4549 8.95134C1.38894 8.80572 1.35941 8.64514 1.369 8.48447L1.47487 6.76716C1.48956 6.52451 1.41447 6.28521 1.265 6.09833L0.211889 4.77247C0.11295 4.64866 0.0457179 4.50081 0.0164943 4.34269C-0.0127293 4.18457 -0.00300437 4.02133 0.0447441 3.86817C0.0924926 3.71501 0.176712 3.57691 0.289576 3.46674C0.402439 3.35658 0.540268 3.27792 0.69022 3.2381L2.29167 2.81123C2.5179 2.75024 2.71368 2.60272 2.83995 2.39813L3.72481 0.944408C3.80749 0.808293 3.92192 0.696161 4.05747 0.618455C4.19301 0.54075 4.34524 0.5 4.5 0.5C4.65476 0.5 4.80699 0.54075 4.94253 0.618455C5.07808 0.696161 5.19251 0.808293 5.27519 0.944408Z" fill="#2C3E4F"/>
</svg>
