<svg width="49" height="50" viewBox="0 0 49 50" fill="none" xmlns="http://www.w3.org/2000/svg">
<path d="M42.2125 31.3457H38.3335" stroke="#A9612D" stroke-width="1.7" stroke-linecap="round" stroke-linejoin="round"/>
<path d="M43.5243 31.2049L43.7603 31.1482L43.9585 31.0916H44.0057L44.2322 31.0161L44.4587 30.9312L44.638 30.8556H44.7135L44.9117 30.7613L45.1288 30.6386L45.2892 30.5442H45.3364C45.4686 30.4593 45.6007 30.3743 45.7234 30.2799L45.9216 30.1289L46.1103 29.9685C46.2895 29.8082 46.4597 29.638 46.62 29.4588L46.771 29.2795C46.7992 29.2472 46.8245 29.2125 46.8465 29.1757C46.9019 29.117 46.9524 29.0539 46.9975 28.9869C47.0636 28.8831 47.1391 28.7793 47.1957 28.6755L47.2617 28.5717L47.3278 28.4678L47.3844 28.3546L47.4977 28.1375L47.5544 28.0243L47.6959 27.6751L47.7431 27.5618C47.7431 27.4863 47.7903 27.4013 47.8186 27.3258C47.8847 27.1276 47.9319 26.9295 47.979 26.7218C48.0262 26.5142 47.979 26.5519 47.979 26.467C47.9836 26.4262 47.9836 26.3851 47.979 26.3443C47.979 26.3443 47.979 26.2688 47.979 26.231V25.8441C47.979 25.7591 47.979 25.6742 47.979 25.5798C47.979 25.4854 47.979 25.4005 47.979 25.3156C47.9888 25.1427 47.9888 24.9694 47.979 24.7965C47.9843 24.7526 47.9843 24.7082 47.979 24.6643C47.9835 24.5795 47.9835 24.4944 47.979 24.4095V24.2774L47.9224 24.032C47.9023 23.9767 47.8866 23.9199 47.8752 23.8621C47.849 23.7975 47.8269 23.7313 47.8092 23.6639V23.5507C47.762 23.428 47.7148 23.3241 47.6676 23.2109C47.623 23.1013 47.5726 22.9942 47.5166 22.89C47.4104 22.678 47.2906 22.4731 47.1579 22.2765L47.073 22.1538L46.8087 21.8141C46.2532 21.1406 45.5555 20.5985 44.7658 20.2265C43.976 19.8544 43.1138 19.6617 42.2408 19.6622H41.9671C42.6366 18.4147 42.9838 17.0197 42.9769 15.6039C42.9825 14.3133 42.6989 13.0378 42.1472 11.871C41.5954 10.7043 40.7895 9.67589 39.7884 8.86128C38.7873 8.04667 37.6166 7.46653 36.3621 7.16344C35.1075 6.86034 33.8011 6.84198 32.5385 7.1097C30.9196 4.98633 28.7238 3.37373 26.2133 2.4644C23.7028 1.55507 20.9836 1.38743 18.3804 1.98151C15.7772 2.57559 13.4 3.90628 11.5325 5.81471C9.66502 7.72315 8.38624 10.1287 7.84878 12.7442C5.9276 13.3653 4.25295 14.5798 3.06579 16.213C1.87863 17.8462 1.24015 19.8139 1.24219 21.8329V22.1066C1.24219 22.1727 1.24219 22.2482 1.24219 22.3237C1.24219 22.3992 1.24219 22.437 1.24219 22.4936C1.24219 22.5502 1.24219 22.6069 1.24219 22.6635C1.24219 22.7201 1.24219 22.7673 1.24219 22.8239C1.24219 22.8806 1.24219 22.9277 1.24219 22.9844C1.24219 23.041 1.24219 23.0693 1.24219 23.1165C1.25567 23.2244 1.27457 23.3315 1.29882 23.4374C1.29882 23.4374 1.29882 23.5129 1.29882 23.5412C1.30233 23.6009 1.30233 23.6608 1.29882 23.7205C1.29882 23.7866 1.29882 23.8527 1.29882 23.9187C1.29444 23.9879 1.29444 24.0572 1.29882 24.1264C1.29322 24.148 1.29322 24.1708 1.29882 24.1924C1.31011 24.2533 1.32587 24.3132 1.346 24.3718C1.346 24.5416 1.44038 24.7021 1.49701 24.8625L1.57253 25.0607C1.5951 25.1352 1.6235 25.2078 1.65747 25.2778C1.67855 25.3423 1.70375 25.4053 1.73296 25.4666C1.75869 25.5413 1.79025 25.6139 1.82734 25.6836C1.82734 25.7497 1.89341 25.8158 1.92173 25.8913C1.92173 25.9573 1.98778 26.0328 2.02553 26.0989C2.05925 26.1672 2.09707 26.2334 2.13878 26.2971C2.16143 26.3504 2.18994 26.4011 2.22375 26.4481L2.32755 26.6274C2.37474 26.7029 2.42194 26.7879 2.47857 26.8634C2.47677 26.8854 2.47677 26.9075 2.47857 26.9294L2.61068 27.1276L2.79001 27.3825L2.95046 27.5995L3.02596 27.6939L3.13921 27.8355C3.13921 27.8355 3.13922 27.8355 3.18641 27.8355L3.32798 28.0054L3.51675 28.213C3.56312 28.2547 3.60721 28.2988 3.64887 28.3451L3.71494 28.4112L3.91313 28.5905L4.1019 28.7604L4.18684 28.8265L4.39447 28.9869L4.63987 29.1757L4.89468 29.3644L5.1495 29.5343L5.41376 29.7042L5.68747 29.8552" stroke="#A9612D" stroke-width="1.7" stroke-linecap="round" stroke-linejoin="round"/>
<path d="M13.068 31.3457H10.7651" stroke="#A9612D" stroke-width="1.7" stroke-linecap="round" stroke-linejoin="round"/>
<path d="M25.6675 15.4631C25.6735 14.1534 25.977 12.8621 26.5551 11.6868C27.1332 10.5116 27.9707 9.483 29.0045 8.67882C30.0383 7.87465 31.2414 7.31588 32.5227 7.04472C33.8041 6.77356 35.1304 6.7971 36.4013 7.11355C37.6723 7.43 38.8547 8.0311 39.8594 8.87144C40.864 9.71179 41.6646 10.7694 42.2006 11.9645C42.7366 13.1595 42.9941 14.4607 42.9536 15.7699C42.9131 17.079 42.5757 18.3618 41.9669 19.5215" stroke="#A9612D" stroke-width="1.7" stroke-linecap="round" stroke-linejoin="round"/>
<path d="M7.84878 12.7441C5.9276 13.3652 4.25295 14.5798 3.06579 16.213C1.87863 17.8461 1.24015 19.8138 1.24219 21.8329V22.1066C1.24219 22.1727 1.24219 22.2482 1.24219 22.3237C1.24219 22.3992 1.24219 22.4369 1.24219 22.4936C1.24219 22.5502 1.24219 22.6068 1.24219 22.6635C1.24219 22.7201 1.24219 22.7673 1.24219 22.8239C1.24219 22.8805 1.24219 22.9277 1.24219 22.9843C1.24219 23.041 1.24219 23.0693 1.24219 23.1165C1.25567 23.2243 1.27457 23.3314 1.29882 23.4374C1.29882 23.4374 1.29882 23.5129 1.29882 23.5412C1.30233 23.6009 1.30233 23.6608 1.29882 23.7205C1.29882 23.7866 1.29882 23.8526 1.29882 23.9187C1.29444 23.9878 1.29444 24.0572 1.29882 24.1263C1.29322 24.148 1.29322 24.1707 1.29882 24.1924C1.31011 24.2533 1.32587 24.3132 1.346 24.3717C1.346 24.5416 1.44038 24.7021 1.49701 24.8625L1.57253 25.0607C1.5951 25.1352 1.6235 25.2078 1.65747 25.2778C1.67855 25.3423 1.70375 25.4053 1.73296 25.4665C1.75869 25.5412 1.79025 25.6138 1.82734 25.6836C1.82734 25.7497 1.89341 25.8157 1.92173 25.8912C1.92173 25.9573 1.98778 26.0328 2.02553 26.0989C2.05925 26.1672 2.09707 26.2334 2.13878 26.2971C2.16143 26.3504 2.18994 26.401 2.22375 26.4481L2.32755 26.6274C2.37474 26.7029 2.42194 26.7879 2.47857 26.8634C2.47677 26.8853 2.47677 26.9074 2.47857 26.9294L2.61068 27.1276L2.79001 27.3824L2.95046 27.5995L3.02596 27.6939L3.13921 27.8355C3.13921 27.8355 3.13922 27.8355 3.18641 27.8355L3.32798 28.0053L3.51675 28.213L3.64887 28.3451L3.71494 28.4112L3.91313 28.5905L4.1019 28.7604L4.18684 28.8265L4.39447 28.9869L4.63987 29.1757L4.89469 29.3644L5.1495 29.5343L5.41376 29.7042L5.68747 29.8552C7.10539 30.6512 8.70492 31.0673 10.331 31.0633" stroke="#A9612D" stroke-width="1.7" stroke-linecap="round" stroke-linejoin="round"/>
<path d="M36.3042 25.4297C36.3029 23.9043 36.8916 22.4376 37.947 21.3364C39.0025 20.2352 40.443 19.5848 41.967 19.5215H42.2313C43.1042 19.521 43.9665 19.7137 44.7563 20.0857C45.546 20.4578 46.2437 20.9999 46.7992 21.6733L47.0635 22.0131L47.1484 22.1358C47.281 22.3324 47.4008 22.5373 47.5071 22.7493C47.5631 22.8535 47.6135 22.9606 47.6581 23.0702C47.7053 23.1834 47.7525 23.2872 47.7997 23.4099V23.5232C47.7997 23.5893 47.8468 23.6553 47.8657 23.7214C47.8846 23.7875 47.8657 23.8346 47.9129 23.8913L47.9695 24.1367V24.2688C47.974 24.3537 47.974 24.4387 47.9695 24.5236C47.9748 24.5675 47.9748 24.6119 47.9695 24.6557C47.9793 24.8286 47.9793 25.0019 47.9695 25.1748C47.9695 25.2598 47.9695 25.3542 47.9695 25.4391C47.9744 25.5271 47.9744 25.6153 47.9695 25.7034V26.0903C47.9695 26.0903 47.9695 26.1658 47.9695 26.2036C47.974 26.2443 47.974 26.2855 47.9695 26.3263C47.9695 26.4112 47.9695 26.4961 47.9695 26.5811C47.9695 26.666 47.8752 26.9869 47.8091 27.1851C47.7882 27.2651 47.763 27.3439 47.7336 27.4211L47.6864 27.5343L47.5448 27.8835L47.4882 27.9968L47.375 28.2139L47.3183 28.3271L47.2523 28.4309L47.1862 28.5348C47.1296 28.6386 47.0541 28.7424 46.988 28.8462C46.9429 28.9132 46.8924 28.9763 46.837 29.035C46.815 29.0718 46.7897 29.1065 46.7615 29.1388L46.6105 29.3181C46.4502 29.4973 46.28 29.6674 46.1008 29.8278L45.9121 29.9882L45.7139 30.1392C45.5912 30.2336 45.459 30.3185 45.3269 30.4035H45.2797L45.1193 30.4979L44.9022 30.6205L44.704 30.7149H44.6285L44.4492 30.7904L44.2227 30.8754L43.9961 30.9509H43.949L43.7508 31.0075L43.5148 31.0641C43.0841 31.1593 42.6441 31.2068 42.2029 31.2057" stroke="#A9612D" stroke-width="1.7" stroke-linecap="round" stroke-linejoin="round"/>
<path d="M17.23 26.4487V23.0983L14.3325 21.4277L11.4351 23.0983V26.4487L14.3325 28.1193L17.23 26.4487Z" stroke="#A9612D" stroke-width="1.7" stroke-linecap="round" stroke-linejoin="round"/>
<path d="M23.4497 34.9995V31.649L20.5523 29.9785L17.6548 31.649V34.9995L20.5523 36.67L23.4497 34.9995Z" stroke="#A9612D" stroke-width="1.7" stroke-linecap="round" stroke-linejoin="round"/>
<path d="M36.2949 31.2983V27.9479L33.3975 26.2773L30.5 27.9479V31.2983L33.3975 32.9689L36.2949 31.2983Z" stroke="#A9612D" stroke-width="1.7" stroke-linecap="round" stroke-linejoin="round"/>
<path d="M29.0087 40.9738V38.5577L26.9134 37.3496L24.8276 38.5577V40.9738L26.9134 42.1819L29.0087 40.9738Z" stroke="#A9612D" stroke-width="1.7" stroke-linecap="round" stroke-linejoin="round"/>
<path d="M18.1176 47.6261V45.21L16.0318 44.002L13.9365 45.21V47.6261L16.0318 48.8342L18.1176 47.6261Z" stroke="#A9612D" stroke-width="1.7" stroke-linecap="round" stroke-linejoin="round"/>
<path d="M12.4356 39.7375V37.3213L10.3403 36.1133L8.24512 37.3213V39.7375L10.3403 40.9455L12.4356 39.7375Z" stroke="#A9612D" stroke-width="1.7" stroke-linecap="round" stroke-linejoin="round"/>
<path d="M39.1735 47.0226V43.7005L36.2949 42.0488L33.4258 43.7005V47.0226L36.2949 48.6837L39.1735 47.0226Z" stroke="#A9612D" stroke-width="1.7" stroke-linecap="round" stroke-linejoin="round"/>
<path d="M20.5522 18.8496V24.0122" stroke="#A9612D" stroke-width="1.7" stroke-linecap="round" stroke-linejoin="round"/>
<path d="M20.8161 26.5057C20.8161 26.5366 20.791 26.5617 20.76 26.5617C20.7291 26.5617 20.704 26.5366 20.704 26.5057C20.704 26.4747 20.7291 26.4496 20.76 26.4496C20.791 26.4496 20.8161 26.4747 20.8161 26.5057Z" fill="#A9612D" stroke="#A9612D" stroke-width="1.7"/>
<path d="M14.5588 17.9451C14.5588 17.9761 14.5337 18.0012 14.5027 18.0012C14.4718 18.0012 14.4467 17.9761 14.4467 17.9451C14.4467 17.9141 14.4718 17.8891 14.5027 17.8891C14.5337 17.8891 14.5588 17.9141 14.5588 17.9451Z" fill="#A9612D" stroke="#A9612D" stroke-width="1.7"/>
<path d="M33.1515 22.6346C33.1515 22.6655 33.1264 22.6906 33.0955 22.6906C33.0645 22.6906 33.0395 22.6655 33.0395 22.6346C33.0395 22.6036 33.0645 22.5785 33.0955 22.5785C33.1264 22.5785 33.1515 22.6036 33.1515 22.6346Z" fill="#A9612D" stroke="#A9612D" stroke-width="1.7"/>
<path d="M26.9694 34.3475C26.9694 34.3784 26.9443 34.4035 26.9134 34.4035C26.8824 34.4035 26.8573 34.3784 26.8573 34.3475C26.8573 34.3165 26.8824 34.2914 26.9134 34.2914C26.9443 34.2914 26.9694 34.3165 26.9694 34.3475Z" fill="#A9612D" stroke="#A9612D" stroke-width="1.7"/>
<path d="M26.9694 45.9178C26.9694 45.9487 26.9443 45.9738 26.9134 45.9738C26.8824 45.9738 26.8573 45.9487 26.8573 45.9178C26.8573 45.8868 26.8824 45.8617 26.9134 45.8617C26.9443 45.8617 26.9694 45.8868 26.9694 45.9178Z" fill="#A9612D" stroke="#A9612D" stroke-width="1.7"/>
<path d="M16.0876 40.6326C16.0876 40.6635 16.0625 40.6887 16.0315 40.6887C16.0006 40.6887 15.9755 40.6636 15.9755 40.6326C15.9755 40.6016 16.0006 40.5766 16.0315 40.5766C16.0625 40.5766 16.0876 40.6017 16.0876 40.6326Z" fill="#A9612D" stroke="#A9612D" stroke-width="1.7"/>
<path d="M26.9136 26.7871V31.3457" stroke="#A9612D" stroke-width="1.7" stroke-linecap="round" stroke-linejoin="round"/>
<path d="M36.2949 34.8574V38.5288" stroke="#A9612D" stroke-width="1.7" stroke-linecap="round" stroke-linejoin="round"/>
</svg>
