<svg width="31" height="10" viewBox="0 0 31 10" fill="none" xmlns="http://www.w3.org/2000/svg">
<path d="M5.27519 0.944408L6.16005 2.39813C6.28632 2.60272 6.48213 2.75024 6.70836 2.81123L8.30978 3.2381C8.45973 3.27792 8.59756 3.35658 8.71042 3.46674C8.82329 3.57691 8.90751 3.71501 8.95526 3.86817C9.00301 4.02133 9.01273 4.18457 8.98351 4.34269C8.95428 4.50081 8.88707 4.64866 8.78813 4.77247L7.735 6.09833C7.58553 6.28521 7.51045 6.52451 7.52513 6.76716L7.62913 8.48447C7.63909 8.64506 7.60984 8.80565 7.54413 8.95132C7.47841 9.09699 7.37835 9.223 7.25325 9.31762C7.12815 9.41225 6.98208 9.47241 6.82863 9.49252C6.67517 9.51263 6.51933 9.49203 6.37559 9.43264L4.83844 8.79922C4.62119 8.70881 4.37881 8.70881 4.16156 8.79922L2.62441 9.43264C2.48056 9.49191 2.32467 9.51242 2.17117 9.49228C2.01766 9.47215 1.87152 9.41201 1.74631 9.31744C1.6211 9.22288 1.52086 9.09695 1.4549 8.95134C1.38894 8.80572 1.35941 8.64514 1.369 8.48447L1.47487 6.76716C1.48956 6.52451 1.41447 6.28521 1.265 6.09833L0.211889 4.77247C0.11295 4.64866 0.0457179 4.50081 0.0164943 4.34269C-0.0127293 4.18457 -0.00300437 4.02133 0.0447441 3.86817C0.0924926 3.71501 0.176712 3.57691 0.289576 3.46674C0.402439 3.35658 0.540268 3.27792 0.69022 3.2381L2.29167 2.81123C2.5179 2.75024 2.71368 2.60272 2.83995 2.39813L3.72481 0.944408C3.80749 0.808293 3.92192 0.696161 4.05747 0.618455C4.19301 0.54075 4.34524 0.5 4.5 0.5C4.65476 0.5 4.80699 0.54075 4.94253 0.618455C5.07808 0.696161 5.19251 0.808293 5.27519 0.944408Z" fill="#2C3E4F"/>
<path d="M16.2752 0.944408L17.16 2.39813C17.2863 2.60272 17.4821 2.75024 17.7084 2.81123L19.3098 3.2381C19.4597 3.27792 19.5976 3.35658 19.7104 3.46674C19.8233 3.57691 19.9075 3.71501 19.9553 3.86817C20.003 4.02133 20.0127 4.18457 19.9835 4.34269C19.9543 4.50081 19.8871 4.64866 19.7881 4.77247L18.735 6.09833C18.5855 6.28521 18.5104 6.52451 18.5251 6.76716L18.6291 8.48447C18.6391 8.64506 18.6098 8.80565 18.5441 8.95132C18.4784 9.09699 18.3783 9.223 18.2533 9.31762C18.1282 9.41225 17.9821 9.47241 17.8286 9.49252C17.6752 9.51263 17.5193 9.49203 17.3756 9.43264L15.8384 8.79922C15.6212 8.70881 15.3788 8.70881 15.1616 8.79922L13.6244 9.43264C13.4806 9.49191 13.3247 9.51242 13.1712 9.49228C13.0177 9.47215 12.8715 9.41201 12.7463 9.31744C12.6211 9.22288 12.5209 9.09695 12.4549 8.95134C12.3889 8.80572 12.3594 8.64514 12.369 8.48447L12.4749 6.76716C12.4896 6.52451 12.4145 6.28521 12.265 6.09833L11.2119 4.77247C11.113 4.64866 11.0457 4.50081 11.0165 4.34269C10.9873 4.18457 10.997 4.02133 11.0447 3.86817C11.0925 3.71501 11.1767 3.57691 11.2896 3.46674C11.4024 3.35658 11.5403 3.27792 11.6902 3.2381L13.2917 2.81123C13.5179 2.75024 13.7137 2.60272 13.84 2.39813L14.7248 0.944408C14.8075 0.808293 14.9219 0.696161 15.0575 0.618455C15.193 0.54075 15.3452 0.5 15.5 0.5C15.6548 0.5 15.807 0.54075 15.9425 0.618455C16.0781 0.696161 16.1925 0.808293 16.2752 0.944408Z" fill="#2C3E4F"/>
<path d="M27.2752 0.944408L28.16 2.39813C28.2863 2.60272 28.4821 2.75024 28.7084 2.81123L30.3098 3.2381C30.4597 3.27792 30.5976 3.35658 30.7104 3.46674C30.8233 3.57691 30.9075 3.71501 30.9553 3.86817C31.003 4.02133 31.0127 4.18457 30.9835 4.34269C30.9543 4.50081 30.8871 4.64866 30.7881 4.77247L29.735 6.09833C29.5855 6.28521 29.5104 6.52451 29.5251 6.76716L29.6291 8.48447C29.6391 8.64506 29.6098 8.80565 29.5441 8.95132C29.4784 9.09699 29.3783 9.223 29.2533 9.31762C29.1282 9.41225 28.9821 9.47241 28.8286 9.49252C28.6752 9.51263 28.5193 9.49203 28.3756 9.43264L26.8384 8.79922C26.6212 8.70881 26.3788 8.70881 26.1616 8.79922L24.6244 9.43264C24.4806 9.49191 24.3247 9.51242 24.1712 9.49228C24.0177 9.47215 23.8715 9.41201 23.7463 9.31744C23.6211 9.22288 23.5209 9.09695 23.4549 8.95134C23.3889 8.80572 23.3594 8.64514 23.369 8.48447L23.4749 6.76716C23.4896 6.52451 23.4145 6.28521 23.265 6.09833L22.2119 4.77247C22.113 4.64866 22.0457 4.50081 22.0165 4.34269C21.9873 4.18457 21.997 4.02133 22.0447 3.86817C22.0925 3.71501 22.1767 3.57691 22.2896 3.46674C22.4024 3.35658 22.5403 3.27792 22.6902 3.2381L24.2917 2.81123C24.5179 2.75024 24.7137 2.60272 24.84 2.39813L25.7248 0.944408C25.8075 0.808293 25.9219 0.696161 26.0575 0.618455C26.193 0.54075 26.3452 0.5 26.5 0.5C26.6548 0.5 26.807 0.54075 26.9425 0.618455C27.0781 0.696161 27.1925 0.808293 27.2752 0.944408Z" fill="#2C3E4F"/>
</svg>
