<svg width="28" height="28" viewBox="0 0 28 28" fill="none" xmlns="http://www.w3.org/2000/svg">
<g clip-path="url(#clip0_1018_21749)">
<path d="M20.0065 12.1944V10.7105C20.0065 10.3286 19.8647 10.1977 19.4719 10.1977H17.2897C16.9296 10.1977 16.7987 10.3395 16.7878 10.6996V12.1835H11.2013V10.7323C11.2013 10.3286 11.0704 10.1977 10.6558 10.1977H8.47354C8.10256 10.1977 7.97163 10.3395 7.97163 10.7105V12.1617C7.30548 12.345 6.59839 12.3129 5.95161 12.0699C5.30484 11.8268 4.75155 11.3854 4.37098 10.8087C4.13598 10.4118 4.00814 9.96059 4 9.49938C4 8.40828 4 7.31717 4 6.22606C4.00152 6.06578 4.03106 5.90699 4.08729 5.75688C4.15238 5.60656 4.24488 5.46966 4.36007 5.35317C4.47433 5.24593 4.60752 5.16083 4.75286 5.10222C4.90149 5.04082 5.06128 5.01109 5.22204 5.01493H22.6798C22.8662 4.98971 23.056 5.0079 23.2343 5.06807C23.4126 5.12824 23.5746 5.22877 23.7077 5.36183C23.8407 5.49489 23.9412 5.65688 24.0014 5.83518C24.0616 6.01347 24.0798 6.20325 24.0546 6.38973V9.21569C24.0787 9.61504 24.0175 10.015 23.875 10.3888C23.7324 10.7626 23.5118 11.1018 23.2279 11.3836C22.944 11.6655 22.6032 11.8836 22.2284 12.0234C21.8535 12.1632 21.4532 12.2215 21.054 12.1944H20.0065Z" fill="white"/>
<path d="M23.1489 12.3691V18.8612C23.1738 19.1541 23.1344 19.4488 23.0335 19.7249C22.9327 20.0009 22.7727 20.2517 22.5649 20.4595C22.3571 20.6673 22.1064 20.8272 21.8303 20.9281C21.5543 21.029 21.2595 21.0683 20.9667 21.0434H6.94594C6.65265 21.0703 6.35706 21.0323 6.08011 20.9321C5.80316 20.8319 5.55164 20.672 5.34339 20.4638C5.13515 20.2555 4.97526 20.004 4.87509 19.7271C4.77491 19.4501 4.73689 19.1545 4.76372 18.8612V12.3691C5.74353 12.9449 6.89211 13.1646 8.01522 12.9911C7.96218 13.2942 7.98969 13.6059 8.09501 13.8951C8.20033 14.1842 8.37976 14.4406 8.61533 14.6386C8.91997 14.8922 9.31121 15.0174 9.70644 14.9878C9.95611 14.9896 10.2014 14.9222 10.4152 14.7932C10.6289 14.6642 10.8028 14.4785 10.9176 14.2568C11.1239 13.8671 11.229 13.4319 11.2231 12.9911H16.7332C16.7361 13.4157 16.8369 13.8338 17.0278 14.2131C17.139 14.4385 17.3118 14.6278 17.5261 14.7591C17.7404 14.8904 17.9876 14.9584 18.2389 14.9551C18.6341 14.9846 19.0254 14.8594 19.33 14.6059C19.5614 14.4114 19.7391 14.1609 19.8461 13.8782C19.9531 13.5955 19.9858 13.29 19.941 12.9911C21.0499 13.1525 22.1807 12.9333 23.1489 12.3691Z" fill="white"/>
<path d="M17.0278 14.2351C16.8336 13.8492 16.7327 13.4232 16.7332 12.9912H16.8095C16.7986 13.111 16.7986 13.2315 16.8095 13.3513C16.8369 13.5896 16.8918 13.8239 16.9732 14.0496C16.9941 14.0754 17.0097 14.105 17.0191 14.1369C17.0284 14.1687 17.0314 14.2021 17.0278 14.2351Z" fill="white"/>
<path d="M11.2231 12.9912C11.2236 13.421 11.1187 13.8443 10.9176 14.2242C10.9018 14.167 10.9018 14.1067 10.9176 14.0496C11.0042 13.8255 11.0593 13.5905 11.0813 13.3513C11.0922 13.2315 11.0922 13.111 11.0813 12.9912H11.2231Z" fill="white"/>
<path d="M17.9989 4.18594H16.4059V2.60383H11.6377V4.17503H10.0338C9.99556 3.55732 9.99556 2.93785 10.0338 2.32014C10.079 1.94733 10.2619 1.60488 10.5466 1.35997C10.848 1.0986 11.2396 0.965451 11.6377 0.988993H16.4386C16.6516 0.989736 16.8626 1.03045 17.0606 1.10902C17.2576 1.18749 17.436 1.30644 17.5843 1.45817C17.7314 1.60802 17.8464 1.78621 17.9225 1.9819C18.0053 2.17479 18.0462 2.38305 18.0425 2.59292C18.0098 3.17121 17.9989 3.64038 17.9989 4.18594Z" fill="white"/>
<path d="M8.81181 11.0059H10.4048V12.9044C10.4048 13.0899 10.4048 13.2754 10.4048 13.4609C10.3841 13.6615 10.291 13.8477 10.143 13.9846C9.99667 14.1177 9.80609 14.1916 9.60832 14.1919C9.40736 14.1912 9.21349 14.1175 9.06277 13.9846C8.91907 13.8514 8.83296 13.6674 8.82272 13.4718C8.78999 12.6534 8.81181 11.8351 8.81181 11.0059Z" fill="white"/>
<path d="M17.617 11.0059H19.21V12.9044C19.21 13.0899 19.21 13.2754 19.21 13.4609C19.1932 13.6602 19.1039 13.8466 18.9591 13.9846C18.8073 14.1158 18.6141 14.1893 18.4135 14.1919C18.2125 14.1912 18.0187 14.1175 17.8679 13.9846C17.7242 13.8514 17.6381 13.6674 17.6279 13.4718C17.5952 12.6534 17.617 11.8351 17.617 11.0059Z" fill="white"/>
</g>
<defs>
<clipPath id="clip0_1018_21749">
<rect width="20" height="20" fill="white" transform="translate(4 1)"/>
</clipPath>
</defs>
</svg>
