<svg width="44" height="55" viewBox="0 0 44 55" fill="none" xmlns="http://www.w3.org/2000/svg">
<path d="M4.62219 27.526C4.62219 27.526 9.17183 27.526 9.38123 23.7188C9.59063 19.9116 10.5805 13.0585 19.6988 13.0585C22.6399 13.0585 24.4103 11.3453 24.791 10.2031" stroke="white" stroke-width="1.7" stroke-linecap="round" stroke-linejoin="round"/>
<path d="M27.0371 13.5059C27.2111 14.5279 27.6435 15.4885 28.2932 16.2964C28.9428 17.1044 29.7883 17.7328 30.7492 18.1221C34.2042 19.7212 36.6218 21.9294 39.5058 27.5165" stroke="white" stroke-width="1.7" stroke-linecap="round" stroke-linejoin="round"/>
<path d="M5.95459 32.9521C6.31628 34.1609 6.72555 35.3888 7.20146 36.6071C8.71483 40.5571 10.8469 44.3548 13.8165 46.8866" stroke="white" stroke-width="1.7" stroke-linecap="round" stroke-linejoin="round"/>
<path d="M30.4161 46.9152C33.4334 44.4214 35.5464 40.6713 37.0312 36.7594C37.5071 35.4935 37.9259 34.2181 38.278 32.9521" stroke="white" stroke-width="1.7" stroke-linecap="round" stroke-linejoin="round"/>
<path d="M38.278 32.9518C37.9259 34.2177 37.5071 35.4931 37.0312 36.759H37.0883C38.0435 36.9722 39.0442 36.8093 39.8825 36.3042C40.7209 35.7991 41.3324 34.9905 41.5903 34.0463L42.4565 30.8578C42.6253 30.2317 42.5387 29.5643 42.2157 29.0021C41.8926 28.4399 41.3596 28.029 40.7337 27.8596L40.3054 27.7454L39.4868 27.5169C39.9548 25.0575 40.2726 22.5719 40.4387 20.0738C40.9663 17.2049 40.5959 14.2431 39.3779 11.5926C38.16 8.94201 36.1538 6.73184 33.6332 5.26368C33.5732 5.22822 33.5222 5.17921 33.4845 5.12056C33.4467 5.06191 33.4232 4.99524 33.4158 4.92588C33.4084 4.85652 33.4173 4.7864 33.4418 4.7211C33.4664 4.65581 33.5058 4.59715 33.5571 4.54982C34.3555 3.81482 35.1028 3.02616 35.7938 2.18934C35.853 2.11135 35.8849 2.01612 35.8847 1.91825C35.8845 1.82037 35.8523 1.72525 35.7929 1.64747C35.7335 1.56969 35.6502 1.51354 35.5558 1.48764C35.4614 1.46173 35.3611 1.46749 35.2703 1.50404C32.3394 2.7269 29.1946 3.35458 26.0188 3.35055H17.4525C15.3748 3.34815 13.322 3.80322 11.44 4.68347C9.55791 5.56371 7.89274 6.84753 6.5627 8.44375C5.23267 10.04 4.2704 11.9095 3.7442 13.9194C3.218 15.9294 3.14078 18.0306 3.51804 20.0738C3.73958 22.577 4.10504 25.0653 4.61261 27.5264L4.12721 27.6597L3.47046 27.8405L3.28009 27.8977C2.70195 28.1058 2.22333 28.5239 1.9394 29.0689C1.65547 29.6138 1.58703 30.2456 1.74769 30.8387L2.61381 34.0273C2.74063 34.4942 2.95818 34.9315 3.25403 35.3143C3.54989 35.6971 3.91826 36.0178 4.33809 36.2583C4.75793 36.4987 5.221 36.654 5.70088 36.7154C6.18077 36.7769 6.66805 36.7431 7.1349 36.6162H7.192C6.7161 35.3979 6.30682 34.1701 5.94514 32.9613" stroke="white" stroke-width="1.7" stroke-linecap="round" stroke-linejoin="round"/>
<path d="M33.757 31.1622L28.9979 42.66H28.3697C27.6297 41.8548 26.7309 41.2116 25.73 40.771C24.7291 40.3303 23.6478 40.1017 22.5542 40.0997H21.6595C19.6766 40.0969 17.7647 40.8372 16.3008 42.1746C16.139 42.3269 15.9772 42.4887 15.8249 42.66H15.1967L10.4377 31.1622C10.0028 30.1402 9.83023 29.0257 9.93581 27.92C10.0414 26.8143 10.4217 25.7526 11.0422 24.8314C11.6626 23.9101 12.5036 23.1586 13.4885 22.6452C14.4734 22.1318 15.571 21.8727 16.6815 21.8916H27.5512C28.6585 21.8791 29.7515 22.1429 30.7313 22.659C31.7111 23.1751 32.5468 23.9273 33.1628 24.8476C33.7788 25.7678 34.1557 26.8271 34.2595 27.9296C34.3632 29.0322 34.1905 30.1432 33.757 31.1622Z" stroke="white" stroke-width="1.7" stroke-linecap="round" stroke-linejoin="round"/>
<path d="M30.4923 47.9425C30.4898 49.5766 29.8389 51.143 28.6825 52.2976C27.5261 53.4522 25.9587 54.1007 24.3246 54.1007H19.9653C19.1013 54.1016 18.2465 53.9223 17.4556 53.5743C16.6647 53.2262 15.9551 52.7171 15.372 52.0794C14.7889 51.4417 14.3452 50.6894 14.0692 49.8706C13.7932 49.0518 13.691 48.1844 13.7691 47.3238C13.7691 47.1811 13.7691 47.0288 13.8167 46.886C14.0461 45.3056 14.7497 43.832 15.8345 42.66C15.9868 42.4887 16.1486 42.3268 16.3104 42.1746C17.7743 40.8372 19.6862 40.0969 21.6691 40.0996H22.5543C24.4629 40.105 26.306 40.7962 27.7475 42.0472C29.1889 43.2982 30.1327 45.0257 30.4067 46.9146C30.4435 47.1445 30.4657 47.3766 30.4733 47.6094C30.4923 47.7141 30.4923 47.8283 30.4923 47.9425Z" stroke="white" stroke-width="1.7" stroke-linecap="round" stroke-linejoin="round"/>
<path d="M29.0359 30.1626C30.1398 30.1626 31.0347 29.2677 31.0347 28.1638C31.0347 27.0599 30.1398 26.165 29.0359 26.165C27.932 26.165 27.0371 27.0599 27.0371 28.1638C27.0371 29.2677 27.932 30.1626 29.0359 30.1626Z" stroke="white" stroke-width="1.7" stroke-linecap="round" stroke-linejoin="round"/>
<path d="M15.7393 30.4107C16.8432 30.4107 17.7381 29.5158 17.7381 28.4119C17.7381 27.308 16.8432 26.4131 15.7393 26.4131C14.6354 26.4131 13.7405 27.308 13.7405 28.4119C13.7405 29.5158 14.6354 30.4107 15.7393 30.4107Z" stroke="white" stroke-width="1.7" stroke-linecap="round" stroke-linejoin="round"/>
<path d="M22.1164 51.0643C25.2809 51.0643 27.8462 49.4151 27.8462 47.3808C27.8462 45.3464 25.2809 43.6973 22.1164 43.6973C18.9518 43.6973 16.3865 45.3464 16.3865 47.3808C16.3865 49.4151 18.9518 51.0643 22.1164 51.0643Z" stroke="white" stroke-width="1.7" stroke-linecap="round" stroke-linejoin="round"/>
<path d="M20.1176 46.1055H24.315" stroke="white" stroke-width="1.7" stroke-linecap="round" stroke-linejoin="round"/>
<path d="M20.8409 48.8467H23.5917" stroke="white" stroke-width="1.7" stroke-linecap="round" stroke-linejoin="round"/>
</svg>
