<svg width="50" height="50" viewBox="0 0 50 50" fill="none" xmlns="http://www.w3.org/2000/svg">
<path d="M18.1 2.31982C14.9156 3.27739 11.9667 4.89055 9.44287 7.05564C6.91902 9.22074 4.876 11.8899 3.44513 14.8916C2.01425 17.8932 1.22715 21.161 1.1344 24.485C1.04165 27.809 1.64529 31.1156 2.90655 34.1924C4.16782 37.2692 6.05881 40.0481 8.45801 42.3506C10.8572 44.653 13.7115 46.4281 16.8376 47.5618C19.9637 48.6954 23.2923 49.1626 26.6097 48.9332C29.927 48.7038 33.1597 47.783 36.1 46.2298" stroke="white" stroke-width="1.7" stroke-linecap="round" stroke-linejoin="round"/>
<path d="M21.1799 1.63985C26.2872 0.849483 31.5129 1.74013 36.07 4.17762C40.6271 6.61512 44.2687 10.4674 46.4463 15.1543C48.6239 19.8412 49.2195 25.1087 48.1434 30.1635C47.0673 35.2182 44.3777 39.7864 40.4799 43.1799C40.1399 43.4699 39.7899 43.7598 39.4799 44.0299" stroke="white" stroke-width="1.7" stroke-linecap="round" stroke-linejoin="round"/>
<path d="M24.84 45.8098C36.2281 45.8098 45.46 36.5779 45.46 25.1898C45.46 13.8017 36.2281 4.56982 24.84 4.56982C13.4519 4.56982 4.21997 13.8017 4.21997 25.1898C4.21997 36.5779 13.4519 45.8098 24.84 45.8098Z" stroke="white" stroke-width="1.7" stroke-linecap="round" stroke-linejoin="round"/>
<path d="M19.3099 26.6498L14.45 24.9998L16.9399 19.5298L21.39 22.1098C22.1088 21.6333 22.9473 21.3689 23.8095 21.347C24.6717 21.3251 25.5225 21.5466 26.2646 21.986C27.0068 22.4254 27.6101 23.065 28.0054 23.8315C28.4008 24.598 28.5721 25.4604 28.4999 26.3198L40.15 33.4098L40.2399 33.4698H40.14L27.14 29.3098C26.5382 29.9277 25.7746 30.3635 24.9366 30.5674C24.0986 30.7713 23.22 30.7349 22.4017 30.4625C21.5834 30.1901 20.8584 29.6926 20.3098 29.0271C19.7612 28.3616 19.4112 27.555 19.2999 26.6998L19.3099 26.6498Z" stroke="white" stroke-width="1.7" stroke-linecap="round" stroke-linejoin="round"/>
<path d="M23.8699 28.3898C25.2009 28.3898 26.28 27.3108 26.28 25.9798C26.28 24.6488 25.2009 23.5698 23.8699 23.5698C22.5389 23.5698 21.46 24.6488 21.46 25.9798C21.46 27.3108 22.5389 28.3898 23.8699 28.3898Z" fill="white"/>
<path d="M12.8101 15.5298C13.3623 15.5298 13.8101 15.0821 13.8101 14.5298C13.8101 13.9775 13.3623 13.5298 12.8101 13.5298C12.2578 13.5298 11.8101 13.9775 11.8101 14.5298C11.8101 15.0821 12.2578 15.5298 12.8101 15.5298Z" fill="white"/>
<path d="M14.85 13.52C15.4023 13.52 15.85 13.0723 15.85 12.52C15.85 11.9677 15.4023 11.52 14.85 11.52C14.2977 11.52 13.85 11.9677 13.85 12.52C13.85 13.0723 14.2977 13.52 14.85 13.52Z" fill="white"/>
<path d="M17.2 11.8896C17.7522 11.8896 18.2 11.4419 18.2 10.8897C18.2 10.3374 17.7522 9.88965 17.2 9.88965C16.6477 9.88965 16.2 10.3374 16.2 10.8897C16.2 11.4419 16.6477 11.8896 17.2 11.8896Z" fill="white"/>
<path d="M19.8101 10.6899C20.3623 10.6899 20.8101 10.2422 20.8101 9.68994C20.8101 9.13766 20.3623 8.68994 19.8101 8.68994C19.2578 8.68994 18.8101 9.13766 18.8101 9.68994C18.8101 10.2422 19.2578 10.6899 19.8101 10.6899Z" fill="white"/>
<path d="M22.5701 9.96973C23.1224 9.96973 23.5701 9.52201 23.5701 8.96973C23.5701 8.41744 23.1224 7.96973 22.5701 7.96973C22.0178 7.96973 21.5701 8.41744 21.5701 8.96973C21.5701 9.52201 22.0178 9.96973 22.5701 9.96973Z" fill="white"/>
<path d="M25.4299 9.72998C25.9822 9.72998 26.4299 9.28227 26.4299 8.72998C26.4299 8.1777 25.9822 7.72998 25.4299 7.72998C24.8776 7.72998 24.4299 8.1777 24.4299 8.72998C24.4299 9.28227 24.8776 9.72998 25.4299 9.72998Z" fill="white"/>
<path d="M28.28 10C28.8323 10 29.28 9.55228 29.28 9C29.28 8.44771 28.8323 8 28.28 8C27.7277 8 27.28 8.44771 27.28 9C27.28 9.55228 27.7277 10 28.28 10Z" fill="white"/>
<path d="M31.04 10.75C31.5923 10.75 32.04 10.3023 32.04 9.75C32.04 9.19771 31.5923 8.75 31.04 8.75C30.4878 8.75 30.04 9.19771 30.04 9.75C30.04 10.3023 30.4878 10.75 31.04 10.75Z" fill="white"/>
<path d="M33.63 11.98C34.1823 11.98 34.63 11.5323 34.63 10.98C34.63 10.4277 34.1823 9.97998 33.63 9.97998C33.0777 9.97998 32.63 10.4277 32.63 10.98C32.63 11.5323 33.0777 11.98 33.63 11.98Z" fill="white"/>
<path d="M35.96 13.6299C36.5122 13.6299 36.96 13.1822 36.96 12.6299C36.96 12.0776 36.5122 11.6299 35.96 11.6299C35.4077 11.6299 34.96 12.0776 34.96 12.6299C34.96 13.1822 35.4077 13.6299 35.96 13.6299Z" fill="white"/>
<path d="M37.98 15.6699C38.5323 15.6699 38.98 15.2222 38.98 14.6699C38.98 14.1176 38.5323 13.6699 37.98 13.6699C37.4277 13.6699 36.98 14.1176 36.98 14.6699C36.98 15.2222 37.4277 15.6699 37.98 15.6699Z" fill="white"/>
<path d="M10.45 17C8.52489 20.2823 7.78061 24.1245 8.3409 27.8882C8.90119 31.652 10.7323 35.1108 13.53 37.69" stroke="white" stroke-width="1.7" stroke-miterlimit="10" stroke-linecap="round"/>
<path d="M39.24 17C41.2121 20.3802 41.932 24.3465 41.2739 28.2041C40.6157 32.0618 38.6213 35.5649 35.64 38.1" stroke="white" stroke-width="1.7" stroke-miterlimit="10" stroke-linecap="round"/>
</svg>
