<svg width="28" height="28" viewBox="0 0 28 28" fill="none" xmlns="http://www.w3.org/2000/svg">
<path d="M14 3C12.1711 3 10.6706 4.48727 10.6706 6.3H4.8442C4.7339 6.29845 4.6244 6.31865 4.52205 6.35942C4.41969 6.40018 4.32654 6.46071 4.24799 6.53747C4.16944 6.61423 4.10707 6.7057 4.0645 6.80656C4.02192 6.90742 4 7.01567 4 7.125C4 7.23433 4.02192 7.34258 4.0645 7.44344C4.10707 7.5443 4.16944 7.63577 4.24799 7.71253C4.32654 7.78929 4.41969 7.84982 4.52205 7.89058C4.6244 7.93135 4.7339 7.95155 4.8442 7.95H6.23144V21.975C6.23144 23.6432 7.60037 25 9.28338 25H18.7166C20.3996 25 21.7686 23.6432 21.7686 21.975V7.95H23.1558C23.2661 7.95155 23.3756 7.93135 23.478 7.89058C23.5803 7.84982 23.6735 7.78929 23.752 7.71253C23.8306 7.63577 23.8929 7.5443 23.9355 7.44344C23.9781 7.34258 24 7.23433 24 7.125C24 7.01567 23.9781 6.90742 23.9355 6.80656C23.8929 6.7057 23.8306 6.61423 23.752 6.53747C23.6735 6.46071 23.5803 6.40018 23.478 6.35942C23.3756 6.31865 23.2661 6.29845 23.1558 6.3H17.3294C17.3294 4.48727 15.8289 3 14 3ZM14 4.65C14.929 4.65 15.6647 5.37923 15.6647 6.3H12.3353C12.3353 5.37923 13.071 4.65 14 4.65ZM11.503 10.7C11.9624 10.7 12.3353 11.0696 12.3353 11.525V19.775C12.3353 20.2304 11.9624 20.6 11.503 20.6C11.0435 20.6 10.6706 20.2304 10.6706 19.775V11.525C10.6706 11.0696 11.0435 10.7 11.503 10.7ZM16.497 10.7C16.9565 10.7 17.3294 11.0696 17.3294 11.525V19.775C17.3294 20.2304 16.9565 20.6 16.497 20.6C16.0376 20.6 15.6647 20.2304 15.6647 19.775V11.525C15.6647 11.0696 16.0376 10.7 16.497 10.7Z" fill="white"/>
</svg>
