<svg width="24" height="23" viewBox="0 0 24 23" fill="none" xmlns="http://www.w3.org/2000/svg">
<g clip-path="url(#clip0_670_13602)">
<path d="M8.91522 5.94925C11.063 5.94925 13.211 5.94925 15.3592 5.94925C16.8098 5.94925 17.7916 6.88178 17.7923 8.26747C17.7923 12.4019 17.7923 16.5361 17.7923 20.6701C17.7923 22.0538 16.8084 22.9984 15.3655 22.9991C11.0517 22.9991 6.73794 22.9991 2.42414 22.9991C1.00167 22.9997 0.00439453 22.0457 0.00439453 20.6882C0.00439453 16.5457 0.00439453 12.4032 0.00439453 8.26075C0.00439453 6.89523 0.993941 5.9506 2.42063 5.94925C4.58479 5.94791 6.74966 5.94791 8.91522 5.94925ZM7.8547 15.6262C7.76755 15.5462 7.7036 15.4917 7.64386 15.4312C7.1786 14.9861 6.71381 14.5408 6.2495 14.0953C6.05622 13.9091 5.83274 13.8163 5.55935 13.8976C5.08495 14.0402 4.96618 14.57 5.33585 14.9283C5.96837 15.5442 6.61144 16.1526 7.24959 16.7645C7.70992 17.2055 7.99104 17.2082 8.44435 16.7732C9.74641 15.5258 11.048 14.2782 12.3491 13.0303C12.4324 12.9561 12.5079 12.8744 12.5747 12.7863C12.6551 12.67 12.6904 12.5305 12.6746 12.3919C12.6588 12.2533 12.5929 12.1244 12.4883 12.0274C12.3836 11.9304 12.2468 11.8715 12.1016 11.8607C11.9563 11.85 11.8117 11.8882 11.6927 11.9687C11.6172 12.0251 11.5467 12.0874 11.4819 12.1549C10.7645 12.8376 10.0505 13.5207 9.33972 14.2042L7.8547 15.6262Z" fill="#8E969B"/>
<path d="M19.056 17.0514V16.7059C19.056 13.882 19.056 11.0582 19.056 8.23439C19.056 6.43589 17.8212 5.05491 15.9679 4.76984C15.7766 4.74549 15.5837 4.73559 15.3909 4.74025C12.4358 4.74025 9.48006 4.74025 6.5236 4.74025H6.22351C6.21648 4.64747 6.20734 4.57486 6.20664 4.50225C6.20664 3.8884 6.20313 3.27456 6.20664 2.66139C6.21578 1.12106 7.3761 0.00632332 8.9813 0.00430631C12.165 0.00116873 15.3489 0.00116873 18.5331 0.00430631C19.4362 0.00430631 20.3393 0.000272281 21.2431 0.00430631C22.8139 0.0123744 23.9939 1.13114 23.9967 2.63315C24.0023 6.56677 24.0023 10.5006 23.9967 14.4347C23.9967 15.9273 22.8167 17.0447 21.2621 17.0534C20.5361 17.0548 19.8108 17.0514 19.056 17.0514Z" fill="#8E969B"/>
</g>
<defs>
<clipPath id="clip0_670_13602">
<rect width="24" height="23" fill="white"/>
</clipPath>
</defs>
</svg>
