<svg width="24" height="24" viewBox="0 0 24 24" fill="none" xmlns="http://www.w3.org/2000/svg">
<path d="M13.5 21.975C11.6333 21.975 10.0833 21.3208 8.85 20.0125C7.61667 18.7042 7 17.1417 7 15.325V14.45C5.58333 14.2667 4.39583 13.6357 3.4375 12.5572C2.47917 11.4787 2 10.2096 2 8.75V3H5V2H6.5V5.5H5V4.5H3.5V8.74193C3.5 9.93064 3.9125 10.9375 4.7375 11.7625C5.5625 12.5875 6.56667 13 7.75 13C8.93333 13 9.9375 12.5875 10.7625 11.7625C11.5875 10.9375 12 9.93064 12 8.74193V4.5H10.5V5.5H9V2H10.5V3H13.5V8.75C13.5 10.2096 13.0208 11.4787 12.0625 12.5572C11.1042 13.6357 9.91667 14.2667 8.5 14.45V15.325C8.5 16.7417 8.97083 17.9542 9.9125 18.9625C10.8542 19.9708 12.05 20.475 13.5 20.475C14.85 20.475 16.0208 19.9737 17.0125 18.9712C18.0042 17.9687 18.5 16.7513 18.5 15.3191V13.4C17.9167 13.2333 17.4375 12.9083 17.0625 12.425C16.6875 11.9417 16.5 11.3833 16.5 10.75C16.5 9.98612 16.7676 9.33681 17.3029 8.80208C17.8382 8.26736 18.4882 8 19.253 8C20.0177 8 20.6667 8.26736 21.2 8.80208C21.7333 9.33681 22 9.98612 22 10.75C22 11.3833 21.8125 11.9417 21.4375 12.425C21.0625 12.9083 20.5833 13.2333 20 13.4V15.325C20 17.175 19.3625 18.7458 18.0875 20.0375C16.8125 21.3292 15.2833 21.975 13.5 21.975ZM19.2456 12C19.5985 12 19.8958 11.8806 20.1375 11.6419C20.3792 11.4031 20.5 11.1073 20.5 10.7544C20.5 10.4015 20.3806 10.1042 20.1419 9.8625C19.9031 9.62083 19.6073 9.5 19.2544 9.5C18.9015 9.5 18.6042 9.61938 18.3625 9.85813C18.1208 10.0969 18 10.3927 18 10.7456C18 11.0985 18.1194 11.3958 18.3581 11.6375C18.5969 11.8792 18.8927 12 19.2456 12Z" fill="white"/>
<path fill-rule="evenodd" clip-rule="evenodd" d="M1.7002 2.69922H4.7002V1.69922H6.8002V5.79922H4.7002V4.79922H3.8002V8.74114C3.8002 9.85198 4.18227 10.782 4.94983 11.5496C5.71767 12.3174 6.64516 12.6992 7.7502 12.6992C8.85524 12.6992 9.78272 12.3174 10.5506 11.5496C11.3181 10.782 11.7002 9.85198 11.7002 8.74114V4.79922H10.8002V5.79922H8.7002V1.69922H10.8002V2.69922H13.8002V8.74922C13.8002 10.2814 13.2947 11.6216 12.287 12.7557C11.3405 13.8208 10.1751 14.4737 8.8002 14.7076V15.3242C8.8002 16.6671 9.24369 17.8058 10.132 18.757C11.0137 19.7011 12.1286 20.1742 13.5002 20.1742C14.7662 20.1742 15.8613 19.7078 16.7994 18.7594C17.7346 17.8141 18.2002 16.6729 18.2002 15.3183V13.6172C17.6518 13.418 17.192 13.0802 16.8257 12.6081C16.4083 12.0702 16.2002 11.4466 16.2002 10.7492C16.2002 9.90657 16.4989 9.18066 17.0911 8.58905C17.6833 7.99747 18.4099 7.69922 19.2531 7.69922C20.0964 7.69922 20.8222 7.9975 21.4126 8.58944L21.2002 8.80129C20.6669 8.26658 20.0178 7.99922 19.2531 7.99922C18.4884 7.99922 17.8384 8.26658 17.3031 8.80129C16.7678 9.33603 16.5002 9.98534 16.5002 10.7492C16.5002 11.3826 16.6877 11.9409 17.0627 12.4242C17.4377 12.9076 17.9169 13.2326 18.5002 13.3992V15.3183C18.5002 16.7505 18.0044 17.9679 17.0127 18.9704C16.021 19.973 14.8502 20.4742 13.5002 20.4742C12.0502 20.4742 10.8544 19.9701 9.91269 18.9617C8.97103 17.9534 8.5002 16.7409 8.5002 15.3242V14.4492C9.91686 14.2659 11.1044 13.635 12.0627 12.5564C13.021 11.4779 13.5002 10.2089 13.5002 8.74922V2.99922H10.5002V1.99922H9.0002V5.49922H10.5002V4.49922H12.0002V8.74114C12.0002 9.92986 11.5877 10.9367 10.7627 11.7617C9.9377 12.5867 8.93353 12.9992 7.7502 12.9992C6.56686 12.9992 5.5627 12.5867 4.7377 11.7617C3.9127 10.9367 3.5002 9.92986 3.5002 8.74114V4.49922H5.0002V5.49922H6.5002V1.99922H5.0002V2.99922H2.0002V8.74922C2.0002 10.2089 2.47936 11.4779 3.4377 12.5564C4.39603 13.635 5.58353 14.2659 7.0002 14.4492V15.3242C7.0002 17.1409 7.61686 18.7034 8.8502 20.0117C10.0835 21.3201 11.6335 21.9742 13.5002 21.9742C15.2835 21.9742 16.8127 21.3284 18.0877 20.0367C19.3627 18.7451 20.0002 17.1742 20.0002 15.3242V13.3992C20.5835 13.2326 21.0627 12.9076 21.4377 12.4242C21.8127 11.9409 22.0002 11.3826 22.0002 10.7492C22.0002 9.98534 21.7335 9.33603 21.2002 8.80129L21.4126 8.58944C22.0027 9.18113 22.3002 9.90693 22.3002 10.7492C22.3002 11.4466 22.0921 12.0702 21.6747 12.6081C21.3084 13.0802 20.8486 13.418 20.3002 13.6172V15.3242C20.3002 17.2514 19.6328 18.8985 18.3012 20.2475C16.971 21.5951 15.3654 22.2742 13.5002 22.2742C11.5544 22.2742 9.92431 21.5885 8.6319 20.2175C7.34549 18.8529 6.7002 17.2165 6.7002 15.3242V14.7076C5.32527 14.4737 4.15986 13.8208 3.21344 12.7557C2.20569 11.6216 1.7002 10.2814 1.7002 8.74922V2.69922ZM19.2458 11.6992C19.5232 11.6992 19.7437 11.6086 19.9269 11.4277C20.109 11.2477 20.2002 11.0298 20.2002 10.7536C20.2002 10.4762 20.1096 10.2557 19.9287 10.0726L20.1421 9.86172C20.3808 10.1034 20.5002 10.4007 20.5002 10.7536C20.5002 11.1065 20.3794 11.4024 20.1377 11.6411C19.896 11.8798 19.5987 11.9992 19.2458 11.9992C18.8929 11.9992 18.5971 11.8784 18.3583 11.6367L18.5717 11.4259C18.7517 11.6081 18.9696 11.6992 19.2458 11.6992ZM20.1421 9.86172L19.9287 10.0726C19.7487 9.89039 19.5308 9.79922 19.2546 9.79922C18.9772 9.79922 18.7567 9.88984 18.5735 10.0708C18.3914 10.2507 18.3002 10.4686 18.3002 10.7448C18.3002 11.0222 18.3908 11.2428 18.5717 11.4259L18.3583 11.6367C18.1196 11.3951 18.0002 11.0978 18.0002 10.7448C18.0002 10.3919 18.121 10.0961 18.3627 9.85734C18.6044 9.61859 18.9017 9.49922 19.2546 9.49922C19.6075 9.49922 19.9033 9.62005 20.1421 9.86172Z" fill="white"/>
</svg>
