<svg width="48" height="48" viewBox="0 0 48 48" fill="none" xmlns="http://www.w3.org/2000/svg">
<path d="M13.7666 47.2542C13.9394 47.2034 14.111 47.1488 14.2851 47.1016C16.1066 46.617 17.3189 45.1438 17.4869 43.2248C17.634 41.5408 16.608 39.8266 14.9715 39.1057C14.6296 38.9543 14.5438 38.775 14.545 38.4297C14.5589 35.6029 14.5589 32.7761 14.545 29.9493C14.545 29.5858 14.6112 29.3944 15.0194 29.3532C15.4303 29.3108 15.8349 29.2222 16.2255 29.0891C16.57 28.968 16.7073 29.1133 16.8666 29.3787C18.644 32.3226 20.4263 35.2637 22.2135 38.202C22.5089 38.6866 22.8926 39.0112 23.4957 39.0112C24.0988 39.0112 24.4763 38.6902 24.7779 38.202C26.5258 35.3125 28.2897 32.434 30.0218 29.5337C30.2743 29.1133 30.5121 28.9595 30.9902 29.1291C31.3374 29.2463 31.696 29.3275 32.0603 29.3714C32.3765 29.415 32.4464 29.5701 32.4452 29.856C32.4345 31.7604 32.4345 33.6649 32.4452 35.5694C32.4452 35.8698 32.3312 35.9777 32.0615 36.0709C29.4873 36.9505 28.0164 38.9785 28.0164 41.6632C28.0164 42.9486 28.0397 44.234 28.0066 45.5182C27.9845 46.3589 28.2848 46.9514 29.1 47.2506L13.7666 47.2542Z" fill="white"/>
<path d="M0 45.5315C0.383672 44.4411 0.777148 43.3508 1.15101 42.2519C1.75533 40.4783 2.3768 38.712 2.93944 36.9214C4.07697 33.2869 6.51261 31.1147 10.2868 30.3926C10.7355 30.3066 11.1816 30.2036 11.6352 30.1104C11.6794 30.1108 11.7235 30.1165 11.7663 30.1273C11.7774 30.2485 11.8019 30.3696 11.8019 30.4992C11.8019 33.1742 11.8019 35.8492 11.8092 38.5242C11.8092 38.7992 11.7381 38.9446 11.4648 39.0669C9.62611 39.8932 8.67736 41.565 8.89922 43.5373C9.09903 45.3291 10.4927 46.7708 12.4185 47.1718C12.4744 47.1909 12.5282 47.2157 12.579 47.2457H1.01373C0.564561 47.0477 0.205277 46.6926 0.00490046 46.2487L0 45.5315Z" fill="white"/>
<path d="M38.5487 47.2533C39.3639 46.9504 39.6519 46.3532 39.6348 45.516C39.5931 43.992 39.7022 42.4558 39.5539 40.9426C39.3185 38.5196 37.9236 36.9047 35.6093 36.087C35.2979 35.9779 35.1815 35.8568 35.1851 35.5236C35.2023 33.8615 35.1925 32.1993 35.1937 30.5383C35.1937 30.4051 35.2072 30.273 35.2182 30.0889C37.03 30.4523 38.8159 30.7491 40.3666 31.7995C41.8841 32.8305 43.0633 34.1534 43.6651 35.8701C44.7916 39.0442 45.8434 42.2438 46.9123 45.4409C47.1734 46.2223 46.8804 46.7554 45.988 47.2582L38.5487 47.2533Z" fill="white"/>
<path d="M31.2061 47.2532C31.7356 47.0024 32.1683 46.6741 32.2283 46.0418C32.3031 45.2277 31.8373 44.7202 30.793 44.4888C30.793 43.3913 30.7109 42.2841 30.8126 41.1938C30.961 39.5972 32.2835 38.5033 33.8646 38.5288C35.4249 38.5518 36.6984 39.6602 36.8295 41.2435C36.919 42.3204 36.8467 43.4119 36.8467 44.49C36.6198 44.5353 36.3972 44.5993 36.1811 44.6814C35.9548 44.7781 35.7615 44.9371 35.6241 45.1394C35.4867 45.3418 35.4112 45.5789 35.4065 45.8225C35.3873 46.0715 35.4407 46.3206 35.5604 46.5405C35.6801 46.7603 35.8611 46.9417 36.0819 47.063C36.1958 47.1333 36.3184 47.1841 36.4373 47.252L31.2061 47.2532Z" fill="white"/>
<path d="M11.7859 15.201C12.2407 15.201 12.5912 15.201 12.943 15.201C14.4777 15.2228 15.8322 14.7418 16.8239 13.5812C17.5238 12.761 18.1416 12.612 19.2154 12.9754C22.3583 14.0161 25.5331 13.8659 28.6442 12.7174C28.9776 12.5963 29.2007 12.5963 29.436 12.881C29.6542 13.1499 29.9263 13.3728 30.1715 13.6236C30.6594 14.1376 31.2519 14.5437 31.91 14.8152C32.5681 15.0866 33.2769 15.2173 33.9898 15.1985C34.3674 15.1985 34.7461 15.1985 35.1972 15.1985C35.033 19.2716 33.3708 22.516 29.9656 24.7063C25.8506 27.3535 21.5321 27.4237 17.3399 24.9038C13.7373 22.7401 11.9808 19.4218 11.7859 15.201Z" fill="white"/>
<path d="M35.1839 12.4391C33.9667 12.5361 32.8316 12.5773 31.9613 11.5439C31.4931 10.989 30.9304 10.5117 30.4082 10.0028C29.9179 9.51823 29.3467 9.43949 28.724 9.72661C25.2428 11.3371 21.7611 11.3391 18.2791 9.73267C17.6122 9.42616 17.0851 9.52066 16.5629 10.0259C16.0408 10.531 15.5002 11.0302 15.0099 11.5681C14.7376 11.8867 14.3918 12.1359 14.0016 12.2947C13.6114 12.4535 13.1882 12.5172 12.7679 12.4803C12.4664 12.461 12.1624 12.4803 11.9221 12.4803C11.3092 8.83253 12.3242 5.88981 15.3028 3.58555C20.9022 -0.746752 29.1285 0.0722185 33.6308 5.50456C34.6041 6.67728 35.1618 8.00387 35.1851 9.52793C35.1949 10.4886 35.1839 11.453 35.1839 12.4391Z" fill="white"/>
<path d="M23.5031 35.0195L19.7954 28.9141C22.2244 29.5393 24.7747 29.5414 27.2047 28.9201C25.9545 30.9734 24.7508 32.9528 23.5031 35.0195Z" fill="white"/>
<path d="M13.1783 41.4356C13.5943 41.4362 13.9931 41.5998 14.2874 41.8904C14.5816 42.181 14.7474 42.575 14.7484 42.9862C14.741 43.3969 14.5716 43.7885 14.2762 44.0775C13.9808 44.3665 13.5829 44.53 13.1673 44.5331C12.7512 44.5287 12.3536 44.3627 12.0603 44.071C11.767 43.7793 11.6015 43.3853 11.5996 42.9741C11.6009 42.7705 11.6428 42.5693 11.7228 42.3818C11.8029 42.1943 11.9196 42.0242 12.0662 41.8813C12.2128 41.7384 12.3865 41.6255 12.5773 41.549C12.7682 41.4725 12.9724 41.434 13.1783 41.4356Z" fill="white"/>
</svg>
