<svg width="24" height="24" viewBox="0 0 24 24" fill="none" xmlns="http://www.w3.org/2000/svg">
<path fill-rule="evenodd" clip-rule="evenodd" d="M16 19.5V14.25V12H18V14.3868L23 11.5L18 8.61325V11H16V4.5C16 4.0875 15.8531 3.73438 15.5594 3.44063C15.2656 3.14687 14.9125 3 14.5 3H4.5C4.0875 3 3.73438 3.14687 3.44062 3.44063C3.14687 3.73438 3 4.0875 3 4.5V19.5C3 19.9125 3.14687 20.2656 3.44062 20.5594C3.73438 20.8531 4.0875 21 4.5 21H14.5C14.9125 21 15.2656 20.8531 15.5594 20.5594C15.8531 20.2656 16 19.9125 16 19.5ZM16 11H10L10 12H16V11Z" fill="white"/>
</svg>
