<svg width="53" height="81" viewBox="0 0 53 81" fill="none" xmlns="http://www.w3.org/2000/svg">
<mask id="mask0_1531_26888" style="mask-type:alpha" maskUnits="userSpaceOnUse" x="0" y="0" width="53" height="81">
<rect width="53" height="81" rx="10" fill="#D9D9D9"/>
</mask>
<g mask="url(#mask0_1531_26888)">
<path d="M67.8579 42.0248C64.8498 37.1489 61.4466 32.5208 57.6818 28.1857C52.0386 21.109 48.9781 12.3642 48.9941 3.36237C49.0042 3.12227 48.9469 2.88409 48.8287 2.67393C48.7105 2.46376 48.5358 2.28978 48.3239 2.17099C48.112 2.05221 47.8711 1.99329 47.6275 2.00061C47.3838 2.00793 47.147 2.08122 46.9428 2.2125C40.5047 6.78771 35.557 13.1122 32.7043 20.4136C29.6992 28.2044 29.1938 36.7173 31.2564 44.8006C31.2907 44.895 31.2938 44.9977 31.2655 45.0939C31.2371 45.1902 31.1785 45.2751 31.0983 45.3367C31.018 45.3982 30.9203 45.4332 30.8187 45.4366C30.717 45.4401 30.6168 45.4118 30.5324 45.3558C25.4876 42.3387 21.1654 38.2803 17.8629 33.4597C17.754 33.2973 17.6095 33.1608 17.4404 33.0603C17.2712 32.9599 17.0816 32.8979 16.8851 32.8789C16.6885 32.8599 16.4902 32.8844 16.3045 32.9506C16.1188 33.0167 15.9503 33.1229 15.8115 33.2613C13.5735 35.637 11.6786 38.3058 10.1804 41.1921C8.60605 44.5478 7.61365 48.1399 7.24436 51.8193C6.36521 59.1871 7.8716 66.6405 11.5481 73.1134C14.4786 78.1282 18.7448 82.257 23.8848 85.0529C29.0248 87.8487 34.8428 89.2051 40.7085 88.9749C47.666 88.4636 54.2497 85.6718 59.4113 81.0442C64.5771 76.4646 68.2451 70.4741 69.9493 63.8343C70.5955 61.2372 70.9463 58.5772 70.9951 55.9036C71.0825 51.0973 70.0072 46.3396 67.8579 42.0248ZM49.5973 70.8134C49.371 72.4176 48.7914 73.9536 47.8992 75.3136C47.0071 76.6736 45.8241 77.8247 44.4329 78.6862C43.0417 79.5477 41.4761 80.0986 39.8461 80.3004C38.2161 80.5022 36.561 80.35 34.9969 79.8545C33.3432 79.3379 31.8365 78.4439 30.5994 77.2449C29.3624 76.046 28.43 74.5761 27.8779 72.9548C27.2683 71.2142 27.1406 69.3448 27.5082 67.5394C27.8759 65.734 28.7254 64.0581 29.9693 62.6845C30.054 62.6051 30.1562 62.5459 30.2678 62.5115C30.3794 62.4772 30.4974 62.4684 30.6129 62.4861C32.1517 62.8669 33.7088 63.1714 35.2785 63.3982C34.988 62.392 34.8392 61.3513 34.8361 60.3052C34.7963 59.7905 34.7963 59.2734 34.8361 58.7587C35.0847 57.1013 35.7188 55.523 36.6886 54.1472C37.6585 52.7714 38.9379 51.6354 40.427 50.8279C40.5052 50.7896 40.591 50.7686 40.6783 50.7662C40.7657 50.7638 40.8526 50.7801 40.9329 50.814C41.0132 50.8479 41.0851 50.8987 41.1436 50.9627C41.202 51.0267 41.2456 51.1026 41.2715 51.1849C42.0415 53.8558 43.1639 56.4155 44.6099 58.7984C45.2297 59.9375 45.9427 61.025 46.7417 62.05L47.4657 62.9621C48.7435 64.7772 49.4181 66.9387 49.3962 69.148C49.5122 69.6964 49.5795 70.2536 49.5973 70.8134Z" fill="#FC9230"/>
</g>
</svg>
