<svg width="29" height="37" viewBox="0 0 29 37" fill="none" xmlns="http://www.w3.org/2000/svg">
<path d="M27.5763 17.022C26.2132 14.9484 24.6711 12.9801 22.9652 11.1364C20.4081 8.12679 19.0213 4.40778 19.0286 0.5794C19.0331 0.477285 19.0072 0.375994 18.9536 0.286613C18.9001 0.197232 18.8209 0.12324 18.7249 0.0727218C18.6289 0.0222033 18.5197 -0.00285387 18.4093 0.000258341C18.2989 0.00337056 18.1916 0.0345414 18.0991 0.0903745C15.1818 2.03615 12.9399 4.72586 11.6473 7.83105C10.2856 11.1444 10.0565 14.7648 10.9912 18.2025C11.0067 18.2427 11.0081 18.2864 10.9953 18.3273C10.9824 18.3682 10.9559 18.4044 10.9195 18.4305C10.8832 18.4567 10.8389 18.4716 10.7928 18.473C10.7468 18.4745 10.7013 18.4625 10.6631 18.4387C8.37718 17.1555 6.41871 15.4296 4.92223 13.3794C4.87289 13.3103 4.80743 13.2523 4.73079 13.2096C4.65414 13.1668 4.56822 13.1405 4.47917 13.1324C4.39012 13.1243 4.30024 13.1347 4.21609 13.1629C4.13194 13.191 4.05562 13.2362 3.99272 13.295C2.97863 14.3054 2.11998 15.4404 1.44114 16.6679C0.727744 18.095 0.278061 19.6227 0.110728 21.1875C-0.287639 24.321 0.394942 27.4908 2.06085 30.2436C3.38876 32.3764 5.32184 34.1323 7.65091 35.3213C9.97997 36.5104 12.6163 37.0872 15.2742 36.9893C18.4268 36.7719 21.41 35.5846 23.7489 33.6165C26.0896 31.6688 27.7517 29.1212 28.5239 26.2974C28.8167 25.1928 28.9757 24.0616 28.9978 22.9245C29.0374 20.8805 28.5501 18.8571 27.5763 17.022ZM19.3019 29.2655C19.1994 29.9477 18.9367 30.6009 18.5325 31.1793C18.1282 31.7577 17.5922 32.2473 16.9618 32.6137C16.3314 32.98 15.622 33.2143 14.8834 33.3002C14.1448 33.386 13.3948 33.3213 12.6861 33.1105C11.9368 32.8909 11.254 32.5106 10.6935 32.0007C10.1329 31.4908 9.71048 30.8657 9.46031 30.1762C9.18408 29.4359 9.12619 28.6409 9.29278 27.8731C9.45938 27.1053 9.84434 26.3925 10.4079 25.8083C10.4463 25.7746 10.4927 25.7494 10.5432 25.7348C10.5938 25.7202 10.6473 25.7165 10.6996 25.724C11.3969 25.8859 12.1024 26.0154 12.8137 26.1119C12.6821 25.684 12.6146 25.2414 12.6132 24.7965C12.5952 24.5776 12.5952 24.3577 12.6132 24.1387C12.7259 23.4339 13.0132 22.7626 13.4527 22.1775C13.8921 21.5924 14.4719 21.1093 15.1466 20.7659C15.1821 20.7496 15.2209 20.7407 15.2605 20.7396C15.3001 20.7386 15.3395 20.7455 15.3759 20.76C15.4123 20.7744 15.4448 20.796 15.4713 20.8232C15.4978 20.8505 15.5175 20.8827 15.5293 20.9177C15.8782 22.0536 16.3868 23.1422 17.042 24.1556C17.3228 24.6401 17.6459 25.1026 18.008 25.5385L18.336 25.9264C18.915 26.6983 19.2207 27.6176 19.2108 28.5572C19.2634 28.7904 19.2938 29.0274 19.3019 29.2655Z" fill="#FC9230"/>
</svg>
