<svg width="50" height="50" viewBox="0 0 50 50" fill="none" xmlns="http://www.w3.org/2000/svg">
<g clip-path="url(#clip0_848_24720)">
<path d="M25.0189 14.5183C27.0702 14.7832 29.0884 15.0453 31.1065 15.3016C31.3799 15.3362 31.5506 15.4154 31.6157 15.7336C32.5054 20.1497 31.4421 24.0172 28.365 27.329C28.0334 27.6987 27.6244 27.9916 27.1667 28.1869C26.709 28.3822 26.2139 28.4752 25.7161 28.4593C25.2098 28.4593 24.7035 28.4593 24.2 28.4593C23.7298 28.4678 23.2631 28.3769 22.8307 28.1928C22.3983 28.0086 22.01 27.7353 21.6915 27.3909C18.5464 24.0791 17.4744 20.1727 18.409 15.7278C18.4468 15.6302 18.5075 15.5429 18.586 15.4733C18.6645 15.4037 18.7586 15.3537 18.8604 15.3275C20.9088 15.0367 22.9631 14.776 25.0189 14.5183Z" fill="white"/>
<path d="M15.4954 10.8424C15.5226 9.72008 15.7595 8.61265 16.1941 7.57671C17.1388 5.29306 18.7084 3.5724 20.9392 2.48528C22.0965 1.92085 23.1859 1.27722 24.1219 0.384487C24.6615 -0.126672 25.3328 -0.123792 25.8724 0.384487C26.8127 1.27578 27.9151 1.89349 29.0551 2.48384C32.3593 4.18579 34.1459 6.92733 34.4974 10.6062C34.4974 10.6753 34.4974 10.7502 34.4974 10.9014C31.6051 10.0508 28.6126 9.58359 25.5975 9.51192C25.8767 9.34201 26.017 9.25418 26.1588 9.17067C27.8485 8.17859 28.8178 6.08211 28.4474 4.18435C28.3578 3.7207 28.0482 3.44136 27.5794 3.4644C26.7838 3.49896 26.0966 3.30601 25.4904 2.76462C25.1736 2.47664 24.7671 2.52128 24.4503 2.80782C24.1972 3.03733 23.9002 3.21364 23.577 3.32621C23.2539 3.43879 22.9112 3.4853 22.5696 3.46296C21.8607 3.44424 21.5569 3.77254 21.5396 4.47088C21.4875 6.88413 22.0083 7.84021 24.2449 9.43705C22.7982 9.59543 21.3226 9.69766 19.8759 9.92948C18.4292 10.1613 16.9825 10.527 15.4954 10.8424Z" fill="white"/>
<path d="M11.1323 45.6051C11.1435 46.1377 10.6996 46.5558 10.1669 46.5558H1.9464C1.30725 46.5558 0.831782 45.9641 0.995888 45.3464C1.91549 41.8849 3.42598 38.6785 5.10445 35.5081C5.18268 35.3603 5.37236 35.31 5.49594 35.4226C6.58095 36.6307 7.68766 37.8143 8.72492 39.0569C10.3209 40.9659 11.0807 43.1547 11.1323 45.6051Z" fill="white"/>
<path d="M44.4303 35.4902C44.5695 35.3398 44.8048 35.3452 44.9008 35.5262C46.5976 38.7255 48.0805 41.9104 48.9986 45.3374C49.1643 45.956 48.6886 46.55 48.0481 46.55H39.8273C39.3023 46.55 38.8615 46.1437 38.8638 45.6187C38.8699 44.1685 39.1458 42.7721 39.7937 41.4657C40.2788 40.5074 40.8631 39.6021 41.537 38.7645C42.444 37.627 43.464 36.5788 44.4303 35.4902Z" fill="white"/>
<path d="M37.1318 49.9985H33.6598V49.4038C33.6598 44.9719 33.6598 40.5399 33.6728 36.1065C33.681 35.7947 33.7856 35.493 33.9723 35.2426C34.8808 34.0712 35.5721 32.7478 36.0135 31.3347C36.3407 31.43 36.6604 31.5493 36.9698 31.6918C37.0754 31.748 37.1304 31.9798 37.1318 32.1339C37.1448 33.3534 37.1318 34.5817 37.1318 35.794V49.9985Z" fill="white"/>
<path d="M16.3387 49.9971H12.8956V31.7336L13.8244 31.3923C14.4985 32.6033 15.0787 33.7969 15.8078 34.8898C16.168 35.3937 16.3561 35.9994 16.3445 36.6177C16.3228 40.8639 16.3387 45.1173 16.3387 49.3707V49.9971Z" fill="white"/>
<path d="M37.1709 14.8005C35.8689 14.5414 34.5481 14.3441 33.2649 14.0129C27.6719 12.533 21.7813 12.5828 16.2144 14.1569C14.8579 14.5367 13.4504 14.7042 12.0422 14.6537C11.4924 14.635 11.1293 14.2721 11.1366 13.7898C11.134 13.6767 11.1549 13.5643 11.198 13.4596C11.241 13.3549 11.3052 13.2602 11.3867 13.1813C11.4681 13.1024 11.565 13.041 11.6713 13.001C11.7776 12.9611 11.8911 12.9433 12.0046 12.9489C14.1268 13.0266 16.1421 12.4867 18.1819 12.0086C23.0137 10.8579 28.0599 10.9461 32.8483 12.2649C34.4633 12.722 36.1342 12.9541 37.8133 12.9546C38.1294 12.9597 38.4321 13.0831 38.661 13.3002C39.121 13.7955 38.7565 14.5745 38.0606 14.6522C37.7715 14.6675 37.4818 14.6675 37.1926 14.6522L37.1709 14.8005Z" fill="white"/>
<path d="M18.095 37.2699C18.7764 37.7264 19.3869 38.1339 20.0017 38.5428C20.6165 38.9517 20.9956 38.8984 21.4903 38.3095C22.3352 37.3016 23.1771 36.2937 24.0857 35.2152V43.0885H18.095V37.2699Z" fill="white"/>
<path d="M31.9166 37.2585V43.0843H25.8984V35.1995L28.378 38.1527C29.0609 38.9648 29.3039 39.0022 30.1893 38.419C30.4786 38.2271 30.7631 38.0351 31.0428 37.8431C31.309 37.6703 31.5723 37.4918 31.9166 37.2585Z" fill="white"/>
<path d="M17.0462 28.9331C18.6246 31.0549 20.8619 32.5995 23.4116 33.3276L20.5182 36.7834C18.0878 35.4011 16.4068 33.4572 15.6502 30.7776C15.6337 30.689 15.6361 30.598 15.6573 30.5104C15.6785 30.4229 15.718 30.3407 15.7731 30.2693C16.1637 29.8186 16.5905 29.4039 17.0462 28.9331Z" fill="white"/>
<path d="M29.5035 36.8064L26.6926 33.4514C27.85 32.8539 29.0522 32.3658 30.0995 31.6458C31.1469 30.9259 32.0482 29.9626 33.084 29.0439C33.4341 29.4126 33.8826 29.8517 34.2848 30.3283C34.3788 30.4392 34.3701 30.6941 34.3224 30.8568C33.7549 32.8608 32.5397 34.6229 30.8648 35.8704C30.4366 36.1959 29.978 36.4795 29.5035 36.8064Z" fill="white"/>
<path d="M49.0086 48.3341C49.4129 48.3341 49.7571 48.6148 49.8267 49.013C49.9155 49.5213 49.5256 49.9957 49.0096 49.9957H39.7377C39.2788 49.9957 38.9069 49.6238 38.9069 49.1649C38.9069 48.7061 39.2788 48.3341 39.7377 48.3341H49.0086Z" fill="white"/>
<path d="M10.2819 48.3252C10.7412 48.3253 11.1134 48.6976 11.1134 49.1568C11.1134 49.6161 10.741 49.9885 10.2817 49.9885H0.989999C0.47303 49.9885 0.0809424 49.5224 0.169403 49.0131C0.238719 48.6139 0.585137 48.3226 0.990221 48.3227L10.2819 48.3252Z" fill="white"/>
<path d="M40.6365 37.1909C40.0303 37.8905 38.8809 37.4617 38.8809 36.536V33.7934C38.8809 33.1011 39.5675 32.6182 40.219 32.8523L42.0315 33.5037C42.6927 33.7413 42.9092 34.5687 42.449 35.0997L40.6365 37.1909Z" fill="white"/>
<path d="M7.55173 35.1025C7.09209 34.5724 7.30696 33.7461 7.9666 33.5071L9.75245 32.8601C10.4044 32.6239 11.0931 33.1068 11.0931 33.8003V36.5068C11.0931 37.4324 9.94394 37.8612 9.33757 37.162L7.55173 35.1025Z" fill="white"/>
<path d="M19.0874 28.6725L19.8527 27.9525C20.0422 28.1541 20.2317 28.3586 20.4314 28.5601C20.9089 29.0746 21.4887 29.4846 22.134 29.764C22.7793 30.0434 23.476 30.186 24.1797 30.1829C24.9516 30.2087 25.7244 30.1914 26.4944 30.1311C28.0134 29.9684 29.1736 29.1534 30.1111 27.9583L30.8199 28.743C30.7765 28.7934 30.6825 28.9187 30.5726 29.031C29.1709 30.47 27.3563 31.4422 25.3775 31.8143C25.0976 31.8635 24.8108 31.8586 24.5327 31.7999C22.4046 31.3593 20.6108 30.3269 19.0874 28.6725Z" fill="white"/>
<path d="M17.8043 24.8869C16.4374 24.6766 15.1543 24.0985 14.0935 23.2152C14.0576 23.1633 14.0339 23.1039 14.0244 23.0415C14.0149 22.9792 14.0197 22.9155 14.0386 22.8552C14.3756 21.7609 14.8039 20.6882 15.0512 19.5766C15.2986 18.465 15.3869 17.3131 15.5547 16.0993L16.5833 15.8704C16.0191 19.0079 16.4227 21.9755 17.8043 24.8869Z" fill="white"/>
<path d="M32.1899 24.8813C33.5788 21.9338 33.9751 18.9964 33.4066 15.8618L34.4034 16.0821C34.6276 17.4745 34.7925 18.8265 35.079 20.1527C35.267 21.0166 35.6099 21.8618 35.9282 22.6969C36.0468 23.0094 36.0048 23.1678 35.7415 23.3607C34.7002 24.1487 33.4808 24.6708 32.1899 24.8813Z" fill="white"/>
<path d="M24.1074 44.884V46.5442H18.1095V44.884H24.1074Z" fill="white"/>
<path d="M25.8868 46.5371V44.8698H31.8905V46.5343L25.8868 46.5371Z" fill="white"/>
<path d="M18.0747 49.9885V48.3384H24.0929V49.9885H18.0747Z" fill="white"/>
<path d="M25.8868 49.9827V48.3254H31.8877V49.9827H25.8868Z" fill="white"/>
<path d="M23.3045 5.24844C23.834 5.04253 24.3447 4.83519 24.8597 4.64656C24.9599 4.61659 25.0673 4.62065 25.165 4.65809C25.667 4.84239 26.1632 5.03966 26.6854 5.23404C26.7708 6.14693 26.0836 7.35211 25.2098 7.71496C25.0638 7.76302 24.9052 7.75584 24.7642 7.6948C23.889 7.30027 23.2568 6.20308 23.3045 5.24844Z" fill="white"/>
</g>
<defs>
<clipPath id="clip0_848_24720">
<rect width="50" height="50" fill="white"/>
</clipPath>
</defs>
</svg>
