<svg width="44" height="43" viewBox="0 0 44 43" fill="none" xmlns="http://www.w3.org/2000/svg">
<path d="M42.2291 33.4295C42.2256 35.3566 41.5478 37.2218 40.3134 38.7017C39.0789 40.1815 37.3655 41.1827 35.4702 41.5317C33.5749 41.8808 31.6173 41.5556 29.9366 40.6126C28.2559 39.6696 26.9582 38.1682 26.2684 36.3687C26.0681 35.8445 25.9249 35.3002 25.8412 34.7453C25.7649 34.3109 25.7278 33.8705 25.7301 33.4295C25.7293 33.0465 25.7551 32.664 25.8071 32.2846C26.4839 32.6695 27.2116 32.9571 27.9687 33.139C27.9557 32.8885 27.9557 32.6376 27.9687 32.3871C27.9696 31.9667 28.0011 31.5469 28.0628 31.1311V30.9944C28.3123 29.5215 28.9592 28.1448 29.9339 27.0127C30.0877 26.8333 30.8396 25.9703 31.0276 25.6969C31.882 24.3811 32.4118 21.0146 32.4118 21.0146C33.4803 21.4481 34.4465 22.1 35.2484 22.9286C35.6057 23.3027 35.9315 23.7056 36.2225 24.1333C37.0642 25.4248 37.5316 26.9243 37.5725 28.4653V28.6703C37.5719 29.3821 37.4829 30.0909 37.3076 30.7808C38.4104 29.9588 39.2913 28.8753 39.8709 27.6279C41.3902 29.1759 42.2376 31.2606 42.2291 33.4295Z" stroke="#A2A7AB" stroke-width="1.7" stroke-linecap="round" stroke-linejoin="round"/>
<path d="M36.8803 37.8119C36.3777 38.4261 35.6976 38.87 34.9332 39.0832C34.1687 39.2963 33.3571 39.2682 32.6093 39.0027C31.8614 38.7372 31.2137 38.2472 30.7547 37.5998C30.2957 36.9523 30.0478 36.179 30.0449 35.3854C31.0669 35.3854 32.0471 34.9794 32.7698 34.2567C33.4924 33.534 33.8984 32.5539 33.8984 31.5319C33.9014 31.1583 33.8466 30.7865 33.736 30.4297C34.0652 30.9236 34.5041 31.3349 35.0184 31.6313C35.5327 31.9277 36.1085 32.1013 36.701 32.1385C36.5984 32.2411 36.5044 32.3436 36.4104 32.4547C35.7817 33.2352 35.481 34.2295 35.5719 35.2276C35.6628 36.2256 36.1381 37.1493 36.8975 37.8034L36.8803 37.8119Z" stroke="#A2A7AB" stroke-width="1.7" stroke-linecap="round" stroke-linejoin="round"/>
<path d="M18.1001 34.7451H12.9393V41.871H18.1001V34.7451Z" stroke="#A2A7AB" stroke-width="1.7" stroke-miterlimit="10" stroke-linecap="round"/>
<path d="M11.9909 5.55767L14.5542 1.52476C14.6281 1.39122 14.7364 1.2799 14.8679 1.20238C14.9994 1.12487 15.1492 1.08398 15.3018 1.08398C15.4544 1.08398 15.6043 1.12487 15.7358 1.20238C15.8673 1.2799 15.9755 1.39122 16.0494 1.52476L21.5263 10.069L22.3808 11.3592C22.4824 11.4901 22.5437 11.6478 22.5573 11.8129C22.571 11.978 22.5363 12.1436 22.4575 12.2894C22.3788 12.4352 22.2593 12.5549 22.1137 12.634C21.968 12.7131 21.8026 12.7481 21.6374 12.7349H20.2704L25.6105 21.057C25.7356 21.254 25.8056 21.4808 25.8134 21.7139C25.8212 21.9471 25.7664 22.1781 25.6549 22.383C25.5433 22.5878 25.3788 22.7591 25.1787 22.879C24.9786 22.9989 24.7501 23.0631 24.5168 23.0649H21.9535L28.0285 31.0538V31.1905C27.9669 31.6064 27.9355 32.0261 27.9345 32.4465C27.9345 32.7029 27.9345 32.9506 27.9345 33.1984C27.1774 33.0166 26.4497 32.7289 25.7728 32.344C25.6541 33.16 25.6541 33.9888 25.7728 34.8048H2.92541C1.54124 34.8048 0.703915 33.5146 1.44727 32.532L8.62449 23.1333H6.0612C5.82792 23.1315 5.59932 23.0673 5.39921 22.9474C5.19909 22.8275 5.03467 22.6562 4.92308 22.4513C4.81149 22.2465 4.75674 22.0155 4.76454 21.7823C4.77234 21.5491 4.84247 21.3223 4.96751 21.1254L10.3162 12.8032H8.94917C8.78329 12.8183 8.61659 12.7846 8.4696 12.7063C8.32261 12.6279 8.20165 12.5083 8.12176 12.3621C8.04187 12.216 8.00646 12.0496 8.01986 11.8836C8.03326 11.7175 8.09497 11.5591 8.19727 11.4276L10.1624 8.37728" stroke="#A2A7AB" stroke-width="1.7" stroke-miterlimit="10" stroke-linecap="round"/>
<path d="M35.2398 22.9625C34.4379 22.1339 33.4717 21.482 32.4032 21.0485C32.4032 21.0485 31.8991 24.415 31.019 25.7308C30.831 26.0042 30.0791 26.8672 29.9253 27.0466C28.9507 28.1787 28.3037 29.5554 28.0542 31.0283L21.9792 23.0394H24.5425C24.7769 23.0404 25.0072 22.9779 25.209 22.8587C25.4108 22.7394 25.5765 22.5677 25.6886 22.3619C25.8008 22.156 25.8551 21.9237 25.8458 21.6894C25.8366 21.4552 25.7641 21.2278 25.6361 21.0315L20.2959 12.7093H21.6545C21.8204 12.7245 21.987 12.6908 22.134 12.6124C22.281 12.534 22.4019 12.4144 22.4818 12.2682C22.5617 12.1221 22.5971 11.9557 22.5837 11.7897C22.5703 11.6237 22.5087 11.4652 22.4064 11.3337L21.552 10.0435L25.038 4.60935C25.1176 4.50323 25.2208 4.4171 25.3394 4.35778C25.4581 4.29846 25.5889 4.26758 25.7215 4.26758C25.8541 4.26758 25.985 4.29846 26.1037 4.35778C26.2223 4.4171 26.3255 4.50323 26.4051 4.60935L32.1127 13.5125C32.1778 13.6366 32.2113 13.7748 32.2104 13.9149C32.2095 14.055 32.1742 14.1928 32.1075 14.3161C32.0408 14.4393 31.9449 14.5443 31.8281 14.6217C31.7113 14.6991 31.5772 14.7466 31.4377 14.76H30.1988L35.0433 22.3046C35.1756 22.4981 35.2443 22.7281 35.2398 22.9625Z" stroke="#A2A7AB" stroke-width="1.7" stroke-miterlimit="10" stroke-linecap="round"/>
<path d="M28.3362 39.4188V41.8796H23.2096V34.7451H25.9011C25.9848 35.3 26.128 35.8443 26.3283 36.3685C26.7599 37.5233 27.4462 38.5659 28.3362 39.4188Z" stroke="#A2A7AB" stroke-width="1.7" stroke-miterlimit="10" stroke-linecap="round"/>
<path d="M1.07129 41.8799H42.494" stroke="#A2A7AB" stroke-width="1.7" stroke-miterlimit="10"/>
</svg>
