<svg width="54" height="54" viewBox="0 0 54 54" fill="none" xmlns="http://www.w3.org/2000/svg">
    <defs>
        <linearGradient id="paint0_linear_383_10898" x1="52.6329" y1="50.9241" x2="11.6203"
            y2="2.73418" gradientUnits="userSpaceOnUse">
            <stop stop-color="#218CEF" />
            <stop offset="1" stop-color="#37C6F3" />
        </linearGradient>
        <clipPath id="clip0_383_10898">
            <rect width="41" height="20" fill="white" transform="translate(7 19)" />
        </clipPath>
    </defs>
    <rect width="54" height="54" rx="27" fill="url(#paint0_linear_383_10898)" />
    <g clip-path="url(#clip0_383_10898)">
        <path fill-rule="evenodd" clip-rule="evenodd"
            d="M27.3677 39.0005C22.9257 39.0328 18.5619 37.831 14.7628 35.5291C11.5202 33.5203 9.00451 30.8639 7.71362 27.2031C7.17551 25.7294 6.94313 24.1616 7.03071 22.5952C7.05418 22.2613 7.11781 21.9315 7.22018 21.6128C7.76209 19.8287 9.14987 19.0005 10.9827 19.3573C12.7009 19.6921 14.0359 20.6789 15.2298 21.886C15.3248 22.0057 15.4579 22.0893 15.6069 22.1229C15.756 22.1566 15.9121 22.1383 16.0493 22.071C18.305 21.2868 20.5696 20.5291 22.8342 19.7758C25.931 18.7208 29.2931 18.741 32.3771 19.8331C33.4596 20.2032 34.5443 20.5681 35.6284 20.9328L35.6286 20.9329C36.777 21.3192 37.9249 21.7054 39.0694 22.0974C39.1818 22.1522 39.3097 22.1669 39.4315 22.1388C39.5534 22.1107 39.662 22.0417 39.7391 21.9432C40.8934 20.767 42.1755 19.7714 43.8276 19.4058C46.1098 18.8992 47.7928 20.1326 47.9779 22.4675C48.1372 24.8666 47.5707 27.2581 46.3521 29.3309C44.3563 32.8948 41.2987 35.2692 37.6243 36.9168C34.3895 38.3232 30.8949 39.0331 27.3677 39.0005ZM14.3046 33.0401C14.3215 32.9853 14.3347 32.9293 14.3443 32.8727V23.8067C14.3442 23.6731 14.2975 23.5438 14.2121 23.441C13.4558 22.5618 12.5178 21.857 11.4629 21.3749C9.70063 20.6349 8.71369 21.3265 8.77537 23.2428C8.86949 25.8916 9.85532 28.4311 11.5731 30.4498C12.3654 31.4299 13.2839 32.3009 14.3046 33.0401ZM40.629 32.9917H40.7656C43.1976 31.1238 45.0084 28.8155 45.8279 25.8243C46.1846 24.7205 46.287 23.5503 46.1274 22.4014C45.9424 21.3529 45.3564 20.9564 44.3078 21.1503C43.9903 21.1853 43.6831 21.2842 43.4047 21.441C42.7427 21.8939 42.1027 22.3771 41.463 22.8601L41.4629 22.8602L41.4627 22.8604C41.2936 22.988 41.1245 23.1157 40.9551 23.2428C40.8361 23.3353 40.7428 23.4568 40.6842 23.5956C40.6256 23.7344 40.6035 23.886 40.6202 24.0357V32.5644L40.629 32.9917ZM29.2423 25.2383C28.5129 24.956 27.7063 24.9463 26.9704 25.2107L19.6778 27.8311C19.288 27.9711 18.8584 27.7687 18.7184 27.3789C18.5783 26.989 18.7808 26.5595 19.1706 26.4194L26.4632 23.7991C27.5388 23.4126 28.7177 23.4269 29.7836 23.8393L36.4676 26.4258C36.8539 26.5753 37.0459 27.0096 36.8964 27.3959C36.7469 27.7822 36.3126 27.9742 35.9263 27.8247L29.2423 25.2383ZM26.6208 30.195C27.3457 29.9392 28.1378 29.9487 28.8563 30.2217L34.0669 32.2013C34.4541 32.3485 34.8873 32.1538 35.0344 31.7666C35.1815 31.3794 34.9869 30.9462 34.5997 30.7991L29.3891 28.8195C28.3389 28.4205 27.1812 28.4067 26.1218 28.7804L20.4171 30.793C20.0265 30.9308 19.8215 31.3591 19.9593 31.7498C20.0972 32.1404 20.5255 32.3453 20.9161 32.2075L26.6208 30.195Z"
            fill="white" />
    </g>
</svg>
