<svg width="88" height="88" viewBox="0 0 88 88" fill="none" xmlns="http://www.w3.org/2000/svg">
    <defs>
        <filter id="filter0_d_2250_20719" x="0" y="0" width="88" height="88" filterUnits="userSpaceOnUse" color-interpolation-filters="sRGB">
            <feFlood flood-opacity="0" result="BackgroundImageFix"/>
            <feColorMatrix in="SourceAlpha" type="matrix" values="0 0 0 0 0 0 0 0 0 0 0 0 0 0 0 0 0 0 127 0" result="hardAlpha"/>
            <feOffset dx="1" dy="1"/>
            <feGaussianBlur stdDeviation="2.5"/>
            <feComposite in2="hardAlpha" operator="out"/>
            <feColorMatrix type="matrix" values="0 0 0 0 0.566667 0 0 0 0 0.167495 0 0 0 0 0.115694 0 0 0 0.4 0"/>
            <feBlend mode="normal" in2="BackgroundImageFix" result="effect1_dropShadow_2250_20719"/>
            <feBlend mode="normal" in="SourceGraphic" in2="effect1_dropShadow_2250_20719" result="shape"/>
        </filter>
        <linearGradient id="paint0_linear_2250_20719" x1="5.97468" y1="21.2785" x2="82" y2="79.038" gradientUnits="userSpaceOnUse">
            <stop stop-color="#FF5963"/>
            <stop offset="1" stop-color="#E00E66"/>
        </linearGradient>
    </defs>
<g filter="url(#filter0_d_2250_20719)">
<circle cx="43" cy="43" r="39" fill="url(#paint0_linear_2250_20719)"/>
</g>
<path d="M31.0287 49.192C30.1327 49.192 29.2741 49.0747 28.4527 48.84C27.6314 48.5947 26.9701 48.28 26.4687 47.896L27.3487 45.944C27.8287 46.2853 28.3941 46.568 29.0447 46.792C29.7061 47.0053 30.3727 47.112 31.0447 47.112C31.5567 47.112 31.9674 47.064 32.2767 46.968C32.5967 46.8613 32.8314 46.7173 32.9807 46.536C33.1301 46.3547 33.2047 46.1467 33.2047 45.912C33.2047 45.6133 33.0874 45.3787 32.8527 45.208C32.6181 45.0267 32.3087 44.8827 31.9247 44.776C31.5407 44.6587 31.1141 44.552 30.6447 44.456C30.1861 44.3493 29.7221 44.2213 29.2527 44.072C28.7941 43.9227 28.3727 43.7307 27.9887 43.496C27.6047 43.2613 27.2901 42.952 27.0447 42.568C26.8101 42.184 26.6927 41.6933 26.6927 41.096C26.6927 40.456 26.8634 39.8747 27.2047 39.352C27.5567 38.8187 28.0794 38.3973 28.7727 38.088C29.4767 37.768 30.3567 37.608 31.4127 37.608C32.1167 37.608 32.8101 37.6933 33.4927 37.864C34.1754 38.024 34.7781 38.2693 35.3007 38.6L34.5007 40.568C33.9781 40.2693 33.4554 40.0507 32.9327 39.912C32.4101 39.7627 31.8981 39.688 31.3967 39.688C30.8954 39.688 30.4847 39.7467 30.1647 39.864C29.8447 39.9813 29.6154 40.136 29.4767 40.328C29.3381 40.5093 29.2687 40.7227 29.2687 40.968C29.2687 41.256 29.3861 41.4907 29.6207 41.672C29.8554 41.8427 30.1647 41.9813 30.5487 42.088C30.9327 42.1947 31.3541 42.3013 31.8127 42.408C32.2821 42.5147 32.7461 42.6373 33.2047 42.776C33.6741 42.9147 34.1007 43.1013 34.4847 43.336C34.8687 43.5707 35.1781 43.88 35.4127 44.264C35.6581 44.648 35.7807 45.1333 35.7807 45.72C35.7807 46.3493 35.6047 46.9253 35.2527 47.448C34.9007 47.9707 34.3727 48.392 33.6687 48.712C32.9754 49.032 32.0954 49.192 31.0287 49.192ZM42.5839 49.192C41.6985 49.192 40.8772 49.048 40.1199 48.76C39.3732 48.472 38.7225 48.0667 38.1679 47.544C37.6239 47.0213 37.1972 46.408 36.8879 45.704C36.5892 45 36.4399 44.232 36.4399 43.4C36.4399 42.568 36.5892 41.8 36.8879 41.096C37.1972 40.392 37.6292 39.7787 38.1839 39.256C38.7385 38.7333 39.3892 38.328 40.1359 38.04C40.8825 37.752 41.6932 37.608 42.5679 37.608C43.4532 37.608 44.2639 37.752 44.9999 38.04C45.7465 38.328 46.3919 38.7333 46.9359 39.256C47.4905 39.7787 47.9225 40.392 48.2319 41.096C48.5412 41.7893 48.6959 42.5573 48.6959 43.4C48.6959 44.232 48.5412 45.0053 48.2319 45.72C47.9225 46.424 47.4905 47.0373 46.9359 47.56C46.3919 48.072 45.7465 48.472 44.9999 48.76C44.2639 49.048 43.4585 49.192 42.5839 49.192ZM42.5679 46.984C43.0692 46.984 43.5279 46.8987 43.9439 46.728C44.3705 46.5573 44.7439 46.312 45.0639 45.992C45.3839 45.672 45.6292 45.2933 45.7999 44.856C45.9812 44.4187 46.0719 43.9333 46.0719 43.4C46.0719 42.8667 45.9812 42.3813 45.7999 41.944C45.6292 41.5067 45.3839 41.128 45.0639 40.808C44.7545 40.488 44.3865 40.2427 43.9599 40.072C43.5332 39.9013 43.0692 39.816 42.5679 39.816C42.0665 39.816 41.6025 39.9013 41.1759 40.072C40.7599 40.2427 40.3919 40.488 40.0719 40.808C39.7519 41.128 39.5012 41.5067 39.3199 41.944C39.1492 42.3813 39.0639 42.8667 39.0639 43.4C39.0639 43.9227 39.1492 44.408 39.3199 44.856C39.5012 45.2933 39.7465 45.672 40.0559 45.992C40.3759 46.312 40.7492 46.5573 41.1759 46.728C41.6025 46.8987 42.0665 46.984 42.5679 46.984ZM53.9159 49.192C53.0199 49.192 52.1612 49.0747 51.3399 48.84C50.5185 48.5947 49.8572 48.28 49.3559 47.896L50.2359 45.944C50.7159 46.2853 51.2812 46.568 51.9319 46.792C52.5932 47.0053 53.2599 47.112 53.9319 47.112C54.4439 47.112 54.8545 47.064 55.1639 46.968C55.4839 46.8613 55.7185 46.7173 55.8679 46.536C56.0172 46.3547 56.0919 46.1467 56.0919 45.912C56.0919 45.6133 55.9745 45.3787 55.7399 45.208C55.5052 45.0267 55.1959 44.8827 54.8119 44.776C54.4279 44.6587 54.0012 44.552 53.5319 44.456C53.0732 44.3493 52.6092 44.2213 52.1399 44.072C51.6812 43.9227 51.2599 43.7307 50.8759 43.496C50.4919 43.2613 50.1772 42.952 49.9319 42.568C49.6972 42.184 49.5799 41.6933 49.5799 41.096C49.5799 40.456 49.7505 39.8747 50.0919 39.352C50.4439 38.8187 50.9665 38.3973 51.6599 38.088C52.3639 37.768 53.2439 37.608 54.2999 37.608C55.0039 37.608 55.6972 37.6933 56.3799 37.864C57.0625 38.024 57.6652 38.2693 58.1879 38.6L57.3879 40.568C56.8652 40.2693 56.3425 40.0507 55.8199 39.912C55.2972 39.7627 54.7852 39.688 54.2839 39.688C53.7825 39.688 53.3719 39.7467 53.0519 39.864C52.7319 39.9813 52.5025 40.136 52.3639 40.328C52.2252 40.5093 52.1559 40.7227 52.1559 40.968C52.1559 41.256 52.2732 41.4907 52.5079 41.672C52.7425 41.8427 53.0519 41.9813 53.4359 42.088C53.8199 42.1947 54.2412 42.3013 54.6999 42.408C55.1692 42.5147 55.6332 42.6373 56.0919 42.776C56.5612 42.9147 56.9879 43.1013 57.3719 43.336C57.7559 43.5707 58.0652 43.88 58.2999 44.264C58.5452 44.648 58.6679 45.1333 58.6679 45.72C58.6679 46.3493 58.4919 46.9253 58.1399 47.448C57.7879 47.9707 57.2599 48.392 56.5559 48.712C55.8625 49.032 54.9825 49.192 53.9159 49.192Z" fill="white"/>

</svg>
