<svg width="42" height="42" viewBox="0 0 42 42" fill="none" xmlns="http://www.w3.org/2000/svg">
<g clip-path="url(#clip0_2233_1693)">
<g clip-path="url(#clip1_2233_1693)">
<path d="M17.9219 20.2976L20.2849 17.9452C20.4275 18.0355 20.5647 18.134 20.696 18.2402C27.409 24.2145 34.119 30.1913 40.8259 36.1706C42.1033 37.3136 42.3355 38.7516 41.5337 40.1398C40.719 41.5612 39.0638 42.3392 37.6961 41.8543C37.154 41.6671 36.6656 41.3507 36.2731 40.9325C30.1843 34.1372 24.1121 27.3283 18.0564 20.5059C18.0068 20.4396 17.9619 20.37 17.9219 20.2976Z" fill="white"/>
<path d="M13.5368 21.2691L5.96289 13.6921L13.605 6.04871L21.1807 13.6221L13.5368 21.2691Z" fill="white"/>
<path d="M19.4536 41.9576H0.468262C0.890363 40.6911 1.24058 39.4541 1.73272 38.2705C1.86912 37.9442 2.42762 37.5994 2.79627 37.5957C7.57394 37.5515 12.3516 37.5515 17.1293 37.5957C17.4979 37.5957 18.0509 37.9423 18.1928 38.2686C18.6813 39.4596 19.0315 40.6966 19.4536 41.9576Z" fill="white"/>
<path d="M13.4923 24.6945C12.7974 25.3821 12.049 26.1601 11.262 26.8938C10.744 27.3769 10.1837 27.3584 9.66756 26.8459C6.56846 23.7733 3.47859 20.6866 0.397925 17.5857C-0.131084 17.0548 -0.129244 16.4796 0.383176 15.9357C1.10757 15.1688 1.85777 14.4314 2.54346 13.7419L13.4923 24.6945Z" fill="white"/>
<path d="M24.6313 13.6221L13.7949 2.77087C14.5672 1.93758 15.3267 1.02317 16.1911 0.221221C16.6335 -0.189893 17.1883 0.0239615 17.6086 0.444293C18.4884 1.3206 19.3658 2.19813 20.2407 3.0769C22.3531 5.18839 24.4648 7.30111 26.5759 9.41506C27.4404 10.2797 27.433 10.7332 26.5759 11.6126C25.9142 12.2763 25.2672 12.9621 24.6313 13.6221Z" fill="white"/>
</g>
</g>
<defs>
<clipPath id="clip0_2233_1693">
<rect width="42" height="42" fill="white"/>
</clipPath>
<clipPath id="clip1_2233_1693">
<rect width="42" height="42" fill="white"/>
</clipPath>
</defs>
</svg>
