<svg width="375" height="812" viewBox="0 0 375 812" fill="none" xmlns="http://www.w3.org/2000/svg">
    <defs>
        <linearGradient id="paint0_linear_761_40965" x1="377" y1="-1.99999" x2="-1.95051e-06" y2="817" gradientUnits="userSpaceOnUse">
            <stop stop-color="#FF679E"/>
            <stop offset="1" stop-color="#FF84B0"/>
        </linearGradient>
        <clipPath id="clip0_761_40965">
            <rect y="-2" width="377" height="819" rx="10" fill="white"/>
        </clipPath>
    </defs>
    <g clip-path="url(#clip0_761_40965)">
<rect y="-2" width="377" height="819" rx="10" fill="url(#paint0_linear_761_40965)"/>
<path d="M74.56 115.175H112.411L44.6576 183.386C43.2578 184.693 41.4191 185.42 39.5099 185.42C37.6007 185.42 35.7621 184.693 34.3623 183.386L-30.7417 117.843L-33.3911 115.175H1.43162C2.49119 115.179 3.53023 114.881 4.428 114.314C5.32577 113.748 6.04579 112.936 6.50398 111.974L10.1375 104.353L22.8554 130.723C23.3402 131.666 24.0732 132.457 24.9744 133.009C25.8756 133.561 26.9102 133.853 27.9652 133.853C29.0202 133.853 30.0548 133.561 30.956 133.009C31.8572 132.457 32.5902 131.666 33.075 130.723L56.3156 83.4707L69.185 111.593C69.6317 112.656 70.3798 113.563 71.3358 114.2C72.2918 114.838 73.4135 115.177 74.56 115.175Z" fill="#FF5391"/>
<path d="M132.697 74.0169C132.725 84.6687 129.325 95.0431 123.007 103.588H78.116L61.7646 67.996C61.3173 67.0199 60.602 66.1928 59.7034 65.6122C58.8048 65.0316 57.76 64.7217 56.6923 64.7188C55.6349 64.728 54.5995 65.0228 53.694 65.5724C52.7885 66.1221 52.0461 66.9065 51.5446 67.8436L28.1529 115.172L15.7377 88.8022C15.2042 87.919 14.4541 87.1889 13.5591 86.6822C12.6642 86.1756 11.6546 85.9096 10.6279 85.9096C9.60117 85.9096 8.59163 86.1756 7.69667 86.6822C6.80171 87.1889 6.05156 87.919 5.51811 88.8022L-1.5979 103.588H-43.3098C-49.6274 95.0431 -53.0272 84.6687 -52.9998 74.0169C-53.004 64.1256 -50.0937 54.4552 -44.6372 46.2296C-39.1807 38.0039 -31.423 31.5926 -22.3462 27.8068C-13.2693 24.021 -3.28107 23.031 6.35488 24.9619C15.9908 26.8927 24.8412 31.6576 31.7865 38.6538L36.2531 43.1504C37.2779 44.1203 38.6316 44.6603 40.0382 44.6603C41.4448 44.6603 42.7984 44.1203 43.8233 43.1504L48.2137 38.6538C55.1589 31.6576 64.0098 26.8927 73.6457 24.9619C83.2817 23.031 93.2699 24.021 102.347 27.8068C111.424 31.5926 119.181 38.0039 124.637 46.2296C130.094 54.4552 133.004 64.1256 133 74.0169H132.697Z" fill="#FF5391"/>
<path d="M349.221 615.424H424.952L289.392 751.899C286.591 754.514 282.913 755.967 279.093 755.967C275.273 755.967 271.594 754.514 268.793 751.899L138.534 620.761L133.233 615.424H202.906C205.026 615.432 207.105 614.834 208.901 613.7C210.697 612.567 212.138 610.943 213.055 609.019L220.325 593.77L245.771 646.531C246.741 648.418 248.207 650.001 250.01 651.105C251.813 652.21 253.883 652.794 255.994 652.794C258.105 652.794 260.175 652.21 261.978 651.105C263.781 650.001 265.248 648.418 266.218 646.531L312.717 551.989L338.466 608.257C339.36 610.384 340.857 612.198 342.77 613.473C344.682 614.748 346.927 615.426 349.221 615.424Z" fill="#FF5391"/>
<path d="M465.541 533.073C465.596 554.385 458.794 575.142 446.153 592.238H356.336L323.62 521.027C322.725 519.074 321.294 517.419 319.496 516.257C317.698 515.096 315.607 514.475 313.471 514.47C311.356 514.488 309.284 515.078 307.472 516.178C305.66 517.277 304.175 518.847 303.172 520.722L256.37 615.416L231.53 562.656C230.462 560.888 228.961 559.428 227.171 558.414C225.38 557.4 223.36 556.868 221.306 556.868C219.252 556.868 217.232 557.4 215.441 558.414C213.651 559.428 212.15 560.888 211.082 562.656L196.845 592.238H113.388C100.748 575.142 93.9457 554.385 94.0003 533.073C93.9921 513.283 99.8149 493.934 110.732 477.477C121.649 461.019 137.171 448.191 155.332 440.617C173.493 433.042 193.477 431.061 212.757 434.924C232.036 438.788 249.744 448.321 263.64 462.319L272.577 471.316C274.627 473.257 277.335 474.337 280.15 474.337C282.964 474.337 285.672 473.257 287.723 471.316L296.507 462.319C310.403 448.321 328.112 438.788 347.391 434.924C366.671 431.061 386.655 433.042 404.816 440.617C422.977 448.191 438.498 461.019 449.415 477.477C460.332 493.934 466.155 513.283 466.147 533.073H465.541Z" fill="#FF5391"/>
<path d="M382.221 589.424H457.952L322.392 725.899C319.591 728.514 315.913 729.967 312.093 729.967C308.273 729.967 304.594 728.514 301.793 725.899L171.534 594.761L166.233 589.424H235.906C238.026 589.432 240.105 588.834 241.901 587.7C243.697 586.567 245.138 584.943 246.055 583.019L253.325 567.77L278.771 620.531C279.741 622.418 281.207 624.001 283.01 625.105C284.813 626.21 286.883 626.794 288.994 626.794C291.105 626.794 293.175 626.21 294.978 625.105C296.781 624.001 298.248 622.418 299.218 620.531L345.717 525.989L371.466 582.257C372.36 584.384 373.857 586.198 375.77 587.473C377.682 588.748 379.927 589.426 382.221 589.424Z" fill="#FFCAD5"/>
<path d="M498.541 507.073C498.596 528.385 491.794 549.142 479.153 566.238H389.336L356.62 495.027C355.725 493.074 354.294 491.419 352.496 490.257C350.698 489.096 348.607 488.475 346.471 488.47C344.356 488.488 342.284 489.078 340.472 490.178C338.66 491.277 337.175 492.847 336.172 494.722L289.37 589.416L264.53 536.656C263.462 534.888 261.961 533.428 260.171 532.414C258.38 531.4 256.36 530.868 254.306 530.868C252.252 530.868 250.232 531.4 248.441 532.414C246.651 533.428 245.15 534.888 244.082 536.656L229.845 566.238H146.388C133.748 549.142 126.946 528.385 127 507.073C126.992 487.283 132.815 467.934 143.732 451.477C154.649 435.019 170.171 422.191 188.332 414.617C206.493 407.042 226.477 405.061 245.757 408.924C265.036 412.788 282.744 422.321 296.64 436.319L305.577 445.316C307.627 447.257 310.335 448.337 313.15 448.337C315.964 448.337 318.672 447.257 320.723 445.316L329.507 436.319C343.403 422.321 361.112 412.788 380.391 408.924C399.671 405.061 419.655 407.042 437.816 414.617C455.977 422.191 471.498 435.019 482.415 451.477C493.332 467.934 499.155 487.283 499.147 507.073H498.541Z" fill="#FFCAD5"/>
<path d="M41.851 269V234.7H57.188C61.0427 234.7 64.048 235.468 66.204 237.003C68.36 238.506 69.438 240.678 69.438 243.52C69.438 246.329 68.409 248.502 66.351 250.037C64.293 251.54 61.5817 252.291 58.217 252.291L59.099 250.527C62.921 250.527 65.8773 251.295 67.968 252.83C70.0587 254.365 71.104 256.587 71.104 259.494C71.104 262.467 70.0097 264.802 67.821 266.501C65.6323 268.167 62.3983 269 58.119 269H41.851ZM48.123 264.1H57.923C60.1443 264.1 61.8267 263.692 62.97 262.875C64.1133 262.026 64.685 260.735 64.685 259.004C64.685 257.273 64.1133 256.015 62.97 255.231C61.8267 254.414 60.1443 254.006 57.923 254.006H48.123V264.1ZM48.123 249.351H56.649C58.707 249.351 60.275 248.943 61.353 248.126C62.431 247.277 62.97 246.068 62.97 244.5C62.97 242.867 62.431 241.642 61.353 240.825C60.275 240.008 58.707 239.6 56.649 239.6H48.123V249.351ZM103.678 269V242.834H109.803V269H103.678ZM90.0066 251.458C93.3713 251.458 95.9193 252.209 97.6506 253.712C99.4146 255.215 100.297 257.338 100.297 260.082C100.297 262.924 99.3166 265.145 97.3566 266.746C95.4293 268.314 92.6853 269.082 89.1246 269.049L77.2666 269V242.834H83.3916V251.409L90.0066 251.458ZM88.5856 264.541C90.3823 264.574 91.7543 264.198 92.7016 263.414C93.6489 262.63 94.1226 261.487 94.1226 259.984C94.1226 258.481 93.6489 257.403 92.7016 256.75C91.7869 256.064 90.4149 255.705 88.5856 255.672L83.3916 255.623V264.492L88.5856 264.541ZM125.574 269.441C127.991 269.441 130.131 269.098 131.993 268.412C133.888 267.726 135.374 266.779 136.452 265.57C137.53 264.329 138.069 262.908 138.069 261.307C138.069 259.314 137.236 257.746 135.57 256.603C133.904 255.427 131.617 254.839 128.71 254.839L128.514 256.162C130.213 256.162 131.715 255.884 133.022 255.329C134.361 254.774 135.407 254.006 136.158 253.026C136.942 252.013 137.334 250.886 137.334 249.645C137.334 248.142 136.795 246.836 135.717 245.725C134.639 244.614 133.169 243.765 131.307 243.177C129.445 242.589 127.322 242.344 124.937 242.442C123.369 242.475 121.785 242.703 120.184 243.128C118.616 243.52 116.999 244.092 115.333 244.843L116.901 249.351C118.338 248.73 119.743 248.257 121.115 247.93C122.52 247.603 123.875 247.44 125.182 247.44C126.423 247.44 127.485 247.571 128.367 247.832C129.249 248.061 129.919 248.42 130.376 248.91C130.866 249.367 131.111 249.906 131.111 250.527C131.111 251.148 130.915 251.687 130.523 252.144C130.131 252.601 129.559 252.944 128.808 253.173C128.089 253.402 127.207 253.516 126.162 253.516H121.605V257.632H126.652C128.318 257.632 129.592 257.91 130.474 258.465C131.389 258.988 131.846 259.772 131.846 260.817C131.846 261.536 131.568 262.173 131.013 262.728C130.49 263.283 129.739 263.708 128.759 264.002C127.779 264.263 126.603 264.394 125.231 264.394C123.63 264.394 122.03 264.198 120.429 263.806C118.828 263.414 117.391 262.859 116.117 262.14L114.402 266.697C115.97 267.579 117.718 268.265 119.645 268.755C121.605 269.212 123.581 269.441 125.574 269.441ZM155.631 269.343C152.952 269.343 150.568 268.771 148.477 267.628C146.386 266.452 144.737 264.851 143.528 262.826C142.319 260.801 141.715 258.498 141.715 255.917C141.715 253.304 142.319 251.001 143.528 249.008C144.737 246.983 146.386 245.398 148.477 244.255C150.568 243.112 152.952 242.54 155.631 242.54C158.342 242.54 160.743 243.112 162.834 244.255C164.957 245.398 166.607 246.966 167.783 248.959C168.992 250.952 169.596 253.271 169.596 255.917C169.596 258.498 168.992 260.801 167.783 262.826C166.607 264.851 164.957 266.452 162.834 267.628C160.743 268.771 158.342 269.343 155.631 269.343ZM155.631 264.1C157.134 264.1 158.473 263.773 159.649 263.12C160.825 262.467 161.74 261.519 162.393 260.278C163.079 259.037 163.422 257.583 163.422 255.917C163.422 254.218 163.079 252.765 162.393 251.556C161.74 250.315 160.825 249.367 159.649 248.714C158.473 248.061 157.15 247.734 155.68 247.734C154.177 247.734 152.838 248.061 151.662 248.714C150.519 249.367 149.604 250.315 148.918 251.556C148.232 252.765 147.889 254.218 147.889 255.917C147.889 257.583 148.232 259.037 148.918 260.278C149.604 261.519 150.519 262.467 151.662 263.12C152.838 263.773 154.161 264.1 155.631 264.1ZM175.239 269V242.834H188.028C191.197 242.834 193.679 243.422 195.476 244.598C197.305 245.774 198.22 247.44 198.22 249.596C198.22 251.719 197.371 253.385 195.672 254.594C193.973 255.77 191.719 256.358 188.91 256.358L189.645 254.839C192.814 254.839 195.166 255.427 196.701 256.603C198.269 257.746 199.053 259.429 199.053 261.65C199.053 263.969 198.187 265.782 196.456 267.089C194.725 268.363 192.095 269 188.567 269H175.239ZM181.07 264.541H188.077C189.743 264.541 191.001 264.28 191.85 263.757C192.699 263.202 193.124 262.369 193.124 261.258C193.124 260.082 192.732 259.216 191.948 258.661C191.164 258.106 189.939 257.828 188.273 257.828H181.07V264.541ZM181.07 253.761H187.489C189.057 253.761 190.233 253.483 191.017 252.928C191.834 252.34 192.242 251.523 192.242 250.478C192.242 249.4 191.834 248.6 191.017 248.077C190.233 247.554 189.057 247.293 187.489 247.293H181.07V253.761ZM53.023 318.343C50.279 318.343 47.829 317.771 45.673 316.628C43.5497 315.452 41.8837 313.851 40.675 311.826C39.4663 309.801 38.862 307.498 38.862 304.917C38.862 302.304 39.4663 300.001 40.675 298.008C41.8837 295.983 43.5497 294.398 45.673 293.255C47.829 292.112 50.279 291.54 53.023 291.54C55.571 291.54 57.8087 292.063 59.736 293.108C61.696 294.121 63.1823 295.623 64.195 297.616L59.491 300.36C58.707 299.119 57.7433 298.204 56.6 297.616C55.4893 297.028 54.2807 296.734 52.974 296.734C51.4713 296.734 50.1157 297.061 48.907 297.714C47.6983 298.367 46.751 299.315 46.065 300.556C45.379 301.765 45.036 303.218 45.036 304.917C45.036 306.616 45.379 308.086 46.065 309.327C46.751 310.536 47.6983 311.467 48.907 312.12C50.1157 312.773 51.4713 313.1 52.974 313.1C54.2807 313.1 55.4893 312.806 56.6 312.218C57.7433 311.63 58.707 310.715 59.491 309.474L64.195 312.218C63.1823 314.178 61.696 315.697 59.736 316.775C57.8087 317.82 55.571 318.343 53.023 318.343ZM87.9467 318L78.4897 305.456L83.4877 302.369L95.1497 318H87.9467ZM69.1797 318V291.834H75.3047V318H69.1797ZM73.4917 307.514V302.418H82.3607V307.514H73.4917ZM84.0757 305.652L78.3427 304.966L87.9467 291.834H94.5127L84.0757 305.652ZM109.862 318.343C107.184 318.343 104.799 317.771 102.708 316.628C100.618 315.452 98.9681 313.851 97.7594 311.826C96.5507 309.801 95.9464 307.498 95.9464 304.917C95.9464 302.304 96.5507 300.001 97.7594 298.008C98.9681 295.983 100.618 294.398 102.708 293.255C104.799 292.112 107.184 291.54 109.862 291.54C112.574 291.54 114.975 292.112 117.065 293.255C119.189 294.398 120.838 295.966 122.014 297.959C123.223 299.952 123.827 302.271 123.827 304.917C123.827 307.498 123.223 309.801 122.014 311.826C120.838 313.851 119.189 315.452 117.065 316.628C114.975 317.771 112.574 318.343 109.862 318.343ZM109.862 313.1C111.365 313.1 112.704 312.773 113.88 312.12C115.056 311.467 115.971 310.519 116.624 309.278C117.31 308.037 117.653 306.583 117.653 304.917C117.653 303.218 117.31 301.765 116.624 300.556C115.971 299.315 115.056 298.367 113.88 297.714C112.704 297.061 111.381 296.734 109.911 296.734C108.409 296.734 107.069 297.061 105.893 297.714C104.75 298.367 103.835 299.315 103.149 300.556C102.463 301.765 102.12 303.218 102.12 304.917C102.12 306.583 102.463 308.037 103.149 309.278C103.835 310.519 104.75 311.467 105.893 312.12C107.069 312.773 108.392 313.1 109.862 313.1ZM143.974 318.343C141.851 318.343 139.907 317.853 138.143 316.873C136.412 315.893 135.023 314.423 133.978 312.463C132.965 310.47 132.459 307.955 132.459 304.917C132.459 301.846 132.949 299.331 133.929 297.371C134.942 295.411 136.314 293.957 138.045 293.01C139.776 292.03 141.753 291.54 143.974 291.54C146.555 291.54 148.825 292.095 150.785 293.206C152.778 294.317 154.346 295.868 155.489 297.861C156.665 299.854 157.253 302.206 157.253 304.917C157.253 307.628 156.665 309.997 155.489 312.022C154.346 314.015 152.778 315.566 150.785 316.677C148.825 317.788 146.555 318.343 143.974 318.343ZM129.47 327.506V291.834H135.301V298.008L135.105 304.966L135.595 311.924V327.506H129.47ZM143.288 313.1C144.758 313.1 146.065 312.773 147.208 312.12C148.384 311.467 149.315 310.519 150.001 309.278C150.687 308.037 151.03 306.583 151.03 304.917C151.03 303.218 150.687 301.765 150.001 300.556C149.315 299.315 148.384 298.367 147.208 297.714C146.065 297.061 144.758 296.734 143.288 296.734C141.818 296.734 140.495 297.061 139.319 297.714C138.143 298.367 137.212 299.315 136.526 300.556C135.84 301.765 135.497 303.218 135.497 304.917C135.497 306.583 135.84 308.037 136.526 309.278C137.212 310.519 138.143 311.467 139.319 312.12C140.495 312.773 141.818 313.1 143.288 313.1ZM174.603 318.343C171.924 318.343 169.54 317.771 167.449 316.628C165.358 315.452 163.709 313.851 162.5 311.826C161.291 309.801 160.687 307.498 160.687 304.917C160.687 302.304 161.291 300.001 162.5 298.008C163.709 295.983 165.358 294.398 167.449 293.255C169.54 292.112 171.924 291.54 174.603 291.54C177.314 291.54 179.715 292.112 181.806 293.255C183.929 294.398 185.579 295.966 186.755 297.959C187.964 299.952 188.568 302.271 188.568 304.917C188.568 307.498 187.964 309.801 186.755 311.826C185.579 313.851 183.929 315.452 181.806 316.628C179.715 317.771 177.314 318.343 174.603 318.343ZM174.603 313.1C176.106 313.1 177.445 312.773 178.621 312.12C179.797 311.467 180.712 310.519 181.365 309.278C182.051 308.037 182.394 306.583 182.394 304.917C182.394 303.218 182.051 301.765 181.365 300.556C180.712 299.315 179.797 298.367 178.621 297.714C177.445 297.061 176.122 296.734 174.652 296.734C173.149 296.734 171.81 297.061 170.634 297.714C169.491 298.367 168.576 299.315 167.89 300.556C167.204 301.765 166.861 303.218 166.861 304.917C166.861 306.583 167.204 308.037 167.89 309.278C168.576 310.519 169.491 311.467 170.634 312.12C171.81 312.773 173.133 313.1 174.603 313.1ZM194.211 318V291.834H200.336V309.082L214.791 291.834H220.377V318H214.252V300.752L199.846 318H194.211ZM206.902 288.747C204.288 288.747 202.279 288.143 200.875 286.934C199.47 285.693 198.751 283.896 198.719 281.544H202.786C202.818 282.72 203.178 283.651 203.864 284.337C204.582 285.023 205.579 285.366 206.853 285.366C208.094 285.366 209.074 285.023 209.793 284.337C210.544 283.651 210.936 282.72 210.969 281.544H215.134C215.101 283.896 214.366 285.693 212.929 286.934C211.524 288.143 209.515 288.747 206.902 288.747Z" fill="white"/>
<path d="M39.398 352V336.6H51.014V338.47H41.576V342.87H46.372C48.2053 342.87 49.5987 343.251 50.552 344.014C51.5053 344.777 51.982 345.884 51.982 347.336C51.982 348.832 51.4613 349.983 50.42 350.79C49.3933 351.597 47.9193 352 45.998 352H39.398ZM41.576 350.262H45.91C47.186 350.262 48.1467 350.02 48.792 349.536C49.452 349.052 49.782 348.333 49.782 347.38C49.782 345.532 48.4913 344.608 45.91 344.608H41.576V350.262ZM66.2578 352V340.34H68.3698V352H66.2578ZM59.9878 344.3C61.4691 344.315 62.5911 344.652 63.3538 345.312C64.1311 345.972 64.5198 346.903 64.5198 348.106C64.5198 349.367 64.0945 350.343 63.2438 351.032C62.4078 351.707 61.2051 352.037 59.6358 352.022L54.7298 352V340.34H56.8418V344.278L59.9878 344.3ZM59.4818 350.416C60.4205 350.431 61.1391 350.24 61.6378 349.844C62.1365 349.448 62.3858 348.861 62.3858 348.084C62.3858 347.321 62.1365 346.764 61.6378 346.412C61.1538 346.06 60.4351 345.877 59.4818 345.862L56.8418 345.818V350.394L59.4818 350.416ZM77.1499 352.132C75.9619 352.132 74.8986 351.875 73.9599 351.362C73.0359 350.849 72.3099 350.145 71.7819 349.25C71.2539 348.355 70.9899 347.329 70.9899 346.17C70.9899 345.011 71.2539 343.985 71.7819 343.09C72.3099 342.195 73.0359 341.499 73.9599 341C74.8986 340.487 75.9619 340.23 77.1499 340.23C78.2059 340.23 79.1446 340.443 79.9659 340.868C80.8019 341.279 81.4472 341.895 81.9019 342.716L80.2959 343.75C79.9146 343.178 79.4452 342.76 78.8879 342.496C78.3452 342.217 77.7586 342.078 77.1279 342.078C76.3652 342.078 75.6832 342.247 75.0819 342.584C74.4806 342.921 74.0039 343.398 73.6519 344.014C73.2999 344.615 73.1239 345.334 73.1239 346.17C73.1239 347.006 73.2999 347.732 73.6519 348.348C74.0039 348.964 74.4806 349.441 75.0819 349.778C75.6832 350.115 76.3652 350.284 77.1279 350.284C77.7586 350.284 78.3452 350.152 78.8879 349.888C79.4452 349.609 79.9146 349.184 80.2959 348.612L81.9019 349.624C81.4472 350.431 80.8019 351.054 79.9659 351.494C79.1446 351.919 78.2059 352.132 77.1499 352.132ZM86.3879 352V341.638L86.9159 342.188H82.1199V340.34H92.7679V342.188H87.9939L88.4999 341.638V352H86.3879ZM100.701 352.132C99.7335 352.132 98.8461 351.912 98.0395 351.472C97.2475 351.017 96.6095 350.35 96.1255 349.47C95.6561 348.59 95.4215 347.49 95.4215 346.17C95.4215 344.85 95.6488 343.75 96.1035 342.87C96.5728 341.99 97.2035 341.33 97.9955 340.89C98.8021 340.45 99.7041 340.23 100.701 340.23C101.845 340.23 102.857 340.479 103.737 340.978C104.617 341.477 105.314 342.173 105.827 343.068C106.341 343.948 106.597 344.982 106.597 346.17C106.597 347.358 106.341 348.399 105.827 349.294C105.314 350.189 104.617 350.885 103.737 351.384C102.857 351.883 101.845 352.132 100.701 352.132ZM94.5195 356.268V340.34H96.5435V343.486L96.4115 346.192L96.6315 348.898V356.268H94.5195ZM100.525 350.284C101.273 350.284 101.941 350.115 102.527 349.778C103.129 349.441 103.598 348.964 103.935 348.348C104.287 347.717 104.463 346.991 104.463 346.17C104.463 345.334 104.287 344.615 103.935 344.014C103.598 343.398 103.129 342.921 102.527 342.584C101.941 342.247 101.273 342.078 100.525 342.078C99.7921 342.078 99.1248 342.247 98.5235 342.584C97.9368 342.921 97.4675 343.398 97.1155 344.014C96.7781 344.615 96.6095 345.334 96.6095 346.17C96.6095 346.991 96.7781 347.717 97.1155 348.348C97.4675 348.964 97.9368 349.441 98.5235 349.778C99.1248 350.115 99.7921 350.284 100.525 350.284ZM120.786 352V340.34H122.898V352H120.786ZM114.516 344.3C115.997 344.315 117.119 344.652 117.882 345.312C118.659 345.972 119.048 346.903 119.048 348.106C119.048 349.367 118.623 350.343 117.772 351.032C116.936 351.707 115.733 352.037 114.164 352.022L109.258 352V340.34H111.37V344.278L114.516 344.3ZM114.01 350.416C114.949 350.431 115.667 350.24 116.166 349.844C116.665 349.448 116.914 348.861 116.914 348.084C116.914 347.321 116.665 346.764 116.166 346.412C115.682 346.06 114.963 345.877 114.01 345.862L111.37 345.818V350.394L114.01 350.416ZM126.596 352V340.34H128.708V348.832L135.858 340.34H137.772V352H135.66V343.508L128.532 352H126.596ZM132.052 338.822C130.981 338.822 130.138 338.565 129.522 338.052C128.921 337.524 128.613 336.769 128.598 335.786H130.028C130.043 336.343 130.226 336.783 130.578 337.106C130.945 337.429 131.429 337.59 132.03 337.59C132.631 337.59 133.115 337.429 133.482 337.106C133.849 336.783 134.039 336.343 134.054 335.786H135.528C135.513 336.769 135.198 337.524 134.582 338.052C133.966 338.565 133.123 338.822 132.052 338.822ZM146.964 352V340.34H152.376C153.74 340.34 154.81 340.604 155.588 341.132C156.38 341.645 156.776 342.379 156.776 343.332C156.776 344.285 156.402 345.026 155.654 345.554C154.92 346.067 153.945 346.324 152.728 346.324L153.058 345.752C154.451 345.752 155.485 346.009 156.16 346.522C156.834 347.035 157.172 347.791 157.172 348.788C157.172 349.8 156.79 350.592 156.028 351.164C155.28 351.721 154.128 352 152.574 352H146.964ZM149.032 350.372H152.42C153.3 350.372 153.96 350.24 154.4 349.976C154.84 349.697 155.06 349.257 155.06 348.656C155.06 348.04 154.854 347.593 154.444 347.314C154.048 347.021 153.417 346.874 152.552 346.874H149.032V350.372ZM149.032 345.356H152.2C153.006 345.356 153.615 345.209 154.026 344.916C154.451 344.608 154.664 344.183 154.664 343.64C154.664 343.083 154.451 342.665 154.026 342.386C153.615 342.107 153.006 341.968 152.2 341.968H149.032V345.356ZM171.597 352V340.34H173.709V352H171.597ZM165.327 344.3C166.809 344.315 167.931 344.652 168.693 345.312C169.471 345.972 169.859 346.903 169.859 348.106C169.859 349.367 169.434 350.343 168.583 351.032C167.747 351.707 166.545 352.037 164.975 352.022L160.069 352V340.34H162.181V344.278L165.327 344.3ZM164.821 350.416C165.76 350.431 166.479 350.24 166.977 349.844C167.476 349.448 167.725 348.861 167.725 348.084C167.725 347.321 167.476 346.764 166.977 346.412C166.493 346.06 165.775 345.877 164.821 345.862L162.181 345.818V350.394L164.821 350.416ZM180.624 352.154C181.651 352.154 182.56 352.007 183.352 351.714C184.159 351.406 184.797 350.988 185.266 350.46C185.735 349.917 185.97 349.294 185.97 348.59C185.97 347.71 185.596 347.013 184.848 346.5C184.1 345.987 183.073 345.73 181.768 345.73L181.68 346.236C182.443 346.236 183.117 346.111 183.704 345.862C184.291 345.613 184.76 345.275 185.112 344.85C185.464 344.41 185.64 343.911 185.64 343.354C185.64 342.694 185.405 342.122 184.936 341.638C184.481 341.154 183.858 340.787 183.066 340.538C182.274 340.274 181.372 340.157 180.36 340.186C179.685 340.201 179.003 340.303 178.314 340.494C177.639 340.67 176.95 340.927 176.246 341.264L176.818 342.914C177.449 342.606 178.065 342.379 178.666 342.232C179.282 342.085 179.883 342.005 180.47 341.99C181.071 341.99 181.592 342.056 182.032 342.188C182.487 342.32 182.839 342.511 183.088 342.76C183.337 343.009 183.462 343.31 183.462 343.662C183.462 343.985 183.352 344.271 183.132 344.52C182.927 344.755 182.633 344.931 182.252 345.048C181.871 345.165 181.423 345.224 180.91 345.224H178.93V346.742H181.042C181.907 346.742 182.582 346.889 183.066 347.182C183.55 347.475 183.792 347.893 183.792 348.436C183.792 348.817 183.66 349.155 183.396 349.448C183.132 349.727 182.751 349.947 182.252 350.108C181.768 350.269 181.189 350.35 180.514 350.35C179.781 350.35 179.055 350.255 178.336 350.064C177.617 349.859 176.979 349.58 176.422 349.228L175.784 350.834C176.444 351.259 177.192 351.589 178.028 351.824C178.879 352.044 179.744 352.154 180.624 352.154ZM193.767 352.132C192.594 352.132 191.552 351.875 190.643 351.362C189.734 350.849 189.015 350.145 188.487 349.25C187.959 348.341 187.695 347.314 187.695 346.17C187.695 345.011 187.959 343.985 188.487 343.09C189.015 342.195 189.734 341.499 190.643 341C191.552 340.487 192.594 340.23 193.767 340.23C194.926 340.23 195.96 340.487 196.869 341C197.793 341.499 198.512 342.195 199.025 343.09C199.553 343.97 199.817 344.997 199.817 346.17C199.817 347.329 199.553 348.355 199.025 349.25C198.512 350.145 197.793 350.849 196.869 351.362C195.96 351.875 194.926 352.132 193.767 352.132ZM193.767 350.284C194.515 350.284 195.182 350.115 195.769 349.778C196.37 349.441 196.84 348.964 197.177 348.348C197.514 347.717 197.683 346.991 197.683 346.17C197.683 345.334 197.514 344.615 197.177 344.014C196.84 343.398 196.37 342.921 195.769 342.584C195.182 342.247 194.515 342.078 193.767 342.078C193.019 342.078 192.352 342.247 191.765 342.584C191.178 342.921 190.709 343.398 190.357 344.014C190.005 344.615 189.829 345.334 189.829 346.17C189.829 346.991 190.005 347.717 190.357 348.348C190.709 348.964 191.178 349.441 191.765 349.778C192.352 350.115 193.019 350.284 193.767 350.284ZM202.459 352V340.34H207.871C209.235 340.34 210.305 340.604 211.083 341.132C211.875 341.645 212.271 342.379 212.271 343.332C212.271 344.285 211.897 345.026 211.149 345.554C210.415 346.067 209.44 346.324 208.223 346.324L208.553 345.752C209.946 345.752 210.98 346.009 211.655 346.522C212.329 347.035 212.667 347.791 212.667 348.788C212.667 349.8 212.285 350.592 211.523 351.164C210.775 351.721 209.623 352 208.069 352H202.459ZM204.527 350.372H207.915C208.795 350.372 209.455 350.24 209.895 349.976C210.335 349.697 210.555 349.257 210.555 348.656C210.555 348.04 210.349 347.593 209.939 347.314C209.543 347.021 208.912 346.874 208.047 346.874H204.527V350.372ZM204.527 345.356H207.695C208.501 345.356 209.11 345.209 209.521 344.916C209.946 344.608 210.159 344.183 210.159 343.64C210.159 343.083 209.946 342.665 209.521 342.386C209.11 342.107 208.501 341.968 207.695 341.968H204.527V345.356ZM39.046 381V369.34H49.848V381H47.736V370.66L48.242 371.188H40.652L41.158 370.66V381H39.046ZM58.5207 381.132C57.3473 381.132 56.306 380.875 55.3967 380.362C54.4873 379.849 53.7687 379.145 53.2407 378.25C52.7127 377.341 52.4487 376.314 52.4487 375.17C52.4487 374.011 52.7127 372.985 53.2407 372.09C53.7687 371.195 54.4873 370.499 55.3967 370C56.306 369.487 57.3473 369.23 58.5207 369.23C59.6793 369.23 60.7133 369.487 61.6227 370C62.5467 370.499 63.2653 371.195 63.7787 372.09C64.3067 372.97 64.5707 373.997 64.5707 375.17C64.5707 376.329 64.3067 377.355 63.7787 378.25C63.2653 379.145 62.5467 379.849 61.6227 380.362C60.7133 380.875 59.6793 381.132 58.5207 381.132ZM58.5207 379.284C59.2687 379.284 59.936 379.115 60.5227 378.778C61.124 378.441 61.5933 377.964 61.9307 377.348C62.268 376.717 62.4367 375.991 62.4367 375.17C62.4367 374.334 62.268 373.615 61.9307 373.014C61.5933 372.398 61.124 371.921 60.5227 371.584C59.936 371.247 59.2687 371.078 58.5207 371.078C57.7727 371.078 57.1053 371.247 56.5187 371.584C55.932 371.921 55.4627 372.398 55.1107 373.014C54.7587 373.615 54.5827 374.334 54.5827 375.17C54.5827 375.991 54.7587 376.717 55.1107 377.348C55.4627 377.964 55.932 378.441 56.5187 378.778C57.1053 379.115 57.7727 379.284 58.5207 379.284ZM67.2124 381V369.34H69.3904L74.4064 377.964H73.5264L78.6744 369.34H80.6544V381H78.7404V371.716L79.0924 371.914L74.3844 379.68H73.4604L68.7304 371.76L69.1484 371.672V381H67.2124ZM89.3512 381.132C88.1778 381.132 87.1365 380.875 86.2272 380.362C85.3178 379.849 84.5992 379.145 84.0712 378.25C83.5432 377.341 83.2792 376.314 83.2792 375.17C83.2792 374.011 83.5432 372.985 84.0712 372.09C84.5992 371.195 85.3178 370.499 86.2272 370C87.1365 369.487 88.1778 369.23 89.3512 369.23C90.5098 369.23 91.5438 369.487 92.4532 370C93.3772 370.499 94.0958 371.195 94.6092 372.09C95.1372 372.97 95.4012 373.997 95.4012 375.17C95.4012 376.329 95.1372 377.355 94.6092 378.25C94.0958 379.145 93.3772 379.849 92.4532 380.362C91.5438 380.875 90.5098 381.132 89.3512 381.132ZM89.3512 379.284C90.0992 379.284 90.7665 379.115 91.3532 378.778C91.9545 378.441 92.4238 377.964 92.7612 377.348C93.0985 376.717 93.2672 375.991 93.2672 375.17C93.2672 374.334 93.0985 373.615 92.7612 373.014C92.4238 372.398 91.9545 371.921 91.3532 371.584C90.7665 371.247 90.0992 371.078 89.3512 371.078C88.6032 371.078 87.9358 371.247 87.3492 371.584C86.7625 371.921 86.2932 372.398 85.9412 373.014C85.5892 373.615 85.4132 374.334 85.4132 375.17C85.4132 375.991 85.5892 376.717 85.9412 377.348C86.2932 377.964 86.7625 378.441 87.3492 378.778C87.9358 379.115 88.6032 379.284 89.3512 379.284ZM105.787 379.152L105.303 379.702V369.34H107.415V379.702L106.887 379.152H113.047L112.541 379.702V369.34H114.653V381H98.0429V369.34H100.155V379.702L99.6489 379.152H105.787ZM114.389 383.486V380.45L114.895 381H112.431V379.152H116.369V383.486H114.389ZM118.346 381V369.34H120.458V377.832L127.608 369.34H129.522V381H127.41V372.508L120.282 381H118.346Z" fill="white"/>
</g>

</svg>
