<svg width="195" height="194" viewBox="0 0 195 194" fill="none" xmlns="http://www.w3.org/2000/svg">
    <defs>
        <filter id="filter0_d_1594_8698" x="0.5" y="0" width="194" height="194" filterUnits="userSpaceOnUse" color-interpolation-filters="sRGB">
            <feFlood flood-opacity="0" result="BackgroundImageFix"/>
            <feColorMatrix in="SourceAlpha" type="matrix" values="0 0 0 0 0 0 0 0 0 0 0 0 0 0 0 0 0 0 127 0" result="hardAlpha"/>
            <feOffset/>
            <feGaussianBlur stdDeviation="8"/>
            <feComposite in2="hardAlpha" operator="out"/>
            <feColorMatrix type="matrix" values="0 0 0 0 0.5875 0 0 0 0 0 0 0 0 0 0.099017 0 0 0 0.36 0"/>
            <feBlend mode="normal" in2="BackgroundImageFix" result="effect1_dropShadow_1594_8698"/>
            <feBlend mode="normal" in="SourceGraphic" in2="effect1_dropShadow_1594_8698" result="shape"/>
        </filter>
        <linearGradient id="paint0_linear_1594_8698" x1="20.6013" y1="51.8861" x2="178.5" y2="171.848" gradientUnits="userSpaceOnUse">
            <stop stop-color="#FF5963"/>
            <stop offset="1" stop-color="#E00E66"/>
        </linearGradient>
        <clipPath id="clip0_1594_8698">
            <rect width="111" height="68" fill="white" transform="translate(42.5 67)"/>
        </clipPath>
    </defs>
<g filter="url(#filter0_d_1594_8698)">
<circle cx="97.5" cy="97" r="81" fill="url(#paint0_linear_1594_8698)"/>
<g clip-path="url(#clip0_1594_8698)">
<path d="M42.669 106.676C42.8723 106.716 43.0777 106.744 43.2843 106.761H80.3084V112.734L69.7283 112.831H69.3182C67.9228 111.781 66.3605 110.976 64.6977 110.452C62.7823 109.976 60.7858 109.937 58.8533 110.336C56.9209 110.735 55.1011 111.562 53.5265 112.758H42.669C42.4896 110.735 42.4896 108.699 42.669 106.676Z" fill="#F78888"/>
<path d="M124.897 74.028L118.334 74.0887V67.3506C120.888 69.1778 123.109 71.4371 124.897 74.028Z" fill="#D03135"/>
<path d="M122.833 122.24C123.533 116.17 126.754 111.994 131.893 110.549C134.466 109.8 137.211 109.905 139.72 110.847C142.229 111.789 144.371 113.519 145.827 115.781C146.777 117.273 147.39 118.955 147.625 120.711L147.878 122.24C147.275 129.403 143.427 133.774 136.852 134.818C135.201 135.031 133.524 134.907 131.921 134.455C130.318 134.003 128.822 133.232 127.521 132.186C126.221 131.141 125.142 129.844 124.349 128.371C123.556 126.898 123.065 125.28 122.906 123.612C122.918 123.163 122.882 122.714 122.833 122.24ZM135.38 116.996C134.644 116.936 133.903 117.035 133.208 117.287C132.513 117.539 131.88 117.937 131.351 118.456C130.822 118.975 130.409 119.601 130.141 120.294C129.872 120.986 129.754 121.729 129.794 122.471C129.778 123.211 129.909 123.948 130.178 124.637C130.448 125.326 130.851 125.955 131.364 126.486C131.877 127.017 132.49 127.44 133.167 127.73C133.844 128.021 134.572 128.172 135.308 128.177C136.821 128.14 138.261 127.515 139.327 126.433C140.393 125.352 141.001 123.897 141.026 122.374C140.966 119.739 138.565 116.643 135.38 116.996Z" fill="#313131"/>
<path d="M48.7974 122.241C49.0777 118.578 50.7759 115.173 53.5264 112.759C55.1088 111.569 56.935 110.751 58.8718 110.362C60.8086 109.974 62.8072 110.025 64.7217 110.513C66.3286 111.012 67.8442 111.77 69.2095 112.759L69.5835 113.05C72.1545 115.424 73.6931 118.721 73.8661 122.228C73.8969 124.044 73.5289 125.844 72.7886 127.5C72.0483 129.155 70.9539 130.626 69.5835 131.807C67.9384 133.334 65.8998 134.365 63.7004 134.781C61.501 135.198 59.2296 134.983 57.1456 134.163C54.9738 133.447 53.0536 132.115 51.6156 130.327C50.1775 128.54 49.2827 126.373 49.0386 124.086C48.9663 123.467 48.8939 122.86 48.7974 122.241ZM61.3679 128.177C62.8465 128.14 64.2573 127.546 65.3209 126.511C66.3844 125.477 67.0231 124.078 67.1104 122.593C67.0892 121.094 66.494 119.661 65.4488 118.594C64.4037 117.526 62.9893 116.906 61.5006 116.862C59.9843 116.855 58.5255 117.446 57.4365 118.508C56.3475 119.57 55.7148 121.019 55.6738 122.544C55.754 124.028 56.3825 125.429 57.4359 126.471C58.4894 127.514 59.8917 128.122 61.3679 128.177Z" fill="#313131"/>
<path fill-rule="evenodd" clip-rule="evenodd" d="M42.6689 112.783V113.28C42.6689 113.681 42.6689 114.082 42.6689 114.494C42.6689 115.453 42.6689 116.413 42.6689 117.372C42.5725 119.018 42.6453 120.67 42.8861 122.301H48.8336C49.0886 118.619 50.7746 115.186 53.5264 112.746L42.6689 112.783Z" fill="#FDFDFD"/>
<path fill-rule="evenodd" clip-rule="evenodd" d="M153.5 120.855C153.5 121.911 153.247 122.336 152.125 122.264C151.003 122.191 150.17 122.264 149.205 122.264H147.927C147.927 122.106 147.927 121.948 147.842 121.778C147.758 121.608 147.721 121.086 147.673 120.734C147.419 118.978 146.794 117.297 145.839 115.805C144.875 114.305 143.603 113.029 142.11 112.064C140.616 111.099 138.934 110.466 137.178 110.208C135.415 109.954 133.619 110.073 131.906 110.56C126.766 112.005 123.545 116.157 122.846 122.251H118.298H116.958C116.066 122.251 115.173 122.251 114.28 122.251H82.4074C81.9731 122.251 81.5147 122.251 81.0804 122.251H80.5496H73.9144C73.7351 118.747 72.1924 115.454 69.6197 113.085C69.6639 113.008 69.6848 112.919 69.68 112.83L80.2601 112.733L80.5737 113.012H81.5871C81.9249 113.012 82.2627 113.012 82.6005 113.012H118.213C118.213 110.985 118.213 108.957 118.213 106.942L92.2516 106.808H84.0119H80.2842V106.699H43.7667C43.5561 106.684 43.3466 106.655 43.1394 106.614V96.3918C43.1394 87.1406 43.1394 77.8934 43.1394 68.6503C43.1394 67.2906 43.4772 66.9385 44.8525 66.9385C53.8401 66.9385 62.8277 66.9385 71.8033 67.0113H80.7909H117.393H117.562C117.863 67.0113 118.177 67.0113 118.37 67.327V74.0286L124.933 73.9679H126.67C127.985 73.9679 129.3 74.0408 130.615 73.9679C132.171 73.8708 133.414 74.15 134.113 75.6676L144.114 91.5234C144.443 91.9859 144.913 92.3271 145.453 92.4946L147.661 93.4659C149.193 94.1457 150.725 94.8256 152.282 95.4569C152.663 95.5569 152.996 95.793 153.218 96.1212C153.44 96.4494 153.536 96.8476 153.488 97.2416C153.448 105.133 153.452 113.004 153.5 120.855Z" fill="#FDFDFD"/>
<path d="M80.3565 74.9156C81.4905 74.9156 82.6366 74.9885 83.7706 74.9156C84.9046 74.8428 85.2062 75.3041 85.158 76.3604C85.158 77.9022 85.158 79.4563 85.158 81.0103C85.158 81.8358 85.4596 82.1029 86.2558 82.0787C87.9206 82.0787 89.5854 82.0787 91.2502 82.0787C92.0344 82.0787 92.3722 82.3458 92.3601 83.1592C92.3601 85.5873 92.3601 87.9183 92.3601 90.2979C92.3601 91.172 91.9741 91.3177 91.2261 91.2934C89.5613 91.2934 87.8965 91.2934 86.2317 91.2934C85.3993 91.2934 85.1338 91.5605 85.158 92.3618C85.158 94.0251 85.158 95.6762 85.158 97.3395C85.158 98.2136 84.8805 98.5536 83.9516 98.4807C82.7452 98.42 81.4423 98.4807 80.1997 98.4807V98.4079V75.1706C80.2623 75.0925 80.3149 75.0068 80.3565 74.9156Z" fill="#D1363A"/>
<path d="M80.2601 75.0972V98.3344C75.8809 98.553 75.8809 98.553 75.8809 94.3159C75.8809 91.2443 75.8809 91.2686 72.8287 91.2321C71.4896 91.2321 69.7886 91.8027 68.9441 90.9529C68.0996 90.1031 68.7511 88.5248 68.7149 87.2136C68.6787 85.9024 68.7873 84.7247 68.7149 83.4864C68.6425 82.248 69.0768 82.0781 70.1264 82.1266C71.574 82.2116 73.0458 82.1266 74.4815 82.1266C75.6878 82.2237 75.9894 81.7381 75.9171 80.6212C75.8326 79.1279 75.9171 77.6224 75.9171 76.1291C75.9171 75.3035 76.086 74.915 77.0149 74.915C77.9438 74.915 79.1743 75.0729 80.2601 75.0972Z" fill="#EB5353"/>
<path d="M80.5737 112.965L80.26 112.698V106.81C84.2532 106.81 88.2463 106.737 92.2395 106.737C100.917 106.737 109.591 106.737 118.261 106.737C118.261 108.765 118.261 110.792 118.261 112.808H82.5883C81.9248 112.88 81.2734 112.941 80.5737 112.965Z" fill="#E17B7B"/>
<path d="M138.553 92.2402H122.87C122.182 92.2402 121.808 92.0702 121.808 91.2932C121.808 87.4689 121.808 83.6567 121.808 79.8324C121.808 79.0554 122.182 78.8733 122.87 78.8854H129.722C129.952 78.8676 130.182 78.9165 130.385 79.0262C130.588 79.136 130.756 79.302 130.868 79.5046C133.341 83.596 135.851 87.736 138.553 92.2402Z" fill="#69B6F2"/>
<path d="M69.6799 112.795C69.6828 112.884 69.662 112.972 69.6196 113.05L69.2456 112.746L69.6799 112.795Z" fill="#E0DFDF"/>
<path d="M135.38 116.995C138.565 116.655 140.954 119.738 141.026 122.385C140.993 123.906 140.382 125.357 139.318 126.439C138.254 127.521 136.819 128.151 135.308 128.2C134.571 128.194 133.843 128.041 133.166 127.749C132.489 127.457 131.876 127.033 131.363 126.501C130.85 125.969 130.448 125.34 130.178 124.65C129.909 123.96 129.779 123.223 129.795 122.482C129.756 121.74 129.876 120.998 130.145 120.306C130.414 119.614 130.827 118.987 131.355 118.468C131.883 117.949 132.516 117.549 133.21 117.295C133.904 117.041 134.644 116.938 135.38 116.995Z" fill="#585858"/>
<path d="M61.368 128.176C59.8821 128.126 58.4699 127.512 57.4142 126.459C56.3584 125.405 55.7368 123.989 55.6738 122.494C55.7209 120.971 56.3555 119.526 57.4432 118.465C58.5309 117.405 59.9862 116.812 61.5007 116.813C62.9936 116.868 64.4082 117.499 65.4522 118.575C66.4962 119.65 67.0898 121.088 67.1104 122.591C67.0177 124.075 66.3774 125.471 65.315 126.504C64.2526 127.537 62.8448 128.134 61.368 128.176Z" fill="#959595"/>
</g>
</g>
</svg>
