<svg width="15" height="15" viewBox="0 0 15 15" fill="none" xmlns="http://www.w3.org/2000/svg">
<g clip-path="url(#clip0_1019_21276)">
<path d="M2.65565 7.55145L11.9453 7.55144L11.9453 8.2674C11.946 8.27691 11.9446 8.28645 11.9412 8.29538C11.9379 8.30431 11.9327 8.31243 11.9259 8.31917C11.9192 8.32591 11.9111 8.33113 11.9022 8.33448C11.8932 8.33782 11.8837 8.33921 11.8742 8.33855L5.36829 8.38302L7.59176 11.0023C7.60059 11.0121 7.6063 11.0243 7.60817 11.0374C7.61004 11.0505 7.60798 11.0638 7.60226 11.0757C7.59655 11.0876 7.58743 11.0976 7.57606 11.1043C7.56469 11.111 7.55157 11.1142 7.53839 11.1134L5.69736 11.1134C5.68769 11.1131 5.67823 11.1105 5.66974 11.1059C5.66125 11.1012 5.65396 11.0947 5.64843 11.0868L2.66899 7.58256C2.66154 7.57375 2.65689 7.56292 2.65565 7.55145Z" fill="#A9612D"/>
<path d="M7.50278 3.91814C7.516 3.91854 7.52884 3.92262 7.53987 3.92992C7.5509 3.93722 7.55969 3.94743 7.56523 3.95944C7.57077 3.97145 7.57285 3.98477 7.57124 3.9979C7.56964 4.01102 7.56441 4.02345 7.55614 4.03377L5.3638 6.67969L11.8697 6.63967C11.8885 6.63967 11.9066 6.64717 11.92 6.66051C11.9333 6.67385 11.9408 6.69195 11.9408 6.71082L11.9408 7.5513L2.65561 7.5513C2.65268 7.54425 2.65116 7.53669 2.65116 7.52906C2.65116 7.52142 2.65268 7.51387 2.65561 7.50683L5.5906 3.94927C5.59623 3.94039 5.60416 3.93321 5.61356 3.92851C5.62296 3.92381 5.63348 3.92177 5.64396 3.92259L7.50278 3.91814Z" fill="#A9612D"/>
</g>
<defs>
<clipPath id="clip0_1019_21276">
<rect width="6.86121" height="8.84635" fill="white" transform="translate(2.65565 11.1269) scale(1.05062) rotate(-90)"/>
</clipPath>
</defs>
</svg>
