<svg width="16" height="16" viewBox="0 0 16 16" fill="none" xmlns="http://www.w3.org/2000/svg">
<g clip-path="url(#clip0_0_673)">
<path d="M2.38389 6.44099L14.2294 10.0367L13.9523 10.9496C13.9495 10.962 13.944 10.9736 13.9363 10.9837C13.9286 10.9938 13.9188 11.0021 13.9076 11.0081C13.8963 11.0141 13.884 11.0176 13.8713 11.0184C13.8586 11.0193 13.8459 11.0173 13.834 11.0128L5.52098 8.55133L7.34239 12.7518C7.34984 12.7678 7.35239 12.7856 7.34972 12.803C7.34704 12.8204 7.33925 12.8366 7.32736 12.8496C7.31546 12.8625 7.29998 12.8717 7.28288 12.8758C7.26578 12.88 7.24783 12.879 7.2313 12.8729L4.88375 12.1603C4.87155 12.1562 4.86049 12.1492 4.85146 12.14C4.84242 12.1308 4.83566 12.1196 4.83169 12.1074L2.38885 6.48584C2.38276 6.47172 2.38102 6.45611 2.38389 6.44099Z" fill="#65A5EF"/>
<path d="M9.97089 3.6844C9.98759 3.69002 10.0024 3.7002 10.0136 3.71377C10.0249 3.72735 10.0321 3.74377 10.0345 3.76123C10.037 3.77869 10.0344 3.79648 10.0273 3.8126C10.0202 3.82872 10.0087 3.84253 9.99418 3.85249L6.17451 6.37781L14.4859 8.84497C14.5099 8.85228 14.5301 8.86885 14.5419 8.89102C14.5538 8.9132 14.5564 8.93918 14.5491 8.96324L14.2237 10.035L2.38385 6.44099C2.38283 6.43087 2.38383 6.42064 2.38678 6.41091C2.38974 6.40118 2.39459 6.39213 2.40106 6.38429L7.52056 2.98396C7.53117 2.97482 7.54406 2.96873 7.55787 2.96637C7.57168 2.96401 7.58588 2.96548 7.59893 2.97059L9.97089 3.6844Z" fill="#4D93E6"/>
</g>
<defs>
<clipPath id="clip0_0_673">
<rect width="9.60593" height="12.3852" fill="white" transform="translate(1 11) rotate(-73.1144)"/>
</clipPath>
</defs>
</svg>
