<svg width="8" height="7" viewBox="0 0 8 7" fill="none" xmlns="http://www.w3.org/2000/svg">
<path d="M0.151024 2.01225C0.0318735 2.38041 -0.0174737 2.76722 0.00547234 3.15315C0.00547234 3.17015 0.00547217 3.18715 0.00959156 3.20414C0.0480392 3.63861 0.344636 3.83238 0.709888 4.04588L4.40429 6.20392C4.8485 6.46364 5.33184 6.73085 5.83715 6.74785C5.91927 6.75143 6.00154 6.74756 6.08294 6.73629C6.66171 6.6581 7.12514 6.21888 7.45607 5.74022C7.71418 5.38322 7.89082 4.9749 7.97374 4.54357C8.0424 4.11182 7.9806 3.64881 7.73962 3.28233C7.67778 3.18921 7.60672 3.10243 7.52747 3.02328C7.10798 2.60038 6.5196 2.33862 6.00879 2.04286C4.95606 1.43501 3.90333 0.828077 2.8506 0.222048C2.69742 0.120591 2.52654 0.0481971 2.34666 0.00855433C2.17354 -0.0144119 1.99737 0.00906905 1.83654 0.0765456C1.73747 0.115345 1.64193 0.162434 1.55093 0.217292C0.878637 0.626272 0.380695 1.26473 0.151024 2.01225Z" fill="#03476D"/>
</svg>
