<svg width="32" height="20" viewBox="0 0 32 20" fill="none" xmlns="http://www.w3.org/2000/svg">
<path d="M21.9829 0H1.94024C0.868677 0 0 0.868677 0 1.94024V18.0595C0 19.1311 0.868677 19.9997 1.94024 19.9997H21.9829C23.0545 19.9997 23.9232 19.1311 23.9232 18.0595V1.94024C23.9232 0.868677 23.0545 0 21.9829 0Z" fill="white"/>
<path d="M30.5212 17.8551L25.4461 14.732V5.18301L30.5212 2.05988C30.6515 1.97999 30.8007 1.93631 30.9535 1.93336C31.1063 1.9304 31.2572 1.96829 31.3905 2.04308C31.5238 2.11788 31.6347 2.2269 31.7117 2.35887C31.7888 2.49084 31.8293 2.64098 31.829 2.79382V17.1095C31.8314 17.2633 31.7925 17.4149 31.7162 17.5486C31.64 17.6822 31.5293 17.7929 31.3956 17.8691C31.262 17.9453 31.1103 17.9842 30.9565 17.9817C30.8027 17.9793 30.6523 17.9356 30.5212 17.8551Z" fill="white"/>
</svg>
