<svg width="28" height="28" viewBox="0 0 28 28" fill="none" xmlns="http://www.w3.org/2000/svg">
<path d="M23.3036 5.67974C22.766 5.14721 22.1278 4.72477 21.4253 4.43656C20.7228 4.14834 19.9699 4 19.2095 4C18.4491 4 17.6961 4.14834 16.9936 4.43656C16.2912 4.72477 15.6529 5.14721 15.1153 5.67974L13.9997 6.7844L12.8841 5.67974C11.7983 4.60458 10.3256 4.00056 8.78997 4.00056C7.25437 4.00056 5.78167 4.60458 4.69584 5.67974C3.61001 6.7549 3 8.21313 3 9.73364C3 11.2541 3.61001 12.7124 4.69584 13.7875L5.81147 14.8922L12.5925 21.6066C13.3719 22.3784 14.6275 22.3784 15.4069 21.6066L22.188 14.8922L23.3036 13.7875C23.8414 13.2553 24.268 12.6233 24.5591 11.9277C24.8502 11.2321 25 10.4866 25 9.73364C25 8.98071 24.8502 8.23516 24.5591 7.53958C24.268 6.84399 23.8414 6.21201 23.3036 5.67974Z" fill="white"/>
</svg>
