<svg width="36" height="15" viewBox="0 0 36 15" fill="none" xmlns="http://www.w3.org/2000/svg">
<g clip-path="url(#clip0_0_528)">
<path d="M36.0045 11.2043C35.9181 11.5024 35.8545 11.8098 35.7431 12.0973C35.1941 13.5254 34.0974 14.3104 32.721 14.6789C30.1286 15.3759 27.777 14.7833 25.6631 13.1241C25.0243 12.623 25.0005 11.9307 25.5631 11.1421C25.9484 10.6024 26.5644 10.5437 27.1747 11.0084C28.3476 11.9002 29.6398 12.3918 31.1128 12.2815C31.6902 12.2393 32.2584 12.1349 32.7369 11.7664C33.4257 11.2384 33.4814 10.221 32.8017 9.67653C32.3959 9.37164 31.949 9.1297 31.4754 8.95839C30.3922 8.53595 29.2727 8.20621 28.201 7.75796C27.3167 7.38716 26.5791 6.78753 26.1552 5.85817C25.163 3.69084 26.1552 1.31464 28.4283 0.443955C30.0058 -0.160363 31.6106 -0.109909 33.2018 0.352424C33.7847 0.532435 34.352 0.762851 34.8975 1.04123C35.4965 1.33341 35.6749 1.91074 35.4226 2.53618C35.3783 2.64766 35.3271 2.75796 35.2771 2.86709C34.9589 3.55472 34.4179 3.746 33.7359 3.46555C33.1321 3.20697 32.513 2.98827 31.8822 2.81077C31.1382 2.61604 30.3576 2.62778 29.6194 2.8448C29.1216 2.98913 28.6374 3.19683 28.5499 3.80701C28.4567 4.46179 28.7556 4.96754 29.308 5.23156C30.0319 5.56808 30.772 5.86613 31.5254 6.12454C32.4562 6.45428 33.3973 6.74529 34.2406 7.29798C35.1737 7.90934 35.7635 8.74834 35.9363 9.88657C35.9517 9.9428 35.973 9.99711 35.9999 10.0485L36.0045 11.2043Z" fill="white"/>
<path d="M18.2836 0.0107422C21.2386 0.172676 23.5833 1.46228 24.9676 4.32311C26.5587 7.61459 25.3483 11.8612 22.2967 13.7786C19.5485 15.5048 16.1366 15.4132 13.568 13.4266C11.2779 11.6594 10.3277 9.22454 10.7733 6.31442C11.3029 2.8305 14.0795 0.306442 17.488 0.063541C17.7289 0.0459395 17.9744 0.0306906 18.2836 0.0107422ZM18.1528 2.57469C17.7266 2.64392 17.2913 2.68147 16.8742 2.78826C14.2215 3.4712 12.6758 6.26866 13.4726 8.91945C14.2034 11.3531 16.8254 12.8622 19.2689 12.2543C21.4193 11.7193 22.9513 9.88988 23.0411 7.75305C23.1616 4.92156 20.959 2.60403 18.1528 2.57469Z" fill="white"/>
<path d="M5.45987 14.9703C3.54366 14.8964 1.92636 14.3015 0.500001 13.1632C-0.26262 12.5554 -0.129644 11.247 0.742085 10.8082C1.1842 10.5864 1.58199 10.7026 1.95478 10.9959C2.67793 11.5797 3.52072 11.985 4.4188 12.1811C5.36668 12.3782 6.31115 12.3817 7.21015 11.9617C8.27509 11.4641 8.39216 10.2168 7.42837 9.52913C7.06399 9.28805 6.67188 9.0949 6.26114 8.95414C5.17347 8.54344 4.05852 8.20432 2.98676 7.7549C2.10366 7.38409 1.36491 6.78212 0.94098 5.85276C-0.0421302 3.67017 0.951208 1.31158 3.22543 0.443235C4.80295 -0.158737 6.40775 -0.107106 7.99891 0.355227C8.58145 0.535447 9.14831 0.765857 9.6935 1.04403C10.2902 1.33739 10.4663 1.91119 10.214 2.54133C10.1697 2.6528 10.1197 2.76311 10.0697 2.87224C9.75373 3.55752 9.19342 3.78399 8.53081 3.45895C7.64317 3.02009 6.72371 2.68801 5.73378 2.71148C5.17406 2.71408 4.61812 2.80632 4.08579 2.98489C3.18793 3.30993 3.03563 4.38714 3.79143 4.99967C4.17802 5.2913 4.6043 5.52224 5.0564 5.68496C6.15999 6.11913 7.30221 6.45473 8.38761 6.93115C9.61053 7.46858 10.4982 8.37212 10.7209 9.80253C11.0619 11.9757 10.0992 13.6749 8.09893 14.4892C7.25501 14.8144 6.36061 14.9774 5.45987 14.9703Z" fill="white"/>
</g>
<defs>
<clipPath id="clip0_0_528">
<rect width="36" height="15" fill="white"/>
</clipPath>
</defs>
</svg>
