<svg width="28" height="39" viewBox="0 0 28 39" fill="none" xmlns="http://www.w3.org/2000/svg">
<path d="M26.6253 17.9421C25.3093 15.7564 23.8204 13.6817 22.1733 11.7384C19.7044 8.56608 18.3654 4.64603 18.3724 0.610719C18.3768 0.503085 18.3518 0.396318 18.3 0.302105C18.2483 0.207893 18.1719 0.129902 18.0792 0.0766528C17.9865 0.0234035 17.8811 -0.00300814 17.7745 0.000272306C17.6679 0.00355275 17.5643 0.0364085 17.475 0.0952596C14.6583 2.14621 12.4937 4.98131 11.2456 8.25435C9.93088 11.7468 9.70977 15.5629 10.6122 19.1865C10.6272 19.2288 10.6286 19.2748 10.6161 19.318C10.6037 19.3611 10.5781 19.3992 10.543 19.4268C10.5079 19.4544 10.4651 19.4701 10.4207 19.4716C10.3762 19.4731 10.3323 19.4605 10.2954 19.4354C8.08832 18.0829 6.19738 16.2636 4.7525 14.1026C4.70486 14.0298 4.64166 13.9686 4.56766 13.9236C4.49366 13.8786 4.4107 13.8508 4.32471 13.8423C4.23873 13.8338 4.15196 13.8447 4.07071 13.8744C3.98946 13.904 3.91577 13.9516 3.85504 14.0137C2.87592 15.0787 2.04688 16.275 1.39144 17.5689C0.702649 19.0731 0.268473 20.6834 0.106909 22.3328C-0.277721 25.6356 0.381324 28.9768 1.98978 31.8784C3.2719 34.1264 5.13833 35.9773 7.38708 37.2306C9.63583 38.4839 12.1812 39.0919 14.7475 38.9887C17.7914 38.7595 20.6717 37.508 22.9299 35.4336C25.19 33.3807 26.7947 30.6953 27.5403 27.7188C27.823 26.5546 27.9765 25.3622 27.9978 24.1637C28.0361 22.0091 27.5656 19.8764 26.6253 17.9421ZM18.6363 30.8474C18.5373 31.5665 18.2837 32.255 17.8934 32.8647C17.5031 33.4743 16.9855 33.9904 16.3769 34.3766C15.7683 34.7627 15.0833 35.0097 14.3702 35.1002C13.657 35.1907 12.9329 35.1224 12.2487 34.9003C11.5252 34.6687 10.866 34.2679 10.3248 33.7305C9.78354 33.193 9.37564 32.5341 9.13409 31.8073C8.86738 31.0271 8.81149 30.189 8.97234 29.3797C9.13319 28.5704 9.50488 27.8192 10.0491 27.2034C10.0861 27.1678 10.1308 27.1413 10.1797 27.1259C10.2285 27.1104 10.2801 27.1065 10.3307 27.1145C11.0039 27.2852 11.6851 27.4217 12.3718 27.5233C12.2448 27.0723 12.1797 26.6058 12.1783 26.1368C12.1609 25.9061 12.1609 25.6743 12.1783 25.4435C12.2871 24.7006 12.5645 23.9931 12.9888 23.3763C13.4131 22.7596 13.9728 22.2503 14.6243 21.8884C14.6585 21.8712 14.6961 21.8618 14.7343 21.8607C14.7725 21.8596 14.8105 21.8669 14.8457 21.8821C14.8808 21.8973 14.9122 21.9201 14.9378 21.9488C14.9634 21.9775 14.9825 22.0115 14.9938 22.0484C15.3306 23.2457 15.8217 24.3931 16.4543 25.4613C16.7255 25.972 17.0374 26.4595 17.387 26.919L17.7037 27.3278C18.2628 28.1415 18.5579 29.1104 18.5484 30.1008C18.5991 30.3466 18.6285 30.5964 18.6363 30.8474Z" fill="#3E91BF"/>
</svg>
