<svg width="32" height="20" viewBox="0 0 32 20" fill="none" xmlns="http://www.w3.org/2000/svg">
<g clip-path="url(#clip0_0_379)">
<path d="M0.000971914 3.61347C0.000971914 2.81533 0.000971914 2.01718 0.000971914 1.21903C0.000971914 0.446844 0.46698 -0.014801 1.23599 0.013936C1.81213 0.0282548 2.37981 0.156802 2.90653 0.392221C3.43325 0.62764 3.90867 0.965307 4.30558 1.38589C5.41075 2.51869 6.73233 2.51869 7.83289 1.38033C8.24477 0.946243 8.73965 0.60052 9.28774 0.363975C9.83583 0.12743 10.4258 0.00495217 11.0222 0.00391292C11.6185 0.00287367 12.2089 0.123295 12.7578 0.357928C13.3067 0.592562 13.8028 0.936556 14.2161 1.36921C15.3397 2.52239 16.6549 2.52518 17.7692 1.37384C19.566 -0.480155 22.41 -0.448636 24.2243 1.44986C25.1038 2.36944 26.3831 2.4881 27.3326 1.72796C27.503 1.59169 27.6457 1.42297 27.8041 1.27095C28.6101 0.477088 29.689 0.0262543 30.8166 0.0120816C31.5175 -0.00460439 31.9918 0.465385 31.9945 1.17176C32 2.80204 32 4.43294 31.9945 6.06446C31.9945 6.74302 31.5561 7.19354 30.8811 7.22413C30.2425 7.24554 29.6384 7.52089 29.2012 7.98983C27.2985 9.95136 24.5199 9.93653 22.6264 7.96295C21.688 6.98404 20.2512 6.97662 19.3109 7.94534C17.3668 9.95229 14.6186 9.95693 12.6892 7.95646C11.747 6.98126 10.3112 6.9794 9.37367 7.95183C7.45714 9.94395 4.69423 9.95507 2.77677 7.97408C2.3479 7.51625 1.75754 7.24627 1.13284 7.22228C0.439351 7.18891 0.0111024 6.73931 0.0064975 6.0385C-0.00271219 5.22923 0.000971914 4.41903 0.000971914 3.61347Z" fill="white"/>
<path d="M0.000954296 14.1508C0.000954296 13.3536 0.000954296 12.5554 0.000954296 11.7573C0.000954296 11.0027 0.466964 10.5355 1.20927 10.5587C1.78542 10.5694 2.35378 10.6947 2.88168 10.9273C3.40957 11.1598 3.88658 11.4952 4.2853 11.9139C5.41809 13.068 6.71298 13.0745 7.83748 11.9232C9.63613 10.084 12.4525 10.0942 14.2456 11.9464C15.325 13.0588 16.6613 13.0588 17.7499 11.9408C19.5688 10.072 22.4017 10.0868 24.2059 11.9779C25.2189 13.0412 26.6271 13.0458 27.6392 11.9853C28.4994 11.0833 29.5475 10.5948 30.789 10.5587C31.5165 10.5355 31.9927 11.0008 31.9945 11.7248C32 13.3551 32 14.986 31.9945 16.6175C31.9945 17.2914 31.5515 17.7392 30.8746 17.7707C30.2468 17.7895 29.6514 18.0558 29.2169 18.5123C27.2828 20.4952 24.5273 20.4877 22.6181 18.5003C21.6806 17.5241 20.2439 17.5213 19.3026 18.4928C17.3686 20.497 14.6186 20.4979 12.6809 18.4928C11.7406 17.5195 10.3038 17.5223 9.36537 18.4984C7.45528 20.4887 4.69237 20.4942 2.76754 18.5105C2.3443 18.0601 1.76297 17.7939 1.14756 17.7689C0.410781 17.7299 -0.00365123 17.2896 -0.00549316 16.5406C-0.000888317 15.7471 0.000954296 14.9489 0.000954296 14.1508Z" fill="white"/>
</g>
<defs>
<clipPath id="clip0_0_379">
<rect width="32" height="20" fill="white"/>
</clipPath>
</defs>
</svg>
