<svg width="39" height="39" viewBox="0 0 39 39" fill="none" xmlns="http://www.w3.org/2000/svg">
<path d="M19.5 0C30.2835 0 39 8.73795 39 19.5C39 30.266 30.2835 39 19.5 39C8.736 39 0 30.266 0 19.5C0 8.73795 8.736 0 19.5 0ZM19.5 25.2155C18.564 25.2155 17.8035 25.976 17.8035 26.9119C17.8035 27.8479 18.564 28.628 19.5195 28.628C20.4555 28.628 21.216 27.8479 21.216 26.9119C21.216 25.976 20.4555 25.2155 19.5 25.2155ZM19.5 10.3935C18.564 10.3935 17.784 11.1755 17.784 12.1095V20.7285C17.784 21.6665 18.564 22.425 19.5 22.425C20.436 22.425 21.1965 21.6665 21.1965 20.7285V12.1095C21.1965 11.1755 20.436 10.3935 19.5 10.3935Z" fill="#DB135B"/>
</svg>
