<svg width="11" height="23" viewBox="0 0 11 23" fill="none" xmlns="http://www.w3.org/2000/svg">
<path d="M7.5505 23H7.38692C5.48308 23 3.93743 21.2098 3.93743 19.0054V6.17114C3.93743 5.9131 4.04144 5.66564 4.22657 5.48318C4.4117 5.30072 4.66279 5.19821 4.9246 5.19821C5.18642 5.19821 5.43753 5.30072 5.62266 5.48318C5.80779 5.66564 5.91178 5.9131 5.91178 6.17114V19.0054C5.91178 20.1174 6.5859 21.0541 7.38692 21.0541H7.5505C8.34871 21.0541 9.02564 20.1174 9.02564 19.0054V5.30941C9.02415 4.41779 8.6641 3.56311 8.0244 2.93264C7.38469 2.30217 6.51749 1.94732 5.61281 1.94585H5.38717C4.48249 1.94732 3.61529 2.30217 2.97559 2.93264C2.33588 3.56311 1.97585 4.41779 1.97436 5.30941V17.6906C1.97436 17.9486 1.87035 18.1961 1.68522 18.3786C1.50008 18.561 1.249 18.6635 0.98718 18.6635C0.725363 18.6635 0.474259 18.561 0.289127 18.3786C0.103995 18.1961 0 17.9486 0 17.6906V5.30941C0.00149327 3.90172 0.569546 2.55211 1.57951 1.55673C2.58948 0.56134 3.95886 0.00147171 5.38717 0H5.61281C7.04112 0.00147171 8.4105 0.56134 9.42047 1.55673C10.4304 2.55211 10.9985 3.90172 11 5.30941V19.0054C11 21.2098 9.45153 23 7.5505 23Z" fill="#5FB2FF"/>
</svg>
