<svg width="41" height="20" viewBox="0 0 41 20" fill="none" xmlns="http://www.w3.org/2000/svg">
<g clip-path="url(#clip0_0_420)">
<path fill-rule="evenodd" clip-rule="evenodd" d="M20.3677 20C15.9257 20.0323 11.5619 18.8306 7.76284 16.5286C4.5202 14.5198 2.00451 11.8634 0.713625 8.20265C0.175507 6.72895 -0.0568657 5.16112 0.0307102 3.59472C0.0541766 3.26084 0.117808 2.931 0.220182 2.61234C0.76209 0.828195 2.14987 3.76767e-06 3.98266 0.356832C5.70091 0.691634 7.03586 1.67841 8.22982 2.88546C8.3248 3.00516 8.45787 3.08878 8.60694 3.12244C8.756 3.15609 8.91208 3.13777 9.04929 3.07049C11.305 2.28635 13.5696 1.52864 15.8342 0.775339C18.931 -0.279685 22.2931 -0.259506 25.3771 0.83261C26.4596 1.20269 27.5442 1.56758 28.6284 1.93231C29.7769 2.31868 30.9249 2.70489 32.0694 3.09692C32.1818 3.15175 32.3097 3.16636 32.4315 3.1383C32.5534 3.11024 32.662 3.0412 32.7391 2.94273C33.8934 1.76652 35.1755 0.770936 36.8276 0.405297C39.1098 -0.101311 40.7928 1.13216 40.9779 3.46696C41.1372 5.86607 40.5707 8.2576 39.3521 10.3304C37.3563 13.8943 34.2987 16.2687 30.6243 17.9163C27.3895 19.3227 23.8949 20.0326 20.3677 20ZM7.30462 14.0396C7.32146 13.9848 7.33469 13.9288 7.34426 13.8722V4.80617C7.34419 4.67261 7.29747 4.54327 7.21212 4.44053C6.45576 3.56133 5.51784 2.85648 4.46293 2.37446C2.70063 1.63437 1.71369 2.326 1.77537 4.2423C1.86949 6.89114 2.85532 9.43062 4.57307 11.4493C5.36543 12.4294 6.28389 13.3004 7.30462 14.0396ZM33.629 13.9912H33.7656C36.1976 12.1234 38.0084 9.81498 38.8279 6.82379C39.1846 5.72001 39.287 4.54985 39.1274 3.40089C38.9424 2.35243 38.3564 1.95595 37.3078 2.14979C36.9903 2.18485 36.6831 2.28374 36.4047 2.44054C35.7427 2.89343 35.1027 3.37662 34.4631 3.85961L34.463 3.85965L34.4627 3.85991C34.2936 3.98757 34.1245 4.11522 33.9551 4.2423C33.8361 4.3348 33.7428 4.45628 33.6842 4.5951C33.6256 4.73393 33.6035 4.88547 33.6202 5.03524V13.5639L33.629 13.9912ZM22.2423 6.23776C21.5129 5.95555 20.7063 5.94577 19.9704 6.2102L12.6778 8.83057C12.288 8.97064 11.8584 8.76818 11.7184 8.37837C11.5783 7.98856 11.7808 7.55901 12.1706 7.41894L19.4632 4.79857C20.5388 4.41208 21.7177 4.42638 22.7836 4.83885L29.4676 7.4253C29.8539 7.57478 30.0459 8.00912 29.8964 8.39542C29.7469 8.78172 29.3126 8.9737 28.9263 8.82421L22.2423 6.23776ZM19.6208 11.1945C20.3457 10.9388 21.1378 10.9482 21.8563 11.2212L27.0669 13.2009C27.4541 13.348 27.8873 13.1533 28.0344 12.7661C28.1815 12.3789 27.9869 11.9458 27.5997 11.7987L22.3891 9.81902C21.3389 9.42002 20.1812 9.40617 19.1218 9.77993L13.4171 11.7925C13.0265 11.9303 12.8215 12.3587 12.9593 12.7493C13.0972 13.1399 13.5255 13.3448 13.9161 13.207L19.6208 11.1945Z" fill="white"/>
</g>
<defs>
<clipPath id="clip0_0_420">
<rect width="41" height="20" fill="white"/>
</clipPath>
</defs>
</svg>
