<svg width="32" height="35" viewBox="0 0 32 35" fill="none" xmlns="http://www.w3.org/2000/svg">
<g clip-path="url(#clip0_0_34)">
<path d="M16.4651 0C16.6535 0.0538644 16.8447 0.102253 17.0314 0.161595C17.8292 0.41906 18.5109 0.963604 18.9522 1.69605C19.3935 2.42849 19.5651 3.30009 19.4358 4.15212C19.1898 5.84931 17.7305 7.15302 16.0509 7.17402C15.2215 7.18333 14.4159 6.88778 13.7783 6.3403C13.1408 5.79281 12.713 5.02912 12.5714 4.18591C12.4219 3.25985 12.6296 2.31022 13.1501 1.54009C13.6705 0.769962 14.4623 0.240465 15.3562 0.0648275C15.4168 0.0479364 15.4759 0.0262583 15.5332 0H16.4651Z" fill="white"/>
<path d="M16.6279 35.0001C12.7652 34.9672 9.57144 34.6258 6.46799 33.6252C5.0521 33.1687 3.68488 32.5917 2.47164 31.6952C2.03125 31.3719 1.62253 31.005 1.25132 30.5997C-0.430053 28.7473 -0.41235 26.3088 1.26636 24.4628C2.26811 23.359 3.5194 22.6478 4.85299 22.0763C5.28012 21.8937 5.71432 21.7294 6.1556 21.5833C7.04939 21.2903 7.95201 21.7513 8.24493 22.6305C8.54315 23.5261 8.08918 24.4463 7.2069 24.8143C6.41047 25.1457 5.61403 25.4771 4.85565 25.8906C4.39814 26.1417 3.98664 26.5142 3.61674 26.8949C3.18844 27.3413 3.21056 27.7166 3.60435 28.1922C4.19106 28.9052 4.97245 29.3352 5.77951 29.7086C7.51397 30.5111 9.34756 30.9475 11.2192 31.226C13.8551 31.6154 16.5265 31.681 19.1774 31.4213C21.7021 31.1776 24.1861 30.7202 26.4913 29.568C27.113 29.25 27.6926 28.8511 28.2161 28.3812C28.8753 27.7969 28.8452 27.3139 28.2161 26.6831C27.4993 25.9609 26.6135 25.5255 25.6993 25.1438C25.3834 25.0124 25.0551 24.9092 24.7374 24.7787C24.3403 24.6238 24.0162 24.3173 23.8322 23.9227C23.6482 23.528 23.6183 23.0755 23.7489 22.6588C24.0144 21.8125 24.8781 21.2766 25.7179 21.5377C27.4081 22.0654 29.0028 22.8094 30.3328 24.0474C31.1824 24.8371 31.7965 25.782 31.9558 26.9798C32.1416 28.3757 31.6691 29.5552 30.7735 30.5723C29.7001 31.7902 28.3267 32.5342 26.8692 33.1286C24.6277 34.0415 22.2861 34.5309 19.8959 34.7664C18.6048 34.9043 17.3031 34.9554 16.6279 35.0001Z" fill="white"/>
<path d="M19.2242 18.7046C19.1224 19.5509 19.0189 20.4081 18.9154 21.2608C18.6995 23.0448 18.4871 24.8287 18.2632 26.6117C18.1871 27.2097 17.8154 27.5338 17.2252 27.5392C16.4081 27.5472 15.5913 27.5472 14.7748 27.5392C14.1881 27.5338 13.8137 27.2069 13.7394 26.609C13.4739 24.4535 13.2146 22.2961 12.9536 20.1406C12.8943 19.6568 12.835 19.1729 12.7766 18.6799C12.2828 18.6051 11.835 18.4307 11.5828 18.0025C11.4058 17.6948 11.2412 17.3151 11.2368 16.9663C11.2076 14.5525 11.2156 12.1386 11.2244 9.72474C11.2244 8.80539 11.8386 8.12797 12.7235 8.03302C13.0097 8.01186 13.2968 8.00577 13.5837 8.01477C15.3606 8.01477 17.1375 8.01477 18.9145 8.01477C20.1251 8.01477 20.7808 8.68762 20.7817 9.93198C20.7817 12.1632 20.7817 14.3948 20.7817 16.6267C20.779 17.8747 20.4118 18.3713 19.2242 18.7046Z" fill="white"/>
</g>
<defs>
<clipPath id="clip0_0_34">
<rect width="32" height="35" fill="white"/>
</clipPath>
</defs>
</svg>
