<svg width="22" height="33" viewBox="0 0 22 33" fill="none" xmlns="http://www.w3.org/2000/svg">
<g clip-path="url(#clip0_0_486)">
<path d="M0 16.5015C0 12.2556 0 8.00881 0 3.76101C0 1.4977 1.55014 0.00195312 3.89628 0.00195312H18.1017C20.4488 0.00195312 22 1.49574 22 3.75904C22 12.2533 22 20.747 22 29.2399C22 31.5033 20.4499 33 18.1047 33.001H3.89934C1.55218 33.001 0.00101527 31.5033 0.00101527 29.2419C0.000334936 24.9961 0 20.7493 0 16.5015ZM19.5559 16.5015C19.5559 12.2176 19.5559 7.93402 19.5559 3.6508C19.5559 2.84683 19.0569 2.36465 18.2292 2.3617C17.3383 2.3617 16.4464 2.33808 15.5565 2.37252C15.2313 2.39104 14.915 2.48162 14.632 2.63723C14.0911 2.93244 13.5951 3.30343 13.0675 3.62128C11.6797 4.46362 10.2867 4.45181 8.90592 3.60455C8.39057 3.28867 7.90379 2.92851 7.37517 2.63821C7.09233 2.48184 6.77599 2.39026 6.45059 2.37055C5.58725 2.33513 4.72084 2.35776 3.85546 2.35874C2.91523 2.35874 2.44546 2.81075 2.44614 3.71476V29.2685C2.44614 30.1915 2.91557 30.6461 3.87485 30.6461H18.118C19.0997 30.6461 19.5559 30.2014 19.5559 29.2419V16.5015Z" fill="white"/>
<path d="M13.8084 14.1429C14.6626 14.1429 15.4881 14.1429 16.3137 14.1429C17.5271 14.1429 18.0741 15.063 17.4587 16.0736C15.4817 19.321 13.5022 22.5674 11.5204 25.8128C11.1949 26.3461 10.7255 26.5882 10.206 26.5016C9.9583 26.4658 9.72827 26.3566 9.5478 26.1891C9.36732 26.0216 9.24535 25.8041 9.19879 25.5667C9.16971 25.3482 9.16971 25.127 9.19879 24.9084C9.33451 23.4323 9.47841 21.9563 9.6172 20.4733C9.62944 20.3415 9.6172 20.2076 9.6172 20.0334H9.20185C8.18135 20.0334 7.16084 20.0413 6.14647 20.0334C5.23618 20.0236 4.66571 19.2649 4.96982 18.4363C5.96787 15.7092 6.97681 12.9867 7.99664 10.2688C8.21094 9.69407 8.60894 9.43428 9.24675 9.43231C10.6214 9.43231 12.0021 9.42641 13.3716 9.43231C14.2778 9.43231 14.8146 10.1113 14.5962 10.9704C14.3585 11.9229 14.1074 12.8735 13.8635 13.8241C13.8492 13.9176 13.8319 14.013 13.8084 14.1429Z" fill="white"/>
</g>
<defs>
<clipPath id="clip0_0_486">
<rect width="22" height="33" fill="white"/>
</clipPath>
</defs>
</svg>
