<svg width="35" height="33" viewBox="0 0 35 33" fill="none" xmlns="http://www.w3.org/2000/svg">
<g clip-path="url(#clip0_0_552)">
<path d="M0 27.2763C0.136155 27.2709 0.27414 27.261 0.408467 27.261C3.31523 27.261 6.222 27.2556 9.12877 27.2673C9.40291 27.2673 9.52261 27.1775 9.62313 26.9357C10.9874 23.6765 12.3645 20.4218 13.7279 17.1617C13.8141 16.9448 13.8596 16.7143 13.8622 16.4815C13.8777 15.6656 13.8686 14.8487 13.8686 13.9457C13.7315 14.067 13.642 14.1397 13.5607 14.2197L10.271 17.4547C9.57287 18.1394 8.75046 18.3533 7.82845 17.9938C6.43766 17.4628 6.01183 15.7383 6.97496 14.6169C7.06634 14.5064 7.17782 14.4039 7.282 14.3006C9.4422 12.1763 11.6012 10.0511 13.7589 7.92506C14.2634 7.42545 14.7312 6.88988 15.2082 6.37768C13.2207 4.74853 13.6758 2.2109 14.9706 1.00139C15.6571 0.355315 16.5717 -0.00365916 17.5219 2.81273e-05C18.4721 0.00371542 19.3838 0.369777 20.065 1.02116C21.3672 2.25673 21.7729 4.7674 19.7479 6.4343C22.4668 9.11211 25.1856 11.7917 27.9044 14.4731C28.1084 14.6718 28.2706 14.908 28.3818 15.1683C28.493 15.4286 28.5509 15.7079 28.5523 15.9903C28.5537 16.2726 28.4985 16.5524 28.39 16.8138C28.2814 17.0751 28.1215 17.3129 27.9195 17.5135C27.7175 17.7141 27.4773 17.8736 27.2125 17.983C26.9478 18.0923 26.6638 18.1492 26.3767 18.1506C26.0896 18.152 25.805 18.0978 25.5393 17.991C25.2735 17.8842 25.0317 17.727 24.8277 17.5283C23.701 16.45 22.598 15.3457 21.4887 14.2494C21.4092 14.1532 21.338 14.0507 21.2758 13.943L21.1579 14.0112C21.1579 14.3707 21.1862 14.7391 21.1524 15.0985C21.0382 16.291 21.3425 17.3774 21.8241 18.4701C23.0513 21.2557 24.2054 24.0647 25.375 26.8701C25.4957 27.1595 25.6318 27.27 25.9626 27.2682C28.8347 27.2538 31.7076 27.2601 34.5797 27.2601H35.0046V28.6889H34.6043C31.6528 28.6889 28.7003 28.6934 25.7479 28.6826C25.6202 28.6777 25.493 28.7007 25.3754 28.75C25.2579 28.7992 25.1529 28.8735 25.068 28.9675C23.779 30.2519 22.4811 31.5276 21.1744 32.7946C21.0676 32.9022 20.9261 32.9699 20.7741 32.986C19.1668 32.9986 17.5594 32.9941 15.953 32.9923C15.9178 32.9898 15.883 32.9844 15.8488 32.9761L20.108 28.7895L20.055 28.7042C19.9709 28.6988 19.8868 28.6898 19.8018 28.6898C17.7732 28.6898 15.7446 28.6898 13.7151 28.6979C13.5414 28.7055 13.376 28.7733 13.2481 28.8893C11.9335 30.1635 10.6271 31.4467 9.32889 32.7389C9.24624 32.8275 9.14455 32.8968 9.03121 32.9419C8.91787 32.987 8.79574 33.0066 8.6737 32.9995C7.09102 32.9887 5.50833 32.9941 3.86991 32.9941L8.17842 28.7913L8.12177 28.6889H0V27.2763ZM20.7759 27.2449C20.7494 27.155 20.7403 27.111 20.7239 27.0705C19.7699 24.8073 18.818 22.5431 17.8683 20.278C17.7878 20.084 17.6691 20.0822 17.5027 20.0732C17.3154 20.0633 17.2231 20.1181 17.1482 20.296C16.2143 22.5305 15.2752 24.7635 14.331 26.995C14.3024 27.0769 14.2786 27.1603 14.2597 27.2449H20.7759Z" fill="white"/>
</g>
<defs>
<clipPath id="clip0_0_552">
<rect width="35" height="33" fill="white"/>
</clipPath>
</defs>
</svg>
