<svg width="47" height="42" viewBox="0 0 47 42" fill="none" xmlns="http://www.w3.org/2000/svg">
<path d="M35.8859 27.9345C35.9778 28.0995 36.0926 28.2507 36.2269 28.3836C36.4766 28.6488 36.7783 28.8596 37.1133 29.0027C37.4482 29.1459 37.8091 29.2183 38.1733 29.2154C38.5461 29.2166 38.9149 29.1394 39.256 28.989C39.597 28.8385 39.9026 28.6181 40.1531 28.342C40.2641 28.2148 40.3642 28.0784 40.4525 27.9345M26.2369 27.9345C26.328 28.0859 26.4338 28.2281 26.5529 28.3587C26.8038 28.6314 27.1085 28.8492 27.4478 28.9981C27.7871 29.147 28.1538 29.2239 28.5243 29.2239C28.8949 29.2239 29.2614 29.147 29.6008 28.9981C29.9401 28.8492 30.2449 28.6314 30.4957 28.3587M30.4957 28.3587C30.602 28.2404 30.6966 28.1123 30.7785 27.976M30.4957 28.3587C30.5805 28.2244 30.675 28.0965 30.7785 27.976M30.7785 27.976L30.92 27.8263C31.1006 27.6433 31.3015 27.4814 31.5188 27.3439C32.0298 27.0202 32.6193 26.8419 33.224 26.8281H33.4154C33.8735 26.8396 34.3244 26.9443 34.7406 27.1359C35.1568 27.3276 35.5294 27.6021 35.8359 27.9428C35.9613 28.0832 36.0754 28.2334 36.177 28.392M16.5878 27.9345C16.679 28.088 16.7879 28.2304 16.9122 28.3587M16.5878 27.9345C16.705 28.0686 16.8134 28.2103 16.9122 28.3587M16.5878 27.9345C16.4713 27.8097 16.3382 27.6849 16.2051 27.5685C15.6253 27.0916 14.9012 26.8248 14.1506 26.8115H14.0341C13.5612 26.8189 13.095 26.9248 12.6654 27.1224C12.2357 27.3201 11.852 27.6051 11.5387 27.9594C11.4325 28.0777 11.3378 28.2058 11.2559 28.342M16.9122 28.3587C17.1622 28.6257 17.4652 28.8376 17.8018 28.9809C18.1384 29.1241 18.5012 29.1955 18.867 29.1905C19.2398 29.1916 19.6085 29.1145 19.9495 28.964C20.2906 28.8136 20.5962 28.5932 20.8466 28.3171C20.961 28.1905 21.064 28.0541 21.1545 27.9095M26.5363 28.342C26.4431 28.1919 26.3374 28.05 26.2202 27.9178C25.9129 27.5754 25.5391 27.2993 25.1214 27.1062C24.7038 26.9131 24.2512 26.8072 23.7913 26.7949H23.6083C23.1457 26.8036 22.6901 26.9088 22.2704 27.1035C21.8508 27.2983 21.4763 27.5785 21.171 27.9261C21.0548 28.0511 20.9517 28.1877 20.8633 28.3337M6.97205 27.9428C7.05491 28.0805 7.15251 28.2088 7.26317 28.3254C7.51679 28.5997 7.82422 28.8188 8.16626 28.9691C8.5083 29.1194 8.87762 29.1976 9.25121 29.1988C9.62272 29.1998 9.9903 29.1226 10.33 28.9721C10.6696 28.8216 10.9738 28.6013 11.2226 28.3254C11.3288 28.2072 11.4235 28.079 11.5054 27.9428M40.6022 27.7847C40.914 27.4688 41.2859 27.2185 41.6959 27.0485C42.1058 26.8786 42.5457 26.7923 42.9896 26.7949C43.5443 26.7937 44.0908 26.9289 44.5811 27.1885C45.0714 27.4481 45.4902 27.8243 45.801 28.2838M7.26317 28.2838C7.18451 28.1674 7.09842 28.0563 7.00536 27.9511C6.63907 27.5321 6.17516 27.2099 5.65468 27.013C5.1342 26.8161 4.57318 26.7505 4.02131 26.822C3.46944 26.8936 2.94365 27.1001 2.4906 27.4233C2.03755 27.7464 1.67116 28.1763 1.42383 28.6748" stroke="#A9612D" stroke-width="1.7" stroke-linecap="round" stroke-linejoin="round"/>
<path d="M1.41553 34.3145C1.67978 33.7875 2.07708 33.3386 2.5681 33.0123C3.05913 32.686 3.62684 32.4936 4.21508 32.4541C4.80331 32.4146 5.39172 32.5294 5.92196 32.7871C6.45219 33.0449 6.90588 33.4366 7.23821 33.9236M45.7761 33.9236C45.4649 33.4645 45.0458 33.0888 44.5556 32.8292C44.0655 32.5697 43.5192 32.4342 42.9646 32.4346C42.5208 32.4321 42.0809 32.5183 41.6709 32.6883C41.2609 32.8583 40.8891 33.1086 40.5773 33.4245M11.231 33.9818C11.3178 33.8442 11.4152 33.7135 11.5221 33.5908C11.8412 33.2337 12.2322 32.9479 12.6694 32.7522C13.1066 32.5566 13.5802 32.4554 14.0591 32.4554C14.5381 32.4554 15.0117 32.5566 15.4489 32.7522C15.8861 32.9479 16.277 33.2337 16.5961 33.5908C16.7187 33.7257 16.83 33.8703 16.9288 34.0234M11.5221 33.6075C11.4393 33.7479 11.3417 33.8789 11.231 33.9984C10.9806 34.275 10.6751 34.4961 10.3342 34.6474C9.99318 34.7987 9.62428 34.8768 9.25124 34.8768C8.8782 34.8768 8.5093 34.7987 8.16832 34.6474C7.82734 34.4961 7.52184 34.275 7.27152 33.9984C7.16086 33.8818 7.06326 33.7535 6.98041 33.6158M20.8716 34.0068C20.9622 33.8648 21.0652 33.7312 21.1794 33.6075C21.4977 33.2532 21.887 32.9699 22.3219 32.776C22.7569 32.5821 23.2278 32.4818 23.704 32.4818C24.1802 32.4818 24.6511 32.5821 25.086 32.776C25.521 32.9699 25.9103 33.2532 26.2286 33.6075C26.346 33.7445 26.4543 33.889 26.553 34.04M21.1711 33.6075C21.0876 33.7568 20.984 33.8939 20.8633 34.0151C20.6116 34.2895 20.3057 34.5089 19.965 34.6592C19.6242 34.8095 19.256 34.8876 18.8836 34.8885C18.518 34.892 18.1557 34.8199 17.8194 34.6767C17.483 34.5336 17.1798 34.3225 16.9288 34.0567C16.8045 33.9254 16.6956 33.7803 16.6044 33.6241M30.5041 34.0483C30.5912 33.9087 30.6914 33.7778 30.8035 33.6574C31.1138 33.2994 31.4969 33.0119 31.9273 32.8139C32.3576 32.616 32.8253 32.5122 33.299 32.5095C33.7693 32.5132 34.2337 32.6141 34.6631 32.8059C35.0926 32.9977 35.4778 33.2763 35.7944 33.6241C35.9198 33.7645 36.0338 33.9147 36.1354 34.0733M30.7369 33.6574C30.6486 33.7961 30.5484 33.9269 30.4375 34.0483C30.1874 34.3209 29.8834 34.5385 29.5447 34.6873C29.2061 34.8362 28.8402 34.913 28.4702 34.913C28.1003 34.913 27.7345 34.8362 27.3959 34.6873C27.0572 34.5385 26.7531 34.3209 26.503 34.0483C26.3786 33.9171 26.2698 33.772 26.1786 33.6158M40.386 33.6158C40.3034 33.7588 40.2057 33.8926 40.0948 34.0151C39.844 34.2865 39.5398 34.5031 39.2013 34.6512C38.8627 34.7993 38.4971 34.8758 38.1276 34.8758C37.758 34.8758 37.3926 34.7993 37.054 34.6512C36.7154 34.5031 36.4111 34.2865 36.1603 34.0151C36.0312 33.8798 35.9194 33.7289 35.8276 33.5659" stroke="#A9612D" stroke-width="1.7" stroke-linecap="round" stroke-linejoin="round"/>
<path d="M1.41553 39.9289C1.67799 39.4 2.07464 38.949 2.56577 38.6212C3.0569 38.2933 3.62538 38.0999 4.21457 38.0604C4.80376 38.0208 5.39303 38.1364 5.92358 38.3957C6.45414 38.655 6.90739 39.0488 7.23821 39.538M45.7761 39.538C45.4977 39.1232 45.1307 38.7753 44.7017 38.5195C44.2726 38.2636 43.7921 38.1062 43.2948 38.0584C42.7975 38.0107 42.2959 38.0739 41.826 38.2434C41.356 38.413 40.9296 38.6846 40.5773 39.0389M11.231 39.5962C11.3178 39.4586 11.4152 39.3279 11.5221 39.2053C11.8398 38.8457 12.2303 38.5578 12.6676 38.3606C13.105 38.1634 13.5794 38.0614 14.0591 38.0614C14.5389 38.0614 15.0132 38.1634 15.4506 38.3606C15.888 38.5578 16.2784 38.8457 16.5961 39.2053C16.7187 39.3401 16.83 39.4848 16.9288 39.6378M11.5221 39.2219C11.4393 39.3623 11.3417 39.4934 11.231 39.6128C10.9806 39.8894 10.6751 40.1105 10.3342 40.2618C9.99318 40.4131 9.62428 40.4912 9.25124 40.4912C8.8782 40.4912 8.5093 40.4131 8.16832 40.2618C7.82734 40.1105 7.52184 39.8894 7.27152 39.6128C7.16277 39.4946 7.06532 39.3665 6.98041 39.2302M20.8716 39.6212C20.9622 39.4792 21.0652 39.3456 21.1794 39.2219C21.4962 38.8653 21.8851 38.5799 22.3202 38.3844C22.7553 38.189 23.227 38.0879 23.704 38.0879C24.181 38.0879 24.6526 38.189 25.0878 38.3844C25.5229 38.5799 25.9117 38.8653 26.2286 39.2219C26.346 39.3589 26.4543 39.5034 26.553 39.6544M21.1711 39.2219C21.0855 39.3698 20.9821 39.5067 20.8633 39.6295C20.6079 39.8964 20.3005 40.108 19.9599 40.2511C19.6193 40.3942 19.253 40.4657 18.8836 40.4613C18.518 40.4648 18.1557 40.3927 17.8194 40.2496C17.483 40.1064 17.1798 39.8953 16.9288 39.6295C16.8026 39.5029 16.6936 39.3602 16.6044 39.2053M30.5041 39.6295C30.5912 39.4899 30.6914 39.359 30.8035 39.2385C31.1204 38.8806 31.5096 38.594 31.9455 38.3977C32.3815 38.2014 32.8541 38.0999 33.3322 38.0999C33.8102 38.0999 34.2829 38.2014 34.7188 38.3977C35.1547 38.594 35.544 38.8806 35.8609 39.2385C35.9863 39.379 36.1004 39.5292 36.202 39.6877M30.8035 39.2718C30.7152 39.4105 30.615 39.5413 30.5041 39.6628C30.254 39.9353 29.9499 40.1529 29.6112 40.3017C29.2726 40.4506 28.9068 40.5275 28.5369 40.5275C28.1669 40.5275 27.801 40.4506 27.4624 40.3017C27.1237 40.1529 26.8196 39.9353 26.5695 39.6628C26.4433 39.5361 26.3343 39.3935 26.2452 39.2385M40.4525 39.2385C40.3678 39.3802 40.2704 39.5138 40.1614 39.6378C39.9113 39.9103 39.6072 40.1279 39.2686 40.2768C38.9299 40.4256 38.5641 40.5025 38.1942 40.5025C37.8243 40.5025 37.4583 40.4256 37.1197 40.2768C36.781 40.1279 36.4771 39.9103 36.227 39.6378C36.0978 39.5025 35.986 39.3516 35.8942 39.1886" stroke="#A9612D" stroke-width="1.7" stroke-linecap="round" stroke-linejoin="round"/>
<path d="M7.38794 28.2254V26.8196V18.1521L23.0926 7.48828L39.8203 18.8425V26.8196V27.9592" stroke="#A9612D" stroke-width="1.7" stroke-linecap="round" stroke-linejoin="round"/>
<path d="M35.5449 9.30932L45.2355 15.8058L42.1245 20.1395L40.2113 18.8419L23.4919 7.48765L7.77896 18.1515L5.1504 19.9316L1.9646 15.6727L8.30301 11.4221L14.3087 7.38783L23.4919 1.23242L32.4672 7.24642" stroke="#A9612D" stroke-width="1.7" stroke-linecap="round" stroke-linejoin="round"/>
<path d="M13.8262 4.22754V7.38843L7.82056 11.4227V4.22754H13.8262Z" stroke="#A9612D" stroke-width="1.7" stroke-linecap="round" stroke-linejoin="round"/>
<path d="M15.5148 1H5.96558V4.22743H15.5148V1Z" stroke="#A9612D" stroke-width="1.7" stroke-linecap="round" stroke-linejoin="round"/>
<path d="M30.9698 18.501V27.8173L30.8284 27.967C30.7465 28.1033 30.6518 28.2314 30.5456 28.3496C30.2947 28.6224 29.9901 28.8401 29.6507 28.9891C29.3114 29.138 28.9448 29.2149 28.5742 29.2149C28.2036 29.2149 27.8371 29.138 27.4978 28.9891C27.1585 28.8401 26.8537 28.6224 26.6028 28.3496C26.4837 28.219 26.3778 28.0769 26.2867 27.9254C25.9794 27.583 25.6056 27.3068 25.188 27.1138C24.7704 26.9207 24.3178 26.8148 23.8579 26.8025H23.6748C23.2123 26.8112 22.7566 26.9163 22.3369 27.1111C21.9173 27.3059 21.5429 27.5861 21.2377 27.9337C21.1472 28.0783 21.0442 28.2147 20.9299 28.3413C20.6795 28.6174 20.3738 28.8378 20.0328 28.9883C19.6918 29.1387 19.3229 29.2159 18.9502 29.2147C18.5844 29.2197 18.2216 29.1483 17.885 29.0051C17.5484 28.8619 17.2455 28.6499 16.9955 28.3829C16.8712 28.2546 16.7623 28.1122 16.671 27.9587C16.5546 27.8339 16.4214 27.7091 16.2883 27.5927V18.501H30.9698Z" stroke="#A9612D" stroke-width="1.7" stroke-linecap="round" stroke-linejoin="round"/>
<path d="M23.3505 18.501V26.8191" stroke="#A9612D" stroke-width="1.7" stroke-linecap="round" stroke-linejoin="round"/>
</svg>
