<svg width="21" height="21" viewBox="0 0 21 21" fill="none" xmlns="http://www.w3.org/2000/svg">
<g clip-path="url(#clip0_1019_21268)">
<path d="M14.2007 7.41157L7.04131 13.2579L6.59074 12.7061C6.58425 12.6992 6.57931 12.691 6.57627 12.682C6.57322 12.673 6.57214 12.6634 6.57309 12.654C6.57405 12.6446 6.577 12.6354 6.58178 12.6272C6.58656 12.619 6.59305 12.612 6.6008 12.6065L11.5868 8.47784L8.22479 7.85855C8.21181 7.85653 8.19972 7.8507 8.19005 7.84181C8.18038 7.83291 8.17356 7.82133 8.17048 7.80855C8.16739 7.79578 8.16816 7.78238 8.17269 7.77005C8.17723 7.75771 8.18533 7.74701 8.19596 7.73928L9.61481 6.58066C9.62247 6.57484 9.63139 6.57088 9.64085 6.5691C9.65031 6.56733 9.66005 6.56778 9.6693 6.57043L14.1708 7.39598C14.1821 7.39808 14.1925 7.40351 14.2007 7.41157Z" fill="#A9612D"/>
<path d="M12.7516 13.2616C12.7412 13.2696 12.7287 13.2746 12.7156 13.2759C12.7025 13.2772 12.6893 13.2749 12.6775 13.2691C12.6656 13.2633 12.6557 13.2544 12.6486 13.2433C12.6416 13.2321 12.6378 13.2193 12.6377 13.2061L12.6621 9.78723L7.67335 13.9124C7.65881 13.9243 7.64014 13.9299 7.62146 13.928C7.60278 13.9262 7.58561 13.9169 7.57374 13.9024L7.0448 13.2546L14.2007 7.41114C14.2074 7.41473 14.2134 7.4196 14.2182 7.42548C14.223 7.43137 14.2266 7.43814 14.2287 7.44542L14.2057 12.0342C14.2069 12.0446 14.2053 12.0552 14.2011 12.0647C14.1968 12.0742 14.1899 12.0824 14.1813 12.0884L12.7516 13.2616Z" fill="#A9612D"/>
</g>
<defs>
<clipPath id="clip0_1019_21268">
<rect width="6.86121" height="8.84635" fill="white" transform="translate(11.9506 4.65612) scale(1.04536) rotate(50.7651)"/>
</clipPath>
</defs>
</svg>
