<svg width="45" height="45" viewBox="0 0 45 45" fill="none" xmlns="http://www.w3.org/2000/svg">
<path d="M44.1469 34.9582C44.1432 36.9902 43.4286 38.9569 42.1269 40.5172C40.8252 42.0776 39.0185 43.1333 37.0201 43.5014C35.0217 43.8694 32.9575 43.5265 31.1854 42.5322C29.4133 41.5378 28.0449 39.9548 27.3175 38.0573C27.1064 37.5046 26.9553 36.9307 26.8671 36.3456C26.7867 35.8875 26.7475 35.4232 26.7499 34.9582C26.7491 34.5544 26.7763 34.151 26.8311 33.7509C27.5448 34.1568 28.312 34.4601 29.1104 34.6518C29.0967 34.3877 29.0967 34.1231 29.1104 33.859C29.1113 33.4157 29.1445 32.9731 29.2096 32.5347V32.3905C29.4727 30.8375 30.1548 29.3859 31.1825 28.1922C31.3447 28.003 32.1376 27.093 32.3358 26.8048C33.2367 25.4173 33.7953 21.8677 33.7953 21.8677C34.9219 22.3247 35.9407 23.0121 36.7863 23.8857C37.163 24.2802 37.5066 24.7051 37.8134 25.156C38.7009 26.5178 39.1937 28.0989 39.2369 29.7238V29.94C39.2362 30.6904 39.1423 31.4379 38.9576 32.1653C40.1204 31.2986 41.0492 30.1561 41.6604 28.8408C43.2623 30.473 44.1558 32.6712 44.1469 34.9582Z" stroke="#A9612D" stroke-width="1.7" stroke-linecap="round" stroke-linejoin="round"/>
<path d="M38.5071 39.5799C37.977 40.2275 37.26 40.6956 36.4539 40.9204C35.6478 41.1451 34.7921 41.1154 34.0035 40.8355C33.2149 40.5555 32.532 40.0389 32.048 39.3562C31.5641 38.6736 31.3027 37.8581 31.2996 37.0213C32.3773 37.0213 33.4108 36.5932 34.1728 35.8312C34.9348 35.0692 35.3628 34.0357 35.3628 32.9581C35.366 32.5642 35.3082 32.1722 35.1916 31.7959C35.5387 32.3168 36.0015 32.7504 36.5438 33.0629C37.086 33.3755 37.6932 33.5585 38.3179 33.5978C38.2098 33.7059 38.1106 33.814 38.0115 33.9311C37.3486 34.7541 37.0316 35.8025 37.1274 36.8549C37.2232 37.9073 37.7245 38.8812 38.5251 39.5709L38.5071 39.5799Z" stroke="#A9612D" stroke-width="1.7" stroke-linecap="round" stroke-linejoin="round"/>
<path d="M18.7048 36.3455H13.2631V43.8592H18.7048V36.3455Z" stroke="#A9612D" stroke-width="1.7" stroke-miterlimit="10" stroke-linecap="round"/>
<path d="M12.263 5.56983L14.9658 1.31744C15.0437 1.17663 15.158 1.05925 15.2966 0.977517C15.4353 0.895783 15.5932 0.852674 15.7541 0.852674C15.9151 0.852674 16.0731 0.895783 16.2118 0.977517C16.3504 1.05925 16.4645 1.17663 16.5425 1.31744L22.3174 10.3267L23.2184 11.6871C23.3255 11.8252 23.3902 11.9914 23.4046 12.1655C23.4189 12.3396 23.3824 12.5142 23.2993 12.6679C23.2162 12.8216 23.0903 12.9479 22.9367 13.0313C22.7832 13.1147 22.6087 13.1516 22.4346 13.1376H20.9931L26.6239 21.9127C26.7557 22.1203 26.8296 22.3595 26.8378 22.6054C26.846 22.8512 26.7883 23.0948 26.6706 23.3108C26.553 23.5268 26.3796 23.7074 26.1686 23.8339C25.9576 23.9603 25.7167 24.028 25.4707 24.0299H22.7679L29.1735 32.4535V32.5977C29.1085 33.0362 29.0754 33.4788 29.0744 33.9221C29.0744 34.1923 29.0744 34.4536 29.0744 34.7149C28.2761 34.5231 27.5087 34.2198 26.795 33.8139C26.6698 34.6743 26.6698 35.5483 26.795 36.4086H2.7042C1.24469 36.4086 0.361802 35.0482 1.14561 34.0121L8.71343 24.1019H6.01065C5.76467 24.1001 5.52363 24.0324 5.31263 23.906C5.10162 23.7795 4.92825 23.5989 4.81058 23.3829C4.69292 23.1669 4.63519 22.9233 4.64342 22.6774C4.65165 22.4316 4.72559 22.1924 4.85743 21.9847L10.4973 13.2097H9.05579C8.88088 13.2257 8.70511 13.1901 8.55012 13.1075C8.39513 13.0249 8.26759 12.8987 8.18335 12.7446C8.09911 12.5905 8.06177 12.4151 8.0759 12.24C8.09003 12.0649 8.1551 11.8978 8.26297 11.7592L10.335 8.54289" stroke="#A9612D" stroke-width="1.7" stroke-miterlimit="10" stroke-linecap="round"/>
<path d="M36.7772 23.9218C35.9316 23.0481 34.9129 22.3608 33.7862 21.9037C33.7862 21.9037 33.2547 25.4534 32.3267 26.8408C32.1285 27.1291 31.3357 28.039 31.1735 28.2282C30.1458 29.4219 29.4636 30.8736 29.2005 32.4266L22.7949 24.0029H25.4977C25.7449 24.0039 25.9877 23.9381 26.2005 23.8123C26.4132 23.6866 26.588 23.5056 26.7062 23.2885C26.8245 23.0714 26.8817 22.8264 26.872 22.5795C26.8622 22.3325 26.7858 22.0928 26.6508 21.8857L21.02 13.1106H22.4526C22.6275 13.1266 22.8031 13.0911 22.9581 13.0084C23.1131 12.9258 23.2407 12.7997 23.3249 12.6455C23.4091 12.4914 23.4465 12.316 23.4323 12.141C23.4182 11.9659 23.3533 11.7988 23.2454 11.6601L22.3445 10.2997L26.0202 4.56984C26.1041 4.45795 26.2129 4.36713 26.338 4.30458C26.4631 4.24203 26.601 4.20947 26.7409 4.20947C26.8808 4.20947 27.0187 4.24203 27.1438 4.30458C27.2689 4.36713 27.3778 4.45795 27.4617 4.56984L33.4799 13.9575C33.5486 14.0884 33.5839 14.2341 33.583 14.3818C33.582 14.5296 33.5447 14.6749 33.4744 14.8048C33.4041 14.9348 33.303 15.0454 33.1798 15.1271C33.0566 15.2087 32.9152 15.2588 32.7682 15.2729H31.4619L36.57 23.2281C36.7095 23.4322 36.782 23.6746 36.7772 23.9218Z" stroke="#A9612D" stroke-width="1.7" stroke-miterlimit="10" stroke-linecap="round"/>
<path d="M29.4978 41.2736V43.8682H24.0922V36.3455H26.9302C27.0184 36.9306 27.1695 37.5045 27.3806 38.0572C27.8357 39.2748 28.5593 40.3742 29.4978 41.2736Z" stroke="#A9612D" stroke-width="1.7" stroke-miterlimit="10" stroke-linecap="round"/>
<path d="M0.749153 43.8686H44.4262" stroke="#A9612D" stroke-width="1.7" stroke-miterlimit="10"/>
</svg>
