<svg width="15" height="15" viewBox="0 0 15 15" fill="none" xmlns="http://www.w3.org/2000/svg">
<g clip-path="url(#clip0_1018_24679)">
<path d="M7.44814 2.6557L7.44814 11.9455H6.73218C6.72267 11.9462 6.71313 11.9448 6.7042 11.9414C6.69527 11.9381 6.68715 11.9329 6.68041 11.9261C6.67366 11.9194 6.66844 11.9113 6.6651 11.9024C6.66176 11.8934 6.66037 11.8839 6.66103 11.8744L6.61655 5.36838L3.99727 7.59189C3.98744 7.60072 3.97522 7.60643 3.96215 7.6083C3.94907 7.61017 3.93573 7.60811 3.92382 7.60239C3.91191 7.59668 3.90197 7.58756 3.89525 7.57619C3.88854 7.56482 3.88535 7.5517 3.88609 7.53852L3.88609 5.69746C3.88643 5.68779 3.88902 5.67833 3.89365 5.66984C3.89828 5.66135 3.90483 5.65405 3.91277 5.64853L7.41702 2.66904C7.42584 2.66159 7.43667 2.65694 7.44814 2.6557Z" fill="#08863A"/>
<path d="M11.0815 7.50295C11.0811 7.51617 11.077 7.52901 11.0697 7.54004C11.0624 7.55107 11.0522 7.55986 11.0402 7.5654C11.0282 7.57095 11.0148 7.57302 11.0017 7.57142C10.9886 7.56981 10.9762 7.56458 10.9658 7.55631L8.31987 5.36393L8.35989 11.8699C8.35989 11.8888 8.35239 11.9069 8.33904 11.9202C8.3257 11.9336 8.30761 11.9411 8.28874 11.9411H7.44824L7.44824 2.6557C7.45529 2.65277 7.46285 2.65125 7.47049 2.65125C7.47812 2.65125 7.48567 2.65277 7.49272 2.6557L11.0503 5.59074C11.0592 5.59637 11.0664 5.6043 11.0711 5.6137C11.0758 5.6231 11.0778 5.63362 11.077 5.6441L11.0815 7.50295Z" fill="#08863A"/>
</g>
<defs>
<clipPath id="clip0_1018_24679">
<rect width="7.20861" height="9.29426" fill="white" transform="translate(3.8728 2.6557)"/>
</clipPath>
</defs>
</svg>
