<svg width="34" height="27" viewBox="0 0 34 27" fill="none" xmlns="http://www.w3.org/2000/svg">
<g clip-path="url(#clip0_0_489)">
<path d="M13.9255 6.6929L14.5717 8.51684C14.1279 8.74147 13.6756 8.96898 13.2252 9.19937C12.7947 9.4192 12.6465 9.74271 12.8128 10.0864C12.9791 10.43 13.3278 10.5145 13.763 10.2995C14.1982 10.0845 14.6515 9.85215 15.0933 9.62752L16.2146 11.4409C15.7756 11.7394 15.328 12.0428 14.8843 12.3452C14.642 12.5093 14.4985 12.7503 14.6078 13.0172C14.6963 13.2174 14.858 13.3753 15.0591 13.4578C15.2131 13.5096 15.4516 13.4155 15.6122 13.3176C16.0768 13.0296 16.5206 12.7167 16.895 12.4661L18.3498 13.789C17.9697 14.1528 17.6076 14.4801 17.2636 14.8238C16.9501 15.1358 16.9282 15.4727 17.1781 15.7415C17.428 16.0103 17.8015 16.0036 18.116 15.6887C18.4847 15.3172 18.841 14.9332 19.1926 14.5656L21.305 15.9758C21.1263 16.2474 20.9429 16.5114 20.7747 16.7841C20.5666 17.121 20.6284 17.4752 20.9163 17.6682C21.2042 17.8611 21.5492 17.7882 21.7801 17.4618C21.9996 17.1517 22.2039 16.8301 22.4167 16.5114C23.0125 16.7236 23.5845 16.9473 24.1689 17.1306C25.6627 17.6 27.1983 17.7853 28.7595 17.7959C29.5282 17.8016 30.3102 17.7584 31.0628 17.8813C32.5898 18.1319 33.7234 19.4028 33.9534 20.9436C33.9752 21.0469 33.9685 21.1543 33.934 21.254C33.8995 21.3538 33.8385 21.442 33.7577 21.509C32.6259 22.5832 31.2633 23.237 29.8028 23.6939C27.5365 24.4091 25.2028 24.5579 22.8462 24.5291C19.467 24.4892 16.0972 24.1578 12.7738 23.5384C12.5877 23.4878 12.427 23.3686 12.3234 23.2043C10.9342 20.9378 9.36063 18.8125 7.40221 17.0097C5.82959 15.5591 4.09828 14.3649 2.02869 13.7458C1.76833 13.668 1.50132 13.6104 1.2229 13.5394V6.7169L2.33466 6.6065C4.73027 6.3578 7.06763 5.70492 9.24945 4.67505C10.5476 4.06638 11.9577 3.73936 13.3886 3.71509C13.4723 4.31123 13.5521 4.88529 13.6366 5.48814C13.0665 5.7195 12.4964 5.94317 11.9262 6.1822C11.6412 6.30028 11.4948 6.52779 11.5414 6.83882C11.5552 6.97813 11.6188 7.1076 11.7202 7.20301C11.8216 7.29841 11.954 7.35323 12.0925 7.3572C12.2342 7.35489 12.3738 7.32217 12.5021 7.2612C12.9677 7.08169 13.4285 6.89257 13.9255 6.6929Z" fill="white"/>
<path d="M33.982 22.9873C34.077 23.8513 33.8318 24.5233 33.0964 24.9629C31.6834 25.8202 30.1326 26.2733 28.5267 26.5737C26.2756 26.9952 24.0018 27.0595 21.726 26.9577C19.0273 26.8368 16.3277 26.7014 13.6358 26.4777C12.0337 26.3472 10.444 26.0525 8.85138 25.8058C8.20902 25.7098 8.00567 25.8144 7.88214 26.4451C7.81183 26.8003 7.57807 26.9808 7.15332 26.9827C6.07482 26.9827 4.99631 26.9827 3.91781 26.9827C2.87256 26.9827 1.82731 26.9827 0.787765 26.9827C0.169169 26.9827 -0.0674366 26.7321 0.0133326 26.1187C0.123559 25.2778 0.270844 24.4417 0.387721 23.6017C0.42193 23.354 0.535006 23.3051 0.767811 23.3137C4.16922 23.3812 7.55748 23.7617 10.8906 24.4503C15.6588 25.4199 20.4717 25.921 25.334 25.6982C27.9728 25.5773 30.526 25.0436 32.8569 23.7044C33.2351 23.4894 33.5914 23.2379 33.982 22.9873Z" fill="white"/>
<path d="M10.8192 23.141C9.30646 22.9154 7.8146 22.6371 6.30945 22.4835C4.49642 22.2991 2.67294 22.2137 0.852307 22.1062C0.561538 22.0889 0.454162 22.0102 0.394298 21.7145C-0.0333034 19.616 -0.105521 17.532 0.628052 15.4853C0.953029 14.5781 0.818097 14.6943 1.6904 14.9439C3.12239 15.3567 4.37574 16.1246 5.54071 17.0462C7.66542 18.7271 9.34161 20.8122 10.8021 23.0815C10.8102 23.1006 10.816 23.1206 10.8192 23.141Z" fill="white"/>
<path d="M13.3536 2.42581C12.6646 2.52181 12.0061 2.54773 11.3828 2.7138C10.4601 2.95667 9.5308 3.2245 8.66134 3.61233C6.50992 4.58902 4.21437 5.20227 1.86628 5.42762C1.66674 5.44682 1.46624 5.44778 1.24389 5.45834C1.22699 5.37569 1.21556 5.29198 1.20968 5.20779C1.20968 4.50126 1.20208 3.79568 1.20968 3.09011C1.21728 2.38453 1.59737 1.91895 2.25492 1.79703C5.49012 1.19865 8.72627 0.606355 11.9634 0.0201354C12.1281 -0.00704678 12.2965 0.00104344 12.4579 0.0438804C12.6193 0.0867174 12.77 0.163345 12.9002 0.268793C13.0303 0.374242 13.1371 0.506157 13.2136 0.655983C13.2901 0.805809 13.3345 0.970201 13.344 1.1385C13.3821 1.5628 13.3536 1.99479 13.3536 2.42581Z" fill="white"/>
</g>
<defs>
<clipPath id="clip0_0_489">
<rect width="34" height="27" fill="white"/>
</clipPath>
</defs>
</svg>
