<svg width="26" height="30" viewBox="0 0 26 30" fill="none" xmlns="http://www.w3.org/2000/svg">
<g clip-path="url(#clip0_0_233)">
<path d="M7.42857 10.7812C7.42857 8.97193 8.88654 7.5 10.6786 7.5H18.5714V3.28125C18.5714 2.50459 17.9478 1.875 17.1786 1.875H12.5003C11.857 0.755273 10.6575 0 9.28571 0C7.91392 0 6.71438 0.755273 6.07112 1.875H1.39286C0.623594 1.875 0 2.50459 0 3.28125V22.9688C0 23.7454 0.623594 24.375 1.39286 24.375H7.42857V10.7812ZM9.28571 2.34375C10.055 2.34375 10.6786 2.97334 10.6786 3.75C10.6786 4.52666 10.055 5.15625 9.28571 5.15625C8.51645 5.15625 7.89286 4.52666 7.89286 3.75C7.89286 2.97334 8.51645 2.34375 9.28571 2.34375ZM19.9643 16.875H26V28.5938C26 29.3704 25.3764 30 24.6071 30H10.6786C9.90931 30 9.28571 29.3704 9.28571 28.5938V10.7812C9.28571 10.0046 9.90931 9.375 10.6786 9.375H18.5714V15.4688C18.5714 16.2422 19.1982 16.875 19.9643 16.875ZM26 14.645V15H20.4286V9.375H20.7802C21.1496 9.375 21.5039 9.52315 21.7651 9.78686L25.592 13.6506C25.8532 13.9143 26 14.272 26 14.645Z" fill="white"/>
</g>
<defs>
<clipPath id="clip0_0_233">
<rect width="26" height="30" fill="white"/>
</clipPath>
</defs>
</svg>
