<svg width="70" height="28" viewBox="0 0 70 28" fill="none" xmlns="http://www.w3.org/2000/svg">
<path d="M69.6856 13.561C69.7739 13.5102 69.8474 13.4378 69.8993 13.3507C69.9511 13.2636 69.9794 13.1648 69.9816 13.0637V12.8454V12.7363L70 11.5235C70.0008 11.6339 69.972 11.7425 69.9166 11.8383C69.8611 11.9341 69.7809 12.0136 69.6843 12.0686L46.1056 25.6383C45.8278 25.798 45.5123 25.8824 45.191 25.883C44.8697 25.8836 44.5539 25.8004 44.2755 25.6417L0.324038 0.553163C0.226212 0.498042 0.145084 0.417975 0.0890882 0.321287C0.0330921 0.224599 0.00427315 0.114822 0.00562914 0.00336803L0.000189234 0V1.38729C-0.00292997 1.5292 0.032562 1.66932 0.10295 1.79296C0.173337 1.91661 0.276027 2.01922 0.400243 2.09003L4.63346 4.50483L4.72667 4.55805L32.0419 20.1538L32.2092 20.2495L36.7466 22.8395L36.9146 22.9358L44.5707 27.3059C44.7521 27.4098 44.9579 27.4645 45.1674 27.4645C45.3769 27.4645 45.5827 27.4098 45.7641 27.3059L53.308 22.9729L54.2815 22.413L69.1257 13.8871L69.6856 13.561Z" fill="#03476D"/>
</svg>
