<svg width="20" height="35" viewBox="0 0 20 35" fill="none" xmlns="http://www.w3.org/2000/svg">
<g clip-path="url(#clip0_0_275)">
<path d="M8.51475 19.2227C8.64859 20.0892 8.77672 20.9328 8.90913 21.775C9.07145 22.8163 9.26083 23.8532 9.38755 24.8988C9.4296 25.2717 9.38676 25.6493 9.26226 26.0031C8.42078 28.3133 7.54655 30.6093 6.68656 32.9124C6.426 33.6113 5.95898 34.0582 5.20293 34.094C4.52661 34.1284 4.01262 33.8076 3.69795 33.2031C3.45163 32.7262 3.50146 32.2464 3.68656 31.7565C4.44831 29.7514 5.19012 27.7318 5.96468 25.7267C6.1274 25.3178 6.17278 24.8711 6.09567 24.4376C5.80236 22.6773 5.52614 20.9128 5.26131 19.1482C5.23448 18.9281 5.23114 18.7058 5.25134 18.485C5.37806 16.646 5.5062 14.8084 5.65001 12.9722C5.67964 12.8276 5.76255 12.6997 5.88209 12.6141C6.76913 11.9539 7.66614 11.3079 8.55888 10.6562C8.66599 10.5865 8.75722 10.4947 8.82656 10.3869C8.73116 10.4213 8.63577 10.4528 8.54179 10.4886C7.24754 10.9957 5.95756 11.5084 4.65903 12.0026C4.55146 12.0354 4.45564 12.0988 4.38312 12.1853C4.31061 12.2717 4.26451 12.3773 4.25039 12.4895C3.96562 13.8445 3.67374 15.198 3.38043 16.5515C3.23805 17.2304 2.7867 17.6701 2.19581 17.7231C1.60493 17.7761 1.02971 17.4882 0.838913 16.9368C0.736405 16.6347 0.71239 16.3112 0.769147 15.9972C1.10944 14.3243 1.49244 12.6614 1.8484 10.9928C1.89518 10.7306 2.0112 10.4859 2.1843 10.2843C2.35739 10.0827 2.5812 9.93166 2.83227 9.84697C4.34294 9.2626 5.84934 8.66534 7.35717 8.07238C7.48318 8.02673 7.60245 7.96409 7.71171 7.88618L6.18679 8.091C6.30522 7.71909 6.54065 7.39601 6.85757 7.17046C7.1745 6.94492 7.55574 6.82915 7.94379 6.84062C9.27507 6.91367 10.6078 7.02538 11.9305 7.19869C12.3847 7.26569 12.7979 7.50007 13.0899 7.85632C13.382 8.21256 13.532 8.66526 13.5109 9.12654C13.4953 9.84268 13.3956 10.5588 13.3572 11.2835C13.3503 11.4653 13.39 11.6459 13.4725 11.8078C13.9139 12.6671 14.5589 13.346 15.3235 13.9433C16.4269 14.8027 17.4863 15.7351 18.5641 16.6374C19.0112 17.0127 19.1977 17.4896 19.051 18.0611C18.994 18.3069 18.8657 18.5301 18.6825 18.7024C18.4992 18.8748 18.2692 18.9886 18.0216 19.0293C17.5517 19.131 17.1673 18.9548 16.8028 18.6569C15.6429 17.683 14.4801 16.7114 13.3145 15.7422C13.2304 15.6721 13.145 15.599 13.0069 15.493C12.9628 15.9599 12.9186 16.381 12.8816 16.8021C12.8303 17.365 12.7634 17.9279 12.7392 18.4936C12.7318 18.7554 12.7804 19.0158 12.8816 19.257C13.4597 20.5862 14.042 21.9154 14.6642 23.2259C15.1184 24.1827 15.2509 25.2196 15.4915 26.2337C15.9471 28.1515 16.3643 30.0793 16.7971 32.0043C16.9993 32.8966 16.6377 33.6772 15.8802 33.9852C15.6692 34.0786 15.4403 34.124 15.2099 34.1181C14.9794 34.1123 14.7531 34.0553 14.5471 33.9514C14.341 33.8474 14.1604 33.6989 14.0179 33.5166C13.8755 33.3343 13.7748 33.1226 13.7231 32.8966C13.4739 31.9442 13.276 30.976 13.0596 30.0149C12.6979 28.4155 12.3363 26.8157 11.9746 25.2153C11.9335 25.0435 11.8758 24.8761 11.8024 24.7155C11.0791 23.0989 10.3529 21.4828 9.6239 19.8672C9.3192 19.1854 9.31921 19.1854 8.51475 19.2227Z" fill="white"/>
<path d="M10.8199 5.94379C10.4333 5.95139 10.049 5.88163 9.68941 5.73855C9.32981 5.59547 9.00204 5.38194 8.72517 5.11036C8.4483 4.83877 8.22784 4.51455 8.07659 4.15653C7.92535 3.7985 7.84633 3.41382 7.84414 3.02481C7.84082 2.25793 8.1326 1.51949 8.65838 0.964167C9.18415 0.40884 9.90314 0.0796966 10.6647 0.0456692C12.3477 -0.0187833 13.6804 1.33472 13.7132 2.85294C13.7502 4.60318 12.5129 5.91372 10.8199 5.94379Z" fill="white"/>
</g>
<defs>
<clipPath id="clip0_0_275">
<rect width="20" height="35" fill="white"/>
</clipPath>
</defs>
</svg>
