<svg width="28" height="25" viewBox="0 0 28 25" fill="none" xmlns="http://www.w3.org/2000/svg">
<g clip-path="url(#clip0_0_516)">
<path d="M28 13.5313C27.9085 14.1501 27.8483 14.7761 27.7206 15.3865C27.1843 18.0393 25.8156 20.4519 23.8135 22.2739C23.5736 22.5039 23.2526 22.63 22.9202 22.6249C22.5878 22.6197 22.2709 22.4836 22.0382 22.2463C21.9197 22.1318 21.8251 21.9949 21.7602 21.8434C21.6954 21.6919 21.6614 21.529 21.6604 21.3643C21.6594 21.1995 21.6913 21.0362 21.7544 20.884C21.8174 20.7317 21.9102 20.5936 22.0274 20.4777C22.6609 19.8216 23.2848 19.1631 23.7798 18.3902C24.6526 17.0509 25.1972 15.5248 25.3696 13.9358C25.6972 10.8863 24.8565 8.18962 22.8404 5.87575C22.3887 5.35807 21.8467 4.91263 21.3288 4.45877C20.8953 4.07834 20.711 3.62447 20.8724 3.07068C20.927 2.86928 21.0314 2.68484 21.176 2.53437C21.3207 2.38389 21.5009 2.27221 21.7 2.20962C21.8991 2.14702 22.1108 2.13552 22.3156 2.17617C22.5204 2.21683 22.7116 2.30833 22.8717 2.44225C23.5069 2.94469 24.1039 3.49357 24.6578 4.08436C26.3058 5.88065 27.3981 8.11563 27.8025 10.5192C27.8856 10.9923 27.9338 11.4714 27.9976 11.947L28 13.5313Z" fill="white"/>
<path d="M16.7076 4.41316C16.7076 5.45091 16.7076 6.48987 16.7076 7.52762C16.7001 7.60285 16.716 7.67856 16.753 7.74446C16.7901 7.81036 16.8465 7.86328 16.9147 7.89601C18.307 8.72188 19.1585 9.94263 19.3849 11.5366C19.6403 13.3364 19.0682 14.875 17.7108 16.0993C17.4697 16.3073 17.2105 16.4935 16.9364 16.6555C16.8615 16.6935 16.7995 16.753 16.7586 16.8263C16.7176 16.8997 16.6994 16.9835 16.7064 17.0673C16.7144 19.1259 16.7144 21.1838 16.7064 23.2408C16.7149 23.5135 16.6886 23.7862 16.6281 24.0522C16.3992 24.9251 15.7224 25.2236 14.9058 24.8287C14.718 24.7373 14.5358 24.6348 14.3602 24.5217C11.093 22.4503 7.82548 20.3768 4.55752 18.3012C4.38859 18.2029 4.19773 18.1482 4.0023 18.1423C3.50247 18.1183 3.00023 18.1496 2.49919 18.1255C1.06234 18.0593 0.024145 17.0107 0.0108965 15.5708C-0.00997983 13.3765 -0.00997983 11.1822 0.0108965 8.98794C0.0253494 7.51318 1.12979 6.45977 2.61602 6.43088C3.09056 6.42245 3.56389 6.44171 4.03722 6.42245C4.21485 6.4173 4.38869 6.36983 4.54428 6.284C7.80179 4.33852 11.0573 2.38861 14.3108 0.434299C14.5177 0.302211 14.7372 0.190909 14.966 0.102023C15.8862 -0.226639 16.6365 0.260937 16.669 1.24572C16.7027 2.30033 16.6762 3.35734 16.6762 4.41316H16.7076Z" fill="white"/>
<path d="M23.7075 12.9882C23.7172 14.3498 23.3101 15.9257 22.4935 17.3969C22.2394 17.8543 21.8648 18.1276 21.3312 18.1252C21.1062 18.1315 20.8838 18.0746 20.6894 17.961C20.4951 17.8474 20.3365 17.6815 20.2316 17.4823C20.004 17.079 20.0365 16.6745 20.2135 16.252C20.4857 15.6007 20.7989 14.953 20.9663 14.2728C21.4276 12.3899 21.0964 10.6105 20.1052 8.94916C20.0076 8.78543 19.8944 8.63013 19.7992 8.4676C19.6215 8.18506 19.5626 7.84382 19.6352 7.51806C19.7078 7.19231 19.9061 6.90837 20.1871 6.72798C20.7724 6.35477 21.5456 6.4872 21.919 7.08915C22.3521 7.77087 22.733 8.48441 23.0583 9.22365C23.5208 10.3156 23.7075 11.4761 23.7075 12.9882Z" fill="white"/>
</g>
<defs>
<clipPath id="clip0_0_516">
<rect width="28" height="25" fill="white"/>
</clipPath>
</defs>
</svg>
