<svg width="44" height="42" viewBox="0 0 44 42" fill="none" xmlns="http://www.w3.org/2000/svg">
<path d="M26.8067 16.4305C28.6561 16.4305 30.1553 14.9313 30.1553 13.0819C30.1553 11.2326 28.6561 9.7334 26.8067 9.7334C24.9574 9.7334 23.4581 11.2326 23.4581 13.0819C23.4581 14.9313 24.9574 16.4305 26.8067 16.4305Z" fill="#A9612D"/>
<path d="M12.9678 16.4307L21.4001 14.582" stroke="#A9612D" stroke-width="1.7" stroke-miterlimit="10" stroke-linecap="round"/>
<path d="M13.5869 8.38184L21.3828 11.0589" stroke="#A9612D" stroke-width="1.7" stroke-miterlimit="10" stroke-linecap="round"/>
<path d="M20.188 3.9873L23.432 8.19914" stroke="#A9612D" stroke-width="1.7" stroke-miterlimit="10" stroke-linecap="round"/>
<path d="M26.8764 0.891602L26.7717 7.09164" stroke="#A9612D" stroke-width="1.7" stroke-miterlimit="10" stroke-linecap="round"/>
<path d="M34.3323 2.56543L30.1204 8.15505" stroke="#A9612D" stroke-width="1.7" stroke-miterlimit="10" stroke-linecap="round"/>
<path d="M40.3752 8.4873L32.2131 10.99" stroke="#A9612D" stroke-width="1.7" stroke-miterlimit="10" stroke-linecap="round"/>
<path d="M43 18.21L32.2306 14.5039" stroke="#A9612D" stroke-width="1.7" stroke-miterlimit="10" stroke-linecap="round"/>
<path d="M40.6194 32.2583L30.1814 17.3643" stroke="#A9612D" stroke-width="1.7" stroke-miterlimit="10" stroke-linecap="round"/>
<path d="M26.6671 28.9621L26.8415 18.4805" stroke="#A9612D" stroke-width="1.7" stroke-miterlimit="10" stroke-linecap="round"/>
<path d="M14.9211 28.7958L23.493 17.4072" stroke="#A9612D" stroke-width="1.7" stroke-miterlimit="10" stroke-linecap="round"/>
<path d="M1.32642 40.2978L21.8101 28.7959L41.7966 40.2978" stroke="#A9612D" stroke-width="1.7" stroke-miterlimit="10" stroke-linecap="round"/>
</svg>
