<svg width="28" height="28" viewBox="0 0 28 28" fill="none" xmlns="http://www.w3.org/2000/svg">
<g clip-path="url(#clip0_1018_21753)">
<path d="M20.001 12.2028C20.001 11.696 20.001 11.2079 20.001 10.7247C20.001 10.3362 19.8658 10.2028 19.4739 10.2028H17.2996C16.9414 10.2028 16.8029 10.3447 16.8012 10.7095C16.8012 11.1994 16.8012 11.6893 16.8012 12.1943H11.2024V10.7433C11.2024 10.3379 11.0707 10.2095 10.6601 10.2095H8.51117C8.13949 10.2095 8.00434 10.3481 8.00434 10.7247C8.00434 11.2062 8.00434 11.6893 8.00434 12.169C6.56326 12.5339 5.04953 11.9595 4.37545 10.794C4.14341 10.4061 4.01756 9.96388 4.01053 9.51191C4.0004 8.4038 4.0004 7.29569 4.01053 6.18759C4.0105 6.03015 4.04191 5.87429 4.10292 5.72916C4.16393 5.58402 4.25331 5.45253 4.36582 5.34239C4.47834 5.23226 4.61171 5.14569 4.75813 5.08778C4.90454 5.02987 5.06106 5.00178 5.21848 5.00515C6.47541 5.00515 7.73403 5.00515 8.99096 5.00515H22.6331C23.5336 5.00515 24.0032 5.47475 24.0032 6.37508C24.0032 7.32441 24.0032 8.27374 24.0032 9.22306C24.0032 11.0237 22.8206 12.2028 21.0112 12.2045L20.001 12.2028Z" fill="white"/>
<path d="M4.80273 12.3779C5.7995 13.0958 6.89593 13.0114 8.01265 12.9979C7.96703 13.6533 8.0836 14.2327 8.61408 14.6499C8.92155 14.8995 9.31195 15.0238 9.70714 14.9979C10.6448 14.9472 11.1533 14.2867 11.2175 13.0215H16.8078C16.7985 13.1407 16.7985 13.2604 16.8078 13.3796C16.8339 13.6179 16.8907 13.8518 16.9767 14.0756C17.0211 14.146 17.0388 14.23 17.0267 14.3124C17.0146 14.3947 16.9735 14.4701 16.9109 14.5249C15.3701 16.3413 14.8796 18.4095 15.4394 20.7293C15.458 20.8087 15.4816 20.8881 15.512 21.0012H6.94831C5.64576 21.0012 4.80443 20.1566 4.80443 18.8627V12.3779H4.80273Z" fill="white"/>
<path d="M21.9995 13.002C23.1881 13.0013 24.3501 13.3536 25.3382 14.0141C26.3262 14.6747 27.0959 15.6137 27.5495 16.7122C28.0031 17.8106 28.1202 19.0191 27.886 20.1842C27.6518 21.3493 27.0769 22.4186 26.234 23.2566C25.3912 24.0945 24.3185 24.6633 23.1519 24.8909C21.9853 25.1185 20.7774 24.9946 19.6814 24.5348C18.5854 24.0751 17.6505 23.3003 16.9955 22.3086C16.3405 21.317 15.9947 20.1532 16.0021 18.9648C16.0123 17.3807 16.6486 15.8648 17.7721 14.7478C18.8955 13.6308 20.4152 13.0033 21.9995 13.002ZM24.4509 15.3668C22.8747 14.2334 20.3963 14.3009 18.8082 15.9783C17.2201 17.6557 17.3164 20.0442 18.369 21.4479L24.4509 15.3668ZM19.5516 22.6303C21.023 23.7283 23.5589 23.7722 25.2145 21.9986C26.8448 20.2536 26.6049 17.8009 25.62 16.5628L19.5516 22.6303Z" fill="white"/>
<path d="M18.0002 4.198H16.4088V2.61861H11.6074V4.18617H10.0295C10.0295 3.56286 9.9704 2.93449 10.043 2.32807C10.093 1.95504 10.2797 1.61382 10.5668 1.37044C10.8539 1.12705 11.2211 0.998801 11.5973 1.0105C13.1978 1.0105 14.7977 1.0105 16.397 1.0105C16.608 1.00892 16.8173 1.04937 17.0125 1.1295C17.2078 1.20963 17.3851 1.32783 17.5342 1.4772C17.6833 1.62657 17.8011 1.80414 17.8808 1.99952C17.9606 2.19491 18.0006 2.40422 17.9986 2.61523C18.0053 3.13212 18.0002 3.65408 18.0002 4.198Z" fill="white"/>
<path d="M8.80658 11.0137H10.4031V12.9157C10.4031 13.0981 10.4115 13.2822 10.4031 13.4647C10.3869 13.6657 10.2955 13.8533 10.147 13.9898C9.99854 14.1263 9.80401 14.2018 9.6023 14.2012C9.40384 14.2026 9.21228 14.1285 9.06641 13.9939C8.92055 13.8594 8.83128 13.6744 8.81672 13.4765C8.79306 12.6623 8.80658 11.8481 8.80658 11.0137Z" fill="white"/>
<path d="M17.6315 13.7622C17.5673 12.8197 17.618 11.9244 17.5977 11.0156H19.201C19.179 11.3503 19.179 11.686 19.201 12.0207C19.277 12.5815 19.125 12.9481 18.5573 13.1575C18.2482 13.2825 17.9829 13.5291 17.6315 13.7622Z" fill="white"/>
</g>
<defs>
<clipPath id="clip0_1018_21753">
<rect width="24" height="24" fill="white" transform="translate(4 1)"/>
</clipPath>
</defs>
</svg>
