<svg width="26" height="26" viewBox="0 0 26 26" fill="none" xmlns="http://www.w3.org/2000/svg">
<g clip-path="url(#clip0_318_22650)">
<path d="M23.6494 3.85655C23.0629 3.26797 22.3667 2.80107 21.6003 2.48251C20.834 2.16396 20.0126 2 19.1831 2C18.3535 2 17.5321 2.16396 16.7658 2.48251C15.9994 2.80107 15.3032 3.26797 14.7167 3.85655L13.4997 5.07749L12.2826 3.85655C11.0981 2.66822 9.49152 2.00062 7.81633 2.00062C6.14114 2.00062 4.53455 2.66822 3.35001 3.85655C2.16547 5.04489 1.5 6.65662 1.5 8.33718C1.5 10.0177 2.16547 11.6295 3.35001 12.8178L4.56705 14.0387L12.0832 21.579C12.8648 22.3631 14.1346 22.3631 14.9162 21.579L22.4323 14.0387L23.6494 12.8178C24.2361 12.2295 24.7015 11.531 25.019 10.7622C25.3366 9.99339 25.5 9.16936 25.5 8.33718C25.5 7.50499 25.3366 6.68096 25.019 5.91216C24.7015 5.14336 24.2361 4.44486 23.6494 3.85655Z" fill="#8E969B"/>
</g>
<defs>
<clipPath id="clip0_318_22650">
<rect width="24" height="21" fill="white" transform="translate(1.5 2)"/>
</clipPath>
</defs>
</svg>
