<svg width="129" height="129" viewBox="0 0 129 129" fill="none" xmlns="http://www.w3.org/2000/svg">
<circle cx="64.5" cy="64.5" r="63" stroke="#57A2FB" stroke-width="3"/>
<g clip-path="url(#clip0_0_39)">
<path d="M29.1199 84.1135C29.1199 80 29.1072 75.8886 29.1325 71.7751C29.1514 68.8473 31.1809 66.4904 33.9459 66.0994L34.0194 66.114L34.0845 66.0847C34.3682 66.0534 34.6518 65.999 34.9375 65.9948C36.2948 65.976 37.6542 65.9697 39.0114 65.9593L39.1648 66.0199C39.7299 66.1804 40.3288 66.1804 40.8939 66.0199C41.5242 66.0095 42.1545 65.9927 42.7848 65.9927H83.265C83.6033 65.9927 83.9436 65.976 84.284 65.9676L89.0112 65.9551L89.9462 66.0011C90.0807 66.4193 90.5219 66.3984 90.8223 66.5469C93.2154 67.7285 94.2197 69.6838 94.1566 72.279C93.8023 72.1096 93.4152 72.019 93.0221 72.0135C89.36 72.0135 85.6959 72.003 82.0317 72.0135C80.8509 72.0135 80.2017 72.7098 80.1849 73.883C80.1681 75.0562 80.1849 76.2796 80.1849 77.4779C80.1849 78.8979 80.8656 79.5692 82.3111 79.5692C85.7652 79.5692 89.2192 79.5692 92.6733 79.5692C93.1959 79.5887 93.7155 79.4825 94.1881 79.2597C94.1881 80.863 94.1916 82.4663 94.1986 84.0696C93.8583 84.0696 93.52 84.0968 93.1797 84.0968H52.149C44.4719 84.1037 36.7955 84.1093 29.1199 84.1135ZM63.9966 72.0239C60.8829 72.0239 57.7671 72.0239 54.6534 72.0239C53.3928 72.0239 52.71 72.7161 52.6953 73.95C52.6806 75.1483 52.6827 76.3465 52.6953 77.5448C52.7079 78.8519 53.4285 79.5629 54.7522 79.565C60.9263 79.565 67.1019 79.565 73.2789 79.565C74.6109 79.565 75.3001 78.8665 75.3148 77.5323C75.3148 76.4114 75.3148 75.2905 75.3148 74.1716C75.3148 72.6659 74.6845 72.026 73.1801 72.0239C70.1183 72.0169 67.0564 72.0169 63.9945 72.0239H63.9966ZM40.9864 72.0072C39.1543 72.0072 37.3243 71.9884 35.4943 72.0072C34.303 72.0239 33.6538 72.6889 33.6349 73.8621C33.616 75.1169 33.6181 76.3612 33.6349 77.6118C33.6517 78.8623 34.3409 79.5545 35.654 79.5566C39.2103 79.5566 42.7673 79.5566 46.325 79.5566C47.6802 79.5566 48.3252 78.9042 48.342 77.5302C48.3567 76.3842 48.342 75.2298 48.342 74.0943C48.3294 72.6157 47.7264 72.003 46.241 72.003C44.4887 71.9988 42.7365 72.0072 40.9843 72.0072H40.9864Z" fill="#5A6C76"/>
<path d="M29.1202 84.1131C36.7973 84.1131 44.4737 84.1131 52.1493 84.1131H93.1779C93.5182 84.1131 93.8565 84.0943 94.1969 84.0859L98.8968 84.1194C99.5271 84.1194 100.157 84.0943 100.777 84.1194C101.356 84.1149 101.913 84.3388 102.327 84.7421C102.74 85.1454 102.976 85.6952 102.983 86.2713C103.007 87.1817 103.007 88.0928 102.983 89.0046C102.948 90.2823 102.088 91.1544 100.802 91.1774C99.2351 91.2088 97.6656 91.1774 96.0983 91.1962C95.821 91.1962 95.5205 91.1063 95.2684 91.3175C94.2179 91.054 93.1674 91.1565 92.1169 91.2213C91.3446 91.1523 90.5676 91.1523 89.7953 91.2213C89.1042 91.1418 88.4063 91.1418 87.7152 91.2213C86.9463 91.155 86.1731 91.155 85.4041 91.2213L82.2757 91.1732C82.2883 88.9502 81.2967 88.4358 79.3175 88.4546C68.7704 88.5048 58.2213 88.4776 47.6742 88.4797C47.3338 88.4797 46.9914 88.4671 46.6531 88.4985C46.2454 88.5319 45.86 88.6978 45.5563 88.9707C45.2526 89.2435 45.0474 89.6081 44.9723 90.0084C44.8988 90.3911 44.8714 90.7822 44.8231 91.169L41.6611 91.2255H39.4971C38.8066 91.1481 38.1096 91.1481 37.4192 91.2255C36.6467 91.1596 35.87 91.1596 35.0976 91.2255C34.0176 91.1774 32.9356 91.0457 31.8704 91.3468C31.6204 91.1377 31.322 91.2046 31.03 91.2046C29.7484 91.2046 28.4668 91.2192 27.1872 91.19C25.9077 91.1607 25.061 90.3095 25.0169 89.0841C24.9833 88.1242 24.9833 87.158 25.0169 86.196C25.0393 85.6439 25.2728 85.1212 25.6696 84.7348C26.0664 84.3484 26.5965 84.1275 27.1515 84.1173C27.8134 84.0839 28.4668 84.1089 29.1202 84.1131Z" fill="#CCD3D9"/>
<path d="M39.0118 65.9605C37.6546 65.9709 36.2952 65.9772 34.938 65.996C34.6522 65.996 34.3686 66.0546 34.085 66.086C34.5829 63.5764 34.8665 61.0188 35.2216 58.4821C35.6964 55.2595 36.1439 52.0327 36.6566 48.8184C37.1755 45.5644 40.2955 42.9629 43.5899 42.9629C45.2707 42.9629 46.9466 42.9629 48.6176 42.9629H80.7862C81.9901 42.9629 83.194 42.9775 84.3999 42.9775C87.7006 42.9775 90.8333 45.5874 91.3459 48.8331C91.8102 51.7713 92.1863 54.72 92.6191 57.6624C92.6611 57.9447 92.7284 58.2228 92.783 58.4989L93.8797 65.9856H89.9466L89.0117 65.9396C88.9276 65.3226 88.8562 64.7057 88.7595 64.093C88.2091 60.6152 87.604 57.1479 87.1166 53.6618C86.6964 50.6587 84.7613 48.3416 81.8283 47.8815C80.3744 47.6536 78.8575 47.8167 77.37 47.8042C69.2328 47.7184 61.0934 47.9422 52.9562 47.662C51.0464 47.5971 49.1324 47.6327 47.2205 47.662C44.1278 47.6954 41.4742 50.1108 41.0351 53.1473C40.6485 55.8116 40.1296 58.4591 39.7178 61.1213C39.4677 62.7316 39.037 64.3126 39.0118 65.9605Z" fill="#F1F1F1"/>
<path d="M55.0444 29.0332H74.8612L74.8738 38.6781C72.5774 38.6927 70.2831 38.7199 67.9867 38.7199C63.681 38.7199 59.376 38.7102 55.0717 38.6906L55.0444 29.0332Z" fill="#D7EAFD"/>
<path d="M55.0614 38.6825C59.3671 38.6922 63.672 38.702 67.9763 38.7117C70.2727 38.7117 72.567 38.6846 74.8634 38.6699L80.658 38.6929L80.824 38.7452L80.7862 42.9403H48.6176C48.4663 41.5433 48.5924 40.1401 48.5483 38.741L50.1576 38.6825H55.0614Z" fill="#5A6D77"/>
<path d="M37.4171 91.2146C38.1076 91.1372 38.8046 91.1372 39.495 91.2146C39.495 92.2602 39.4719 93.3059 39.4803 94.3389C39.4803 95.0625 39.8165 95.372 40.5308 95.3846C41.3166 95.3971 41.6612 95.096 41.6696 94.3389C41.6696 93.2933 41.6696 92.2477 41.6527 91.202L44.8148 91.1456C44.8358 92.1243 44.8274 93.1072 44.8862 94.0859C44.9639 95.3867 45.756 96.1186 47.0418 96.1437C47.794 96.1604 48.5462 96.1688 49.2983 96.1792C49.25 97.434 49.5315 98.7327 48.8235 99.9059C48.126 100.724 47.2141 100.989 46.172 100.987C42.4616 100.975 38.7499 100.975 35.0367 100.987C33.9631 100.987 33.0323 100.724 32.3054 99.9142C31.9461 99.2451 31.7789 98.4905 31.8221 97.733C31.8452 95.5979 31.8494 93.4627 31.8599 91.3254C32.9252 91.0243 34.0072 91.156 35.0871 91.2041C35.0871 92.164 35.0661 93.126 35.0703 94.088C35.0703 94.9789 35.398 95.3427 36.1754 95.3678C36.9024 95.3929 37.4066 94.8994 37.4213 94.0901C37.4465 93.1386 37.4234 92.1766 37.4171 91.2146Z" fill="#B0BABF"/>
<path d="M82.2712 91.167L85.3996 91.2151C85.3996 92.2043 85.3744 93.1934 85.3849 94.1847C85.3849 95.0212 85.7694 95.3914 86.5804 95.3788C86.7367 95.3822 86.892 95.3534 87.0365 95.2942C87.1811 95.2349 87.3117 95.1466 87.4203 95.0346C87.5288 94.9226 87.6129 94.7895 87.6673 94.6436C87.7216 94.4976 87.745 94.3421 87.7359 94.1868C87.7359 93.1955 87.7359 92.2064 87.7212 91.2151C88.4123 91.1356 89.1102 91.1356 89.8012 91.2151C89.8012 92.2754 89.7823 93.3356 89.7844 94.398C89.7844 95.0254 90.1143 95.3453 90.7383 95.3809C91.6102 95.4311 92.0976 94.9856 92.1312 94.0174C92.1628 93.0868 92.1312 92.1541 92.1312 91.2235C93.1817 91.1586 94.2323 91.0562 95.2828 91.3197C95.2828 93.6472 95.2827 95.9748 95.2996 98.3024C95.276 98.8717 95.113 99.4266 94.8247 99.9189C94.0264 100.801 92.999 101.008 91.856 101.002C88.2759 100.977 84.6951 100.977 81.1135 101.002C80.0189 101.002 79.0504 100.766 78.3045 99.9189C77.5754 98.7374 77.9116 97.4282 77.8612 96.1672C78.5902 96.1672 79.3319 96.1672 80.0504 96.1672C81.4266 96.1484 82.2229 95.3558 82.2481 93.9818C82.2502 93.0345 82.2586 92.0997 82.2712 91.167Z" fill="#B0BABF"/>
<path d="M89.9463 65.9863H93.8794C93.9466 66.1327 94.0685 66.1285 94.2008 66.0993C95.5092 66.3295 96.6949 67.0095 97.5511 68.0207C98.4073 69.0319 98.8798 70.3103 98.8861 71.6327C98.9092 75.7922 98.8861 79.9518 98.8966 84.1113L94.1966 84.0778C94.1966 82.4717 94.1931 80.8684 94.1861 79.2679C94.766 78.743 94.9614 78.0843 94.9425 77.3168C94.9152 76.2837 94.9173 75.2464 94.9425 74.2133C94.9614 73.4438 94.7555 72.7892 94.1588 72.2768C94.2218 69.6899 93.2176 67.7263 90.8245 66.5447C90.522 66.392 90.0808 66.4192 89.9463 65.9863Z" fill="#465A61"/>
<path d="M35.2213 58.4831C34.8662 61.0198 34.591 63.569 34.0846 66.0869L34.0195 66.1162L33.946 66.1015C33.7359 65.8799 33.4522 65.9844 33.2022 65.9823C31.7903 65.9698 30.3784 65.9949 28.9666 65.9677C27.88 65.9638 26.8395 65.5304 26.0739 64.7629C25.3083 63.9954 24.8804 62.9566 24.8843 61.8751C24.8882 60.7936 25.3236 59.7579 26.0947 58.9958C26.8658 58.2338 27.9094 57.8079 28.996 57.8118C30.12 57.7909 31.2462 57.839 32.3702 57.795C33.3676 57.7432 34.3585 57.9823 35.2213 58.4831Z" fill="#B8CCD9"/>
<path d="M94.2009 66.1057C94.0685 66.135 93.9467 66.1392 93.8794 65.9928L92.7827 58.481C93.7227 57.9551 94.7982 57.7186 95.8733 57.8013C96.9238 57.8473 97.9743 57.8013 99.0143 57.818C100.101 57.818 101.143 58.2477 101.911 59.0124C102.68 59.7772 103.111 60.8145 103.111 61.896C103.111 62.9775 102.68 64.0148 101.911 64.7795C101.143 65.5443 100.101 65.974 99.0143 65.974C97.655 65.9991 96.2935 65.974 94.932 65.9865C94.6904 65.9865 94.411 65.8673 94.2009 66.1057Z" fill="#B8CCD9"/>
<path d="M80.6578 38.6943L74.8632 38.6713L74.8506 29.0264H79.8741C79.9446 29.1003 80.0244 29.165 80.1115 29.2188C81.4688 29.798 81.9646 30.873 81.9289 32.2783C81.8785 33.2396 81.8785 34.2029 81.9289 35.1642C82.0507 36.6762 81.4877 37.7783 80.1115 38.4872L80.6578 38.6943Z" fill="#FF707B"/>
<path d="M55.0615 38.6824H50.1577C50.0528 38.604 49.9418 38.534 49.8257 38.4733C48.4454 37.9316 47.9201 36.8839 47.9579 35.4598C47.9895 34.205 47.9579 32.9503 47.9579 31.6955C47.9579 30.6645 48.4874 29.9326 49.3467 29.4056L50.0064 29.002H55.0257C55.0383 32.2392 55.0503 35.466 55.0615 38.6824Z" fill="#8CCBFF"/>
<path d="M50.0145 29.0258L49.3547 29.4294C48.4954 29.9564 47.9744 30.6842 47.966 31.7193C47.966 32.9741 47.9891 34.2289 47.966 35.4836C47.9282 36.9078 48.4534 37.9555 49.8338 38.4971C49.9499 38.5579 50.0609 38.6278 50.1657 38.7062L48.5564 38.7648C47.7454 38.7543 46.9344 38.7522 46.1234 38.7334C44.4951 38.6916 43.2849 37.556 43.2261 35.9458C43.1778 34.5655 43.182 33.1832 43.2261 31.803C43.2744 30.1906 44.409 29.0697 46.0225 29.03C47.3462 28.9819 48.6803 29.0195 50.0145 29.0258Z" fill="#AADCFF"/>
<path d="M80.6581 38.6923L80.1202 38.4832C81.4964 37.7742 82.0595 36.6721 81.9376 35.1602C81.8872 34.1988 81.8872 33.2355 81.9376 32.2742C81.9733 30.8689 81.4775 29.794 80.1202 29.2147C80.0331 29.1609 79.9534 29.0963 79.8828 29.0223C81.2695 29.0223 82.6562 28.9721 84.0386 29.0223C84.7391 29.0477 85.4026 29.3418 85.8902 29.8431C86.3777 30.3444 86.6516 31.014 86.6544 31.7117C86.6908 33.1435 86.6908 34.5753 86.6544 36.0071C86.6187 37.3142 85.7551 38.2845 84.4567 38.5773C83.3033 38.6421 82.1456 38.4204 80.9922 38.6965L80.8346 38.7425L80.6581 38.6923Z" fill="#FF9198"/>
<path d="M80.9814 38.6992C82.1286 38.4232 83.2926 38.6449 84.446 38.58C83.301 38.8916 82.1475 38.6867 80.9814 38.6992Z" fill="#FB4755"/>
<path d="M39.0117 65.9618C39.0369 64.318 39.4676 62.7328 39.7177 61.1226C40.1379 58.4604 40.6484 55.8129 41.035 53.1486C41.4741 50.1121 44.1277 47.6967 47.2204 47.6632C49.1323 47.6423 51.0463 47.6068 52.9561 47.6632C61.0933 47.9435 69.2327 47.7197 77.3699 47.8054C77.476 47.8727 77.5878 47.9308 77.7039 47.979C80.3344 48.7967 81.803 50.6119 82.261 53.2741C82.6812 55.7376 83.0902 58.2046 83.488 60.675C83.7695 62.4317 84.0196 64.1946 84.2843 65.9534C83.9439 65.9534 83.6036 65.9785 83.2653 65.9785H42.7767C42.1464 65.9785 41.5161 65.9952 40.8858 66.0057C40.3125 65.922 39.73 65.922 39.1567 66.0057L39.0117 65.9618Z" fill="#B2D9FD"/>
<path d="M63.9947 72.0209C67.0552 72.0209 70.1163 72.0209 73.1782 72.0209C74.6804 72.0209 75.3086 72.663 75.3128 74.1687C75.3128 75.2875 75.3128 76.4084 75.3128 77.5293C75.2981 78.8635 74.609 79.562 73.277 79.562C67.1 79.5704 60.9244 79.5704 54.7502 79.562C53.4266 79.562 52.706 78.8489 52.6934 77.5419C52.6808 76.3436 52.6787 75.1453 52.6934 73.947C52.7081 72.7131 53.3972 72.0272 54.6515 72.0209C57.7757 72.0147 60.881 72.023 63.9947 72.0209ZM63.9632 76.9166C66.3443 76.9166 68.7255 76.9166 71.1066 76.9166C72.1172 76.9166 72.4975 76.5903 72.4975 75.7538C72.4975 75.0114 71.9869 74.5744 71.0688 74.5744C66.3583 74.5744 61.6493 74.5744 56.9416 74.5744C56.0214 74.5744 55.5108 75.0093 55.5108 75.7538C55.5108 76.5903 55.8911 76.9145 56.9017 76.9166C59.2534 76.9194 61.6073 76.9194 63.9632 76.9166Z" fill="#C4D2DC"/>
<path d="M94.1568 72.2713C94.7535 72.7836 94.9594 73.4382 94.9405 74.2078C94.9174 75.2409 94.9153 76.2781 94.9405 77.3112C94.9594 78.0787 94.764 78.7374 94.1841 79.2623C93.7115 79.4852 93.1919 79.5913 92.6693 79.5719C89.2152 79.5593 85.7612 79.5719 82.3071 79.5719C80.8616 79.5719 80.1872 78.9068 80.1809 77.4806C80.1809 76.2823 80.1683 75.084 80.1809 73.8857C80.1935 72.6874 80.8469 72.0224 82.0277 72.0161C85.6918 71.9952 89.356 72.0161 93.0181 72.0161C93.4118 72.0178 93.8004 72.1048 94.1568 72.2713Z" fill="#FEF3F0"/>
<path d="M40.9843 72.007C42.7365 72.007 44.4888 72.007 46.2368 72.007C47.7222 72.007 48.3252 72.6218 48.3378 74.0982C48.3378 75.2422 48.3504 76.3882 48.3378 77.5342C48.321 78.9081 47.676 79.5585 46.3209 79.5606C42.7632 79.5606 39.2061 79.5606 35.6498 79.5606C34.3367 79.5606 33.6476 78.8956 33.6308 77.6157C33.614 76.3359 33.614 75.1167 33.6308 73.8661C33.6497 72.6929 34.2989 72.0279 35.4902 72.0112C37.3201 71.9861 39.1501 72.0112 40.9822 72.0112L40.9843 72.007Z" fill="#FEF3F0"/>
<path d="M84.284 65.9614C84.0193 64.2026 83.7693 62.4397 83.4878 60.683C83.0928 58.2126 82.6838 55.7456 82.2608 53.2821C81.8028 50.6199 80.3341 48.8047 77.7037 47.987C77.5876 47.9388 77.4758 47.8807 77.3696 47.8134C78.8571 47.826 80.3741 47.6629 81.828 47.8908C84.7694 48.3509 86.6981 50.668 87.1162 53.671C87.6037 57.1572 88.2087 60.6245 88.7592 64.1023C88.8558 64.715 88.9273 65.3319 89.0113 65.9488L84.284 65.9614Z" fill="#8AC8FD"/>
<path d="M39.165 66.0208C39.7384 65.9371 40.3209 65.9371 40.8942 66.0208C40.3291 66.1812 39.7301 66.1812 39.165 66.0208Z" fill="#7A8D99"/>
<path d="M77.8465 96.1625H50.0018C49.7686 96.1625 49.5333 96.1813 49.298 96.1897C48.5459 96.1897 47.7937 96.1709 47.0415 96.1541C45.7557 96.129 44.9636 95.3971 44.8859 94.0963C44.8271 93.1176 44.8355 92.1347 44.8145 91.156C44.8628 90.7691 44.8901 90.3781 44.9636 89.9954C45.0387 89.5951 45.2439 89.2305 45.5476 88.9576C45.8513 88.6848 46.2367 88.5189 46.6444 88.4855C46.9827 88.4541 47.3252 88.4667 47.6655 88.4667C58.2126 88.4667 68.7618 88.4918 79.3088 88.4416C81.288 88.4311 82.2797 88.9456 82.2671 91.1602C82.2545 92.0929 82.246 93.0277 82.2292 93.9604C82.204 95.3344 81.4077 96.1269 80.0316 96.1458C79.3067 96.1625 78.5756 96.1604 77.8465 96.1625Z" fill="#F1F1F1"/>
<path d="M87.7216 91.2152C87.7216 92.2065 87.7447 93.1956 87.7363 94.1869C87.7453 94.3422 87.7219 94.4978 87.6676 94.6437C87.6133 94.7896 87.5292 94.9227 87.4207 95.0347C87.3121 95.1467 87.1814 95.2351 87.0369 95.2943C86.8923 95.3535 86.737 95.3824 86.5807 95.3789C85.7697 95.3915 85.3937 95.0318 85.3853 94.1848C85.3853 93.1936 85.3853 92.2044 85.4 91.2152C86.1724 91.1483 86.9492 91.1483 87.7216 91.2152Z" fill="#86989E"/>
<path d="M92.1232 91.2214C92.1232 92.152 92.1631 93.0848 92.1232 94.0154C92.0896 94.9836 91.6021 95.429 90.7302 95.3789C90.0999 95.3433 89.7785 95.015 89.7764 94.396C89.7764 93.3336 89.7764 92.2733 89.7932 91.2131C90.5685 91.1463 91.3483 91.1491 92.1232 91.2214Z" fill="#86989E"/>
<path d="M37.417 91.2154C37.417 92.1774 37.4465 93.1394 37.4296 94.1014C37.4149 94.9107 36.9107 95.4042 36.1837 95.3791C35.4064 95.354 35.0828 94.9901 35.0786 94.0993C35.0786 93.1373 35.0786 92.1753 35.0954 91.2154C35.8679 91.1495 36.6446 91.1495 37.417 91.2154Z" fill="#86989E"/>
<path d="M41.6612 91.21C41.6612 92.2556 41.6864 93.3012 41.678 94.3469C41.678 95.0997 41.3251 95.3925 40.5393 95.3925C39.8165 95.3925 39.4888 95.0725 39.4888 94.3469C39.4888 93.3012 39.4888 92.2556 39.5035 91.2225L41.6612 91.21Z" fill="#86989E"/>
<path d="M63.9633 76.9174C61.6073 76.9174 59.2528 76.9174 56.8997 76.9174C55.8891 76.9174 55.5067 76.5912 55.5088 75.7547C55.5088 75.0102 56.0193 74.5752 56.9396 74.5752C61.6486 74.5752 66.3577 74.5752 71.0668 74.5752C71.9849 74.5752 72.4955 75.0123 72.4955 75.7547C72.4955 76.5912 72.1152 76.9153 71.1046 76.9174C68.7248 76.9202 66.3444 76.9202 63.9633 76.9174Z" fill="#9FACBA"/>
</g>
<defs>
<clipPath id="clip0_0_39">
<rect width="78" height="72" fill="white" transform="translate(25 29)"/>
</clipPath>
</defs>
</svg>
