<svg width="33" height="47" viewBox="0 0 33 47" fill="none" xmlns="http://www.w3.org/2000/svg">
<path d="M33 12.8279C32.9133 15.0579 32.0808 17.1944 30.6359 18.8951C30.6061 18.9335 30.5681 18.9647 30.5247 18.9865C30.4812 19.0082 30.4334 19.0199 30.3848 19.0206C30.3388 19.0203 30.2932 19.0098 30.2517 18.9899C30.2101 18.9701 30.1735 18.9412 30.1443 18.9056C28.4496 17.0331 28.6693 15.7674 28.8262 14.8573C28.8312 14.7737 28.8312 14.6899 28.8262 14.6063C29.1134 13.2479 29.0412 11.8381 28.6169 10.5161C28.4485 11.2544 28.1625 11.9608 27.7697 12.6083L27.5186 13.0581C27.0316 13.8077 26.6777 14.6358 26.4726 15.5059C26.3647 16.2387 26.4771 16.987 26.7956 17.6557C27.1142 18.3244 27.6243 18.8832 28.2613 19.2612C28.3243 19.294 28.3749 19.3466 28.4051 19.4108C28.4353 19.4751 28.4436 19.5475 28.4287 19.6169C28.4131 19.6874 28.3751 19.7509 28.3204 19.798C28.2658 19.8452 28.1973 19.8734 28.1253 19.8784H27.8116C26.6249 19.8792 25.484 19.4195 24.6295 18.5962C23.7749 17.7728 23.2732 16.6499 23.2298 15.464C23.2054 14.7728 23.3527 14.0864 23.6586 13.466C23.8186 13.1549 24.0041 12.8575 24.213 12.5769C24.2991 12.4696 24.3794 12.3579 24.4536 12.2421C25.076 11.2719 25.4757 10.1759 25.6241 9.03279C25.7724 7.8897 25.6656 6.72794 25.3115 5.63102C25.1157 4.8808 24.7861 4.17206 24.3386 3.53889C24.2953 3.48366 24.2718 3.41553 24.2718 3.34537C24.2718 3.27521 24.2953 3.20708 24.3386 3.15185C24.3687 3.10799 24.4094 3.0725 24.4569 3.04871C24.5045 3.02493 24.5574 3.01362 24.6106 3.01586H24.7151C29.9141 4.80463 33 8.42401 33 12.8279Z" fill="#A9612D"/>
<path d="M0.854391 19.8575H6.81696" stroke="#A9612D" stroke-width="1.7" stroke-linecap="round" stroke-linejoin="round"/>
<path d="M0.854391 25.5382H6.81696" stroke="#A9612D" stroke-width="1.7" stroke-linecap="round" stroke-linejoin="round"/>
<path d="M0.854391 8.47642H6.81696" stroke="#A9612D" stroke-width="1.7" stroke-linecap="round" stroke-linejoin="round"/>
<path d="M0.854391 14.167H6.81696" stroke="#A9612D" stroke-width="1.7" stroke-linecap="round" stroke-linejoin="round"/>
<path d="M11.2522 3.61234C11.5897 2.6814 12.2463 1.90031 13.1055 1.40795C13.9646 0.915585 14.9705 0.743864 15.9443 0.923317C16.9182 1.10277 17.7968 1.62177 18.424 2.38802C19.0512 3.15428 19.3863 4.11814 19.3697 5.10821V31.8142C20.7228 32.7129 21.7506 34.0233 22.301 35.5516C22.8515 37.0798 22.8953 38.7446 22.4259 40.2997C21.9566 41.8547 20.999 43.2174 19.6949 44.1859C18.3909 45.1544 16.8098 45.6774 15.1855 45.6774C13.5611 45.6774 11.98 45.1544 10.676 44.1859C9.37196 43.2174 8.41434 41.8547 7.94499 40.2997C7.47563 38.7446 7.51945 37.0798 8.06987 35.5516C8.62029 34.0233 9.6481 32.7129 11.0012 31.8142V6.99112" stroke="#A9612D" stroke-width="1.7" stroke-miterlimit="10" stroke-linecap="round"/>
<path d="M20.039 38.091C20.039 39.3838 19.5255 40.6237 18.6113 41.5379C17.6971 42.4521 16.4572 42.9657 15.1644 42.9657C13.8715 42.9657 12.6317 42.4521 11.7175 41.5379C10.8034 40.6237 10.2898 39.3838 10.2898 38.091C10.2739 37.8681 10.2739 37.6444 10.2898 37.4215C10.4444 36.2492 11.0197 35.1731 11.9088 34.3935C12.7979 33.614 13.9401 33.1842 15.1226 33.1842C16.305 33.1842 17.4472 33.614 18.3363 34.3935C19.2254 35.1731 19.8008 36.2492 19.9554 37.4215C19.9993 37.6424 20.0272 37.8661 20.039 38.091Z" stroke="#A9612D" stroke-width="1.7" stroke-miterlimit="10"/>
<path d="M15.175 32.86V19.4599" stroke="#A9612D" stroke-width="1.7" stroke-linecap="round" stroke-linejoin="round"/>
</svg>
