<svg width="28" height="32" viewBox="0 0 28 32" fill="none" xmlns="http://www.w3.org/2000/svg">
<g clip-path="url(#clip0_0_389)">
<path d="M23.4188 0H23.542C24.8799 1.40468 26.218 2.81062 27.5563 4.21781C27.3764 4.53098 27.1867 4.81534 27.0401 5.12225C25.8796 7.57189 25.709 10.076 26.7099 12.6184C27.4183 14.4185 27.932 16.2599 27.9949 18.2085C28.0601 20.2504 27.6253 22.1582 26.4383 23.8418C25.1361 25.6902 23.2969 26.7468 21.2217 27.4415C20.0193 27.8442 18.7898 28.1718 17.6084 28.6315C16.2096 29.1727 15.0214 30.0201 14.3364 31.4501C14.2489 31.6323 14.127 31.7977 14.0001 32.005C13.7586 31.6073 13.5381 31.2584 13.3324 30.9008C13.0395 30.3713 12.6246 29.9221 12.1232 29.5917C11.5689 29.2378 11.0114 28.8658 10.4053 28.6378C9.21833 28.1924 7.99749 27.8429 6.79143 27.4477C5.24289 26.9466 3.81815 26.2057 2.62318 25.0714C0.871369 23.409 0.080468 21.307 0.00655199 18.9088C-0.0550447 16.8255 0.409394 14.8375 1.18551 12.9246C2.25565 10.289 2.18379 7.69173 0.969924 5.1329C0.82086 4.81973 0.622519 4.5266 0.41925 4.17585C0.512048 4.10946 0.600711 4.03729 0.684731 3.95976C1.86492 2.72961 3.04347 1.4978 4.22038 0.264316C4.29249 0.180582 4.36014 0.0929763 4.42303 0.00187705H4.54623C4.62692 0.0425895 4.70515 0.0908183 4.78892 0.123388C5.68075 0.464108 6.61262 0.68458 7.56077 0.779174C9.67969 1.00027 11.7703 0.909453 13.8153 0.238011C13.9288 0.200411 14.0506 0.197362 14.1658 0.229241C16.5921 1.01718 19.0584 1.06604 21.5395 0.600663C22.1789 0.478526 22.7924 0.203562 23.4188 0ZM19.2407 22.2547C18.9174 20.3306 18.6081 18.4653 18.2841 16.6032C18.2618 16.5148 18.2648 16.4218 18.2928 16.3352C18.3207 16.2485 18.3724 16.1718 18.4418 16.114C19.7015 14.877 20.9525 13.6305 22.2115 12.3929C22.2873 12.3177 22.4068 12.2889 22.5066 12.2382C22.4721 12.1987 22.4382 12.1592 22.4037 12.1204C22.3353 12.1041 22.267 12.0828 22.1974 12.0722C20.4456 11.8154 18.6944 11.5561 16.9413 11.3074C16.706 11.2742 16.5717 11.1715 16.4683 10.9504C15.7088 9.36011 14.9357 7.77734 14.1652 6.19018C14.1177 6.09247 14.0611 6.00227 13.9939 5.877C13.9286 6.00227 13.88 6.09622 13.835 6.19018C13.0607 7.78422 12.2828 9.37639 11.5184 10.9761C11.421 11.1796 11.3003 11.2692 11.0872 11.2993C9.60886 11.5085 8.13054 11.7264 6.65222 11.9438C6.29865 11.9958 5.9457 12.0559 5.59275 12.1123L5.56442 12.2031C5.65189 12.2739 5.74613 12.3378 5.82621 12.4167C7.07415 13.6514 8.3221 14.8859 9.57005 16.1203C9.70926 16.2574 9.75484 16.3789 9.72096 16.58C9.41298 18.3519 9.11793 20.1257 8.8198 21.8995C8.80379 21.9948 8.7964 22.0912 8.77977 22.2303C8.91898 22.1601 9.01014 22.1169 9.09945 22.0693C10.6394 21.2475 12.1793 20.4308 13.7143 19.5971C13.9323 19.4787 14.0937 19.4787 14.3007 19.604C14.6345 19.8057 14.9862 19.9754 15.3306 20.1596L19.2407 22.2547Z" fill="white"/>
<path d="M13.9985 10.0938C14.1217 10.3393 14.2215 10.5391 14.3194 10.7408C14.6459 11.4116 14.9631 12.0874 15.305 12.7501C15.3423 12.8115 15.3914 12.8646 15.4494 12.9063C15.5074 12.9479 15.5731 12.9772 15.6425 12.9925C16.5209 13.1372 17.4036 13.2581 18.2838 13.3883C18.3168 13.3917 18.349 13.4012 18.3786 13.4165C17.9228 13.9176 17.5009 14.4976 16.9668 14.9373C16.3589 15.4384 16.2197 15.9695 16.4205 16.713C16.6003 17.38 16.6669 18.0797 16.7901 18.8225C16.5973 18.7217 16.4476 18.6452 16.2973 18.5663C15.6093 18.1987 14.9188 17.8354 14.2356 17.4583C14.164 17.4114 14.0806 17.3864 13.9954 17.3864C13.9102 17.3864 13.8268 17.4114 13.7552 17.4583C13.016 17.8654 12.2732 18.2569 11.5309 18.6528C11.4422 18.7004 11.3505 18.7423 11.2094 18.8125C11.3117 18.1861 11.4059 17.6043 11.502 17.0236C11.5636 16.6447 11.6449 16.267 11.6868 15.8856C11.6922 15.819 11.6846 15.752 11.6645 15.6883C11.6445 15.6247 11.6122 15.5657 11.5697 15.5148C10.9784 14.9085 10.3729 14.3172 9.76866 13.7241C9.68394 13.6493 9.59532 13.5793 9.50317 13.5142L9.5389 13.4265C9.88446 13.3714 10.23 13.3132 10.5762 13.2618C11.1835 13.1716 11.7933 13.0958 12.3976 12.9887C12.462 12.9696 12.522 12.9376 12.574 12.8946C12.6261 12.8515 12.6691 12.7984 12.7007 12.7382C13.138 11.8795 13.5532 11.0113 13.9985 10.0938Z" fill="white"/>
</g>
<defs>
<clipPath id="clip0_0_389">
<rect width="28" height="32" fill="white"/>
</clipPath>
</defs>
</svg>
