<svg width="50" height="50" viewBox="0 0 50 50" fill="none" xmlns="http://www.w3.org/2000/svg">
<g clip-path="url(#clip0_526_12901)">
<path d="M25 27.7471C26.5175 27.7471 27.7476 26.517 27.7476 24.9995C27.7476 23.4821 26.5175 22.252 25 22.252C23.4826 22.252 22.2524 23.4821 22.2524 24.9995C22.2524 26.517 23.4826 27.7471 25 27.7471Z" stroke="white" stroke-width="1.7" stroke-miterlimit="10"/>
<path d="M34.2913 39.9223C31.5655 42.0124 28.2185 43.1298 24.7838 43.0964C21.3491 43.063 18.0244 41.8806 15.3398 39.7379L22.1942 31.165C23.045 31.5502 23.9659 31.7558 24.8997 31.7692C25.8335 31.7826 26.76 31.6033 27.6214 31.2427L34.2913 39.9223Z" stroke="white" stroke-width="1.7" stroke-miterlimit="10"/>
<path d="M25 27.7471C26.5175 27.7471 27.7476 26.517 27.7476 24.9995C27.7476 23.4821 26.5175 22.252 25 22.252C23.4826 22.252 22.2524 23.4821 22.2524 24.9995C22.2524 26.517 23.4826 27.7471 25 27.7471Z" stroke="white" stroke-width="1.7" stroke-miterlimit="10"/>
<path d="M31.835 8.81543C35.1064 9.83205 37.944 11.9131 39.8967 14.7278C41.8493 17.5425 42.805 20.9292 42.6117 24.3494L31.6505 23.6892C31.4751 22.7382 31.0941 21.8369 30.534 21.0484C30.0146 20.3143 29.3546 19.6906 28.5923 19.2135L31.835 8.81543Z" stroke="white" stroke-width="1.7" stroke-miterlimit="10"/>
<path d="M25 27.7471C26.5175 27.7471 27.7476 26.517 27.7476 24.9995C27.7476 23.4821 26.5175 22.252 25 22.252C23.4826 22.252 22.2524 23.4821 22.2524 24.9995C22.2524 26.517 23.4826 27.7471 25 27.7471Z" stroke="white" stroke-width="1.7" stroke-miterlimit="10"/>
<path d="M18.1651 8.81543C14.8937 9.83205 12.0561 11.9131 10.1034 14.7278C8.15073 17.5425 7.19507 20.9292 7.38837 24.3494L18.3495 23.6892C18.525 22.7382 18.906 21.8369 19.466 21.0484C19.9855 20.3143 20.6455 19.6906 21.4078 19.2135L18.1651 8.81543Z" stroke="white" stroke-width="1.7" stroke-miterlimit="10"/>
<path d="M2.64083 15.5244C0.0504829 21.3485 -0.144831 27.9579 2.09709 33.9248C4.339 39.8918 8.83819 44.7373 14.6228 47.4148C20.4074 50.0922 27.0131 50.3867 33.013 48.2346C39.0129 46.0825 43.9254 41.6565 46.6894 35.9128" stroke="white" stroke-width="1.5" stroke-linecap="round" stroke-linejoin="round"/>
<path d="M5.20386 10.9712C8.48245 6.34774 13.2757 3.01746 18.7526 1.55787C24.2294 0.0982759 30.0443 0.601426 35.189 2.98007C40.3337 5.35871 44.4837 9.46284 46.9194 14.5808C49.3551 19.6987 49.9228 25.5077 48.5242 31.0004" stroke="white" stroke-width="1.5" stroke-linecap="round" stroke-linejoin="round"/>
</g>
<defs>
<clipPath id="clip0_526_12901">
<rect width="50" height="50" fill="white"/>
</clipPath>
</defs>
</svg>
