<svg width="31" height="31" viewBox="0 0 31 31" fill="none" xmlns="http://www.w3.org/2000/svg">
<g clip-path="url(#clip0_0_258)">
<path d="M21.738 31.0011H9.26814C9.05708 30.8516 8.82013 30.7279 8.63899 30.5476C5.90187 27.8213 3.16772 25.0924 0.436532 22.3608C0.29372 22.2276 0.18091 22.0656 0.105614 21.8855C0.0303168 21.7054 -0.00573914 21.5113 -0.000155651 21.3162C0.00954853 17.4435 0.00954853 13.5706 -0.000155651 9.69737C-0.00638188 9.50221 0.0290545 9.30797 0.103795 9.12757C0.178535 8.94718 0.290862 8.78478 0.433297 8.65118C3.17904 5.91902 5.91805 3.18065 8.65031 0.436093C8.78352 0.293378 8.94577 0.18086 9.12614 0.106108C9.30651 0.0313568 9.5008 -0.00389107 9.69594 0.00274227C13.5587 0.0124442 17.4218 0.0124442 21.2852 0.00274227C21.4901 -0.00368716 21.6941 0.0338256 21.8834 0.112755C22.0727 0.191685 22.2429 0.310205 22.3825 0.460351C25.0932 3.18497 27.808 5.905 30.5268 8.62046C30.7144 8.80803 30.8438 9.053 31.0007 9.26725V21.7415C30.8438 21.9598 30.7144 22.2039 30.5276 22.3883C27.8201 25.108 25.1083 27.8213 22.3922 30.5282C22.2006 30.7157 21.9564 30.8451 21.738 31.0011ZM20.7822 15.5031H20.7749C20.7749 14.8378 20.8072 14.1708 20.7668 13.5078C20.7037 12.4567 20.0851 11.7291 19.0621 11.506C18.6596 11.4151 18.2461 11.3835 17.8345 11.4122C16.4298 11.5213 15.6098 12.3274 15.5702 13.6517C15.537 14.8911 15.5395 16.133 15.5702 17.3708C15.5993 18.5835 16.298 19.3653 17.4965 19.5691C17.8745 19.6298 18.2587 19.6426 18.64 19.607C19.9193 19.4955 20.7045 18.6894 20.7749 17.4071C20.8105 16.7749 20.7822 16.1386 20.7822 15.5031ZM23.4961 16.5227C23.6425 16.5227 23.7605 16.5227 23.8778 16.5227C24.363 16.5073 24.8482 16.5186 25.3261 16.4693C26.3524 16.365 27.0971 15.7368 27.2823 14.7771C27.3709 14.3226 27.3895 13.8572 27.3373 13.397C27.199 12.2417 26.5367 11.5561 25.3795 11.4486C24.4398 11.3612 23.4872 11.3968 22.541 11.3992C22.2046 11.3992 22.0437 11.6046 22.0437 11.9547C22.0437 14.3025 22.0437 16.6509 22.0437 18.9999C22.0438 19.1279 22.0836 19.2528 22.1577 19.3572C22.33 19.5755 22.8128 19.6256 23.1516 19.5052C23.4597 19.3952 23.5001 19.164 23.4961 18.8786C23.4888 18.1033 23.4961 17.3311 23.4961 16.5227ZM6.58817 11.2561C6.07224 11.3806 5.56115 11.4372 5.10586 11.6272C3.61303 12.249 3.34778 14.2443 4.6158 15.2485C4.93927 15.5007 5.31935 15.6754 5.68245 15.8702C6.06334 16.0739 6.4693 16.2356 6.83887 16.4572C7.32407 16.7498 7.50765 17.1937 7.3823 17.6594C7.27555 18.0547 6.85827 18.3062 6.31565 18.3563C5.64444 18.4129 5.13821 18.1008 4.65462 17.6925C4.2988 17.3926 4.00039 17.4605 3.7594 17.8623C3.51842 18.2641 3.62435 18.6708 4.09339 19.0354C5.03227 19.7712 6.7766 19.9086 7.78664 19.278C8.10966 19.0746 8.37986 18.7975 8.5751 18.4695C8.89118 17.9039 8.97508 17.2376 8.80911 16.6113C8.64315 15.985 8.24029 15.4476 7.68556 15.1126C7.3079 14.8847 6.88981 14.7254 6.49598 14.5241C6.18302 14.3624 5.84904 14.2282 5.5757 14.0147C5.09777 13.6404 5.19482 12.9887 5.74634 12.7357C5.92274 12.6624 6.10924 12.6163 6.29947 12.599C6.82673 12.5368 7.31437 12.6645 7.78502 12.9079C8.14246 13.0938 8.40043 12.9887 8.57025 12.6273C8.7708 12.2021 8.67134 11.8261 8.21767 11.6644C7.69607 11.4736 7.13727 11.3879 6.58817 11.2561ZM11.4403 12.705V13.0906C11.4403 15.0358 11.4416 16.9811 11.4443 18.9263C11.4357 19.0645 11.4636 19.2025 11.5252 19.3265C11.6683 19.5569 12.1495 19.6256 12.5061 19.5157C12.8296 19.4171 12.8975 19.1923 12.8967 18.8883C12.8886 16.9536 12.8927 15.0181 12.8927 13.0833V12.7033C13.4005 12.7033 13.872 12.7033 14.3434 12.7033C14.7825 12.7033 14.971 12.502 14.9734 12.0452C14.9758 11.5884 14.7906 11.3928 14.3499 11.3928H9.96604C9.52773 11.3928 9.33122 11.5973 9.33122 12.046C9.33122 12.4948 9.52773 12.7041 9.96199 12.7058C10.4432 12.7066 10.9243 12.705 11.4395 12.705H11.4403Z" fill="white"/>
<path d="M17.0138 15.5153C17.0138 14.9607 17.0041 14.4052 17.0138 13.8506C17.0349 12.8877 17.8427 12.3856 18.7266 12.7794C18.9061 12.8539 19.0587 12.9812 19.1642 13.1443C19.2698 13.3074 19.3233 13.4987 19.3178 13.693C19.3347 14.9057 19.3493 16.1128 19.3178 17.3223C19.2984 18.0305 18.8455 18.3782 18.1047 18.3596C17.4465 18.3434 17.047 17.9553 17.0235 17.2697C17.0033 16.686 17.0195 16.0998 17.0195 15.5153H17.0138Z" fill="white"/>
<path d="M23.5107 15.3729V12.7049C24.0445 12.7049 24.562 12.6734 25.0812 12.7146C25.4855 12.7477 25.771 13.0291 25.8446 13.4269C25.9119 13.7709 25.9244 14.1235 25.8818 14.4714C25.805 15.0317 25.4386 15.3406 24.8717 15.3689C24.431 15.3907 23.9879 15.3729 23.5107 15.3729Z" fill="white"/>
</g>
<defs>
<clipPath id="clip0_0_258">
<rect width="31" height="31" fill="white"/>
</clipPath>
</defs>
</svg>
