<svg width="15" height="15" viewBox="0 0 15 15" fill="none" xmlns="http://www.w3.org/2000/svg">
<g clip-path="url(#clip0_1018_24680)">
<path d="M7.55198 12.3443L7.55198 3.05449L8.26794 3.05449C8.27745 3.05383 8.28699 3.05522 8.29593 3.05856C8.30486 3.0619 8.31297 3.06712 8.31972 3.07387C8.32646 3.08061 8.33168 3.08871 8.33502 3.09765C8.33837 3.10658 8.33975 3.11613 8.33909 3.12564L8.38357 9.63161L11.0029 7.40811C11.0127 7.39928 11.0249 7.39357 11.038 7.3917C11.051 7.38983 11.0644 7.39189 11.0763 7.3976C11.0882 7.40332 11.0982 7.41244 11.1049 7.42381C11.1116 7.43518 11.1148 7.4483 11.114 7.46148L11.114 9.30254C11.1137 9.31221 11.1111 9.32167 11.1065 9.33016C11.1018 9.33865 11.0953 9.34594 11.0873 9.35146L7.5831 12.331C7.57429 12.3384 7.56345 12.3431 7.55198 12.3443Z" fill="#08863A"/>
<path d="M3.91866 7.49705C3.91906 7.48383 3.92314 7.47099 3.93044 7.45996C3.93774 7.44893 3.94795 7.44014 3.95996 7.4346C3.97197 7.42905 3.98529 7.42698 3.99842 7.42859C4.01155 7.43019 4.02397 7.43542 4.03429 7.44369L6.68025 9.63607L6.64023 3.13008C6.64023 3.11121 6.64773 3.09312 6.66108 3.07977C6.67442 3.06643 6.69251 3.05893 6.71139 3.05893L7.55188 3.05893L7.55188 12.3443C7.54483 12.3472 7.53727 12.3487 7.52964 12.3487C7.522 12.3487 7.51445 12.3472 7.50741 12.3443L3.94979 9.40926C3.94091 9.40363 3.93373 9.3957 3.92903 9.3863C3.92433 9.3769 3.92229 9.36638 3.92311 9.3559L3.91866 7.49705Z" fill="#08863A"/>
</g>
<defs>
<clipPath id="clip0_1018_24680">
<rect width="7.20861" height="9.29426" fill="white" transform="translate(11.1273 12.3443) rotate(-180)"/>
</clipPath>
</defs>
</svg>
