<svg width="64" height="87" viewBox="0 0 64 87" fill="none" xmlns="http://www.w3.org/2000/svg">
<path d="M60.8579 40.0248C57.8498 35.1489 54.4466 30.5208 50.6818 26.1857C45.0386 19.1089 41.9781 10.3642 41.9941 1.36237C42.0042 1.12227 41.9469 0.884094 41.8287 0.673927C41.7105 0.463761 41.5358 0.289781 41.3239 0.170995C41.112 0.0522078 40.8711 -0.00671046 40.6275 0.000607451C40.3838 0.00792536 40.147 0.0812189 39.9428 0.212502C33.5047 4.78771 28.557 11.1121 25.7043 18.4136C22.6992 26.2044 22.1938 34.7173 24.2564 42.8006C24.2907 42.895 24.2938 42.9977 24.2655 43.0939C24.2371 43.1902 24.1785 43.2751 24.0983 43.3367C24.018 43.3982 23.9203 43.4332 23.8187 43.4366C23.717 43.4401 23.6168 43.4118 23.5324 43.3558C18.4876 40.3387 14.1654 36.2803 10.8629 31.4597C10.754 31.2973 10.6095 31.1608 10.4404 31.0603C10.2712 30.9599 10.0816 30.8979 9.88506 30.8789C9.68853 30.8599 9.49019 30.8844 9.30447 30.9506C9.11875 31.0167 8.95034 31.1229 8.81153 31.2613C6.57353 33.637 4.67858 36.3058 3.18044 39.1921C1.60605 42.5478 0.613652 46.1399 0.244364 49.8192C-0.63479 57.1871 0.871597 64.6405 4.54808 71.1134C7.47864 76.1282 11.7448 80.257 16.8848 83.0528C22.0248 85.8487 27.8428 87.2051 33.7085 86.9749C40.666 86.4636 47.2497 83.6718 52.4113 79.0442C57.5771 74.4646 61.2451 68.4741 62.9493 61.8343C63.5955 59.2372 63.9463 56.5772 63.9951 53.9036C64.0825 49.0973 63.0072 44.3396 60.8579 40.0248ZM42.5973 68.8134C42.371 70.4176 41.7914 71.9536 40.8992 73.3136C40.0071 74.6735 38.8241 75.8247 37.4329 76.6862C36.0417 77.5477 34.4761 78.0986 32.8461 78.3004C31.2161 78.5022 29.561 78.35 27.9969 77.8545C26.3432 77.3379 24.8365 76.4439 23.5994 75.2449C22.3624 74.046 21.43 72.5761 20.8779 70.9548C20.2683 69.2142 20.1406 67.3448 20.5082 65.5394C20.8759 63.734 21.7254 62.0581 22.9693 60.6845C23.054 60.6051 23.1562 60.5459 23.2678 60.5115C23.3793 60.4772 23.4974 60.4684 23.6129 60.4861C25.1517 60.8669 26.7088 61.1714 28.2785 61.3982C27.988 60.392 27.8392 59.3513 27.8361 58.3052C27.7962 57.7905 27.7962 57.2734 27.8361 56.7587C28.0847 55.1012 28.7188 53.523 29.6886 52.1472C30.6585 50.7714 31.9379 49.6354 33.427 48.8279C33.5052 48.7896 33.591 48.7686 33.6783 48.7662C33.7657 48.7638 33.8526 48.78 33.9329 48.814C34.0132 48.8479 34.0851 48.8987 34.1435 48.9627C34.202 49.0267 34.2456 49.1026 34.2714 49.1849C35.0415 51.8558 36.1639 54.4155 37.6099 56.7983C38.2297 57.9375 38.9427 59.025 39.7417 60.05L40.4657 60.9621C41.7435 62.7772 42.4181 64.9387 42.3962 67.148C42.5122 67.6964 42.5795 68.2536 42.5973 68.8134Z" fill="#4298C9"/>
</svg>
