<svg width="47" height="43" viewBox="0 0 47 43" fill="none" xmlns="http://www.w3.org/2000/svg">
<path d="M16.5626 23.4296H35.6558C35.9489 23.4302 36.241 23.3975 36.5267 23.3319C37.5487 23.1247 38.4466 22.52 39.0227 21.6508C39.5989 20.7815 39.8062 19.719 39.599 18.697C39.3918 17.6749 38.787 16.7771 37.9178 16.2009C37.0486 15.6247 35.9861 15.4174 34.964 15.6247C35.0888 15.1741 35.1518 14.7086 35.1512 14.2411C35.1543 13.731 35.0802 13.2234 34.9315 12.7354C34.6677 11.8629 34.1817 11.0739 33.521 10.446C32.8603 9.81799 32.0477 9.37257 31.1629 9.15343C30.2781 8.93428 29.3515 8.94894 28.4741 9.19595C27.5967 9.44297 26.7985 9.91386 26.158 10.5624C25.8606 9.9937 25.4284 9.50647 24.8992 9.14329C24.37 8.7801 23.76 8.55201 23.1223 8.47894C22.9707 8.46651 22.8183 8.46651 22.6666 8.47894C21.8152 8.4889 20.99 8.77444 20.3145 9.2928C20.2422 7.566 19.4869 5.93865 18.2147 4.76875C16.9426 3.59885 15.2578 2.98223 13.531 3.05454C11.8042 3.12685 10.1768 3.88217 9.00692 5.15433C7.83702 6.42649 7.2204 8.11129 7.29271 9.83809C7.29271 10.0578 7.29271 10.2694 7.29271 10.481C6.43769 10.5345 5.60156 10.7558 4.83207 11.1324C4.06258 11.509 3.3748 12.0334 2.808 12.6758C1.66328 13.9731 1.08082 15.6721 1.18874 17.3989C1.29667 19.1257 2.08615 20.7389 3.3835 21.8836C4.68084 23.0283 6.37977 23.6108 8.10657 23.5028H14.7395" stroke="#08863A" stroke-width="1.7" stroke-linecap="round" stroke-linejoin="round"/>
<path d="M45.3326 10.432C45.3341 10.9506 45.1605 11.4545 44.84 11.8621C44.5195 12.2698 44.0708 12.5574 43.5665 12.6783C43.3979 12.7142 43.2262 12.7333 43.0538 12.7353H34.9559C34.6943 11.858 34.2082 11.0642 33.5456 10.4324C32.883 9.80071 32.067 9.35293 31.1782 9.13341C30.2895 8.9139 29.3588 8.93025 28.4783 9.18086C27.5978 9.43147 26.798 9.90764 26.158 10.5623C25.8605 9.99354 25.4284 9.50631 24.8992 9.14312C24.37 8.77994 23.76 8.55185 23.1223 8.47877C23.2195 7.62218 23.6038 6.82371 24.2127 6.21338C24.8215 5.60305 25.6191 5.2168 26.4754 5.11752C26.4673 4.99014 26.4673 4.86238 26.4754 4.73501C26.484 3.75385 26.8693 2.81352 27.5517 2.10843C28.234 1.40335 29.1612 0.987425 30.1415 0.946664C31.1219 0.905904 32.0804 1.24342 32.8189 1.88943C33.5574 2.53545 34.0194 3.44055 34.1095 4.4176C34.3789 4.21956 34.6882 4.08256 35.0159 4.01611C35.3436 3.94966 35.6818 3.95535 36.0071 4.0328C36.3323 4.11025 36.6369 4.25759 36.8995 4.46458C37.1621 4.67158 37.3764 4.93327 37.5277 5.23146C37.8108 4.93953 38.1499 4.70764 38.5247 4.54963C38.8994 4.39162 39.3021 4.31073 39.7088 4.3118C40.5135 4.32027 41.2828 4.64368 41.8518 5.21268C42.4208 5.78169 42.7442 6.55099 42.7527 7.35564C42.7551 7.63051 42.7195 7.9044 42.6469 8.16951C42.7795 8.1571 42.913 8.1571 43.0457 8.16951C43.6467 8.17366 44.2223 8.41261 44.6496 8.83533C45.0769 9.25806 45.322 9.83108 45.3326 10.432Z" stroke="#08863A" stroke-width="1.7" stroke-linecap="round" stroke-linejoin="round"/>
<path d="M8.09835 23.4303C6.364 23.4303 4.70067 22.7414 3.4743 21.515C2.24793 20.2886 1.55896 18.6253 1.55896 16.891C1.55896 15.1566 2.24793 13.4933 3.4743 12.2669C4.70067 11.0405 6.364 10.3516 8.09835 10.3516C8.84994 10.3527 9.59582 10.4821 10.3039 10.7341" stroke="#08863A" stroke-width="1.7" stroke-linecap="round" stroke-linejoin="round"/>
<path d="M33.2876 16.3816C33.7833 16.0055 34.3614 15.7527 34.9742 15.6441C35.5869 15.5356 36.2166 15.5743 36.8114 15.7572C37.4062 15.9401 37.9489 16.2618 38.3948 16.6959C38.8407 17.1299 39.1769 17.6638 39.3757 18.2534C39.5746 18.8431 39.6303 19.4715 39.5382 20.087C39.4462 20.7024 39.2091 21.2871 38.8465 21.7928C38.4839 22.2984 38.0062 22.7106 37.4528 22.9952C36.8995 23.2798 36.2863 23.4287 35.6641 23.4296" stroke="#08863A" stroke-width="1.7" stroke-linecap="round" stroke-linejoin="round"/>
<path d="M1.56299 28.0273H13.0222" stroke="#08863A" stroke-width="1.7" stroke-linecap="round" stroke-linejoin="round"/>
<path d="M15.5209 28.0273H26.9801" stroke="#08863A" stroke-width="1.7" stroke-linecap="round" stroke-linejoin="round"/>
<path d="M30.0321 28.0273H34.663" stroke="#08863A" stroke-width="1.7" stroke-linecap="round" stroke-linejoin="round"/>
<path d="M37.6497 28.0273H45.9999" stroke="#08863A" stroke-width="1.7" stroke-linecap="round" stroke-linejoin="round"/>
<path d="M3.93958 32.5449H18.5728" stroke="#08863A" stroke-width="1.7" stroke-linecap="round" stroke-linejoin="round"/>
<path d="M21.2504 32.5449H42.9561" stroke="#08863A" stroke-width="1.7" stroke-linecap="round" stroke-linejoin="round"/>
<path d="M1.13989 37.1758H13.0223" stroke="#08863A" stroke-width="1.7" stroke-linecap="round" stroke-linejoin="round"/>
<path d="M15.5209 37.1758H26.9801" stroke="#08863A" stroke-width="1.7" stroke-linecap="round" stroke-linejoin="round"/>
<path d="M30.0321 37.1758H35.3955" stroke="#08863A" stroke-width="1.7" stroke-linecap="round" stroke-linejoin="round"/>
<path d="M37.6497 37.1758H45.9999" stroke="#08863A" stroke-width="1.7" stroke-linecap="round" stroke-linejoin="round"/>
<path d="M21.2504 41.6836H42.9561" stroke="#08863A" stroke-width="1.7" stroke-linecap="round" stroke-linejoin="round"/>
<path d="M3.93958 41.6836H18.5728" stroke="#08863A" stroke-width="1.7" stroke-linecap="round" stroke-linejoin="round"/>
</svg>
