<svg width="66" height="60" viewBox="0 0 66 60" fill="none" xmlns="http://www.w3.org/2000/svg">
<g clip-path="url(#clip0_513_15751)">
<path d="M60.5255 3.82569V28.087C57.8754 25.6538 54.5243 24.1548 50.9699 23.8128C47.4155 23.4708 43.8475 24.3039 40.7957 26.1885C37.744 28.073 35.3713 30.9085 34.0303 34.2736C32.6892 37.6387 32.4513 41.3541 33.3517 44.8677H10.8267C9.90661 44.8663 8.99534 45.0496 8.1451 45.4072C7.29486 45.7649 6.52242 46.2897 5.87212 46.9517L2.81374 50.0621C2.58704 50.2929 2.2981 50.4501 1.98348 50.5139C1.66886 50.5776 1.34272 50.545 1.04635 50.4201C0.749987 50.2952 0.496715 50.0837 0.318623 49.8123C0.14053 49.5409 0.0456163 49.2219 0.0458991 48.8957V3.7946C0.0458991 2.77993 0.442236 1.80679 1.14771 1.08931C1.85319 0.37183 2.81001 -0.03125 3.8077 -0.03125H56.8096C57.8046 -0.018942 58.7543 0.393868 59.4508 1.11674C60.1472 1.83962 60.5337 2.81368 60.5255 3.82569Z" fill="#3384E2"/>
<path d="M49.4388 54.5726C47.1242 54.587 44.8434 54.0073 42.8074 52.8874C40.7714 51.7674 39.0461 50.1434 37.791 48.1654C36.536 46.1874 35.7917 43.9194 35.6271 41.5713C35.4625 39.2232 35.8829 36.8708 36.8494 34.7318C37.8159 32.5927 39.2972 30.7361 41.1564 29.3337C43.0155 27.9314 45.1925 27.0286 47.4857 26.7088C49.779 26.3891 52.1145 26.6628 54.2761 27.5045C56.4378 28.3462 58.3558 29.7288 59.8526 31.5244C61.5461 33.5558 62.6345 36.0364 62.9902 38.6749C63.3459 41.3134 62.954 44.0003 61.8606 46.4203C60.7672 48.8402 59.0177 50.8927 56.8174 52.3367C54.6171 53.7808 52.0574 54.5564 49.4388 54.5726ZM49.4388 29.6893C46.9971 29.6889 44.6287 30.5376 42.7264 32.0944C40.8242 33.6512 39.5024 35.8227 38.9805 38.2485C38.4585 40.6743 38.7677 43.2088 39.8567 45.4313C40.9458 47.6539 42.7492 49.431 44.9679 50.4679C47.1865 51.5047 49.6871 51.739 52.0547 51.1318C54.4223 50.5246 56.5146 49.1125 57.9845 47.1297C59.4545 45.1469 60.2137 42.7125 60.1363 40.2305C60.0589 37.7485 59.1494 35.3681 57.5588 33.484C55.7131 31.2969 53.09 29.9435 50.2646 29.7204L49.4388 29.6893Z" fill="#3384E2"/>
<path d="M64.471 60.0625C64.2502 60.0625 64.0319 60.0138 63.8313 59.9199C63.6306 59.8259 63.4524 59.6889 63.3088 59.5181L56.2134 51.12C55.9477 50.8065 55.8154 50.3986 55.8455 49.9859C55.8756 49.5732 56.0657 49.1896 56.3739 48.9194C56.6822 48.6492 57.0833 48.5147 57.4891 48.5453C57.8949 48.5759 58.2721 48.7692 58.5378 49.0827L65.6332 57.4964C65.8232 57.7223 65.9456 57.9989 65.9858 58.2934C66.026 58.5878 65.9824 58.8879 65.8601 59.1579C65.7378 59.4279 65.5419 59.6566 65.2957 59.817C65.0496 59.9773 64.7634 60.0625 64.471 60.0625Z" fill="#3384E2"/>
</g>
<defs>
<clipPath id="clip0_513_15751">
<rect width="66" height="60" fill="white"/>
</clipPath>
</defs>
</svg>
