<svg width="28" height="39" viewBox="0 0 28 39" fill="none" xmlns="http://www.w3.org/2000/svg">
<g clip-path="url(#clip0_0_433)">
<path d="M9.23541 0.000123345C9.91277 0.261677 10.144 0.762396 10.1358 1.46462C10.1132 3.55705 10.1276 5.6505 10.1276 7.74293C10.1276 7.83147 10.1276 7.92103 10.1276 8.00957C10.0926 8.7006 9.61366 9.19318 8.97639 9.19623C8.33911 9.19928 7.82827 8.68737 7.82519 7.97497C7.81696 5.71665 7.82519 3.45935 7.82519 1.20205C7.82519 0.583276 8.17055 0.227075 8.70299 -0.00292969L9.23541 0.000123345Z" fill="white"/>
<path d="M18.5405 0C19.2117 0.269695 19.4368 0.769395 19.4275 1.47162C19.4018 3.57626 19.4193 5.68192 19.4162 7.78758C19.4235 7.97764 19.4083 8.16788 19.371 8.35445C19.3035 8.59457 19.1591 8.80648 18.9594 8.95828C18.7598 9.11008 18.5157 9.19354 18.264 9.19611C18.0055 9.19296 17.7556 9.10383 17.5544 8.94306C17.3533 8.78228 17.2126 8.5592 17.1549 8.30967C17.121 8.12268 17.1065 7.93273 17.1118 7.7428C17.1118 5.64936 17.1251 3.55693 17.1015 1.4645C17.0943 0.761255 17.3245 0.261554 18.0029 0H18.5405Z" fill="white"/>
<path d="M18.4767 20.7341C19.6012 20.8358 20.6476 21.0984 21.6179 21.6266C25.5443 23.7638 26.7109 28.6377 24.1988 32.4419C22.8503 34.4855 20.9529 35.9021 18.8077 37.0328C16.4652 38.2612 13.986 39.0153 11.3115 39.0001C9.57646 38.9899 7.92674 38.6378 6.48054 37.6231C5.5503 36.9769 4.83767 36.0689 4.43511 35.0167C4.38448 34.8685 4.28009 34.7441 4.14215 34.6677C1.90861 33.8168 0.721434 32.1234 0.24245 29.8844C-0.325958 27.2383 0.158176 24.6849 1.15212 22.2148C2.12756 19.7917 3.49152 17.6158 5.5051 15.8928C7.10651 14.5219 8.94023 13.6915 11.0977 13.7199C14.798 13.7698 17.9607 16.596 18.4048 20.2333C18.4222 20.3921 18.4479 20.5407 18.4767 20.7341Z" fill="white"/>
<path d="M14.7755 6.80753C14.7755 7.8741 14.7755 8.94474 14.7755 10.0052C14.7755 10.7715 14.2965 11.2855 13.6048 11.2763C12.9315 11.2682 12.4741 10.7573 12.4741 10.0103C12.4741 7.86562 12.4741 5.72162 12.4741 3.57831C12.4741 2.82316 12.9696 2.28682 13.6438 2.29903C14.3181 2.31125 14.7745 2.83333 14.7806 3.57322C14.7776 4.65098 14.7755 5.72976 14.7755 6.80753Z" fill="white"/>
<path d="M20.2222 17.8465C22.2882 16.6578 25.2854 16.9906 27.225 18.6088C27.3617 18.7238 27.4984 18.8408 27.6228 18.967C28.1069 19.4566 28.1264 20.1415 27.6742 20.6045C27.2219 21.0676 26.5435 21.0798 26.0491 20.629C25.5547 20.1781 25.0089 19.8016 24.3552 19.6214C24.0006 19.5197 23.6223 19.4179 23.2646 19.4454C22.6671 19.4922 22.0684 19.3693 21.5388 19.0912C21.4159 19.022 21.281 18.9761 21.1411 18.9558C20.4575 18.8978 20.3013 18.4205 20.2222 17.8465Z" fill="white"/>
</g>
<defs>
<clipPath id="clip0_0_433">
<rect width="28" height="39" fill="white"/>
</clipPath>
</defs>
</svg>
