<svg width="39" height="19" viewBox="0 0 39 19" fill="none" xmlns="http://www.w3.org/2000/svg">
<g clip-path="url(#clip0_0_520)">
<path d="M38.9991 18.9667C38.8349 18.9772 38.6716 18.998 38.5074 18.998C28.7625 18.998 19.0176 18.998 9.27268 18.998H8.76379C8.89746 18.2387 9.02062 17.523 9.1457 16.8092C9.9477 12.3385 10.7491 7.86749 11.5498 3.39616C11.6061 3.08197 11.7102 2.91112 12.0529 2.80861C15.0662 1.91352 18.0679 0.990902 21.0792 0.0768286C21.1489 0.0559464 21.2196 0.0388622 21.3657 -0.00195312L16.9012 11.6987C17.8617 11.7718 18.7716 11.8421 19.6805 11.9076C23.1005 12.1563 26.5207 12.4034 29.9413 12.6489C31.8919 12.7884 33.8424 12.9337 35.7949 13.0514C36.2723 13.0798 36.5444 13.207 36.7392 13.694C37.3951 15.3342 38.1188 16.9468 38.8196 18.569C38.8744 18.6779 38.9346 18.7841 39.0001 18.887L38.9991 18.9667Z" fill="white"/>
<path d="M0 18.9763C0.0506022 18.8301 0.085923 18.7114 0.131751 18.5966C1.17053 16.0116 2.21186 13.4279 3.25573 10.8455C3.30919 10.6954 3.40956 10.5664 3.54215 10.4772C5.09937 9.65897 6.66517 8.85595 8.22906 8.04914C8.28749 8.02603 8.34747 8.007 8.40856 7.99219L6.44176 18.9763H0Z" fill="white"/>
<path d="M23.5425 0.73291C24.7216 2.3883 25.8645 3.99054 27.035 5.63454L20.7632 7.99139L23.5425 0.73291Z" fill="white"/>
<path d="M22.5771 9.74807L23.3123 9.47185C25.1865 8.76755 27.0578 8.05945 28.9358 7.36749C29.0896 7.31054 29.3254 7.30105 29.4533 7.37983C31.1595 8.42394 32.8532 9.49463 34.5489 10.5577C34.589 10.5824 34.6233 10.6166 34.7398 10.7153L22.5819 9.83729L22.5771 9.74807Z" fill="white"/>
</g>
<defs>
<clipPath id="clip0_0_520">
<rect width="39" height="19" fill="white"/>
</clipPath>
</defs>
</svg>
