<svg width="59" height="59" viewBox="0 0 59 59" fill="none" xmlns="http://www.w3.org/2000/svg">
<path d="M36.5 48.11L39.22 50.83L52 38.1L43.66 29.72L30.9 42.47L34.5 46.11" stroke="white" stroke-width="1.7" stroke-linecap="round" stroke-linejoin="round"/>
<path d="M39.25 50.84L52 38.1C54 41.1 53.25 45.69 50 48.89C46.75 52.09 42.27 52.84 39.25 50.84Z" stroke="white" stroke-width="1.7" stroke-linecap="round" stroke-linejoin="round"/>
<path d="M26.9301 31.95L33.1 25.78L43.6 29.71L30.85 42.46L26.9301 31.95Z" stroke="white" stroke-width="1.7" stroke-linecap="round" stroke-linejoin="round"/>
<path d="M26.9301 31.9499L23.8101 28.8199L27.72 26.5699L29.96 22.6599L33.09 25.7899L26.9301 31.9499Z" stroke="white" stroke-width="1.7" stroke-linecap="round" stroke-linejoin="round"/>
<path d="M19.97 31.0199L13.5601 24.6099L21.3101 20.1599L27.72 26.5699L23.8101 28.8199L19.97 31.0199Z" stroke="white" stroke-width="1.7" stroke-linecap="round" stroke-linejoin="round"/>
<path d="M27.72 26.5699L21.3101 20.1599L25.75 12.4199L32.16 18.8299L29.96 22.6599L27.72 26.5699Z" stroke="white" stroke-width="1.7" stroke-linecap="round" stroke-linejoin="round"/>
<path d="M13.65 19.72L12.02 18.1" stroke="white" stroke-width="1.7" stroke-linecap="round" stroke-linejoin="round"/>
<path d="M10.1801 16.26L6.37 12.45" stroke="white" stroke-width="1.7" stroke-linecap="round" stroke-linejoin="round"/>
<path d="M18.1 16.95L15.64 14.49" stroke="white" stroke-width="1.7" stroke-linecap="round" stroke-linejoin="round"/>
<path d="M13.5699 12.42L7.96997 6.82996" stroke="white" stroke-width="1.7" stroke-linecap="round" stroke-linejoin="round"/>
<path d="M20.64 12.73L16.95 9.04004" stroke="white" stroke-width="1.7" stroke-linecap="round" stroke-linejoin="round"/>
<path d="M15.27 7.35996L13.37 5.45996" stroke="white" stroke-width="1.7" stroke-linecap="round" stroke-linejoin="round"/>
</svg>
