<svg width="27" height="28" viewBox="0 0 27 28" fill="none" xmlns="http://www.w3.org/2000/svg">
<g clip-path="url(#clip0_0_180)">
<path d="M3.43402 28C3.32912 27.9737 3.22494 27.9459 3.12003 27.9211C2.00714 27.6559 1.25445 26.7426 1.19356 25.5832C1.18842 25.4926 1.18989 25.4013 1.18989 25.31C1.18989 18.6304 1.18989 11.9508 1.18989 5.27123V4.92858H12.7421V5.26977C12.7421 11.9489 12.7421 18.6284 12.7421 25.3085C12.7421 26.7901 12.0203 27.6639 10.5516 27.9664C10.5259 27.9747 10.5013 27.986 10.4782 28H10.2581C10.2581 27.0349 10.2647 26.069 10.2655 25.1039C10.2655 23.3359 10.2655 21.5679 10.2655 19.7998C10.2655 19.2884 9.92286 18.9231 9.44967 18.9231C8.97649 18.9231 8.63022 19.2884 8.61702 19.7932C8.61702 19.8751 8.61702 19.9576 8.61702 20.0394C8.61702 22.3993 8.61849 24.7593 8.62142 27.1196C8.62142 27.3045 8.58107 27.4477 8.41161 27.52C8.02206 27.6873 7.62664 27.8415 7.23342 28.0007H6.73823C6.35015 27.8546 5.95913 27.7085 5.57618 27.547C5.37297 27.4608 5.30988 27.2942 5.31062 27.0641C5.31795 22.0079 5.31966 16.9517 5.31575 11.8955C5.31575 11.7859 5.31575 11.6763 5.31062 11.5675C5.2942 11.3801 5.21314 11.2042 5.08123 11.0697C4.94931 10.9351 4.77467 10.8502 4.587 10.8294C4.39932 10.8085 4.2102 10.8531 4.05176 10.9554C3.89333 11.0577 3.77537 11.2115 3.71793 11.3907C3.67993 11.5403 3.66314 11.6945 3.66805 11.8488C3.66511 17.0959 3.66511 22.3435 3.66805 27.5916C3.66805 27.7275 3.66291 27.8641 3.65998 28.0007L3.43402 28Z" fill="white"/>
<path d="M22.2513 28C22.1046 27.8948 21.9329 27.8122 21.8207 27.6793C21.5096 27.314 21.6006 26.8486 22.0965 26.4073H21.7686C19.4763 26.4073 17.184 26.4073 14.8917 26.4073C14.7456 26.4107 14.5996 26.3955 14.4574 26.362C14.2715 26.309 14.1107 26.1918 14.0037 26.0315C13.8966 25.8712 13.8503 25.6781 13.8731 25.487C13.8959 25.2958 13.9862 25.1189 14.1279 24.9879C14.2696 24.857 14.4535 24.7805 14.6466 24.7722C15.0223 24.7605 15.3986 24.7722 15.7742 24.7722H22.0356L22.0884 24.6926C22.0309 24.6706 21.9765 24.6413 21.9263 24.6057C21.5874 24.2871 21.547 23.8115 21.8251 23.474C21.9605 23.3097 22.1545 23.204 22.3665 23.179C22.5784 23.1539 22.7919 23.2115 22.9622 23.3395C23.4963 23.7246 24.0201 24.1242 24.5483 24.5173C24.7243 24.6488 24.9026 24.7766 25.0757 24.9118C25.5474 25.2829 25.5695 25.8827 25.0955 26.2422C24.304 26.8427 23.4941 27.4192 22.6915 28.0058L22.2513 28Z" fill="white"/>
<path d="M14.4067 6.84274V4.9432H24.7074V20.1191C25.2166 20.1191 25.6993 20.1132 26.1813 20.1191C26.3802 20.1164 26.5731 20.1869 26.723 20.3171C26.8729 20.4474 26.9692 20.6282 26.9934 20.8248C27.0521 21.3012 26.7264 21.7016 26.2348 21.7527C26.1616 21.7578 26.0881 21.7593 26.0148 21.7571H14.4141V18.5322H20.4107C21.1025 18.5322 21.415 18.2195 21.415 17.5269C21.415 14.3006 21.415 11.0743 21.415 7.84804C21.415 7.15397 21.1032 6.84347 20.4107 6.84274H14.4067Z" fill="white"/>
<path d="M13.2577 3.28104C9.41653 3.28104 5.57531 3.28104 1.7341 3.28104C0.905114 3.28104 0.275669 2.82442 0.0621869 2.08141C-0.00354045 1.84576 -0.0155458 1.59847 0.0270508 1.35761C0.0696475 1.11675 0.165767 0.888416 0.308381 0.689314C0.450994 0.490212 0.636494 0.325374 0.851312 0.206859C1.06613 0.088343 1.30483 0.0191469 1.54996 0.00433109C1.61379 0.000678124 1.67834 0.000679016 1.74217 0.000679016H24.763C25.5495 0.000679016 26.1452 0.387162 26.4019 1.05639C26.4953 1.30015 26.5289 1.56261 26.4998 1.82191C26.4708 2.08121 26.38 2.32984 26.2349 2.54712C26.0899 2.76439 25.8948 2.94402 25.666 3.07104C25.4371 3.19807 25.1811 3.26881 24.9193 3.27739C24.5444 3.29054 24.1681 3.28104 23.7917 3.28104H13.2577Z" fill="white"/>
<path d="M19.7511 11.97V16.8716H14.4097V11.97H19.7511Z" fill="white"/>
<path d="M19.7438 10.2911H14.4023V8.50557H19.7438V10.2911Z" fill="white"/>
</g>
<defs>
<clipPath id="clip0_0_180">
<rect width="27" height="28" fill="white"/>
</clipPath>
</defs>
</svg>
