<svg width="33" height="27" viewBox="0 0 33 27" fill="none" xmlns="http://www.w3.org/2000/svg">
<g clip-path="url(#clip0_0_89)">
<path d="M33.0001 20.5126C32.8313 21.19 32.7417 21.8999 32.4784 22.5383C31.5095 24.8938 29.7759 26.3558 27.2816 26.8586C26.7428 26.9567 26.1957 27.0019 25.6482 26.9934C19.5034 27.0026 13.3589 27.005 7.2147 27.0007C5.20816 27.0007 3.46405 26.3509 2.04697 24.9084C0.933818 23.7952 0.229717 22.3346 0.0501189 20.7661C-0.0806893 19.7037 0.0654616 18.6795 0.369066 17.6666C0.743726 16.4182 1.11435 15.169 1.49951 13.8841C1.80876 14.2674 2.07926 14.6403 2.38771 14.9781C4.03708 16.7905 6.08533 17.6937 8.53247 17.6877C9.78941 17.6877 11.0464 17.6877 12.3033 17.6877H12.6885V19.8214H20.3092V17.7097C20.4602 17.7023 20.5846 17.6926 20.713 17.6926C22.0663 17.6877 23.4212 17.7251 24.7729 17.6715C27.5376 17.5618 29.6879 16.3013 31.2632 14.027C31.306 13.9653 31.344 13.9011 31.39 13.8402C31.4013 13.8232 31.4231 13.8142 31.4707 13.7793C31.625 14.2951 31.7784 14.7978 31.9253 15.3022C32.2354 16.3687 32.5471 17.4343 32.8466 18.5032C32.9274 18.7802 32.9573 19.0718 33.0081 19.3528L33.0001 20.5126Z" fill="white"/>
<path d="M22.8422 4.97251H23.2371C24.999 4.97251 26.76 4.97739 28.5219 4.96764C28.7553 4.96764 28.8586 5.03586 28.9256 5.2641C29.4376 7.01282 29.9648 8.75667 30.4792 10.5046C30.5202 10.6464 30.5261 10.7962 30.4961 10.9407C29.8623 13.6576 27.5085 15.6289 24.7486 15.7174C23.3534 15.7621 21.9565 15.7337 20.5596 15.7369C20.4784 15.7314 20.3975 15.7217 20.3173 15.7077V13.6105H12.6949V15.7166C12.5972 15.7264 12.5334 15.7377 12.4729 15.7369C10.9904 15.7321 9.50707 15.7556 8.02619 15.7134C5.44233 15.6403 3.01107 13.6219 2.41355 11.0951C2.39282 10.9917 2.39809 10.8848 2.42889 10.784C2.97554 8.93374 3.53188 7.08592 4.07368 5.23405C4.1399 5.005 4.25859 4.96845 4.46611 4.96926C6.22798 4.97576 7.98905 4.96926 9.75092 4.96926H10.1547C10.3105 4.15704 10.577 3.40735 11.0243 2.73727C12.1547 1.04621 13.7333 0.12515 15.7576 0.0260588C16.7855 -0.023487 17.8239 -0.0551634 18.8187 0.300591C20.9124 1.04297 22.2399 2.4936 22.7712 4.66793C22.7898 4.75484 22.8116 4.8385 22.8422 4.97251ZM20.847 4.95627C20.4183 3.5365 19.5551 2.61381 18.205 2.15815C17.4234 1.89337 16.6119 1.93804 15.8101 1.97703C14.4947 2.04119 13.4483 2.6333 12.6965 3.72168C12.4438 4.08719 12.2314 4.48193 12.1725 4.95627H20.847Z" fill="white"/>
<path d="M18.3583 17.8725H14.644V15.5527H18.3583V17.8725Z" fill="white"/>
</g>
<defs>
<clipPath id="clip0_0_89">
<rect width="33" height="27" fill="white"/>
</clipPath>
</defs>
</svg>
