<svg width="14" height="17" viewBox="0 0 14 17" fill="none" xmlns="http://www.w3.org/2000/svg">
<path d="M7 0C5.71979 0 4.66943 1.14926 4.66943 2.55H0.59094C0.513733 2.54881 0.437079 2.56441 0.365433 2.59591C0.293786 2.62741 0.228576 2.67418 0.173593 2.7335C0.118609 2.79281 0.074948 2.8635 0.0451472 2.94143C0.0153464 3.01937 0 3.10302 0 3.1875C0 3.27198 0.0153464 3.35563 0.0451472 3.43357C0.074948 3.5115 0.118609 3.58219 0.173593 3.6415C0.228576 3.70082 0.293786 3.74759 0.365433 3.77909C0.437079 3.81059 0.513733 3.82619 0.59094 3.825H1.56201V14.6625C1.56201 15.9515 2.52026 17 3.69836 17H10.3016C11.4797 17 12.438 15.9515 12.438 14.6625V3.825H13.4091C13.4863 3.82619 13.5629 3.81059 13.6346 3.77909C13.7062 3.74759 13.7714 3.70082 13.8264 3.6415C13.8814 3.58219 13.9251 3.5115 13.9549 3.43357C13.9847 3.35563 14 3.27198 14 3.1875C14 3.10302 13.9847 3.01937 13.9549 2.94143C13.9251 2.8635 13.8814 2.79281 13.8264 2.7335C13.7714 2.67418 13.7062 2.62741 13.6346 2.59591C13.5629 2.56441 13.4863 2.54881 13.4091 2.55H9.33057C9.33057 1.14926 8.28021 0 7 0ZM7 1.275C7.65028 1.275 8.16528 1.83849 8.16528 2.55H5.83472C5.83472 1.83849 6.34972 1.275 7 1.275ZM5.25208 5.95C5.57369 5.95 5.83472 6.2356 5.83472 6.5875V12.9625C5.83472 13.3144 5.57369 13.6 5.25208 13.6C4.93046 13.6 4.66943 13.3144 4.66943 12.9625V6.5875C4.66943 6.2356 4.93046 5.95 5.25208 5.95ZM8.74793 5.95C9.06954 5.95 9.33057 6.2356 9.33057 6.5875V12.9625C9.33057 13.3144 9.06954 13.6 8.74793 13.6C8.42631 13.6 8.16528 13.3144 8.16528 12.9625V6.5875C8.16528 6.2356 8.42631 5.95 8.74793 5.95Z" fill="#DB135B"/>
</svg>
