<svg width="9171" height="3660" viewBox="0 0 9171 3660" fill="none" xmlns="http://www.w3.org/2000/svg">
<g clip-path="url(#clip0_1064_30041)">
<path d="M9150.68 74.6692C8984.09 313.123 8822.39 544.329 8660.69 775.536C8616.28 839.026 8568.56 902.235 8529.46 966.232C8519.02 983.728 8524.09 1002.09 8543.84 1018.32C8972.59 1322.85 9168.79 1649.29 9102.1 1994.94C8989.56 2577.48 8303.37 3036.02 7067.54 3363.47C6243.81 3581.92 5319.45 3682.55 4327.4 3654.46C2530.73 3603.89 1199.6 3258.57 447.732 2620.97C-285.311 1998.93 -109.237 1389.09 913.574 831.104C1648.34 430.216 2669.57 196.2 3920.06 123.158C4887.67 66.9155 5806.42 132.091 6677.59 306.269C6722.35 314.122 6772.56 315.883 6820.18 311.269C7561.85 236.541 8302.79 160.353 9043.89 84.5579C9073.78 81.5239 9104.11 78.8831 9150.68 74.6692ZM8059.74 496.852C8030.99 498.931 8019.21 499.549 8007.42 500.785C7589.3 543.711 7170.75 585.963 6753.63 630.013C6667.39 639.172 6599.98 635.632 6522.22 617.372C5682.81 421.9 4778.44 357.342 3822.75 433.867C1801.13 595.739 503.789 1342.79 849.613 2137.1C1143.26 2811.33 2633.64 3327.85 4377.13 3356.34C5341.3 3372.69 6208.88 3264.7 6953.99 3024.5C7806.05 2750.09 8271.17 2393.81 8339.3 1962.97C8389.47 1645.69 8185.36 1351.44 7746.4 1083.38C7695.66 1052.42 7685.46 1025.85 7711.47 990.392C7830.48 828.182 7941.88 665.074 8059.74 496.852Z" fill="white"/>
<path d="M6046.89 2699.33C5840.49 2720.23 5746.77 2671.24 5677.49 2600.67C5576.45 2497.51 5464.19 2395.93 5352.8 2294.29C5315.28 2260.07 5316.43 2229.28 5373.06 2199.5C5464.19 2151.63 5553.02 2102.97 5649.32 2056.73C5709.83 2027.68 5719.32 2001.39 5669.73 1968.63C5298.75 1723.49 4778.58 1546.45 4100.87 1440.99C4012.77 1427.28 3940.04 1432.56 3879.67 1461.89C3764.68 1518.07 3643.8 1572.91 3533.13 1630.45C3468.88 1664.16 3393.85 1674.1 3301.43 1657.19C2979.17 1598.25 2657.21 1539.2 2339.56 1476.33C2301.04 1468.74 2267.69 1440.31 2267.69 1421.83C2275.88 1233.43 2417.61 1142.47 2935.62 1057.63C3228.7 1009.64 3532.41 1021.44 3833.96 1054.31C4926.34 1173.26 5730.53 1441.6 6375.18 1794.96C6577.84 1906.04 6760.82 2020.66 6837.86 2155.67C6947.53 2348.06 6826.07 2514.82 6463.29 2653.6C6349.45 2697.59 6210.89 2708.15 6046.89 2699.33Z" fill="white"/>
</g>
<defs>
<clipPath id="clip0_1064_30041">
<rect width="14955" height="5858" fill="white" transform="matrix(-0.611881 0 0 -0.611881 9150.68 3659.05)"/>
</clipPath>
</defs>
</svg>
