<svg width="20" height="35" viewBox="0 0 20 35" fill="none" xmlns="http://www.w3.org/2000/svg">
<g clip-path="url(#clip0_0_89)">
<path d="M17.5314 1.86982e-05C17.9498 0.259886 18.0614 0.465067 17.9637 0.793321C17.9421 0.910869 17.8809 1.01791 17.7898 1.09727C17.6988 1.17662 17.5832 1.22371 17.4617 1.231C17.3225 1.24462 17.1824 1.24462 17.0433 1.231H2.64995C2.50442 1.23724 2.36135 1.19248 2.24637 1.10478C2.13139 1.01708 2.05198 0.892106 2.02232 0.752249C1.98683 0.617854 2.00098 0.475537 2.06224 0.350381C2.1235 0.225224 2.22791 0.125298 2.35703 0.0683881L2.46863 -0.0136719L17.5314 1.86982e-05Z" fill="white"/>
<path d="M20 32.3868H0V31.9765C0 23.4328 0 14.8891 0 6.3454C7.36222e-05 6.09992 0.0675389 5.85897 0.195278 5.64785C0.795 4.5947 1.4366 3.56896 2.06421 2.52949C2.1105 2.42442 2.18921 2.33618 2.28929 2.2773C2.38936 2.21841 2.50573 2.19178 2.62204 2.20116H17.364C17.4715 2.19214 17.5792 2.21464 17.6736 2.26578C17.7679 2.31692 17.8447 2.39442 17.894 2.48842C18.5216 3.56892 19.1911 4.63572 19.8327 5.71622C19.932 5.88218 19.9849 6.07092 19.9861 6.26334V32.3868H20ZM18.8006 12.6643C18.3539 12.9185 17.8876 13.138 17.4059 13.3207C16.0631 13.6338 14.6542 13.5286 13.3752 13.0199C11.8243 12.4668 10.3451 11.7369 8.968 10.8452C8.30925 10.4257 7.61919 10.0553 6.90378 9.73732C6.13203 9.33132 5.24354 9.19155 4.381 9.34038C3.51846 9.48921 2.73198 9.91806 2.14789 10.558C1.52576 11.1775 1.17966 12.0136 1.18555 12.8831C1.18555 15.851 1.18555 18.8327 1.18555 21.8006V22.2657C1.53422 21.8554 1.79918 21.4997 2.10601 21.1851C2.67479 20.5289 3.3763 19.9955 4.16614 19.6188C4.95598 19.2421 5.817 19.0303 6.69463 18.9968C7.90433 19.0138 9.09865 19.2647 10.2092 19.7354C11.1437 20.0773 12.0642 20.4466 12.9986 20.8432C14.6717 21.5722 16.5626 21.66 18.2985 21.0894C18.8982 20.9116 18.8006 21.0894 18.8006 20.4192C18.8006 17.9573 18.8006 15.4955 18.8006 13.0336V12.6643Z" fill="white"/>
<path d="M20 33.1406C19.8187 33.7424 19.6513 34.3032 19.47 34.8639C19.4545 34.8963 19.4312 34.9244 19.402 34.9459C19.3728 34.9674 19.3387 34.9815 19.3026 34.9871C19.2102 35.0009 19.1161 35.0009 19.0237 34.9871H0.976262C0.91335 34.9989 0.848582 34.9973 0.786347 34.9824C0.724112 34.9675 0.665865 34.9397 0.615585 34.9007C0.565304 34.8618 0.524176 34.8127 0.494962 34.7568C0.465747 34.7009 0.449125 34.6395 0.44627 34.5768C0.320747 34.0981 0.167333 33.6193 0.013916 33.1133L20 33.1406Z" fill="white"/>
</g>
<defs>
<clipPath id="clip0_0_89">
<rect width="20" height="35" fill="white"/>
</clipPath>
</defs>
</svg>
