<svg width="49" height="44" viewBox="0 0 49 44" fill="none" xmlns="http://www.w3.org/2000/svg">
<path d="M38.9116 33.3258L35.9282 40.2285L24.8262 35.4255L27.8094 28.5228L34.4147 26.3881L35.4645 26.0469L35.9457 27.053L38.9116 33.3258Z" stroke="#A9612D" stroke-width="1.7" stroke-linecap="round" stroke-linejoin="round"/>
<path d="M39.8652 35.3384L38.9116 33.3262" stroke="#A9612D" stroke-width="1.7" stroke-linecap="round" stroke-linejoin="round"/>
<path d="M27.8095 28.5234L25.6924 29.2146" stroke="#A9612D" stroke-width="1.7" stroke-linecap="round" stroke-linejoin="round"/>
<path d="M34.6164 33.893L30.3282 32.0391L28.1793 37.0099L32.4674 38.8637L34.6164 33.893Z" stroke="#A9612D" stroke-width="1.7" stroke-linecap="round" stroke-linejoin="round"/>
<path d="M34.266 20.6669C34.3451 20.0609 34.3715 19.4491 34.3448 18.8385C34.2157 16.231 33.0568 13.7814 31.1228 12.0278C29.1887 10.2742 26.6377 9.36004 24.03 9.48611C22.7273 9.51927 21.4449 9.81666 20.2606 10.3602C19.0762 10.9038 18.0146 11.6823 17.1401 12.6484C16.2656 13.6145 15.5964 14.7482 15.1732 15.9807C14.7499 17.2132 14.5813 18.5188 14.6777 19.8183C14.6777 19.8183 14.8789 29.0045 22.8753 33.1076" stroke="#A9612D" stroke-width="1.7" stroke-linecap="round" stroke-linejoin="round"/>
<path d="M26.8471 6.09208C23.611 5.38818 20.2309 5.83041 17.2848 7.34314C10.1109 11.0526 7.16259 19.5913 11.2657 27.5526C14.3978 35.7414 29.2005 44.2889 43.3909 41.9267" stroke="#A9612D" stroke-width="1.7" stroke-linecap="round" stroke-linejoin="round"/>
<path d="M11.5807 7.51758C6.00778 11.4195 3.79431 18.9696 7.04883 26.5197C9.00854 32.8363 17.0136 39.9052 26.7159 42.9498" stroke="#A9612D" stroke-width="1.7" stroke-linecap="round" stroke-linejoin="round"/>
<path d="M2.57825 23.5371C2.79014 24.906 3.15399 26.247 3.66308 27.5353C4.73917 31.5072 8.15119 35.8465 12.8842 39.3723" stroke="#A9612D" stroke-width="1.7" stroke-linecap="round" stroke-linejoin="round"/>
<path d="M18.2822 22.6094C18.4584 24.0402 18.9296 25.4189 19.666 26.6582C20.4024 27.8976 21.3879 28.9706 22.5602 29.8096" stroke="#A9612D" stroke-width="1.7" stroke-linecap="round" stroke-linejoin="round"/>
<path d="M39.0254 38.3739C41.8125 38.9759 44.7151 38.7447 47.3717 37.709" stroke="#A9612D" stroke-width="1.7" stroke-linecap="round" stroke-linejoin="round"/>
<path d="M17.8534 16.7905C18.3568 15.2119 19.404 13.8631 20.8085 12.9841C22.2131 12.1051 23.8839 11.7528 25.5238 11.9901C27.1636 12.2274 28.6661 13.0387 29.7639 14.2798C30.8617 15.5208 31.4836 17.1111 31.519 18.7677" stroke="#A9612D" stroke-width="1.7" stroke-linecap="round" stroke-linejoin="round"/>
<path d="M1.10852 14.6479C2.23602 10.4107 4.84175 6.71642 8.45499 4.23247C12.0682 1.74853 16.4506 0.638732 20.8106 1.10357C25.1706 1.56841 29.2207 3.57723 32.229 6.76713C35.2373 9.95704 37.0055 14.1177 37.2143 18.4974" stroke="#A9612D" stroke-width="1.7" stroke-linecap="round" stroke-linejoin="round"/>
</svg>
