<svg width="18" height="18" viewBox="0 0 18 18" fill="none" xmlns="http://www.w3.org/2000/svg">
<g clip-path="url(#clip0_0_603)">
<path d="M12.5494 13.6088C12.8423 13.9017 13.3172 13.9017 13.6101 13.6088C13.9029 13.3159 13.9029 12.8411 13.6101 12.5482L10.061 8.99914L13.6098 5.45037C13.9027 5.15747 13.9027 4.6826 13.6098 4.3897C13.3169 4.09681 12.842 4.09681 12.5491 4.38971L9.00037 7.93848L5.45147 4.38959C5.15858 4.0967 4.68371 4.0967 4.39081 4.38959C4.09792 4.68248 4.09792 5.15736 4.39081 5.45025L7.93971 8.99914L4.39057 12.5483C4.09768 12.8412 4.09768 13.316 4.39057 13.6089C4.68346 13.9018 5.15834 13.9018 5.45123 13.6089L9.00037 10.0598L12.5494 13.6088Z" fill="#A4A5A5"/>
</g>
<defs>
<clipPath id="clip0_0_603">
<rect width="18" height="18" fill="white"/>
</clipPath>
</defs>
</svg>
