<svg width="29" height="30" viewBox="0 0 29 30" fill="none" xmlns="http://www.w3.org/2000/svg">
<g clip-path="url(#clip0_0_180)">
<path d="M13.6266 30H5.65784C5.68596 29.8281 5.70393 29.6539 5.74221 29.4852C7.49065 21.7945 9.24013 14.1044 10.9906 6.41484C11.4766 4.2737 11.9646 2.13542 12.4547 0H13.6266C13.6266 0.946094 13.6133 1.89141 13.6211 2.8375C13.6243 3.02001 13.6871 3.19648 13.7999 3.33994C13.9128 3.48341 14.0695 3.586 14.2461 3.63203C14.8344 3.80313 15.3633 3.38125 15.3719 2.72031C15.3828 1.81406 15.3821 0.907031 15.3867 0H17.1446C17.3789 1.05547 17.6133 2.10937 17.8477 3.16719C19.4763 10.3339 21.106 17.5005 22.7367 24.6672C23.1409 26.4437 23.5422 28.2214 23.9406 30H15.3852C15.3797 29.1406 15.3758 28.2812 15.3672 27.4219C15.3697 27.2758 15.3563 27.1299 15.3274 26.9867C15.2785 26.7915 15.1635 26.6192 15.002 26.4992C14.8405 26.3791 14.6425 26.3187 14.4414 26.3281C14.0008 26.357 13.6282 26.6945 13.6211 27.1344C13.6071 28.0891 13.6235 29.0445 13.6266 30ZM13.6125 12.2312V13.4031C13.6125 13.4227 13.6125 13.4422 13.6125 13.4617C13.6305 13.9727 13.9875 14.3461 14.4719 14.3555C14.5871 14.3584 14.7017 14.3384 14.8092 14.2966C14.9166 14.2549 15.0146 14.1922 15.0976 14.1123C15.1806 14.0323 15.2469 13.9367 15.2927 13.8309C15.3384 13.7251 15.3627 13.6113 15.3641 13.4961C15.3844 12.6477 15.3844 11.7992 15.3641 10.9508C15.3618 10.8354 15.3365 10.7216 15.2899 10.616C15.2432 10.5104 15.176 10.4152 15.0922 10.3358C15.0084 10.2564 14.9096 10.1945 14.8016 10.1536C14.6937 10.1127 14.5787 10.0937 14.4633 10.0977C13.9813 10.1172 13.6274 10.4883 13.618 11.0039C13.6071 11.4117 13.6133 11.8219 13.6125 12.2312ZM13.6125 17.3781C13.6125 17.7682 13.6125 18.1589 13.6125 18.55V18.6086C13.6297 19.1242 13.9789 19.4969 14.4594 19.5117C14.5746 19.5164 14.6896 19.4981 14.7977 19.4577C14.9057 19.4173 15.0046 19.3558 15.0885 19.2767C15.1724 19.1976 15.2397 19.1025 15.2863 18.997C15.333 18.8915 15.3581 18.7778 15.3602 18.6625C15.3826 17.8141 15.3826 16.9654 15.3602 16.1164C15.3585 16.0013 15.334 15.8877 15.2882 15.7822C15.2424 15.6766 15.1761 15.5811 15.0933 15.5012C15.0104 15.4214 14.9126 15.3587 14.8054 15.3168C14.6982 15.2748 14.5838 15.2545 14.4688 15.257C13.9883 15.2695 13.6242 15.6477 13.6094 16.1547C13.6039 16.5625 13.611 16.968 13.6102 17.3781H13.6125ZM15.3742 22.5867V21.4148C15.3586 20.8555 14.975 20.4516 14.4727 20.4656C13.9703 20.4797 13.6203 20.868 13.618 21.4227C13.6143 22.2039 13.6143 22.9852 13.618 23.7664C13.618 24.3398 13.9813 24.7297 14.4953 24.7273C15.0094 24.725 15.3664 24.3273 15.3735 23.7586C15.3766 23.3672 15.3719 22.9766 15.3719 22.5867H15.3742ZM15.368 7.12578C15.368 6.74531 15.3766 6.36484 15.368 5.98438C15.3524 5.4375 14.9703 5.04688 14.4774 5.05625C13.9844 5.06563 13.618 5.45234 13.618 6.00547C13.6117 6.74687 13.6133 7.48984 13.618 8.22969C13.618 8.80703 13.9758 9.19609 14.4883 9.19844C15.0008 9.20078 15.3633 8.80781 15.3735 8.2375C15.3711 7.86719 15.3664 7.5 15.3656 7.12578H15.368Z" fill="white"/>
<path d="M1.7898 30C1.64292 29.9515 1.4937 29.9093 1.34995 29.8546C0.35933 29.4757 -0.227391 28.3781 0.0835467 27.3546C0.592922 25.6765 1.14917 24.0125 1.69214 22.3437C3.92808 15.4687 6.16245 8.59136 8.39527 1.71167C8.69136 0.796827 9.24526 0.227295 10.1695 0.000732422H10.6382C10.2283 1.81636 9.81766 3.63198 9.4062 5.44761C7.77756 12.6148 6.14787 19.7815 4.51714 26.9476C4.28277 27.9632 4.06558 28.9828 3.84058 30.0007L1.7898 30Z" fill="white"/>
<path d="M19.3695 0C19.7023 0.15625 20.0578 0.273437 20.3609 0.473437C20.775 0.747656 20.9742 1.18906 21.1164 1.65781C22.7778 7.11875 24.4411 12.5797 26.1062 18.0406C27.0203 21.0411 27.9362 24.0414 28.8539 27.0414C29.1445 27.9867 29.0273 28.8328 28.2515 29.4852C27.9656 29.725 27.5687 29.832 27.2219 30H25.757C25.2883 27.9469 24.8195 25.894 24.3508 23.8414C22.7008 16.5888 21.0528 9.3362 19.407 2.08359C19.2508 1.39062 19.1086 0.694531 18.9594 0H19.3695Z" fill="white"/>
</g>
<defs>
<clipPath id="clip0_0_180">
<rect width="29" height="30" fill="white"/>
</clipPath>
</defs>
</svg>
