<svg width="22" height="22" viewBox="0 0 22 22" fill="none" xmlns="http://www.w3.org/2000/svg">
<g clip-path="url(#clip0_1002_32052)">
<path fill-rule="evenodd" clip-rule="evenodd" d="M14.8384 4.61167C14.8143 4.23353 14.7487 3.85918 14.6428 3.49538C14.4022 2.71303 13.9152 2.02937 13.2545 1.5463C12.5938 1.06322 11.7946 0.806581 10.9761 0.814637C10.2496 0.810161 9.53699 1.01331 8.92205 1.40017C8.30711 1.78703 7.81548 2.34151 7.50502 2.99834L8.14872 3.71538L8.61317 4.22056C8.62983 4.11299 8.65434 4.00678 8.6865 3.90279C8.81655 3.41473 9.10271 2.98262 9.50131 2.67242C9.92072 2.36461 10.4274 2.19864 10.9476 2.19864C11.4678 2.19864 11.9745 2.36461 12.3939 2.67242C12.7925 2.98262 13.0787 3.41473 13.2087 3.90279C13.283 4.1355 13.3295 4.37618 13.3472 4.61982C13.3472 4.79908 13.3472 5.78501 13.3472 7.30871C13.3472 7.95242 13.3472 8.68575 13.3472 9.49242L13.9258 10.128L14.7406 11.0569C14.7406 10.9183 14.7406 10.7798 14.7406 10.6495V7.16205C14.7406 7.05612 14.7406 6.85242 14.7406 6.61612C14.8465 5.93982 14.8546 4.91316 14.8384 4.61167ZM13.3065 12.4665C13.3103 12.5207 13.3103 12.5752 13.3065 12.6295C13.1764 13.1175 12.8903 13.5496 12.4917 13.8598C12.0723 14.1676 11.5656 14.3336 11.0454 14.3336C10.5252 14.3336 10.0185 14.1676 9.59909 13.8598C9.20049 13.5496 8.91433 13.1175 8.78428 12.6295C8.7186 12.3984 8.68031 12.1605 8.67021 11.9206C8.67021 11.6517 8.67021 11.562 8.67021 11.3013C8.67021 10.0302 8.67021 8.85686 8.67021 7.89538V7.22723L8.09984 6.59982L7.12206 5.66279V10.7472C7.12206 11.1302 7.12206 11.562 7.12206 11.9206C7.1521 12.2846 7.21759 12.6448 7.31761 12.9961C7.54501 13.7683 8.02396 14.4422 8.67835 14.9109C9.34198 15.41 10.1498 15.6799 10.9802 15.6799C11.8106 15.6799 12.6184 15.41 13.2821 14.9109C13.7457 14.5695 14.1248 14.1263 14.3902 13.6154L13.9013 13.0857L13.3065 12.4665ZM16.7043 9.37019C16.6122 9.36803 16.5207 9.38402 16.4348 9.41725C16.349 9.45048 16.2705 9.50029 16.204 9.56386C16.1374 9.62742 16.084 9.70347 16.0468 9.78769C16.0096 9.8719 15.9894 9.96261 15.9872 10.0546V12.3117L17.1443 13.5828C17.3253 13.0054 17.416 12.4035 17.4132 11.7983V10.1198C17.4172 10.0983 17.4172 10.0762 17.4132 10.0546C17.4068 9.8709 17.3293 9.69681 17.1971 9.56911C17.0648 9.44141 16.8881 9.37008 16.7043 9.37019ZM11.1228 16.8176H10.8295C9.61013 16.8023 8.4388 16.3401 7.53765 15.5186C6.6365 14.697 6.06821 13.5733 5.94057 12.3606V12.0672V10.0546C5.92174 9.87869 5.83851 9.71592 5.70689 9.59764C5.57527 9.47936 5.40457 9.41393 5.22761 9.41393C5.05066 9.41393 4.87995 9.47936 4.74833 9.59764C4.61672 9.71592 4.53349 9.87869 4.51465 10.0546V11.8065C4.53504 13.3626 5.12789 14.8568 6.17999 16.0036C7.23209 17.1503 8.66971 17.8694 10.2184 18.0235V20.1176H7.54576C7.36207 20.1176 7.18591 20.1906 7.05602 20.3205C6.92614 20.4503 6.85317 20.6265 6.85317 20.8102C6.85317 20.9939 6.92614 21.17 7.05602 21.2999C7.18591 21.4298 7.36207 21.5028 7.54576 21.5028H14.4146C14.5983 21.5028 14.7745 21.4298 14.9044 21.2999C15.0343 21.17 15.1072 20.9939 15.1072 20.8102C15.1072 20.6265 15.0343 20.4503 14.9044 20.3205C14.7745 20.1906 14.5983 20.1176 14.4146 20.1176H11.6932V18.0235C12.5563 17.9312 13.3922 17.6674 14.152 17.2476C14.9117 16.8279 15.58 16.2606 16.1176 15.5791L15.205 14.5769C14.7532 15.2495 14.1468 15.804 13.4365 16.1938C12.7262 16.5837 11.9328 16.7976 11.1228 16.8176Z" fill="#8E969B"/>
<path d="M13.3064 12.4663L13.9012 13.1181C13.7769 13.6342 13.5178 14.1081 13.1504 14.4913C12.7829 14.8745 12.3203 15.1532 11.8099 15.2991C11.2994 15.4449 10.7594 15.4526 10.245 15.3214C9.73056 15.1902 9.26021 14.9247 8.88199 14.5522C8.60162 14.2755 8.37935 13.9455 8.22823 13.5817C8.07712 13.2179 8.0002 12.8276 8.00198 12.4337V6.59961L8.57235 7.22702L13.3064 12.4663Z" fill="#8E969B"/>
<path d="M13.9825 4.70913V10.1276L13.404 9.49209L8.61288 4.22024L8.14844 3.71505C8.37967 3.04246 8.84246 2.47396 9.45414 2.11108C10.0658 1.74819 10.7866 1.61455 11.4877 1.73402C12.1888 1.85348 12.8247 2.21828 13.2817 2.76325C13.7387 3.30823 13.9871 3.99791 13.9825 4.70913Z" fill="#8E969B"/>
<path d="M3.25977 1.84082L19.8005 20.2719" stroke="#8E969B" stroke-width="1.3" stroke-miterlimit="10" stroke-linecap="round"/>
</g>
<defs>
<clipPath id="clip0_1002_32052">
<rect width="19.5556" height="21.1854" fill="white" transform="translate(1.62988 0.814453)"/>
</clipPath>
</defs>
</svg>
