<svg width="35" height="49" viewBox="0 0 35 49" fill="none" xmlns="http://www.w3.org/2000/svg">
<path d="M34.7681 13.4892C34.6767 15.8416 33.7985 18.0953 32.2742 19.8895C32.2428 19.93 32.2028 19.9629 32.1569 19.9858C32.1111 20.0087 32.0607 20.021 32.0094 20.0219C31.9608 20.0215 31.9128 20.0105 31.8689 19.9895C31.8251 19.9685 31.7864 19.9381 31.7556 19.9005C29.968 17.9252 30.1997 16.59 30.3652 15.63C30.3705 15.5418 30.3705 15.4534 30.3652 15.3652C30.6682 13.9322 30.592 12.4451 30.1444 11.0505C29.9668 11.8293 29.6651 12.5745 29.2507 13.2575L28.9859 13.732C28.4721 14.5227 28.0988 15.3963 27.8824 16.3142C27.7686 17.0872 27.8872 17.8766 28.2232 18.582C28.5592 19.2874 29.0974 19.8769 29.7693 20.2757C29.8357 20.3103 29.8891 20.3657 29.921 20.4335C29.9529 20.5012 29.9616 20.5776 29.9459 20.6509C29.9294 20.7252 29.8893 20.7922 29.8317 20.8419C29.774 20.8917 29.7018 20.9214 29.6258 20.9267H29.2949C28.043 20.9276 26.8396 20.4427 25.9381 19.5741C25.0366 18.7055 24.5073 17.521 24.4616 16.27C24.4359 15.5409 24.5912 14.8167 24.9139 14.1624C25.0827 13.8341 25.2784 13.5204 25.4988 13.2244C25.5896 13.1113 25.6743 12.9934 25.7526 12.8713C26.4091 11.8478 26.8308 10.6916 26.9873 9.48573C27.1437 8.27989 27.0311 7.05436 26.6575 5.89722C26.451 5.10581 26.1033 4.35817 25.6312 3.69025C25.5856 3.63198 25.5608 3.56011 25.5608 3.4861C25.5608 3.41209 25.5856 3.34022 25.6312 3.28196C25.663 3.23569 25.7059 3.19825 25.7561 3.17316C25.8063 3.14806 25.8621 3.13614 25.9181 3.1385H26.0285C31.5128 5.02547 34.7681 8.84354 34.7681 13.4892Z" fill="#A9612D"/>
<path d="M0.85798 20.905H7.14786" stroke="#A9612D" stroke-width="1.7" stroke-linecap="round" stroke-linejoin="round"/>
<path d="M0.85798 26.897H7.14786" stroke="#A9612D" stroke-width="1.7" stroke-linecap="round" stroke-linejoin="round"/>
<path d="M0.85798 8.89915H7.14786" stroke="#A9612D" stroke-width="1.7" stroke-linecap="round" stroke-linejoin="round"/>
<path d="M0.85798 14.9021H7.14786" stroke="#A9612D" stroke-width="1.7" stroke-linecap="round" stroke-linejoin="round"/>
<path d="M11.8267 3.76771C12.1826 2.78567 12.8753 1.9617 13.7816 1.44231C14.6879 0.922923 15.7491 0.741775 16.7763 0.931079C17.8036 1.12038 18.7305 1.66787 19.3921 2.47619C20.0537 3.28451 20.4072 4.30128 20.3897 5.3457V33.5178C21.8171 34.4658 22.9014 35.8481 23.482 37.4603C24.0626 39.0724 24.1088 40.8286 23.6137 42.469C23.1186 44.1095 22.1084 45.5469 20.7328 46.5686C19.3572 47.5903 17.6893 48.142 15.9758 48.142C14.2623 48.142 12.5943 47.5903 11.2187 46.5686C9.84315 45.5469 8.83297 44.1095 8.33785 42.469C7.84273 40.8286 7.88895 39.0724 8.46959 37.4603C9.05022 35.8481 10.1345 34.4658 11.5618 33.5178V7.33198" stroke="#A9612D" stroke-width="1.7" stroke-miterlimit="10" stroke-linecap="round"/>
<path d="M21.096 40.1385C21.096 41.5023 20.5542 42.8103 19.5899 43.7746C18.6255 44.739 17.3175 45.2808 15.9537 45.2808C14.5899 45.2808 13.282 44.739 12.3176 43.7746C11.3533 42.8103 10.8115 41.5023 10.8115 40.1385C10.7947 39.9034 10.7947 39.6674 10.8115 39.4323C10.9746 38.1956 11.5815 37.0604 12.5194 36.2381C13.4573 35.4157 14.6623 34.9623 15.9096 34.9623C17.157 34.9623 18.3618 35.4157 19.2997 36.2381C20.2376 37.0604 20.8447 38.1956 21.0077 39.4323C21.0541 39.6653 21.0835 39.9013 21.096 40.1385Z" stroke="#A9612D" stroke-width="1.7" stroke-miterlimit="10"/>
<path d="M15.9648 34.6213V20.4856" stroke="#A9612D" stroke-width="1.7" stroke-linecap="round" stroke-linejoin="round"/>
</svg>
