<svg width="8" height="7" viewBox="0 0 8 7" fill="none" xmlns="http://www.w3.org/2000/svg">
<path d="M0.505004 3.89497C0.892131 4.24224 1.38866 4.44643 1.84101 4.6909L3.59431 5.63615C4.33981 6.03897 5.08742 6.43902 5.83221 6.84462L5.8245 6.84045L5.80697 6.83072L5.79715 6.82447L5.78102 6.81406L5.76909 6.80642L5.75507 6.79669L5.74385 6.78836L5.73052 6.77794L5.7186 6.76891L5.70527 6.7585L5.69476 6.74877L5.68143 6.73766L5.67161 6.72793L5.65829 6.71544L5.64847 6.70571L5.63654 6.69321L5.62532 6.68071L5.61481 6.6689L5.60429 6.65709C5.60093 6.65239 5.59717 6.64798 5.59306 6.6439L5.58465 6.63209L5.57272 6.61751L5.56571 6.60778L5.55379 6.59042L5.54538 6.57861L5.53486 6.56264L5.52785 6.55014C5.5237 6.54462 5.51995 6.53882 5.51662 6.53278C5.51662 6.53278 5.51242 6.52583 5.51101 6.52305L5.49979 6.50291L5.49348 6.4911C5.49348 6.48416 5.48647 6.47791 5.48366 6.47096L5.47734 6.45985L5.46752 6.43901L5.46262 6.4286C5.46262 6.42096 5.45631 6.41331 5.4528 6.40498V6.39873C5.44929 6.3897 5.44578 6.38067 5.44158 6.37164C5.43737 6.36262 5.44158 6.36539 5.44158 6.36192C5.44158 6.35845 5.43457 6.34456 5.43176 6.33553C5.43176 6.32511 5.42475 6.3147 5.42054 6.30358C5.4198 6.29976 5.41862 6.29603 5.41703 6.29247C5.41703 6.28413 5.41282 6.2758 5.41002 6.26747C5.40721 6.25913 5.41002 6.25566 5.40511 6.2501C5.40021 6.24455 5.4016 6.23622 5.3995 6.22927C5.39739 6.22233 5.3995 6.21954 5.3995 6.21468L5.39319 6.18898C5.39345 6.18691 5.39345 6.18481 5.39319 6.18274C5.39319 6.17162 5.38828 6.16051 5.38618 6.1494C5.37846 6.10981 5.37215 6.06883 5.36724 6.02577L5.36303 5.9841C5.36303 5.96118 5.35882 5.93827 5.35742 5.91465C5.35602 5.89104 5.35742 5.87298 5.35742 5.85145C5.35742 5.82992 5.35742 5.8202 5.35742 5.80422C5.35714 5.72049 5.36135 5.63679 5.37005 5.5535C5.37426 5.51252 5.37916 5.47155 5.38548 5.43057C5.38548 5.42085 5.38547 5.41043 5.39038 5.4007C5.41675 5.23744 5.45616 5.0765 5.50821 4.9194C5.74806 4.19015 6.2509 3.48243 6.84491 3.106L6.8856 3.081C7.05723 2.96688 7.2501 2.88778 7.45296 2.84833H7.45717H7.48873H7.49293H7.52449H7.5308H7.56096H7.6367H7.66195H7.67247H7.69631H7.70473H7.72858H7.7398H7.76154H7.77206L7.79239 2.8525H7.80572L7.82396 2.85667H7.83658L7.85551 2.86222L7.86814 2.86639L7.88497 2.87125L7.89829 2.87681L7.91512 2.88236L7.92775 2.88792L7.94388 2.89487L7.9579 2.90112L7.97194 2.90806L7.98596 2.915C7.99084 2.91716 7.99554 2.91971 7.99999 2.92264L5.72842 1.69612L3.98704 0.764766C3.14546 0.309159 1.9925 -0.442314 1.0899 0.339718C0.910696 0.49873 0.751727 0.678779 0.616515 0.875887C-0.0111639 1.77599 -0.331668 3.14559 0.505004 3.89497Z" fill="#03476D"/>
</svg>
