<svg width="39" height="50" viewBox="0 0 39 50" fill="none" xmlns="http://www.w3.org/2000/svg">
<path d="M4.14024 7.42147C4.95238 7.42147 5.6108 6.76311 5.6108 5.95097C5.6108 5.13883 4.95238 4.48047 4.14024 4.48047C3.32811 4.48047 2.6698 5.13883 2.6698 5.95097C2.6698 6.76311 3.32811 7.42147 4.14024 7.42147Z" fill="#A9612D"/>
<path d="M32.8434 34.5594C33.4213 34.5594 33.8897 34.091 33.8897 33.5131C33.8897 32.9353 33.4213 32.4668 32.8434 32.4668C32.2656 32.4668 31.797 32.9353 31.797 33.5131C31.797 34.091 32.2656 34.5594 32.8434 34.5594Z" fill="#A9612D"/>
<path d="M1.44437 26.3485C2.14197 26.3485 2.70746 25.783 2.70746 25.0854C2.70746 24.3878 2.14197 23.8223 1.44437 23.8223C0.746762 23.8223 0.181274 24.3878 0.181274 25.0854C0.181274 25.783 0.746762 26.3485 1.44437 26.3485Z" fill="#A9612D"/>
<path d="M14.1982 8.4668C6.65719 9.975 1.10509 12.9254 1.46329 15.4611C1.86862 18.289 9.45679 19.5521 18.4306 18.289C27.4045 17.0259 34.3045 13.6607 33.8992 10.8328C33.8992 10.8328 33.5316 5.86514 16.4417 10.3992C9.60762 12.5295 13.6138 14.8861 19.5995 14.066" stroke="#A9612D" stroke-width="1.7" stroke-miterlimit="10" stroke-linecap="round"/>
<path d="M30.5716 18.4492C28.922 20.3345 24.9158 22.2763 20.099 23.2283C13.3875 24.548 7.54319 23.5677 7.0436 21.0509C6.99935 20.5879 7.06989 20.1212 7.24911 19.6921C7.42833 19.2629 7.71067 18.8846 8.07103 18.5906" stroke="#A9612D" stroke-width="1.7" stroke-miterlimit="10" stroke-linecap="round"/>
<path d="M29.7798 23.8145C28.4979 25.6997 25.3023 27.4153 21.3527 28.1977C15.8854 29.2723 11.0498 28.094 10.5502 25.5677" stroke="#A9612D" stroke-width="1.7" stroke-miterlimit="10" stroke-linecap="round"/>
<path d="M27.9605 29.9688C27.4232 31.5807 24.7933 32.9098 21.56 33.0795C17.8649 33.2869 14.792 31.9012 14.6883 29.9971C14.6764 29.4257 14.8858 28.8718 15.2728 28.4512" stroke="#A9612D" stroke-width="1.7" stroke-miterlimit="10" stroke-linecap="round"/>
<path d="M23.549 36.7362C18.4871 38.7911 14.7921 36.5477 14.6884 34.6436C14.6838 34.3582 14.7355 34.0748 14.8406 33.8095C14.9458 33.5442 15.1022 33.3023 15.301 33.0977" stroke="#A9612D" stroke-width="1.7" stroke-miterlimit="10" stroke-linecap="round"/>
<path d="M21.4188 41.4318C16.9601 43.4584 13.6797 41.1961 13.576 39.2826C13.5601 38.7234 13.7477 38.1774 14.1039 37.7461" stroke="#A9612D" stroke-width="1.7" stroke-miterlimit="10" stroke-linecap="round"/>
<path d="M15.4424 45.4838C12.6145 45.974 11.1158 45.0125 11.7474 42.5051C11.8489 42.1302 12.0708 41.799 12.3789 41.5625" stroke="#A9612D" stroke-width="1.7" stroke-miterlimit="10" stroke-linecap="round"/>
<path d="M12.5769 48.5394C10.5691 49.2841 9.62639 48.4735 10.2862 45.9661C10.393 45.6178 10.573 45.2964 10.8142 45.0234" stroke="#A9612D" stroke-width="1.7" stroke-miterlimit="10" stroke-linecap="round"/>
<path d="M9.25882 33.6736C9.00023 33.307 8.67111 32.9956 8.29076 32.7577C7.9104 32.5198 7.48647 32.3601 7.04366 32.2879C6.92415 32.2762 6.80383 32.3016 6.69926 32.3607C6.59469 32.4197 6.51084 32.5095 6.45912 32.6179C6.23745 33.0301 6.11449 33.4881 6.09976 33.9558C6.08504 34.4236 6.179 34.8885 6.37431 35.3138C6.47066 35.4992 6.58765 35.6731 6.72308 35.8322C7.28253 36.4167 7.99977 36.826 8.7875 37.0105C8.92289 37.0332 9.06186 37.0067 9.17942 36.9359C9.29698 36.865 9.38531 36.7544 9.42842 36.624C9.62721 36.1519 9.71536 35.6406 9.68594 35.1291C9.65653 34.6177 9.51042 34.1198 9.25882 33.6736ZM8.5141 35.7474C8.03123 35.5793 7.62372 35.2453 7.36412 34.8048C7.27105 34.6051 7.21895 34.3887 7.21085 34.1685C7.20276 33.9484 7.23879 33.7288 7.31694 33.5228C7.72826 33.6487 8.08422 33.9114 8.32562 34.2675C8.57254 34.7194 8.63981 35.2479 8.5141 35.7474Z" fill="#A9612D"/>
<path d="M8.51408 35.748C8.03121 35.5799 7.6237 35.2459 7.3641 34.8054C7.27103 34.6057 7.21893 34.3894 7.21083 34.1692C7.20274 33.949 7.23877 33.7294 7.31692 33.5234C7.72824 33.6493 8.0842 33.9121 8.3256 34.2681C8.57252 34.7201 8.63979 35.2486 8.51408 35.748Z" fill="#A9612D"/>
<path d="M21.3622 1.31302C20.9377 0.982739 20.451 0.741538 19.931 0.603862C19.4111 0.466186 18.8688 0.434867 18.3364 0.511781C18.1939 0.535838 18.0631 0.60606 17.9643 0.71165C17.8655 0.81724 17.8042 0.952352 17.7896 1.09621C17.6766 1.6449 17.6945 2.21252 17.8419 2.753C17.9893 3.29348 18.262 3.79159 18.638 4.20689C18.8086 4.38437 18.9983 4.54244 19.2036 4.6782C20.0512 5.14909 21.0169 5.36513 21.9844 5.30034C22.1478 5.28211 22.2991 5.20516 22.41 5.08379C22.521 4.96243 22.5842 4.8049 22.5877 4.6405C22.6476 4.02936 22.5684 3.4126 22.3562 2.83637C22.144 2.26014 21.8042 1.73937 21.3622 1.31302ZM19.5901 3.28311C19.2324 2.87967 19.0493 2.35084 19.081 1.81261C19.3631 1.80881 19.6431 1.86156 19.9045 1.96774C20.1658 2.07393 20.4031 2.2314 20.6026 2.43086C20.802 2.63032 20.9595 2.86772 21.0657 3.12905C21.1719 3.39037 21.2246 3.67033 21.2208 3.95238C20.5992 3.91862 20.009 3.66852 19.5524 3.24541L19.5901 3.28311Z" fill="#A9612D"/>
<path d="M21.1831 3.91535C20.5794 3.88349 20.0043 3.64751 19.5523 3.24608C19.1946 2.84265 19.0116 2.31381 19.0433 1.77558C19.3254 1.77178 19.6053 1.82453 19.8666 1.93071C20.128 2.0369 20.3654 2.19437 20.5649 2.39383C20.7643 2.59329 20.9217 2.83069 21.0279 3.09202C21.1341 3.35335 21.1869 3.6333 21.1831 3.91535Z" fill="#A9612D"/>
<path d="M38.6782 22.3908C38.2908 22.2138 37.8672 22.1302 37.4416 22.1465C37.016 22.1629 36.6001 22.2789 36.2274 22.4851C36.0708 22.5855 35.9255 22.7024 35.7939 22.8339C35.2922 23.3758 34.9639 24.0553 34.8512 24.7851C34.8354 24.909 34.8648 25.0344 34.9341 25.1383C35.0033 25.2422 35.1078 25.3176 35.2282 25.3507C35.6724 25.494 36.143 25.5371 36.6059 25.4768C37.0688 25.4165 37.5126 25.2543 37.9053 25.0019C38.22 24.7435 38.4792 24.424 38.6671 24.0627C38.855 23.7015 38.9678 23.3059 38.9987 22.8998C39.0063 22.792 38.9793 22.6845 38.9217 22.5929C38.8641 22.5014 38.7788 22.4306 38.6782 22.3908ZM37.3209 24.1818C36.9233 24.4338 36.4458 24.528 35.9823 24.4458C36.1183 24.0064 36.3927 23.6228 36.7647 23.3523C37.1217 23.156 37.5417 23.1086 37.9335 23.2203C37.8414 23.5999 37.626 23.938 37.3209 24.1818Z" fill="#A9612D"/>
<path d="M36.5 23H38V23.5L37.5 24.5L36.5 25L35.5 24.5L36.5 23Z" fill="#A9612D"/>
</svg>
