<svg width="21" height="21" viewBox="0 0 21 21" fill="none" xmlns="http://www.w3.org/2000/svg">
<g clip-path="url(#clip0_1019_21267)">
<path d="M6.7992 7.41157L13.9586 13.2579L14.4091 12.7061C14.4156 12.6992 14.4206 12.691 14.4236 12.682C14.4266 12.673 14.4277 12.6634 14.4268 12.654C14.4258 12.6446 14.4229 12.6354 14.4181 12.6272C14.4133 12.619 14.4068 12.612 14.3991 12.6065L9.41311 8.47784L12.7751 7.85855C12.7881 7.85653 12.8002 7.8507 12.8098 7.84181C12.8195 7.83291 12.8263 7.82133 12.8294 7.80855C12.8325 7.79578 12.8317 7.78238 12.8272 7.77005C12.8226 7.75771 12.8145 7.74701 12.8039 7.73928L11.3851 6.58066C11.3774 6.57484 11.3685 6.57088 11.359 6.5691C11.3496 6.56733 11.3398 6.56778 11.3306 6.57043L6.82906 7.39598C6.81777 7.39808 6.80737 7.40351 6.7992 7.41157Z" fill="#A9612D"/>
<path d="M8.24828 13.2616C8.25872 13.2696 8.27119 13.2746 8.28428 13.2759C8.29737 13.2772 8.31057 13.2749 8.3224 13.2691C8.33423 13.2633 8.34422 13.2544 8.35124 13.2433C8.35827 13.2321 8.36205 13.2193 8.36217 13.2061L8.33775 9.78723L13.3265 13.9124C13.3411 13.9243 13.3597 13.9299 13.3784 13.928C13.3971 13.9262 13.4143 13.9169 13.4261 13.9024L13.9551 13.2546L6.79913 7.41114C6.79244 7.41473 6.78651 7.4196 6.7817 7.42548C6.7769 7.43137 6.77332 7.43814 6.77114 7.44542L6.79419 12.0342C6.79294 12.0446 6.79453 12.0552 6.79882 12.0647C6.80311 12.0742 6.80993 12.0824 6.81853 12.0884L8.24828 13.2616Z" fill="#A9612D"/>
</g>
<defs>
<clipPath id="clip0_1019_21267">
<rect width="6.86121" height="8.84635" fill="white" transform="matrix(-0.661188 0.80969 0.80969 0.661188 9.04924 4.65612)"/>
</clipPath>
</defs>
</svg>
