<svg width="75" height="75" viewBox="0 0 75 75" fill="none" xmlns="http://www.w3.org/2000/svg">
<path fill-rule="evenodd" clip-rule="evenodd" d="M37.5 0C58.2107 0 75 16.7893 75 37.5C75 58.2107 58.2107 75 37.5 75C16.7893 75 0 58.2107 0 37.5C0 16.7893 16.7893 0 37.5 0ZM37.5 4.36875C55.7974 4.37082 70.6289 19.2051 70.6275 37.5025C70.6261 55.7999 55.7924 70.6319 37.495 70.6312C19.1976 70.6306 4.365 55.7974 4.365 37.5C4.36525 28.7125 7.85645 20.285 14.0705 14.0716C20.2846 7.85825 28.7125 4.368 37.5 4.36875ZM25.6369 21.2344C24.4778 21.2206 23.3616 21.6721 22.5381 22.488C21.7147 23.3039 21.2528 24.4158 21.2559 25.575C21.2559 27.9945 23.2173 29.9559 25.6369 29.9559C28.0564 29.9559 30.0178 27.9945 30.0178 25.575C30.0209 24.4158 29.559 23.3039 28.7356 22.488C27.9122 21.6721 26.796 21.2206 25.6369 21.2344ZM62.4909 43.9594C60.4941 54.75 50.0794 63.7594 37.4953 63.7594C25.0116 63.7594 14.6578 54.8812 12.5437 44.2125C12.1153 41.55 14.2959 40.9219 16.35 41.4187C23.2215 43.4056 30.3476 44.3722 37.5 44.2875C44.6363 44.3702 51.7462 43.4069 58.6031 41.4281C60.6 40.9219 62.7384 41.4937 62.4909 43.9594ZM55.7119 45.4594C55.5169 45.5344 55.3191 45.5906 55.1194 45.6562C55.0988 45.6656 55.7588 45.45 55.7391 45.4594C49.8097 47.0917 43.6805 47.8838 37.5309 47.8125C30.1922 47.8125 23.6287 46.9969 19.1119 45.375C15.8372 44.4 16.4653 48.2531 18.7669 49.4344C24.6549 52.1149 31.061 53.4656 37.53 53.3906C45.225 53.3906 52.0819 51.6 56.6109 49.2844C58.7541 47.9062 59.1778 44.2125 55.7119 45.4594ZM49.3875 21.2344C48.2283 21.2206 47.112 21.6721 46.2884 22.4879C45.4649 23.3038 45.0028 24.4158 45.0056 25.575C44.9825 27.1556 45.8125 28.6261 47.1776 29.4232C48.5427 30.2202 50.2313 30.2202 51.5964 29.4232C52.9616 28.6261 53.7916 27.1556 53.7684 25.575C53.7713 24.4159 53.3093 23.3041 52.4859 22.4883C51.6626 21.6725 50.5465 21.2208 49.3875 21.2344Z" fill="#3384E2"/>
</svg>
