<svg width="29" height="29" viewBox="0 0 29 29" fill="none" xmlns="http://www.w3.org/2000/svg">
<g clip-path="url(#clip0_0_334)">
<path d="M15.4636 29L14.3597 28.8601C14.4202 28.7609 14.4641 28.6845 14.511 28.6096C14.8371 28.0992 15.0574 27.5285 15.1588 26.9313C15.2601 26.3342 15.2405 25.7227 15.101 25.1333C14.9616 24.5439 14.7051 23.9885 14.347 23.5C13.9888 23.0116 13.5361 22.6001 13.0159 22.2899C12.8978 22.2186 12.8041 22.113 12.7473 21.9873C11.1061 17.9187 6.23482 16.5937 2.7709 19.2784C2.73458 19.3071 2.69523 19.3344 2.63697 19.3783C2.60519 19.3124 2.57417 19.2602 2.55374 19.2035C0.500199 13.3893 2.43419 6.76161 7.28808 2.95331C9.19889 1.44475 11.4557 0.436476 13.8543 0.019711C14.2568 -0.0521723 14.6109 0.102944 14.794 0.436634C14.9892 0.788484 14.9348 1.16001 14.6109 1.49597C13.736 2.39925 13.0065 3.43279 12.4484 4.55971C10.2004 9.08987 11.1621 14.7104 14.8023 18.2365C16.7742 20.1478 19.1258 21.2692 21.8535 21.5696C23.7952 21.7841 25.7598 21.5078 27.567 20.766C27.7723 20.6751 27.9926 20.6225 28.2169 20.6109C28.6285 20.6109 28.8465 20.8977 29.0001 21.2427V21.6392C28.9531 21.73 28.9115 21.8246 28.857 21.9116C26.5326 25.6435 23.2223 27.9498 18.8966 28.773C18.3427 28.8782 17.7782 28.9244 17.2191 29H15.4636Z" fill="white"/>
<path d="M2.43641 29.0001C2.1451 28.8994 1.84017 28.8283 1.56475 28.6974C1.0657 28.4517 0.650885 28.0633 0.372956 27.5815C0.0950274 27.0996 -0.0334847 26.546 0.0037262 25.991C0.0409371 25.436 0.242195 24.9046 0.581958 24.4641C0.921721 24.0237 1.38467 23.6941 1.91205 23.5173C2.0944 23.4567 2.1572 23.3659 2.19882 23.1927C2.70123 21.1232 4.51794 19.6363 6.59267 19.5917C8.80889 19.5417 10.6786 20.8863 11.2771 22.9967C11.3686 23.3175 11.5086 23.4787 11.8219 23.602C12.9394 24.0515 13.6439 25.2493 13.5205 26.4062C13.3836 27.6978 12.4915 28.6982 11.2589 28.9456C11.2071 28.9601 11.1566 28.9786 11.1076 29.0008L2.43641 29.0001Z" fill="white"/>
<path d="M20.8864 14.7209C19.5563 14.7209 18.2261 14.733 16.8959 14.7209C16.2411 14.7089 15.611 14.4689 15.1142 14.0422C14.6174 13.6155 14.2851 13.0288 14.1745 12.3833C14.0638 11.7378 14.1819 11.074 14.5082 10.5062C14.8346 9.93836 15.3488 9.50221 15.9622 9.2729C16.1793 9.19723 16.2838 9.09659 16.3405 8.86203C16.599 7.84184 17.1923 6.9379 18.0255 6.29498C18.8586 5.65206 19.8835 5.30736 20.9358 5.31608C21.9882 5.3248 23.0071 5.68644 23.8296 6.34308C24.652 6.99972 25.2302 7.91336 25.4717 8.93769C25.4817 9.00992 25.5133 9.07744 25.5623 9.13143C25.6113 9.18543 25.6755 9.22339 25.7464 9.24036C27.0675 9.70646 27.8544 11.0268 27.6206 12.3631C27.5106 13.0254 27.1686 13.6269 26.6556 14.06C26.1427 14.4931 25.4923 14.7295 24.821 14.7269H20.8864V14.7209Z" fill="white"/>
</g>
<defs>
<clipPath id="clip0_0_334">
<rect width="29" height="29" fill="white"/>
</clipPath>
</defs>
</svg>
