<svg width="26" height="26" viewBox="0 0 26 26" fill="none" xmlns="http://www.w3.org/2000/svg">
<g clip-path="url(#clip0_318_22651)">
<path d="M19.432 1H7.56797C5.59744 1 4 2.64678 4 4.67819V20.3218C4 22.3532 5.59744 24 7.56797 24H19.432C21.4026 24 23 22.3532 23 20.3218V4.67819C23 2.64678 21.4026 1 19.432 1Z" fill="#8E969B"/>
<path d="M7.92914 18.2293C8.452 18.2293 8.87586 17.7923 8.87586 17.2533C8.87586 16.7143 8.452 16.2773 7.92914 16.2773C7.40628 16.2773 6.98242 16.7143 6.98242 17.2533C6.98242 17.7923 7.40628 18.2293 7.92914 18.2293Z" fill="white"/>
<path d="M19.1858 16.3672H11.125C10.6626 16.3672 10.2877 16.7536 10.2877 17.2303V17.2698C10.2877 17.7465 10.6626 18.1329 11.125 18.1329H19.1858C19.6482 18.1329 20.023 17.7465 20.023 17.2698V17.2303C20.023 16.7536 19.6482 16.3672 19.1858 16.3672Z" fill="white"/>
<path d="M7.92914 13.4168C8.452 13.4168 8.87586 12.9798 8.87586 12.4408C8.87586 11.9018 8.452 11.4648 7.92914 11.4648C7.40628 11.4648 6.98242 11.9018 6.98242 12.4408C6.98242 12.9798 7.40628 13.4168 7.92914 13.4168Z" fill="white"/>
<path d="M19.1858 11.5547H11.125C10.6626 11.5547 10.2877 11.9411 10.2877 12.4178V12.4573C10.2877 12.934 10.6626 13.3204 11.125 13.3204H19.1858C19.6482 13.3204 20.023 12.934 20.023 12.4573V12.4178C20.023 11.9411 19.6482 11.5547 19.1858 11.5547Z" fill="white"/>
<path d="M7.92914 8.59939C8.452 8.59939 8.87586 8.16243 8.87586 7.62342C8.87586 7.08441 8.452 6.64746 7.92914 6.64746C7.40628 6.64746 6.98242 7.08441 6.98242 7.62342C6.98242 8.16243 7.40628 8.59939 7.92914 8.59939Z" fill="white"/>
<path d="M19.1858 6.74316H11.125C10.6626 6.74316 10.2877 7.1296 10.2877 7.6063V7.64579C10.2877 8.12248 10.6626 8.50892 11.125 8.50892H19.1858C19.6482 8.50892 20.023 8.12248 20.023 7.64579V7.6063C20.023 7.1296 19.6482 6.74316 19.1858 6.74316Z" fill="white"/>
</g>
<defs>
<clipPath id="clip0_318_22651">
<rect width="19" height="23" fill="white" transform="translate(4 1)"/>
</clipPath>
</defs>
</svg>
