<svg width="35" height="36" viewBox="0 0 35 36" fill="none" xmlns="http://www.w3.org/2000/svg">
<g clip-path="url(#clip0_0_338)">
<path d="M26.0858 14.2106L34.9768 14.9675L34.999 15.0442L26.3667 19.8564L33.8794 26.226L33.8446 26.296L23.559 24.8408C24.0239 28.1922 24.482 31.4886 24.9391 34.7842L24.8684 34.8154C22.668 32.3279 20.4675 29.8404 18.2293 27.3085L13.5804 36.0009L13.5049 35.9924C13.2657 33.0082 13.0265 30.024 12.7824 26.982L2.89972 33.0205L2.84354 32.9637L9.196 23.1964L0.0319595 22.6031L0 22.5331L8.3534 17.7748L0.908462 11.2557L0.934611 11.1686L11.6609 12.7847L10.671 3.82727L10.7369 3.78375L16.6574 10.0995L21.528 0L21.6055 0.0123007C21.8806 3.39109 22.1556 6.76892 22.4365 10.213L32.172 4.54447L32.2233 4.59367L26.0858 14.2106ZM15.0874 16.2865L10.3737 15.5769L13.4565 18.282L10.0667 20.2207L10.0812 20.2945L14.4763 20.5859L12.5529 23.5484L12.6139 23.6051L15.4109 21.902C15.5126 23.1425 15.6046 24.3214 15.7015 25.4975L15.7722 25.5173L17.6123 22.0903C18.5876 23.1917 19.5494 24.2731 20.5024 25.3537L20.576 25.312C20.3968 24.0101 20.2176 22.7082 20.0326 21.3561L24.2302 21.9522L21.1765 19.3578L25.1183 17.1532L25.0873 17.0879L20.9227 16.7312C21.6597 15.5731 22.3629 14.4698 23.067 13.3656L23.0195 13.3155L19.8138 15.1738L19.4922 11.3238L19.4118 11.3181C18.7707 12.6428 18.1295 13.974 17.4748 15.3384L14.732 12.4157L14.672 12.4592C14.8056 13.7214 14.9441 14.9845 15.0874 16.2865Z" fill="white"/>
</g>
<defs>
<clipPath id="clip0_0_338">
<rect width="35" height="36" fill="white"/>
</clipPath>
</defs>
</svg>
