<svg width="30" height="30" viewBox="0 0 30 30" fill="none" xmlns="http://www.w3.org/2000/svg">
<g clip-path="url(#clip0_0_175)">
<path fill-rule="evenodd" clip-rule="evenodd" d="M22.485 16.8638V13.1176H14.9906V9.36758H22.485V5.6232L29.9812 11.2445L22.485 16.8638ZM18.7388 22.4851H11.2425V5.62133L3.75 1.87508H18.7406V7.49633H20.6156V1.87508C20.6156 0.843828 19.7719 0.00195312 18.7406 0.00195312H1.87313C1.37665 0.0029441 0.900785 0.200609 0.54972 0.551673C0.198656 0.902738 0.000990979 1.3786 0 1.87508L0 23.1976C0 23.9288 0.4125 24.5663 1.03125 24.9038L11.2425 30.0001V24.3601H18.7388C19.77 24.3601 20.6138 23.5163 20.6138 22.4851V14.9926H18.7388V22.4888V22.4851Z" fill="white"/>
</g>
<defs>
<clipPath id="clip0_0_175">
<rect width="30" height="30" fill="white"/>
</clipPath>
</defs>
</svg>
