<svg width="16" height="18" viewBox="0 0 16 18" fill="none" xmlns="http://www.w3.org/2000/svg">
<path d="M8 0C6.53691 0 5.3365 1.21686 5.3365 2.7H0.67536C0.587124 2.69873 0.499519 2.71526 0.417637 2.74861C0.335756 2.78197 0.26123 2.83149 0.198392 2.89429C0.135553 2.9571 0.0856548 3.03194 0.0515968 3.11446C0.0175387 3.19698 0 3.28555 0 3.375C0 3.46445 0.0175387 3.55302 0.0515968 3.63554C0.0856548 3.71806 0.135553 3.7929 0.198392 3.85571C0.26123 3.91851 0.335756 3.96803 0.417637 4.00139C0.499519 4.03474 0.587124 4.05126 0.67536 4.05H1.78515V15.525C1.78515 16.8898 2.8803 18 4.2267 18H11.7733C13.1197 18 14.2148 16.8898 14.2148 15.525V4.05H15.3246C15.4129 4.05126 15.5005 4.03474 15.5824 4.00139C15.6642 3.96803 15.7388 3.91851 15.8016 3.85571C15.8644 3.7929 15.9143 3.71806 15.9484 3.63554C15.9825 3.55302 16 3.46445 16 3.375C16 3.28555 15.9825 3.19698 15.9484 3.11446C15.9143 3.03194 15.8644 2.9571 15.8016 2.89429C15.7388 2.83149 15.6642 2.78197 15.5824 2.74861C15.5005 2.71526 15.4129 2.69873 15.3246 2.7H10.6635C10.6635 1.21686 9.46309 0 8 0ZM8 1.35C8.74318 1.35 9.33175 1.94664 9.33175 2.7H6.66825C6.66825 1.94664 7.25682 1.35 8 1.35ZM6.00237 6.3C6.36994 6.3 6.66825 6.6024 6.66825 6.975V13.725C6.66825 14.0976 6.36994 14.4 6.00237 14.4C5.63481 14.4 5.3365 14.0976 5.3365 13.725V6.975C5.3365 6.6024 5.63481 6.3 6.00237 6.3ZM9.99763 6.3C10.3652 6.3 10.6635 6.6024 10.6635 6.975V13.725C10.6635 14.0976 10.3652 14.4 9.99763 14.4C9.63007 14.4 9.33175 14.0976 9.33175 13.725V6.975C9.33175 6.6024 9.63007 6.3 9.99763 6.3Z" fill="#8E969B"/>
</svg>
