<svg width="21" height="21" viewBox="0 0 21 21" fill="none" xmlns="http://www.w3.org/2000/svg">
<g clip-path="url(#clip0_1019_21269)">
<path d="M6.7992 13.5884L13.9586 7.74214L14.4091 8.29391C14.4156 8.30082 14.4206 8.30905 14.4236 8.31804C14.4266 8.32702 14.4277 8.33656 14.4268 8.346C14.4258 8.35544 14.4229 8.36457 14.4181 8.37276C14.4133 8.38096 14.4068 8.38804 14.3991 8.39352L9.41311 12.5222L12.7751 13.1415C12.7881 13.1435 12.8002 13.1493 12.8098 13.1582C12.8195 13.1671 12.8263 13.1787 12.8294 13.1914C12.8325 13.2042 12.8317 13.2176 12.8272 13.23C12.8226 13.2423 12.8145 13.253 12.8039 13.2607L11.3851 14.4193C11.3774 14.4252 11.3685 14.4291 11.359 14.4309C11.3496 14.4327 11.3398 14.4322 11.3306 14.4296L6.82906 13.604C6.81777 13.6019 6.80737 13.5965 6.7992 13.5884Z" fill="#A9612D"/>
<path d="M8.24828 7.73836C8.25872 7.73035 8.27119 7.72542 8.28428 7.7241C8.29737 7.72278 8.31057 7.72512 8.3224 7.73089C8.33423 7.73665 8.34422 7.74562 8.35124 7.75674C8.35827 7.76787 8.36205 7.78073 8.36217 7.79389L8.33775 11.2128L13.3265 7.08756C13.3411 7.07568 13.3597 7.07007 13.3784 7.07196C13.3971 7.07385 13.4143 7.08307 13.4261 7.09761L13.9551 7.74535L6.79913 13.5889C6.79244 13.5853 6.78651 13.5804 6.7817 13.5745C6.7769 13.5686 6.77332 13.5619 6.77114 13.5546L6.79419 8.96576C6.79294 8.95537 6.79453 8.94484 6.79882 8.9353C6.80311 8.92576 6.80993 8.91757 6.81853 8.91161L8.24828 7.73836Z" fill="#A9612D"/>
</g>
<defs>
<clipPath id="clip0_1019_21269">
<rect width="6.86121" height="8.84635" fill="white" transform="translate(9.04924 16.3439) scale(1.04536) rotate(-129.235)"/>
</clipPath>
</defs>
</svg>
