<svg width="22" height="22" viewBox="0 0 22 22" fill="none" xmlns="http://www.w3.org/2000/svg">
<g clip-path="url(#clip0_1018_24677)">
<path d="M7.12307 14.2357L14.6234 8.11095L15.0954 8.689C15.1022 8.69624 15.1074 8.70486 15.1106 8.71428C15.1138 8.72369 15.1149 8.73369 15.1139 8.74358C15.1129 8.75347 15.1098 8.76302 15.1048 8.77161C15.0998 8.7802 15.093 8.78762 15.0849 8.79336L9.86147 13.1186L13.3835 13.7674C13.3971 13.7695 13.4098 13.7756 13.4199 13.7849C13.4301 13.7943 13.4372 13.8064 13.4404 13.8198C13.4437 13.8332 13.4429 13.8472 13.4381 13.8601C13.4334 13.873 13.4249 13.8842 13.4137 13.8923L11.9273 15.1061C11.9193 15.1122 11.91 15.1164 11.9001 15.1182C11.8901 15.1201 11.8799 15.1196 11.8702 15.1169L7.15436 14.252C7.14253 14.2498 7.13164 14.2441 7.12307 14.2357Z" fill="#08863A"/>
<path d="M8.64128 8.10655C8.65222 8.09816 8.66528 8.09299 8.67899 8.09161C8.69271 8.09022 8.70654 8.09267 8.71893 8.09872C8.73132 8.10476 8.74178 8.11415 8.74914 8.1258C8.7565 8.13746 8.76047 8.15094 8.7606 8.16472L8.73501 11.7464L13.9614 7.42475C13.9766 7.41231 13.9961 7.40643 14.0157 7.40841C14.0353 7.41039 14.0533 7.42005 14.0657 7.43528L14.6198 8.11387L7.12312 14.2357C7.1161 14.2319 7.10989 14.2268 7.10486 14.2206C7.09983 14.2145 7.09607 14.2074 7.0938 14.1998L7.11795 9.39239C7.11664 9.38151 7.1183 9.37049 7.1228 9.36049C7.12729 9.3505 7.13443 9.34191 7.14344 9.33567L8.64128 8.10655Z" fill="#08863A"/>
</g>
<defs>
<clipPath id="clip0_1018_24677">
<rect width="7.20861" height="9.29426" fill="white" transform="translate(9.48036 17.1223) scale(1.04236) rotate(-129.235)"/>
</clipPath>
</defs>
</svg>
