<svg width="26" height="33" viewBox="0 0 26 33" fill="none" xmlns="http://www.w3.org/2000/svg">
<g clip-path="url(#clip0_0_213)">
<path d="M4.01965 11.0911C4.93726 9.69917 5.208 8.16198 5.1739 6.53846C5.1429 5.04129 5.81147 3.83365 6.75905 2.75972C10.2011 -1.14536 16.6161 -0.868454 19.6914 3.31459C20.4478 4.34429 20.8683 5.47823 20.8332 6.78905C20.7746 8.29421 21.1777 9.78058 21.9864 11.0416C21.3664 11.7596 20.1781 11.7512 19.4093 11.0142C18.7696 10.4014 18.038 9.99713 17.1659 9.87605C16.9489 9.84815 16.7304 9.83548 16.5118 9.83814C14.1774 9.83814 11.8441 9.84341 9.51085 9.83814C8.98163 9.8265 8.45536 9.92141 7.96222 10.1174C7.46908 10.3135 7.01877 10.6068 6.63712 10.9805C5.84144 11.7365 4.81533 11.7838 4.01965 11.0911Z" fill="white"/>
<path d="M25.9638 32.9993H13.6246C13.6173 32.8635 13.6039 32.7266 13.6039 32.5887C13.6039 29.7007 13.6039 26.8116 13.5967 23.9236C13.5967 23.6467 13.6752 23.5109 13.9315 23.3972C15.6964 22.6359 17.4511 21.8505 19.216 21.0903C19.3997 21.0166 19.6022 21.0073 19.7916 21.064C21.5431 21.6528 23.1827 22.543 24.639 23.6962C25.5184 24.39 25.9824 25.3155 25.9906 26.4473C26.0072 28.5615 25.9958 30.6746 25.9906 32.7887C25.9867 32.8595 25.9777 32.9299 25.9638 32.9993ZM23.4538 25.9567L24.2804 24.5321L20.0851 22.3211L19.434 23.8383L23.4538 25.9567Z" fill="white"/>
<path d="M12.366 32.9958H0.00305085V32.5494C0.00305085 30.5921 0.0133843 28.6349 0.00305085 26.6786C-0.00624926 25.3225 0.519724 24.277 1.62334 23.5137C3.06868 22.5063 4.63049 21.6845 6.27339 21.0669C6.42471 21.0116 6.59018 21.0116 6.7415 21.0669C8.54158 21.8474 10.3365 22.6391 12.1263 23.4421C12.193 23.4776 12.2508 23.5283 12.2952 23.5902C12.3397 23.652 12.3695 23.7235 12.3825 23.799C12.397 26.8071 12.3929 29.8141 12.3918 32.8221C12.3874 32.8806 12.3788 32.9387 12.366 32.9958ZM2.75588 25.9585L6.78593 23.8622C6.57926 23.38 6.37259 22.8925 6.12976 22.3303L1.94987 24.535C2.24851 25.0614 2.50375 25.5152 2.75898 25.9585H2.75588Z" fill="white"/>
<path d="M13.0285 11.0851C14.1879 11.0851 15.3483 11.0956 16.5078 11.0851C16.8883 11.0744 17.2669 11.1426 17.6208 11.2856C17.9746 11.4286 18.2963 11.6433 18.5662 11.9168C18.7551 12.1138 18.9722 12.2807 19.21 12.4117C19.4497 12.5306 19.4714 12.6844 19.4476 12.9118C19.1159 16.0767 16.4292 18.6499 13.3354 18.7615C10.006 18.8815 7.17872 16.621 6.60418 13.3803C6.59281 13.3161 6.57938 13.2519 6.56491 13.1876C6.47191 12.8012 6.48638 12.4854 6.93485 12.3106C7.14152 12.2295 7.30892 12.0358 7.47633 11.8737C7.73474 11.6164 8.04097 11.4143 8.37705 11.2793C8.71313 11.1442 9.0723 11.0789 9.43348 11.0872C10.6322 11.0914 11.8308 11.0914 13.0285 11.0851Z" fill="white"/>
<path d="M12.395 22.652L7.01538 20.281C7.52069 19.7861 7.97743 19.3271 8.45277 18.887C8.50206 18.8552 8.5576 18.8349 8.61545 18.8274C8.67331 18.82 8.73207 18.8256 8.78757 18.8438C9.91254 19.2488 11.0347 19.6643 12.1542 20.0904C12.2117 20.1173 12.2624 20.1573 12.3024 20.2073C12.3423 20.2573 12.3705 20.316 12.3846 20.3789C12.4043 21.1106 12.395 21.8434 12.395 22.652Z" fill="white"/>
<path d="M18.966 20.2871L13.605 22.6476C13.605 21.8306 13.5988 21.0746 13.6143 20.3197C13.6143 20.2418 13.7362 20.1281 13.821 20.0944C14.9549 19.6663 16.0916 19.2451 17.231 18.831C17.2811 18.815 17.3341 18.8105 17.3861 18.818C17.4381 18.8254 17.4879 18.8446 17.5317 18.8741C18.0091 19.3248 18.4638 19.788 18.966 20.2871Z" fill="white"/>
</g>
<defs>
<clipPath id="clip0_0_213">
<rect width="26" height="33" fill="white"/>
</clipPath>
</defs>
</svg>
