<svg width="52" height="47" viewBox="0 0 52 47" fill="none" xmlns="http://www.w3.org/2000/svg">
<path d="M50.3474 38.6136L46.0585 44.9521C45.9436 45.1199 45.7925 45.2599 45.6165 45.3619C45.4405 45.464 45.244 45.5254 45.0412 45.5418C44.8385 45.5581 44.6347 45.529 44.4446 45.4566C44.2545 45.3841 44.083 45.2701 43.9426 45.1229L37.0348 37.921L36.7217 37.5509L35.8392 37.2093L33.4386 36.2604V37.902V42.9405L30.2789 43.0828L29.9848 37.902V37.1903L29.8519 34.8371L26.7016 33.6226C25.2646 34.9926 23.6723 36.1899 21.9573 37.1903C21.5683 37.437 21.1697 37.6743 20.7807 37.902C18.2662 39.3727 16.0364 40.388 16.0364 40.388L14.8788 37.902L14.5467 37.1903L13.9868 35.9948C19.3669 34.1824 20.7617 31.3358 20.7617 31.3358L19.8793 31.0037C17.8298 30.2067 15.5904 28.6126 15.3247 26.2594L12.7912 25.3105H12.7248L1.93623 21.1165C1.57611 20.9724 1.28638 20.6935 1.12868 20.3391C0.970973 19.9847 0.95772 19.5828 1.09173 19.2188C1.16091 19.038 1.26533 18.8728 1.3989 18.7327C1.53247 18.5926 1.69259 18.4805 1.86986 18.4028C2.04797 18.3252 2.24014 18.2852 2.43441 18.2852C2.62868 18.2852 2.82085 18.3252 2.99896 18.4028L15.5809 23.261L16.4444 23.6026L33.7138 30.2446C35.0585 31.5905 36.6008 32.7232 38.2874 33.6036L45.8783 35.6057L47.4155 36.0137L49.6168 36.602C49.8142 36.6641 49.9948 36.7709 50.1443 36.914C50.2938 37.0572 50.4084 37.2328 50.479 37.4274C50.5497 37.6219 50.5746 37.8301 50.5518 38.0359C50.5289 38.2416 50.459 38.4393 50.3474 38.6136Z" stroke="#08863A" stroke-width="1.7" stroke-miterlimit="10" stroke-linecap="round"/>
<path d="M35.9721 10.0996V14.1418C35.9721 14.3505 35.9721 14.5593 35.9721 14.768C35.9721 14.8534 35.9721 14.9293 35.9721 15.0053C35.9766 15.024 35.9766 15.0435 35.9721 15.0622C35.9631 15.2057 35.9442 15.3483 35.9153 15.4892C35.9205 15.511 35.9205 15.5338 35.9153 15.5556C35.9153 15.6979 35.9152 15.8308 35.8393 15.9636C35.8393 16.1154 35.7729 16.2672 35.7349 16.4096C35.697 16.5519 35.678 16.6183 35.64 16.7227C35.6021 16.8271 35.4787 17.2161 35.3838 17.4628H32.2242C30.9013 17.4545 29.5998 17.1291 28.4287 16.514C28.0367 16.3065 27.6006 16.1959 27.1571 16.1913C26.7165 16.1944 26.2833 16.3052 25.8952 16.514C24.7241 17.1291 23.4225 17.4545 22.0997 17.4628H18.8925C18.7346 17.0935 18.6046 16.7129 18.5035 16.3242C18.5035 16.2388 18.4561 16.1439 18.4371 16.049V16.0016C18.4371 15.8497 18.3707 15.6884 18.3422 15.5366C18.338 15.5051 18.338 15.4732 18.3422 15.4417C18.3422 15.3184 18.3422 15.1855 18.2852 15.0622V14.768C18.2802 14.7049 18.2802 14.6414 18.2852 14.5783C18.2852 14.4359 18.2852 14.2841 18.2852 14.1418V10.0996H35.9721Z" stroke="#08863A" stroke-width="1.7" stroke-miterlimit="10" stroke-linecap="round"/>
<path d="M33.3627 3.60938C35.0318 5.28158 35.9701 7.54717 35.9721 9.90985V14.1418C35.9721 14.3506 35.9721 14.5593 35.9721 14.7681C35.9721 14.8534 35.9721 14.9294 35.9721 15.0053C35.9765 15.024 35.9765 15.0435 35.9721 15.0622C35.9631 15.2057 35.9441 15.3484 35.9152 15.4892C35.9204 15.511 35.9204 15.5338 35.9152 15.5556C35.8998 15.6933 35.8744 15.8296 35.8392 15.9636C35.8392 16.1154 35.7728 16.2673 35.7348 16.4096C35.6969 16.5519 35.6779 16.6183 35.64 16.7227C35.602 16.8271 35.4786 17.2161 35.3838 17.4628" stroke="#08863A" stroke-width="1.7" stroke-miterlimit="10" stroke-linecap="round"/>
<path d="M18.8261 17.4726C18.6682 17.1033 18.5382 16.7227 18.4371 16.3339C18.4371 16.2485 18.3895 16.1537 18.3706 16.0588V16.0113C18.3706 15.8595 18.3042 15.6982 18.2757 15.5464C18.2715 15.5149 18.2715 15.483 18.2757 15.4515C18.2757 15.3281 18.2758 15.1953 18.2188 15.0719V14.7778C18.2138 14.7146 18.2138 14.6512 18.2188 14.588C18.2188 14.4457 18.2188 14.2939 18.2188 14.1515V9.91011C18.2219 8.42421 18.5958 6.96258 19.3066 5.65771C20.0174 4.35283 21.0426 3.24598 22.2893 2.43747C23.536 1.62896 24.9647 1.14437 26.446 1.02761C27.9273 0.910852 29.4144 1.16562 30.7723 1.76883" stroke="#08863A" stroke-width="1.7" stroke-miterlimit="10" stroke-linecap="round"/>
<path d="M38.9135 13.3831L38.2494 15.9925C38.1092 16.3801 37.8321 16.7031 37.4703 16.9006C37.1085 17.0981 36.687 17.1564 36.2851 17.0647L35.7728 16.9698C35.9637 16.2388 36.0593 15.4861 36.0574 14.7305V11.5044C36.1928 11.4855 36.3301 11.4855 36.4655 11.5044L37.6326 11.7036C37.8315 11.7187 38.025 11.7757 38.2004 11.8709C38.3757 11.9661 38.5289 12.0973 38.6499 12.256C38.7709 12.4146 38.8569 12.5971 38.9024 12.7913C38.9478 12.9856 38.9516 13.1873 38.9135 13.3831Z" stroke="#08863A" stroke-width="1.7" stroke-miterlimit="10" stroke-linecap="round"/>
<path d="M18.3612 17.0258H18.1429C17.741 17.1175 17.3196 17.0591 16.9578 16.8616C16.596 16.6641 16.3189 16.3411 16.1788 15.9535L15.524 13.3442C15.4904 13.1511 15.4973 12.9532 15.5443 12.763C15.5912 12.5727 15.6772 12.3943 15.7968 12.2391C15.9163 12.0838 16.0668 11.9551 16.2388 11.8612C16.4107 11.7672 16.6003 11.7099 16.7955 11.6931L17.9531 11.4844H18.048V14.6536C18.0443 15.4549 18.1497 16.2529 18.3612 17.0258Z" stroke="#08863A" stroke-width="1.7" stroke-miterlimit="10" stroke-linecap="round"/>
<path d="M30.1746 14.37L33.2109 13.1934" stroke="#08863A" stroke-width="1.7" stroke-miterlimit="10" stroke-linecap="round"/>
<path d="M24.5762 14.37L21.5399 13.1934" stroke="#08863A" stroke-width="1.7" stroke-miterlimit="10" stroke-linecap="round"/>
<path d="M35.3175 17.4721C34.7923 18.7358 33.9802 19.8598 32.9453 20.7552C32.8349 20.858 32.7176 20.9531 32.5942 21.0398C32.43 21.1792 32.2555 21.306 32.0723 21.4194C31.949 21.5048 31.8256 21.5902 31.6927 21.6661L29.6337 22.8901C28.8735 23.3392 28.0069 23.5761 27.124 23.5761C26.2411 23.5761 25.3744 23.3392 24.6142 22.8901L22.4698 21.6376L22.1187 21.4099C21.9579 21.3111 21.8027 21.2034 21.6538 21.0873C21.502 20.9829 21.369 20.869 21.2267 20.7552C20.1781 19.8585 19.3557 18.7272 18.8262 17.4531H22.0333C23.3562 17.4448 24.6577 17.1194 25.8288 16.5043C26.2169 16.2955 26.6501 16.1847 27.0908 16.1816C27.5343 16.1862 27.9702 16.2968 28.3622 16.5043C29.5333 17.1194 30.8349 17.4448 32.1577 17.4531L35.3175 17.4721Z" stroke="#08863A" stroke-width="1.7" stroke-miterlimit="10" stroke-linecap="round"/>
<path d="M13.9489 36.0141L14.5087 37.2096H7.4966C7.49366 35.0793 7.91129 32.9694 8.72542 31.0009C9.53956 29.0323 10.7342 27.2438 12.2409 25.7378C12.4117 25.567 12.5731 25.4057 12.7439 25.2539L15.2774 26.2028C15.5431 28.6034 17.7823 30.1975 19.8319 30.9471L20.7144 31.2792C20.7144 31.2792 19.329 34.2017 13.9489 36.0141Z" stroke="#08863A" stroke-width="1.7" stroke-miterlimit="10" stroke-linecap="round"/>
<path d="M29.9278 37.2474H21.9004C23.6154 36.247 25.2076 35.0497 26.6447 33.6797L29.7949 34.8942L29.9278 37.2474Z" stroke="#08863A" stroke-width="1.7" stroke-miterlimit="10" stroke-linecap="round"/>
<path d="M35.8488 37.2092H33.4386L33.4481 36.2793L35.8488 37.2092Z" stroke="#08863A" stroke-width="1.7" stroke-linecap="round" stroke-linejoin="round"/>
<path d="M47.368 35.9569L45.8308 35.5489L38.2399 33.5468C36.5533 32.6664 35.011 31.5337 33.6663 30.1878L16.3969 23.5457L15.5334 23.2041C17.4007 22.1209 19.4652 21.4209 21.6062 21.1451C21.7551 21.2612 21.9103 21.3689 22.0712 21.4677L22.4222 21.6954L24.5667 22.9479C25.3268 23.397 26.1936 23.6339 27.0765 23.6339C27.9593 23.6339 28.8261 23.397 29.5862 22.9479L31.6453 21.7239C31.7781 21.648 31.9014 21.5626 32.0248 21.4772C32.2079 21.3639 32.3824 21.237 32.5467 21.0977C36.3768 21.4178 39.9689 23.0871 42.6832 25.8083C45.3975 28.5296 47.0577 32.126 47.368 35.9569Z" stroke="#08863A" stroke-width="1.7" stroke-miterlimit="10" stroke-linecap="round"/>
<path d="M20.5435 27.7871L24.9842 29.4381" stroke="#08863A" stroke-width="1.7" stroke-miterlimit="10" stroke-linecap="round"/>
<path d="M26.2557 29.9121L30.6965 31.5726" stroke="#08863A" stroke-width="1.7" stroke-miterlimit="10" stroke-linecap="round"/>
<path d="M25.1835 20.3009C25.4274 20.0424 25.7216 19.8365 26.0479 19.6958C26.3742 19.555 26.7258 19.4824 27.0812 19.4824C27.4366 19.4824 27.7882 19.555 28.1145 19.6958C28.4408 19.8365 28.735 20.0424 28.9789 20.3009" stroke="#08863A" stroke-width="1.7" stroke-miterlimit="10" stroke-linecap="round"/>
</svg>
