<svg width="32" height="30" viewBox="0 0 32 30" fill="none" xmlns="http://www.w3.org/2000/svg">
<g clip-path="url(#clip0_0_226)">
<path d="M19.005 24.1782C18.4052 24.1782 17.8054 24.1843 17.2056 24.1782C16.916 24.1782 16.7541 24.2882 16.6752 24.5816C16.4319 25.495 16.174 26.4041 15.9135 27.3122C15.4911 28.7845 14.3009 29.4953 12.8408 29.1233C9.78987 28.3514 6.74061 27.573 3.69308 26.7883C2.28784 26.4268 1.55095 25.1667 1.89369 23.7433C2.23643 22.3392 2.57317 20.9341 2.93648 19.5361C3.02217 19.1868 2.96647 18.9466 2.72398 18.6864C1.63577 17.5119 0.786635 16.1837 0.386485 14.6075C-0.372686 11.6158 -0.0145233 8.74115 1.4644 6.04984C3.16697 2.95247 5.7658 1.02524 9.17607 0.259412C15.2409 -1.10284 21.465 2.98478 22.7503 9.16641C22.878 9.77768 22.9166 10.4151 23.0177 11.0369C23.0445 11.2265 23.1169 11.4065 23.2284 11.5608C23.8882 12.3904 24.5686 13.2034 25.2378 14.026C26.4014 15.4642 25.9524 17.305 24.2644 18.0132C23.9782 18.1337 23.6937 18.2629 23.3998 18.3625C23.1213 18.4568 23.022 18.6358 23.0237 18.9257C23.0297 19.9282 23.0459 20.9341 23.0108 21.9322C22.9688 23.1163 21.9714 24.1153 20.8053 24.1625C20.2055 24.1878 19.6057 24.1668 19.0059 24.1668L19.005 24.1782Z" fill="white"/>
<path d="M25.2481 21.8877C25.4306 21.9399 25.6088 22.0068 25.781 22.0877C27.0429 22.8002 28.3013 23.5186 29.5563 24.2428C30.1313 24.5746 30.3155 25.1824 30.0207 25.7107C29.726 26.239 29.1176 26.3866 28.5469 26.06C27.2771 25.3399 26.0095 24.6157 24.7442 23.8874C24.2824 23.6254 24.0939 23.1556 24.2301 22.671C24.3501 22.2169 24.7597 21.9139 25.2481 21.8877Z" fill="white"/>
<path d="M23.6543 24.4096C23.8052 24.404 23.9552 24.4344 24.0924 24.4986C24.2296 24.5627 24.3501 24.6588 24.4443 24.779C25.3989 25.9378 26.356 27.0948 27.3002 28.2623C27.6995 28.7548 27.6318 29.3975 27.1708 29.7713C26.7287 30.1337 26.1066 30.0612 25.7142 29.5853C24.7716 28.4448 23.8328 27.3009 22.8977 26.1534C22.6115 25.8042 22.5387 25.4147 22.7341 24.999C22.8123 24.8185 22.9418 24.6659 23.1057 24.5609C23.2697 24.4559 23.4607 24.4032 23.6543 24.4096Z" fill="white"/>
<path d="M30.856 22.1357L28.0575 21.7148C27.5434 21.6362 27.0216 21.5524 26.5023 21.479C25.8365 21.3856 25.4398 20.9097 25.5118 20.2783C25.5778 19.6933 26.1116 19.3047 26.7568 19.399C28.1952 19.6103 29.6333 19.8286 31.0711 20.0539C31.6571 20.1412 32.053 20.646 31.9939 21.1891C31.9331 21.7567 31.4789 22.1532 30.856 22.1357Z" fill="white"/>
</g>
<defs>
<clipPath id="clip0_0_226">
<rect width="32" height="30" fill="white"/>
</clipPath>
</defs>
</svg>
