<svg width="17" height="16" viewBox="0 0 17 16" fill="none" xmlns="http://www.w3.org/2000/svg">
<g clip-path="url(#clip0_0_733)">
<path d="M11.703 3.11531L3.60864 12.4816L2.88678 11.8577C2.87662 11.8501 2.86821 11.8404 2.86212 11.8292C2.85603 11.8181 2.85239 11.8057 2.85147 11.7931C2.85055 11.7804 2.85234 11.7677 2.85675 11.7558C2.86116 11.7438 2.86809 11.733 2.87704 11.724L8.50099 5.12574L3.92277 5.0853C3.90517 5.08564 3.88787 5.08075 3.87306 5.07124C3.85825 5.06174 3.84659 5.04803 3.83956 5.0319C3.83254 5.01576 3.83046 4.9979 3.83359 4.98058C3.83673 4.96326 3.84495 4.94727 3.85718 4.93462L5.46133 3.07841C5.4701 3.06896 5.48095 3.06168 5.49302 3.05715C5.50509 3.05263 5.51805 3.05098 5.53086 3.05233L11.66 3.10165C11.6754 3.10181 11.6904 3.10656 11.703 3.11531Z" fill="#65A5EF"/>
<path d="M11.1426 11.1681C11.1307 11.1811 11.1154 11.1905 11.0984 11.1953C11.0815 11.2 11.0635 11.2 11.0466 11.1951C11.0296 11.1902 11.0144 11.1807 11.0026 11.1677C10.9907 11.1546 10.9828 11.1385 10.9796 11.1212L10.2221 6.60529L4.59364 13.1997C4.5772 13.2187 4.55387 13.2304 4.52879 13.2322C4.50371 13.2341 4.47893 13.2259 4.45991 13.2094L3.6125 12.4771L11.703 3.11531C11.7127 3.11849 11.7216 3.12356 11.7293 3.13021C11.737 3.13686 11.7433 3.14496 11.7479 3.15406L12.7774 9.21306C12.7814 9.22648 12.7818 9.24073 12.7783 9.25431C12.7749 9.26789 12.7678 9.28027 12.7578 9.29011L11.1426 11.1681Z" fill="#4D93E6"/>
</g>
<defs>
<clipPath id="clip0_0_733">
<rect width="9.60593" height="12.3852" fill="white" transform="translate(8.09827) rotate(40.8339)"/>
</clipPath>
</defs>
</svg>
