<svg width="26" height="81" viewBox="0 0 26 81" fill="none" xmlns="http://www.w3.org/2000/svg">
<g clip-path="url(#clip0_723_23956)">
<path d="M0.90918 78.9459L0.90918 73.8069L25.0904 73.8069L25.0904 78.9468C25.0904 79.3911 24.9197 79.8172 24.6158 80.1314C24.3119 80.4456 23.8997 80.6221 23.47 80.6221L2.53347 80.6221C2.32026 80.6226 2.10905 80.5796 1.91195 80.4956C1.71484 80.4116 1.53571 80.2882 1.38482 80.1325C1.23392 79.9767 1.11424 79.7918 1.03262 79.5882C0.951002 79.3845 0.909054 79.1663 0.90918 78.9459Z" fill="#CBD3D8"/>
<path d="M4.00781 78.8422L4.00781 79.7793L8.56229 79.7793L8.56229 78.8422L4.00781 78.8422Z" fill="#892121"/>
<path d="M4.46387 79.7789C4.46387 79.7789 4.51725 80.9368 6.1606 80.9919C8.00889 81.054 8.19477 79.7789 8.19477 79.7789L4.46387 79.7789Z" fill="#DBE4EB"/>
<path d="M5.59246 80.707C5.8105 80.7628 6.03588 80.7814 6.25972 80.7622C6.34396 80.7624 6.42757 80.747 6.5066 80.7169C6.54269 80.7052 6.57482 80.6831 6.59928 80.6533C6.62374 80.6235 6.63953 80.5871 6.64482 80.5484C6.64482 80.441 6.5209 80.368 6.40747 80.3207C6.32072 80.2843 6.23207 80.2498 6.14342 80.2163C6.03571 80.1759 5.928 80.1345 5.82124 80.0941C5.72409 80.0528 5.62272 80.023 5.51907 80.0054C5.30173 79.9749 5.01291 80.1039 5.07105 80.3257C5.12253 80.509 5.40087 80.6518 5.59246 80.707Z" fill="white"/>
<path d="M16.8604 78.848L16.8604 79.7852L21.4148 79.7852L21.4148 78.848L16.8604 78.848Z" fill="#892121"/>
<path d="M17.3164 79.7847C17.3164 79.7847 17.3698 80.9426 19.0131 80.9978C20.8614 81.0599 21.0473 79.7847 21.0473 79.7847L17.3164 79.7847Z" fill="#DBE4EB"/>
<path d="M18.4472 80.7129C18.6652 80.7686 18.8906 80.7873 19.1144 80.7681C19.1986 80.7678 19.2821 80.7524 19.3613 80.7227C19.3973 80.7109 19.4294 80.6888 19.4539 80.659C19.4783 80.6292 19.4941 80.5929 19.4995 80.5542C19.4995 80.4468 19.3756 80.3739 19.2622 80.3266C19.1754 80.2901 19.0868 80.2556 18.9981 80.2221C18.8904 80.1817 18.7827 80.1404 18.6759 80.1C18.5787 80.0588 18.4774 80.0287 18.3738 80.0103C18.1564 79.9807 17.8667 80.1088 17.9258 80.3315C17.9753 80.5148 18.2565 80.6577 18.4472 80.7129Z" fill="white"/>
<path d="M1.62012 76.3209L1.62012 63.1931L24.3735 63.1931L24.3735 76.3209C24.3735 77.0504 24.0934 77.75 23.5947 78.2661C23.096 78.7821 22.4196 79.0724 21.714 79.0732L4.28913 79.0732C3.93895 79.0741 3.59203 79.0036 3.26825 78.8657C2.94447 78.7278 2.65018 78.5252 2.40226 78.2695C2.15433 78.0139 1.95762 77.7102 1.82341 77.3758C1.6892 77.0414 1.62012 76.683 1.62012 76.3209Z" fill="#F43B3B"/>
<path d="M-1.8425e-06 -0.000202179L0 42.1514L26 42.1514L26 -0.000203315L-1.8425e-06 -0.000202179Z" fill="#CE332F"/>
<path d="M2.08069 62.2474C2.08069 62.2474 1.66794 68.8498 6.04894 69.0469L19.4407 69.0469C23.4061 68.7769 23.9294 62.482 23.9294 62.482L2.08069 62.2474Z" fill="#394458"/>
<path d="M3.47852 42.1512L3.47852 43.7988L22.5229 43.7988L22.5229 42.1512L3.47852 42.1512Z" fill="#394458"/>
<path d="M1.62012 62.9763L1.62012 43.6778L24.3735 43.6778L24.3735 62.9763C24.3735 63.8469 24.0389 64.6818 23.4435 65.2974C22.848 65.913 22.0404 66.2588 21.1983 66.2588L4.79815 66.2588C4.38094 66.2592 3.96775 66.1746 3.58219 66.0098C3.19663 65.845 2.84626 65.6033 2.55111 65.2984C2.25597 64.9936 2.02183 64.6316 1.86209 64.2332C1.70234 63.8347 1.62012 63.4076 1.62012 62.9763Z" fill="#CE332F"/>
<path d="M21.3633 64.886L5.61994 64.886C3.68395 64.886 2.11495 63.5547 2.11495 61.912L2.11495 43.6816L1.625 43.6816L1.625 63.2916C1.625 64.9333 3.194 66.2646 5.12999 66.2646L20.8734 66.2646C22.7502 66.2646 24.2821 65.0132 24.3736 63.4404C23.7626 64.3036 22.6406 64.886 21.3633 64.886Z" fill="#F43B3B"/>
<path d="M5.89285 69.9552C5.89285 69.9552 5.63834 71.46 6.47526 74.2566C7.14919 76.5093 9.10519 77.6494 9.10519 77.6494L16.9092 77.6494C16.9092 77.6494 18.8652 76.5093 19.5391 74.2566C20.3761 71.46 20.1215 69.9552 20.1215 69.9552C20.1215 69.9552 17.3286 70.8155 13.0077 70.8027C8.68578 70.8145 5.89285 69.9552 5.89285 69.9552Z" fill="#CE332F"/>
<path d="M7.00811 59.6774C8.08048 59.6774 8.94887 60.4145 8.94887 61.3241C8.94887 62.2336 8.08048 62.9717 7.00811 62.9717C5.93574 62.9717 5.06641 62.2346 5.06641 61.3241C5.06641 60.4135 5.93479 59.6774 7.00811 59.6774Z" fill="#892121"/>
<path d="M7.00821 60.0861C7.81368 60.0861 8.46663 60.6409 8.46663 61.3238C8.46663 62.0067 7.81272 62.5645 7.00821 62.5645C6.20369 62.5645 5.54883 62.0097 5.54883 61.3258C5.54883 60.6419 6.20178 60.0861 7.00821 60.0861Z" fill="#3F48EF"/>
<path d="M19.138 59.3209C20.2104 59.3209 21.0787 60.059 21.0787 60.9686C21.0787 61.8781 20.2104 62.6162 19.138 62.6162C18.0656 62.6162 17.1963 61.8781 17.1963 60.9686C17.1963 60.059 18.0656 59.3209 19.138 59.3209Z" fill="#892121"/>
<path d="M19.1381 59.7307C19.9436 59.7307 20.5965 60.2845 20.5965 60.9684C20.5965 61.6523 19.9436 62.2061 19.1381 62.2061C18.3326 62.2061 17.6787 61.6523 17.6787 60.9684C17.6787 60.2845 18.3317 59.7307 19.1381 59.7307Z" fill="#3F48EF"/>
<path d="M18.2218 60.84L18.1865 61.0903C18.2786 61.3162 18.4314 61.5102 18.6269 61.649C18.7343 61.7218 18.8565 61.7679 18.984 61.7838C19.1115 61.7997 19.2408 61.785 19.3618 61.7406C19.5963 61.6421 19.7269 61.3613 19.5944 61.1632C19.5302 61.0823 19.4511 61.0154 19.3618 60.9661L18.7203 60.5493C18.6688 60.5075 18.6056 60.484 18.5402 60.4823C18.361 60.4951 18.3734 60.7552 18.2218 60.84Z" fill="#3792ED"/>
<path d="M6.14089 61.6942C6.19593 61.8154 6.28049 61.9197 6.38626 61.9969C6.49204 62.0741 6.61541 62.1216 6.74428 62.1347C7.02262 62.1534 7.31049 61.914 7.22089 61.6903C7.13129 61.4666 6.73475 61.4134 6.55364 61.2153C6.48024 61.1355 6.44497 61.035 6.37729 60.9512C6.34223 60.9047 6.29521 60.8693 6.2416 60.8491C6.188 60.8288 6.12998 60.8246 6.07417 60.8369C6.03301 60.854 5.99695 60.8821 5.96967 60.9183C5.94238 60.9544 5.92483 60.9974 5.91879 61.0429C5.89629 61.1555 5.90003 61.2721 5.9297 61.3829C5.95936 61.4938 6.01411 61.5958 6.08942 61.6804L6.14089 61.6942Z" fill="#3792ED"/>
<path d="M15.9072 1.76643L15.9072 29.2568L18.1826 29.2568L18.1826 1.76643L15.9072 1.76643Z" fill="#7A8BA0"/>
<path d="M7.92285 1.76643L7.92285 29.2568L10.1982 29.2568L10.1982 1.76643L7.92285 1.76643Z" fill="#7A8BA0"/>
<path d="M10.1982 24.2383L10.1982 24.7842L15.9071 24.7842L15.9071 24.2382L10.1982 24.2383Z" fill="#7A8BA0"/>
<path d="M10.1982 20.706L10.1982 21.252L15.9071 21.252L15.9071 20.706L10.1982 20.706Z" fill="#7A8BA0"/>
<path d="M10.1982 17.1738L10.1982 17.7197L15.9071 17.7197L15.9071 17.1738L10.1982 17.1738Z" fill="#7A8BA0"/>
<path d="M10.1982 13.6416L10.1982 14.1875L15.9071 14.1875L15.9071 13.6416L10.1982 13.6416Z" fill="#7A8BA0"/>
<path d="M10.1982 10.1084L10.1982 10.6543L15.9071 10.6543L15.9071 10.1084L10.1982 10.1084Z" fill="#7A8BA0"/>
<path d="M10.1982 6.57615L10.1982 7.12207L15.9071 7.12207L15.9071 6.57615L10.1982 6.57615Z" fill="#7A8BA0"/>
<path d="M10.1982 3.04294L10.1982 3.58887L15.9071 3.58887L15.9071 3.04294L10.1982 3.04294Z" fill="#7A8BA0"/>
<path d="M10.1982 27.7715L10.1982 28.3174L15.9071 28.3174L15.9071 27.7715L10.1982 27.7715Z" fill="#7A8BA0"/>
<path d="M15.9072 29.0662L15.9072 56.5566L18.1826 56.5566L18.1826 29.0662L15.9072 29.0662Z" fill="#7A8BA0"/>
<path d="M7.92285 29.0662L7.92285 56.5566L10.1982 56.5566L10.1982 29.0662L7.92285 29.0662Z" fill="#7A8BA0"/>
<path d="M10.1982 51.5381L10.1982 52.084L15.9071 52.084L15.9071 51.5381L10.1982 51.5381Z" fill="#7A8BA0"/>
<path d="M10.1982 48.0058L10.1982 48.5518L15.9071 48.5518L15.9071 48.0058L10.1982 48.0058Z" fill="#7A8BA0"/>
<path d="M10.1982 44.4736L10.1982 45.0195L15.9071 45.0195L15.9071 44.4736L10.1982 44.4736Z" fill="#7A8BA0"/>
<path d="M10.1982 40.9404L10.1982 41.4863L15.9071 41.4863L15.9071 40.9404L10.1982 40.9404Z" fill="#7A8BA0"/>
<path d="M10.1982 37.4082L10.1982 37.9541L15.9071 37.9541L15.9071 37.4082L10.1982 37.4082Z" fill="#7A8BA0"/>
<path d="M10.1982 33.875L10.1982 34.4209L15.9071 34.4209L15.9071 33.875L10.1982 33.875Z" fill="#7A8BA0"/>
<path d="M10.1982 30.3418L10.1982 30.8877L15.9071 30.8877L15.9071 30.3418L10.1982 30.3418Z" fill="#7A8BA0"/>
<path d="M10.1982 55.0703L10.1982 55.6162L15.9071 55.6162L15.9071 55.0703L10.1982 55.0703Z" fill="#7A8BA0"/>
<path d="M1.625 -0.000202179L1.625 42.1514L3.4771 42.1514L3.4771 -0.00020226L1.625 -0.000202179Z" fill="#F43B3B"/>
<path d="M21.5957 -0.000202179L21.5957 42.1514L23.4478 42.1514L23.4478 -0.00020226L21.5957 -0.000202179Z" fill="#F43B3B"/>
<path d="M8.46679 1.76699L8.4668 56.5566L9.49246 56.5566L9.49246 1.76699L8.46679 1.76699Z" fill="#CBD3D8"/>
<path d="M16.4502 1.76699L16.4502 56.5566L17.4749 56.5566L17.4749 1.76699L16.4502 1.76699Z" fill="#CBD3D8"/>
</g>
<defs>
<clipPath id="clip0_723_23956">
<rect width="81" height="26" fill="white" transform="translate(0 81) rotate(-90)"/>
</clipPath>
</defs>
</svg>
