<svg width="33" height="28" viewBox="0 0 33 28" fill="none" xmlns="http://www.w3.org/2000/svg">
<path d="M22.1263 15.8156H28.6921L16.9393 27.6478C16.6965 27.8745 16.3775 28.0005 16.0464 28.0005C15.7152 28.0005 15.3962 27.8745 15.1534 27.6478L3.86014 16.2783L3.40056 15.8156H9.44109C9.62489 15.8162 9.80513 15.7644 9.96086 15.6662C10.1166 15.5679 10.2415 15.4271 10.321 15.2603L10.9513 13.9382L13.1574 18.5125C13.2415 18.6761 13.3686 18.8133 13.5249 18.9091C13.6813 19.0049 13.8607 19.0555 14.0437 19.0555C14.2267 19.0555 14.4062 19.0049 14.5625 18.9091C14.7189 18.8133 14.846 18.6761 14.9301 18.5125L18.9615 10.3159L21.1939 15.1942C21.2714 15.3786 21.4012 15.5359 21.567 15.6464C21.7329 15.7569 21.9274 15.8158 22.1263 15.8156Z" fill="#FFCAD5"/>
<path d="M32.212 8.67618C32.2168 10.5239 31.627 12.3235 30.5311 13.8057H22.7441L19.9077 7.63176C19.8301 7.46245 19.706 7.31898 19.5501 7.21827C19.3942 7.11755 19.213 7.06379 19.0278 7.0633C18.8444 7.06488 18.6648 7.11602 18.5077 7.21137C18.3506 7.30671 18.2218 7.44277 18.1348 7.60534L14.0772 15.8151L11.9236 11.2409C11.8311 11.0877 11.7009 10.9611 11.5457 10.8732C11.3904 10.7853 11.2153 10.7392 11.0372 10.7392C10.8591 10.7392 10.684 10.7853 10.5288 10.8732C10.3735 10.9611 10.2434 11.0877 10.1509 11.2409L8.91647 13.8057H1.68092C0.585024 12.3235 -0.00471123 10.5239 2.8346e-05 8.67618C-0.000688708 6.96039 0.50414 5.28292 1.45065 3.85606C2.39716 2.42919 3.74285 1.31706 5.31737 0.660352C6.89189 0.00364746 8.6245 -0.168085 10.296 0.166849C11.9675 0.501782 13.5027 1.32832 14.7075 2.54193L15.4823 3.32193C15.6601 3.49017 15.8949 3.58385 16.1389 3.58385C16.3829 3.58385 16.6177 3.49017 16.7955 3.32193L17.557 2.54193C18.7618 1.32832 20.2971 0.501782 21.9686 0.166849C23.6401 -0.168085 25.3727 0.00364746 26.9473 0.660352C28.5218 1.31706 29.8674 2.42919 30.8139 3.85606C31.7604 5.28292 32.2652 6.96039 32.2645 8.67618H32.212Z" fill="#FFCAD5"/>
</svg>
