<svg width="12" height="7" viewBox="0 0 12 7" fill="none" xmlns="http://www.w3.org/2000/svg">
<path d="M10.2569 5.87572C10.4989 5.7379 10.7285 5.57986 10.9433 5.40334C12.5608 4.0614 12.3205 2.20474 10.2289 1.0081C7.87855 -0.336032 4.07876 -0.336032 1.74315 1.0081C-0.325575 2.1989 -0.551173 4.04388 1.05677 5.38436C1.27985 5.56863 1.51891 5.73306 1.77117 5.87572C4.11931 7.22131 7.91836 7.22131 10.2569 5.87572ZM5.22076 1.07161C5.89903 1.07161 6.51316 1.22931 6.95773 1.48339C7.40229 1.73747 7.67654 2.08719 7.67654 2.47561C8.35039 2.47561 8.96084 2.63405 9.40466 2.88812C9.84849 3.1422 10.1264 3.49484 10.1286 3.88326C10.1331 4.65863 9.04341 5.28798 7.69571 5.29017H2.78857L2.77309 2.47561C2.77383 1.69878 3.86643 1.07161 5.21781 1.07161H5.22076Z" fill="#EB5C5C"/>
</svg>
