<svg width="33" height="82" viewBox="0 0 33 82" fill="none" xmlns="http://www.w3.org/2000/svg">
<g clip-path="url(#clip0_723_23235)">
<path d="M31.9665 10.412C31.7344 8.24319 31.4249 6.55886 31.0175 5.7373C29.4701 2.62586 16.5919 2.8481 16.5919 2.8481C14.3773 2.80066 3.96276 2.72325 2.5387 5.46012C2.09384 6.31539 1.74569 8.13956 1.47248 10.4844L1.19081 10.4844C1.49303 6.80858 1.91614 3.80202 2.53388 2.62586C3.95673 -0.109762 14.3724 -0.0336048 16.5871 0.0138404C16.5871 0.0138404 29.4653 -0.208404 31.0114 2.90304C31.5845 4.05547 31.9604 6.89847 32.207 10.4095L31.9665 10.412Z" fill="#385459"/>
<path d="M32.958 68.4563C32.9664 72.7639 30.2985 76.5296 28.7861 78.5698C27.3355 80.5138 17.4227 80.2878 16.5366 80.2641C15.648 80.2928 5.73765 80.565 4.28095 78.6285C2.75534 76.6008 0.0776784 72.8488 0.0692134 68.5412L0.000299319 33.5812C0.000299319 33.5812 -0.0504754 7.81691 2.10133 3.76904C3.55199 1.03342 14.1986 1.10833 16.4628 1.15578C16.4628 1.15578 29.6227 0.932282 31.2027 4.04498C33.1369 7.84937 32.8879 30.1938 32.8407 33.5038L32.8879 33.5038L32.958 68.4563Z" fill="#B7B6A5"/>
<path d="M31.1273 3.85034C32.1391 5.84805 32.5526 12.9225 32.7109 19.6885C31.7849 19.6623 31.1781 18.365 29.8519 18.4012C28.9864 18.4249 28.6431 19.0704 27.844 19.219C27.1295 19.3526 26.1395 18.9693 25.4117 18.8507C23.7568 18.5822 21.9713 18.6522 20.2305 18.6572C16.3282 18.6659 12.5045 18.9069 8.60104 18.9169C7.71976 18.9169 6.66682 19.4562 5.78676 19.4575C4.77009 19.4575 4.40865 18.6721 3.50078 18.375C2.51554 18.0516 1.06368 18.2501 0.204163 19.0679C0.471325 12.3981 0.99718 5.50844 2.02594 3.5744C3.47659 0.838779 14.1232 0.913695 16.3862 0.96114C16.3862 0.96114 29.5485 0.738896 31.1273 3.85034Z" fill="#231F20"/>
<path d="M28.7543 80.2768C27.3036 82.2208 17.3908 81.9948 16.5047 81.9711C15.615 81.9998 5.7058 82.272 4.24789 80.3355C2.72228 78.3078 0.0458294 74.5558 0.0373644 70.2483L0.0313142 67.1955C0.0397754 71.5031 2.71625 75.255 4.24185 77.2827C5.69976 79.2193 15.6053 78.9458 16.4987 78.9184C17.3872 78.9421 27.2976 79.1681 28.7483 77.224C30.2654 75.1889 32.9273 71.4244 32.9189 67.1106L32.9189 70.1634C32.9334 74.4772 30.2739 78.2429 28.7543 80.2768Z" fill="#385459"/>
<path d="M16.5798 80.6838C15.69 80.7125 5.78083 80.986 4.32293 79.0494C2.79732 77.0217 0.120868 73.2698 0.112403 68.9622L0.0894422 57.9173C2.55556 60.1897 5.79776 61.4246 9.0436 61.8004C14.4461 62.4247 18.4668 62.4884 20.8157 62.2374C24.157 61.8791 30.2582 60.7391 32.9794 58.3006L33 68.8836C33.0084 73.1911 30.3404 76.9556 28.8281 78.9907C27.3726 80.9348 17.4683 80.7063 16.5798 80.6838Z" fill="#231F20"/>
<path d="M26.4965 52.0546C25.307 53.3182 7.65975 53.3606 6.46658 52.102C5.0667 50.6275 5.74125 26.118 6.79297 24.792C7.62226 23.7495 25.2272 23.707 26.0613 24.7458C27.1215 26.0668 27.8891 50.5725 26.4965 52.0546Z" fill="white"/>
<path d="M26.9414 72.9369C25.6334 78.1309 16.5281 77.9686 16.5281 77.9686C16.5281 77.9686 7.42159 78.1734 6.09425 72.9868C5.38826 70.23 4.53479 60.6472 4.53479 60.6472C4.53479 60.6472 6.77606 61.1866 10.9177 61.9132C13.4563 62.359 19.5322 62.3452 22.0744 61.887C26.2124 61.1379 28.4609 60.591 28.4609 60.591C28.4609 60.591 27.6353 70.1775 26.9414 72.9369Z" fill="#363D49"/>
<path d="M27.6148 18.543C27.6148 18.543 24.1598 17.6165 22.3707 17.5179C19.745 17.3718 16.4544 17.207 16.4544 17.207C16.4544 17.207 13.1651 17.3881 10.5406 17.5454C8.75145 17.654 5.3001 18.5967 5.3001 18.5967C5.3001 18.5967 5.21669 6.54172 5.78365 5.27941C6.91516 2.74481 16.4315 2.72109 16.4315 2.72109C16.4315 2.72109 25.9478 2.69861 27.0877 5.22821C27.6499 6.48802 27.6148 18.543 27.6148 18.543Z" fill="#363D49"/>
<path d="M4.5789 59.579C3.91523 59.0996 6.11661 53.3224 6.11661 53.3224C6.11661 53.3224 12.9734 53.9742 16.0125 53.968C24.604 53.9467 26.2336 52.7868 26.7582 53.2725C27.2829 53.7582 28.7638 58.8162 28.5038 59.2756C27.9296 60.2957 22.266 61.1572 16.7535 61.1922C10.303 61.2284 5.73338 60.4131 4.5789 59.579Z" fill="#385459"/>
<path d="M26.5039 23.964C25.5368 23.964 24.2566 23.6169 21.475 23.4046C18.8336 23.2036 16.388 23.1437 16.388 23.1437C16.388 23.1437 13.9425 23.2149 11.3023 23.4296C8.52184 23.6544 7.238 24.0064 6.27573 24.0127C5.28445 24.0189 4.05744 19.7238 4.6365 19.3118C4.90245 19.1233 7.29603 18.5914 9.87457 18.2318C12.9234 17.806 16.3771 17.8323 16.3771 17.8323C16.3771 17.8323 19.8309 17.7886 22.8821 18.2068C25.4631 18.5552 27.8579 19.0808 28.1238 19.2619C28.7029 19.6652 27.494 23.9652 26.5039 23.964Z" fill="#385459"/>
<path d="M1.98652 58.6175C1.45219 58.3578 1.79189 41.8867 1.78826 40.1224C1.78826 39.5319 4.52033 39.2946 4.64605 40.0338C4.77178 40.7729 5.19005 52.1075 5.0208 53.3361C4.56022 56.6398 2.65503 58.9447 1.98652 58.6175Z" fill="#385459"/>
<path d="M1.92084 38.3625C2.29076 38.9656 4.43652 38.7309 4.52356 38.3563C4.6106 37.9817 5.27791 25.0116 4.99503 24.2212C4.71215 23.4309 3.07774 18.8598 2.48055 19.3905C1.88337 19.9211 1.39498 37.506 1.92084 38.3625Z" fill="#385459"/>
<path d="M30.9594 58.5484C31.4925 58.2875 31.0875 41.8175 31.0803 40.0533C31.0803 39.4615 28.3458 39.238 28.2225 39.9784C28.0992 40.7188 27.7269 52.0546 27.9009 53.2832C28.3736 56.5832 30.2873 58.8793 30.9594 58.5484Z" fill="#385459"/>
<path d="M30.9401 38.2928C30.5775 38.8984 28.4257 38.6737 28.3374 38.2991C28.2492 37.9245 27.5299 24.9593 27.8091 24.1665C28.0884 23.3736 29.7047 18.7976 30.3043 19.3245C30.9039 19.8514 31.4624 37.4351 30.9401 38.2928Z" fill="#385459"/>
<path d="M24.3805 77.8749C24.4216 78.2832 24.4519 78.9649 24.9052 79.1722C25.3803 79.3882 26.1902 79.2571 26.7185 79.2021C27.9274 79.0773 28.7736 78.2857 29.2741 77.2681C29.4989 76.8111 30.0079 74.4363 28.9767 74.6136L28.9054 74.5462C28.5826 74.7847 28.3843 75.2878 28.0858 75.5987C27.7611 75.9296 27.3799 76.1955 26.9615 76.3828C26.4018 76.645 25.9521 76.8698 25.3331 76.9297C24.6078 77.0009 24.3032 77.1207 24.3805 77.8749Z" fill="#385459"/>
<path d="M24.1668 77.4677C24.2092 77.8759 24.2394 78.5577 24.6927 78.7649C25.1666 78.9809 25.9765 78.8498 26.506 78.7949C27.7149 78.67 28.5611 77.8784 29.0616 76.8621C29.2852 76.4039 29.7954 74.0303 28.7642 74.2076L28.6929 74.139C28.3701 74.3787 28.1719 74.8819 27.8721 75.1915C27.5479 75.5233 27.1666 75.7897 26.7478 75.9769C26.1893 76.2391 25.7384 76.4626 25.1194 76.5237C24.3953 76.5937 24.0907 76.711 24.1668 77.4677Z" fill="#CECDB6"/>
<path opacity="0.5" d="M27.3488 78.1658C27.4274 78.0022 27.3911 77.519 27.2061 77.3916C27.0212 77.2643 26.5618 77.3792 26.3599 77.4191C25.9126 77.5065 25.0459 77.3979 24.8464 77.8998C24.5575 78.6265 25.4629 78.584 25.9017 78.5416C26.2535 78.5091 27.0852 78.4292 27.3282 78.1745C27.3681 78.132 27.3875 78.0084 27.3887 78.0297L27.3488 78.1658Z" fill="white"/>
<path d="M8.6351 77.9117C8.59521 78.32 8.5674 79.0017 8.11528 79.2115C7.6414 79.43 6.83024 79.3026 6.30196 79.2502C5.09308 79.1253 4.24687 78.3437 3.73914 77.3286C3.51308 76.8717 2.99326 74.5006 4.02564 74.6729L4.09696 74.6055C4.41973 74.8427 4.62042 75.3447 4.92143 75.653C5.24659 75.9831 5.62873 76.2474 6.0481 76.4322C6.60902 76.6919 7.05993 76.9141 7.67887 76.9715C8.40662 77.039 8.71126 77.1563 8.6351 77.9117Z" fill="#385459"/>
<path d="M8.84864 77.5047C8.80874 77.9117 8.78093 78.5947 8.32881 78.8032C7.85493 79.0217 7.04498 78.8943 6.51549 78.8431C5.30661 78.7183 4.4604 77.9354 3.95267 76.9216C3.72661 76.4646 3.208 74.0936 4.23918 74.2659L4.3105 74.1972C4.63327 74.4344 4.83395 74.9364 5.13496 75.246C5.46066 75.5754 5.84267 75.8396 6.26163 76.0251C6.82255 76.2848 7.27346 76.5058 7.89241 76.5645C8.61774 76.6307 8.92238 76.7493 8.84864 77.5047Z" fill="#CECDB6"/>
<path opacity="0.5" d="M5.67068 78.2173C5.5909 78.055 5.62475 77.5718 5.80971 77.4432C5.99467 77.3146 6.45404 77.4282 6.65592 77.4669C7.10442 77.5518 7.96998 77.4394 8.17186 77.9401C8.4632 78.6655 7.55774 78.6281 7.11892 78.5869C6.76714 78.5557 5.93423 78.4795 5.69124 78.2273C5.65014 78.1848 5.6308 78.0612 5.62959 78.0824L5.67068 78.2173Z" fill="white"/>
<path d="M7.2383 2.53733C7.17786 3.34516 6.89015 3.42382 6.2301 3.64981C5.61841 3.85957 5.01034 4.19794 4.40228 4.39896C3.93686 4.55503 3.01327 4.96206 2.54181 4.62994C2.30003 4.46138 2.19849 4.07183 2.15377 3.67853C2.8126 2.59352 4.94385 1.96424 7.39062 1.60215C7.35557 1.94676 7.25402 2.32008 7.2383 2.53733Z" fill="#F71E1E"/>
<path d="M26.0171 2.73925C26.0811 3.54583 26.3689 3.62324 27.0301 3.84548C27.643 4.05274 28.2523 4.38736 28.8615 4.59462C29.327 4.74945 30.2518 5.15149 30.7232 4.81687C30.965 4.64707 31.0629 4.25751 31.1064 3.86296C30.444 2.78295 28.3091 2.16366 25.8611 1.81281C25.8974 2.14867 26.0001 2.522 26.0171 2.73925Z" fill="#F71E1E"/>
<path opacity="0.2" d="M11.8272 61.0451L9.51099 53.6161L11.3195 53.7509L14.4541 61.1699L11.8272 61.0451Z" fill="#CECDB6"/>
<path opacity="0.2" d="M14.2639 53.9243L18.6388 61.1885L21.3516 60.98L16.9307 53.9605L14.2639 53.9243Z" fill="#CECDB6"/>
<path opacity="0.2" d="M20.3187 53.8448L24.0106 60.6758L25.0176 60.5135L21.3365 53.7749L20.3187 53.8448Z" fill="#CECDB6"/>
<path opacity="0.2" d="M9.25283 60.7931L6.11699 53.3229L6.91002 53.3953L10.3408 60.918L9.25283 60.7931Z" fill="#CECDB6"/>
<path d="M24.5269 44.4171C24.5302 44.2969 24.5107 44.1772 24.4692 44.0648C24.4278 43.9525 24.3653 43.8496 24.2854 43.7622C24.2055 43.6748 24.1096 43.6044 24.0034 43.5553C23.8971 43.5061 23.7825 43.4791 23.6661 43.4757L9.38443 43.5106C9.14959 43.5191 8.92757 43.6233 8.76694 43.8005C8.60631 43.9776 8.52016 44.2132 8.52734 44.4558L8.52734 46.8281C8.52083 47.0708 8.6078 47.3062 8.76917 47.4827C8.93054 47.6592 9.15312 47.7623 9.38806 47.7695L23.6698 47.7346C23.7861 47.7307 23.9007 47.7032 24.0067 47.6536C24.1128 47.604 24.2084 47.5332 24.288 47.4455C24.3676 47.3577 24.4297 47.2546 24.4706 47.142C24.5116 47.0294 24.5307 46.9096 24.5269 46.7894L24.5269 44.4171Z" fill="#4848CC"/>
<path d="M23.9265 47.0925L9.22656 47.127L9.22472 46.2879L23.9247 46.2535L23.9265 47.0925Z" fill="#2974E2"/>
<path d="M23.6398 47.7443L16.7347 47.7568L16.7263 43.493L23.6326 43.4755C23.8675 43.4827 24.0901 43.5858 24.2515 43.7623C24.4128 43.9388 24.4998 44.1742 24.4933 44.4169L24.4933 46.7892C24.4983 46.9099 24.4802 47.0304 24.44 47.1438C24.3997 47.2572 24.3382 47.3613 24.2589 47.4501C24.1796 47.5388 24.084 47.6105 23.9778 47.661C23.8716 47.7115 23.7567 47.7399 23.6398 47.7443Z" fill="#F71E1E"/>
<path d="M23.8953 47.0542L18.708 47.0664L18.7061 46.1799L23.8933 46.1678L23.8953 47.0542Z" fill="#F46F62"/>
<path d="M19.1422 47.7525L13.9404 47.7646L13.9311 43.5008L19.1329 43.4886L19.1422 47.7525Z" fill="#B7B6A5"/>
<path d="M8.14506 71.3125L9.7166 71.3125C9.83498 71.3118 9.95178 71.2843 10.0587 71.2318C10.1657 71.1794 10.2602 71.1034 10.3356 71.0091C10.5162 70.7854 10.6086 70.4997 10.5943 70.2088C10.596 70.1947 10.596 70.1804 10.5943 70.1663L10.5943 70.1189C10.5934 70.0478 10.5877 69.9769 10.5773 69.9066C10.566 69.8269 10.5478 69.7483 10.5229 69.6719C10.4693 69.4952 10.3794 69.3325 10.2594 69.1949C10.1942 69.1222 10.1142 69.0652 10.0252 69.028C9.93614 68.9909 9.84028 68.9746 9.74442 68.9802L8.57059 68.9802L8.57059 67.2184L8.13297 67.2184L8.14506 71.3125ZM8.57906 69.4209L9.71539 69.4209C9.74367 69.4305 9.77022 69.4449 9.79397 69.4634C9.84585 69.4984 9.893 69.5404 9.93421 69.5882C10.0029 69.661 10.0589 69.7455 10.0998 69.8379C10.1513 69.9552 10.1718 70.0844 10.1591 70.2125C10.149 70.3664 10.0923 70.5132 9.99707 70.632C9.95302 70.6837 9.89838 70.7247 9.83712 70.7519C9.77586 70.7791 9.7095 70.7919 9.64286 70.7893L8.58148 70.7893L8.57906 69.4209Z" fill="white"/>
<path d="M11.0427 69.6084C11.0427 69.6733 11.0585 69.7332 11.0705 69.8069C11.1488 70.2021 11.3292 70.568 11.5928 70.8657C11.7298 71.0249 11.8993 71.1506 12.0892 71.2337C12.279 71.3169 12.4844 71.3554 12.6904 71.3464C12.7462 71.3466 12.8019 71.3437 12.8573 71.3376C12.914 71.3316 12.9701 71.3212 13.0253 71.3064C13.3741 71.216 13.6846 71.0098 13.909 70.7196C14.1786 70.4012 14.32 69.903 14.3345 69.2288C14.3444 68.6911 14.1891 68.1639 13.8909 67.723C13.5975 67.2935 13.1571 67.0792 12.5696 67.08C12.3374 67.0698 12.1069 67.1257 11.9035 67.2418C11.7 67.3579 11.5315 67.5295 11.4163 67.738C11.1592 68.1742 11.0314 68.7335 11.0331 69.4161C11.0331 69.4785 11.0367 69.5434 11.0427 69.6084ZM11.5069 68.8505C11.5233 68.7384 11.5479 68.6278 11.5807 68.5196C11.648 68.2913 11.7585 68.0791 11.9059 67.8953C11.9889 67.7959 12.0907 67.7151 12.205 67.6578C12.3193 67.6004 12.4438 67.5678 12.5708 67.562C12.5915 67.5573 12.6125 67.5544 12.6336 67.5532C12.6545 67.5519 12.6755 67.5519 12.6965 67.5532C13.0035 67.5532 13.2792 67.7093 13.5222 68.0239C13.7651 68.3386 13.8776 68.8168 13.8594 69.4573C13.8477 69.8137 13.73 70.1577 13.5222 70.4424C13.4273 70.5781 13.3019 70.6879 13.1568 70.7623C13.0117 70.8367 12.8512 70.8735 12.6892 70.8694C12.6488 70.8697 12.6084 70.8667 12.5683 70.8607C12.5275 70.8555 12.4871 70.8471 12.4475 70.8357C12.1754 70.7575 11.9385 70.5835 11.7777 70.3438C11.5746 70.0749 11.4731 69.6762 11.4731 69.1476C11.4803 69.0565 11.4912 68.9579 11.5069 68.8455L11.5069 68.8505Z" fill="white"/>
<path d="M14.8189 71.2959L15.2939 71.2959L15.2867 67.69L16.9404 67.69L16.9404 67.2031L14.8116 67.2031L14.8189 71.2959Z" fill="white"/>
<path d="M17.5292 71.29L17.9717 71.29L17.9632 67.1972L17.5208 67.1972L17.5292 71.29Z" fill="white"/>
<path d="M18.5711 69.4103C18.5784 69.4915 18.5892 69.5726 18.6013 69.6538C18.6637 70.0517 18.8107 70.4303 19.0317 70.7625C19.2566 71.103 19.6124 71.2915 20.0991 71.3281C20.1885 71.3264 20.2776 71.316 20.3651 71.2969C20.4714 71.2734 20.5745 71.2365 20.6721 71.187C20.8521 71.0837 21.009 70.9425 21.1327 70.7725C21.2983 70.531 21.4075 70.2533 21.4519 69.9609L20.9768 69.9609C20.9328 70.2154 20.8117 70.4488 20.6311 70.6277C20.4889 70.7652 20.3024 70.8435 20.1076 70.8474L20.0738 70.8474C20.0638 70.8494 20.0535 70.8494 20.0435 70.8474C19.7969 70.8258 19.5705 70.6822 19.3641 70.4167C19.1574 70.1495 19.0474 69.7674 19.0341 69.268C19.0341 68.667 19.1373 68.2333 19.3436 67.967C19.5503 67.6998 19.7788 67.5649 20.0266 67.5599L20.0411 67.5599C20.1672 67.5627 20.2915 67.5913 20.4067 67.6443C20.5219 67.6972 20.6257 67.7734 20.7121 67.8683C20.9228 68.0881 21.0436 68.3831 21.0493 68.6924L21.5244 68.6924L21.5026 68.5451C21.4954 68.4939 21.4845 68.4427 21.4724 68.3915C21.3883 68.0536 21.2271 67.7415 21.0022 67.4813C20.896 67.349 20.7622 67.2432 20.6108 67.1719C20.4595 67.1005 20.2945 67.0654 20.1282 67.0692C19.5979 67.0518 19.2026 67.2569 18.9422 67.6848C18.6758 68.1352 18.541 68.6555 18.5542 69.1831C18.5578 69.2518 18.5627 69.3304 18.5711 69.4103Z" fill="white"/>
<path d="M22.1858 71.2783L24.5334 71.2721L24.5334 70.8363L22.6295 70.8363L22.6295 69.5116L24.4645 69.5116L24.4645 69.0309L22.6295 69.0309L22.6295 67.6674L24.6084 67.6674L24.6084 67.1805L22.1906 67.1867L22.1858 71.2783Z" fill="white"/>
<path d="M24.5921 9.44414L23.0955 9.44414C22.9819 9.44503 22.87 9.47258 22.7682 9.52471C22.6664 9.57684 22.5775 9.65218 22.508 9.74504C22.336 9.97122 22.25 10.2545 22.2662 10.5416C22.2645 10.5553 22.2645 10.5692 22.2662 10.5828L22.2662 10.6303C22.2672 10.7009 22.2725 10.7714 22.282 10.8413C22.2929 10.9205 22.3103 10.9986 22.3339 11.0748C22.3849 11.2493 22.4706 11.4109 22.5854 11.5492C22.6452 11.6201 22.7198 11.6762 22.8035 11.7131C22.8872 11.7501 22.978 11.7671 23.0689 11.7627L24.1847 11.7627L24.1847 13.5107L24.6006 13.5107L24.5921 9.44414ZM24.1799 11.3245L23.0992 11.3245C23.0721 11.3151 23.0468 11.3012 23.0242 11.2833C22.9751 11.2475 22.9304 11.2056 22.8912 11.1584C22.8256 11.0846 22.7721 11.0003 22.7329 10.9087C22.6852 10.793 22.6661 10.6669 22.6773 10.5416C22.6864 10.3892 22.7403 10.2432 22.832 10.1234C22.8728 10.0726 22.9242 10.0321 22.9825 10.005C23.0408 9.97799 23.1042 9.96508 23.1681 9.96729L24.1775 9.96729L24.1799 11.3245Z" fill="white"/>
<path d="M21.8357 11.1388C21.8357 11.0739 21.8212 11.0077 21.8091 10.9415C21.7364 10.5518 21.5655 10.1887 21.3135 9.88899C21.1864 9.732 21.0262 9.60715 20.8452 9.52404C20.6641 9.44093 20.467 9.40176 20.269 9.40954C20.2158 9.40954 20.1627 9.40954 20.1095 9.41828C20.056 9.42434 20.003 9.43478 19.9511 9.44949C19.6159 9.5417 19.3202 9.74693 19.1109 10.0326C18.8546 10.351 18.7193 10.8442 18.706 11.5159C18.6956 12.048 18.8428 12.5708 19.1279 13.0142C19.4067 13.442 19.8254 13.6551 20.3839 13.6534C20.6076 13.6621 20.8291 13.6054 21.0231 13.4899C21.217 13.3744 21.3755 13.2047 21.4803 13.0004C21.7221 12.5659 21.843 12.0095 21.843 11.3311C21.8454 11.2674 21.8418 11.2037 21.8357 11.1388ZM21.3945 11.888C21.3794 11.9991 21.356 12.1089 21.3244 12.2163C21.2617 12.4431 21.157 12.6551 21.0161 12.8406C20.9387 12.9384 20.8423 13.0184 20.7333 13.0756C20.6242 13.1328 20.5048 13.1659 20.3827 13.1727C20.3631 13.1768 20.3433 13.1797 20.3234 13.1815C20.3033 13.1828 20.2831 13.1828 20.263 13.1815C19.9716 13.1815 19.7093 13.0267 19.4784 12.7145C19.2475 12.4024 19.1412 11.9267 19.1569 11.2886C19.1678 10.9363 19.2797 10.5952 19.4784 10.3085C19.5656 10.1751 19.6837 10.0664 19.822 9.99221C19.9603 9.91806 20.1144 9.88086 20.2702 9.884C20.3107 9.88411 20.3511 9.88703 20.3911 9.89274C20.432 9.89781 20.4724 9.90616 20.512 9.91771C20.7718 9.99856 20.9959 10.1709 21.1455 10.4047C21.3377 10.6718 21.4344 11.0676 21.4356 11.5945C21.4187 11.6869 21.409 11.7856 21.3945 11.893L21.3945 11.888Z" fill="white"/>
<path d="M18.2455 9.45911L17.7945 9.45911L17.8018 13.045L16.2302 13.045L16.2302 13.5332L18.2539 13.5332L18.2455 9.45911Z" fill="white"/>
<path d="M15.6695 9.46578L15.2488 9.46578L15.2561 13.5361L15.6768 13.5361L15.6695 9.46578Z" fill="white"/>
<path d="M14.6796 11.333C14.6723 11.2531 14.6627 11.1732 14.6506 11.0908C14.5923 10.6971 14.4525 10.3211 14.2408 9.98831C14.028 9.64953 13.6899 9.46224 13.2265 9.42645C13.1415 9.42757 13.0568 9.43803 12.9739 9.45766C12.8723 9.48088 12.7739 9.51738 12.6813 9.56629C12.5087 9.67038 12.3595 9.81127 12.2437 9.97957C12.085 10.2214 11.9813 10.4971 11.9403 10.7861L12.3912 10.7861C12.4325 10.536 12.5473 10.305 12.72 10.1244C12.8525 9.98794 13.031 9.90965 13.218 9.9059L13.2507 9.9059C13.2603 9.90392 13.2701 9.90392 13.2797 9.9059C13.513 9.92838 13.7282 10.0707 13.9252 10.3354C14.1223 10.6001 14.2275 10.9809 14.2395 11.4779C14.2395 12.0747 14.1416 12.5058 13.9458 12.7714C13.7487 13.0361 13.5311 13.1722 13.2954 13.1759L13.2821 13.1759C13.161 13.1725 13.0419 13.1435 12.9322 13.0906C12.8224 13.0378 12.7243 12.9623 12.6438 12.8688C12.4418 12.6466 12.3276 12.3544 12.3235 12.0497L11.8714 12.0497L11.8919 12.197C11.8991 12.247 11.9088 12.2969 11.9209 12.3494C11.9999 12.6829 12.153 12.9928 12.3682 13.2546C12.4665 13.3846 12.5926 13.4893 12.7368 13.5603C12.8809 13.6314 13.039 13.6669 13.1987 13.6641C13.4238 13.6849 13.6498 13.6383 13.8499 13.5298C14.0499 13.4213 14.2154 13.2555 14.3266 13.0523C14.5786 12.6005 14.7041 12.0852 14.6892 11.564C14.6917 11.4916 14.6868 11.4104 14.6796 11.333Z" fill="white"/>
<path d="M11.2412 9.47517L9.0084 9.47517L9.0084 9.91217L10.8217 9.91217L10.8217 11.2294L9.07731 11.2294L9.07731 11.7101L10.8217 11.7101L10.8217 13.0673L8.94071 13.0673L8.94071 13.5518L11.2376 13.5518L11.2412 9.47517Z" fill="white"/>
</g>
<defs>
<clipPath id="clip0_723_23235">
<rect width="82" height="33" fill="white" transform="matrix(-4.37114e-08 -1 -1 4.37114e-08 33 82)"/>
</clipPath>
</defs>
</svg>
