<svg width="22" height="13" viewBox="0 0 22 13" fill="none" xmlns="http://www.w3.org/2000/svg">
<path d="M18.7897 1.8523C14.4715 -0.617433 7.49276 -0.617433 3.20298 1.8523C1.06535 3.08203 -0.00138223 4.69335 1.34415e-06 6.30536V6.34646C1.34415e-06 6.35879 1.34415e-06 6.37044 1.34415e-06 6.38277C1.34415e-06 6.3951 1.34415e-06 6.40949 1.34415e-06 6.42319C1.34415e-06 6.43689 1.34415e-06 6.4458 1.34415e-06 6.45744C1.34415e-06 6.46909 1.34415e-06 6.48622 1.34415e-06 6.49992C1.34415e-06 6.51362 1.34415e-06 6.52253 1.34415e-06 6.53349C1.34415e-06 6.54445 1.34415e-06 6.56226 1.34415e-06 6.57733V6.60885C1.34415e-06 6.62392 1.17542e-06 6.63831 0.00415191 6.65338C0.00830264 6.66845 0.00415191 6.67462 0.00415191 6.68489C0.00415191 6.69517 0.00415241 6.71435 0.00899493 6.72874C0.0138375 6.74313 0.00899476 6.75066 0.0131455 6.76162C0.0172962 6.77258 0.0166056 6.78971 0.018681 6.8041L0.023524 6.83835L0.0297477 6.87809C0.0297477 6.89042 0.0332079 6.90206 0.0352832 6.91439C0.0373586 6.92673 0.0401241 6.94111 0.0421994 6.95482C0.0442748 6.96852 0.0463527 6.9788 0.0491198 6.99044C0.051887 7.00209 0.0539613 7.01648 0.0567285 7.02949C0.0594957 7.04251 0.06157 7.05347 0.0643372 7.0658L0.0726383 7.1069C0.0760972 7.11786 0.0781722 7.12951 0.0809394 7.14116C0.0837066 7.1528 0.0871665 7.16788 0.0906255 7.18158C0.0940844 7.19528 0.0961601 7.20487 0.099619 7.21652C0.103078 7.22817 0.106539 7.24529 0.11069 7.25968C0.114841 7.27407 0.115532 7.28023 0.118299 7.29051C0.121066 7.30079 0.127293 7.32202 0.132135 7.33778C0.136978 7.35354 0.136977 7.35628 0.139744 7.36518L0.154269 7.41177C0.154269 7.42136 0.159803 7.43163 0.163262 7.44123L0.177791 7.48644L0.18817 7.51659L0.202695 7.55975C0.206846 7.57071 0.210999 7.58167 0.214458 7.59263C0.217917 7.60359 0.225526 7.62141 0.230368 7.63648C0.235211 7.65155 0.237976 7.65634 0.241435 7.66594L0.260114 7.71184C0.260301 7.71503 0.260301 7.71823 0.260114 7.72143C0.260114 7.72759 0.265648 7.73444 0.267723 7.74061L0.286403 7.78651L0.298854 7.81528C0.305772 7.83036 0.312 7.84543 0.318227 7.8605C0.324453 7.87557 0.32722 7.87968 0.331371 7.88927C0.335521 7.89887 0.345898 7.9201 0.352816 7.93586L0.365268 7.96326C0.372877 7.97833 0.380487 7.99409 0.387405 8.00916C0.394323 8.02424 0.396395 8.02835 0.401238 8.03794L0.42476 8.08452C0.429603 8.09274 0.433755 8.10165 0.438597 8.11056L0.462808 8.15646C0.468342 8.16605 0.472495 8.17564 0.47803 8.18523L0.502933 8.23113C0.507775 8.24004 0.512616 8.24894 0.51815 8.25717C0.523684 8.26539 0.535445 8.28868 0.544438 8.30444L0.560352 8.33047L0.588021 8.37774C0.593556 8.38596 0.598397 8.39487 0.603931 8.40377L0.632297 8.44967C0.638523 8.45858 0.643365 8.46749 0.648899 8.47639L0.678646 8.52229L0.69594 8.54901L0.728457 8.59697L0.743674 8.61957L0.779648 8.67096L0.793485 8.69151L0.832225 8.74495L0.844676 8.76207L0.883416 8.81414L0.898634 8.83469L0.937374 8.88402C0.942285 8.89138 0.947599 8.89847 0.953288 8.90525L0.995486 8.95801L1.00932 8.97513L1.05221 9.0272C1.05706 9.03405 1.06259 9.04022 1.06743 9.04638C1.08334 9.06419 1.09856 9.08269 1.11447 9.10119C1.11862 9.10599 1.12278 9.11009 1.12623 9.11489L1.17189 9.16696L1.18849 9.18614L1.23208 9.2341L1.25145 9.25534C1.26874 9.27383 1.28535 9.29233 1.30264 9.31014L1.3144 9.32316C1.33169 9.34166 1.34968 9.35947 1.36767 9.37796L1.38081 9.39235L1.43615 9.44853C1.44031 9.44853 1.44376 9.45607 1.44791 9.46018L1.50326 9.5143L1.51779 9.52868L1.5752 9.58349L1.58835 9.59582L1.65199 9.65542L1.6596 9.66228L1.72325 9.71982L1.73432 9.72941L1.80349 9.78833L1.8118 9.79518L1.88789 9.86369L1.96191 9.92535L1.96676 9.92946L2.03593 9.98632L2.04631 9.99454L2.11549 10.0521L2.12518 10.0589C2.17845 10.1007 2.23171 10.1411 2.28636 10.1816L2.29397 10.1871C2.34609 10.2254 2.39936 10.2638 2.45378 10.3021C2.4588 10.3062 2.46412 10.3099 2.46969 10.3131C2.52503 10.3528 2.58245 10.3919 2.64056 10.4309L2.65024 10.4371L2.73187 10.4905C2.73528 10.4934 2.73899 10.496 2.74294 10.4981C2.77338 10.5179 2.80382 10.5378 2.83495 10.557C2.96224 10.6378 3.09368 10.7171 3.22927 10.7947C7.5481 13.261 14.5262 13.261 18.816 10.7947C18.8754 10.7612 18.9336 10.7262 18.991 10.692L19.0131 10.6789C19.0629 10.6488 19.112 10.6187 19.1605 10.5878L19.2054 10.5597L19.2269 10.5453L19.2961 10.4994L19.321 10.483L19.3901 10.4392L19.4386 10.4063L19.4794 10.3789L19.5271 10.346L19.5686 10.3165L19.6081 10.2884L19.6551 10.2549L19.7021 10.2206L19.7402 10.1918L19.7831 10.1603L19.8246 10.1288L19.8585 10.1028L19.9076 10.0644L19.9318 10.0452L19.9892 10L20.0107 9.9829L20.0674 9.93631L20.102 9.90685L20.1435 9.8726L20.185 9.83697L20.2196 9.80683L20.2597 9.7712L20.2936 9.74174L20.3372 9.70201L20.3656 9.67597L20.405 9.63967L20.4382 9.60815L20.4714 9.57596C20.4839 9.56499 20.4956 9.55335 20.5074 9.5417C20.5191 9.53005 20.5302 9.51978 20.5413 9.50813C20.5523 9.49649 20.5648 9.48552 20.5759 9.47388L20.6084 9.44099C20.6194 9.43003 20.6312 9.41838 20.6416 9.40674L20.6762 9.37112C20.6866 9.36015 20.6969 9.34988 20.7066 9.33891L20.7384 9.30466L20.7716 9.26903L20.8 9.23752C20.8069 9.22999 20.8131 9.22245 20.8201 9.2156C20.8236 9.21073 20.8275 9.20614 20.8318 9.2019L20.8643 9.16422C20.874 9.15394 20.883 9.14366 20.892 9.1327L20.9252 9.09365C20.9335 9.08338 20.9418 9.07379 20.9508 9.06419L20.984 9.0224L21.0075 8.99432L21.0387 8.95458L21.0636 8.92307L21.0926 8.88539L21.1168 8.85387L21.148 8.81277C21.1549 8.80249 21.1618 8.79359 21.1694 8.78331L21.1992 8.74152L21.2199 8.71206C21.2296 8.69905 21.2386 8.68603 21.2476 8.67233L21.2697 8.64081L21.296 8.60176L21.3168 8.57025C21.3258 8.55723 21.3334 8.54422 21.3417 8.5312C21.35 8.51818 21.3562 8.50996 21.3624 8.499C21.3687 8.48804 21.379 8.47228 21.3873 8.45858L21.4074 8.42707L21.433 8.38459C21.4385 8.375 21.4441 8.36541 21.4489 8.35582C21.4537 8.34623 21.4669 8.32567 21.4759 8.3106L21.4911 8.2832L21.516 8.23867L21.5305 8.21058C21.5395 8.19551 21.5471 8.17975 21.5554 8.16399L21.5693 8.13796L21.5935 8.09C21.5978 8.08198 21.6017 8.07375 21.6052 8.06534C21.6136 8.05027 21.6205 8.0352 21.6281 8.01944C21.6357 8.00368 21.6371 8.00026 21.6419 7.99067C21.6467 7.98107 21.6544 7.96189 21.6613 7.94751C21.6682 7.93312 21.6703 7.92764 21.6751 7.91805C21.68 7.90846 21.6883 7.88585 21.6959 7.87009L21.7062 7.84543C21.7132 7.82967 21.7194 7.81391 21.7256 7.79816L21.7374 7.77007L21.7554 7.72485L21.7657 7.69677C21.7727 7.68032 21.7782 7.66388 21.7837 7.64744C21.7893 7.631 21.79 7.63168 21.7934 7.62346L21.8107 7.57345L21.819 7.54947C21.8245 7.53234 21.8301 7.5159 21.8349 7.49946C21.8398 7.48302 21.8405 7.48233 21.8432 7.47411C21.846 7.46589 21.8529 7.44191 21.8584 7.42547C21.864 7.40903 21.8633 7.40834 21.866 7.40012L21.8806 7.34805L21.8868 7.32613C21.8916 7.30832 21.8965 7.29051 21.9006 7.27338C21.9048 7.25626 21.9048 7.259 21.9062 7.25146C21.9076 7.24392 21.9145 7.21652 21.9193 7.19871C21.9242 7.18089 21.9193 7.18363 21.9242 7.1761L21.9366 7.12266L21.9408 7.10211C21.9408 7.0843 21.9484 7.0658 21.9518 7.0473C21.9518 7.04045 21.9518 7.0336 21.9518 7.02675C21.9518 7.00894 21.9587 6.99044 21.9615 6.97263L21.9657 6.95139L21.974 6.89864C21.974 6.8911 21.974 6.88288 21.974 6.87535C21.974 6.86781 21.9788 6.83972 21.9809 6.8226C21.983 6.80547 21.9809 6.80821 21.9809 6.80136C21.9809 6.78286 21.985 6.76436 21.9878 6.74587C21.9878 6.7397 21.9878 6.73285 21.9878 6.726L21.994 6.66914C21.9937 6.66343 21.9937 6.65771 21.994 6.65201L21.9982 6.59241C21.9982 6.58761 21.9982 6.58213 21.9982 6.57733C21.9982 6.55678 21.9982 6.53691 21.9982 6.51705C21.9978 6.51203 21.9978 6.50699 21.9982 6.50198C21.9982 6.48211 21.9982 6.46224 21.9982 6.44237C21.9985 6.43896 21.9985 6.43551 21.9982 6.4321V6.42525C21.9982 6.40606 21.9982 6.38619 21.9982 6.36633C22.0514 4.73103 20.9667 3.09642 18.7897 1.8523ZM15.9236 9.28822L14.5234 10.1747L11.3011 8.50996L8.22467 10.4583L4.21784 8.38801V6.90206L5.98605 5.78195L4.07256 4.77145V3.28755L7.89746 0.861665L11.1212 2.52985L14.199 0.580781L18.2051 2.65111V4.13569L16.4175 5.26745L18.3504 6.26562V7.7502L15.9236 9.28822Z" fill="#ADCAEC"/>
</svg>
