<svg width="28" height="28" viewBox="0 0 28 28" fill="none" xmlns="http://www.w3.org/2000/svg">
<g clip-path="url(#clip0_0_439)">
<path d="M13.9998 28C21.7315 28 27.9996 21.7318 27.9996 14C27.9996 12.4982 27.7578 11.0549 27.32 9.69945C26.7651 10.0087 26.1364 10.1818 25.4796 10.1818C24.2018 10.1818 23.0195 9.54545 22.3157 8.47764C21.6119 7.41109 21.4922 6.07218 21.9962 4.89873L22.7688 3.09527C20.3684 1.162 17.3216 0 13.9998 0C6.2681 0 0 6.26818 0 14C0 21.7318 6.2681 28 13.9998 28ZM19.0906 8.90909C19.7932 8.90909 20.3634 9.47927 20.3634 10.1818C20.3634 10.8844 19.7932 11.4545 19.0906 11.4545C18.3881 11.4545 17.8179 10.8844 17.8179 10.1818C17.8179 9.47927 18.3881 8.90909 19.0906 8.90909ZM8.90897 8.90909C9.6115 8.90909 10.1817 9.47927 10.1817 10.1818C10.1817 10.8844 9.6115 11.4545 8.90897 11.4545C8.20643 11.4545 7.63626 10.8844 7.63626 10.1818C7.63626 9.47927 8.20643 8.90909 8.90897 8.90909ZM9.75277 18.1885C10.7862 17.5 12.1747 17.6349 13.0516 18.5156C13.5747 19.0375 14.4262 19.0375 14.9492 18.5156C15.8274 17.6362 17.2159 17.5013 18.2481 18.1885L20.7172 19.8342L20.0108 20.8931L17.5418 19.2475C17.011 18.8949 16.2996 18.9649 15.8491 19.4155C14.8296 20.4349 13.17 20.4336 12.1518 19.4155C11.7013 18.9649 10.9898 18.8962 10.4591 19.2475L7.99007 20.8931L7.28372 19.8342L9.75277 18.1885Z" fill="white"/>
<path d="M25.4797 8.90909C27.2869 8.90909 28.5062 7.06109 27.7935 5.40018L25.4797 0L23.1659 5.40018C22.4532 7.06109 23.6712 8.90909 25.4797 8.90909Z" fill="white"/>
</g>
<defs>
<clipPath id="clip0_0_439">
<rect width="28" height="28" fill="white"/>
</clipPath>
</defs>
</svg>
