<svg width="15" height="15" viewBox="0 0 15 15" fill="none" xmlns="http://www.w3.org/2000/svg">
<g clip-path="url(#clip0_1018_24681)">
<path d="M2.65564 7.55187L11.9454 7.55186L11.9454 8.26783C11.9461 8.27734 11.9447 8.28688 11.9414 8.29581C11.938 8.30474 11.9328 8.31286 11.9261 8.3196C11.9193 8.32634 11.9112 8.33157 11.9023 8.33491C11.8934 8.33825 11.8838 8.33964 11.8743 8.33898L5.36832 8.38345L7.59183 11.0027C7.60066 11.0126 7.60637 11.0248 7.60824 11.0379C7.61011 11.0509 7.60805 11.0643 7.60233 11.0762C7.59662 11.0881 7.5875 11.098 7.57613 11.1048C7.56476 11.1115 7.55164 11.1147 7.53845 11.1139L5.6974 11.1139C5.68773 11.1136 5.67827 11.111 5.66978 11.1064C5.66129 11.1017 5.65399 11.0952 5.64847 11.0872L2.66898 7.58298C2.66153 7.57417 2.65688 7.56334 2.65564 7.55187Z" fill="#08863A"/>
<path d="M7.50294 3.91865C7.51616 3.91905 7.529 3.92313 7.54003 3.93043C7.55106 3.93772 7.55985 3.94793 7.5654 3.95994C7.57094 3.97195 7.57301 3.98528 7.57141 3.9984C7.5698 4.01153 7.56458 4.02395 7.5563 4.03427L5.36393 6.68024L11.8699 6.64022C11.8888 6.64022 11.9069 6.64772 11.9202 6.66106C11.9336 6.67441 11.9411 6.6925 11.9411 6.71137L11.9411 7.55186L2.6557 7.55186C2.65276 7.54482 2.65125 7.53725 2.65125 7.52962C2.65125 7.52199 2.65276 7.51444 2.6557 7.50739L5.59073 3.94978C5.59636 3.9409 5.60429 3.93372 5.61369 3.92901C5.62309 3.92431 5.63361 3.92227 5.64409 3.9231L7.50294 3.91865Z" fill="#08863A"/>
</g>
<defs>
<clipPath id="clip0_1018_24681">
<rect width="7.20861" height="9.29426" fill="white" transform="translate(2.65564 11.1273) rotate(-90)"/>
</clipPath>
</defs>
</svg>
