<svg width="15" height="15" viewBox="0 0 15 15" fill="none" xmlns="http://www.w3.org/2000/svg">
<g clip-path="url(#clip0_1019_21275)">
<path d="M7.5517 12.3447L7.5517 3.05508L8.26765 3.05508C8.27717 3.05442 8.28671 3.05581 8.29564 3.05915C8.30457 3.06249 8.31268 3.06771 8.31943 3.07446C8.32617 3.0812 8.33139 3.0893 8.33473 3.09823C8.33808 3.10716 8.33946 3.11672 8.33881 3.12623L8.38328 9.6321L11.0025 7.40862C11.0123 7.3998 11.0246 7.39409 11.0376 7.39222C11.0507 7.39035 11.0641 7.39241 11.076 7.39812C11.0879 7.40384 11.0978 7.41296 11.1045 7.42433C11.1113 7.4357 11.1144 7.44881 11.1137 7.462L11.1137 9.30303C11.1134 9.31269 11.1108 9.32215 11.1061 9.33064C11.1015 9.33913 11.095 9.34643 11.087 9.35195L7.58282 12.3314C7.57401 12.3388 7.56318 12.3435 7.5517 12.3447Z" fill="#A9612D"/>
<path d="M3.91853 7.49722C3.91893 7.484 3.92301 7.47116 3.93031 7.46013C3.9376 7.4491 3.94781 7.44031 3.95982 7.43477C3.97183 7.42923 3.98515 7.42715 3.99828 7.42876C4.01141 7.43036 4.02383 7.43559 4.03415 7.44386L6.68007 9.6362L6.64005 3.13032C6.64005 3.11145 6.64755 3.09336 6.6609 3.08001C6.67424 3.06667 6.69233 3.05917 6.7112 3.05917L7.55168 3.05917L7.55168 12.3444C7.54464 12.3473 7.53707 12.3488 7.52944 12.3488C7.52181 12.3488 7.51426 12.3473 7.50721 12.3444L3.94966 9.4094C3.94078 9.40377 3.9336 9.39584 3.92889 9.38644C3.92419 9.37704 3.92215 9.36652 3.92298 9.35604L3.91853 7.49722Z" fill="#A9612D"/>
</g>
<defs>
<clipPath id="clip0_1019_21275">
<rect width="6.86121" height="8.84635" fill="white" transform="translate(11.127 12.3447) scale(1.05062) rotate(-180)"/>
</clipPath>
</defs>
</svg>
