<svg width="31" height="36" viewBox="0 0 31 36" fill="none" xmlns="http://www.w3.org/2000/svg">
<path d="M14.24 6.00907C14.4218 4.63511 15.0272 3.34775 15.9758 2.31816C16.5897 1.62575 17.3437 1.06501 18.1902 0.671216C19.0367 0.277422 19.9574 0.059106 20.8945 0.0299925C22.1092 -0.0202791 23.329 0.00566315 24.5454 0.0153931C24.7217 0.012378 24.8968 0.0437064 25.0606 0.107552C25.2243 0.171398 25.3734 0.266486 25.4992 0.387256C25.6249 0.508026 25.7248 0.652056 25.793 0.810954C25.8611 0.969851 25.8962 1.14043 25.8962 1.31273C25.8962 1.4853 25.861 1.65614 25.7927 1.81526C25.7243 1.97438 25.6241 2.11856 25.498 2.23937C25.3719 2.36019 25.2224 2.4552 25.0582 2.51885C24.8941 2.5825 24.7186 2.61351 24.542 2.61006C23.4733 2.62465 22.403 2.60033 21.3343 2.61006C19.4076 2.64249 18.0153 3.50198 17.1972 5.21932C17.0849 5.4914 16.9874 5.76909 16.9051 6.05123C17.5075 6.18096 18.0883 6.27341 18.6492 6.43557C22.5689 7.55939 25.2556 10.0032 26.706 13.7331C27.1483 14.8938 27.3818 16.1206 27.3964 17.3591C27.413 18.1845 27.1209 18.4943 26.2646 18.4943H4.83898C3.85325 18.4943 3.59105 18.2235 3.61594 17.2748C3.69265 14.8516 4.54318 12.5126 6.04837 10.5854C7.55356 8.65825 9.63798 7.23952 12.0096 6.528C12.7199 6.29772 13.4683 6.18097 14.24 6.00907Z" fill="white"/>
<path d="M15.4597 23.3866C10.9725 23.3866 6.48524 23.3866 1.998 23.3866C1.20808 23.3866 0.574159 23.1482 0.194137 22.4412C0.064133 22.1949 -0.00248508 21.9214 7.08673e-05 21.6444C0.00262681 21.3673 0.0742778 21.095 0.208803 20.8511C0.343328 20.6072 0.536674 20.399 0.7721 20.2446C1.00753 20.0902 1.27793 19.9942 1.55989 19.9649C1.74243 19.9471 1.92665 19.9422 2.11085 19.9422C11.0356 19.9422 19.9608 19.9422 28.8866 19.9422C29.1925 19.9339 29.4981 19.9677 29.7944 20.0427C30.1847 20.1639 30.5183 20.4166 30.7356 20.7558C30.9529 21.095 31.0399 21.4986 30.9809 21.8947C30.9269 22.2784 30.741 22.6328 30.4535 22.8995C30.1661 23.1662 29.7944 23.3294 29.3994 23.3623C29.2152 23.3769 29.031 23.3785 28.8468 23.3785L15.4597 23.3866Z" fill="white"/>
<path d="M9.5835 32.5297C9.5835 34.4465 8.25591 36.0001 6.59642 36.0001C4.93694 36.0001 3.60935 34.4465 3.60935 32.5297C3.60935 31.1205 5.22569 28.2972 6.08033 26.9058C6.13346 26.8188 6.20881 26.7467 6.29898 26.6967C6.38916 26.6467 6.49107 26.6204 6.59476 26.6204C6.69846 26.6204 6.80039 26.6467 6.89056 26.6967C6.98074 26.7467 7.05608 26.8188 7.10922 26.9058C7.96717 28.2972 9.5835 31.1205 9.5835 32.5297Z" fill="white"/>
<path d="M18.49 32.5297C18.49 34.4465 17.1624 36.0001 15.5029 36.0001C13.8434 36.0001 12.5158 34.4465 12.5158 32.5297C12.5158 31.1205 14.1322 28.2972 14.9868 26.9058C15.04 26.8188 15.1153 26.7467 15.2055 26.6967C15.2956 26.6467 15.3976 26.6204 15.5013 26.6204C15.6049 26.6204 15.7069 26.6467 15.7971 26.6967C15.8872 26.7467 15.9626 26.8188 16.0157 26.9058C16.8736 28.2972 18.49 31.1205 18.49 32.5297Z" fill="white"/>
<path d="M27.3964 32.5297C27.3964 34.4465 26.0688 36.0001 24.4093 36.0001C22.7498 36.0001 21.4222 34.4465 21.4222 32.5297C21.4222 31.1205 23.0385 28.2972 23.8932 26.9058C23.9463 26.8188 24.0217 26.7467 24.1118 26.6967C24.202 26.6467 24.3039 26.6204 24.4076 26.6204C24.5113 26.6204 24.6132 26.6467 24.7034 26.6967C24.7936 26.7467 24.8689 26.8188 24.9221 26.9058C25.78 28.2972 27.3964 31.1205 27.3964 32.5297Z" fill="white"/>
</svg>
