<svg width="15" height="15" viewBox="0 0 15 15" fill="none" xmlns="http://www.w3.org/2000/svg">
<g clip-path="url(#clip0_1019_21277)">
<path d="M12.3441 7.44855L3.05444 7.44856L3.05444 6.7326C3.05378 6.72309 3.05517 6.71355 3.05851 6.70462C3.06185 6.69569 3.06707 6.68757 3.07382 6.68083C3.08056 6.67409 3.08866 6.66887 3.09759 6.66552C3.10652 6.66218 3.11608 6.66079 3.12559 6.66145L9.63145 6.61698L7.40798 3.99774C7.39916 3.98791 7.39345 3.97569 7.39158 3.96261C7.3897 3.94954 7.39176 3.9362 7.39748 3.92429C7.40319 3.91238 7.41231 3.90244 7.42369 3.89572C7.43506 3.88901 7.44817 3.88582 7.46136 3.88656L9.30239 3.88656C9.31205 3.8869 9.32151 3.88949 9.33 3.89412C9.33849 3.89875 9.34579 3.9053 9.35131 3.91324L12.3308 7.41744C12.3382 7.42625 12.3429 7.43708 12.3441 7.44855Z" fill="#A9612D"/>
<path d="M7.49696 11.0819C7.48375 11.0815 7.47091 11.0774 7.45988 11.0701C7.44884 11.0628 7.44005 11.0526 7.43451 11.0406C7.42897 11.0286 7.42689 11.0152 7.4285 11.0021C7.4301 10.989 7.43533 10.9766 7.4436 10.9662L9.63594 8.32031L3.13006 8.36033C3.11119 8.36033 3.0931 8.35283 3.07976 8.33949C3.06641 8.32614 3.05891 8.30805 3.05891 8.28918L3.05891 7.4487L12.3441 7.4487C12.3471 7.45575 12.3486 7.46331 12.3486 7.47094C12.3486 7.47858 12.3471 7.48613 12.3441 7.49317L9.40914 11.0507C9.40352 11.0596 9.39559 11.0668 9.38618 11.0715C9.37678 11.0762 9.36626 11.0782 9.35578 11.0774L7.49696 11.0819Z" fill="#A9612D"/>
</g>
<defs>
<clipPath id="clip0_1019_21277">
<rect width="6.86121" height="8.84635" fill="white" transform="translate(12.3441 3.87312) scale(1.05062) rotate(90)"/>
</clipPath>
</defs>
</svg>
