<svg width="32" height="32" viewBox="0 0 32 32" fill="none" xmlns="http://www.w3.org/2000/svg">
<g clip-path="url(#clip0_0_268)">
<path d="M0 21.441C0.2025 20.8876 0.600002 20.6714 1.18417 20.6898C2.11084 20.714 3.03833 20.6898 3.965 20.6998C4.04043 20.7054 4.11595 20.6904 4.18348 20.6563C4.25101 20.6221 4.308 20.5703 4.34833 20.5062C5.86917 18.4478 8.515 17.8026 10.8117 18.9303C11.9225 19.4762 13.0258 20.0362 14.1367 20.5805C14.2853 20.6501 14.4468 20.6881 14.6108 20.6923C15.5983 20.7182 16.595 20.6606 17.5742 20.7633C19.0417 20.9169 20.1483 21.7148 20.925 22.9594C21.3625 23.6614 20.9183 24.4426 20.0917 24.4435C18.1233 24.4435 16.1542 24.4376 14.1858 24.4435C13.4875 24.4435 13.0308 25.062 13.2483 25.6955C13.3051 25.8762 13.4176 26.0342 13.5695 26.1469C13.7214 26.2597 13.9051 26.3214 14.0942 26.3232C16.6142 26.3288 19.1347 26.3274 21.6558 26.319C21.852 26.3045 22.0421 26.2442 22.2108 26.1429C24.4608 24.9259 26.7283 23.7356 28.95 22.4702C30.3542 21.6681 31.7458 22.4769 31.9633 23.6864C31.9724 23.7159 31.9856 23.744 32.0025 23.7699V24.3951C31.8092 25.0152 31.4258 25.4618 30.865 25.8065C28.2142 27.4334 25.5808 29.0886 22.935 30.7229C22.1533 31.2054 21.4258 31.798 20.5025 32.0176H19.7525C19.6876 31.9907 19.6207 31.969 19.5525 31.9525C16.6192 31.4558 13.6867 30.955 10.7525 30.4692C9.83 30.3164 8.90417 30.1128 7.97584 30.0911C5.73834 30.0385 3.49833 30.0644 1.26 30.0911C0.666666 30.0802 0.25 29.9133 0 29.3757V21.441Z" fill="white"/>
<path d="M20.6466 13.2843C19.3708 13.5088 18.2991 13.9796 17.3741 14.7709C16.8875 15.1882 16.8025 15.735 17.1658 16.1665C17.5291 16.598 18.0908 16.6114 18.5825 16.2024C20.7233 14.412 23.8575 14.7892 25.4533 17.0671C25.7799 17.5329 25.9666 18.1038 26.1766 18.6422C26.25 18.8317 26.3216 18.9227 26.5191 18.9711C27.4313 19.1923 28.253 19.6906 28.8716 20.3976L23 23.5695C22.9675 23.3316 22.9533 23.1154 22.9058 22.9076C22.7025 22.0061 22.1416 21.3216 21.505 20.6973C20.2308 19.4577 18.6908 18.8392 16.9166 18.82C16.4275 18.8142 15.9366 18.7975 15.4483 18.825C15.0234 18.8466 14.601 18.7483 14.2291 18.5412C13.4091 18.1122 12.5716 17.7182 11.7441 17.3042C10.2441 16.553 8.67329 16.3752 7.03579 16.6832C6.98807 16.6865 6.94018 16.6865 6.89246 16.6832C6.96662 16.593 7.01412 16.5238 7.07162 16.4645C8.73162 14.7367 11.5066 14.5939 13.3658 16.1456C13.6316 16.3668 13.9033 16.5513 14.265 16.4895C14.6583 16.4228 14.9316 16.1965 15.0341 15.8051C15.1366 15.4136 15.0125 15.0872 14.7116 14.8251C13.77 14.0063 12.6775 13.5046 11.3783 13.2859C12.575 12.0957 13.9691 11.4354 15.6025 11.3377C17.5433 11.2209 19.2016 11.8912 20.6466 13.2843Z" fill="white"/>
<path d="M17.015 4.68264C16.9317 5.87877 16.2133 6.9138 15.1133 7.32698C14.5837 7.52631 14.0062 7.56035 13.4569 7.42462C12.9076 7.28889 12.4122 6.98975 12.0358 6.56657C11.6504 6.14462 11.4055 5.61312 11.3349 5.04562C11.2643 4.47812 11.3715 3.90266 11.6417 3.39887C12.1783 2.41225 12.7417 1.43982 13.3083 0.4724C13.3913 0.329777 13.5099 0.211263 13.6525 0.128537C13.7951 0.0458103 13.9567 0.00172655 14.1215 0.000631271C14.2863 -0.000464008 14.4485 0.0414671 14.5922 0.122291C14.7358 0.203115 14.856 0.320042 14.9408 0.461549C15.5242 1.44566 16.0992 2.43479 16.6308 3.44728C16.8333 3.8229 16.8917 4.26863 17.015 4.68264Z" fill="white"/>
<path d="M26.3159 8.52401C26.3135 9.09567 26.1366 9.65292 25.8088 10.121C25.4811 10.589 25.0184 10.9454 24.4826 11.1425C23.9472 11.3413 23.3641 11.372 22.8108 11.2305C22.2576 11.089 21.7606 10.782 21.3859 10.3503C21.0108 9.92623 20.7749 9.39693 20.7101 8.83409C20.6453 8.27124 20.7546 7.70203 21.0234 7.20351C21.5584 6.22858 22.1201 5.267 22.6901 4.31126C22.774 4.16883 22.8935 4.05078 23.0369 3.96877C23.1802 3.88676 23.3425 3.84363 23.5076 3.84363C23.6727 3.84363 23.8349 3.88676 23.9783 3.96877C24.1217 4.05078 24.2412 4.16883 24.3251 4.31126C24.9001 5.27535 25.4743 6.24277 25.9976 7.23272C26.2001 7.61585 26.2651 8.07243 26.3934 8.49479L26.3159 8.52401Z" fill="white"/>
<path d="M19.759 0.0108643C20.0051 0.0126072 20.2406 0.111169 20.4147 0.285285C20.5889 0.4594 20.6877 0.695111 20.6899 0.941559C20.6903 1.06629 20.666 1.18986 20.6182 1.30505C20.5705 1.42025 20.5003 1.52476 20.4118 1.61249C20.3233 1.70022 20.2182 1.76941 20.1027 1.81602C19.9872 1.86262 19.8636 1.88571 19.739 1.88394C19.4933 1.87535 19.2603 1.77216 19.0887 1.59584C18.917 1.41952 18.8198 1.18367 18.8174 0.937385C18.8249 0.691157 18.927 0.457339 19.1025 0.28471C19.2779 0.112082 19.5131 0.0139769 19.759 0.0108643Z" fill="white"/>
<path d="M9.43832 8.52397C9.43286 8.77011 9.33111 9.00426 9.15498 9.17599C8.97886 9.34772 8.74245 9.4433 8.49665 9.44215C8.25084 9.43762 8.0164 9.33757 7.84286 9.16313C7.66933 8.98869 7.57028 8.75351 7.56665 8.50728C7.5706 8.25563 7.67392 8.0158 7.854 7.84028C8.03407 7.66476 8.27624 7.56784 8.52749 7.57074C8.7738 7.57817 9.00734 7.68226 9.17773 7.86058C9.34812 8.03891 9.44171 8.27716 9.43832 8.52397Z" fill="white"/>
</g>
<defs>
<clipPath id="clip0_0_268">
<rect width="32" height="32" fill="white"/>
</clipPath>
</defs>
</svg>
