<svg width="41" height="52" viewBox="0 0 41 52" fill="none" xmlns="http://www.w3.org/2000/svg">
<path d="M25.8783 40.914V50.4609" stroke="#08863A" stroke-width="1.7" stroke-linecap="round" stroke-linejoin="round"/>
<path d="M17.773 45.9849V40.4907" stroke="#08863A" stroke-width="1.7" stroke-linecap="round" stroke-linejoin="round"/>
<path d="M17.773 48.8277V50.7532" stroke="#08863A" stroke-width="1.7" stroke-linecap="round" stroke-linejoin="round"/>
<path d="M0.856871 50.7532H40.1432" stroke="#08863A" stroke-width="1.7" stroke-linecap="round" stroke-linejoin="round"/>
<path d="M11.6236 50.7935C11.6561 49.8071 12.0101 48.8584 12.6317 48.0918" stroke="#08863A" stroke-width="1.7" stroke-linecap="round" stroke-linejoin="round"/>
<path d="M10.8271 50.4609C10.8271 50.4609 10.5549 49.1705 10.192 48.0515" stroke="#08863A" stroke-width="1.7" stroke-linecap="round" stroke-linejoin="round"/>
<path d="M32.5722 50.7935C32.5995 49.8061 32.9541 48.8557 33.5803 48.0918" stroke="#08863A" stroke-width="1.7" stroke-linecap="round" stroke-linejoin="round"/>
<path d="M31.7858 50.4609C31.7858 50.4609 31.5136 49.1705 31.1507 48.0515" stroke="#08863A" stroke-width="1.7" stroke-linecap="round" stroke-linejoin="round"/>
<path d="M0.856871 20.0259H5.58499" stroke="#08863A" stroke-width="1.7" stroke-linecap="round" stroke-linejoin="round"/>
<path d="M27.8139 13.4933H30.556" stroke="#08863A" stroke-width="1.7" stroke-linecap="round" stroke-linejoin="round"/>
<path d="M22.8338 31.6394H25.5758" stroke="#08863A" stroke-width="1.7" stroke-linecap="round" stroke-linejoin="round"/>
<path d="M15.1621 29.472H23.358" stroke="#08863A" stroke-width="1.7" stroke-linecap="round" stroke-linejoin="round"/>
<path d="M31.7858 42.2548H35.4453" stroke="#08863A" stroke-width="1.7" stroke-linecap="round" stroke-linejoin="round"/>
<path d="M6.1395 9.5113H13.4483" stroke="#08863A" stroke-width="1.7" stroke-linecap="round" stroke-linejoin="round"/>
<path d="M27.5014 4.95464C27.5412 5.40309 27.514 5.85498 27.4208 6.29543C27.3921 6.45527 27.3995 6.61951 27.4425 6.7761C27.4856 6.93269 27.563 7.07767 27.6693 7.20042C27.7757 7.32318 27.9081 7.42059 28.057 7.48553C28.2058 7.55047 28.3674 7.58129 28.5297 7.57573C31.2919 7.57573 33.5702 9.59196 33.5702 12.0618C33.5702 14.5317 31.554 16.3665 31.9674 16.5479C33.1789 16.9794 34.2321 17.7664 34.9892 18.806C35.7464 19.8455 36.1724 21.0893 36.2115 22.3748C36.185 23.5445 35.8333 24.6837 35.1959 25.6647C34.5584 26.6458 33.6605 27.43 32.6025 27.9295C33.524 28.4694 34.2915 29.2367 34.8316 30.1581C35.3717 31.0795 35.6664 32.1241 35.6872 33.1919C35.6872 36.7203 32.4916 39.5632 28.5599 39.5632C28.0387 39.5648 27.5185 39.5141 27.0074 39.412C26.4959 40.1866 25.813 40.833 25.0115 41.3013C24.21 41.7696 23.3114 42.0472 22.3855 42.1125C21.4595 42.1778 20.5309 42.0291 19.6716 41.6779C18.8124 41.3268 18.0455 40.7825 17.4303 40.0874C16.7513 40.3474 16.0303 40.4806 15.3032 40.4806C13.699 40.4806 12.1605 39.8433 11.0261 38.7089C9.89177 37.5746 9.25453 36.0361 9.25453 34.4319C9.25335 33.2846 9.58225 32.1612 10.2021 31.1958C9.3178 30.6555 8.58712 29.8971 8.08016 28.9933C7.57321 28.0895 7.30697 27.0706 7.30697 26.0343C7.30697 24.998 7.57321 23.9791 8.08016 23.0753C8.58712 22.1715 9.3178 21.413 10.2021 20.8727C9.68605 20.1712 9.35788 19.3494 9.24863 18.4854C9.13938 17.6213 9.25274 16.7437 9.57794 15.9358C9.90313 15.1278 10.4294 14.4164 11.1067 13.869C11.7841 13.3215 12.5901 12.9563 13.4483 12.8078C13.317 12.3801 13.2523 11.9346 13.2567 11.4872C13.2554 10.8893 13.372 10.297 13.5999 9.74421C13.8278 9.19143 14.1625 8.68903 14.5848 8.26577C15.0071 7.84251 15.5087 7.50671 16.061 7.27759C16.6133 7.04847 17.2054 6.93054 17.8033 6.93054C18.0942 6.93098 18.3843 6.95798 18.6703 7.01119C18.4828 6.4976 18.3873 5.95501 18.388 5.40829C18.387 4.44607 18.6912 3.50833 19.257 2.73004C19.8228 1.95174 20.621 1.37302 21.5366 1.07715C22.4522 0.781291 23.4381 0.783545 24.3524 1.08359C25.2666 1.38363 26.0621 1.966 26.6243 2.74687" stroke="#08863A" stroke-width="1.7" stroke-linecap="round" stroke-linejoin="round"/>
</svg>
