<svg width="102" height="77" viewBox="0 0 102 77" fill="none" xmlns="http://www.w3.org/2000/svg">
<g clip-path="url(#clip0_672_16875)">
<path d="M15.2676 55.7962H86.6243C86.8944 55.7962 87.162 55.8486 87.4116 55.9503C87.6612 56.0521 87.888 56.2012 88.079 56.3892C88.27 56.5771 88.4216 56.8003 88.525 57.0459C88.6284 57.2916 88.6816 57.5548 88.6816 57.8207V68.8663C88.6816 71.0234 87.8108 73.0922 86.2607 74.6174C84.7106 76.1427 82.6083 76.9996 80.4162 76.9996H21.4395C19.2474 76.9996 17.1451 76.1427 15.595 74.6174C14.045 73.0922 13.1742 71.0234 13.1742 68.8663V57.8562C13.1693 57.5843 13.2201 57.3143 13.3235 57.0622C13.427 56.8101 13.581 56.5811 13.7764 56.3888C13.9718 56.1966 14.2045 56.045 14.4607 55.9432C14.7169 55.8414 14.9913 55.7914 15.2676 55.7962Z" fill="#6276DF"/>
<path d="M101.531 34.0233L94.8897 20.8111C94.4163 19.8439 93.6727 19.0295 92.7458 18.4633C91.8188 17.8972 90.747 17.6027 89.6561 17.6145C83.0507 17.6174 76.511 16.3256 70.4185 13.8144C64.3264 11.3434 58.7842 7.72376 54.1042 3.15937L52.3669 1.44977C51.5885 0.683814 50.3396 0.683813 49.5613 1.44977L47.824 3.15937C38.4052 12.4354 25.6336 17.659 12.3079 17.6856C11.2179 17.6781 10.1481 17.9743 9.22201 18.54C8.29589 19.1056 7.55142 19.9176 7.07456 20.8821L0.469403 34.0943C0.0511618 34.9382 -0.0934541 35.8881 0.0550251 36.8156C0.203504 37.7431 0.637839 38.6032 1.29948 39.2797L8.51817 46.5961C8.9929 47.0605 9.55611 47.4282 10.1755 47.678C10.7948 47.9279 11.4581 48.0551 12.1275 48.0523H89.9449C91.2953 48.0502 92.591 47.5274 93.5543 46.5961L100.773 39.2797C101.434 38.5867 101.861 37.7101 101.996 36.7694C102.132 35.8287 101.97 34.8697 101.531 34.0233ZM51.0002 38.7825C45.6945 38.7825 41.3992 31.1819 41.3992 26.4227C41.3189 25.1357 41.5073 23.8461 41.9526 22.6335C42.3979 21.4208 43.0906 20.3106 43.9884 19.3713C44.8861 18.432 45.9697 17.6835 47.1725 17.1719C48.3753 16.6602 49.6718 16.3963 50.9821 16.3963C52.2925 16.3963 53.5889 16.6602 54.7917 17.1719C55.9945 17.6835 57.0782 18.432 57.9759 19.3713C58.8736 20.3106 59.5664 21.4208 60.0117 22.6335C60.4569 23.8461 60.6451 25.1357 60.5648 26.4227C60.5648 31.1819 56.2698 38.7825 51.0002 38.7825Z" fill="#6276DF"/>
<path d="M54.3569 27.2401C54.3569 28.9094 52.841 31.5731 51.0002 31.5731C49.1594 31.5731 47.6074 28.9094 47.6074 27.2401C47.5585 26.7752 47.6092 26.3053 47.7566 25.8609C47.9039 25.4165 48.1445 25.0075 48.4626 24.6604C48.7807 24.3132 49.1693 24.0357 49.6033 23.8457C50.0373 23.6558 50.5071 23.5576 50.9821 23.5576C51.4572 23.5576 51.9269 23.6558 52.361 23.8457C52.795 24.0357 53.1836 24.3132 53.5017 24.6604C53.8198 25.0075 54.0604 25.4165 54.2077 25.8609C54.355 26.3053 54.4058 26.7752 54.3569 27.2401Z" fill="#6276DF"/>
</g>
<defs>
<clipPath id="clip0_672_16875">
<rect width="102" height="77" fill="white"/>
</clipPath>
</defs>
</svg>
