<svg width="26" height="26" viewBox="0 0 26 26" fill="none" xmlns="http://www.w3.org/2000/svg">
<g clip-path="url(#clip0_0_540)">
<path d="M24.3028 8.10217H17.8978V1.69717C17.8978 1.47429 17.8539 1.2536 17.7686 1.04769C17.6833 0.841774 17.5583 0.654682 17.4007 0.497084C17.2431 0.339487 17.056 0.214471 16.8501 0.12918C16.6442 0.0438892 16.4235 0 16.2007 0H9.79566C9.57296 -5.28526e-07 9.35244 0.0439228 9.14673 0.129259C8.94103 0.214595 8.75418 0.339664 8.59688 0.49731C8.43957 0.654955 8.31491 0.842077 8.23002 1.04797C8.14513 1.25386 8.10169 1.47447 8.10218 1.69717V8.10217H1.6935C1.24402 8.10314 0.813274 8.28238 0.49579 8.60056C0.178305 8.91873 -1.0621e-06 9.34987 0 9.79935V16.2043C0 16.6535 0.178424 17.0842 0.496015 17.4018C0.813605 17.7194 1.24436 17.8978 1.6935 17.8978H8.10218V24.3028C8.10169 24.5255 8.14513 24.7461 8.23002 24.952C8.31491 25.1579 8.43957 25.345 8.59688 25.5027C8.75418 25.6603 8.94103 25.7854 9.14673 25.8707C9.35244 25.9561 9.57296 26 9.79566 26H16.2007C16.4235 26 16.6442 25.9561 16.8501 25.8708C17.056 25.7855 17.2431 25.6605 17.4007 25.5029C17.5583 25.3453 17.6833 25.1582 17.7686 24.9523C17.8539 24.7464 17.8978 24.5257 17.8978 24.3028V17.8978H24.3028C24.5255 17.8983 24.7461 17.8549 24.952 17.77C25.1579 17.6851 25.345 17.5604 25.5027 17.4031C25.6603 17.2458 25.7854 17.059 25.8708 16.8533C25.9561 16.6476 26 16.427 26 16.2043V9.79935C26 9.34923 25.8212 8.91753 25.5029 8.59925C25.1846 8.28097 24.7529 8.10217 24.3028 8.10217Z" fill="white"/>
</g>
<defs>
<clipPath id="clip0_0_540">
<rect width="26" height="26" fill="white"/>
</clipPath>
</defs>
</svg>
