<svg width="44" height="18" viewBox="0 0 44 18" fill="none" xmlns="http://www.w3.org/2000/svg">
<path d="M42.1288 2.89468C41.7293 2.92862 41.3252 2.88111 40.9257 2.90825C40.8013 2.92194 40.6758 2.89535 40.568 2.83249C40.4603 2.76963 40.3763 2.67393 40.3287 2.55986C39.3484 0.958111 37.918 0.0486406 36.0008 0.0237547C33.4952 -0.00791823 30.9895 -0.00791823 28.4838 0.0237547C27.4179 0.0345944 26.3827 0.377465 25.5266 1.00327C24.6704 1.62908 24.0371 2.50575 23.7174 3.50778C23.683 3.61185 23.637 3.70912 23.6095 3.77925C23.077 3.69849 22.5405 3.64564 22.0023 3.6209C21.4565 3.6454 20.9123 3.69825 20.3722 3.77925C20.343 3.73824 20.3183 3.69426 20.2987 3.64805C19.4193 1.21828 17.6882 0.0101789 15.0731 0.00791658C12.7978 0.00791658 10.5202 0.00791658 8.24485 0.00791658C6.17848 0.00791658 4.631 0.899289 3.57026 2.64356C3.52087 2.71091 3.45781 2.76741 3.38509 2.80947C3.31236 2.85153 3.23156 2.87823 3.1478 2.88789C2.61973 2.9173 2.08706 2.88789 1.55899 2.88789C0.640602 2.88789 -0.00456759 3.49646 2.43555e-05 4.33353C0.0046163 5.1706 0.663562 5.76334 1.57736 5.77239C2.01589 5.77239 2.45442 5.77239 2.92968 5.77239C2.92968 6.38548 2.92968 6.94656 2.92968 7.50762C3.01464 11.0889 4.9731 13.487 8.53415 14.1861C10.7454 14.6282 13.0263 14.6082 15.2292 14.1273C17.4333 13.6409 19.1071 12.4305 19.975 10.2994C20.3737 9.28333 20.5588 8.19809 20.5191 7.10944C20.5191 6.82891 20.6018 6.6796 20.8773 6.65697C21.3974 6.58309 21.9222 6.54605 22.4477 6.54612C23.4327 6.60268 23.4304 6.63209 23.458 7.59585C23.5613 11.0754 25.4945 13.4418 28.9361 14.1567C30.8119 14.5475 32.7437 14.6026 34.6393 14.3196C34.3542 14.1166 34.1221 13.8497 33.9624 13.5409C33.8027 13.2321 33.72 12.8902 33.7209 12.5436C33.7214 12.178 33.8136 11.8181 33.9896 11.4961C32.4496 11.6898 30.8874 11.6232 29.3701 11.2993C27.407 10.8876 26.5024 9.68853 26.406 7.59359C26.367 6.73616 26.3738 5.8742 26.406 5.0145C26.4087 4.73149 26.4681 4.45178 26.5808 4.19145C26.6935 3.93111 26.8572 3.69527 27.0627 3.49747C27.2681 3.29966 27.5112 3.14379 27.7779 3.0388C28.0446 2.9338 28.3298 2.88175 28.617 2.88564C29.8339 2.88564 31.0507 2.88564 32.2653 2.88564C33.4799 2.88564 34.6416 2.88564 35.8286 2.88564C37.1924 2.88564 38.1246 3.79058 38.1384 5.14799C38.1384 5.88551 38.1384 6.6253 38.1154 7.36283C38.5436 7.04945 39.072 6.89828 39.6039 6.93691C40.1359 6.97554 40.636 7.20138 41.0129 7.57322L41.0405 7.60263C41.0589 7.0099 41.0198 6.40359 41.0198 5.79275C41.4446 5.79275 41.7729 5.77013 42.0966 5.79275C43.0013 5.86967 43.651 5.53485 44 4.69099V4.01228C43.6441 3.17295 43.0288 2.82002 42.1288 2.89468ZM17.5183 8.11619C17.3828 9.76545 16.4782 10.8152 14.8618 11.2609C14.3397 11.4151 13.7995 11.5026 13.2547 11.521C12.0297 11.5644 10.8033 11.5402 9.58111 11.4486C7.18182 11.2224 5.9994 9.96227 5.87312 7.60263C5.8272 6.74294 5.83409 5.88099 5.87312 5.0213C5.8776 4.73845 5.93859 4.45924 6.05261 4.19962C6.16662 3.94 6.33142 3.70506 6.53759 3.50821C6.74376 3.31136 6.98727 3.15646 7.2542 3.05236C7.52114 2.94825 7.80627 2.89698 8.09332 2.90147H11.7439C12.9309 2.90147 14.1179 2.90147 15.305 2.90147C16.6642 2.90147 17.6009 3.81999 17.6009 5.16383C17.5826 6.14342 17.5918 7.13433 17.5183 8.11619Z" fill="white"/>
<path d="M43.9704 12.5563C43.9707 12.696 43.943 12.8342 43.8888 12.9633C43.8347 13.0923 43.7552 13.2095 43.6549 13.3081C43.5546 13.4067 43.4355 13.4848 43.3044 13.5379C43.1734 13.591 43.033 13.618 42.8913 13.6174H40.4782V15.9883C40.485 16.1319 40.4621 16.2754 40.4109 16.4101C40.3598 16.5447 40.2815 16.6677 40.1807 16.7717C40.08 16.8757 39.9588 16.9584 39.8247 17.015C39.6906 17.0715 39.5462 17.1007 39.4003 17.1007C39.2544 17.1007 39.11 17.0715 38.9759 17.015C38.8417 16.9584 38.7206 16.8757 38.6198 16.7717C38.5191 16.6677 38.4408 16.5447 38.3896 16.4101C38.3385 16.2754 38.3156 16.1319 38.3223 15.9883V13.6174H35.9253C35.7796 13.624 35.634 13.6015 35.4973 13.5511C35.3607 13.5007 35.2358 13.4235 35.1303 13.3242C35.0248 13.2249 34.9408 13.1056 34.8834 12.9734C34.826 12.8412 34.7965 12.699 34.7965 12.5552C34.7965 12.4115 34.826 12.2692 34.8834 12.137C34.9408 12.0048 35.0248 11.8855 35.1303 11.7862C35.2358 11.6869 35.3607 11.6097 35.4973 11.5594C35.634 11.509 35.7796 11.4864 35.9253 11.493H38.3315V9.12435C38.3248 8.98074 38.3477 8.83727 38.3988 8.70263C38.4499 8.56799 38.5283 8.44496 38.629 8.34099C38.7298 8.23702 38.8509 8.15426 38.985 8.09772C39.1192 8.04117 39.2636 8.01202 39.4095 8.01202C39.5554 8.01202 39.6997 8.04117 39.8339 8.09772C39.968 8.15426 40.0891 8.23702 40.1899 8.34099C40.2907 8.44496 40.369 8.56799 40.4201 8.70263C40.4713 8.83727 40.4942 8.98074 40.4874 9.12435V11.4908H42.8913C43.0332 11.4908 43.1737 11.5183 43.3048 11.5719C43.4359 11.6255 43.5549 11.704 43.6552 11.803C43.7554 11.902 43.8348 12.0195 43.8889 12.1487C43.943 12.278 43.9707 12.4165 43.9704 12.5563Z" fill="white"/>
</svg>
