<svg width="17" height="23" viewBox="0 0 17 23" fill="none" xmlns="http://www.w3.org/2000/svg">
<path d="M16.1654 10.5813C15.3664 9.29223 14.4624 8.06871 13.4624 6.92264C11.9634 5.05179 11.1504 2.73997 11.1547 0.360168C11.1574 0.296691 11.1421 0.233726 11.1107 0.178165C11.0793 0.122603 11.033 0.0766089 10.9767 0.0452055C10.9204 0.0138021 10.8564 -0.00177403 10.7917 0.000160591C10.727 0.00209521 10.664 0.0214717 10.6098 0.0561788C8.89968 1.26572 7.58545 2.93769 6.8277 4.86795C6.02946 6.9276 5.89522 9.17812 6.4431 11.3151C6.45221 11.34 6.45305 11.3672 6.44551 11.3926C6.43797 11.4181 6.42243 11.4405 6.40111 11.4568C6.37979 11.4731 6.35383 11.4823 6.32683 11.4832C6.29984 11.4842 6.2732 11.4767 6.2508 11.4619C4.91076 10.6643 3.76269 9.59135 2.88545 8.31692C2.85652 8.27399 2.81815 8.23791 2.77322 8.21135C2.72829 8.18479 2.67792 8.16842 2.62572 8.16339C2.57352 8.15837 2.52083 8.16484 2.4715 8.18233C2.42217 8.19982 2.37743 8.22788 2.34056 8.26449C1.74609 8.89255 1.24275 9.59808 0.844805 10.3611C0.426608 11.2483 0.163001 12.1979 0.0649092 13.1706C-0.168616 15.1184 0.231518 17.0889 1.20808 18.8001C1.98651 20.1259 3.1197 21.2174 4.48501 21.9565C5.85033 22.6956 7.39574 23.0542 8.95383 22.9934C10.8019 22.8582 12.5507 22.1201 13.9218 20.8967C15.2939 19.686 16.2682 18.1024 16.7209 16.347C16.8926 15.6604 16.9857 14.9572 16.9987 14.2504C17.0219 12.9797 16.7363 11.722 16.1654 10.5813ZM11.3149 18.1921C11.2548 18.6162 11.1008 19.0222 10.8639 19.3817C10.6269 19.7413 10.3126 20.0456 9.94311 20.2734C9.57358 20.5011 9.15773 20.6467 8.72475 20.7001C8.29178 20.7535 7.85213 20.7132 7.43668 20.5822C6.99742 20.4457 6.5972 20.2093 6.2686 19.8923C5.94 19.5754 5.69235 19.1868 5.5457 18.7582C5.38377 18.298 5.34984 17.8038 5.44749 17.3265C5.54515 16.8492 5.77082 16.4062 6.10121 16.043C6.12372 16.022 6.15087 16.0064 6.1805 15.9973C6.21014 15.9882 6.24151 15.9859 6.27219 15.9906C6.68092 16.0913 7.09452 16.1717 7.51148 16.2317C7.43432 15.9657 7.39479 15.6906 7.39397 15.414C7.38338 15.2779 7.38338 15.1412 7.39397 15.0052C7.46 14.567 7.62842 14.1498 7.88604 13.786C8.14366 13.4223 8.48351 13.122 8.87903 12.9085C8.89983 12.8984 8.9226 12.8928 8.94581 12.8922C8.96901 12.8916 8.99209 12.8959 9.01343 12.9048C9.03477 12.9138 9.05385 12.9272 9.06938 12.9442C9.08491 12.9611 9.09649 12.9811 9.10335 13.0029C9.30789 13.709 9.60604 14.3857 9.99013 15.0157C10.1548 15.3168 10.3442 15.6043 10.5564 15.8753L10.7487 16.1164C11.0881 16.5963 11.2673 17.1677 11.2615 17.7518C11.2923 17.8967 11.3102 18.044 11.3149 18.1921Z" fill="#B8BBC4"/>
</svg>
