<svg width="23" height="20" viewBox="0 0 23 20" fill="none" xmlns="http://www.w3.org/2000/svg">
<path fill-rule="evenodd" clip-rule="evenodd" d="M18.7061 9.58366C18.7061 13.6107 15.0874 16.8753 10.6235 16.8753C6.15959 16.8753 2.54087 13.6107 2.54087 9.58366C2.54087 5.55658 6.15959 2.29199 10.6235 2.29199C15.0874 2.29199 18.7061 5.55658 18.7061 9.58366ZM10.6235 18.1253C15.8527 18.1253 20.0917 14.3011 20.0917 9.58366C20.0917 4.86623 15.8527 1.04199 10.6235 1.04199C5.39434 1.04199 1.15527 4.86623 1.15527 9.58366C1.15527 14.3011 5.39434 18.1253 10.6235 18.1253ZM18.9644 16.2254C18.6939 15.9813 18.2552 15.9813 17.9847 16.2254C17.7141 16.4695 17.7141 16.8652 17.9847 17.1093L19.8321 18.7759C20.1027 19.02 20.5413 19.02 20.8119 18.7759C21.0824 18.5318 21.0824 18.1361 20.8119 17.892L18.9644 16.2254Z" fill="#8E969B"/>
</svg>
