<svg width="32" height="32" viewBox="0 0 32 32" fill="none" xmlns="http://www.w3.org/2000/svg">
<path fill-rule="evenodd" clip-rule="evenodd" d="M24.1026 10.1555C24.6883 9.56973 24.6883 8.61998 24.1026 8.0342C23.5168 7.44841 22.567 7.44841 21.9812 8.0342L16.0684 13.9471L10.1555 8.0342C9.5697 7.44841 8.61995 7.44841 8.03416 8.0342C7.44838 8.61998 7.44838 9.56973 8.03416 10.1555L13.947 16.0684L8.03416 21.9813C7.44838 22.5671 7.44838 23.5168 8.03416 24.1026C8.61995 24.6884 9.5697 24.6884 10.1555 24.1026L16.0684 18.1897L21.9812 24.1026C22.567 24.6884 23.5168 24.6884 24.1026 24.1026C24.6883 23.5168 24.6883 22.5671 24.1026 21.9813L18.1897 16.0684L24.1026 10.1555Z" fill="#8E969B"/>
</svg>
