<svg width="36" height="36" viewBox="0 0 36 36" fill="none" xmlns="http://www.w3.org/2000/svg">
<g clip-path="url(#clip0_0_262)">
<path d="M36.0018 16.9425V19.0528C35.9802 19.1767 35.954 19.2997 35.938 19.4283C35.8517 20.0779 35.8019 20.7341 35.6799 21.3771C35.0338 24.8931 33.3316 28.1285 30.8002 30.652C28.1117 33.3687 24.8799 35.0772 21.1056 35.7296C20.4281 35.846 19.7412 35.9174 19.0589 36.0113H16.9522C16.8499 35.9906 16.7486 35.9662 16.6454 35.9502C15.6647 35.7982 14.6663 35.7165 13.7035 35.4809C4.46863 33.2673 -1.48179 23.984 0.325575 14.6407C1.0763 10.7562 2.89118 7.44332 5.81243 4.78385C9.97988 0.987561 14.9046 -0.527577 20.4853 0.183993C24.04 0.636469 27.1714 2.09528 29.8572 4.46844C33.0196 7.26308 34.9987 10.7411 35.7259 14.9111C35.8414 15.5719 35.908 16.2572 36.0018 16.9425ZM8.26822 6.13377L18.829 16.6984C18.829 16.2535 18.829 15.8029 18.829 15.3523C18.829 13.7423 19.5056 12.5173 20.8832 11.6743C20.9391 11.6338 20.9859 11.5819 21.0203 11.522C21.0548 11.4621 21.0762 11.3957 21.0831 11.3269C21.1031 10.6711 21.1031 10.0139 21.0831 9.35556C21.0756 9.05328 21.1769 8.93123 21.4838 8.93499C22.3978 8.94625 23.3118 8.94438 24.2249 8.93499C24.5064 8.93499 24.6246 9.02887 24.618 9.32645C24.6021 9.9939 24.6049 10.6632 24.618 11.3307C24.6225 11.3946 24.6405 11.4568 24.6708 11.5133C24.701 11.5697 24.7428 11.6191 24.7935 11.6583C26.233 12.5219 26.8834 13.7958 26.8749 15.4612C26.858 18.4849 26.8665 21.5095 26.8749 24.5332C26.8828 24.7346 26.9608 24.9269 27.0954 25.0767C27.91 25.9216 28.7451 26.7411 29.5738 27.5691C29.647 27.6414 29.7258 27.7071 29.8027 27.7766C34.4009 22.4135 34.9808 13.3612 28.9281 7.20394C23.0518 1.21568 13.9672 1.31987 8.26635 6.13001L8.26822 6.13377ZM26.0407 31.0603C25.7976 30.7073 25.5114 30.5149 25.0356 30.5224C23.126 30.5534 21.2163 30.5356 19.3114 30.5356C18.8422 30.5356 18.8365 30.5281 18.8365 30.0662C18.8365 28.1211 18.8309 26.1751 18.8365 24.2291C18.8461 24.0975 18.8257 23.9654 18.7769 23.8429C18.7282 23.7203 18.6523 23.6103 18.555 23.5212C17.8981 22.8979 17.2713 22.253 16.6369 21.6109C16.4915 21.4644 16.3685 21.2955 16.2268 21.1265C16.1718 21.1864 16.1198 21.2491 16.0711 21.3142C15.432 22.2746 14.5884 22.9655 13.4642 23.2753C13.2352 23.3382 13.2596 23.4893 13.2596 23.6508C13.2596 25.3505 13.2596 27.0503 13.2596 28.7501C13.2596 28.8618 13.2746 28.9735 13.2821 29.0861C13.5862 29.1171 13.8555 29.1321 14.121 29.1744C14.4225 29.2087 14.7197 29.2738 15.0078 29.3687C15.1664 29.4297 15.2762 29.6175 15.4085 29.7442C15.2899 29.8737 15.1588 29.9913 15.0172 30.0953C14.8815 30.1643 14.7342 30.2076 14.5827 30.223C13.1455 30.4487 11.6818 30.4487 10.2445 30.223C10.0699 30.2033 9.90036 30.1517 9.74433 30.0709C9.61765 29.9977 9.45437 29.8484 9.45437 29.7329C9.45437 29.6175 9.62047 29.471 9.74715 29.3987C9.90475 29.3212 10.0746 29.2716 10.2492 29.2523C10.6837 29.1828 11.121 29.1284 11.547 29.0692C11.5607 29.0425 11.5708 29.0141 11.577 28.9848C11.577 27.1683 11.5874 25.3518 11.577 23.54C11.577 23.4518 11.4325 23.3166 11.3302 23.2865C10.5617 23.0611 9.86745 22.6343 9.31924 22.0502C7.58789 20.2319 7.26695 17.1809 8.5901 15.0359C8.6778 14.9237 8.80634 14.8508 8.94763 14.8331C9.19995 14.8147 9.45316 14.8116 9.70587 14.8238L4.91437 10.0296C1.75945 14.7843 1.34187 22.9768 7.08678 28.8045C12.7454 34.5374 20.9611 34.3872 26.0388 31.0566L26.0407 31.0603ZM14.8737 19.8986C14.8324 19.9925 14.8005 20.0704 14.7676 20.1455C14.3294 21.1237 13.6162 21.7414 12.5154 21.7714C11.4945 21.8033 10.6809 21.3818 10.1929 20.4769C9.91888 19.97 9.73308 19.4095 9.55478 18.8575C9.42716 18.4614 9.49566 18.4032 9.90481 18.4023C10.9474 18.4023 11.9899 18.4023 13.0325 18.4023C13.1263 18.4023 13.2286 18.3882 13.3384 18.3797C13.3283 18.3468 13.3141 18.3153 13.2962 18.2859C12.8345 17.8165 12.3212 17.394 11.9214 16.8777C11.3293 16.1173 10.6077 15.8254 9.66927 15.9681C9.47126 15.9981 9.3596 16.0385 9.28546 16.2337C8.74963 17.6419 8.82752 19.0134 9.50505 20.3473C10.7034 22.7083 13.5336 22.9082 15.0416 20.7463C15.3654 20.2844 15.3654 20.2844 14.8755 19.8949L14.8737 19.8986ZM25.8079 23.7249C25.8136 23.6067 25.823 23.5043 25.823 23.403C25.823 22.197 25.823 20.9904 25.823 19.7832C25.823 19.2415 25.7516 19.1673 25.2186 19.1673C24.0018 19.1673 22.7844 19.1673 21.5664 19.1673C21.4725 19.1673 21.3712 19.1842 21.2848 19.1927L25.8079 23.7249Z" fill="white"/>
<path d="M22.8906 5.193C23.3598 5.193 23.829 5.20051 24.2982 5.193C24.5403 5.18737 24.6323 5.28688 24.6295 5.52532C24.622 6.25098 24.6201 6.97663 24.6295 7.70134C24.6295 7.95011 24.5262 8.02709 24.2926 8.02521C23.3454 8.01832 22.3983 8.01832 21.4511 8.02521C21.2127 8.02521 21.1105 7.93133 21.1123 7.69571C21.1173 6.96974 21.1173 6.2444 21.1123 5.51969C21.1123 5.27937 21.2203 5.18737 21.4567 5.19206C21.9316 5.19957 22.4111 5.193 22.8906 5.193Z" fill="white"/>
</g>
<defs>
<clipPath id="clip0_0_262">
<rect width="36" height="36" fill="white"/>
</clipPath>
</defs>
</svg>
