<svg width="34" height="36" viewBox="0 0 34 36" fill="none" xmlns="http://www.w3.org/2000/svg">
<g clip-path="url(#clip0_0_577)">
<path d="M19.483 36.0012C19.0875 35.1988 19.1377 34.4879 19.6327 33.8285C19.9704 33.379 20.3413 32.9563 20.7016 32.5217C21.3701 31.7334 21.846 30.7985 22.0912 29.792C22.3256 28.7839 22.8049 27.85 23.4861 27.074C23.9447 26.5427 24.1371 25.9081 23.8891 25.2456C23.7429 24.8607 23.5072 24.5166 23.2018 24.2421C22.2098 23.3677 21.1708 22.5438 20.1554 21.6995C20.0485 21.6145 19.9533 21.5274 19.8251 21.4177L24.7047 15.4473C25.2658 15.9087 25.8099 16.355 26.3529 16.8035C27.8864 18.0727 29.4186 19.3429 30.9492 20.6142C31.4687 21.0445 31.4923 21.3327 31.0561 21.864L19.7599 35.6936C19.6861 35.7861 19.6038 35.8667 19.483 36.0012ZM25.7329 20.0152C25.4821 20.0177 25.2376 20.095 25.0303 20.2372C24.823 20.3794 24.6623 20.5803 24.5683 20.8143C24.4744 21.0484 24.4514 21.3052 24.5024 21.5524C24.5534 21.7996 24.6759 22.026 24.8547 22.2032C25.0334 22.3803 25.2603 22.5002 25.5067 22.5478C25.7531 22.5953 26.0079 22.5683 26.2391 22.4703C26.4703 22.3722 26.6674 22.2074 26.8056 21.9967C26.9438 21.7861 27.0169 21.5389 27.0156 21.2865C27.0076 20.9484 26.8693 20.6267 26.63 20.3893C26.3907 20.1519 26.069 20.0173 25.7329 20.0141V20.0152Z" fill="white"/>
<path d="M18.8354 20.5965L3.71558 8.0845C6.40069 6.95301 8.03398 5.00087 8.57699 2.10547L11.8415 4.80297L10.4241 6.54322C9.98369 7.081 9.54008 7.61878 9.10397 8.15656C8.73198 8.62012 8.75871 8.91913 9.20337 9.28805C12.4251 11.9554 15.6471 14.6217 18.8696 17.287C19.2886 17.6333 19.6178 17.6 19.9695 17.1794C20.8032 16.1684 21.6341 15.1545 22.4622 14.1377C22.5456 14.0302 22.6321 13.9377 22.7348 13.8151L23.7128 14.625C22.0891 16.6126 20.4772 18.5852 18.8354 20.5965Z" fill="white"/>
<path d="M12.8399 5.62695L21.7397 12.9913L19.3015 15.976L10.4006 8.6127L12.8399 5.62695Z" fill="white"/>
<path d="M19.0074 22.4141L21.4284 24.4146L20.9367 24.5286C19.3339 24.874 17.8989 25.7661 16.8749 27.054C16.1758 27.9145 15.4692 28.7749 14.7691 29.6354C14.3127 30.1957 13.7333 30.4592 13.0129 30.3883C12.9333 30.3804 12.8544 30.3671 12.7767 30.3485C12.715 30.324 12.6554 30.2949 12.5981 30.2613L19.0074 22.4141Z" fill="white"/>
<path d="M29.7821 25.4713C30.0568 25.1346 30.3165 24.8162 30.5891 24.4785C31.4849 25.2314 32.3838 25.9273 33.2176 26.6974C33.9017 27.3298 34.1465 28.1698 33.9156 29.0884C33.5949 30.3672 32.1444 32.0311 30.3614 31.4965C30.0221 31.3823 29.7018 31.2173 29.4112 31.0072C29.2809 30.9103 29.1938 30.7656 29.1688 30.6045C29.1437 30.4435 29.1828 30.279 29.2776 30.1467C29.4668 29.8703 29.8441 29.7563 30.1252 29.9725C31.2893 30.8663 32.2513 29.8326 32.6361 28.8969C32.8584 28.3505 32.6361 27.8676 32.2032 27.4987C31.518 26.9222 30.8232 26.3575 30.1327 25.7864C30.0226 25.6885 29.9168 25.5906 29.7821 25.4713Z" fill="white"/>
<path d="M4.27775 1.25984C4.87634 0.845753 5.45356 0.526313 6.14728 0.506952C6.80253 0.48329 7.24933 0.844681 7.24505 1.50507C7.24505 2.05683 7.17985 2.64409 6.97889 3.1496C6.32793 4.7952 5.21091 6.03317 3.55837 6.73444C3.40096 6.80486 3.23486 6.8537 3.06453 6.87963C2.09289 7.00763 1.56806 6.53976 1.64395 5.5567C1.6835 5.04796 1.83742 4.54783 1.94004 4.04446L2.09182 3.99606C2.4125 4.33379 2.73317 4.66076 3.03995 5.01031C3.30932 5.32115 3.62999 5.38354 4.01373 5.30932C5.2868 5.06302 6.03825 4.09501 5.89822 2.79897C5.85028 2.53201 5.71207 2.28995 5.507 2.11384C5.14357 1.79762 4.72456 1.561 4.27775 1.25984Z" fill="white"/>
<path d="M0.0555578 0C0.162449 0.0634579 0.277892 0.121536 0.382645 0.192523C1.71024 1.08308 3.04103 1.97042 4.359 2.87496C4.48513 2.96101 4.64333 3.21054 4.60271 3.29013C4.47342 3.53968 4.29396 3.75944 4.07574 3.93546C4.01374 3.98601 3.75507 3.88169 3.64817 3.78058C2.48413 2.62221 1.33398 1.45093 0.180619 0.281796C0.115415 0.217262 0.0566259 0.145197 -0.00537109 0.077437L0.0555578 0Z" fill="white"/>
</g>
<defs>
<clipPath id="clip0_0_577">
<rect width="34" height="36" fill="white"/>
</clipPath>
</defs>
</svg>
