<svg width="40" height="46" viewBox="0 0 40 46" fill="none" xmlns="http://www.w3.org/2000/svg">
<path d="M1.70813 34.2662V44.29H37.5833V42.8802L31.6423 39.3742L30.498 35.9322L26.4243 34.6415L25.5914 29.7807L20.4376 27.6752L18.1033 26.7232L18.2406 25.1212L18.6068 20.8096L14.9543 19.8759L13.398 12.3603L7.75901 10.383L6.51406 6.94104L1.70813 5.89746V32.234" stroke="#A9612D" stroke-width="1.7" stroke-linecap="round" stroke-linejoin="round"/>
<path d="M35.7066 27.1719L34.0406 27.4831L32.0084 28.7372L32.4295 31.9137L34.3518 32.9115L37.3269 31.5476L38.6817 29.259L37.9495 27.1719H35.7066Z" stroke="#A9612D" stroke-width="1.7" stroke-linecap="round" stroke-linejoin="round"/>
<path d="M29.7656 21.3867C29.7656 21.5972 29.1889 25.4511 29.1889 25.4511L24.2365 25.7166L22.4698 23.547L21.9938 21.0754L25.1245 18.9883L29.7656 21.3867Z" stroke="#A9612D" stroke-width="1.7" stroke-linecap="round" stroke-linejoin="round"/>
<path d="M16.1077 11.2706C16.1077 11.4262 15.2747 13.4584 15.2747 13.4584L17.673 17.056H19.9616L22.2593 13.9253L21.9938 9.9707L16.1077 11.2706Z" stroke="#A9612D" stroke-width="1.7" stroke-linecap="round" stroke-linejoin="round"/>
<path d="M27.5229 10.2274L27.1567 14.1911L29.1432 15.491L30.9649 13.9806L32.0085 11.1703L30.8642 9.96191L27.5229 10.2274Z" stroke="#A9612D" stroke-width="1.7" stroke-linecap="round" stroke-linejoin="round"/>
<path d="M22.781 1.4668L20.6938 2.82161L19.0828 4.85383L20.1904 6.41919L22.781 6.73044L24.4471 5.22V3.13285L22.781 1.4668Z" stroke="#A9612D" stroke-width="1.7" stroke-linecap="round" stroke-linejoin="round"/>
<path d="M12.089 1C12.089 1 11.1003 1 10.9447 1.46686C10.7891 1.93372 9.95605 3.81033 9.90112 4.10326C10.0518 4.88942 10.2598 5.66349 10.5235 6.41926C10.6792 7.0509 12.089 8.08532 12.089 8.08532H14.8352L16.4006 5.89747V3.55401L15.3111 1.46686H14.3957L12.089 1Z" stroke="#A9612D" stroke-width="1.7" stroke-linecap="round" stroke-linejoin="round"/>
<path d="M3.24609 8.09473L5.25996 9.96217L4.98541 14.0358L7.75903 15.4913" stroke="#A9612D" stroke-width="1.7" stroke-linecap="round" stroke-linejoin="round"/>
<path d="M9.43433 15.2168L11.2377 20.7734" stroke="#A9612D" stroke-width="1.7" stroke-linecap="round" stroke-linejoin="round"/>
<path d="M16.3639 28.4902L23.8245 31.0625L24.4471 35.0995L26.3969 37.1134" stroke="#A9612D" stroke-width="1.7" stroke-linecap="round" stroke-linejoin="round"/>
<path d="M7.20984 22.3477L7.75907 27.1719L10.3406 28.9112" stroke="#A9612D" stroke-width="1.7" stroke-linecap="round" stroke-linejoin="round"/>
</svg>
