<svg width="29" height="28" viewBox="0 0 29 28" fill="none" xmlns="http://www.w3.org/2000/svg">
<g clip-path="url(#clip0_1001_30895)">
<path d="M26.9453 20.1844L22.8457 17.5234V9.41434L26.9453 6.75337C27.0369 6.69688 27.1392 6.66242 27.245 6.65247C27.3661 6.65008 27.4858 6.68048 27.5926 6.74075C27.6997 6.80505 27.7903 6.89598 27.8563 7.00559C27.9188 7.12089 27.9518 7.25123 27.9522 7.38393V19.5538C27.9559 19.6831 27.9225 19.8105 27.8563 19.9195C27.7983 20.0347 27.7112 20.1307 27.6046 20.197C27.4949 20.2603 27.3694 20.2867 27.245 20.2727C27.1228 20.2706 27.0032 20.2359 26.8973 20.1718L26.9453 20.1844Z" fill="#2C3E4F"/>
<path d="M21.6109 6.65208V20.3479C21.6103 20.5415 21.5778 20.7335 21.515 20.9154V21.0668C21.4729 21.1611 21.4206 21.2499 21.3592 21.3316C21.2134 21.5385 21.0237 21.7067 20.8051 21.8228C20.5866 21.9388 20.3453 21.9995 20.1005 22H3.57031C3.15384 22 2.75442 21.8259 2.45993 21.5161C2.16544 21.2063 2 20.7861 2 20.3479V6.65208C2 6.21392 2.16544 5.79371 2.45993 5.48388C2.75442 5.17406 3.15384 5 3.57031 5H20.0526C20.4658 5.00087 20.862 5.17305 21.1554 5.47923C21.2296 5.5574 21.2978 5.64175 21.3592 5.73145C21.5276 6.00544 21.6152 6.32578 21.6109 6.65208Z" fill="#2C3E4F"/>
</g>
<defs>
<clipPath id="clip0_1001_30895">
<rect width="26" height="17" fill="white" transform="translate(2 5)"/>
</clipPath>
</defs>
</svg>
