<svg width="36" height="35" viewBox="0 0 36 35" fill="none" xmlns="http://www.w3.org/2000/svg">
<g clip-path="url(#clip0_0_23)">
<path d="M32.0287 13.7642L28.5506 11.3987L27.9244 7.26698C27.8887 7.03312 27.7676 6.82082 27.5838 6.66989C27.4001 6.51896 27.1663 6.43977 26.9263 6.44716L22.6817 6.5624L19.7104 3.60324C19.5429 3.43562 19.3187 3.33452 19.0797 3.31888C18.8408 3.30325 18.6036 3.37415 18.4126 3.51831L15.0312 6.06785L10.8506 5.41025C10.6148 5.3722 10.3723 5.42031 10.1685 5.54558C9.96467 5.67085 9.81353 5.8647 9.74331 6.09087L8.51051 10.1032L4.71542 11.997C4.5009 12.1042 4.33273 12.2846 4.24235 12.5043C4.15197 12.724 4.14558 12.9681 4.22438 13.1908L5.62292 17.1376L3.66339 20.8615C3.55306 21.072 3.52382 21.3143 3.58113 21.5431C3.63844 21.772 3.77837 21.9718 3.97483 22.1053L7.45292 24.4708L8.07914 28.6025C8.11448 28.8366 8.23545 29.0491 8.41928 29.2001C8.60311 29.3511 8.83711 29.4301 9.0772 29.4223L13.3218 29.3071L16.2776 32.2666C16.4458 32.4331 16.6699 32.5333 16.9085 32.5486C17.1471 32.5639 17.3839 32.4932 17.5749 32.3497L20.9564 29.8002L25.1393 30.4591C25.375 30.4963 25.6172 30.4479 25.8208 30.3227C26.0244 30.1976 26.1757 30.0042 26.2466 29.7785L27.4776 25.7667L31.2745 23.8724C31.4881 23.7647 31.6556 23.5846 31.7459 23.3654C31.8363 23.1463 31.8434 22.9029 31.766 22.6803L30.3766 18.7387L32.3361 15.0148C32.4488 14.804 32.4797 14.5605 32.4231 14.3302C32.3665 14.0998 32.2262 13.8985 32.0287 13.7642ZM14.68 21.4065L13.9207 21.6109L13.9072 21.626L10.9397 18.7672L11.8543 22.1652L11.0877 22.3715L9.78906 17.5466L10.5484 17.3422L10.5536 17.3618L10.5778 17.3362L13.5269 20.177L12.6143 16.7861L13.3736 16.5818L14.68 21.4065ZM18.2413 16.0807L15.4142 16.8417L15.7609 18.1295L18.5879 17.3686L18.7895 18.1177L15.9625 18.8787L16.3091 20.1665L19.1362 19.4056L19.3373 20.1529L15.751 21.1182L14.4518 16.2915L18.0382 15.3262L18.2413 16.0807ZM25.3057 18.1524L25.2773 18.5599L24.7137 18.7116L24.4847 18.3734L22.4743 15.4024L22.2249 18.9817L22.1984 19.3886L21.633 19.5408L21.4058 19.2021L18.6688 15.1565L19.4879 14.936L21.4886 17.8924L21.7314 14.3322L22.5614 14.1088L24.5621 17.0652L24.8104 13.5034L25.6277 13.2835L25.3057 18.1524Z" fill="white"/>
</g>
<defs>
<clipPath id="clip0_0_23">
<rect width="29.1488" height="27.5294" fill="white" transform="translate(0 7.72592) scale(1.01977) rotate(-15.0647)"/>
</clipPath>
</defs>
</svg>
