<svg width="24" height="30" viewBox="0 0 24 30" fill="none" xmlns="http://www.w3.org/2000/svg">
<g clip-path="url(#clip0_0_252)">
<path d="M4.49912 19.5179C2.96002 19.4448 1.74919 18.8337 0.85912 17.6247C0.303136 16.8752 0.00471572 15.9661 0.00844113 15.0331C-0.00281371 13.053 -0.00281371 11.0732 0.00844113 9.09366C0.00844113 8.1339 0.63684 7.50031 1.59538 7.50031C8.53586 7.49469 15.4763 7.49469 22.4168 7.50031C23.3547 7.50031 23.9869 8.12828 23.9925 9.06742C24.0038 11.0582 24.0206 13.0508 23.9925 15.0416C23.9531 17.4681 22.1364 19.337 19.7157 19.4992C19.6594 19.4992 19.6031 19.5095 19.5056 19.5179V19.9406C19.5056 21.7683 19.514 23.596 19.5056 25.4227C19.4802 27.7256 17.9599 29.5364 15.7089 29.9413C15.4316 29.9838 15.151 30.002 14.8705 29.9956C12.964 30.0006 11.0569 30.0006 9.14925 29.9956C6.44715 29.9956 4.50663 28.048 4.50194 25.3421C4.50194 23.5379 4.50194 21.7336 4.50194 19.9303L4.49912 19.5179ZM10.5092 20.2228C10.5092 20.5152 10.497 20.8076 10.5092 21.0991C10.5291 21.4794 10.6944 21.8376 10.9711 22.0995C11.2477 22.3614 11.6145 22.5071 11.9956 22.5064C12.3767 22.5057 12.743 22.3586 13.0187 22.0956C13.2943 21.8327 13.4583 21.4739 13.4767 21.0935C13.4983 20.5311 13.4983 19.9688 13.4767 19.4111C13.4554 19.0321 13.2897 18.6757 13.0137 18.4149C12.7377 18.1542 12.3723 18.0089 11.9925 18.0089C11.6127 18.0089 11.2473 18.1542 10.9713 18.4149C10.6953 18.6757 10.5296 19.0321 10.5083 19.4111C10.4979 19.6838 10.5092 19.9538 10.5092 20.2228Z" fill="white"/>
<path d="M19.453 4.4807C19.5308 4.23888 19.5806 3.98395 19.6903 3.75807C20.1536 2.80206 20.6282 1.85354 21.1131 0.905967C21.5276 0.0896083 22.3727 -0.218752 23.1418 0.156154C23.9109 0.53106 24.195 1.40647 23.7983 2.21814C23.3125 3.21445 22.8201 4.20889 22.3089 5.19302C22.1591 5.49445 21.9098 5.73493 21.603 5.87378C21.2962 6.01263 20.9509 6.04133 20.6254 5.95502C19.9407 5.776 19.4933 5.19864 19.453 4.4807Z" fill="white"/>
<path d="M1.64042 0.0117188C1.8831 0.0196577 2.119 0.0936983 2.32265 0.225844C2.52629 0.35799 2.68994 0.54322 2.79592 0.761531C3.33709 1.79815 3.86513 2.8432 4.36503 3.90043C4.52153 4.2506 4.53673 4.64763 4.40746 5.00873C4.2782 5.36983 4.01444 5.66712 3.67118 5.83863C3.32793 6.01014 2.93167 6.04263 2.56504 5.92931C2.1984 5.816 1.88969 5.56563 1.70326 5.23041C1.1574 4.19942 0.625609 3.1525 0.137899 2.08964C-0.310418 1.10738 0.426775 0.0117188 1.64042 0.0117188Z" fill="white"/>
<path d="M13.488 2.98106C13.488 3.48437 13.4974 3.98768 13.488 4.49099C13.4692 5.36546 12.8164 6.01405 11.9789 6.00374C11.1573 5.99437 10.5195 5.34765 10.5101 4.48631C10.4983 3.49155 10.4983 2.4968 10.5101 1.50205C10.5214 0.639767 11.1667 0.0127357 11.9995 0.0136729C12.8324 0.0146102 13.4664 0.640704 13.487 1.50674C13.4974 1.99787 13.488 2.48993 13.488 2.98106Z" fill="white"/>
</g>
<defs>
<clipPath id="clip0_0_252">
<rect width="24" height="30" fill="white"/>
</clipPath>
</defs>
</svg>
