<svg width="26" height="35" viewBox="0 0 26 35" fill="none" xmlns="http://www.w3.org/2000/svg">
<g clip-path="url(#clip0_0_425)">
<path d="M25.9852 25.944C17.357 24.8358 8.62651 24.8429 0 25.9651C0.0502444 25.0256 0.0640358 24.1364 0.152702 23.2552C0.305527 21.8567 0.664243 20.4899 1.2167 19.201C2.12011 17.0319 2.99003 14.8456 3.85305 12.6604C3.95157 12.4116 4.0629 12.3583 4.31313 12.3915C8.71986 13.0199 13.1443 13.2334 17.5836 12.8769C18.9628 12.7651 20.3421 12.5587 21.7213 12.3784C21.9706 12.3462 22.0839 12.3955 22.1834 12.6463C23.1735 15.1316 24.2168 17.5968 25.1675 20.0982C25.867 21.9552 26.064 23.9138 25.9852 25.944Z" fill="white"/>
<path d="M25.9439 27.1572C25.67 28.2146 25.473 29.2296 25.14 30.2034C24.8297 31.1025 24.4468 31.9735 23.9952 32.8076C23.2396 34.2174 22.0248 34.9747 20.4485 34.9818C15.4963 35.0059 10.5441 35.0059 5.59195 34.9818C4.0797 34.9757 2.88762 34.2768 2.10932 32.9466C1.10148 31.2276 0.490669 29.3525 0.191173 27.3727C0.186601 27.3013 0.186601 27.2296 0.191173 27.1582C8.74103 26.0479 17.394 26.0475 25.9439 27.1572ZM15.3788 29.8762C15.3811 29.3982 15.2448 28.9304 14.987 28.5316C14.7292 28.1329 14.3616 27.8213 13.9305 27.6361C13.4995 27.4509 13.0244 27.4005 12.5654 27.4912C12.1063 27.582 11.6839 27.8098 11.3515 28.1459C11.0191 28.482 10.7917 28.9113 10.6979 29.3795C10.6042 29.8477 10.6484 30.3339 10.8248 30.7764C11.0013 31.219 11.3022 31.5981 11.6895 31.8659C12.0768 32.1337 12.533 32.2781 13.0005 32.2809C13.3115 32.2828 13.6198 32.2219 13.9078 32.1018C14.1957 31.9817 14.4577 31.8046 14.6786 31.5809C14.8995 31.3571 15.0751 31.091 15.1952 30.7978C15.3154 30.5046 15.3777 30.19 15.3788 29.8721V29.8762Z" fill="white"/>
<path d="M21.5884 11.1861C15.9175 12.055 10.1517 12.0584 4.47974 11.1961C4.49695 11.1196 4.518 11.0439 4.54279 10.9696C5.04031 9.7279 5.53389 8.48423 6.03928 7.24358C6.36637 6.43796 6.9624 6.03516 7.81262 6.03516C11.2936 6.03516 14.771 6.03516 18.2447 6.03516C19.0171 6.03516 19.6151 6.37452 19.9245 7.09958C20.4969 8.43388 21.022 9.78631 21.5884 11.1861Z" fill="white"/>
<path d="M8.54051 2.93843C8.52278 2.91628 8.46071 2.83773 8.39667 2.76623C7.88536 2.16202 7.88733 1.45711 8.38879 0.852894C8.47969 0.740158 8.54918 0.61106 8.59371 0.472241C8.70208 0.14798 8.95921 -0.0433536 9.25772 0.00498339C9.3345 0.0149851 9.40851 0.040773 9.47527 0.0807934C9.54204 0.120814 9.60019 0.174238 9.64622 0.237846C9.69225 0.301454 9.7252 0.373929 9.74309 0.450904C9.76098 0.527878 9.76343 0.607757 9.75031 0.685729C9.6912 0.970715 9.54441 1.23858 9.41733 1.50444C9.34864 1.61224 9.26724 1.711 9.17497 1.79849C9.24787 1.89113 9.30501 1.96968 9.372 2.04319C9.89809 2.6474 9.89711 3.36138 9.37693 3.97969C9.29312 4.08256 9.22925 4.20081 9.18876 4.32812C9.07842 4.67353 8.80848 4.87191 8.49913 4.81149C8.42056 4.79771 8.34562 4.76749 8.279 4.72274C8.21238 4.67799 8.15551 4.61967 8.11196 4.55142C8.0684 4.48317 8.0391 4.40647 8.02587 4.32612C8.01265 4.24576 8.01579 4.16348 8.03511 4.08442C8.14151 3.71182 8.34544 3.36843 8.54051 2.93843Z" fill="white"/>
<path d="M13.2932 1.81564C13.4036 1.94051 13.4903 2.02812 13.5661 2.1258C13.8961 2.55278 14.0075 3.03212 13.7829 3.53563C13.6135 3.90383 13.4158 4.25773 13.1917 4.59401C13.1245 4.70222 13.0209 4.7816 12.9004 4.81721C12.78 4.85281 12.6509 4.8422 12.5376 4.78735C12.2489 4.67255 12.0814 4.42382 12.1612 4.1348C12.2667 3.74912 12.4637 3.39062 12.6213 3.02003L12.7356 3.02507C12.6528 2.92437 12.5701 2.82366 12.4863 2.72296C12.0282 2.16608 12.0351 1.45814 12.4863 0.898241C12.589 0.764583 12.6708 0.615447 12.7287 0.456158C12.8479 0.154052 13.0518 -0.0161336 13.377 0.0160911C13.6725 0.0463017 13.9365 0.330281 13.8804 0.647493C13.8282 0.949599 13.6833 1.22754 13.5543 1.50648C13.506 1.61121 13.3996 1.69177 13.2932 1.81564Z" fill="white"/>
<path d="M16.8714 3.02005C16.7561 2.8831 16.6625 2.7834 16.5758 2.67464C16.2596 2.25371 16.161 1.78544 16.3788 1.29704C16.5478 0.929286 16.7454 0.576025 16.9699 0.240675C17.0372 0.132627 17.1408 0.0533883 17.2613 0.0177975C17.3817 -0.0177933 17.5107 -0.00729437 17.624 0.0473277C17.9127 0.162128 18.0802 0.410862 18.0014 0.699877C17.895 1.08557 17.6969 1.44507 17.5393 1.81465L17.4309 1.80458C17.497 1.88816 17.558 1.97577 17.628 2.05633C18.1413 2.65249 18.1442 3.36546 17.6477 3.96967C17.5538 4.09475 17.4803 4.23451 17.43 4.38356C17.3117 4.6907 17.1058 4.85484 16.7807 4.82262C16.4802 4.79241 16.2231 4.50742 16.2793 4.1892C16.3325 3.8871 16.4763 3.61017 16.6073 3.33122C16.6645 3.22045 16.7689 3.13989 16.8714 3.02005Z" fill="white"/>
<path d="M11.8379 29.8644C11.8379 29.6243 11.9079 29.3897 12.039 29.1905C12.17 28.9913 12.3561 28.8364 12.5736 28.7458C12.791 28.6551 13.03 28.6327 13.26 28.6814C13.4899 28.7301 13.7005 28.8477 13.8648 29.0192C14.0291 29.1908 14.1397 29.4084 14.1825 29.6445C14.2253 29.8805 14.1984 30.1242 14.1051 30.3446C14.0118 30.5649 13.8565 30.7518 13.6589 30.8815C13.4612 31.0112 13.2303 31.0778 12.9955 31.0728C12.6862 31.0663 12.3918 30.936 12.1754 30.7101C11.959 30.4842 11.8378 30.1806 11.8379 29.8644Z" fill="white"/>
</g>
<defs>
<clipPath id="clip0_0_425">
<rect width="26" height="35" fill="white"/>
</clipPath>
</defs>
</svg>
