<svg width="29" height="28" viewBox="0 0 29 28" fill="none" xmlns="http://www.w3.org/2000/svg">
<g clip-path="url(#clip0_999_30665)">
<path d="M22.6624 6.16617V19.5255C22.6599 19.8711 22.5516 20.207 22.3532 20.485L8.64453 4.55469H21.1167C21.5277 4.55793 21.9209 4.72915 22.2104 5.03101C22.4999 5.33287 22.6624 5.7409 22.6624 6.16617Z" fill="#2C3E4F"/>
<path d="M27.9539 19.3655L23.8877 16.7699V8.86015L27.9539 6.26455C28.0448 6.20945 28.1463 6.17585 28.2512 6.16614C28.3713 6.16381 28.4901 6.19346 28.596 6.25225C28.7022 6.31497 28.7921 6.40366 28.8575 6.51058C28.9195 6.62305 28.9523 6.75018 28.9527 6.87962V18.7505C28.9563 18.8766 28.9232 19.0009 28.8575 19.1072C28.8 19.2195 28.7136 19.3132 28.6079 19.3778C28.4991 19.4396 28.3746 19.4654 28.2512 19.4516C28.13 19.4497 28.0114 19.4158 27.9064 19.3532L27.9539 19.3655Z" fill="#2C3E4F"/>
<path d="M19.9287 21.137H4.76945C4.35637 21.137 3.9602 20.9672 3.66811 20.665C3.37601 20.3628 3.21191 19.9529 3.21191 19.5255V6.16617C3.21191 5.73878 3.37601 5.32889 3.66811 5.02668C3.9602 4.72447 4.35637 4.55469 4.76945 4.55469H5.66117L19.9287 21.137Z" fill="#2C3E4F"/>
<path d="M2 2L22 25" stroke="#2C3E4F" stroke-width="2.5" stroke-miterlimit="10" stroke-linecap="round"/>
</g>
<defs>
<clipPath id="clip0_999_30665">
<rect width="29" height="28" fill="white"/>
</clipPath>
</defs>
</svg>
