<svg width="13" height="13" viewBox="0 0 13 13" fill="none" xmlns="http://www.w3.org/2000/svg">
<path d="M2.0899 3.19923H7.71297C8.29634 3.17527 8.87853 3.2695 9.42458 3.47624C9.97062 3.68297 10.4692 3.99794 10.8905 4.40224C11.3117 4.80654 11.6469 5.29181 11.8758 5.82892C12.1048 6.36602 12.2228 6.94386 12.2228 7.52773C12.2228 8.1116 12.1048 8.68944 11.8758 9.22654C11.6469 9.76365 11.3117 10.2489 10.8905 10.6532C10.4692 11.0575 9.97062 11.3725 9.42458 11.5792C8.87853 11.786 8.29634 11.8802 7.71297 11.8562H0.777139" stroke="#2C3E4F" stroke-width="1.5" stroke-linecap="round" stroke-linejoin="round"/>
<path d="M4.5039 0.777139L1.64497 3.26412L4.48202 5.73651" stroke="#2C3E4F" stroke-width="1.5" stroke-linecap="round" stroke-linejoin="round"/>
</svg>
