<svg width="29" height="22" viewBox="0 0 29 22" fill="none" xmlns="http://www.w3.org/2000/svg">
<g clip-path="url(#clip0_0_476)">
<path d="M4.29249 15.9412H24.3546C24.4305 15.9412 24.5058 15.9561 24.5759 15.9852C24.6461 16.0143 24.7099 16.0569 24.7636 16.1106C24.8173 16.1643 24.8599 16.2281 24.889 16.2982C24.918 16.3684 24.933 16.4436 24.933 16.5196V19.6755C24.933 20.2919 24.6882 20.8829 24.2524 21.3187C23.8166 21.7545 23.2255 21.9994 22.6092 21.9994H6.02775C5.41143 21.9994 4.82036 21.7545 4.38455 21.3187C3.94875 20.8829 3.70392 20.2919 3.70392 19.6755V16.5297C3.70254 16.4521 3.71683 16.3749 3.74592 16.3029C3.77501 16.2309 3.81831 16.1654 3.87324 16.1105C3.92817 16.0556 3.99361 16.0123 4.06564 15.9832C4.13767 15.9541 4.21482 15.9398 4.29249 15.9412Z" fill="#B8BBC4"/>
<path d="M28.5457 9.7211L26.6784 5.94613C26.5454 5.66978 26.3363 5.43708 26.0757 5.27532C25.8151 5.11357 25.5137 5.02944 25.207 5.03281C23.3499 5.03363 21.5112 4.66453 19.7983 3.94702C18.0855 3.24102 16.5273 2.20683 15.2115 0.9027C14.7239 0.415104 13.9334 0.415104 13.4458 0.9027C10.7977 3.55303 7.20693 5.04552 3.46039 5.05312C3.15393 5.05097 2.85316 5.1356 2.59278 5.29722C2.33239 5.45884 2.12308 5.69084 1.98901 5.96642L0.131959 9.74138C0.0143692 9.98249 -0.0262899 10.2539 0.0154554 10.5189C0.0572007 10.7839 0.179315 11.0297 0.365337 11.2229L2.39489 13.3134C2.52836 13.4461 2.68671 13.5511 2.86084 13.6225C3.03497 13.6939 3.22146 13.7302 3.40966 13.7294H25.2882C25.6679 13.7288 26.0322 13.5795 26.303 13.3134L28.3325 11.2229C28.5183 11.025 28.6384 10.7745 28.6765 10.5057C28.7147 10.2369 28.669 9.96294 28.5457 9.7211ZM14.3388 11.0809C12.8471 11.0809 11.6395 8.90926 11.6395 7.54946C11.6169 7.18174 11.6699 6.81329 11.7951 6.4668C11.9202 6.12032 12.115 5.80312 12.3674 5.53475C12.6198 5.26638 12.9245 5.05252 13.2627 4.90633C13.6008 4.76015 13.9653 4.68472 14.3337 4.68472C14.7021 4.68472 15.0666 4.76015 15.4048 4.90633C15.743 5.05252 16.0476 5.26638 16.3 5.53475C16.5524 5.80312 16.7472 6.12032 16.8724 6.4668C16.9976 6.81329 17.0505 7.18174 17.0279 7.54946C17.0279 8.90926 15.8204 11.0809 14.3388 11.0809Z" fill="#B8BBC4"/>
<path d="M15.2826 7.78296C15.2826 8.25991 14.8564 9.02099 14.3388 9.02099C13.8213 9.02099 13.3849 8.25991 13.3849 7.78296C13.3712 7.65012 13.3855 7.51586 13.4269 7.38889C13.4683 7.26192 13.5359 7.14507 13.6254 7.04588C13.7148 6.9467 13.8241 6.8674 13.9461 6.81312C14.0681 6.75885 14.2002 6.73081 14.3338 6.73081C14.4673 6.73081 14.5994 6.75885 14.7214 6.81312C14.8434 6.8674 14.9527 6.9467 15.0421 7.04588C15.1316 7.14507 15.1992 7.26192 15.2406 7.38889C15.2821 7.51586 15.2963 7.65012 15.2826 7.78296Z" fill="#B8BBC4"/>
</g>
<defs>
<clipPath id="clip0_0_476">
<rect width="28.26" height="21.68" fill="white" transform="scale(1.01477)"/>
</clipPath>
</defs>
</svg>
