<svg width="18" height="28" viewBox="0 0 18 28" fill="none" xmlns="http://www.w3.org/2000/svg">
<g clip-path="url(#clip0_0_368)">
<path d="M9.35092 0C9.43246 0.0225738 9.514 0.0465584 9.59704 0.0677214C10.1968 0.219332 10.7185 0.5667 11.0677 1.04686C13.2531 3.92126 15.4395 6.79425 17.6269 9.66583C18.3547 10.6224 17.941 11.8456 16.7889 12.1574C16.5723 12.2113 16.3486 12.2365 16.1245 12.2322C11.3742 12.2322 6.62397 12.2322 1.87369 12.2322C0.828815 12.2322 0.13273 11.7017 0.0119347 10.8129C-0.0514828 10.3515 0.13726 9.96634 0.418109 9.59387C2.1183 7.36941 3.81497 5.14307 5.50812 2.91484C5.88108 2.42527 6.27517 1.9484 6.62246 1.4419C7.1147 0.726594 7.71867 0.172125 8.6488 0.00141063L9.35092 0Z" fill="white"/>
<path d="M8.99325 15.7678C11.3533 15.7678 13.7118 15.7678 16.0718 15.7678C16.3266 15.7612 16.581 15.7897 16.8268 15.8525C17.0775 15.9231 17.3068 16.0481 17.4959 16.2174C17.6851 16.3866 17.8287 16.5952 17.9151 16.8261C18.0015 17.0571 18.0283 17.3039 17.9932 17.5464C17.9581 17.7888 17.8621 18.0201 17.7132 18.2213C17.2149 18.9183 16.6788 19.5898 16.1579 20.2727C14.4658 22.4953 12.7746 24.715 11.0845 26.932C10.1181 28.2018 8.34397 28.364 7.23719 27.3002C7.12314 27.1882 7.01816 27.0684 6.92311 26.9419C4.74075 24.0778 2.56039 21.2137 0.382052 18.3497C-0.286852 17.4693 -0.0346873 16.3646 0.952814 15.9512C1.25785 15.8345 1.58507 15.7769 1.91465 15.7819C4.27468 15.7622 6.63321 15.7678 8.99325 15.7678Z" fill="white"/>
</g>
<defs>
<clipPath id="clip0_0_368">
<rect width="18" height="28" fill="white"/>
</clipPath>
</defs>
</svg>
