<svg width="34" height="30" viewBox="0 0 34 30" fill="none" xmlns="http://www.w3.org/2000/svg">
<path d="M32 25.3592V26.0955C31.85 26.4186 31.7469 26.7765 31.5414 27.0595C31.0461 27.7511 30.3157 28 29.461 28C21.1539 27.9955 12.8469 27.9942 4.53978 27.9962C4.40306 27.9962 4.26635 27.9909 4.13041 27.9796C3.65079 27.9404 3.19543 27.7585 2.82685 27.4586C2.45827 27.1588 2.19454 26.7559 2.07187 26.3051C2.05234 26.2339 2.02422 26.1651 2 26.0955V25.3592C2.14765 25.0346 2.26562 24.6933 2.44608 24.3869C5.20226 19.7081 7.96261 15.0324 10.7271 10.3597C12.1417 7.97011 13.5557 5.57928 14.9692 3.18718C15.3559 2.5319 15.9153 2.10589 16.6988 2.01888C17.7535 1.90235 18.53 2.32836 19.0535 3.21291C22.9195 9.76317 26.7863 16.3137 30.6539 22.8645C31.1336 23.6786 31.5531 24.5269 32 25.3592ZM16.484 5.98838C15.1043 9.48951 13.7333 12.9687 12.3435 16.4978H17.0004L15.4543 19.9876L13.9013 18.9918C13.7278 21.3375 13.5583 23.6302 13.3841 25.9933L19.0722 21.4926L17.5262 20.9864C18.9035 18.6536 20.2691 16.3419 21.6667 13.9819H16.4895C17.534 11.9608 18.5558 9.98362 19.5863 7.98827L16.484 5.98838Z" fill="white"/>
</svg>
