<svg width="16" height="16" viewBox="0 0 16 16" fill="none" xmlns="http://www.w3.org/2000/svg">
<g clip-path="url(#clip0_0_653)">
<path d="M3.36894 3.42346L12.1224 12.1769L11.4478 12.8515C11.4394 12.8611 11.4291 12.8688 11.4176 12.8741C11.406 12.8793 11.3934 12.8821 11.3807 12.8821C11.368 12.8821 11.3555 12.8794 11.3439 12.8741C11.3323 12.8688 11.322 12.8611 11.3137 12.8515L5.14143 6.7631L4.7685 11.3263C4.76756 11.3439 4.76142 11.3608 4.75087 11.3748C4.74031 11.3889 4.7258 11.3996 4.70919 11.4054C4.69259 11.4112 4.67462 11.412 4.65758 11.4076C4.64054 11.4032 4.62518 11.3939 4.61345 11.3808L2.87869 9.64599C2.8699 9.63656 2.86342 9.62521 2.85979 9.61285C2.85615 9.60048 2.85545 9.58744 2.85773 9.57475L3.35219 3.46535C3.35347 3.45003 3.3593 3.43544 3.36894 3.42346Z" fill="#65A5EF"/>
<path d="M11.3598 4.56739C11.3719 4.58023 11.3801 4.59617 11.3836 4.61344C11.3871 4.63071 11.3858 4.64862 11.3797 4.66516C11.3736 4.68169 11.363 4.6962 11.3491 4.70706C11.3353 4.71792 11.3186 4.7247 11.3011 4.72663L6.74211 5.15403L12.9102 11.2467C12.928 11.2645 12.9379 11.2886 12.9379 11.3137C12.9379 11.3389 12.928 11.363 12.9102 11.3808L12.1182 12.1727L3.36894 3.42346C3.37281 3.41406 3.37851 3.4055 3.38571 3.39831C3.3929 3.39111 3.40144 3.38543 3.41085 3.38155L9.52863 2.79492C9.5423 2.79186 9.55654 2.79256 9.56983 2.79699C9.58312 2.80142 9.59496 2.80941 9.60405 2.82006L11.3598 4.56739Z" fill="#4D93E6"/>
</g>
<defs>
<clipPath id="clip0_0_653">
<rect width="9.60593" height="12.3852" fill="white" transform="translate(0 6.79242) rotate(-45)"/>
</clipPath>
</defs>
</svg>
