<svg width="114" height="18" viewBox="0 0 114 18" fill="none" xmlns="http://www.w3.org/2000/svg">
<path d="M10.5504 0.888816L12.3201 3.79626C12.5726 4.20545 12.9643 4.50049 13.4167 4.62246L16.6196 5.4762C16.9195 5.55584 17.1951 5.71315 17.4208 5.93349C17.6466 6.15382 17.815 6.43002 17.9105 6.73634C18.006 7.04266 18.0255 7.36914 17.967 7.68538C17.9086 8.00161 17.7741 8.29732 17.5763 8.54494L15.47 11.1967C15.1711 11.5704 15.0209 12.049 15.0503 12.5343L15.2583 15.9689C15.2782 16.2901 15.2197 16.6113 15.0883 16.9026C14.9568 17.194 14.7567 17.446 14.5065 17.6352C14.2563 17.8245 13.9642 17.9448 13.6573 17.985C13.3503 18.0253 13.0387 17.9841 12.7512 17.8653L9.67689 16.5984C9.24237 16.4176 8.75763 16.4176 8.32311 16.5984L5.24882 17.8653C4.96112 17.9838 4.64934 18.0248 4.34233 17.9846C4.03532 17.9443 3.74304 17.824 3.49262 17.6349C3.2422 17.4458 3.04173 17.1939 2.90981 16.9027C2.77789 16.6114 2.71881 16.2903 2.738 15.9689L2.94974 12.5343C2.97911 12.049 2.82894 11.5704 2.53001 11.1967L0.423778 8.54494C0.2259 8.29732 0.0914357 8.00161 0.0329886 7.68538C-0.0254586 7.36914 -0.00600873 7.04266 0.0894882 6.73634C0.184985 6.43002 0.353425 6.15382 0.579152 5.93349C0.804879 5.71315 1.08054 5.55584 1.38044 5.4762L4.58333 4.62246C5.03579 4.50049 5.42735 4.20545 5.67991 3.79626L7.44963 0.888816C7.61497 0.616586 7.84385 0.392321 8.11493 0.236911C8.38602 0.0815004 8.69049 0 9 0C9.30951 0 9.61398 0.0815004 9.88507 0.236911C10.1562 0.392321 10.385 0.616586 10.5504 0.888816Z" fill="#8E969B"/>
<path d="M34.5504 0.888816L36.3201 3.79626C36.5726 4.20545 36.9643 4.50049 37.4167 4.62246L40.6196 5.4762C40.9195 5.55584 41.1951 5.71315 41.4208 5.93349C41.6466 6.15382 41.815 6.43002 41.9105 6.73634C42.006 7.04266 42.0255 7.36914 41.967 7.68538C41.9086 8.00161 41.7741 8.29732 41.5763 8.54494L39.47 11.1967C39.1711 11.5704 39.0209 12.049 39.0503 12.5343L39.2583 15.9689C39.2782 16.2901 39.2197 16.6113 39.0883 16.9026C38.9568 17.194 38.7567 17.446 38.5065 17.6352C38.2563 17.8245 37.9642 17.9448 37.6573 17.985C37.3503 18.0253 37.0387 17.9841 36.7512 17.8653L33.6769 16.5984C33.2424 16.4176 32.7576 16.4176 32.3231 16.5984L29.2488 17.8653C28.9611 17.9838 28.6493 18.0248 28.3423 17.9846C28.0353 17.9443 27.743 17.824 27.4926 17.6349C27.2422 17.4458 27.0417 17.1939 26.9098 16.9027C26.7779 16.6114 26.7188 16.2903 26.738 15.9689L26.9497 12.5343C26.9791 12.049 26.8289 11.5704 26.53 11.1967L24.4238 8.54494C24.2259 8.29732 24.0914 8.00161 24.033 7.68538C23.9745 7.36914 23.994 7.04266 24.0895 6.73634C24.185 6.43002 24.3534 6.15382 24.5792 5.93349C24.8049 5.71315 25.0805 5.55584 25.3804 5.4762L28.5833 4.62246C29.0358 4.50049 29.4274 4.20545 29.6799 3.79626L31.4496 0.888816C31.615 0.616586 31.8438 0.392321 32.1149 0.236911C32.386 0.0815004 32.6905 0 33 0C33.3095 0 33.614 0.0815004 33.8851 0.236911C34.1562 0.392321 34.385 0.616586 34.5504 0.888816Z" fill="#8E969B"/>
<path d="M58.5504 0.888816L60.3201 3.79626C60.5726 4.20545 60.9643 4.50049 61.4167 4.62246L64.6196 5.4762C64.9195 5.55584 65.1951 5.71315 65.4208 5.93349C65.6466 6.15382 65.815 6.43002 65.9105 6.73634C66.006 7.04266 66.0255 7.36914 65.967 7.68538C65.9086 8.00161 65.7741 8.29732 65.5763 8.54494L63.47 11.1967C63.1711 11.5704 63.0209 12.049 63.0503 12.5343L63.2583 15.9689C63.2782 16.2901 63.2197 16.6113 63.0883 16.9026C62.9568 17.194 62.7567 17.446 62.5065 17.6352C62.2563 17.8245 61.9642 17.9448 61.6573 17.985C61.3503 18.0253 61.0387 17.9841 60.7512 17.8653L57.6769 16.5984C57.2424 16.4176 56.7576 16.4176 56.3231 16.5984L53.2488 17.8653C52.9611 17.9838 52.6493 18.0248 52.3423 17.9846C52.0353 17.9443 51.743 17.824 51.4926 17.6349C51.2422 17.4458 51.0417 17.1939 50.9098 16.9027C50.7779 16.6114 50.7188 16.2903 50.738 15.9689L50.9497 12.5343C50.9791 12.049 50.8289 11.5704 50.53 11.1967L48.4238 8.54494C48.2259 8.29732 48.0914 8.00161 48.033 7.68538C47.9745 7.36914 47.994 7.04266 48.0895 6.73634C48.185 6.43002 48.3534 6.15382 48.5792 5.93349C48.8049 5.71315 49.0805 5.55584 49.3804 5.4762L52.5833 4.62246C53.0358 4.50049 53.4274 4.20545 53.6799 3.79626L55.4496 0.888816C55.615 0.616586 55.8438 0.392321 56.1149 0.236911C56.386 0.0815004 56.6905 0 57 0C57.3095 0 57.614 0.0815004 57.8851 0.236911C58.1562 0.392321 58.385 0.616586 58.5504 0.888816Z" fill="#8E969B"/>
<path d="M82.5504 0.888816L84.3201 3.79626C84.5726 4.20545 84.9643 4.50049 85.4167 4.62246L88.6196 5.4762C88.9195 5.55584 89.1951 5.71315 89.4208 5.93349C89.6466 6.15382 89.815 6.43002 89.9105 6.73634C90.006 7.04266 90.0255 7.36914 89.967 7.68538C89.9086 8.00161 89.7741 8.29732 89.5763 8.54494L87.47 11.1967C87.1711 11.5704 87.0209 12.049 87.0503 12.5343L87.2583 15.9689C87.2782 16.2901 87.2197 16.6113 87.0883 16.9026C86.9568 17.194 86.7567 17.446 86.5065 17.6352C86.2563 17.8245 85.9642 17.9448 85.6573 17.985C85.3503 18.0253 85.0387 17.9841 84.7512 17.8653L81.6769 16.5984C81.2424 16.4176 80.7576 16.4176 80.3231 16.5984L77.2488 17.8653C76.9611 17.9838 76.6493 18.0248 76.3423 17.9846C76.0353 17.9443 75.743 17.824 75.4926 17.6349C75.2422 17.4458 75.0417 17.1939 74.9098 16.9027C74.7779 16.6114 74.7188 16.2903 74.738 15.9689L74.9497 12.5343C74.9791 12.049 74.8289 11.5704 74.53 11.1967L72.4238 8.54494C72.2259 8.29732 72.0914 8.00161 72.033 7.68538C71.9745 7.36914 71.994 7.04266 72.0895 6.73634C72.185 6.43002 72.3534 6.15382 72.5792 5.93349C72.8049 5.71315 73.0805 5.55584 73.3804 5.4762L76.5833 4.62246C77.0358 4.50049 77.4274 4.20545 77.6799 3.79626L79.4496 0.888816C79.615 0.616586 79.8438 0.392321 80.1149 0.236911C80.386 0.0815004 80.6905 0 81 0C81.3095 0 81.614 0.0815004 81.8851 0.236911C82.1562 0.392321 82.385 0.616586 82.5504 0.888816Z" fill="#8E969B"/>
<path d="M106.55 0.888816L108.32 3.79626C108.573 4.20545 108.964 4.50049 109.417 4.62246L112.62 5.4762C112.919 5.55584 113.195 5.71315 113.421 5.93349C113.647 6.15382 113.815 6.43002 113.911 6.73634C114.006 7.04266 114.025 7.36914 113.967 7.68538C113.909 8.00161 113.774 8.29732 113.576 8.54494L111.47 11.1967C111.171 11.5704 111.021 12.049 111.05 12.5343L111.258 15.9689C111.278 16.2901 111.22 16.6113 111.088 16.9026C110.957 17.194 110.757 17.446 110.507 17.6352C110.256 17.8245 109.964 17.9448 109.657 17.985C109.35 18.0253 109.039 17.9841 108.751 17.8653L105.677 16.5984C105.242 16.4176 104.758 16.4176 104.323 16.5984L101.249 17.8653C100.961 17.9838 100.649 18.0248 100.342 17.9846C100.035 17.9443 99.743 17.824 99.4926 17.6349C99.2422 17.4458 99.0417 17.1939 98.9098 16.9027C98.7779 16.6114 98.7188 16.2903 98.738 15.9689L98.9497 12.5343C98.9791 12.049 98.8289 11.5704 98.53 11.1967L96.4238 8.54494C96.2259 8.29732 96.0914 8.00161 96.033 7.68538C95.9745 7.36914 95.994 7.04266 96.0895 6.73634C96.185 6.43002 96.3534 6.15382 96.5792 5.93349C96.8049 5.71315 97.0805 5.55584 97.3804 5.4762L100.583 4.62246C101.036 4.50049 101.427 4.20545 101.68 3.79626L103.45 0.888816C103.615 0.616586 103.844 0.392321 104.115 0.236911C104.386 0.0815004 104.69 0 105 0C105.31 0 105.614 0.0815004 105.885 0.236911C106.156 0.392321 106.385 0.616586 106.55 0.888816Z" fill="#8E969B"/>
</svg>
