<svg width="129" height="129" viewBox="0 0 129 129" fill="none" xmlns="http://www.w3.org/2000/svg">
<circle cx="64.5" cy="64.5" r="63" stroke="#FF679E" stroke-width="3"/>
<g clip-path="url(#clip0_0_393)">
<path d="M17 83.9899V38.3818C17 36.6762 17.732 36 19.4604 36C26.9129 36 34.6095 36 42.184 36.0606H80.7377C81.0172 36.0374 81.2982 36.0834 81.5554 36.1943C81.8127 36.3053 82.0382 36.4778 82.212 36.6964C84.2047 38.1313 85.9579 39.8683 87.4073 41.8436H89.5424H90.6303C90.9862 41.8436 91.3319 41.8436 91.647 41.8436H92.1351C92.8355 41.782 93.5381 41.936 94.1474 42.2844C94.7568 42.6329 95.2433 43.159 95.5411 43.7914L103.929 56.9117C104.077 57.0983 104.28 57.2355 104.508 57.3053H104.61L106.471 58.1127C107.711 58.6577 108.992 59.2229 110.283 59.7376C110.81 59.8928 111.269 60.22 111.585 60.6661C111.894 61.127 112.038 61.6784 111.991 62.2304C111.991 69.1337 111.991 75.5425 111.991 81.7998C111.991 83.6165 110.914 84 109.958 84H109.694H108.84H54.2625H53.2458H23.8323H22.8156L17 83.9899Z" fill="#D3D3D3"/>
<path fill-rule="evenodd" clip-rule="evenodd" d="M110.48 81.4108C110.48 82.2808 110.27 82.6308 109.34 82.5708C108.82 82.5708 108.34 82.5708 107.95 82.5708H53.65H23.72H19V38.4108C19 37.2908 19.28 37.0508 20.42 37.0508C27.87 37.0508 35.32 37.0508 42.76 37.0508H80.69C80.94 37.0508 81.2 37.0508 81.36 37.3108V42.8408H86.8H88.24C89.33 42.8408 90.42 42.9008 91.51 42.8408C92.8 42.7608 93.83 42.9908 94.41 44.2408L102.7 57.2508C102.972 57.6317 103.362 57.9128 103.81 58.0508L105.64 58.8508C106.91 59.4108 108.18 59.9708 109.47 60.4908C109.788 60.5739 110.065 60.7692 110.25 61.0408V61.1208C110.404 61.372 110.468 61.6684 110.43 61.9608C110.43 63.3408 110.43 64.7208 110.43 66.1008C110.43 71.2074 110.447 76.3108 110.48 81.4108Z" fill="#FDFDFD"/>
<path d="M86.7701 42.8398L81.3301 42.8898V37.3398C83.4489 38.8435 85.2898 40.7046 86.7701 42.8398Z" fill="#D03135"/>
<path d="M85.0601 82.549C85.6401 77.549 88.3101 74.109 92.5701 72.919C94.7029 72.3039 96.977 72.3907 99.0568 73.1668C101.136 73.9429 102.912 75.367 104.12 77.229C104.91 78.4557 105.419 79.8423 105.61 81.289L105.82 82.549C105.32 88.449 102.13 92.049 96.6801 92.909C95.3117 93.0828 93.9223 92.9801 92.5943 92.6072C91.2663 92.2343 90.0266 91.5987 88.9487 90.738C87.8708 89.8773 86.9765 88.8091 86.3189 87.5966C85.6612 86.3841 85.2536 85.0519 85.1201 83.679C85.1245 83.3015 85.1044 82.924 85.0601 82.549ZM95.4601 78.229C94.8498 78.1784 94.2358 78.2603 93.6601 78.469C93.0821 78.6904 92.5574 79.0311 92.1201 79.469C91.6816 79.8982 91.3406 80.4166 91.1201 80.989C90.8948 81.5576 90.7959 82.1684 90.8301 82.779C90.8149 83.3879 90.9238 83.9935 91.1501 84.559C91.3767 85.1183 91.7129 85.6267 92.1388 86.0543C92.5646 86.4819 93.0717 86.8201 93.6301 87.049C94.1889 87.2911 94.7911 87.417 95.4001 87.419C96.6536 87.3858 97.846 86.8703 98.7289 85.9799C99.6119 85.0895 100.117 83.8928 100.14 82.639C100.09 80.489 98.1001 77.939 95.4601 78.229Z" fill="#313131"/>
<path d="M23.6899 82.5508C23.9212 79.534 25.3291 76.729 27.6099 74.7408C28.9216 73.7614 30.4354 73.087 32.0408 72.767C33.6463 72.4469 35.3029 72.4892 36.8899 72.8908C38.2211 73.3041 39.4771 73.9287 40.6099 74.7408L40.9199 74.9808C43.0511 76.9361 44.3265 79.6521 44.4699 82.5408C44.4968 84.0364 44.1924 85.5194 43.5787 86.8835C42.9649 88.2475 42.057 89.4589 40.9199 90.4308C39.5563 91.6886 37.8665 92.5375 36.0434 92.8805C34.2203 93.2236 32.3374 93.0469 30.6099 92.3708C28.8082 91.7774 27.2158 90.6768 26.0239 89.2011C24.832 87.7254 24.091 85.9371 23.8899 84.0508C23.8299 83.5608 23.7699 83.0508 23.6899 82.5508ZM34.1099 87.4408C35.3363 87.4127 36.507 86.9237 37.3891 86.0713C38.2712 85.2188 38.7999 84.0655 38.8699 82.8408C38.8699 81.5837 38.3706 80.3781 37.4816 79.4891C36.5927 78.6002 35.3871 78.1008 34.1299 78.1008C32.8728 78.1008 31.6672 78.6002 30.7783 79.4891C29.8893 80.3781 29.3899 81.5837 29.3899 82.8408C29.4587 84.0627 29.9803 85.2152 30.8531 86.0732C31.7258 86.9311 32.887 87.433 34.1099 87.4808V87.4408Z" fill="#313131"/>
<path fill-rule="evenodd" clip-rule="evenodd" d="M49.7799 74.7307H48.6699L49.7699 74.7207L49.7799 74.7307Z" fill="#FDFDFD"/>
<path d="M49.85 43.5706C50.79 43.5706 51.74 43.6306 52.68 43.5706C53.62 43.5106 53.87 43.8906 53.83 44.7606V48.5906C53.83 49.2706 54.08 49.4906 54.74 49.4706H58.88C59.53 49.4706 59.81 49.6906 59.8 50.3606V56.2406C59.8 56.9606 59.48 57.0806 58.86 57.0606H54.72C54.03 57.0606 53.81 57.2806 53.83 57.9406V62.0506C53.83 62.7706 53.6 63.0506 52.83 62.9906C51.83 62.9406 50.75 62.9906 49.72 62.9906V43.7806C49.7725 43.7167 49.8163 43.6461 49.85 43.5706Z" fill="#D1363A"/>
<path d="M49.7699 43.7203V62.8603C46.1399 63.0403 46.1399 63.0403 46.1399 59.5503C46.1399 57.0203 46.1399 57.0403 43.6099 57.0103C42.4999 57.0103 41.0899 57.4803 40.3899 56.7803C39.6899 56.0803 40.2299 54.7803 40.1999 53.7003C40.1699 52.6203 40.2599 51.7003 40.1999 50.6303C40.1399 49.5603 40.4999 49.4703 41.3699 49.5103C42.5699 49.5803 43.7899 49.5103 44.9799 49.5103C45.9799 49.5903 46.2299 49.1903 46.1699 48.2703C46.0999 47.0403 46.1699 45.8003 46.1699 44.5703C46.1699 43.8903 46.3099 43.5703 47.0799 43.5703C47.8499 43.5703 48.8699 43.7003 49.7699 43.7203Z" fill="#EB5353"/>
<path d="M50.03 74.9093L49.77 74.6893V69.8393C53.08 69.8393 56.39 69.7793 59.7 69.7793H81.27V74.7793H51.7C51.15 74.8393 50.61 74.8893 50.03 74.9093Z" fill="#E17B7B"/>
<path d="M100.02 57.8405H85.21C84.56 57.8405 84.21 57.6805 84.21 56.9505V46.2005C84.21 45.4705 84.56 45.3005 85.21 45.3105H91.68C91.8981 45.2925 92.1168 45.3376 92.31 45.4405C92.5023 45.5446 92.6617 45.7005 92.77 45.8905C95.1 49.7305 97.47 53.6105 100.02 57.8405Z" fill="#69B6F2"/>
<path d="M40.9999 74.7705C41.0039 74.8438 40.9865 74.9168 40.9499 74.9805L40.6399 74.7305L40.9999 74.7705Z" fill="#E0DFDF"/>
<path d="M95.4601 78.2295C98.1001 77.9495 100.08 80.4895 100.14 82.6695C100.11 83.9219 99.6028 85.1156 98.7216 86.006C97.8404 86.8965 96.6522 87.4165 95.4001 87.4595C94.7859 87.4388 94.1815 87.2996 93.6201 87.0495C93.063 86.8165 92.5568 86.4768 92.1301 86.0495C91.7014 85.6125 91.3617 85.0962 91.1301 84.5295C90.9049 83.9602 90.7961 83.3516 90.8101 82.7395C90.7795 82.128 90.8786 81.5169 91.1009 80.9465C91.3233 80.376 91.6638 79.859 92.1001 79.4295C92.5391 78.9936 93.0634 78.6532 93.6401 78.4295C94.2251 78.2317 94.8461 78.1635 95.4601 78.2295Z" fill="#585858"/>
<path d="M34.1099 87.4407C32.8789 87.3967 31.7097 86.8906 30.835 86.0234C29.9604 85.1561 29.4444 83.9912 29.3899 82.7607C29.3957 81.8232 29.6812 80.9088 30.2098 80.1345C30.7384 79.3602 31.4861 78.7612 32.3571 78.4144C33.2281 78.0675 34.1827 77.9884 35.0989 78.1873C36.0151 78.3862 36.8511 78.8539 37.4999 79.5307C38.3605 80.4199 38.8503 81.6034 38.8699 82.8407C38.7908 84.0622 38.2593 85.2103 37.3792 86.0609C36.499 86.9115 35.3333 87.4035 34.1099 87.4407Z" fill="#959595"/>
<path fill-rule="evenodd" clip-rule="evenodd" d="M22.1599 74.7305H27.6099L22.1599 74.7505V74.7305Z" fill="#FDFDFD"/>
<path fill-rule="evenodd" clip-rule="evenodd" d="M53.65 74.7305V74.9505H50.03L49.78 74.7305H53.65Z" fill="#FDFDFD"/>
<path d="M18.61 69.7305C18.7785 69.7636 18.9488 69.787 19.12 69.8005H49.81V74.7205L41.04 74.8005H40.7C39.5476 73.9189 38.252 73.2424 36.87 72.8005C35.2835 72.4124 33.6311 72.3783 32.03 72.7005C30.4262 73.0299 28.9161 73.7132 27.61 74.7005H18.61C18.4627 73.0471 18.4627 71.3839 18.61 69.7305Z" fill="#F78888"/>
</g>
<defs>
<clipPath id="clip0_0_393">
<rect width="99" height="60" fill="white" transform="translate(14 33)"/>
</clipPath>
</defs>
</svg>
