<svg width="15" height="15" viewBox="0 0 15 15" fill="none" xmlns="http://www.w3.org/2000/svg">
<g clip-path="url(#clip0_1019_21271)">
<path d="M7.44804 2.65527L7.44804 11.9449H6.73209C6.72258 11.9456 6.71304 11.9442 6.70411 11.9409C6.69518 11.9375 6.68706 11.9323 6.68032 11.9255C6.67357 11.9188 6.66835 11.9107 6.66501 11.9018C6.66167 11.8928 6.66028 11.8833 6.66094 11.8738L6.61647 5.3679L3.99722 7.59138C3.9874 7.6002 3.97518 7.60591 3.9621 7.60778C3.94903 7.60965 3.93568 7.60759 3.92378 7.60188C3.91187 7.59616 3.90193 7.58704 3.89521 7.57567C3.88849 7.5643 3.88531 7.55119 3.88605 7.538L3.88605 5.69697C3.88639 5.68731 3.88898 5.67785 3.89361 5.66936C3.89824 5.66087 3.90479 5.65357 3.91273 5.64805L7.41692 2.66861C7.42573 2.66115 7.43657 2.65651 7.44804 2.65527Z" fill="#A9612D"/>
<path d="M11.0812 7.50278C11.0808 7.516 11.0767 7.52884 11.0694 7.53987C11.0621 7.5509 11.0519 7.55969 11.0399 7.56523C11.0279 7.57077 11.0146 7.57285 11.0015 7.57124C10.9883 7.56964 10.9759 7.56441 10.9656 7.55614L8.31967 5.3638L8.35969 11.8697C8.35969 11.8885 8.35219 11.9066 8.33885 11.92C8.3255 11.9333 8.30741 11.9408 8.28854 11.9408H7.44806L7.44806 2.65561C7.4551 2.65268 7.46267 2.65116 7.4703 2.65116C7.47793 2.65116 7.48549 2.65268 7.49253 2.65561L11.0501 5.5906C11.059 5.59623 11.0661 5.60416 11.0708 5.61356C11.0756 5.62296 11.0776 5.63348 11.0768 5.64396L11.0812 7.50278Z" fill="#A9612D"/>
</g>
<defs>
<clipPath id="clip0_1019_21271">
<rect width="6.86121" height="8.84635" fill="white" transform="translate(3.87273 2.65527) scale(1.05062)"/>
</clipPath>
</defs>
</svg>
