<svg width="21" height="22" viewBox="0 0 21 22" fill="none" xmlns="http://www.w3.org/2000/svg">
<path d="M18.2219 21.9998H2.77861C0.180753 21.9998 -0.986638 18.1622 1.00286 16.645C3.4959 14.744 6.8316 13.8516 10.5002 13.8516C14.1689 13.8516 17.5046 14.744 19.9976 16.645C21.9871 18.1622 20.8177 21.9998 18.2219 21.9998Z" fill="#FF6D87"/>
<path d="M17.2106 10.301C17.2207 10.416 17.2054 10.5316 17.1659 10.641C17.1263 10.7503 17.0631 10.851 16.9803 10.937C16.8974 11.0229 16.7966 11.0924 16.6839 11.1411C16.5712 11.1898 16.449 11.2167 16.3248 11.2202H4.67592C4.55168 11.2167 4.4295 11.1898 4.31682 11.1411C4.20413 11.0924 4.10329 11.0229 4.02044 10.937C3.93758 10.851 3.87444 10.7503 3.83485 10.641C3.79526 10.5316 3.78004 10.416 3.79013 10.301L4.08814 8.99666C4.35531 7.83342 4.59783 6.68161 4.75813 5.53553C4.96365 3.98709 5.6172 2.59501 6.60781 1.59767C7.10129 1.09442 7.70262 0.692361 8.37328 0.417239C9.04393 0.142118 9.76913 0 10.5024 0C11.2357 0 11.9609 0.142118 12.6315 0.417239C13.3022 0.692361 13.9035 1.09442 14.397 1.59767C15.3835 2.59501 16.0288 3.98709 16.2467 5.53553C16.407 6.67971 16.6577 7.83342 16.9167 8.99666L17.2106 10.301Z" fill="#FF6D87"/>
</svg>
