<svg width="27" height="27" viewBox="0 0 27 27" fill="none" xmlns="http://www.w3.org/2000/svg">
<g clip-path="url(#clip0_999_30587)">
<path fill-rule="evenodd" clip-rule="evenodd" d="M18.21 5.66023C18.1805 5.19614 18.1 4.73671 17.97 4.29023C17.6748 3.33007 17.0771 2.49104 16.2662 1.89817C15.4553 1.3053 14.4745 0.990339 13.47 1.00023C12.5784 0.994732 11.7038 1.24405 10.9491 1.71884C10.1944 2.19362 9.59106 2.87412 9.21004 3.68023L10 4.56023L10.57 5.18023C10.5905 5.04821 10.6206 4.91786 10.66 4.79023C10.8196 4.19125 11.1708 3.66094 11.66 3.28023C12.1748 2.90247 12.7966 2.69877 13.435 2.69877C14.0735 2.69877 14.6953 2.90247 15.21 3.28023C15.6992 3.66094 16.0504 4.19125 16.21 4.79023C16.3012 5.07583 16.3583 5.37121 16.38 5.67023C16.38 5.89023 16.38 7.10023 16.38 8.97023C16.38 9.76023 16.38 10.6602 16.38 11.6502L17.09 12.4302L18.09 13.5702C18.09 13.4002 18.09 13.2302 18.09 13.0702V8.79023C18.09 8.66023 18.09 8.41023 18.09 8.12023C18.22 7.29023 18.23 6.03023 18.21 5.66023ZM16.33 15.3002C16.3347 15.3668 16.3347 15.4336 16.33 15.5002C16.1704 16.0992 15.8192 16.6295 15.33 17.0102C14.8153 17.388 14.1935 17.5917 13.555 17.5917C12.9166 17.5917 12.2948 17.388 11.78 17.0102C11.2908 16.6295 10.9396 16.0992 10.78 15.5002C10.6994 15.2167 10.6524 14.9247 10.64 14.6302C10.64 14.3002 10.64 14.1902 10.64 13.8702C10.64 12.3102 10.64 10.8702 10.64 9.69023V8.87023L9.94004 8.10023L8.74004 6.95023V13.1902C8.74004 13.6602 8.74004 14.1902 8.74004 14.6302C8.77691 15.077 8.85729 15.5191 8.98004 15.9502C9.25912 16.8978 9.84693 17.725 10.65 18.3002C11.4645 18.9128 12.456 19.244 13.475 19.244C14.4941 19.244 15.4856 18.9128 16.3 18.3002C16.869 17.8812 17.3343 17.3373 17.66 16.7102L17.06 16.0602L16.33 15.3002ZM20.5 11.5002C20.3871 11.4976 20.2747 11.5172 20.1694 11.558C20.064 11.5988 19.9677 11.6599 19.886 11.7379C19.8043 11.8159 19.7387 11.9093 19.6931 12.0126C19.6475 12.116 19.6226 12.2273 19.62 12.3402V15.1102L21.04 16.6702C21.2622 15.9616 21.3735 15.2229 21.37 14.4802V12.4202C21.3749 12.3938 21.3749 12.3667 21.37 12.3402C21.3623 12.1147 21.2672 11.9011 21.1049 11.7443C20.9425 11.5876 20.7257 11.5001 20.5 11.5002ZM13.65 20.6402H13.29C11.7936 20.6215 10.356 20.0542 9.25008 19.0459C8.14413 18.0377 7.44668 16.6586 7.29004 15.1702V14.8102V12.3402C7.26692 12.1243 7.16477 11.9245 7.00324 11.7794C6.84171 11.6342 6.63221 11.5539 6.41504 11.5539C6.19787 11.5539 5.98837 11.6342 5.82684 11.7794C5.66531 11.9245 5.56316 12.1243 5.54004 12.3402V14.4902C5.56507 16.4 6.29266 18.2337 7.58387 19.6412C8.87508 21.0486 10.6394 21.9311 12.54 22.1202V24.6902H9.26004C9.03461 24.6902 8.81841 24.7798 8.659 24.9392C8.49959 25.0986 8.41004 25.3148 8.41004 25.5402C8.41004 25.7657 8.49959 25.9819 8.659 26.1413C8.81841 26.3007 9.03461 26.3902 9.26004 26.3902H17.69C17.9155 26.3902 18.1317 26.3007 18.2911 26.1413C18.4505 25.9819 18.54 25.7657 18.54 25.5402C18.54 25.3148 18.4505 25.0986 18.2911 24.9392C18.1317 24.7798 17.9155 24.6902 17.69 24.6902H14.35V22.1202C15.4093 22.0069 16.4352 21.6831 17.3677 21.168C18.3001 20.6528 19.1203 19.9566 19.78 19.1202L18.66 17.8902C18.1056 18.7157 17.3613 19.3962 16.4896 19.8747C15.6179 20.3532 14.6441 20.6157 13.65 20.6402Z" fill="#2C3E4F"/>
<path d="M16.3304 15.3006L17.0604 16.1006C16.9078 16.734 16.5898 17.3156 16.1388 17.7858C15.6878 18.2561 15.1201 18.5982 14.4937 18.7772C13.8672 18.9562 13.2044 18.9656 12.5731 18.8046C11.9418 18.6435 11.3645 18.3178 10.9004 17.8606C10.5563 17.521 10.2835 17.116 10.098 16.6696C9.91256 16.2231 9.81816 15.744 9.82035 15.2606V8.10059L10.5204 8.87059L16.3304 15.3006Z" fill="#2C3E4F"/>
<path d="M17.16 5.78071V12.4307L16.45 11.6507L10.57 5.18071L10 4.56071C10.2838 3.73526 10.8518 3.03756 11.6025 2.5922C12.3532 2.14684 13.2377 1.98282 14.0982 2.12944C14.9587 2.27606 15.739 2.72376 16.2999 3.3926C16.8607 4.06144 17.1656 4.90786 17.16 5.78071Z" fill="#2C3E4F"/>
<path d="M4 2.25977L24.3 24.8798" stroke="#2C3E4F" stroke-width="2.5" stroke-miterlimit="10" stroke-linecap="round"/>
</g>
<defs>
<clipPath id="clip0_999_30587">
<rect width="24" height="26.0002" fill="white" transform="translate(2 1)"/>
</clipPath>
</defs>
</svg>
