<svg width="31" height="31" viewBox="0 0 31 31" fill="none" xmlns="http://www.w3.org/2000/svg">
<path d="M17.3836 1.8855C17.3836 0.844166 16.5403 0 15.4999 0C14.4596 0 13.6162 0.844166 13.6162 1.8855V21.6145C13.6162 22.6558 14.4596 23.5 15.4999 23.5C16.5403 23.5 17.3836 22.6558 17.3836 21.6145V1.8855Z" fill="white"/>
<path d="M29.1145 23.7674C30.1558 23.7674 31 22.9241 31 21.8837C31 20.8434 30.1558 20 29.1145 20L1.88551 20C0.844175 20 -1.90735e-06 20.8434 -1.90735e-06 21.8837C-1.90735e-06 22.9241 0.844175 23.7674 1.88551 23.7674H29.1145Z" fill="white"/>
</svg>
