<svg width="28" height="26" viewBox="0 0 28 26" fill="none" xmlns="http://www.w3.org/2000/svg">
<path d="M10.5161 17.4564L12.1703 12.3306C12.179 12.2966 12.1959 12.2652 12.2197 12.2391C12.2434 12.213 12.2732 12.193 12.3065 12.1809L12.2691 12.1944L12.8854 11.8403C12.9603 11.7972 13.0638 11.8046 13.1776 11.8693C13.2827 11.9375 13.3727 12.0261 13.4422 12.1297C13.5118 12.2334 13.5593 12.3499 13.5821 12.4723L15.6742 24.9284L16.9369 18.5213C16.9417 18.4829 16.9564 18.4464 16.9795 18.4152C17.0027 18.3841 17.0335 18.3593 17.069 18.3432L17.0458 18.352L17.6588 17.9966C17.735 17.9527 17.8426 17.9602 17.9584 18.0202C18.0646 18.0895 18.1552 18.1797 18.2247 18.2851C18.2942 18.3906 18.341 18.5091 18.3623 18.6332L19.3246 24.9925L19.6576 23.9013C19.6664 23.8671 19.6834 23.8356 19.7071 23.8093C19.7308 23.783 19.7605 23.7627 19.7938 23.7502L19.7591 23.7637L20.372 23.4089C20.4483 23.3644 20.5538 23.3718 20.6683 23.4372L25.1542 26.0001C27.941 24.0254 27.8464 18.5098 24.8573 13.3834C23.3066 10.7228 21.2689 8.67048 19.2292 7.50438C17.1895 6.33828 15.1641 6.05974 13.6053 6.92706C12.0566 4.2826 10.0271 2.24378 7.99626 1.08173C5.96541 -0.0803253 3.91413 -0.364936 2.35252 0.516551C-0.608617 2.1878 -0.77615 7.43828 1.86013 12.5161L10.5161 17.4564Z" fill="#EB5C5C"/>
</svg>
