<svg width="22" height="22" viewBox="0 0 22 22" fill="none" xmlns="http://www.w3.org/2000/svg">
<path d="M19.4578 3.50292C18.9691 3.02645 18.3889 2.64848 17.7503 2.39061C17.1117 2.13273 16.4272 2 15.7359 2C15.0446 2 14.3601 2.13273 13.7215 2.39061C13.0829 2.64848 12.5026 3.02645 12.0139 3.50292L10.9997 4.49131L9.98554 3.50292C8.99842 2.54094 7.6596 2.0005 6.26361 2.0005C4.86761 2.0005 3.52879 2.54094 2.54168 3.50292C1.55456 4.46491 1 5.76964 1 7.1301C1 8.49055 1.55456 9.79529 2.54168 10.7573L3.55588 11.7457L9.60388 17.6397C10.3805 18.3966 11.6189 18.3966 12.3956 17.6397L18.4436 11.7457L19.4578 10.7573C19.9467 10.281 20.3346 9.71557 20.5992 9.0932C20.8638 8.47084 21 7.80377 21 7.1301C21 6.45642 20.8638 5.78935 20.5992 5.16699C20.3346 4.54463 19.9467 3.97917 19.4578 3.50292Z" fill="#8E969B"/>
</svg>
