<svg width="28" height="25" viewBox="0 0 28 25" fill="none" xmlns="http://www.w3.org/2000/svg">
<g clip-path="url(#clip0_0_525)">
<path d="M28 0.507314V17.1203C27.8315 17.506 27.5267 17.625 27.1096 17.6243C18.3699 17.6177 9.63013 17.6159 0.890405 17.619C0.234241 17.619 0.00341797 17.3949 0.00341797 16.7613V0.863696C0.00341797 0.231382 0.235611 0.0059838 0.890405 0.0059838C9.63013 0.0059838 18.3696 0.00398936 27.1089 0C27.5274 0 27.8308 0.119681 28 0.507314Z" fill="white"/>
<path d="M12.0254 22.7441V19.8232H15.8959V22.7441H16.2158C17.0377 22.7441 17.8555 22.7348 18.6747 22.7521C19.2603 22.7641 19.7021 23.1996 19.7706 23.7787C19.7956 24.0407 19.7238 24.3027 19.5681 24.5181C19.4124 24.7334 19.1829 24.888 18.9206 24.9542C18.7787 24.9861 18.6333 25.0004 18.4877 24.9968C15.474 24.9968 12.4603 24.9968 9.44663 24.9968C8.98704 24.9968 8.60074 24.8638 8.34389 24.4822C8.22818 24.3213 8.16053 24.1325 8.14845 23.9367C8.13636 23.7408 8.1803 23.5456 8.2754 23.3724C8.48088 22.9788 8.82335 22.7534 9.27814 22.7468C10.0884 22.7341 10.8994 22.7415 11.7096 22.7408L12.0254 22.7441Z" fill="white"/>
</g>
<defs>
<clipPath id="clip0_0_525">
<rect width="28" height="25" fill="white"/>
</clipPath>
</defs>
</svg>
