<svg width="41" height="52" viewBox="0 0 41 52" fill="none" xmlns="http://www.w3.org/2000/svg">
<path d="M25.8784 40.9139V50.4607" stroke="#08863A" stroke-width="1.7" stroke-linecap="round" stroke-linejoin="round"/>
<path d="M17.7731 45.9847V40.4905" stroke="#08863A" stroke-width="1.7" stroke-linecap="round" stroke-linejoin="round"/>
<path d="M17.7731 48.8276V50.7531" stroke="#08863A" stroke-width="1.7" stroke-linecap="round" stroke-linejoin="round"/>
<path d="M0.856992 50.7531H40.1432" stroke="#08863A" stroke-width="1.7" stroke-linecap="round" stroke-linejoin="round"/>
<path d="M11.6238 50.7934C11.6563 49.807 12.0103 48.8582 12.6319 48.0917" stroke="#08863A" stroke-width="1.7" stroke-linecap="round" stroke-linejoin="round"/>
<path d="M10.8272 50.4608C10.8272 50.4608 10.555 49.1704 10.1921 48.0514" stroke="#08863A" stroke-width="1.7" stroke-linecap="round" stroke-linejoin="round"/>
<path d="M32.5723 50.7934C32.5996 49.806 32.9542 48.8556 33.5804 48.0917" stroke="#08863A" stroke-width="1.7" stroke-linecap="round" stroke-linejoin="round"/>
<path d="M31.7859 50.4608C31.7859 50.4608 31.5137 49.1704 31.1507 48.0514" stroke="#08863A" stroke-width="1.7" stroke-linecap="round" stroke-linejoin="round"/>
<path d="M0.856992 20.0258H5.58509" stroke="#08863A" stroke-width="1.7" stroke-linecap="round" stroke-linejoin="round"/>
<path d="M27.8141 13.4933H30.5561" stroke="#08863A" stroke-width="1.7" stroke-linecap="round" stroke-linejoin="round"/>
<path d="M22.8338 31.6393H25.5759" stroke="#08863A" stroke-width="1.7" stroke-linecap="round" stroke-linejoin="round"/>
<path d="M15.162 29.4719H23.358" stroke="#08863A" stroke-width="1.7" stroke-linecap="round" stroke-linejoin="round"/>
<path d="M31.786 42.2547H35.4454" stroke="#08863A" stroke-width="1.7" stroke-linecap="round" stroke-linejoin="round"/>
<path d="M6.13972 9.51127H13.4485" stroke="#08863A" stroke-width="1.7" stroke-linecap="round" stroke-linejoin="round"/>
<path d="M27.5014 4.95462C27.5412 5.40308 27.5141 5.85496 27.4208 6.29541C27.3921 6.45525 27.3996 6.61949 27.4426 6.77608C27.4856 6.93267 27.5631 7.07765 27.6694 7.2004C27.7757 7.32315 27.9082 7.42057 28.057 7.48551C28.2059 7.55045 28.3674 7.58127 28.5297 7.57571C31.2919 7.57571 33.5703 9.59193 33.5703 12.0618C33.5703 14.5317 31.5541 16.3664 31.9674 16.5479C33.1789 16.9794 34.2321 17.7663 34.9893 18.8059C35.7465 19.8455 36.1724 21.0893 36.2115 22.3748C36.185 23.5444 35.8333 24.6836 35.1959 25.6647C34.5585 26.6457 33.6605 27.43 32.6025 27.9295C33.524 28.4693 34.2915 29.2366 34.8316 30.158C35.3717 31.0794 35.6664 32.124 35.6873 33.1918C35.6873 36.7202 32.4916 39.5631 28.56 39.5631C28.0387 39.5646 27.5186 39.514 27.0074 39.4118C26.4959 40.1864 25.813 40.8329 25.0115 41.3012C24.21 41.7695 23.3115 42.0471 22.3855 42.1124C21.4596 42.1777 20.531 42.029 19.6717 41.6778C18.8124 41.3266 18.0456 40.7824 17.4304 40.0873C16.7513 40.3472 16.0304 40.4805 15.3033 40.4804C13.6991 40.4804 12.1606 39.8432 11.0262 38.7088C9.89186 37.5745 9.25463 36.036 9.25463 34.4318C9.25344 33.2845 9.58235 32.1611 10.2022 31.1957C9.3179 30.6555 8.58721 29.897 8.08026 28.9932C7.57331 28.0894 7.30707 27.0705 7.30707 26.0342C7.30707 24.9979 7.57331 23.979 8.08026 23.0752C8.58721 22.1714 9.3179 21.413 10.2022 20.8727C9.68614 20.1711 9.35797 19.3493 9.24872 18.4853C9.13947 17.6213 9.25284 16.7436 9.57803 15.9357C9.90322 15.1278 10.4294 14.4163 11.1068 13.8689C11.7842 13.3215 12.5902 12.9562 13.4484 12.8078C13.3171 12.38 13.2524 11.9346 13.2568 11.4872C13.2555 10.8893 13.3721 10.297 13.6 9.74418C13.8279 9.1914 14.1625 8.689 14.5849 8.26574C15.0072 7.84248 15.5088 7.50668 16.0611 7.27757C16.6134 7.04845 17.2055 6.93052 17.8034 6.93052C18.0942 6.93096 18.3844 6.95796 18.6703 7.01117C18.4829 6.49758 18.3873 5.955 18.388 5.40827C18.387 4.44605 18.6913 3.50832 19.2571 2.73003C19.8229 1.95173 20.6211 1.37301 21.5367 1.07715C22.4523 0.781289 23.4382 0.783542 24.3524 1.08359C25.2667 1.38363 26.0621 1.96599 26.6244 2.74686" stroke="#08863A" stroke-width="1.7" stroke-linecap="round" stroke-linejoin="round"/>
</svg>
