<svg width="49" height="47" viewBox="0 0 49 47" fill="none" xmlns="http://www.w3.org/2000/svg">
<path d="M47.4972 45.9702H1.79285L10.3312 36.3774H12.5999C16.0962 31.7443 18.8586 26.6006 20.7901 21.127C21.9574 21.0611 23.1153 21.0234 24.292 21.0234C25.8547 21.0234 27.4079 21.0893 28.933 21.2117C30.8623 26.6545 33.615 31.7691 37.0948 36.3774H38.9776L47.4972 45.9702Z" stroke="white" stroke-width="1.7" stroke-linecap="round" stroke-linejoin="round"/>
<path d="M34.186 10.894C34.0466 10.8928 33.9077 10.877 33.7717 10.8469C34.219 11.0546 34.5838 11.4064 34.8074 11.846C35.0311 12.2855 35.1007 12.7874 35.0052 13.2713C34.9097 13.7552 34.6546 14.193 34.2808 14.5147C33.9069 14.8363 33.436 15.0233 32.9433 15.0455H32.8586C32.5253 15.046 32.1962 14.9708 31.8962 14.8257C31.5961 14.6806 31.333 14.4692 31.1265 14.2076C31.2296 14.4649 31.2807 14.7401 31.277 15.0172C31.28 15.4879 31.1315 15.9471 30.8534 16.3269C30.5753 16.7067 30.1825 16.9869 29.7329 17.1262C29.2833 17.2655 28.8007 17.2565 28.3567 17.1005C27.9126 16.9445 27.5305 16.6498 27.2668 16.2599L26.6643 21.0703H23.0306L22.4186 16.2222C22.1577 16.6157 21.7772 16.9149 21.3333 17.0757C20.8894 17.2365 20.4054 17.2505 19.953 17.1155C19.5006 16.9805 19.1035 16.7037 18.8203 16.3259C18.5371 15.9481 18.3828 15.4894 18.3801 15.0172C18.3809 14.7405 18.4319 14.4662 18.5307 14.2076C18.3246 14.4698 18.0615 14.6815 17.7613 14.8266C17.4612 14.9718 17.132 15.0467 16.7986 15.0455H16.7232C16.2247 15.0341 15.7449 14.8532 15.363 14.5326C14.981 14.212 14.7198 13.7709 14.6222 13.2819C14.5246 12.7928 14.5966 12.2852 14.8262 11.8425C15.0558 11.3999 15.4294 11.0487 15.8854 10.8469C15.5735 10.9086 15.2512 10.8904 14.9483 10.7939C14.6455 10.6975 14.3719 10.5259 14.1532 10.2952C13.9346 10.0645 13.7778 9.78214 13.6977 9.47453C13.6176 9.16693 13.6167 8.84404 13.6951 8.53598C13.7734 8.22791 13.9284 7.94469 14.1458 7.71272C14.3631 7.48075 14.6356 7.30758 14.9379 7.20935C15.2402 7.11112 15.5625 7.09103 15.8747 7.15096C16.1868 7.21088 16.4787 7.34886 16.7232 7.55205C16.7192 7.53661 16.7192 7.52041 16.7232 7.50498C16.4478 7.18628 16.2695 6.79531 16.2095 6.3784C16.1495 5.96149 16.2103 5.53612 16.3847 5.1527C16.559 4.76928 16.8397 4.4439 17.1933 4.2151C17.547 3.98631 17.9589 3.8637 18.3801 3.86181C18.8902 3.86139 19.3846 4.03882 19.7781 4.36356C20.1716 4.6883 20.4395 5.14004 20.5359 5.64103C20.5359 5.49983 20.5359 5.35862 20.5359 5.22682C20.5359 4.10743 20.9799 3.03374 21.7705 2.24133C22.5612 1.44892 23.6339 1.00249 24.7533 1H24.9415C25.4961 0.999999 26.0454 1.1094 26.5577 1.32193C27.0699 1.53446 27.5352 1.84596 27.927 2.23858C28.3187 2.6312 28.6292 3.09723 28.8406 3.61C29.052 4.12277 29.1601 4.67219 29.1589 5.22682C29.1681 5.36474 29.1681 5.50312 29.1589 5.64103C29.226 5.31072 29.368 5.0002 29.574 4.73339C29.7799 4.46658 30.0444 4.25059 30.347 4.10206C30.6496 3.95352 30.9821 3.8764 31.3192 3.87663C31.6562 3.87686 31.9888 3.95444 32.2911 4.10338C32.5935 4.25233 32.8576 4.46868 33.0632 4.73577C33.2688 5.00286 33.4104 5.31357 33.477 5.64398C33.5437 5.97439 33.5336 6.31568 33.4476 6.64159C33.3616 6.96749 33.202 7.26931 32.981 7.52381V7.57087C33.3449 7.25387 33.8167 7.08874 34.2989 7.1096C34.7983 7.11958 35.2732 7.32752 35.6192 7.68767C35.9652 8.04782 36.154 8.53068 36.144 9.03002C36.134 9.52936 35.9261 10.0043 35.566 10.3503C35.2058 10.6963 34.7229 10.8851 34.2235 10.8751L34.186 10.894Z" stroke="white" stroke-width="1.7" stroke-linecap="round" stroke-linejoin="round"/>
<path d="M25.9864 25.0243C26.9052 28.018 27.0446 31.1967 26.3912 34.2593C26.0806 35.7561 23.294 35.5961 23.3034 34.0616C23.3034 34.0616 23.3693 28.8369 22.3621 26.6059C21.5181 28.0702 20.4829 29.4157 19.2837 30.6067C19.0615 30.819 18.7713 30.9457 18.4646 30.9642C18.1578 30.9827 17.8545 30.8919 17.6084 30.7079C17.3622 30.5239 17.1893 30.2586 17.1203 29.9591C17.0513 29.6597 17.0908 29.3454 17.2315 29.0723C18.328 27.0339 19.2994 24.9308 20.1404 22.7744C20.3475 22.2284 20.5546 21.6824 20.7429 21.127C21.882 21.0611 23.0211 21.0234 24.179 21.0234H24.9414C26.2688 21.0234 27.5868 21.1082 28.8859 21.2117C30.019 24.3999 31.4335 27.481 33.1127 30.4185C33.2874 30.7241 33.3473 31.0821 33.2815 31.428C33.2158 31.7738 33.0286 32.0848 32.754 32.305C32.4793 32.5252 32.135 32.6401 31.7832 32.6291C31.4313 32.6181 31.0949 32.4818 30.8345 32.2448C28.6671 30.2579 27.005 27.7826 25.9864 25.0243Z" stroke="white" stroke-width="1.7" stroke-linecap="round" stroke-linejoin="round"/>
<path d="M11.8563 39.5405C10.8852 41.0253 9.79584 42.4294 8.599 43.7391" stroke="white" stroke-width="1.7" stroke-linecap="round" stroke-linejoin="round"/>
<path d="M20.1593 36.9043C19.4535 38.8172 18.6103 40.6766 17.6364 42.4679" stroke="white" stroke-width="1.7" stroke-linecap="round" stroke-linejoin="round"/>
<path d="M29.4319 36.7632C30.1492 38.6714 30.992 40.5299 31.9548 42.3268" stroke="white" stroke-width="1.7" stroke-linecap="round" stroke-linejoin="round"/>
<path d="M38.1586 39.5405C39.1284 41.0351 40.2177 42.4487 41.4157 43.7673" stroke="white" stroke-width="1.7" stroke-linecap="round" stroke-linejoin="round"/>
</svg>
