<svg width="38" height="38" viewBox="0 0 38 38" fill="none" xmlns="http://www.w3.org/2000/svg">
<path fill-rule="evenodd" clip-rule="evenodd" d="M10.2917 22.5625C10.2917 22.0376 10.0831 21.5342 9.71198 21.1631C9.34082 20.7919 8.83741 20.5834 8.3125 20.5834C7.78759 20.5834 7.28418 20.7919 6.91302 21.1631C6.54185 21.5342 6.33333 22.0376 6.33333 22.5625C6.33333 23.0874 6.54185 23.5909 6.91302 23.962C7.28418 24.3332 7.78759 24.5417 8.3125 24.5417C8.83741 24.5417 9.34082 24.3332 9.71198 23.962C10.0831 23.5909 10.2917 23.0874 10.2917 22.5625ZM22.9583 27.3125H15.0417V25.3334H22.9583V27.3125ZM29.6875 24.1459C30.2124 24.1459 30.7158 23.9374 31.087 23.5662C31.4581 23.195 31.6667 22.6916 31.6667 22.1667C31.6667 21.6418 31.4581 21.1384 31.087 20.7672C30.7158 20.3961 30.2124 20.1875 29.6875 20.1875C29.1626 20.1875 28.6592 20.3961 28.288 20.7672C27.9169 21.1384 27.7083 21.6418 27.7083 22.1667C27.7083 22.6916 27.9169 23.195 28.288 23.5662C28.6592 23.9374 29.1626 24.1459 29.6875 24.1459ZM25.8083 10.0463C25.6975 9.72171 25.3967 9.50004 25.0642 9.50004H12.9438C12.6033 9.50004 12.3025 9.72171 12.1679 10.1175L9.71375 16.625H28.2862L25.8083 10.0463ZM4.75 16.0685V15.4375C4.75 15.1226 4.87511 14.8206 5.09781 14.5979C5.32051 14.3752 5.62255 14.25 5.9375 14.25H7.22792L9.18333 9.06462C9.44167 8.27231 9.94349 7.58174 10.6173 7.09132C11.2911 6.6009 12.1025 6.33566 12.9358 6.33337H25.0721C26.7821 6.34129 28.2862 7.44171 28.7929 9.00129L30.7721 14.25H32.0625C32.3774 14.25 32.6795 14.3752 32.9022 14.5979C33.1249 14.8206 33.25 15.1226 33.25 15.4375V16.0685C33.2499 16.3387 33.1577 16.6008 32.9886 16.8115C32.8195 17.0222 32.5836 17.169 32.3198 17.2275L31.9675 17.3059L32.5771 18.6913C33.0135 19.6762 33.24 20.7411 33.2421 21.8184L33.25 31.1759C33.25 31.8805 32.6721 32.4584 31.9675 32.4584H29.7825C29.0779 32.4584 28.5 31.8805 28.5 31.1759V29.6875H29.6875V28.5H8.3125V29.6875H9.5V31.1759C9.5 31.8805 8.92208 32.4584 8.2175 32.4584H6.0325C5.32792 32.4584 4.75 31.8805 4.75 31.1759V21.8342C4.75 20.7496 4.97958 19.673 5.42291 18.6834L6.0325 17.3059L5.68021 17.2275C5.41643 17.169 5.18051 17.0222 5.01139 16.8115C4.84227 16.6008 4.75006 16.3387 4.75 16.0685Z" fill="white"/>
</svg>
