<svg width="43" height="43" viewBox="0 0 43 43" fill="none" xmlns="http://www.w3.org/2000/svg">
<path d="M42.1451 33.3819C42.1416 35.3199 41.46 37.1956 40.2186 38.6837C38.9771 40.1719 37.2541 41.1788 35.3481 41.5297C33.4422 41.8807 31.4736 41.5537 29.7834 40.6054C28.0933 39.6571 26.7882 38.1473 26.0946 36.3377C25.8932 35.8105 25.7491 35.2631 25.6649 34.7051C25.5883 34.2683 25.5509 33.8254 25.5532 33.3819C25.5525 32.9968 25.5784 32.6121 25.6306 32.2305C26.3113 32.6176 27.043 32.9069 27.8044 33.0898C27.7914 32.8379 27.7914 32.5855 27.8044 32.3336C27.8053 31.9109 27.837 31.4887 27.899 31.0706V30.9331C28.15 29.452 28.8006 28.0675 29.7807 26.929C29.9354 26.7486 30.6915 25.8808 30.8806 25.6058C31.7398 24.2826 32.2725 20.8972 32.2725 20.8972C33.3471 21.3331 34.3187 21.9887 35.1251 22.8219C35.4844 23.1981 35.8121 23.6033 36.1047 24.0334C36.9512 25.3321 37.4212 26.8401 37.4623 28.3897V28.596C37.4617 29.3117 37.3722 30.0246 37.1959 30.7183C38.3049 29.8917 39.1908 28.8021 39.7736 27.5477C41.3014 29.1043 42.1536 31.2008 42.1451 33.3819Z" stroke="#A2A7AB" stroke-width="1.7" stroke-linecap="round" stroke-linejoin="round"/>
<path d="M36.7662 37.789C36.2608 38.4066 35.5769 38.8531 34.8081 39.0674C34.0393 39.2817 33.2232 39.2534 32.4711 38.9864C31.719 38.7194 31.0677 38.2268 30.6061 37.5757C30.1446 36.9246 29.8953 36.1469 29.8924 35.3488C30.9201 35.3488 31.9058 34.9405 32.6325 34.2138C33.3593 33.487 33.7675 32.5014 33.7675 31.4736C33.7706 31.0979 33.7155 30.7241 33.6042 30.3652C33.9353 30.8619 34.3766 31.2755 34.8938 31.5736C35.411 31.8717 35.9901 32.0462 36.5858 32.0837C36.4827 32.1868 36.3881 32.2899 36.2936 32.4016C35.6614 33.1865 35.359 34.1864 35.4504 35.1901C35.5418 36.1938 36.0199 37.1226 36.7834 37.7804L36.7662 37.789Z" stroke="#A2A7AB" stroke-width="1.7" stroke-linecap="round" stroke-linejoin="round"/>
<path d="M17.8803 34.7049H12.6905V41.871H17.8803V34.7049Z" stroke="#A2A7AB" stroke-width="1.7" stroke-miterlimit="10" stroke-linecap="round"/>
<path d="M11.7367 5.35325L14.3144 1.29765C14.3887 1.16335 14.4977 1.05141 14.6299 0.973455C14.7622 0.895503 14.9128 0.85439 15.0663 0.85439C15.2198 0.85439 15.3705 0.895503 15.5027 0.973455C15.6349 1.05141 15.7438 1.16335 15.8181 1.29765L21.3258 9.89001L22.1851 11.1875C22.2873 11.3191 22.3489 11.4776 22.3626 11.6437C22.3764 11.8098 22.3415 11.9762 22.2623 12.1228C22.183 12.2694 22.0629 12.3898 21.9165 12.4694C21.77 12.5489 21.6036 12.5842 21.4375 12.5708H20.0628L25.433 20.9398C25.5588 21.1378 25.6292 21.366 25.637 21.6004C25.6449 21.8349 25.5898 22.0672 25.4776 22.2732C25.3654 22.4793 25.2 22.6515 24.9988 22.7721C24.7975 22.8927 24.5678 22.9572 24.3332 22.959H21.7555L27.8646 30.9929V31.1303C27.8026 31.5485 27.771 31.9706 27.7701 32.3934C27.7701 32.6512 27.7701 32.9004 27.7701 33.1495C27.0087 32.9667 26.2769 32.6774 25.5962 32.2903C25.4768 33.1108 25.4768 33.9444 25.5962 34.7649H2.62025C1.22829 34.7649 0.386252 33.4675 1.13379 32.4793L8.35139 23.0277H5.77368C5.53909 23.0259 5.30921 22.9614 5.10796 22.8408C4.90672 22.7202 4.74137 22.548 4.62915 22.342C4.51694 22.1359 4.46188 21.9036 4.46973 21.6692C4.47757 21.4347 4.54809 21.2066 4.67384 21.0085L10.0527 12.6396H8.67791C8.51109 12.6548 8.34345 12.6209 8.19563 12.5421C8.04782 12.4633 7.92618 12.343 7.84584 12.196C7.76549 12.049 7.72989 11.8817 7.74336 11.7148C7.75684 11.5478 7.8189 11.3884 7.92177 11.2562L9.89795 8.18872" stroke="#A2A7AB" stroke-width="1.7" stroke-miterlimit="10" stroke-linecap="round"/>
<path d="M35.1165 22.856C34.31 22.0228 33.3384 21.3672 32.2639 20.9313C32.2639 20.9313 31.7569 24.3167 30.8719 25.6399C30.6829 25.9149 29.9267 26.7827 29.7721 26.9631C28.7919 28.1016 28.1413 29.486 27.8904 30.9672L21.7813 22.9333H24.359C24.5947 22.9343 24.8263 22.8715 25.0292 22.7516C25.2321 22.6317 25.3988 22.459 25.5116 22.252C25.6243 22.045 25.6789 21.8113 25.6696 21.5758C25.6603 21.3402 25.5874 21.1116 25.4587 20.9141L20.0885 12.5451H21.4547C21.6216 12.5604 21.7891 12.5265 21.9369 12.4477C22.0847 12.3689 22.2064 12.2486 22.2867 12.1016C22.367 11.9546 22.4027 11.7873 22.3892 11.6203C22.3757 11.4534 22.3137 11.294 22.2109 11.1618L21.3516 9.86433L24.8573 4.39959C24.9373 4.29288 25.0411 4.20626 25.1604 4.14661C25.2797 4.08695 25.4112 4.0559 25.5446 4.0559C25.678 4.0559 25.8096 4.08695 25.9289 4.14661C26.0482 4.20626 26.152 4.29288 26.232 4.39959L31.9718 13.3528C32.0372 13.4776 32.071 13.6166 32.0701 13.7575C32.0692 13.8984 32.0336 14.037 31.9665 14.1609C31.8995 14.2849 31.803 14.3904 31.6855 14.4682C31.5681 14.5461 31.4332 14.5939 31.2929 14.6073H30.0471L34.9189 22.1944C35.0519 22.389 35.121 22.6203 35.1165 22.856Z" stroke="#A2A7AB" stroke-width="1.7" stroke-miterlimit="10" stroke-linecap="round"/>
<path d="M28.174 39.4049V41.8796H23.0186V34.7049H25.7252C25.8094 35.263 25.9534 35.8103 26.1548 36.3375C26.5888 37.4987 27.279 38.5472 28.174 39.4049Z" stroke="#A2A7AB" stroke-width="1.7" stroke-miterlimit="10" stroke-linecap="round"/>
<path d="M0.755693 41.8798H42.4114" stroke="#A2A7AB" stroke-width="1.7" stroke-miterlimit="10"/>
</svg>
