<svg width="26" height="34" viewBox="0 0 26 34" fill="none" xmlns="http://www.w3.org/2000/svg">
<g clip-path="url(#clip0_0_382)">
<path d="M10.3904 17.7335C10.2401 17.8901 10.1444 17.9931 10.0459 18.0942C9.70911 18.4423 9.30629 18.7201 8.86083 18.9118C8.41536 19.1034 7.93611 19.205 7.45092 19.2106C6.96572 19.2162 6.48424 19.1258 6.03443 18.9445C5.58462 18.7632 5.17545 18.4947 4.83066 18.1545C4.76958 18.0838 4.68989 18.0315 4.60057 18.0035C4.51125 17.9755 4.41586 17.9729 4.32514 17.996C3.55135 18.1295 2.75497 18.0128 2.05256 17.6629C1.35016 17.313 0.778604 16.7484 0.421531 16.0516C-0.322107 14.6029 -0.0664203 12.9336 1.10466 11.7553C1.24812 11.6104 1.26471 11.5083 1.18957 11.3197C0.287832 9.05732 1.61018 6.68799 4.00602 6.26409C4.2012 6.22909 4.29001 6.16687 4.3066 5.95006C4.45689 3.92976 6.10713 2.45002 8.12432 2.52488C8.33024 2.53266 8.44149 2.49377 8.55177 2.29932C9.46521 0.691246 10.8598 -0.122513 12.7091 0.0077659C14.4794 0.132212 15.712 1.08889 16.4293 2.70669C16.4576 2.77183 16.4888 2.83502 16.5269 2.91475C17.8209 2.50641 19.0417 2.62891 20.1533 3.40086C21.2649 4.17282 21.8036 5.27922 21.8631 6.61507C22.2827 6.6559 22.7004 6.6491 23.0927 6.7434C24.5566 7.0973 25.5188 8.00731 25.8809 9.47052C26.2429 10.9337 25.7969 12.1549 24.6883 13.1475C24.5273 13.2924 24.4658 13.3983 24.5273 13.6336C24.9177 15.1357 24.5458 16.4434 23.365 17.4477C22.2066 18.4326 20.8755 18.5774 19.4663 18.0077C19.3989 17.9805 19.3326 17.9503 19.2311 17.9105C18.4718 18.9751 17.454 19.609 16.1082 19.6148C14.7624 19.6206 13.7426 18.9994 12.9287 17.8648C12.8828 18.5376 12.8311 19.1287 12.8048 19.712C12.5625 24.0692 12.6225 28.4377 12.9843 32.7866C13.0029 33.0044 13.0195 33.2232 13.0282 33.4419C13.0409 33.8065 12.8799 33.9815 12.5071 33.9864C11.9586 33.9951 11.4112 33.9932 10.8627 33.9864C10.4314 33.9864 10.2772 33.8153 10.3025 33.3739C10.3777 32.1858 10.4753 30.9987 10.5407 29.8097C10.7119 26.6419 10.7158 23.4674 10.5524 20.2993C10.5182 19.6187 10.4772 18.9381 10.4372 18.2576C10.4284 18.1166 10.4109 17.963 10.3904 17.7335Z" fill="white"/>
<path d="M3.05066 19.4583C3.39906 19.4583 3.70159 19.4496 4.00314 19.4632C4.1084 19.47 4.20973 19.5056 4.29591 19.5662C5.72366 20.5958 7.27436 20.8875 8.96463 20.3673C9.02908 20.3561 9.09437 20.3502 9.15981 20.3498V22.1174C8.94771 21.9621 8.74653 21.7925 8.55768 21.6099C8.39568 21.4339 8.27175 21.43 8.06095 21.5282C7.61665 21.7362 7.13494 21.8533 6.64439 21.8725C6.15383 21.8917 5.6644 21.8126 5.2051 21.6398C4.74579 21.4671 4.32596 21.2043 3.97047 20.867C3.61498 20.5297 3.33108 20.1247 3.13557 19.6761C3.10239 19.6109 3.07798 19.5429 3.05066 19.4583Z" fill="white"/>
<path d="M14.092 22.655C14.1213 21.9871 14.1486 21.358 14.1789 20.6901L14.6122 20.8126C16.2654 21.2744 17.8122 21.0411 19.1648 19.9823C19.6127 19.6313 19.9972 19.5808 20.5369 19.7879C20.3612 19.922 20.2227 20.0795 20.049 20.1505C19.561 20.3537 19.0672 20.6016 18.5529 20.6794C18.1489 20.7407 17.9322 20.8914 17.699 21.2044C16.8168 22.3867 15.6057 22.8319 14.092 22.655Z" fill="white"/>
</g>
<defs>
<clipPath id="clip0_0_382">
<rect width="26" height="34" fill="white"/>
</clipPath>
</defs>
</svg>
