<svg width="15" height="15" viewBox="0 0 15 15" fill="none" xmlns="http://www.w3.org/2000/svg">
<g clip-path="url(#clip0_1018_24682)">
<path d="M12.3442 7.44813L3.05443 7.44814L3.05443 6.73217C3.05377 6.72266 3.05516 6.71312 3.0585 6.70419C3.06184 6.69526 3.06707 6.68714 3.07381 6.6804C3.08055 6.67366 3.08866 6.66843 3.09759 6.66509C3.10652 6.66175 3.11607 6.66036 3.12558 6.66102L9.63156 6.61655L7.40805 3.99726C7.39922 3.98743 7.39351 3.97521 7.39164 3.96214C7.38977 3.94906 7.39183 3.93572 7.39754 3.92381C7.40326 3.91191 7.41238 3.90196 7.42375 3.89524C7.43512 3.88853 7.44824 3.88534 7.46142 3.88608L9.30248 3.88608C9.31215 3.88643 9.32161 3.88901 9.3301 3.89364C9.33859 3.89827 9.34588 3.90482 9.35141 3.91277L12.3309 7.41702C12.3384 7.42583 12.343 7.43666 12.3442 7.44813Z" fill="#08863A"/>
<path d="M7.49694 11.0814C7.48372 11.081 7.47088 11.0769 7.45985 11.0696C7.44882 11.0623 7.44002 11.0521 7.43448 11.0401C7.42894 11.028 7.42686 11.0147 7.42847 11.0016C7.43008 10.9885 7.4353 10.976 7.44357 10.9657L9.63595 8.31976L3.12996 8.35978C3.11109 8.35978 3.093 8.35228 3.07966 8.33894C3.06631 8.32559 3.05881 8.3075 3.05881 8.28863L3.05881 7.44814L12.3442 7.44814C12.3471 7.45518 12.3486 7.46275 12.3486 7.47038C12.3486 7.47801 12.3471 7.48556 12.3442 7.49261L9.40915 11.0502C9.40352 11.0591 9.39559 11.0663 9.38619 11.071C9.37678 11.0757 9.36627 11.0777 9.35579 11.0769L7.49694 11.0814Z" fill="#08863A"/>
</g>
<defs>
<clipPath id="clip0_1018_24682">
<rect width="7.20861" height="9.29426" fill="white" transform="translate(12.3442 3.87274) rotate(90)"/>
</clipPath>
</defs>
</svg>
