<svg width="30" height="30" viewBox="0 0 30 30" fill="none" xmlns="http://www.w3.org/2000/svg">
<g clip-path="url(#clip0_0_247)">
<path d="M29.9976 18.8562C29.9976 19.6024 30.0049 20.3495 29.9976 21.0965C29.9911 21.5967 29.7734 21.9862 29.3153 22.2051C28.8571 22.4241 28.4104 22.4052 28.0248 22.078C26.4848 20.7709 24.6824 19.9977 22.774 19.4483C19.8742 18.6127 16.9093 18.3421 13.9044 18.4429C11.4669 18.5249 9.06933 18.8669 6.737 19.6049C5.03808 20.1428 3.43536 20.8669 2.06743 22.0502C1.66716 22.397 1.19759 22.4233 0.723135 22.2142C0.274766 22.0149 -0.0015902 21.6557 0.00248588 21.1645C0.0171598 19.5393 -0.0309392 17.9067 0.113354 16.2912C0.375854 13.3671 1.54976 10.7914 3.44188 8.56758C6.0033 5.55651 9.26824 3.80743 13.1715 3.31542C16.354 2.91432 19.5806 3.54465 22.3825 5.11477C25.1844 6.6849 27.4153 9.11298 28.7511 12.0461C29.6479 14.0001 30.0286 16.0641 30.0009 18.2133C29.996 18.4265 29.9984 18.643 29.9976 18.8562ZM14.9625 11.9591C14.9625 12.0001 14.9625 12.0411 14.9625 12.0813C14.1702 12.0813 13.3778 12.0698 12.5854 12.0862C12.1778 12.0953 11.7759 12.1535 11.3715 12.1928C11.0755 12.2246 10.7899 12.3208 10.5346 12.4749C10.2793 12.629 10.0605 12.8372 9.89331 13.085C9.72616 13.3328 9.61472 13.6143 9.56675 13.9099C9.51878 14.2054 9.53542 14.5079 9.61552 14.7964C9.909 15.8091 10.7568 16.3782 11.8908 16.2625C13.9944 16.0395 16.1158 16.0436 18.2185 16.2748C18.4789 16.3064 18.7429 16.286 18.9954 16.2148C19.2479 16.1435 19.484 16.0229 19.69 15.8597C19.8961 15.6965 20.0681 15.4941 20.1963 15.2639C20.3244 15.0337 20.4061 14.7804 20.4367 14.5184C20.5704 13.3335 19.7845 12.3044 18.6432 12.2035C17.4163 12.101 16.1886 12.0395 14.9625 11.9591Z" fill="white"/>
<path d="M27.5601 26.387C27.5601 27.2879 27.5601 28.1899 27.5601 29.093C27.5601 29.5768 27.397 29.831 27.0285 29.9557C26.6446 30.0811 26.3242 29.9631 26.056 29.5867C25.0044 28.1107 23.5459 27.1882 21.9163 26.5117C19.2921 25.4227 16.5457 25.0889 13.7291 25.2554C11.6226 25.38 9.5829 25.8114 7.6541 26.6962C6.16225 27.38 4.8367 28.2845 3.87801 29.6613C3.65708 29.9786 3.31714 30.0713 2.96007 29.9549C2.60301 29.8384 2.43181 29.5908 2.431 29.1841C2.42665 27.3423 2.42665 25.5006 2.431 23.6588C2.43959 23.5449 2.49193 23.4387 2.57692 23.3628C4.77801 21.544 7.35981 20.6371 10.1307 20.1804C12.5218 19.7859 14.9275 19.7203 17.3381 19.8884C19.9084 20.068 22.4275 20.5248 24.7622 21.6711C25.6875 22.1254 26.5337 22.7437 27.406 23.303C27.4875 23.3571 27.5487 23.517 27.5503 23.631C27.565 24.5469 27.5601 25.4661 27.5601 26.387Z" fill="white"/>
<path d="M14.9951 1.88602C14.5671 1.86798 14.1709 1.76712 13.8579 1.45305C13.5448 1.13899 13.5473 0.738827 13.8579 0.423124C14.4082 -0.141041 15.5919 -0.141041 16.1356 0.423124C16.4446 0.742927 16.4478 1.13817 16.1356 1.45305C15.8234 1.76794 15.4215 1.86798 14.9951 1.88602Z" fill="white"/>
<path d="M15.0244 13.3467C16.1494 13.4188 17.2753 13.4812 18.3986 13.573C18.6068 13.5906 18.8028 13.6788 18.9546 13.8231C19.1486 14.0314 19.2587 14.3151 19.0965 14.6111C18.9342 14.9072 18.6693 14.976 18.3456 14.9596C17.0168 14.8916 15.688 14.8055 14.3584 14.7956C13.5277 14.7866 12.6962 14.8899 11.8655 14.9523C11.5638 14.9752 11.272 14.9974 11.0649 14.7128C10.7022 14.2151 10.9524 13.6468 11.5834 13.5722C12.1174 13.5107 12.6554 13.4631 13.1935 13.4443C13.8016 13.4229 14.4163 13.4393 15.022 13.4393L15.0244 13.3467Z" fill="white"/>
</g>
<defs>
<clipPath id="clip0_0_247">
<rect width="30" height="30" fill="white"/>
</clipPath>
</defs>
</svg>
