<svg width="40" height="49" viewBox="0 0 40 49" fill="none" xmlns="http://www.w3.org/2000/svg">
<path d="M25.08 38.6194V47.8723" stroke="#A9612D" stroke-width="1.7" stroke-linecap="round" stroke-linejoin="round"/>
<path d="M17.2424 43.5285V38.5506" stroke="#A9612D" stroke-width="1.7" stroke-linecap="round" stroke-linejoin="round"/>
<path d="M17.2424 46.2814V48.1456" stroke="#A9612D" stroke-width="1.7" stroke-linecap="round" stroke-linejoin="round"/>
<path d="M0.85454 48.1458H38.891" stroke="#A9612D" stroke-width="1.7" stroke-linecap="round" stroke-linejoin="round"/>
<path d="M30.5263 48.1456C30.0153 47.165 29.8306 46.0468 29.9992 44.954" stroke="#A9612D" stroke-width="1.7" stroke-linecap="round" stroke-linejoin="round"/>
<path d="M30.9851 48.1456C31.2125 46.9817 31.8894 45.9543 32.8689 45.2858" stroke="#A9612D" stroke-width="1.7" stroke-linecap="round" stroke-linejoin="round"/>
<path d="M11.2787 48.1452C11.1489 47.5894 11.1709 47.0088 11.3427 46.4645C11.5144 45.9201 11.8295 45.4319 12.2547 45.0512" stroke="#A9612D" stroke-width="1.7" stroke-linecap="round" stroke-linejoin="round"/>
<path d="M10.5076 47.8136C10.0533 47.4569 9.75626 46.937 9.67969 46.3645C9.60312 45.792 9.75304 45.2123 10.0977 44.7488" stroke="#A9612D" stroke-width="1.7" stroke-linecap="round" stroke-linejoin="round"/>
<path d="M14.9096 21.4111C14.9663 20.9032 15.2198 20.4378 15.6158 20.1148C16.0118 19.7918 16.5188 19.6369 17.0277 19.6835M17.0277 25.5398H8.15538H17.2717C19.2238 25.5398 20.7659 24.1831 20.7659 22.6117C20.7659 21.0402 19.136 19.6835 17.1351 19.6835H17.0667" stroke="#A9612D" stroke-width="1.7" stroke-linecap="round" stroke-linejoin="round"/>
<path d="M12.4695 31.6402C12.4682 31.7807 12.4948 31.9201 12.5477 32.0503C12.6006 32.1805 12.6787 32.299 12.7776 32.3988C12.8766 32.4986 12.9943 32.5779 13.124 32.6319C13.2537 32.686 13.3928 32.7138 13.5334 32.7138C14.0175 32.7229 14.4853 32.5393 14.834 32.2034C15.1827 31.8675 15.3837 31.4069 15.3928 30.9228C15.4018 30.4387 15.2182 29.9709 14.8824 29.6222C14.5465 29.2735 14.0858 29.0725 13.6018 29.0634H4.71979" stroke="#A9612D" stroke-width="1.7" stroke-linecap="round" stroke-linejoin="round"/>
<path d="M0.85454 18.3961H5.43225" stroke="#A9612D" stroke-width="1.7" stroke-linecap="round" stroke-linejoin="round"/>
<path d="M5.73473 8.22558H12.8208" stroke="#A9612D" stroke-width="1.7" stroke-linecap="round" stroke-linejoin="round"/>
<path d="M28.1838 3.96971C28.8475 5.9218 26.9833 6.3415 27.6471 6.3415C30.1652 6.75144 32.8298 9.73814 32.5273 12.1002C32.1369 14.6964 29.8333 14.9209 30.2726 15.1064C31.4832 15.6649 32.5128 16.5519 33.2444 17.6665C33.976 18.7812 34.3802 20.0787 34.411 21.4116C34.411 23.7151 32.3613 25.023 30.2726 26.0771C32.0782 27.1996 34.0401 29.5323 34.0401 31.6406C34.0401 35.0567 31.5121 37.3212 27.6958 37.3212C27.1911 37.3222 26.6877 37.2732 26.1928 37.1748C25.6593 37.9813 24.9344 38.6432 24.0828 39.1013C23.2312 39.5595 22.2795 39.7996 21.3125 39.8003C20.4105 39.8132 19.5148 39.6474 18.6771 39.3124C17.8395 38.9773 17.0766 38.4797 16.4323 37.8482C15.766 38.067 15.0732 38.1951 14.3727 38.2289C10.1074 38.6388 8.0773 35.5252 8.0773 32.2945C8.23293 31.1717 8.70332 30.1159 9.43402 29.2493C7.76498 28.2732 7.1208 26.3211 7.1208 24.2519C7.11996 23.2462 7.37812 22.2572 7.87047 21.3802C8.36281 20.5032 9.07275 19.7678 9.93181 19.2448C9.42929 18.5657 9.10931 17.769 9.00259 16.931C8.89588 16.0929 9.00597 15.2415 9.32226 14.4581C9.63855 13.6747 10.1505 12.9856 10.8092 12.4565C11.4679 11.9275 12.2512 11.5763 13.0844 11.4365C12.9548 11.0193 12.889 10.5849 12.8893 10.1481C12.8893 8.97801 13.354 7.85587 14.1814 7.02851C15.0088 6.20116 16.1308 5.73635 17.3009 5.73635C17.853 5.7552 18.4037 5.80407 18.9505 5.88276C18.9505 5.36545 19.6532 0.416907 24.7189 0.885408C25.8809 1.08273 26.9261 1.70987 27.6471 2.64229" stroke="#A9612D" stroke-width="1.7" stroke-linecap="round" stroke-linejoin="round"/>
</svg>
