<svg width="20" height="28" viewBox="0 0 20 28" fill="none" xmlns="http://www.w3.org/2000/svg">
<path d="M9.49776 0C4.25286 0 0 4.52021 0 10.0984C0 14.5224 5.97448 23.7858 8.45235 27.4273C8.56396 27.6026 8.71904 27.7471 8.90308 27.8472C9.08712 27.9474 9.29407 27.9999 9.50444 27.9999C9.71482 27.9999 9.92172 27.9474 10.1058 27.8472C10.2898 27.7471 10.4449 27.6026 10.5565 27.4273C13.03 23.7858 19.0089 14.5224 19.0089 10.0984C19 4.52021 14.7471 0 9.49776 0ZM9.49776 13.9235C8.73933 13.9235 7.99791 13.7025 7.3673 13.2884C6.73669 12.8744 6.24519 12.2858 5.95495 11.5973C5.66471 10.9087 5.5888 10.151 5.73676 9.42003C5.88472 8.68905 6.24995 8.0176 6.78624 7.49059C7.32254 6.96359 8.00581 6.60469 8.74967 6.45929C9.49353 6.31389 10.2645 6.38852 10.9652 6.67373C11.6659 6.95894 12.2648 7.44194 12.6862 8.06164C13.1075 8.68133 13.3325 9.40989 13.3325 10.1552C13.3354 10.6517 13.2383 11.1438 13.0469 11.6033C12.8554 12.0628 12.5734 12.4805 12.2169 12.8324C11.8605 13.1843 11.4367 13.4634 10.9701 13.6537C10.5034 13.8439 10.003 13.9416 9.49776 13.941V13.9235Z" fill="white"/>
</svg>
