<svg width="28" height="28" viewBox="0 0 28 28" fill="none" xmlns="http://www.w3.org/2000/svg">
<g clip-path="url(#clip0_0_241)">
<path d="M10.4276 16.5908H23.5952C25.8073 16.5908 26.808 20.0691 25.105 21.4604C22.7803 23.2128 19.913 24.1104 16.9938 23.9995C14.0722 24.1088 11.2026 23.2115 8.87387 21.4604C7.21476 20.1213 8.20671 16.5908 10.4276 16.5908Z" fill="white"/>
<path d="M17.0287 14.3742C18.0704 14.3742 19.0888 14.0682 19.9549 13.495C20.8211 12.9217 21.4962 12.1068 21.8948 11.1535C22.2935 10.2001 22.3978 9.15106 22.1945 8.13898C21.9913 7.12691 21.4897 6.19726 20.7531 5.46759C20.0165 4.73793 19.078 4.24102 18.0563 4.03971C17.0346 3.83839 15.9756 3.94171 15.0131 4.33661C14.0507 4.7315 13.2281 5.40022 12.6494 6.25822C12.0706 7.11622 11.7617 8.12494 11.7617 9.15685C11.7617 10.5406 12.3166 11.8676 13.3044 12.8461C14.2921 13.8246 15.6318 14.3742 17.0287 14.3742Z" fill="white"/>
<path d="M6.44228 8.33008H6.36327C5.91724 8.33008 5.55566 8.68825 5.55566 9.13008V16.2518C5.55566 16.6936 5.91724 17.0518 6.36327 17.0518H6.44228C6.88831 17.0518 7.24988 16.6936 7.24988 16.2518V9.13008C7.24988 8.68825 6.88831 8.33008 6.44228 8.33008Z" fill="white"/>
<path d="M10.8047 12.7308V12.6525C10.8047 12.2107 10.4431 11.8525 9.99708 11.8525H2.80761C2.36158 11.8525 2.00001 12.2107 2.00001 12.6525V12.7308C2.00001 13.1726 2.36158 13.5308 2.80761 13.5308H9.99708C10.4431 13.5308 10.8047 13.1726 10.8047 12.7308Z" fill="white"/>
</g>
<defs>
<clipPath id="clip0_0_241">
<rect width="24" height="20" fill="white" transform="translate(2 4)"/>
</clipPath>
</defs>
</svg>
