<svg width="22" height="21" viewBox="0 0 22 21" fill="none" xmlns="http://www.w3.org/2000/svg">
<path fill-rule="evenodd" clip-rule="evenodd" d="M18.286 13.8659C18.2272 13.5653 18.2669 13.2552 18.4 12.9756C18.5268 12.7015 18.7372 12.4677 19.0055 12.303C19.2738 12.1383 19.5882 12.05 19.91 12.0488H20C20.5304 12.0488 21.0391 11.8535 21.4142 11.5059C21.7893 11.1582 22 10.6867 22 10.1951C22 9.7035 21.7893 9.23202 21.4142 8.88439C21.0391 8.53676 20.5304 8.34146 20 8.34146H19.83C19.5082 8.34027 19.1938 8.2519 18.9255 8.08723C18.6572 7.92255 18.4468 7.68876 18.32 7.41463V7.34049C18.1869 7.06094 18.1472 6.75084 18.206 6.45019C18.2648 6.14953 18.4195 5.87209 18.65 5.65366L18.71 5.59805C18.896 5.42589 19.0435 5.22146 19.1441 4.99643C19.2448 4.7714 19.2966 4.53018 19.2966 4.28659C19.2966 4.04299 19.2448 3.80178 19.1441 3.57674C19.0435 3.35171 18.896 3.14728 18.71 2.97512C18.5243 2.80278 18.3037 2.66605 18.0609 2.57277C17.8181 2.47948 17.5578 2.43147 17.295 2.43147C17.0322 2.43147 16.7719 2.47948 16.5291 2.57277C16.2863 2.66605 16.0657 2.80278 15.88 2.97512L15.82 3.03073C15.5843 3.2444 15.285 3.38773 14.9606 3.44225C14.6362 3.49676 14.3016 3.45996 14 3.33659C13.7042 3.2191 13.452 3.02402 13.2743 2.77536C13.0966 2.5267 13.0013 2.23531 13 1.93707V1.85366C13 1.36204 12.7893 0.890552 12.4142 0.542924C12.0391 0.195296 11.5304 0 11 0C10.4696 0 9.96086 0.195296 9.58579 0.542924C9.21071 0.890552 9 1.36204 9 1.85366V2.01122C8.99872 2.30946 8.90337 2.60085 8.72569 2.8495C8.54802 3.09816 8.29577 3.29324 8 3.41073H7.92C7.61838 3.53411 7.28381 3.57091 6.95941 3.51639C6.63502 3.46188 6.33568 3.31855 6.1 3.10488L6.04 3.04927C5.85425 2.87692 5.63368 2.7402 5.39088 2.64691C5.14808 2.55363 4.88783 2.50561 4.625 2.50561C4.36217 2.50561 4.10192 2.55363 3.85912 2.64691C3.61632 2.7402 3.39575 2.87692 3.21 3.04927C3.02405 3.22142 2.87653 3.42586 2.77588 3.65089C2.67523 3.87592 2.62343 4.11713 2.62343 4.36073C2.62343 4.60433 2.67523 4.84554 2.77588 5.07057C2.87653 5.2956 3.02405 5.50004 3.21 5.67219L3.27 5.7278C3.50054 5.94624 3.65519 6.22367 3.714 6.52433C3.77282 6.82499 3.73312 7.13509 3.6 7.41463C3.48572 7.70263 3.28059 7.95211 3.0113 8.13062C2.742 8.30913 2.42099 8.40843 2.09 8.41561H2C1.46957 8.41561 0.960859 8.61091 0.585786 8.95853C0.210714 9.30616 0 9.77765 0 10.2693C0 10.7609 0.210714 11.2324 0.585786 11.58C0.960859 11.9276 1.46957 12.1229 2 12.1229H2.17C2.49179 12.1241 2.80618 12.2125 3.07447 12.3772C3.34276 12.5418 3.55324 12.7756 3.68 13.0498C3.81312 13.3293 3.85282 13.6394 3.794 13.9401C3.73519 14.2407 3.58054 14.5182 3.35 14.7366L3.29 14.7922C3.10405 14.9643 2.95653 15.1688 2.85588 15.3938C2.75523 15.6188 2.70343 15.8601 2.70343 16.1037C2.70343 16.3473 2.75523 16.5885 2.85588 16.8135C2.95653 17.0385 3.10405 17.243 3.29 17.4151C3.47575 17.5875 3.69632 17.7242 3.93912 17.8175C4.18192 17.9108 4.44217 17.9588 4.705 17.9588C4.96783 17.9588 5.22808 17.9108 5.47088 17.8175C5.71368 17.7242 5.93425 17.5875 6.12 17.4151L6.18 17.3595C6.41568 17.1458 6.71502 17.0025 7.03941 16.948C7.36381 16.8935 7.69838 16.9303 8 17.0537C8.31074 17.1596 8.5799 17.3497 8.77251 17.5993C8.96512 17.8489 9.07226 18.1464 9.08 18.4532V18.5366C9.08 19.0282 9.29071 19.4997 9.66579 19.8473C10.0409 20.1949 10.5496 20.3902 11.08 20.3902C11.6104 20.3902 12.1191 20.1949 12.4942 19.8473C12.8693 19.4997 13.08 19.0282 13.08 18.5366V18.379C13.0813 18.0808 13.1766 17.7894 13.3543 17.5407C13.532 17.2921 13.7842 17.097 14.08 16.9795C14.3816 16.8561 14.7162 16.8193 15.0406 16.8738C15.365 16.9284 15.6643 17.0717 15.9 17.2854L15.96 17.341C16.1457 17.5133 16.3663 17.65 16.6091 17.7433C16.8519 17.8366 17.1122 17.8846 17.375 17.8846C17.6378 17.8846 17.8981 17.8366 18.1409 17.7433C18.3837 17.65 18.6043 17.5133 18.79 17.341C18.976 17.1688 19.1235 16.9644 19.2241 16.7394C19.3248 16.5143 19.3766 16.2731 19.3766 16.0295C19.3766 15.7859 19.3248 15.5447 19.2241 15.3197C19.1235 15.0946 18.976 14.8902 18.79 14.718L18.73 14.6624C18.4995 14.444 18.3448 14.1666 18.286 13.8659ZM9 9.8742C9 8.83317 9.87201 7.94737 11 7.94737C12.128 7.94737 13 8.83317 13 9.8742C13 10.9152 12.128 11.801 11 11.801C9.87201 11.801 9 10.9152 9 9.8742ZM11 5.94737C8.81428 5.94737 7 7.68233 7 9.8742C7 12.0661 8.81428 13.801 11 13.801C13.1857 13.801 15 12.0661 15 9.8742C15 7.68233 13.1857 5.94737 11 5.94737Z" fill="#00509A"/>
</svg>
