<svg width="20" height="32" viewBox="0 0 20 32" fill="none" xmlns="http://www.w3.org/2000/svg">
<g clip-path="url(#clip0_0_154)">
<path d="M9.98105 31.999C7.66106 31.999 5.34137 31.999 3.02199 31.999C1.1816 31.999 0.0111216 30.838 0.0101963 29.0159C0.0101963 27.215 0.0166733 25.415 0.0101963 23.6141C-0.00271099 22.8377 0.274918 22.0843 0.789283 21.4997C3.48926 18.3171 6.18615 15.1323 8.87996 11.9454C8.97324 11.8231 9.09494 11.7252 9.23465 11.6598C9.37436 11.5945 9.52792 11.5638 9.68218 11.5703C11.5636 11.5807 13.445 11.5807 15.3264 11.5703C15.4864 11.5608 15.6461 11.5946 15.7882 11.6683C15.9303 11.742 16.0496 11.8527 16.1333 11.9886C17.2208 13.5551 18.3175 15.1145 19.4236 16.6669C19.8083 17.203 20.0103 17.8472 20 18.5055C20 22.0265 20 25.5465 20 29.0674C20 30.8297 18.8147 32.0018 17.0465 32.0036C14.6895 32.0036 12.3344 32.0021 9.98105 31.999ZM11.1201 16.5456C7.46706 16.5456 4.45803 19.514 4.44785 23.1462C4.43768 26.7783 7.44115 29.7909 11.1099 29.7964C14.7786 29.8019 17.7516 26.8445 17.7766 23.194C17.8015 19.5434 14.7925 16.5511 11.1201 16.5456Z" fill="white"/>
<path d="M10.118 0.000876919H17.8099C19.1164 0.000876919 19.951 0.828249 19.9547 2.12814C19.9547 2.79372 19.9547 3.45899 19.9547 4.12395C19.9547 4.85296 19.6576 5.43671 19.0507 5.84764C18.2882 6.36429 17.5341 6.89748 16.7374 7.35989C16.3817 7.56652 15.9797 7.68184 15.5679 7.69544C13.375 7.7267 11.1811 7.70831 8.9882 7.71199C8.70478 7.71802 8.42315 7.66604 8.16081 7.55929C7.89848 7.45254 7.66106 7.29329 7.46334 7.09146C7.06269 6.69432 6.65371 6.30545 6.26047 5.89636C6.14122 5.76442 5.99392 5.6605 5.82924 5.59212C5.66456 5.52375 5.48663 5.49265 5.30835 5.50106C4.30442 5.51577 3.30049 5.50842 2.29563 5.50106C0.902151 5.50106 0.0111034 4.60658 0 3.21476C0 2.90587 0 2.59607 0 2.28626C0.0055517 0.88065 0.897526 -0.00371937 2.32339 -0.00463867C4.9222 -0.0040258 7.5204 -0.00218742 10.118 0.000876919Z" fill="white"/>
<path d="M7.27278 8.34824C6.30781 9.42319 5.00668 10.144 3.57905 10.3946C3.38659 10.4305 3.19043 10.4461 2.99612 10.4682C2.71853 10.4985 2.4613 10.4682 2.30678 10.1924C2.16151 9.93312 2.26977 9.71525 2.40949 9.4891C2.67412 9.05978 2.9443 8.63139 3.16822 8.18093C3.37731 7.7482 3.56083 7.30373 3.71784 6.84978C3.77891 6.68155 3.84553 6.59146 4.02873 6.61812C4.05175 6.62133 4.07511 6.62133 4.09813 6.61812C5.02341 6.46735 5.77104 6.73854 6.3623 7.48318C6.61397 7.80126 6.95725 8.05223 7.27278 8.34824Z" fill="white"/>
<path d="M12.4432 10.4644H9.5989C9.03725 10.4644 8.8707 10.2989 8.86792 9.75379C8.86792 9.65083 8.86792 9.54695 8.86792 9.44398C8.87625 9.00823 9.06131 8.81794 9.50544 8.81426C10.1753 8.80783 10.8443 8.81426 11.5142 8.81426H15.2894C15.9195 8.81426 16.0712 8.96319 16.0722 9.57636C16.0722 9.65726 16.0722 9.73724 16.0722 9.81722C16.0611 10.2769 15.8779 10.4607 15.4171 10.4653C14.4242 10.4662 13.4314 10.4644 12.4432 10.4644Z" fill="white"/>
<path d="M9.42118 24.7835H7.96478C7.04783 24.7835 6.6518 24.3919 6.65088 23.4919C6.65088 23.2161 6.65088 22.9403 6.65088 22.6645C6.65828 21.9171 7.08299 21.4878 7.82784 21.4786C8.32379 21.4722 8.81975 21.4786 9.3157 21.4722C9.35201 21.4647 9.38739 21.4533 9.42118 21.4381C9.42118 20.9638 9.42118 20.4747 9.42118 19.9856C9.42118 19.1325 9.83571 18.7253 10.6971 18.7234C11.008 18.7234 11.3199 18.717 11.6317 18.7234C12.2979 18.7409 12.7309 19.1693 12.742 19.8266C12.7522 20.3626 12.742 20.8985 12.742 21.4712C13.2657 21.4712 13.7598 21.4712 14.2512 21.4712C15.0922 21.4712 15.5114 21.8849 15.5151 22.7105C15.5151 22.9973 15.5151 23.2841 15.5151 23.5709C15.5077 24.3367 15.0821 24.766 14.3187 24.7743C13.8339 24.7789 13.349 24.7743 12.8651 24.7743C12.8243 24.7788 12.7839 24.7856 12.7439 24.7945V26.1735C12.7439 27.1507 12.3738 27.5202 11.3828 27.5202C11.1052 27.5202 10.8276 27.5258 10.55 27.5202C9.86809 27.5055 9.42765 27.0698 9.4184 26.3959C9.41563 25.8848 9.42118 25.359 9.42118 24.7835Z" fill="white"/>
</g>
<defs>
<clipPath id="clip0_0_154">
<rect width="20" height="32" fill="white"/>
</clipPath>
</defs>
</svg>
