<svg width="36" height="36" viewBox="0 0 36 36" fill="none" xmlns="http://www.w3.org/2000/svg">
<path d="M3 11.5C3 10.9477 3.44772 10.5 4 10.5H32C32.5523 10.5 33 10.9477 33 11.5V14C33 14.5523 32.5523 15 32 15H30L31.3766 27.3896C31.4424 27.9819 30.9787 28.5 30.3827 28.5H28.6443C28.135 28.5 27.7071 28.1174 27.6505 27.6113L26.91 21H9.09L8.34953 27.6113C8.29286 28.1174 7.86496 28.5 7.35575 28.5H5.61726C5.02125 28.5 4.55756 27.9819 4.62338 27.3896L6 15H4C3.44772 15 3 14.5523 3 14V11.5ZM26.25 15H9.75L9.435 18H26.565L26.25 15Z" fill="white"/>
</svg>
