<svg width="27" height="15" viewBox="0 0 27 15" fill="none" xmlns="http://www.w3.org/2000/svg">
<path d="M23.6087 14.6011C23.6997 14.5654 23.7873 14.5271 23.8735 14.4861C23.9598 14.445 24.0589 14.3939 24.1451 14.3428L24.7006 14.0234L25.0673 13.8122C26.0268 13.2601 26.3779 12.4868 26.1226 11.7706C26.109 11.7322 26.0934 11.6939 26.0764 11.6562C26.0352 11.5657 25.9861 11.4788 25.9297 11.3967C25.9046 11.3597 25.8775 11.3227 25.8483 11.287C25.6267 11.0192 25.3557 10.7955 25.0497 10.628L21.2937 8.48074L21.1267 8.38458L20.7552 8.17275L20.5875 8.07658L13.6536 4.1089L13.4858 4.01341L13.0471 3.76257L12.8794 3.66708L8.19996 0.992589L8.03155 0.896424L7.60917 0.655676C6.07788 -0.218559 3.57959 -0.218559 2.0578 0.655676L1.95118 0.717544L1.1363 1.18829C-0.177015 1.94349 -0.350856 3.11429 0.609345 3.98382C0.775829 4.13249 0.95796 4.26304 1.1526 4.37319L1.50096 4.57493L18.5945 14.3475C19.9573 15.1222 22.0842 15.2076 23.6087 14.6011Z" fill="#E4EEFA"/>
</svg>
