<svg width="36" height="36" viewBox="0 0 36 36" fill="none" xmlns="http://www.w3.org/2000/svg">
<g clip-path="url(#clip0_0_82)">
<path d="M31.9999 10.3645C31.8486 10.9759 31.7631 11.6092 31.5459 12.1941C30.7952 14.194 29.3786 15.537 27.362 16.24C27.2628 16.2748 27.088 16.2597 27.0207 16.1938C26.1126 15.3025 25.2121 14.3983 24.3124 13.4963C24.2821 13.4602 24.254 13.4223 24.2284 13.3828C24.7634 13.3011 25.2719 13.2315 25.7781 13.1452C27.7366 12.8206 28.7718 11.0394 28.5833 9.41713C28.4841 8.54411 28.0511 7.74325 27.375 7.18201C26.6989 6.62076 25.832 6.34257 24.9556 6.4056C23.2908 6.52818 22.0263 7.7676 21.8091 9.48296C21.7561 9.90291 21.6911 10.3213 21.626 10.7822C21.5405 10.7065 21.4746 10.6611 21.4194 10.6051C20.5643 9.75158 19.7137 8.89276 18.8518 8.04605C18.7156 7.91212 18.7005 7.8024 18.7542 7.62837C19.7281 4.64862 22.8118 2.67447 25.925 3.04448C29.1312 3.42282 31.5315 5.8048 31.9523 9.0161C31.964 9.0705 31.9807 9.1237 32.0022 9.175L31.9999 10.3645Z" fill="white"/>
<path d="M9.17266 32.0006C8.5809 31.8492 7.97173 31.7547 7.40116 31.5466C4.711 30.5811 2.94783 27.9312 3.00156 24.9886C3.0515 22.207 4.98115 19.6109 7.62818 18.7529C7.80147 18.6969 7.91044 18.7112 8.04589 18.8482C8.88586 19.704 9.73717 20.5477 10.5847 21.3959C10.643 21.4542 10.6967 21.5177 10.7883 21.6176C10.2328 21.7008 9.71599 21.7689 9.19914 21.856C7.4844 22.1412 6.29331 23.6772 6.39926 25.4615C6.49385 27.0822 7.93314 28.5108 9.5548 28.5956C11.3301 28.6871 12.8519 27.503 13.1371 25.7959C13.2234 25.2852 13.2923 24.7706 13.3748 24.2213C13.4365 24.2676 13.4957 24.3174 13.5518 24.3704C14.4213 25.2375 15.2855 26.1107 16.1603 26.9695C16.2912 27.0981 16.3003 27.2079 16.242 27.3645C15.2582 29.9984 13.377 31.5193 10.6029 31.9469C10.5211 31.9597 10.4402 31.9824 10.3592 32.0006H9.17266Z" fill="white"/>
<path d="M26.1316 26.7185C26.1081 28.3922 25.5262 29.836 24.376 31.0436C23.7835 31.6641 22.9155 31.6989 22.3328 31.1374C21.76 30.5888 21.7532 29.7262 22.3169 29.1073C23.679 27.6151 23.6359 25.638 22.2125 24.2139C18.608 20.6092 15.0024 17.0059 11.3959 13.4042C11.0024 13.0115 10.7905 12.5658 10.9116 12.0036C10.9611 11.7621 11.0732 11.5379 11.2365 11.3532C11.3998 11.1685 11.6088 11.0299 11.8424 10.9512C12.076 10.8725 12.3262 10.8564 12.568 10.9046C12.8098 10.9528 13.0347 11.0635 13.2203 11.2257C13.2846 11.281 13.3444 11.3423 13.4042 11.402L24.236 22.233C25.478 23.4734 26.1099 24.9686 26.1316 26.7185Z" fill="white"/>
<path d="M26.5198 18.6979C26.5062 19.2775 26.2482 19.7163 25.7268 19.9698C25.2054 20.2233 24.7007 20.1582 24.2353 19.8117C24.1608 19.7536 24.0907 19.6902 24.0257 19.6218C21.1415 16.7389 18.2579 13.8552 15.3748 10.9708C14.7414 10.3367 14.7179 9.46124 15.3097 8.88164C15.5582 8.63785 15.888 8.49444 16.2357 8.47894C16.5835 8.46344 16.9247 8.57694 17.1939 8.79764C17.2592 8.85208 17.3214 8.91019 17.3801 8.97168C20.2642 11.8546 23.1484 14.7375 26.0325 17.6204C26.3329 17.92 26.5229 18.2628 26.5198 18.6979Z" fill="white"/>
<path d="M20.1111 25.2558C20.0982 25.6818 19.8409 26.1236 19.3211 26.3764C18.8148 26.6223 18.3131 26.5716 17.8515 26.2379C17.7691 26.1749 17.6916 26.1056 17.62 26.0306C14.7353 23.1477 11.8509 20.2648 8.96679 17.3819C8.54227 16.9581 8.36898 16.4686 8.54076 15.889C8.60739 15.6667 8.72798 15.4644 8.89178 15.3C9.05558 15.1356 9.2575 15.0143 9.47955 14.9469C9.7016 14.8795 9.93688 14.868 10.1644 14.9136C10.392 14.9592 10.6047 15.0603 10.7837 15.208C10.856 15.2685 10.9252 15.3326 10.991 15.4002C13.862 18.2679 16.7336 21.137 19.6056 24.0073C19.9083 24.3099 20.1141 24.6565 20.1111 25.2558Z" fill="white"/>
</g>
<defs>
<clipPath id="clip0_0_82">
<rect width="29" height="29" fill="white" transform="translate(3 3)"/>
</clipPath>
</defs>
</svg>
