<svg width="22" height="22" viewBox="0 0 22 22" fill="none" xmlns="http://www.w3.org/2000/svg">
<g clip-path="url(#clip0_1018_24675)">
<path d="M7.12307 7.76429L14.6234 13.889L15.0954 13.311C15.1022 13.3037 15.1074 13.2951 15.1106 13.2857C15.1138 13.2763 15.1149 13.2663 15.1139 13.2564C15.1129 13.2465 15.1098 13.2369 15.1048 13.2283C15.0998 13.2198 15.093 13.2123 15.0849 13.2066L9.86147 8.88134L13.3835 8.23255C13.3971 8.23044 13.4098 8.22434 13.4199 8.21501C13.4301 8.20569 13.4372 8.19356 13.4404 8.18018C13.4437 8.1668 13.4429 8.15276 13.4381 8.13984C13.4334 8.12692 13.4249 8.1157 13.4137 8.1076L11.9273 6.89381C11.9193 6.88771 11.91 6.88356 11.9001 6.8817C11.8901 6.87984 11.8799 6.88032 11.8702 6.88309L7.15436 7.74796C7.14253 7.75016 7.13164 7.75584 7.12307 7.76429Z" fill="#08863A"/>
<path d="M8.64128 13.8934C8.65222 13.9018 8.66528 13.907 8.67899 13.9083C8.69271 13.9097 8.70654 13.9073 8.71893 13.9012C8.73132 13.8952 8.74178 13.8858 8.74914 13.8741C8.7565 13.8625 8.76047 13.849 8.7606 13.8352L8.73501 10.2535L13.9614 14.5752C13.9766 14.5876 13.9961 14.5935 14.0157 14.5915C14.0353 14.5896 14.0533 14.5799 14.0657 14.5647L14.6198 13.8861L7.12312 7.76429C7.1161 7.76804 7.10989 7.77315 7.10486 7.77931C7.09983 7.78547 7.09607 7.79257 7.0938 7.80019L7.11795 12.6076C7.11664 12.6184 7.1183 12.6295 7.1228 12.6395C7.12729 12.6495 7.13443 12.658 7.14344 12.6643L8.64128 13.8934Z" fill="#08863A"/>
</g>
<defs>
<clipPath id="clip0_1018_24675">
<rect width="7.20861" height="9.29426" fill="white" transform="matrix(-0.659293 0.80737 0.80737 0.659293 9.48036 4.87762)"/>
</clipPath>
</defs>
</svg>
