<svg width="27" height="15" viewBox="0 0 27 15" fill="none" xmlns="http://www.w3.org/2000/svg">
<path d="M25.049 10.6274L19.7822 7.61975L19.6138 7.5236L7.60879 0.656376C7.10494 0.37911 6.55634 0.190509 5.98738 0.0989571C5.91949 0.0875263 5.85566 0.0767657 5.7898 0.0673521C4.49295 -0.117558 3.06302 0.0781112 2.05881 0.656376L1.95085 0.718235L1.13608 1.18892C-0.0249761 1.85728 -0.29521 2.84975 0.321303 3.67142C0.349368 3.70773 0.378564 3.74404 0.408892 3.78035C0.449631 3.82607 0.492407 3.87247 0.538577 3.91483L0.609869 3.98207L0.652645 4.02039C0.807992 4.15294 0.975785 4.27048 1.15373 4.37139L1.50273 4.57311L7.60471 8.06152L7.77242 8.15767L8.15333 8.37553L8.32103 8.47102L13.1207 11.211L13.2884 11.3072L13.6449 11.5089L13.8133 11.6044L18.594 14.3438C19.2546 14.721 20.0945 14.9361 20.9582 14.9872C21.0261 14.9919 21.0974 14.9953 21.1666 14.9973C22.2408 15.0296 23.3319 14.8111 24.1446 14.3431L24.7 14.0244L25.0667 13.8126C25.6676 13.4676 26.0295 13.0353 26.1531 12.5841C26.1646 12.5417 26.1741 12.5 26.1816 12.4577C26.297 11.8028 25.9195 11.1256 25.049 10.6274Z" fill="#E4EEFA"/>
</svg>
