<svg width="45" height="42" viewBox="0 0 45 42" fill="none" xmlns="http://www.w3.org/2000/svg">
<path d="M19.2997 32.3856L21.4907 33.9565L14.8925 40.2574H1V31.4515L2.43506 31.2137L14.0774 29.32L17.1514 28.819L23.4692 27.7915L23.69 28.9209L19.2997 32.3856Z" stroke="#A9612D" stroke-width="1.7" stroke-linecap="round" stroke-linejoin="round"/>
<path d="M43.34 30.9417V39.7477H27.1207L33.3282 32.6061L29.1842 31.8758L33.3282 28.3008L40.5887 30.2114L43.34 30.9417Z" stroke="#A9612D" stroke-width="1.7" stroke-linecap="round" stroke-linejoin="round"/>
<path d="M40.9793 5.89126L39.1196 29.7022L31.8591 27.7915L30.1014 25.8469L29.6343 18.7223L23.69 27.2651L20.3697 27.8085L17.3042 28.3095L18.111 12.1242L18.5525 3.40317L31.6043 1L40.9793 5.89126Z" stroke="#A9612D" stroke-width="1.7" stroke-linecap="round" stroke-linejoin="round"/>
<path d="M18.1109 12.1243L17.3041 28.3097L5.65343 30.2033L4.31177 13.7038L11.4448 9.67871L18.1109 12.1243Z" stroke="#A9612D" stroke-width="1.7" stroke-linecap="round" stroke-linejoin="round"/>
<path d="M23.121 9.9502L27.1207 10.2134" stroke="#A9612D" stroke-width="1.7" stroke-linecap="round" stroke-linejoin="round"/>
<path d="M33.9141 10.6299L37.9137 10.9016" stroke="#A9612D" stroke-width="1.7" stroke-linecap="round" stroke-linejoin="round"/>
<path d="M23.0531 14.4087L26.6451 14.6719" stroke="#A9612D" stroke-width="1.7" stroke-linecap="round" stroke-linejoin="round"/>
<path d="M7.62354 17.3805L11.2156 16.9644" stroke="#A9612D" stroke-width="1.7" stroke-linecap="round" stroke-linejoin="round"/>
<path d="M8.0481 21.0914L11.6402 20.6753" stroke="#A9612D" stroke-width="1.7" stroke-linecap="round" stroke-linejoin="round"/>
<path d="M8.45581 24.6495L12.0478 24.2334" stroke="#A9612D" stroke-width="1.7" stroke-linecap="round" stroke-linejoin="round"/>
<path d="M33.7782 15.2153L37.3702 15.4871" stroke="#A9612D" stroke-width="1.7" stroke-linecap="round" stroke-linejoin="round"/>
<path d="M22.7305 18.7393L26.3225 19.0025" stroke="#A9612D" stroke-width="1.7" stroke-linecap="round" stroke-linejoin="round"/>
<path d="M33.4385 19.8091L37.0305 20.0723" stroke="#A9612D" stroke-width="1.7" stroke-linecap="round" stroke-linejoin="round"/>
</svg>
