<svg width="19" height="15" viewBox="0 0 19 15" fill="none" xmlns="http://www.w3.org/2000/svg">
<path d="M0.00293007 5.93827H16.4237V6.84701C16.3703 6.82922 16.3164 6.81292 16.2635 6.79315C15.8965 6.65775 15.5285 6.52285 15.1635 6.38498C14.9739 6.3127 14.7645 6.31376 14.5756 6.38795C13.5565 6.76795 12.5359 7.144 11.5173 7.52449C11.1371 7.66631 10.9592 7.93661 10.9583 8.36701C10.9583 9.52184 10.9583 10.6767 10.9583 11.8532C10.9122 11.8557 10.8475 11.8606 10.7824 11.8606C7.61401 11.8606 4.44696 11.8606 1.28122 11.8606C0.479655 11.8606 0.00734096 11.3813 0.00734096 10.5694C0.00734096 9.09292 0.00734096 7.61657 0.00734096 6.14038L0.00293007 5.93827Z" fill="#2C3E4F"/>
<path d="M0.0146503 5.13012V2.38117H16.4281V5.13012H0.0146503Z" fill="#2C3E4F"/>
<path d="M17.9994 10.0913C17.9994 10.5731 18.0034 11.0555 17.9994 11.5373C17.9901 12.546 17.5036 13.311 16.7705 13.9406C16.2445 14.3852 15.6462 14.7348 15.0021 14.9739C14.9306 15.0037 14.8511 15.0083 14.7767 14.9868C13.9854 14.671 13.2577 14.2524 12.655 13.6312C12.0523 13.01 11.7285 12.2702 11.7422 11.3831C11.7574 10.4071 11.7481 9.43057 11.7422 8.45454C11.7422 8.32111 11.7833 8.26279 11.9073 8.21782C12.8496 7.87485 13.7874 7.52101 14.7297 7.18002C14.8252 7.14827 14.9282 7.14827 15.0237 7.18002C15.9659 7.522 16.9038 7.87633 17.8456 8.21782C17.9759 8.26724 18.0058 8.33346 18.0043 8.46047C17.9985 9.00408 18.0019 9.54769 18.0019 10.0913H17.9994ZM14.8218 10.8771C14.6748 10.7209 14.543 10.5761 14.4053 10.4382C14.2093 10.244 13.9677 10.2317 13.8065 10.4017C13.6453 10.5717 13.6595 10.797 13.8497 10.9917C14.0765 11.225 14.3063 11.4558 14.5356 11.6836C14.7909 11.9396 15.0217 11.9223 15.2403 11.6297C15.5379 11.2304 15.8345 10.8305 16.1301 10.4298C16.2109 10.3211 16.2962 10.2158 16.3697 10.1022C16.4289 10.0181 16.4529 9.91377 16.4363 9.81197C16.4196 9.71017 16.3639 9.6191 16.281 9.55857C16.1066 9.43106 15.892 9.45973 15.742 9.63862C15.693 9.69941 15.644 9.76613 15.595 9.82988L14.8218 10.8771Z" fill="#2C3E4F"/>
<path d="M0.0167508 1.57189C-0.0351842 1.07774 0.016749 0.627074 0.41606 0.2871C0.666916 0.0716514 0.961379 0 1.28426 0C3.9251 0.00197659 6.56627 0.00197659 9.20777 0C11.2002 0 13.1927 0 15.1852 0C15.7908 0 16.2596 0.33602 16.39 0.88403C16.4419 1.10146 16.4351 1.33272 16.4561 1.57238L0.0167508 1.57189Z" fill="#2C3E4F"/>
</svg>
