<svg width="55" height="36" viewBox="0 0 55 36" fill="none" xmlns="http://www.w3.org/2000/svg">
<path d="M9.47231 20.3479L1.13293 34.2781L8.13305 34.2625L40.8911 34.1769L26.6105 10.3811L21.0276 1.08398L16.3946 8.80047L11.0685 17.6771" stroke="#08863A" stroke-width="1.7" stroke-linecap="round" stroke-linejoin="round"/>
<path d="M26.6105 10.3811L23.5971 12.3122L20.8173 9.64142L19.0264 11.4713C19.0264 11.4713 17.6093 9.99181 16.4023 8.80047L21.0743 1.08398L26.6105 10.3811Z" stroke="#08863A" stroke-width="1.7" stroke-linecap="round" stroke-linejoin="round"/>
<path d="M27.833 5.80273L34.7475 16.8363" stroke="#08863A" stroke-width="1.7" stroke-linecap="round" stroke-linejoin="round"/>
<path d="M31.7653 5.80273L38.6797 16.8363" stroke="#08863A" stroke-width="1.7" stroke-linecap="round" stroke-linejoin="round"/>
<path d="M41.575 13.597C41.575 13.5533 41.6105 13.5179 41.6542 13.5179C41.6979 13.5179 41.7333 13.5533 41.7333 13.597C41.7333 13.6407 41.6979 13.6762 41.6542 13.6762C41.6104 13.6762 41.575 13.6407 41.575 13.597Z" fill="#08863A" stroke="#08863A" stroke-width="1.7"/>
<path d="M45.4761 15.1311C45.4761 15.268 45.3651 15.379 45.2282 15.379C45.0912 15.379 44.9802 15.268 44.9802 15.1311C44.9802 14.9942 45.0912 14.8832 45.2282 14.8832C45.3651 14.8832 45.4761 14.9942 45.4761 15.1311Z" fill="#08863A" stroke="#08863A" stroke-width="1.7"/>
<path d="M46.9011 19.4364C46.9011 19.4658 46.8772 19.4897 46.8478 19.4897C46.8184 19.4897 46.7946 19.4659 46.7946 19.4364C46.7946 19.407 46.8184 19.3832 46.8478 19.3832C46.8772 19.3832 46.9011 19.4071 46.9011 19.4364Z" fill="#08863A" stroke="#08863A" stroke-width="1.7"/>
<path d="M43.109 19.1954C43.109 19.3624 42.9736 19.4978 42.8066 19.4978C42.6396 19.4978 42.5042 19.3624 42.5042 19.1954C42.5042 19.0283 42.6396 18.893 42.8066 18.893C42.9736 18.893 43.109 19.0284 43.109 19.1954Z" fill="#08863A" stroke="#08863A" stroke-width="1.7"/>
<path d="M35.6897 22.824C35.7363 22.4981 35.8533 22.1862 36.0327 21.9102C36.2121 21.6341 36.4495 21.4004 36.7284 21.2255C37.0073 21.0505 37.3209 20.9384 37.6476 20.8969C37.9742 20.8555 38.3059 20.8857 38.6196 20.9855C38.9333 21.0853 39.2216 21.2523 39.4642 21.4748C39.7069 21.6973 39.8981 21.97 40.0246 22.274C40.1512 22.5779 40.2099 22.9058 40.1969 23.2348C40.1838 23.5637 40.0992 23.8859 39.9489 24.1788C40.5685 23.3528 41.4908 22.8067 42.513 22.6607C43.5352 22.5146 44.5735 22.7806 45.3995 23.4002C46.2256 24.0197 46.7717 24.942 46.9177 25.9642C47.0637 26.9864 46.7977 28.0247 46.1782 28.8508C46.3765 28.5578 46.6416 28.316 46.9516 28.1455C47.2616 27.9749 47.6076 27.8804 47.9613 27.8697C48.5597 27.8507 49.1413 28.0694 49.579 28.4779C50.0167 28.8865 50.2749 29.4516 50.2972 30.0499C50.3072 30.4183 50.2298 30.7839 50.0715 31.1167" stroke="#08863A" stroke-width="1.7" stroke-linecap="round" stroke-linejoin="round"/>
<path d="M54 34.2773H1.26526" stroke="#08863A" stroke-width="1.7" stroke-linecap="round" stroke-linejoin="round"/>
<path d="M14.9229 20.8848L8.12524 34.2777" stroke="#08863A" stroke-width="1.7" stroke-linecap="round" stroke-linejoin="round"/>
</svg>
