<svg width="35" height="28" viewBox="0 0 35 28" fill="none" xmlns="http://www.w3.org/2000/svg">
<path d="M9.27296 4.65094C9.21755 3.34139 9.53399 2.24866 10.39 1.34834C10.7761 0.926274 11.2486 0.589553 11.7764 0.360366C12.3043 0.131179 12.8754 0.0147272 13.4523 0.0186882C16.15 0.00145722 18.8478 -0.0129019 21.5441 0.0186882C23.8773 0.0488423 25.6271 1.78343 25.719 4.07371C25.719 4.23309 25.719 4.39248 25.719 4.62079C25.9596 4.63228 26.1682 4.64951 26.3767 4.65238C27.9968 4.67248 29.6271 4.58776 31.237 4.73566C33.5148 4.94387 34.9905 6.67127 34.9949 8.93571C35.0017 12.9563 35.0017 16.9768 34.9949 20.9974C34.9949 21.9307 35.0036 22.8641 34.9949 23.7974C34.9686 26.1638 33.1896 27.94 30.785 27.9917C29.9479 28.0104 29.1094 27.9917 28.2709 27.9917C20.3235 27.9917 12.3771 27.9917 4.4316 27.9917C2.33756 27.9917 0.764118 26.8947 0.18957 25.0107C0.062839 24.5621 0.00194952 24.0979 0.00874945 23.6323C-0.00291648 18.7693 -0.00291648 13.9059 0.00874945 9.04196C0.00874945 6.44583 1.77905 4.68253 4.41701 4.65381C5.81984 4.63945 7.22413 4.65381 8.62696 4.65381L9.27296 4.65094ZM25.4361 15.9415C25.5265 11.6927 21.9976 8.14165 17.5981 8.05549C13.2365 7.96934 9.63315 11.4328 9.55149 15.7908C9.47128 20.0195 12.9813 23.5777 17.337 23.6883C21.7191 23.7974 25.3413 20.3268 25.4361 15.9415Z" fill="#DDDEE2"/>
<path d="M17.542 11.7358C18.0937 11.7382 18.6395 11.848 19.1479 12.059C19.6563 12.27 20.1172 12.5778 20.5041 12.9649C20.8911 13.352 21.1963 13.8106 21.4024 14.3143C21.6084 14.8181 21.7111 15.3569 21.7045 15.8999C21.7087 16.4487 21.6019 16.9928 21.3903 17.5005C21.1787 18.0082 20.8665 18.4694 20.472 18.8572C20.0774 19.245 19.6084 19.5516 19.0922 19.7592C18.5761 19.9668 18.0231 20.0712 17.4655 20.0664C16.9079 20.0615 16.3569 19.9475 15.8445 19.7309C15.3322 19.5143 14.8688 19.1996 14.4813 18.805C14.0938 18.4104 13.7899 17.9438 13.5875 17.4325C13.3851 16.9211 13.288 16.3753 13.3021 15.8267C13.3053 15.2834 13.4178 14.7462 13.6331 14.2459C13.8483 13.7457 14.1621 13.2923 14.5562 12.912C14.9504 12.5317 15.4171 12.232 15.9296 12.0301C16.4421 11.8282 16.9901 11.7282 17.542 11.7358Z" fill="#DDDEE2"/>
</svg>
