<svg width="22" height="29" viewBox="0 0 22 29" fill="none" xmlns="http://www.w3.org/2000/svg">
<path d="M0.674625 0H21.3125C21.7778 0.212797 22.052 0.542634 21.9917 1.08314C21.9271 1.66408 21.8733 2.24714 21.8137 2.82878C21.516 5.74694 21.218 8.66534 20.9198 11.584C20.6426 14.3248 20.3677 17.0666 20.0948 19.8093C19.8158 22.5686 19.5348 25.3276 19.2519 28.0864C19.193 28.6666 18.8462 28.9993 18.2589 29C13.4154 29 8.57203 29 3.72896 29C3.14236 29 2.79198 28.668 2.73382 28.0871C2.65341 27.2709 2.57083 26.4545 2.48611 25.6378C2.28364 23.6484 2.08141 21.6587 1.87941 19.6688C1.67981 17.6983 1.4814 15.7274 1.2842 13.7559C1.06401 11.5882 0.843114 9.42053 0.621494 7.25284C0.420457 5.2724 0.228756 3.29126 0.0226933 1.31154C-0.0541316 0.571005 0.0406399 0.354662 0.674625 0ZM2.44878 7.03295C3.30319 6.88399 4.12456 6.71588 4.95312 6.60239C6.26294 6.42483 7.59621 6.53207 8.85971 6.91662C9.96613 7.24574 10.9153 7.84583 11.8193 8.53743C12.7641 9.26023 13.8548 9.62765 15.038 9.74966C16.3814 9.89152 17.6773 9.65816 18.9661 9.31201C19.2677 9.23114 19.3424 9.09282 19.3682 8.81548C19.5398 7.00387 19.7272 5.19367 19.9117 3.38277C19.9634 2.86992 20.0122 2.35708 20.0639 1.83076H1.92177C2.09935 3.58469 2.27503 5.31875 2.44878 7.03295Z" fill="white"/>
</svg>
