<svg width="38" height="38" viewBox="0 0 38 38" fill="none" xmlns="http://www.w3.org/2000/svg">
<path d="M18.9966 2.17712C18.9097 2.17712 18.8258 2.1883 18.7395 2.19055C18.6383 2.61116 18.5393 3.08319 18.4466 3.6018C18.0954 5.56763 17.8204 8.08162 17.6682 10.1608C17.5997 11.0959 17.5631 12.1066 17.5482 13.1461H20.4449C20.4094 10.3335 20.1815 7.22592 19.8222 4.76734C19.6779 3.78 19.5128 2.89686 19.3394 2.19486C19.2245 2.19262 19.1123 2.17712 18.9966 2.17712ZM17.2097 2.3445C16.9285 2.39409 16.6518 2.45563 16.3784 2.52722C15.8891 3.19427 15.4227 4.01653 15.0129 4.95108C13.9637 7.34403 13.2738 10.4075 13.166 13.1456H16.0842C16.0982 12.0721 16.1345 11.029 16.2056 10.0575C16.3609 7.93533 16.6441 5.38777 17.0097 3.34136C17.0733 2.98556 17.1404 2.65715 17.2097 2.3445ZM20.8706 2.35799C21.0178 3.01845 21.1552 3.73338 21.2748 4.55195C21.6471 7.09954 21.8744 10.2609 21.909 13.1463H24.8271C24.7193 10.4083 24.0295 7.34478 22.9802 4.95183C22.5705 4.01728 22.104 3.19503 21.6147 2.52797C21.3693 2.46356 21.1223 2.40467 20.8706 2.35799ZM14.1316 3.40354C10.7117 5.22155 8.31181 8.88405 8.06108 13.1463H11.7034C11.8085 10.1903 12.5294 6.97602 13.6731 4.36773C13.8188 4.03531 13.9725 3.7146 14.1316 3.40354ZM23.8615 3.40354C24.0206 3.7146 24.1743 4.03531 24.32 4.36773C25.4637 6.97602 26.1847 10.1903 26.2897 13.1463H29.9306C29.6799 8.88405 27.281 5.22155 23.8615 3.40354ZM8.76098 14.609V16.8058H18.2624C19.2377 16.8058 19.2377 18.2698 18.2624 18.2698H8.76098V20.461H11.682C12.6573 20.461 12.6573 21.9236 11.682 21.9236H8.76098V24.1219H18.2624C19.2377 24.1219 19.2377 25.5844 18.2624 25.5844H8.76098V27.7756H11.682C12.6573 27.7756 12.6573 29.2396 11.682 29.2396H8.76098V31.4308H24.1144V14.609H8.76098ZM25.577 14.609V16.8058H29.2379V14.609H25.577ZM21.1134 16.8058C21.1386 16.8044 21.1639 16.8044 21.1891 16.8058H21.5562C22.5315 16.8058 22.5315 18.2698 21.5562 18.2698H21.1891C20.2138 18.3201 20.1381 16.8562 21.1134 16.8058ZM25.577 18.2698V20.461H29.2379V18.2698H25.577ZM14.6015 20.461H21.9233C22.8986 20.461 22.8986 21.9236 21.9233 21.9236H14.6015C13.6262 21.9236 13.6262 20.461 14.6015 20.461ZM25.577 21.9236V24.1161H29.2379V21.9236H25.577ZM21.1891 24.1219H21.9176C22.8929 24.1219 22.8929 25.5844 21.9176 25.5844H21.1891C20.2138 25.5844 20.2138 24.1219 21.1891 24.1219ZM25.577 25.5788V27.7756H29.2379V25.5788H25.577ZM14.5315 27.7756C14.5548 27.7745 14.5781 27.7745 14.6015 27.7756H21.9176C22.8929 27.7756 22.8929 29.2396 21.9176 29.2396H14.6015C13.6263 29.2865 13.5563 27.8225 14.5315 27.7756ZM25.577 29.2396V31.4308H29.2379V29.2396H25.577ZM7.29834 32.8934V34.953C7.29834 35.4496 7.44555 35.8229 8.13393 35.8229H29.9663C30.3724 35.8245 30.7021 35.4948 30.7005 35.0887C30.7052 34.3749 30.6944 32.8934 30.6944 32.8934H7.29834Z" fill="white"/>
</svg>
