<svg width="22" height="22" viewBox="0 0 22 22" fill="none" xmlns="http://www.w3.org/2000/svg">
<path d="M9.26567 22C8.84872 21.8583 8.70907 21.5571 8.70964 21.1392C8.71565 17.9321 8.70792 14.7253 8.71823 11.5183C8.71994 11.006 8.55082 10.5991 8.2014 10.2256C5.57817 7.42129 2.96037 4.61197 0.348006 1.79766C-0.127325 1.28761 -0.119025 0.643536 0.393221 0.237483C0.546323 0.115922 0.768392 0.0765349 0.962416 0.0107957C1.01965 -0.0093228 1.09148 0.00484538 1.15644 0.00484538H20.8493C21.4468 0.00484538 21.8458 0.279136 21.9685 0.785498C22.0621 1.172 21.9425 1.49815 21.6698 1.78717C20.9595 2.54062 20.2569 3.30144 19.5521 4.05943C17.6168 6.13739 15.6804 8.21535 13.7428 10.2933C13.432 10.6263 13.2849 11.0017 13.287 11.4582C13.2955 13.3836 13.2844 15.3093 13.295 17.2348C13.2975 17.6881 13.169 18.0701 12.8674 18.4107C11.8901 19.5138 10.9215 20.6254 9.94476 21.7274C9.8446 21.8408 9.69522 21.9102 9.56902 21.9997L9.26567 22Z" fill="white"/>
</svg>
