<svg width="24" height="24" viewBox="0 0 24 24" fill="none" xmlns="http://www.w3.org/2000/svg">
<g clip-path="url(#clip0_0_467)">
<path d="M23.6336 10.3445H21.2305V22.4514C21.2305 22.7458 21.1136 23.0281 20.9054 23.2363C20.6973 23.4444 20.415 23.5613 20.1206 23.5613H14.5406V15.8125H9.64287V23.5613H3.87959C3.58523 23.5613 3.30292 23.4444 3.09477 23.2363C2.88663 23.0281 2.76971 22.7458 2.76971 22.4514V10.3445H0.366629C0.2926 10.3461 0.219938 10.3245 0.15871 10.2829C0.0974821 10.2413 0.0507506 10.1816 0.024997 10.1121C-0.00075664 10.0427 -0.00426652 9.96701 0.014991 9.89552C0.0342485 9.82402 0.0753148 9.76027 0.132452 9.71317L11.7404 0.0805759C11.8063 0.0259244 11.8891 -0.00397752 11.9747 -0.00397752C12.0602 -0.00397752 12.143 0.0259244 12.2088 0.0805759L18.4201 5.22274V3.65463C18.4188 3.59895 18.4286 3.54357 18.4489 3.49174C18.4693 3.4399 18.4998 3.39265 18.5388 3.3528C18.5777 3.31295 18.6242 3.28129 18.6755 3.25967C18.7268 3.23806 18.7819 3.22694 18.8376 3.22695H20.8741C20.9875 3.22695 21.0963 3.27201 21.1765 3.35221C21.2567 3.43242 21.3018 3.54121 21.3018 3.65463V7.64614L23.7965 9.68263C23.862 9.72174 23.9133 9.78087 23.9427 9.8513C23.9721 9.92172 23.9781 9.99974 23.9599 10.0739C23.9417 10.148 23.9001 10.2142 23.8413 10.263C23.7826 10.3117 23.7098 10.3403 23.6336 10.3445Z" fill="#3384E2"/>
</g>
<defs>
<clipPath id="clip0_0_467">
<rect width="23.57" height="23.14" fill="white" transform="scale(1.01825)"/>
</clipPath>
</defs>
</svg>
