<svg width="25" height="49" viewBox="0 0 25 49" fill="none" xmlns="http://www.w3.org/2000/svg">
<path d="M0.85798 20.905H7.14786" stroke="#08863A" stroke-width="1.7" stroke-linecap="round" stroke-linejoin="round"/>
<path d="M0.85798 26.897H7.14786" stroke="#08863A" stroke-width="1.7" stroke-linecap="round" stroke-linejoin="round"/>
<path d="M0.85798 8.89915H7.14786" stroke="#08863A" stroke-width="1.7" stroke-linecap="round" stroke-linejoin="round"/>
<path d="M0.85798 14.9021H7.14786" stroke="#08863A" stroke-width="1.7" stroke-linecap="round" stroke-linejoin="round"/>
<path d="M11.8267 3.76771C12.1826 2.78567 12.8753 1.9617 13.7816 1.44231C14.6879 0.922923 15.7491 0.741775 16.7763 0.931079C17.8036 1.12038 18.7305 1.66787 19.3921 2.47619C20.0537 3.28451 20.4072 4.30128 20.3897 5.3457V33.5178C21.8171 34.4658 22.9014 35.8481 23.482 37.4603C24.0626 39.0724 24.1088 40.8286 23.6137 42.469C23.1186 44.1095 22.1084 45.5469 20.7328 46.5686C19.3572 47.5903 17.6893 48.142 15.9758 48.142C14.2623 48.142 12.5943 47.5903 11.2187 46.5686C9.84315 45.5469 8.83297 44.1095 8.33785 42.469C7.84273 40.8286 7.88895 39.0724 8.46959 37.4603C9.05022 35.8481 10.1345 34.4658 11.5618 33.5178V7.33198" stroke="#08863A" stroke-width="1.7" stroke-miterlimit="10" stroke-linecap="round"/>
<path d="M21.096 40.1385C21.096 41.5023 20.5542 42.8103 19.5899 43.7746C18.6255 44.739 17.3175 45.2808 15.9537 45.2808C14.5899 45.2808 13.282 44.739 12.3176 43.7746C11.3533 42.8103 10.8115 41.5023 10.8115 40.1385C10.7947 39.9034 10.7947 39.6674 10.8115 39.4323C10.9746 38.1956 11.5815 37.0604 12.5194 36.2381C13.4573 35.4157 14.6623 34.9623 15.9096 34.9623C17.157 34.9623 18.3618 35.4157 19.2997 36.2381C20.2376 37.0604 20.8447 38.1956 21.0077 39.4323C21.0541 39.6653 21.0835 39.9013 21.096 40.1385Z" stroke="#08863A" stroke-width="1.7" stroke-miterlimit="10"/>
<path d="M15.9648 34.6213V20.4856" stroke="#08863A" stroke-width="1.7" stroke-linecap="round" stroke-linejoin="round"/>
</svg>
