<svg width="29" height="33" viewBox="0 0 29 33" fill="none" xmlns="http://www.w3.org/2000/svg">
<g clip-path="url(#clip0_0_575)">
<path d="M15.5787 28.4738C15.5787 29.6884 15.5894 30.8048 15.5787 31.9202C15.5762 32.1881 15.4734 32.4456 15.2901 32.6434C15.1067 32.8412 14.8557 32.9655 14.5851 32.9923C14.3281 33.0175 14.0701 32.9547 13.8547 32.8143C13.6393 32.6739 13.4797 32.4646 13.4029 32.2217C13.3621 32.0589 13.3443 31.8913 13.3501 31.7237C13.3501 30.7865 13.3501 29.8493 13.3501 28.9121V28.4728L12.2832 29.5044C12.0671 29.7163 11.8578 29.935 11.6358 30.1421C11.1528 30.5938 10.4761 30.5977 10.0272 30.1565C9.92032 30.0528 9.83571 29.9288 9.77844 29.7922C9.72117 29.6555 9.69241 29.5089 9.69387 29.361C9.69533 29.2132 9.72698 29.0671 9.78694 28.9316C9.8469 28.796 9.93393 28.6738 10.0429 28.572C11.0618 27.5539 12.0964 26.5493 13.1144 25.5302C13.2399 25.4082 13.3178 25.2465 13.3344 25.0736C13.3481 22.8149 13.3442 20.5551 13.3432 18.2954C13.3432 18.2396 13.3334 18.1827 13.3246 18.0883C13.2122 18.1442 13.1291 18.1847 13.0489 18.228C11.2183 19.3328 9.38574 20.429 7.56297 21.5482C7.39826 21.6568 7.27721 21.8186 7.22071 22.0058C6.86378 23.3764 6.5362 24.7558 6.18905 26.1293C6.05214 26.6716 5.65122 26.9962 5.1349 27.0261C4.66747 27.0501 4.19515 26.7708 4.05923 26.3171C3.99094 26.0656 3.98191 25.802 4.03282 25.5466C4.15017 24.9465 4.31641 24.356 4.46016 23.7607C4.4846 23.6586 4.49927 23.5546 4.53252 23.3755C4.35846 23.4718 4.24502 23.5296 4.1355 23.5951C3.36493 24.0574 2.59827 24.5255 1.82575 24.9831C1.19111 25.3597 0.505612 25.221 0.163354 24.6594C-0.178904 24.0979 0.0205828 23.4689 0.645448 23.0903C1.43362 22.6087 2.22668 22.1387 3.01681 21.6619C3.11459 21.6012 3.21238 21.5338 3.36689 21.4317C2.5484 21.239 1.79348 21.0647 1.04247 20.8788C0.455739 20.7333 0.0900117 20.272 0.119348 19.7393C0.131081 19.4845 0.232112 19.2416 0.405239 19.0519C0.578367 18.8622 0.812891 18.7375 1.06887 18.699C1.26224 18.6805 1.45741 18.6968 1.64484 18.7472C3.05397 19.0814 4.46016 19.4282 5.87026 19.7595C6.0059 19.7937 6.14949 19.779 6.2751 19.7181C8.20218 18.5622 10.1253 17.4022 12.0446 16.238C12.0928 16.2018 12.1386 16.1626 12.1815 16.1205C11.4412 15.6812 10.7264 15.2536 10.0106 14.8307C8.79803 14.1121 7.59035 13.3859 6.36898 12.6875C6.18342 12.5907 5.96967 12.5598 5.76367 12.5999C4.39464 12.912 3.04126 13.252 1.68103 13.5814C0.971084 13.7529 0.354039 13.4437 0.192689 12.8378C0.0215601 12.1963 0.394131 11.627 1.11385 11.444C1.69178 11.2966 2.27264 11.1599 2.85154 11.0163C2.98845 10.9826 3.12339 10.9393 3.34048 10.8776C3.01289 10.685 2.75376 10.528 2.49951 10.3758C1.86193 9.99823 1.2224 9.62546 0.587756 9.24306C0.0166746 8.89822 -0.162279 8.25094 0.158466 7.71828C0.47921 7.18561 1.13635 7.01224 1.72307 7.34262C2.53569 7.80497 3.33657 8.2885 4.14235 8.76145C4.24013 8.82117 4.35063 8.87511 4.51394 8.96469C4.3125 8.17581 4.12279 7.44857 3.94188 6.71652C3.80107 6.13859 4.05043 5.61556 4.55306 5.3892C4.78124 5.28229 5.04002 5.25669 5.28523 5.31677C5.53044 5.37685 5.74689 5.51888 5.89764 5.71863C6.00291 5.86368 6.07923 6.02712 6.12255 6.20024C6.47068 7.54875 6.81065 8.89983 7.14248 10.2535C7.16342 10.3632 7.20884 10.4669 7.27548 10.5572C7.34211 10.6475 7.42829 10.7221 7.52777 10.7755C9.37302 11.8534 11.2105 12.9438 13.0508 14.0303C13.1232 14.0727 13.1995 14.1073 13.3129 14.1651C13.3293 14.0695 13.3404 13.973 13.3461 13.8762C13.3461 11.8534 13.353 9.83833 13.3383 7.81941C13.326 7.63487 13.2485 7.46039 13.1193 7.32624C12.1033 6.30426 11.0657 5.30348 10.0478 4.28439C9.40823 3.64481 9.64683 2.64691 10.4888 2.40803C10.9259 2.28281 11.3073 2.40033 11.628 2.71434C12.0941 3.17219 12.5606 3.63036 13.0274 4.08885C13.1095 4.16976 13.1985 4.24393 13.3481 4.37782V3.4512C13.3481 2.68062 13.3403 1.91005 13.3481 1.13947C13.3579 0.481587 13.837 -0.00291491 14.4639 -0.00195169C15.0907 -0.000988469 15.5718 0.479661 15.5796 1.14043C15.5904 2.07765 15.5796 3.01486 15.5796 3.95208V4.40287C16.1849 3.80567 16.7169 3.28456 17.242 2.75961C17.5256 2.47642 17.861 2.32712 18.2649 2.39358C18.4648 2.42359 18.6529 2.50625 18.809 2.63283C18.9652 2.75941 19.0838 2.9252 19.1522 3.11269C19.2207 3.30018 19.2364 3.50239 19.1978 3.69795C19.1591 3.89352 19.0676 4.07517 18.9328 4.22371C18.748 4.4308 18.5416 4.61959 18.346 4.81512C17.4924 5.65698 16.6338 6.49402 15.7889 7.34454C15.6751 7.4607 15.606 7.61226 15.5933 7.77318C15.5816 9.81617 15.5855 11.8592 15.5874 13.9022C15.5917 13.9555 15.5989 14.0085 15.609 14.0611C15.7146 14.01 15.8045 13.9734 15.8925 13.9234C17.6938 12.8417 19.496 11.7628 21.2885 10.6696C21.4317 10.5719 21.5356 10.4276 21.5819 10.2621C21.9349 8.87704 22.2664 7.4871 22.6086 6.10006C22.7563 5.50094 23.2227 5.1484 23.7928 5.18211C24.0515 5.19633 24.2968 5.29978 24.4858 5.47431C24.6748 5.64884 24.7954 5.88333 24.8265 6.13667C24.8396 6.35154 24.8162 6.56708 24.757 6.77432C24.6006 7.44857 24.4285 8.12283 24.2456 8.86548C24.3893 8.79323 24.4803 8.75567 24.5644 8.70558C25.4093 8.19989 26.2502 7.6913 27.0951 7.18754C27.7376 6.80225 28.4123 6.92265 28.7644 7.47651C29.1164 8.03036 28.9287 8.70076 28.2754 9.09857C27.4658 9.58982 26.6531 10.0762 25.8425 10.5656C25.733 10.6311 25.6254 10.7004 25.4425 10.8131L27.5078 11.3092C27.6261 11.3371 27.7464 11.3612 27.8618 11.3988C28.1397 11.4804 28.3739 11.6662 28.5142 11.9162C28.6545 12.1663 28.6895 12.4605 28.6118 12.7357C28.4417 13.3435 27.8677 13.6691 27.2135 13.5159C25.8034 13.1846 24.3952 12.8417 22.9832 12.519C22.8353 12.481 22.6787 12.495 22.5402 12.5585C20.5649 13.7259 18.5974 14.9068 16.5976 16.1031C16.6954 16.1744 16.7795 16.237 16.8646 16.2881C18.7225 17.391 20.5805 18.4977 22.4473 19.5861C22.6208 19.6789 22.8221 19.7082 23.0154 19.669C24.4021 19.3463 25.7828 18.9947 27.1665 18.6586C27.8686 18.4871 28.4466 18.8079 28.6167 19.4494C28.7761 20.0523 28.4104 20.6168 27.7259 20.7979C26.9974 20.9905 26.2649 21.1649 25.467 21.3643C25.6391 21.4712 25.7603 21.5482 25.8796 21.6205C26.6756 22.0876 27.4736 22.5519 28.2676 23.022C28.9668 23.4361 29.1898 24.0815 28.8358 24.6508C28.4818 25.22 27.8188 25.3048 27.1343 24.9041C26.3275 24.4312 25.5227 23.9544 24.7169 23.4804C24.6064 23.4149 24.493 23.3533 24.3131 23.2512C24.5194 24.0825 24.7189 24.8347 24.892 25.5928C25.0318 26.2025 24.6632 26.7544 24.0481 26.9037C23.433 27.053 22.856 26.6783 22.679 25.9771C22.3534 24.697 22.0229 23.4178 21.7197 22.1319C21.6887 21.9706 21.6209 21.8183 21.5212 21.6866C21.4216 21.5549 21.2929 21.4473 21.1447 21.372C19.3973 20.3673 17.6664 19.3347 15.9287 18.3128C15.8378 18.2588 15.741 18.2164 15.606 18.1442C15.5972 18.2954 15.5845 18.4091 15.5845 18.5227C15.5845 20.6736 15.5845 22.8255 15.5787 24.9763C15.5747 25.0882 15.5956 25.1996 15.6399 25.3028C15.6841 25.4059 15.7507 25.4983 15.8349 25.5735C16.8499 26.5624 17.8578 27.5578 18.8585 28.5595C19.5215 29.2261 19.2398 30.2461 18.346 30.4522C17.9314 30.5486 17.5765 30.4224 17.2792 30.1296C16.8215 29.6788 16.3668 29.2261 15.9101 28.7753C15.8241 28.6953 15.7351 28.6183 15.5787 28.4738Z" fill="white"/>
</g>
<defs>
<clipPath id="clip0_0_575">
<rect width="29" height="33" fill="white"/>
</clipPath>
</defs>
</svg>
