<svg width="29" height="26" viewBox="0 0 29 26" fill="none" xmlns="http://www.w3.org/2000/svg">
<g clip-path="url(#clip0_0_231)">
<path d="M6.20806 11.5622C5.97368 11.8196 5.74708 12.0843 5.50492 12.3335C4.35291 13.5186 2.84284 13.2982 2.04543 11.8304C1.44002 10.7141 0.837205 9.59649 0.236984 8.47771C-0.121073 7.81294 -0.0847533 7.44533 0.404764 6.89437C2.21004 4.86394 4.01705 2.83501 5.82578 0.807591C6.03672 0.56381 6.29386 0.368479 6.58091 0.233984C6.86796 0.099489 7.17865 0.0287691 7.49326 0.0263114C8.8191 0.00463422 10.1467 0.0109552 11.4717 0.0190841C12.0451 0.0190841 12.4827 0.489659 12.5389 1.1192C12.6323 2.17235 13.204 2.72241 14.2081 2.72512H14.791C15.7208 2.7197 16.3374 2.13171 16.4213 1.17069C16.4931 0.345145 16.8408 0.00553281 17.6244 0.00462959C18.7997 0.00462959 19.9759 0.014565 21.1513 0.00462959C21.5616 -0.0102726 21.9697 0.072967 22.3444 0.247981C22.7191 0.422995 23.0506 0.685151 23.3135 1.01443C25.0778 3.1135 26.8595 5.19903 28.6281 7.29269C29.0778 7.82468 29.1081 8.24649 28.7492 8.85526C28.1109 9.93912 27.47 11.0206 26.8266 12.0996C26.0292 13.43 24.539 13.617 23.4718 12.5169C23.1751 12.2107 22.9053 11.8765 22.6224 11.555L22.5187 11.6182V11.9704C22.5187 15.732 22.5187 19.4955 22.5187 23.2607C22.5187 24.6155 21.6988 25.6858 20.4585 25.9541C20.2356 25.9944 20.0093 26.0114 19.7831 26.0046C16.2014 26.0046 12.6202 26.0046 9.03965 26.0046C7.3592 26.0046 6.298 24.8892 6.29713 23.127C6.29713 19.4214 6.29713 15.7152 6.29713 12.0084V11.6191L6.20806 11.5622Z" fill="white"/>
</g>
<defs>
<clipPath id="clip0_0_231">
<rect width="29" height="26" fill="white"/>
</clipPath>
</defs>
</svg>
