<svg width="48" height="47" viewBox="0 0 48 47" fill="none" xmlns="http://www.w3.org/2000/svg">
<path d="M46.8831 46.1439H0.855978L9.4546 36.4834H11.7394C15.2603 31.8175 18.0423 26.6374 19.9874 21.1252C21.1629 21.0589 22.329 21.0209 23.514 21.0209C25.0878 21.0209 26.6519 21.0873 28.1878 21.2106C30.1308 26.6917 32.9028 31.8425 36.4073 36.4834H38.3033L46.8831 46.1439Z" stroke="white" stroke-width="1.7" stroke-linecap="round" stroke-linejoin="round"/>
<path d="M33.4779 10.8199C33.3375 10.8187 33.1977 10.8029 33.0607 10.7725C33.5111 10.9817 33.8785 11.336 34.1037 11.7787C34.3289 12.2213 34.399 12.7268 34.3029 13.2141C34.2067 13.7013 33.9498 14.1423 33.5733 14.4662C33.1968 14.7902 32.7226 14.9784 32.2264 15.0008H32.1411C31.8054 15.0013 31.474 14.9256 31.1719 14.7794C30.8697 14.6333 30.6047 14.4205 30.3967 14.157C30.5006 14.4161 30.5521 14.6932 30.5483 14.9723C30.5513 15.4463 30.4018 15.9087 30.1218 16.2912C29.8417 16.6737 29.4461 16.9559 28.9933 17.0962C28.5405 17.2365 28.0546 17.2274 27.6074 17.0703C27.1601 16.9132 26.7754 16.6164 26.5098 16.2237L25.9031 21.0682H22.2437L21.6274 16.1858C21.3646 16.5821 20.9814 16.8834 20.5344 17.0453C20.0873 17.2073 19.6 17.2213 19.1444 17.0854C18.6888 16.9494 18.2889 16.6707 18.0037 16.2903C17.7185 15.9098 17.5631 15.4478 17.5603 14.9723C17.5612 14.6936 17.6126 14.4174 17.712 14.157C17.5045 14.421 17.2395 14.6342 16.9373 14.7804C16.635 14.9266 16.3035 15.002 15.9677 15.0008H15.8918C15.3897 14.9893 14.9065 14.8072 14.5219 14.4843C14.1373 14.1614 13.8742 13.7172 13.7759 13.2247C13.6777 12.7322 13.7501 12.221 13.9814 11.7752C14.2126 11.3295 14.5888 10.9758 15.048 10.7725C14.734 10.8347 14.4094 10.8164 14.1044 10.7192C13.7994 10.622 13.5239 10.4492 13.3037 10.2169C13.0834 9.98457 12.9256 9.70026 12.8449 9.39048C12.7642 9.0807 12.7634 8.75554 12.8423 8.4453C12.9211 8.13505 13.0773 7.84984 13.2961 7.61623C13.515 7.38262 13.7894 7.20823 14.0938 7.1093C14.3983 7.01038 14.7229 6.99015 15.0372 7.0505C15.3516 7.11084 15.6456 7.2498 15.8918 7.45442C15.8878 7.43887 15.8878 7.42256 15.8918 7.40702C15.6144 7.08607 15.4349 6.69234 15.3745 6.27249C15.3141 5.85263 15.3752 5.42425 15.5508 5.03813C15.7264 4.652 16.0091 4.32432 16.3652 4.09391C16.7214 3.8635 17.1361 3.74003 17.5603 3.73812C18.0741 3.7377 18.572 3.91638 18.9683 4.24342C19.3645 4.57045 19.6343 5.02538 19.7314 5.52991C19.7314 5.3877 19.7314 5.2455 19.7314 5.11277C19.7314 3.98548 20.1785 2.90421 20.9747 2.1062C21.771 1.30819 22.8512 0.858612 23.9785 0.856101H24.1681C24.7266 0.8561 25.2798 0.96627 25.7957 1.1803C26.3116 1.39434 26.7802 1.70803 27.1747 2.10342C27.5692 2.49882 27.8818 2.96814 28.0947 3.48453C28.3076 4.00092 28.4165 4.55423 28.4153 5.11277C28.4245 5.25167 28.4245 5.39102 28.4153 5.52991C28.4828 5.19726 28.6259 4.88455 28.8333 4.61585C29.0407 4.34716 29.3071 4.12965 29.6118 3.98006C29.9165 3.83048 30.2514 3.75281 30.5908 3.75305C30.9303 3.75328 31.2651 3.8314 31.5696 3.9814C31.8741 4.1314 32.1401 4.34928 32.3472 4.61826C32.5543 4.88723 32.6968 5.20014 32.7639 5.53288C32.831 5.86562 32.8209 6.20933 32.7343 6.53753C32.6477 6.86573 32.4869 7.16968 32.2643 7.42598V7.47338C32.6309 7.15414 33.106 6.98784 33.5916 7.00884C34.0945 7.0189 34.5727 7.22831 34.9212 7.591C35.2697 7.9537 35.4598 8.43996 35.4497 8.94283C35.4397 9.4457 35.2303 9.92398 34.8676 10.2724C34.5049 10.6209 34.0186 10.811 33.5157 10.801L33.4779 10.8199Z" stroke="white" stroke-width="1.7" stroke-linecap="round" stroke-linejoin="round"/>
<path d="M25.2204 25.0501C26.1457 28.0649 26.286 31.2661 25.6281 34.3503C25.3152 35.8577 22.509 35.6965 22.5185 34.1512C22.5185 34.1512 22.5848 28.8896 21.5705 26.6428C20.7206 28.1175 19.678 29.4725 18.4704 30.6719C18.2466 30.8857 17.9544 31.0133 17.6455 31.0319C17.3365 31.0506 17.031 30.9591 16.7832 30.7738C16.5353 30.5885 16.3612 30.3213 16.2917 30.0197C16.2222 29.7182 16.2619 29.4017 16.4037 29.1266C17.5079 27.0739 18.4862 24.9559 19.3331 22.7843C19.5417 22.2344 19.7503 21.6846 19.9399 21.1252C21.087 21.0589 22.2341 21.0209 23.4002 21.0209H24.1681C25.5048 21.0209 26.8321 21.1063 28.1404 21.2106C29.2815 24.4213 30.706 27.5241 32.397 30.4823C32.573 30.7901 32.6333 31.1506 32.567 31.4989C32.5008 31.8472 32.3124 32.1604 32.0357 32.3822C31.7591 32.604 31.4124 32.7197 31.0581 32.7086C30.7037 32.6974 30.3649 32.5602 30.1028 32.3215C27.92 30.3206 26.2462 27.8278 25.2204 25.0501Z" stroke="white" stroke-width="1.7" stroke-linecap="round" stroke-linejoin="round"/>
<path d="M10.9905 39.6688C10.0125 41.1641 8.91549 42.5781 7.7102 43.897" stroke="white" stroke-width="1.7" stroke-linecap="round" stroke-linejoin="round"/>
<path d="M19.3522 37.014C18.6414 38.9404 17.7922 40.8129 16.8114 42.6168" stroke="white" stroke-width="1.7" stroke-linecap="round" stroke-linejoin="round"/>
<path d="M28.6902 36.8718C29.4126 38.7935 30.2614 40.6652 31.231 42.4747" stroke="white" stroke-width="1.7" stroke-linecap="round" stroke-linejoin="round"/>
<path d="M37.4785 39.6688C38.4552 41.1739 39.5521 42.5975 40.7587 43.9255" stroke="white" stroke-width="1.7" stroke-linecap="round" stroke-linejoin="round"/>
</svg>
