<svg width="20" height="9" viewBox="0 0 20 9" fill="none" xmlns="http://www.w3.org/2000/svg">
<path d="M5.27519 0.444408L6.16005 1.89813C6.28632 2.10272 6.48213 2.25024 6.70836 2.31123L8.30978 2.7381C8.45973 2.77792 8.59756 2.85658 8.71042 2.96674C8.82329 3.07691 8.90751 3.21501 8.95526 3.36817C9.00301 3.52133 9.01273 3.68457 8.98351 3.84269C8.95428 4.00081 8.88707 4.14866 8.78813 4.27247L7.735 5.59833C7.58553 5.78521 7.51045 6.02451 7.52513 6.26716L7.62913 7.98447C7.63909 8.14506 7.60984 8.30565 7.54413 8.45132C7.47841 8.59699 7.37835 8.723 7.25325 8.81762C7.12815 8.91225 6.98208 8.97241 6.82863 8.99252C6.67517 9.01263 6.51933 8.99203 6.37559 8.93264L4.83844 8.29922C4.62119 8.20881 4.37881 8.20881 4.16156 8.29922L2.62441 8.93264C2.48056 8.99191 2.32467 9.01242 2.17117 8.99228C2.01766 8.97215 1.87152 8.91201 1.74631 8.81744C1.6211 8.72288 1.52086 8.59695 1.4549 8.45134C1.38894 8.30572 1.35941 8.14514 1.369 7.98447L1.47487 6.26716C1.48956 6.02451 1.41447 5.78521 1.265 5.59833L0.211889 4.27247C0.11295 4.14866 0.0457179 4.00081 0.0164943 3.84269C-0.0127293 3.68457 -0.00300437 3.52133 0.0447441 3.36817C0.0924926 3.21501 0.176712 3.07691 0.289576 2.96674C0.402439 2.85658 0.540268 2.77792 0.69022 2.7381L2.29167 2.31123C2.5179 2.25024 2.71368 2.10272 2.83995 1.89813L3.72481 0.444408C3.80749 0.308293 3.92192 0.196161 4.05747 0.118455C4.19301 0.0407502 4.34524 0 4.5 0C4.65476 0 4.80699 0.0407502 4.94253 0.118455C5.07808 0.196161 5.19251 0.308293 5.27519 0.444408Z" fill="#2C3E4F"/>
<path d="M16.2752 0.444408L17.16 1.89813C17.2863 2.10272 17.4821 2.25024 17.7084 2.31123L19.3098 2.7381C19.4597 2.77792 19.5976 2.85658 19.7104 2.96674C19.8233 3.07691 19.9075 3.21501 19.9553 3.36817C20.003 3.52133 20.0127 3.68457 19.9835 3.84269C19.9543 4.00081 19.8871 4.14866 19.7881 4.27247L18.735 5.59833C18.5855 5.78521 18.5104 6.02451 18.5251 6.26716L18.6291 7.98447C18.6391 8.14506 18.6098 8.30565 18.5441 8.45132C18.4784 8.59699 18.3783 8.723 18.2533 8.81762C18.1282 8.91225 17.9821 8.97241 17.8286 8.99252C17.6752 9.01263 17.5193 8.99203 17.3756 8.93264L15.8384 8.29922C15.6212 8.20881 15.3788 8.20881 15.1616 8.29922L13.6244 8.93264C13.4806 8.99191 13.3247 9.01242 13.1712 8.99228C13.0177 8.97215 12.8715 8.91201 12.7463 8.81744C12.6211 8.72288 12.5209 8.59695 12.4549 8.45134C12.3889 8.30572 12.3594 8.14514 12.369 7.98447L12.4749 6.26716C12.4896 6.02451 12.4145 5.78521 12.265 5.59833L11.2119 4.27247C11.113 4.14866 11.0457 4.00081 11.0165 3.84269C10.9873 3.68457 10.997 3.52133 11.0447 3.36817C11.0925 3.21501 11.1767 3.07691 11.2896 2.96674C11.4024 2.85658 11.5403 2.77792 11.6902 2.7381L13.2917 2.31123C13.5179 2.25024 13.7137 2.10272 13.84 1.89813L14.7248 0.444408C14.8075 0.308293 14.9219 0.196161 15.0575 0.118455C15.193 0.0407502 15.3452 0 15.5 0C15.6548 0 15.807 0.0407502 15.9425 0.118455C16.0781 0.196161 16.1925 0.308293 16.2752 0.444408Z" fill="#2C3E4F"/>
</svg>
