<svg width="126" height="34" viewBox="0 0 126 34" fill="none" xmlns="http://www.w3.org/2000/svg">
    <defs>
        <linearGradient id="paint0_linear_324_18693" x1="33.2923" y1="12.5714" x2="45.5716" y2="12.5714" gradientUnits="userSpaceOnUse">
            <stop stop-color="#00B4E6"/>
            <stop offset="1" stop-color="#088CCB"/>
        </linearGradient>
        <clipPath id="clip0_324_18693">
            <rect width="42" height="12" fill="white" transform="translate(4 10)"/>
        </clipPath>
        <clipPath id="clip1_324_18693">
            <rect width="37" height="12" fill="white" transform="translate(55 11)"/>
        </clipPath>
    </defs>
    <g clip-path="url(#clip0_324_18693)">
<path fill-rule="evenodd" clip-rule="evenodd" d="M41.2859 10H33.3145C33.743 12.6571 36.3145 15.1429 39.143 15.1429H45.4859C45.5716 14.8857 45.5716 14.5429 45.5716 14.2857C45.5716 11.8857 43.6859 10 41.2859 10Z" fill="url(#paint0_linear_324_18693)"/>
<path fill-rule="evenodd" clip-rule="evenodd" d="M34 15.5713V21.9999H37.8571V18.5713H41.2857C43.1714 18.5713 44.8 17.2856 45.3143 15.5713H34Z" fill="#4DB45F"/>
<path fill-rule="evenodd" clip-rule="evenodd" d="M20.2861 10V22H23.7147C23.7147 22 24.5718 22 25.0004 21.1429C27.3147 16.5143 28.0004 15.1429 28.0004 15.1429H28.429V22H32.2861V10H28.8576C28.8576 10 28.0004 10.0857 27.5718 10.8571C25.6004 14.8 24.5718 16.8571 24.5718 16.8571H24.1433V10H20.2861Z" fill="#4DB45F"/>
<path fill-rule="evenodd" clip-rule="evenodd" d="M4 22V10H7.85714C7.85714 10 8.97143 10 9.57143 11.7143C11.1143 16.2571 11.2857 16.8571 11.2857 16.8571C11.2857 16.8571 11.6286 15.7429 13 11.7143C13.6 10 14.7143 10 14.7143 10H18.5714V22H14.7143V15.5714H14.2857L12.1429 22H10.4286L8.28571 15.5714H7.85714V22H4Z" fill="#4DB45F"/>
</g>
<g clip-path="url(#clip1_324_18693)">
<path d="M92 22.8054C91.169 22.8054 90.337 22.7986 89.5069 22.8171C89.2683 22.8171 89.2016 22.7336 89.1668 22.5163C89.102 22.1118 88.9938 21.714 88.9204 21.3104C88.8885 21.1387 88.8238 21.0708 88.6421 21.0717C87.5096 21.0801 86.3774 21.0801 85.2455 21.0717C85.0522 21.0717 85.001 21.1688 84.9488 21.3152C84.7991 21.7479 84.6367 22.1768 84.487 22.6095C84.4425 22.7356 84.3903 22.8142 84.2396 22.8132C83.2665 22.8074 82.2944 22.8132 81.2778 22.8132C81.5407 22.1748 81.7861 21.5753 82.0354 20.9767L85.6417 12.3305C86.0108 11.4467 86.3722 11.2022 87.3182 11.2022C87.9444 11.2022 88.5744 11.2187 89.1967 11.1945C89.4866 11.1828 89.6094 11.2604 89.6702 11.5622C90.2706 14.5179 90.8826 17.4724 91.5062 20.4256C91.6589 21.1494 91.7478 21.8896 92.0019 22.59L92 22.8054ZM87.4951 14.4562C87.4622 14.4717 87.4448 14.4736 87.4419 14.4814C86.9472 15.8273 86.4524 17.1736 85.9577 18.5202C85.8958 18.689 85.9789 18.7026 86.1084 18.7026C86.7955 18.7026 87.4825 18.7026 88.1686 18.7026C88.3396 18.7026 88.3618 18.6424 88.33 18.4833C88.0449 17.1445 87.7724 15.8028 87.4951 14.4562Z" fill="#1B2BDE"/>
<path d="M62.8331 18.9739C63.5211 17.2276 64.2014 15.5026 64.8817 13.7757C65.1773 13.0239 65.4808 12.2749 65.761 11.5172C65.8499 11.2795 65.962 11.1844 66.2268 11.1912C67.0336 11.2116 67.8415 11.2097 68.6483 11.1912C68.9566 11.1844 69.0407 11.2145 68.8996 11.5492C67.4946 14.8821 66.0995 18.2207 64.7145 21.5652C64.5744 21.899 64.4246 22.2288 64.3009 22.5684C64.2323 22.7576 64.1308 22.8187 63.9298 22.8158C63.0872 22.8032 62.2427 22.7935 61.4 22.8158C61.0976 22.8245 60.9923 22.7255 60.9169 22.4423C60.1738 19.5065 59.4056 16.5766 58.6731 13.638C58.5146 13.0025 58.1813 12.5941 57.586 12.3515C56.8287 12.0421 56.0484 11.7927 55.2524 11.6055C55.1557 11.5822 54.9625 11.6249 55.0011 11.392C55.0359 11.1922 55.1606 11.198 55.3142 11.198C56.8796 11.198 58.446 11.198 60.0124 11.198C60.8618 11.198 61.3817 11.6433 61.5411 12.4922C61.9347 14.58 62.3254 16.6688 62.7133 18.7585C62.7277 18.8274 62.7123 18.9089 62.8331 18.9739Z" fill="#1C2BDE"/>
<path d="M73.4306 19.8474C74.1428 20.1782 74.8375 20.4499 75.5884 20.5265C76.201 20.5886 76.8136 20.6235 77.4127 20.4237C77.6206 20.3605 77.8129 20.2541 77.9771 20.1113C78.0706 20.0341 78.1468 19.938 78.2008 19.8292C78.2548 19.7204 78.2853 19.6014 78.2903 19.48C78.2953 19.3586 78.2747 19.2375 78.2299 19.1246C78.1851 19.0117 78.1171 18.9095 78.0302 18.8249C77.7191 18.4931 77.318 18.2942 76.9209 18.0904C76.4012 17.838 75.9026 17.5441 75.4299 17.2115C73.3639 15.6873 74.0597 13.3308 75.3072 12.2772C76.5547 11.2236 78.0312 10.9549 79.5995 11.016C80.3215 11.0535 81.0349 11.1906 81.7196 11.4234C81.9216 11.4884 81.9786 11.5748 81.9293 11.7853C81.7814 12.4082 81.6394 13.032 81.5263 13.6616C81.479 13.9265 81.4075 13.9604 81.163 13.8634C80.2305 13.4938 79.2681 13.3192 78.2641 13.5122C78.1229 13.5405 77.9857 13.5858 77.8553 13.6471C77.1016 13.9963 77.0311 14.6667 77.6939 15.1644C78.1298 15.4914 78.6303 15.7087 79.098 15.9803C79.3792 16.1433 79.6652 16.2995 79.9319 16.4838C81.7611 17.7451 81.9467 20.0686 80.3416 21.6257C79.6246 22.3204 78.7366 22.6832 77.7761 22.8637C76.23 23.1547 74.71 22.9995 73.2151 22.526C72.9658 22.4475 72.8779 22.3514 72.9503 22.0642C73.1349 21.3327 73.2711 20.5993 73.4306 19.8474Z" fill="#1C2BDE"/>
<path d="M69.3169 22.8107C68.9197 22.8107 68.5216 22.8 68.1245 22.8107C67.9003 22.8184 67.8462 22.7816 67.9003 22.5332C68.3834 20.3018 68.855 18.0704 69.3294 15.839C69.6329 14.41 69.944 12.9829 70.2349 11.5519C70.29 11.2851 70.374 11.1745 70.6707 11.1842C71.4534 11.2094 72.2371 11.2016 73.0198 11.1842C73.2585 11.1842 73.3097 11.2511 73.2594 11.4752C72.4658 15.169 71.6773 18.8637 70.8939 22.5594C70.8514 22.7612 70.7693 22.8097 70.5818 22.8048C70.1605 22.8029 69.7392 22.8107 69.3169 22.8107Z" fill="#1B2BDE"/>
</g>
<path d="M116.667 8.83301C115.594 8.83301 114.532 9.04424 113.541 9.45466C112.551 9.86507 111.65 10.4666 110.892 11.225C110.134 11.9833 109.532 12.8836 109.122 13.8744C108.711 14.8653 108.5 15.9272 108.5 16.9997C108.5 18.0721 108.711 19.1341 109.122 20.1249C109.532 21.1157 110.134 22.016 110.892 22.7744C111.65 23.5327 112.551 24.1343 113.541 24.5447C114.532 24.9551 115.594 25.1663 116.667 25.1663C117.739 25.1663 118.801 24.9551 119.792 24.5447C120.783 24.1343 121.683 23.5327 122.441 22.7744C123.2 22.016 123.801 21.1157 124.212 20.1249C124.622 19.1341 124.833 18.0721 124.833 16.9997C124.833 15.9272 124.622 14.8653 124.212 13.8744C123.801 12.8836 123.2 11.9833 122.441 11.225C121.683 10.4666 120.783 9.86507 119.792 9.45466C118.801 9.04424 117.739 8.83301 116.667 8.83301Z" fill="#FF9800"/>
<path d="M107.333 8.83301C106.261 8.83301 105.199 9.04424 104.208 9.45466C103.217 9.86507 102.317 10.4666 101.558 11.225C100.8 11.9833 100.199 12.8836 99.7882 13.8744C99.3777 14.8653 99.1665 15.9272 99.1665 16.9997C99.1665 18.0721 99.3777 19.1341 99.7882 20.1249C100.199 21.1157 100.8 22.016 101.558 22.7744C102.317 23.5327 103.217 24.1343 104.208 24.5447C105.199 24.9551 106.261 25.1663 107.333 25.1663C108.406 25.1663 109.468 24.9551 110.458 24.5447C111.449 24.1343 112.35 23.5327 113.108 22.7744C113.866 22.016 114.468 21.1157 114.878 20.1249C115.289 19.1341 115.5 18.0721 115.5 16.9997C115.5 15.9272 115.289 14.8653 114.878 13.8744C114.468 12.8836 113.866 11.9833 113.108 11.225C112.35 10.4666 111.449 9.86507 110.458 9.45466C109.468 9.04424 108.406 8.83301 107.333 8.83301Z" fill="#D50000"/>
<path d="M108.5 17.0004C108.5 19.7741 109.886 22.2212 112 23.697C114.114 22.2212 115.5 19.7741 115.5 17.0004C115.5 14.2266 114.114 11.7795 112 10.3037C109.886 11.7795 108.5 14.2266 108.5 17.0004Z" fill="#FF3D00"/>

</svg>
