<svg width="33" height="33" viewBox="0 0 33 33" fill="none" xmlns="http://www.w3.org/2000/svg">
<g clip-path="url(#clip0_0_596)">
<path d="M0 33C0.600763 30.8047 1.1839 28.6761 1.76704 26.5475C1.92721 25.9629 2.0993 25.381 2.24029 24.7918C2.27796 24.6307 2.25969 24.4617 2.18846 24.3123C0.642231 21.5086 -0.0653114 18.5032 0.175201 15.3209C0.581066 9.95772 3.05565 5.73619 7.51239 2.72147C10.483 0.710277 13.8165 -0.216174 17.3941 0.0424667C23.8735 0.50802 28.6739 3.68723 31.3853 9.55735C34.0289 15.2842 33.3939 20.8988 29.7054 26.0359C27.0556 29.7267 23.3728 31.8812 18.8631 32.5536C15.3736 33.0714 12.0604 32.4714 8.91867 30.8678C8.75725 30.7955 8.5762 30.7793 8.40447 30.8218C5.7298 31.5098 3.05772 32.2112 0.385131 32.909C0.277315 32.9369 0.167944 32.9613 0 33ZM3.93425 29.1132C4.03792 29.094 4.08042 29.0884 4.12293 29.077C5.6308 28.6818 7.14022 28.2928 8.64446 27.8872C8.95547 27.8029 9.19857 27.8355 9.479 28.0036C12.5061 29.8032 15.7676 30.3976 19.2141 29.6931C26.5046 28.2028 31.1832 21.325 29.9361 14.0122C28.8771 7.8048 23.5023 3.04943 17.2148 2.78716C13.7377 2.63664 10.609 3.63085 7.92189 5.84223C4.84913 8.36864 3.17176 11.6487 2.92606 15.6152C2.74516 18.5363 3.48121 21.2453 5.06424 23.7133C5.24722 23.9983 5.28402 24.243 5.1902 24.5694C4.76101 26.0628 4.35929 27.5644 3.93425 29.1132Z" fill="white"/>
<path d="M11.1929 8.83579C11.9373 8.64336 12.2752 9.09443 12.5251 9.74414C12.8895 10.6939 13.2943 11.6291 13.696 12.5649C13.8313 12.8799 13.8272 13.1634 13.6229 13.4375C13.2943 13.8783 12.974 14.3262 12.6267 14.7519C12.4084 15.0194 12.3742 15.2615 12.5531 15.563C13.8909 17.8199 15.7668 19.4499 18.2108 20.4208C18.5286 20.5471 18.7908 20.4984 19.0085 20.2284C19.4232 19.7111 19.8591 19.2063 20.2583 18.6766C20.49 18.3662 20.7606 18.2746 21.0938 18.4303C22.256 18.973 23.4171 19.5166 24.5626 20.0955C24.7015 20.1653 24.8218 20.427 24.8218 20.5972C24.7923 22.3317 24.2812 23.1692 22.413 23.9502C21.3561 24.392 20.2609 24.2834 19.1734 23.9808C15.2339 22.8857 12.3338 20.4151 10.009 17.162C9.27814 16.1393 8.61829 15.084 8.34046 13.841C7.94496 12.0698 8.38296 10.5345 9.69127 9.25685C10.1018 8.85182 10.6015 8.75458 11.1929 8.83579Z" fill="white"/>
</g>
<defs>
<clipPath id="clip0_0_596">
<rect width="33" height="33" fill="white"/>
</clipPath>
</defs>
</svg>
