<svg width="162" height="162" viewBox="0 0 162 162" fill="none" xmlns="http://www.w3.org/2000/svg">
    <defs>
        <filter id="filter0_d_0_4" x="-7" y="-3" width="176" height="176" filterUnits="userSpaceOnUse" color-interpolation-filters="sRGB">
            <feFlood flood-opacity="0" result="BackgroundImageFix"/>
            <feColorMatrix in="SourceAlpha" type="matrix" values="0 0 0 0 0 0 0 0 0 0 0 0 0 0 0 0 0 0 127 0" result="hardAlpha"/>
            <feOffset dy="4"/>
            <feGaussianBlur stdDeviation="3.5"/>
            <feComposite in2="hardAlpha" operator="out"/>
            <feColorMatrix type="matrix" values="0 0 0 0 0.627431 0 0 0 0 0.685336 0 0 0 0 0.8125 0 0 0 0.29 0"/>
            <feBlend mode="normal" in2="BackgroundImageFix" result="effect1_dropShadow_0_4"/>
            <feBlend mode="normal" in="SourceGraphic" in2="effect1_dropShadow_0_4" result="shape"/>
        </filter>
        <filter id="filter1_d_0_4" x="-7" y="-3" width="176" height="176" filterUnits="userSpaceOnUse" color-interpolation-filters="sRGB">
            <feFlood flood-opacity="0" result="BackgroundImageFix"/>
            <feColorMatrix in="SourceAlpha" type="matrix" values="0 0 0 0 0 0 0 0 0 0 0 0 0 0 0 0 0 0 127 0" result="hardAlpha"/>
            <feOffset dy="4"/>
            <feGaussianBlur stdDeviation="3.5"/>
            <feComposite in2="hardAlpha" operator="out"/>
            <feColorMatrix type="matrix" values="0 0 0 0 0.627431 0 0 0 0 0.685336 0 0 0 0 0.8125 0 0 0 0.29 0"/>
            <feBlend mode="normal" in2="BackgroundImageFix" result="effect1_dropShadow_0_4"/>
            <feBlend mode="normal" in="SourceGraphic" in2="effect1_dropShadow_0_4" result="shape"/>
        </filter>
        <linearGradient id="paint0_linear_0_4" x1="157.899" y1="152.772" x2="34.8608" y2="8.20254" gradientUnits="userSpaceOnUse">
            <stop stop-color="#218CEF"/>
            <stop offset="1" stop-color="#37C6F3"/>
        </linearGradient>
        <clipPath id="clip0_0_4">
            <rect width="90" height="84" fill="white" transform="translate(36 39)"/>
        </clipPath>
    </defs>
<g filter="url(#filter0_d_0_4)">
<g filter="url(#filter1_d_0_4)">
<circle cx="81" cy="81" r="81" fill="url(#paint0_linear_0_4)"/>
</g>
<g clip-path="url(#clip0_0_4)">
<path d="M40.7541 103.299C40.7541 98.5 40.7396 93.7033 40.7687 88.9042C40.7905 85.4885 43.1323 82.7388 46.3226 82.2826L46.4075 82.2997L46.4826 82.2655C46.8099 82.2289 47.1372 82.1655 47.4669 82.1606C49.0329 82.1387 50.6014 82.1313 52.1675 82.1191L52.3444 82.1899C52.9965 82.3771 53.6875 82.3771 54.3396 82.1899C55.0669 82.1777 55.7941 82.1582 56.5214 82.1582H103.229C103.62 82.1582 104.012 82.1387 104.405 82.1289L109.86 82.1143L110.938 82.1679C111.094 82.6559 111.603 82.6315 111.949 82.8047C114.71 84.1832 115.869 86.4644 115.797 89.4922C115.388 89.2945 114.941 89.1888 114.487 89.1824C110.262 89.1824 106.034 89.1702 101.806 89.1824C100.444 89.1824 99.6947 89.9948 99.6753 91.3636C99.6559 92.7323 99.6753 94.1596 99.6753 95.5576C99.6753 97.2142 100.461 97.9974 102.129 97.9974C106.114 97.9974 110.1 97.9974 114.085 97.9974C114.688 98.0201 115.288 97.8962 115.833 97.6363C115.833 99.5068 115.837 101.377 115.845 103.248C115.452 103.248 115.062 103.28 114.669 103.28H67.3262C58.4681 103.288 49.6107 103.294 40.7541 103.299ZM80.9966 89.1946C77.4038 89.1946 73.8087 89.1946 70.216 89.1946C68.7614 89.1946 67.9735 90.0021 67.9566 91.4416C67.9396 92.8396 67.942 94.2376 67.9566 95.6356C67.9711 97.1605 68.8026 97.9901 70.3299 97.9925C77.4539 97.9925 84.5796 97.9925 91.7069 97.9925C93.2438 97.9925 94.039 97.1776 94.0559 95.621C94.0559 94.3133 94.0559 93.0055 94.0559 91.7002C94.0559 89.9436 93.3287 89.197 91.5929 89.1946C88.06 89.1864 84.5271 89.1864 80.9941 89.1946H80.9966ZM54.4463 89.1751C52.3323 89.1751 50.2208 89.1531 48.1093 89.1751C46.7347 89.1946 45.9856 89.9704 45.9638 91.3392C45.942 92.803 45.9444 94.2547 45.9638 95.7137C45.9832 97.1727 46.7784 97.9803 48.2935 97.9827C52.397 97.9827 56.5012 97.9827 60.6063 97.9827C62.1699 97.9827 62.9141 97.2215 62.9335 95.6186C62.9505 94.2816 62.9335 92.9348 62.9335 91.61C62.919 89.885 62.2232 89.1702 60.5093 89.1702C58.4875 89.1653 56.4656 89.1751 54.4438 89.1751H54.4463Z" fill="#5A6C76"/>
<path d="M40.7539 103.299C49.612 103.299 58.4694 103.299 67.326 103.299H114.667C115.059 103.299 115.45 103.277 115.842 103.268L121.265 103.307C121.993 103.307 122.72 103.277 123.435 103.307C124.103 103.301 124.746 103.563 125.223 104.033C125.7 104.504 125.972 105.145 125.981 105.817C126.008 106.879 126.008 107.942 125.981 109.006C125.939 110.497 124.948 111.514 123.464 111.541C121.656 111.578 119.845 111.541 118.036 111.563C117.716 111.563 117.37 111.458 117.079 111.704C115.867 111.397 114.654 111.517 113.442 111.592C112.551 111.512 111.655 111.512 110.764 111.592C109.966 111.499 109.161 111.499 108.364 111.592C107.476 111.515 106.584 111.515 105.697 111.592L102.087 111.536C102.102 108.943 100.958 108.342 98.6739 108.364C86.5042 108.423 74.332 108.391 62.1623 108.394C61.7696 108.394 61.3745 108.379 60.9842 108.416C60.5137 108.455 60.069 108.648 59.7186 108.966C59.3682 109.285 59.1314 109.71 59.0448 110.177C58.9599 110.624 58.9284 111.08 58.8727 111.531L55.2242 111.597H52.7272C51.9305 111.507 51.1263 111.507 50.3296 111.597C49.4383 111.52 48.5421 111.52 47.6508 111.597C46.4048 111.541 45.1563 111.387 43.9272 111.739C43.6387 111.495 43.2945 111.573 42.9575 111.573C41.4787 111.573 39.9999 111.59 38.5236 111.556C37.0472 111.521 36.0702 110.528 36.0193 109.099C35.9805 107.979 35.9805 106.852 36.0193 105.729C36.0452 105.085 36.3146 104.475 36.7724 104.025C37.2303 103.574 37.8419 103.316 38.4823 103.304C39.246 103.265 39.9999 103.294 40.7539 103.299Z" fill="#CCD3D9"/>
<path d="M52.1673 82.1206C50.6012 82.1328 49.0327 82.1401 47.4667 82.162C47.137 82.162 46.8097 82.2304 46.4824 82.267C47.057 79.3392 47.3842 76.3553 47.7939 73.3958C48.3418 69.6361 48.8582 65.8715 49.4497 62.1215C50.0485 58.3252 53.6485 55.29 57.4497 55.29C59.3891 55.29 61.3228 55.29 63.2509 55.29H100.368C101.758 55.29 103.147 55.3071 104.538 55.3071C108.347 55.3071 111.961 58.352 112.553 62.1386C113.088 65.5665 113.522 69.0066 114.022 72.4394C114.07 72.7688 114.148 73.0933 114.211 73.4153L115.476 82.1498H110.938L109.859 82.0962C109.762 81.3764 109.68 80.6567 109.568 79.9418C108.933 75.8844 108.235 71.8392 107.673 67.7721C107.188 64.2685 104.955 61.5652 101.571 61.0285C99.8933 60.7625 98.143 60.9528 96.4267 60.9382C87.0376 60.8382 77.6461 61.0992 68.257 60.7723C66.0533 60.6966 63.8449 60.7381 61.6388 60.7723C58.0703 60.8113 55.0085 63.6293 54.5018 67.1719C54.0558 70.2802 53.457 73.369 52.9818 76.4749C52.6933 78.3535 52.1964 80.198 52.1673 82.1206Z" fill="white"/>
<path d="M70.6665 39.0391H93.532L93.5465 50.2914C90.8968 50.3085 88.2495 50.3402 85.5998 50.3402C80.6318 50.3402 75.6645 50.3288 70.698 50.3061L70.6665 39.0391Z" fill="#D7EAFD"/>
<path d="M70.6862 50.2959C75.6543 50.3073 80.6215 50.3187 85.588 50.33C88.2377 50.33 90.885 50.2983 93.5347 50.2812L100.221 50.3081L100.412 50.3691L100.369 55.2633H63.251C63.0765 53.6335 63.2219 51.9964 63.171 50.3642L65.028 50.2959H70.6862Z" fill="#5A6D77"/>
<path d="M50.3272 111.585C51.1239 111.494 51.9281 111.494 52.7248 111.585C52.7248 112.804 52.6982 114.024 52.7078 115.23C52.7078 116.074 53.0957 116.435 53.92 116.449C54.8266 116.464 55.2242 116.113 55.2339 115.23C55.2339 114.01 55.2339 112.79 55.2145 111.57L58.863 111.504C58.8872 112.646 58.8776 113.793 58.9454 114.934C59.0351 116.452 59.9491 117.306 61.4327 117.335C62.3006 117.355 63.1685 117.364 64.0363 117.377C63.9806 118.84 64.3054 120.356 63.4885 121.724C62.6836 122.678 61.6315 122.988 60.4291 122.986C56.1479 122.971 51.865 122.971 47.5806 122.986C46.3418 122.986 45.2679 122.678 44.4291 121.734C44.0145 120.953 43.8216 120.073 43.8715 119.189C43.8981 116.698 43.903 114.207 43.9151 111.714C45.1442 111.362 46.3927 111.516 47.6388 111.572C47.6388 112.692 47.6145 113.814 47.6194 114.937C47.6194 115.976 47.9975 116.401 48.8945 116.43C49.7333 116.459 50.3151 115.883 50.3321 114.939C50.3612 113.829 50.3345 112.707 50.3272 111.585Z" fill="#B0BABF"/>
<path d="M102.082 111.528L105.692 111.585C105.692 112.739 105.663 113.893 105.675 115.049C105.675 116.025 106.119 116.457 107.055 116.442C107.235 116.446 107.414 116.413 107.581 116.344C107.748 116.274 107.898 116.171 108.024 116.041C108.149 115.91 108.246 115.755 108.309 115.584C108.371 115.414 108.398 115.233 108.388 115.052C108.388 113.895 108.388 112.741 108.371 111.585C109.168 111.492 109.974 111.492 110.771 111.585C110.771 112.822 110.749 114.059 110.752 115.298C110.752 116.03 111.132 116.403 111.852 116.445C112.858 116.503 113.421 115.984 113.459 114.854C113.496 113.768 113.459 112.68 113.459 111.594C114.672 111.519 115.884 111.399 117.096 111.707C117.096 114.422 117.096 117.138 117.115 119.853C117.088 120.517 116.9 121.165 116.567 121.739C115.646 122.769 114.461 123.01 113.142 123.003C109.011 122.974 104.879 122.974 100.747 123.003C99.4836 123.003 98.3661 122.727 97.5055 121.739C96.6642 120.361 97.0521 118.833 96.9939 117.362C97.8351 117.362 98.6909 117.362 99.52 117.362C101.108 117.34 102.027 116.415 102.056 114.812C102.058 113.707 102.068 112.617 102.082 111.528Z" fill="#B0BABF"/>
<path d="M110.938 82.1504H115.476C115.554 82.3212 115.694 82.3163 115.847 82.2821C117.357 82.5507 118.725 83.344 119.713 84.5238C120.701 85.7036 121.246 87.195 121.253 88.7379C121.28 93.5906 121.253 98.4434 121.265 103.296L115.842 103.257C115.842 101.383 115.838 99.5128 115.83 97.6456C116.499 97.0332 116.725 96.2647 116.703 95.3692C116.671 94.164 116.674 92.9538 116.703 91.7486C116.725 90.8507 116.487 90.0871 115.799 89.4893C115.871 86.4713 114.713 84.1803 111.951 82.8018C111.602 82.6237 111.093 82.6554 110.938 82.1504Z" fill="#465A61"/>
<path d="M47.794 73.3968C47.3843 76.3562 47.0667 79.3304 46.4825 82.2679L46.4073 82.302L46.3225 82.285C46.0801 82.0263 45.7528 82.1483 45.4643 82.1459C43.8352 82.1313 42.2061 82.1605 40.577 82.1288C39.3233 82.1243 38.1227 81.6187 37.2393 80.7233C36.356 79.8278 35.8622 78.6159 35.8667 77.3541C35.8712 76.0923 36.3736 74.884 37.2633 73.995C38.153 73.106 39.3572 72.609 40.611 72.6136C41.9079 72.5892 43.2073 72.6453 44.5043 72.5941C45.6551 72.5335 46.7985 72.8125 47.794 73.3968Z" fill="#B8CCD9"/>
<path d="M115.847 82.2903C115.695 82.3245 115.554 82.3293 115.476 82.1586L114.211 73.3948C115.296 72.7813 116.537 72.5053 117.777 72.6018C118.989 72.6555 120.201 72.6019 121.401 72.6214C122.655 72.6214 123.857 73.1226 124.744 74.0148C125.63 74.9071 126.129 76.1172 126.129 77.379C126.129 78.6408 125.63 79.8509 124.744 80.7431C123.857 81.6354 122.655 82.1366 121.401 82.1366C119.833 82.1659 118.262 82.1366 116.691 82.1512C116.412 82.1512 116.09 82.0122 115.847 82.2903Z" fill="#B8CCD9"/>
<path d="M100.221 50.3095L93.5346 50.2826L93.52 39.0303H99.3164C99.3978 39.1166 99.4898 39.192 99.5903 39.2547C101.156 39.9306 101.729 41.1846 101.687 42.8242C101.629 43.9457 101.629 45.0696 101.687 46.1911C101.828 47.9551 101.178 49.2409 99.5903 50.0679L100.221 50.3095Z" fill="#FF707B"/>
<path d="M70.6859 50.2958H65.0277C64.9067 50.2043 64.7786 50.1227 64.6446 50.0518C63.0519 49.4199 62.4459 48.1976 62.4895 46.5361C62.5259 45.0722 62.4895 43.6083 62.4895 42.1444C62.4895 40.9416 63.1004 40.0877 64.0919 39.4728L64.8531 39.002H70.6446C70.6592 42.7788 70.6729 46.5434 70.6859 50.2958Z" fill="#8CCBFF"/>
<path d="M64.863 39.0301L64.1018 39.501C63.1103 40.1158 62.509 40.9649 62.4993 42.1726C62.4993 43.6364 62.526 45.1003 62.4993 46.5642C62.4557 48.2257 63.0618 49.4481 64.6545 50.08C64.7885 50.1509 64.9165 50.2324 65.0375 50.3239L63.1806 50.3923C62.2448 50.3801 61.309 50.3776 60.3733 50.3557C58.4945 50.3069 57.0981 48.9821 57.0303 47.1034C56.9745 45.4931 56.9793 43.8804 57.0303 42.2702C57.086 40.3891 58.3951 39.0813 60.2569 39.035C61.7842 38.9789 63.3236 39.0228 64.863 39.0301Z" fill="#AADCFF"/>
<path d="M100.221 50.3077L99.6001 50.0637C101.188 49.2366 101.838 47.9508 101.697 46.1868C101.639 45.0653 101.639 43.9415 101.697 42.8199C101.738 41.1804 101.166 39.9263 99.6001 39.2505C99.4996 39.1878 99.4076 39.1123 99.3262 39.026C100.926 39.026 102.526 38.9675 104.121 39.026C104.93 39.0556 105.695 39.3988 106.258 39.9836C106.82 40.5684 107.136 41.3496 107.14 42.1636C107.182 43.8341 107.182 45.5045 107.14 47.175C107.098 48.6998 106.102 49.8319 104.604 50.1735C103.273 50.2491 101.937 49.9905 100.606 50.3126L100.424 50.3662L100.221 50.3077Z" fill="#FF9198"/>
<path d="M100.594 50.3158C101.917 49.9937 103.26 50.2523 104.591 50.1767C103.27 50.5402 101.939 50.3011 100.594 50.3158Z" fill="#FB4755"/>
<path d="M52.1675 82.122C52.1966 80.2044 52.6935 78.355 52.982 76.4763C53.4669 73.3705 54.056 70.2817 54.502 67.1734C55.0087 63.6308 58.0705 60.8128 61.639 60.7738C63.8451 60.7494 66.0535 60.7079 68.2572 60.7738C77.6463 61.1007 87.0378 60.8396 96.4269 60.9397C96.5494 61.0181 96.6783 61.0859 96.8123 61.1422C99.8475 62.0961 101.542 64.2139 102.071 67.3198C102.555 70.1938 103.027 73.072 103.486 75.9542C103.811 78.0037 104.1 80.0604 104.405 82.1123C104.012 82.1123 103.62 82.1416 103.229 82.1416H56.5117C55.7844 82.1416 55.0572 82.1611 54.3299 82.1733C53.6684 82.0757 52.9963 82.0757 52.3348 82.1733L52.1675 82.122Z" fill="#B2D9FD"/>
<path d="M80.9937 89.1913C84.525 89.1913 88.0572 89.1913 91.5901 89.1913C93.3234 89.1913 94.0483 89.9403 94.0531 91.6969C94.0531 93.0022 94.0531 94.31 94.0531 95.6177C94.0361 97.1743 93.241 97.9892 91.704 97.9892C84.5768 97.9989 77.4511 97.9989 70.3271 97.9892C68.7998 97.9892 67.9683 97.1572 67.9537 95.6323C67.9392 94.2343 67.9368 92.8363 67.9537 91.4383C67.9707 89.9988 68.7659 89.1986 70.2131 89.1913C73.818 89.1839 77.401 89.1937 80.9937 89.1913ZM80.9574 94.9028C83.7048 94.9028 86.4523 94.9028 89.1998 94.9028C90.3659 94.9028 90.8046 94.5222 90.8046 93.5463C90.8046 92.6802 90.2156 92.1703 89.1562 92.1703C83.721 92.1703 78.2875 92.1703 72.8556 92.1703C71.7937 92.1703 71.2046 92.6777 71.2046 93.5463C71.2046 94.5222 71.6434 94.9004 72.8095 94.9028C75.523 94.9061 78.239 94.9061 80.9574 94.9028Z" fill="#C4D2DC"/>
<path d="M115.797 89.4833C116.485 90.0811 116.723 90.8447 116.701 91.7426C116.674 92.9478 116.672 94.158 116.701 95.3632C116.723 96.2586 116.497 97.0272 115.828 97.6396C115.283 97.8995 114.683 98.0234 114.08 98.0007C110.095 97.986 106.109 98.0007 102.124 98.0007C100.456 98.0007 99.6778 97.2248 99.6705 95.5609C99.6705 94.1628 99.656 92.7648 99.6705 91.3668C99.6851 89.9688 100.439 89.193 101.801 89.1856C106.029 89.1613 110.257 89.1856 114.483 89.1856C114.937 89.1876 115.385 89.2891 115.797 89.4833Z" fill="#FEF3F0"/>
<path d="M54.4437 89.1742C56.4655 89.1742 58.4874 89.1742 60.5043 89.1742C62.2183 89.1742 62.914 89.8915 62.9286 91.614C62.9286 92.9485 62.9431 94.2855 62.9286 95.6226C62.9092 97.2255 62.1649 97.9843 60.6013 97.9867C56.4962 97.9867 52.392 97.9867 48.2886 97.9867C46.7734 97.9867 45.9783 97.2109 45.9589 95.7177C45.9395 94.2245 45.9395 92.8021 45.9589 91.3431C45.9807 89.9744 46.7298 89.1985 48.1043 89.179C50.2158 89.1498 52.3274 89.179 54.4413 89.179L54.4437 89.1742Z" fill="#FEF3F0"/>
<path d="M104.405 82.1215C104.099 80.0696 103.811 78.0128 103.486 75.9634C103.03 73.0812 102.558 70.203 102.07 67.3289C101.542 64.2231 99.8474 62.1053 96.8122 61.1513C96.6782 61.095 96.5493 61.0273 96.4268 60.9488C98.1431 60.9635 99.8934 60.7732 101.571 61.0391C104.965 61.5759 107.19 64.2792 107.673 67.7827C108.235 71.8499 108.933 75.8951 109.569 79.9525C109.68 80.6673 109.763 81.3871 109.859 82.1068L104.405 82.1215Z" fill="#8AC8FD"/>
<path d="M52.3442 82.1914C53.0058 82.0938 53.6779 82.0938 54.3394 82.1914C53.6874 82.3786 52.9963 82.3786 52.3442 82.1914Z" fill="#7A8D99"/>
<path d="M96.9767 117.357H64.8482C64.5792 117.357 64.3076 117.379 64.0361 117.388C63.1683 117.388 62.3004 117.366 61.4325 117.347C59.9488 117.318 59.0349 116.464 58.9452 114.946C58.8773 113.804 58.887 112.658 58.8628 111.516C58.9186 111.064 58.9501 110.608 59.0349 110.162C59.1216 109.695 59.3583 109.269 59.7088 108.951C60.0592 108.633 60.5039 108.439 60.9743 108.4C61.3646 108.363 61.7598 108.378 62.1525 108.378C74.3222 108.378 86.4943 108.407 98.664 108.349C100.948 108.337 102.092 108.937 102.077 111.521C102.063 112.609 102.053 113.699 102.034 114.787C102.005 116.39 101.086 117.315 99.4979 117.337C98.6616 117.357 97.818 117.354 96.9767 117.357Z" fill="white"/>
<path d="M108.371 111.585C108.371 112.741 108.398 113.895 108.388 115.052C108.398 115.233 108.371 115.415 108.309 115.585C108.246 115.755 108.149 115.91 108.024 116.041C107.899 116.172 107.748 116.275 107.581 116.344C107.414 116.413 107.235 116.447 107.055 116.443C106.119 116.457 105.685 116.038 105.675 115.049C105.675 113.893 105.675 112.739 105.692 111.585C106.584 111.507 107.48 111.507 108.371 111.585Z" fill="#86989E"/>
<path d="M113.45 111.592C113.45 112.678 113.496 113.766 113.45 114.852C113.411 115.981 112.848 116.501 111.842 116.442C111.115 116.401 110.744 116.018 110.742 115.296C110.742 114.056 110.742 112.819 110.761 111.582C111.656 111.505 112.556 111.508 113.45 111.592Z" fill="#86989E"/>
<path d="M50.3271 111.584C50.3271 112.706 50.361 113.829 50.3416 114.951C50.3247 115.895 49.7428 116.471 48.9041 116.442C48.0071 116.412 47.6338 115.988 47.6289 114.948C47.6289 113.826 47.6289 112.704 47.6483 111.584C48.5396 111.507 49.4358 111.507 50.3271 111.584Z" fill="#86989E"/>
<path d="M55.2244 111.578C55.2244 112.798 55.2535 114.018 55.2438 115.238C55.2438 116.116 54.8366 116.458 53.9299 116.458C53.096 116.458 52.7178 116.084 52.7178 115.238C52.7178 114.018 52.7178 112.798 52.7347 111.593L55.2244 111.578Z" fill="#86989E"/>
<path d="M80.9578 94.9035C78.2394 94.9035 75.5226 94.9035 72.8075 94.9035C71.6414 94.9035 71.2002 94.5229 71.2026 93.5469C71.2026 92.6784 71.7917 92.1709 72.8536 92.1709C78.2871 92.1709 83.7206 92.1709 89.1542 92.1709C90.2136 92.1709 90.8026 92.6808 90.8026 93.5469C90.8026 94.5229 90.3639 94.901 89.1978 94.9035C86.4519 94.9067 83.7053 94.9067 80.9578 94.9035Z" fill="#9FACBA"/>
</g>
</g>

</svg>
