<svg width="9" height="9" viewBox="0 0 9 9" fill="none" xmlns="http://www.w3.org/2000/svg">
<path d="M5.27519 0.444408L6.16005 1.89813C6.28632 2.10272 6.48213 2.25024 6.70836 2.31123L8.30978 2.7381C8.45973 2.77792 8.59756 2.85658 8.71042 2.96674C8.82329 3.07691 8.90751 3.21501 8.95526 3.36817C9.00301 3.52133 9.01273 3.68457 8.98351 3.84269C8.95428 4.00081 8.88707 4.14866 8.78813 4.27247L7.735 5.59833C7.58553 5.78521 7.51045 6.02451 7.52513 6.26716L7.62913 7.98447C7.63909 8.14506 7.60984 8.30565 7.54413 8.45132C7.47841 8.59699 7.37835 8.723 7.25325 8.81762C7.12815 8.91225 6.98208 8.97241 6.82863 8.99252C6.67517 9.01263 6.51933 8.99203 6.37559 8.93264L4.83844 8.29922C4.62119 8.20881 4.37881 8.20881 4.16156 8.29922L2.62441 8.93264C2.48056 8.99191 2.32467 9.01242 2.17117 8.99228C2.01766 8.97215 1.87152 8.91201 1.74631 8.81744C1.6211 8.72288 1.52086 8.59695 1.4549 8.45134C1.38894 8.30572 1.35941 8.14514 1.369 7.98447L1.47487 6.26716C1.48956 6.02451 1.41447 5.78521 1.265 5.59833L0.211889 4.27247C0.11295 4.14866 0.0457179 4.00081 0.0164943 3.84269C-0.0127293 3.68457 -0.00300437 3.52133 0.0447441 3.36817C0.0924926 3.21501 0.176712 3.07691 0.289576 2.96674C0.402439 2.85658 0.540268 2.77792 0.69022 2.7381L2.29167 2.31123C2.5179 2.25024 2.71368 2.10272 2.83995 1.89813L3.72481 0.444408C3.80749 0.308293 3.92192 0.196161 4.05747 0.118455C4.19301 0.0407502 4.34524 0 4.5 0C4.65476 0 4.80699 0.0407502 4.94253 0.118455C5.07808 0.196161 5.19251 0.308293 5.27519 0.444408Z" fill="#2C3E4F"/>
</svg>
