<svg width="27" height="33" viewBox="0 0 27 33" fill="none" xmlns="http://www.w3.org/2000/svg">
<g clip-path="url(#clip0_0_532)">
<path d="M6.0961 32.9995C6.10564 32.8723 6.12385 32.7417 6.12385 32.6171C6.12385 30.4692 6.12385 28.3208 6.12385 26.1718V25.7498C6.47072 25.7498 6.78029 25.7498 7.0916 25.7498C7.50177 25.7498 7.91454 25.7645 8.32298 25.737C8.88924 25.6991 9.25084 25.3021 9.24477 24.7702C9.2387 24.2382 8.87016 23.8463 8.30217 23.8248C7.70816 23.8034 7.11242 23.8171 6.51754 23.8154H6.12385V23.4063C6.12385 20.4647 6.10304 17.5222 6.13079 14.5806C6.15421 12.1141 5.30698 10.0302 3.51542 8.32344C3.45299 8.26328 3.39402 8.20055 3.33505 8.13781C3.31878 8.11243 3.3054 8.08534 3.29517 8.05703L5.59922 6.90719C5.26883 6.58235 4.96792 6.26352 4.64534 5.97219C4.48512 5.83568 4.35928 5.66399 4.27783 5.47078C4.19639 5.27757 4.16158 5.06819 4.1762 4.8593C4.19788 4.19414 4.16146 3.52727 4.20048 2.86297C4.2872 1.44844 5.24108 0.363906 6.63548 0.0579689C6.69453 0.0409366 6.75245 0.0202714 6.80891 -0.00390625H8.8901C8.79038 0.106953 8.69152 0.219532 8.59007 0.328672C8.17395 0.757703 7.91319 1.31141 7.84864 1.90305C7.70469 3.29352 8.44959 4.4425 9.78242 4.89281C10.6912 5.19961 11.6035 5.49438 12.5253 5.80289V32.9995H6.0961Z" fill="white"/>
<path d="M20.1849 0C20.4988 0.108281 20.8309 0.179609 21.1214 0.330859C22.2375 0.910078 22.7925 1.84766 22.815 3.09203C22.8263 3.72539 22.815 4.35961 22.815 4.99297C22.821 5.15957 22.7906 5.32548 22.7258 5.47931C22.661 5.63315 22.5633 5.77125 22.4395 5.88414C22.0927 6.20727 21.7579 6.53898 21.3807 6.9025L23.7125 8.06524C23.3466 8.46055 22.9824 8.81461 22.6641 9.20477C21.4354 10.7155 20.8596 12.4523 20.8648 14.3911C20.8734 17.3869 20.8648 20.3827 20.8648 23.3784V23.7995C20.7304 23.8073 20.6168 23.8184 20.5023 23.8184C19.9508 23.8184 19.3993 23.8184 18.8477 23.8184C18.1635 23.8245 17.749 24.1854 17.743 24.7715C17.7369 25.3576 18.1592 25.7434 18.859 25.7503C19.3993 25.7555 19.9404 25.7503 20.4806 25.7503H20.8648V26.1723C20.8648 28.3201 20.8648 30.4686 20.8648 32.6176C20.8648 32.7448 20.883 32.8754 20.8925 33H14.4729V5.81883C14.5596 5.78617 14.629 5.75695 14.7001 5.73289C15.5898 5.43469 16.4891 5.16227 17.3675 4.83484C17.8029 4.67376 18.1908 4.40745 18.496 4.06009C18.8012 3.71274 19.0141 3.29533 19.1152 2.84578C19.2163 2.39623 19.2026 1.92876 19.0751 1.48582C18.9477 1.04288 18.7107 0.638494 18.3855 0.309375C18.2893 0.209687 18.2008 0.103125 18.1081 0H20.1849Z" fill="white"/>
<path d="M15.3818 0C15.44 0.0856719 15.5034 0.167751 15.5717 0.245781C16.0269 0.702969 16.4926 1.14984 16.9427 1.61305C17.4361 2.12094 17.2808 2.82219 16.614 3.05336C15.6376 3.39281 14.6542 3.71336 13.67 4.02789C13.5362 4.05896 13.3962 4.04999 13.2676 4.00211C12.323 3.70133 11.3815 3.39367 10.4433 3.07914C9.72005 2.83938 9.54748 2.13383 10.0808 1.58984C10.5265 1.13781 10.9818 0.695234 11.4292 0.245781C11.4974 0.168106 11.5603 0.0859957 11.6174 0H15.3818Z" fill="white"/>
<path d="M0.777022 33.0003C0.201225 32.7906 -0.0138316 32.3729 -0.00342562 31.7765C0.0191206 30.8243 0.00264516 29.8713 0.00264516 28.8916H4.16503C4.1711 29.0025 4.18151 29.1064 4.18151 29.2104C4.18151 30.3683 4.18151 31.5259 4.18151 32.6832C4.18151 32.7889 4.16416 32.8946 4.15376 33.0003H0.777022Z" fill="white"/>
<path d="M22.8463 33.0003C22.8368 32.2269 22.8246 31.4595 22.8186 30.6895C22.8142 30.093 22.8186 29.4958 22.8186 28.8848H26.9948V29.8507C26.9948 30.4935 26.9766 31.1398 27 31.7791C27.0208 32.3755 26.8006 32.7949 26.2239 33.0038L22.8463 33.0003Z" fill="white"/>
<path d="M4.18143 26.9102H0.0259843C0.0207813 26.8019 0.010376 26.6893 0.010376 26.5768C0.010376 21.9493 0.010376 17.3216 0.010376 12.6936C0.010376 11.4157 0.428348 10.2959 1.31546 9.35918C1.37442 9.29731 1.43773 9.23801 1.50103 9.18043C1.51889 9.16941 1.53855 9.16156 1.55913 9.15723C3.21628 10.5193 4.20745 12.202 4.18924 14.3994C4.16929 16.7197 4.1849 19.04 4.1849 21.3604V26.9111L4.18143 26.9102Z" fill="white"/>
<path d="M26.9723 26.9123H22.842C22.8342 26.7963 22.8186 26.6846 22.8186 26.5686C22.8186 22.5009 22.8186 18.4315 22.8186 14.3603C22.8186 12.5831 23.4447 11.0732 24.7264 9.82969C24.9423 9.61914 25.1599 9.40516 25.3698 9.19289C25.3854 9.17828 25.4045 9.16797 25.4955 9.08203C25.6135 9.22984 25.7279 9.38195 25.8511 9.52633C26.5769 10.3763 26.9845 11.3628 26.9879 12.4714C27.0044 17.2392 26.9957 22.0105 26.9957 26.7731C26.9949 26.8127 26.9819 26.8402 26.9723 26.9123Z" fill="white"/>
</g>
<defs>
<clipPath id="clip0_0_532">
<rect width="27" height="33" fill="white"/>
</clipPath>
</defs>
</svg>
