<svg width="33" height="33" viewBox="0 0 33 33" fill="none" xmlns="http://www.w3.org/2000/svg">
<g clip-path="url(#clip0_0_366)">
<path d="M0 24.2338C0.171917 24.0312 0.331727 23.8156 0.518979 23.6284C8.25767 15.8868 15.998 8.14652 23.7399 0.407616C23.8444 0.299928 23.9584 0.201861 24.0805 0.114602C24.1799 0.0389873 24.3014 -0.00195312 24.4263 -0.00195312C24.5513 -0.00195312 24.6728 0.0389873 24.7722 0.114602C24.8856 0.195581 24.9913 0.286919 25.0878 0.387436C27.5958 2.89622 30.1027 5.40338 32.6085 7.90894C33.1267 8.42716 33.1291 8.72502 32.619 9.23598L30.6472 11.2152C30.5528 11.1264 30.4681 11.0481 30.3857 10.9666C29.0534 9.63796 27.7236 8.30904 26.3961 6.97985C26.2998 6.87921 26.1935 6.78861 26.0789 6.70944C25.956 6.63048 25.8097 6.59636 25.6645 6.61283C25.5194 6.6293 25.3844 6.69536 25.2823 6.79984C25.0757 7.02667 25.0159 7.29223 25.1782 7.56749C25.2597 7.69352 25.3565 7.80902 25.4663 7.91136C26.7943 9.2427 28.1236 10.5719 29.4543 11.8989C29.5273 11.9634 29.6059 12.0212 29.6892 12.0717L27.945 13.812C27.2783 13.1428 26.5729 12.4357 25.8683 11.7302C25.5341 11.396 25.2064 11.0546 24.8561 10.7382C24.614 10.5218 24.3355 10.496 24.0571 10.6873C23.9399 10.7569 23.8505 10.8652 23.8044 10.9935C23.7584 11.1218 23.7584 11.2621 23.8045 11.3904C23.8719 11.5589 23.9768 11.7099 24.1112 11.8319C25.0092 12.7408 25.9124 13.6454 26.8207 14.5457C26.896 14.6102 26.9771 14.6678 27.0628 14.7177C26.4534 15.3287 25.8957 15.8897 25.2871 16.504C25.2307 16.41 25.1664 16.3209 25.095 16.2376C23.7681 14.9058 22.4391 13.576 21.1079 12.2485C21.0191 12.1554 20.9212 12.0716 20.8157 11.9982C20.6924 11.9179 20.5452 11.8825 20.3989 11.8978C20.2525 11.9131 20.1159 11.9782 20.0119 12.0822C19.9078 12.1863 19.8427 12.3229 19.8274 12.4693C19.8121 12.6157 19.8476 12.7628 19.9278 12.8861C20.0008 12.9918 20.0846 13.0895 20.1781 13.1775C21.5066 14.5089 22.8362 15.8381 24.1669 17.1651C24.2515 17.239 24.3413 17.3067 24.4356 17.3677L22.685 19.1145C21.7374 18.1628 20.7769 17.1958 19.8132 16.2312C19.7173 16.1303 19.6116 16.0391 19.4977 15.9592C19.3745 15.8768 19.2267 15.8397 19.0792 15.8542C18.9318 15.8687 18.794 15.9339 18.6893 16.0386C18.5846 16.1434 18.5194 16.2812 18.5049 16.4286C18.4904 16.5761 18.5275 16.7239 18.6098 16.8471C18.6832 16.9526 18.767 17.0505 18.86 17.1393C19.7473 18.0299 20.6352 18.9178 21.5235 19.803C21.6109 19.8782 21.7046 19.9458 21.8036 20.0048L20.0223 21.7807C19.898 21.6362 19.7745 21.4723 19.6308 21.3278C18.3459 20.0525 17.0658 18.761 15.7712 17.4896C15.6146 17.3354 15.3765 17.1934 15.1666 17.1788C14.6824 17.1433 14.374 17.7172 14.6251 18.1418C14.7007 18.2599 14.7904 18.3683 14.8922 18.4647C16.2202 19.7961 17.5495 21.1252 18.8802 22.4523C18.9682 22.5269 19.0624 22.5939 19.1619 22.6525L17.4153 24.3855C17.3539 24.3298 17.2692 24.2564 17.1901 24.1765C16.27 23.2568 15.3507 22.3369 14.4322 21.4166C14.19 21.1745 13.9285 21.0405 13.5952 21.189C13.144 21.3908 13.0778 21.9155 13.4652 22.3118C14.0875 22.9503 14.7227 23.5759 15.3539 24.2063C15.7332 24.5849 16.1142 24.9619 16.4839 25.3316L14.7816 27.0331C14.709 26.9661 14.6202 26.8911 14.5443 26.812C13.1916 25.4602 11.8397 24.1081 10.4886 22.7558C10.2747 22.5419 10.0463 22.378 9.71937 22.4781C9.62372 22.5047 9.53559 22.5533 9.46199 22.6199C9.38839 22.6865 9.33133 22.7694 9.29537 22.862C9.2594 22.9545 9.24552 23.0542 9.25481 23.153C9.2641 23.2519 9.29632 23.3472 9.3489 23.4314C9.42654 23.547 9.51668 23.6536 9.61767 23.7495C10.9451 25.0808 12.2739 26.4108 13.604 27.7394C13.6848 27.8202 13.7655 27.9065 13.8325 27.9816L12.0632 29.7389C12.0207 29.6353 11.9645 29.5378 11.8962 29.4491C10.9814 28.5251 10.0632 27.6052 9.14147 26.6893C8.80005 26.3494 8.39649 26.3188 8.11804 26.5989C7.83958 26.879 7.86218 27.2632 8.19068 27.599C8.73145 28.1519 9.2811 28.696 9.82913 29.2417C10.2852 29.6961 10.7444 30.1481 11.2311 30.63C10.6516 31.2064 10.0963 31.7682 9.53131 32.3195C9.28917 32.5568 9.02201 32.7732 8.76615 32.9992H8.44331C8.27139 32.8732 8.0801 32.7683 7.93159 32.6198C5.40906 30.1072 2.89192 27.589 0.380154 25.0652C0.232451 24.9175 0.127524 24.727 0.00322672 24.5558L0 24.2338Z" fill="white"/>
</g>
<defs>
<clipPath id="clip0_0_366">
<rect width="33" height="33" fill="white"/>
</clipPath>
</defs>
</svg>
