<svg width="30" height="30" viewBox="0 0 30 30" fill="none" xmlns="http://www.w3.org/2000/svg">
<path d="M30.0001 1.28901L29.8952 1.92061H12.3703C12.0392 1.03622 12.2137 0.39367 12.8868 0H29.3536C29.6386 0.130888 29.8673 0.359345 29.9985 0.644115L30.0001 1.28901Z" fill="white"/>
<path d="M10.7457 20.6823H20.4395C21.1807 20.6823 21.5031 21.0071 21.5031 21.7561C21.5031 23.299 21.5031 24.8413 21.5031 26.3831C21.5031 28.4555 19.9684 29.9966 17.903 29.9973C13.1393 29.9973 8.37533 29.9973 3.61112 29.9973C1.54024 29.9973 0.00313057 28.4587 0 26.3909C0 24.8293 0 23.2676 0 21.706C0 21.022 0.340448 20.6823 1.02526 20.6823H10.7457ZM10.7762 24.432C9.87931 24.432 8.98214 24.432 8.08471 24.432C7.49225 24.432 7.09153 24.7857 7.0884 25.3054C7.08527 25.8251 7.48755 26.1882 8.0761 26.1882C9.87983 26.1882 11.6838 26.1882 13.4881 26.1882C14.0751 26.1882 14.4766 25.8219 14.4695 25.2999C14.4625 24.7779 14.068 24.4335 13.4967 24.432C12.5896 24.4304 11.6833 24.432 10.7762 24.432Z" fill="white"/>
<path d="M28.3057 20.683H25.7833C24.9826 20.683 24.182 20.6783 23.3814 20.683C23.1982 20.683 23.0902 20.6533 23.0096 20.4576C22.8234 20.0014 22.4937 19.6181 22.0704 19.3658C21.8881 19.2562 21.8513 19.131 21.8513 18.9416C21.8624 18.5618 21.8451 18.1817 21.7996 17.8044C21.6807 17.039 21.2643 16.4473 20.6053 16.0474C20.4226 15.9386 20.2869 15.7656 20.225 15.5622C19.8563 14.5087 19.3335 13.5484 18.5164 12.7681C17.2986 11.6056 15.8484 11.0001 14.1657 10.9516C13.8073 10.9406 13.4496 10.8976 13.0747 10.8671C12.9902 9.86764 12.9096 8.91047 12.8266 7.9259H29.3983C29.0344 12.1796 28.6712 16.4129 28.3057 20.683Z" fill="white"/>
<path d="M3.06417 15.6276C3.39836 14.6102 3.99786 13.8182 4.91042 13.3126C5.35418 13.0668 5.86994 12.9533 6.3497 12.7694C6.48588 12.7162 6.64241 12.6544 6.73085 12.5479C7.20044 11.9868 7.65045 11.41 8.1083 10.8386C8.59745 10.2297 9.11243 10.1937 9.6595 10.7604C10.5337 11.6722 11.5566 12.3257 12.8034 12.5659C13.442 12.6865 14.1057 12.6685 14.749 12.7726C16.4137 13.0426 17.5939 13.97 18.3022 15.4985C18.3174 15.5398 18.3305 15.5819 18.3414 15.6245L3.06417 15.6276Z" fill="white"/>
<path d="M12.6833 6.14028C12.6144 5.3232 12.5479 4.52803 12.4791 3.71408H29.7606C29.6902 4.53038 29.6205 5.33259 29.5501 6.14028H12.6833Z" fill="white"/>
<path d="M1.48623 18.9061C1.47902 18.891 1.47326 18.8753 1.46901 18.8591C1.38605 17.8417 1.60676 17.3838 2.84412 17.3901C8.20314 17.4183 13.5624 17.4183 18.922 17.3901C19.7453 17.3901 20.1703 17.7978 20.0959 18.568C20.0858 18.6728 20.0959 18.7801 20.0959 18.9045L1.48623 18.9061Z" fill="white"/>
<path d="M21.9184 29.9986C22.9022 28.8434 23.3201 27.5591 23.2567 26.0955H26.6385C26.6448 26.1613 26.6581 26.2348 26.6581 26.3092C26.6581 27.2155 26.6581 28.1226 26.6581 29.0289C26.6581 29.6354 26.2989 29.9962 25.697 29.9978C24.4605 30.0009 23.2231 29.9986 21.9184 29.9986Z" fill="white"/>
<path d="M23.282 22.4574H28.1516C28.1156 22.8534 28.1023 23.233 28.042 23.6055C28.0127 23.8017 27.9138 23.9809 27.7634 24.1102C27.6129 24.2395 27.421 24.3104 27.2226 24.3099C25.9156 24.3209 24.6093 24.3099 23.282 24.3099V22.4574Z" fill="white"/>
</svg>
