<svg width="28" height="28" viewBox="0 0 28 28" fill="none" xmlns="http://www.w3.org/2000/svg">
<g clip-path="url(#clip0_1064_23814)">
<path fill-rule="evenodd" clip-rule="evenodd" d="M18.8076 3H8.1924C6.42928 3 5 4.50359 5 6.35835V20.6416C5 22.4964 6.42928 24 8.1924 24H18.8076C20.5707 24 22 22.4964 22 20.6416V6.35835C22 4.50359 20.5707 3 18.8076 3ZM8.51554 18.7311C8.98336 18.7311 9.36261 18.3321 9.36261 17.84C9.36261 17.3478 8.98336 16.9489 8.51554 16.9489C8.04773 16.9489 7.66848 17.3478 7.66848 17.84C7.66848 18.3321 8.04773 18.7311 8.51554 18.7311ZM11.3744 17.0309H18.5867C19.0005 17.0309 19.3358 17.3837 19.3358 17.819V17.855C19.3358 18.2903 19.0005 18.6431 18.5867 18.6431H11.3744C10.9607 18.6431 10.6253 18.2903 10.6253 17.855V17.819C10.6253 17.3837 10.9607 17.0309 11.3744 17.0309ZM8.51554 14.3371C8.98336 14.3371 9.36261 13.9381 9.36261 13.446C9.36261 12.9538 8.98336 12.5549 8.51554 12.5549C8.04773 12.5549 7.66848 12.9538 7.66848 13.446C7.66848 13.9381 8.04773 14.3371 8.51554 14.3371ZM11.3744 12.6369H18.5867C19.0005 12.6369 19.3358 12.9897 19.3358 13.425V13.461C19.3358 13.8963 19.0005 14.2491 18.5867 14.2491H11.3744C10.9607 14.2491 10.6253 13.8963 10.6253 13.461V13.425C10.6253 12.9897 10.9607 12.6369 11.3744 12.6369ZM8.51554 9.93946C8.98336 9.93946 9.36261 9.5405 9.36261 9.04837C9.36261 8.55623 8.98336 8.15727 8.51554 8.15727C8.04773 8.15727 7.66848 8.55623 7.66848 9.04837C7.66848 9.5405 8.04773 9.93946 8.51554 9.93946ZM11.3744 8.24287H18.5867C19.0005 8.24287 19.3358 8.5957 19.3358 9.03095V9.067C19.3358 9.50225 19.0005 9.85508 18.5867 9.85508H11.3744C10.9607 9.85508 10.6253 9.50225 10.6253 9.067V9.03095C10.6253 8.5957 10.9607 8.24287 11.3744 8.24287Z" fill="white"/>
</g>
<defs>
<clipPath id="clip0_1064_23814">
<rect width="17" height="21" fill="white" transform="translate(5 3)"/>
</clipPath>
</defs>
</svg>
