<svg width="44" height="44" viewBox="0 0 44 44" fill="none" xmlns="http://www.w3.org/2000/svg">
<path d="M33.0183 20.1758C34.5371 20.1758 35.7683 18.9446 35.7683 17.4258C35.7683 15.907 34.5371 14.6758 33.0183 14.6758C31.4995 14.6758 30.2683 15.907 30.2683 17.4258C30.2683 18.9446 31.4995 20.1758 33.0183 20.1758Z" fill="white"/>
<path d="M22 16.1058C23.5188 16.1058 24.75 14.8746 24.75 13.3558C24.75 11.8371 23.5188 10.6058 22 10.6058C20.4812 10.6058 19.25 11.8371 19.25 13.3558C19.25 14.8746 20.4812 16.1058 22 16.1058Z" fill="white"/>
<path d="M26.5833 22.9166V20.1666C26.5833 19.4373 26.2936 18.7378 25.7778 18.2221C25.2621 17.7064 24.5626 17.4166 23.8333 17.4166H20.1666C19.4373 17.4166 18.7378 17.7064 18.2221 18.2221C17.7064 18.7378 17.4166 19.4373 17.4166 20.1666V22.9166H26.5833Z" fill="white"/>
<path d="M11.0825 20.1758C12.6013 20.1758 13.8325 18.9446 13.8325 17.4258C13.8325 15.907 12.6013 14.6758 11.0825 14.6758C9.56374 14.6758 8.33252 15.907 8.33252 17.4258C8.33252 18.9446 9.56374 20.1758 11.0825 20.1758Z" fill="white"/>
<path d="M34.8884 21.5233H33.055C31.537 21.5233 29.7917 22.7544 29.7917 24.2733L34.7784 31.2217H37.6017V24.2733C37.6018 23.5503 37.3171 22.8563 36.8093 22.3417C36.3014 21.827 35.6113 21.533 34.8884 21.5233ZM16.0417 23.8196L13.1175 28.4167H11L14.2084 23.8333C14.2084 22.3117 12.98 21.4958 11.4584 21.4958H9.20154C8.47219 21.4958 7.77272 21.7856 7.25699 22.3013C6.74127 22.817 6.45154 23.5165 6.45154 24.2458V29.3333C6.45154 29.8196 6.64469 30.2859 6.98851 30.6297C7.33233 30.9735 7.79864 31.1667 8.28487 31.1667H15.125L15.07 32.1218H10.23L8.25004 35.7207H35.75L27.9584 23.8196H16.0417Z" fill="white"/>
</svg>
