<svg width="25" height="29" viewBox="0 0 25 29" fill="none" xmlns="http://www.w3.org/2000/svg">
<g clip-path="url(#clip0_0_542)">
<path d="M16.4283 29.0002H0.334013C0.107916 28.8416 -0.0354294 28.6468 0.00816451 28.3424C0.0591472 28.0071 0.0975711 27.6695 0.139687 27.3335C0.407162 25.1912 0.674388 23.0489 0.94137 20.9067C1.18766 18.9139 1.43543 16.9212 1.68468 14.9284C1.95265 12.7766 2.22136 10.625 2.4908 8.47366L2.83808 5.70204H3.20752C7.74202 5.70204 12.2765 5.71035 16.811 5.69525C17.7553 5.69525 18.7233 5.8697 19.6454 5.38184C19.638 5.50116 19.638 5.57668 19.6291 5.65069C19.3104 8.2038 18.9917 10.7577 18.673 13.3123C18.3696 15.744 18.0647 18.1761 17.7583 20.6083C17.4371 23.1896 17.1191 25.772 16.8044 28.3553C16.7697 28.6362 16.6766 28.8598 16.4283 29.0002ZM2.2418 26.9234C2.24845 26.8335 2.24993 26.7867 2.25584 26.7406C2.36963 25.8148 2.48932 24.8896 2.59498 23.9622C2.63488 23.6111 2.4413 23.3633 2.14353 23.3377C1.84576 23.312 1.64183 23.5023 1.59676 23.8459C1.44898 24.9787 1.30121 26.1115 1.16821 27.2444C1.1054 27.7602 1.30342 27.9731 1.82359 27.9739C3.1324 27.9739 4.44095 27.9739 5.74926 27.9739C5.80394 27.9739 5.86009 27.9739 5.91477 27.9739C6.22953 27.9452 6.42534 27.7473 6.42608 27.4536C6.42682 27.1598 6.23914 26.9649 5.91699 26.934C5.83423 26.9264 5.75074 26.9294 5.66799 26.9294H2.24402L2.2418 26.9234Z" fill="white"/>
<path d="M19.4148 -0.000129978C19.7296 0.100313 20.0613 0.163751 20.3554 0.30724C21.4401 0.835886 21.9854 1.76328 22.1221 2.96104C22.3437 4.93818 22.5654 6.91607 22.7871 8.89245C23.0161 10.9164 23.2469 12.9401 23.4794 14.9636C23.6907 16.8184 23.9023 18.6731 24.1141 20.5279C24.3456 22.5519 24.5766 24.5754 24.8072 26.5983C24.8692 27.1383 24.9291 27.6783 24.9978 28.2839C24.4924 27.8255 24.0321 27.4094 23.5725 26.9918C23.1521 26.6089 22.739 26.2184 22.3105 25.8461C22.2427 25.7926 22.189 25.7227 22.1541 25.6426C22.1193 25.5626 22.1045 25.475 22.111 25.3877C22.1159 20.8006 22.1159 16.2132 22.111 11.6255C22.1165 11.4942 22.1036 11.3627 22.0726 11.2351C22.0466 11.123 21.9808 11.0247 21.888 10.9594C21.7951 10.8941 21.6818 10.8664 21.5701 10.8817C21.4575 10.8821 21.349 10.9248 21.2652 11.0016C21.1814 11.0785 21.1282 11.1842 21.1157 11.2985C21.0988 11.4294 21.0926 11.5616 21.0972 11.6935C21.0972 16.2248 21.0992 20.756 21.1031 25.2873C21.11 25.4019 21.0873 25.5164 21.0372 25.6193C20.9872 25.7221 20.9115 25.8097 20.8179 25.8733C19.9232 26.5704 19.0402 27.2833 18.1528 27.9879C18.0678 28.0551 17.9799 28.1185 17.8388 28.2243C17.8927 27.7568 17.937 27.3497 17.9866 26.9404C18.3373 24.1557 18.6868 21.3682 19.035 18.578C19.4138 15.5476 19.7941 12.5169 20.1759 9.48604C20.4182 7.54969 20.6596 5.61308 20.9 3.67622C20.9953 2.90213 20.832 2.2081 20.2446 1.67039C19.5301 1.01714 18.4713 1.08737 17.9237 1.84786C17.776 2.05253 17.7065 2.34328 17.6777 2.60307C17.6703 2.67166 17.6769 2.74106 17.6972 2.80688C17.7175 2.8727 17.7509 2.9335 17.7953 2.98541C17.8398 3.03733 17.8943 3.07922 17.9555 3.10844C18.0167 3.13766 18.0831 3.15356 18.1506 3.15513C18.4129 3.16948 18.6264 2.97615 18.6781 2.67784C18.7373 2.33875 19.0335 2.17034 19.3513 2.30854C19.7207 2.47091 19.8847 2.79187 19.9099 3.18232C19.9704 4.15049 19.0505 4.85133 18.0471 4.61042C16.9056 4.33552 16.2428 2.96331 16.6802 1.74516C17.0061 0.838906 17.6504 0.277787 18.5703 0.0542451C18.6316 0.0391409 18.6907 0.0157292 18.7513 -0.00390625L19.4148 -0.000129978Z" fill="white"/>
<path d="M16.5945 0C15.515 1.03388 15.0466 2.93776 16.2495 4.6332C16.1579 4.64151 16.0817 4.65359 16.0056 4.65359C11.6093 4.65359 7.21273 4.65359 2.8159 4.65359C1.75487 4.65359 0.9554 3.84854 0.885207 2.72781C0.801713 1.40091 1.62409 0.339844 2.9452 0.0604169C3.01909 0.0453127 3.08485 0.0203906 3.15431 0H16.5945Z" fill="white"/>
<path d="M18.5851 28.9997C18.8592 28.7671 19.1274 28.5292 19.4067 28.3041C20.0651 27.7755 20.7278 27.2468 21.3899 26.7235C21.4542 26.6721 21.5221 26.6253 21.6027 26.5664L24.2264 28.9997H18.5851Z" fill="white"/>
</g>
<defs>
<clipPath id="clip0_0_542">
<rect width="25" height="29" fill="white"/>
</clipPath>
</defs>
</svg>
