<svg width="16" height="15" viewBox="0 0 16 15" fill="none" xmlns="http://www.w3.org/2000/svg">
<g clip-path="url(#clip0_323_17584)">
<path d="M-0.000382746 5.38867C0.0678395 5.38867 0.136653 5.39341 0.204875 5.39341H14.9889C14.9925 5.44796 14.9978 5.49065 14.9978 5.53274C14.9978 7.21611 14.9978 8.89947 14.9978 10.5828C14.9978 11.2646 14.6128 11.7686 13.9603 11.9464C13.8229 11.9806 13.6817 11.9967 13.5403 11.9945C9.51217 11.9968 5.48429 11.998 1.45661 11.998C0.685399 11.998 0.114112 11.4994 0.0186013 10.8277C0.0142902 10.8092 0.00771421 10.7913 -0.000976562 10.7743L-0.000382746 5.38867Z" fill="#2C3E4F"/>
<path d="M-0.000554422 3.22289C0.0510572 2.98574 0.118091 2.75274 0.271739 2.55413C0.571324 2.16402 0.975318 2.00039 1.45821 2.00098H13.5258C14.0058 2.00098 14.4157 2.15216 14.7159 2.54287C14.8963 2.77909 14.994 3.06801 14.9941 3.36518H0.175041C0.115718 3.36518 0.056394 3.36518 -0.00292969 3.36993L-0.000554422 3.22289Z" fill="#2C3E4F"/>
</g>
<defs>
<clipPath id="clip0_323_17584">
<rect width="15" height="10" fill="white" transform="translate(0 2)"/>
</clipPath>
</defs>
</svg>
