<svg width="28" height="28" viewBox="0 0 28 28" fill="none" xmlns="http://www.w3.org/2000/svg">
<g clip-path="url(#clip0_1018_21839)">
<path d="M14.0169 24.7455L14.0169 2.81401H15.7072C15.7297 2.81245 15.7522 2.81573 15.7733 2.82362C15.7943 2.83151 15.8135 2.84384 15.8294 2.85976C15.8453 2.87568 15.8577 2.89481 15.8656 2.91589C15.8735 2.93698 15.8767 2.95953 15.8752 2.98199L15.9802 18.3414L22.1638 13.0921C22.187 13.0712 22.2159 13.0578 22.2467 13.0533C22.2776 13.0489 22.3091 13.0538 22.3372 13.0673C22.3653 13.0808 22.3888 13.1023 22.4046 13.1291C22.4205 13.156 22.428 13.187 22.4263 13.2181L22.4263 17.5645C22.4255 17.5873 22.4194 17.6096 22.4084 17.6297C22.3975 17.6497 22.382 17.6669 22.3633 17.68L14.0904 24.714C14.0696 24.7316 14.044 24.7425 14.0169 24.7455Z" fill="#65A5EF"/>
<path d="M5.43963 13.3021C5.44058 13.2708 5.45022 13.2405 5.46744 13.2145C5.48466 13.1884 5.50878 13.1677 5.53713 13.1546C5.56548 13.1415 5.59693 13.1366 5.62792 13.1404C5.65892 13.1442 5.68824 13.1565 5.7126 13.1761L11.9592 18.3519L11.8647 2.99246C11.8647 2.94791 11.8825 2.9052 11.914 2.8737C11.9455 2.84219 11.9882 2.82448 12.0327 2.82448H14.017L14.017 24.7455C14.0003 24.7524 13.9825 24.756 13.9645 24.756C13.9464 24.756 13.9286 24.7524 13.912 24.7455L5.51313 17.8164C5.49217 17.8031 5.47521 17.7844 5.46411 17.7622C5.45301 17.74 5.44819 17.7152 5.45014 17.6904L5.43963 13.3021Z" fill="#4D93E6"/>
</g>
<defs>
<clipPath id="clip0_1018_21839">
<rect width="17.0182" height="21.942" fill="white" transform="translate(22.4578 24.7455) rotate(-180)"/>
</clipPath>
</defs>
</svg>
