<svg width="73" height="66" viewBox="0 0 73 66" fill="none" xmlns="http://www.w3.org/2000/svg">
<path d="M71.5777 21.7685C71.895 21.6337 72.1784 21.4312 72.4077 21.1755C72.637 20.9198 72.8065 20.6172 72.9042 20.2892C73.0018 19.9612 73.0252 19.6159 72.9727 19.2779C72.9202 18.9399 72.7931 18.6176 72.6004 18.3338C72.4279 18.0806 72.2071 17.8632 71.9506 17.6937L71.9213 17.6741C71.8613 17.6363 71.7999 17.6012 71.7372 17.5688L71.5381 17.4547L53.1825 6.95392L52.1373 6.35501L41.0326 0C40.7129 1.53001 39.9704 2.73727 38.8058 3.4037L38.2304 3.73522L50.5098 10.7641L50.6039 10.8174L64.7753 18.9273L64.8741 18.984L65.9868 19.6207L56.2792 25.1574L56.1156 25.2506L51.1834 28.0648L51.0191 28.1587L33.1714 38.3414L32.8052 38.1348L30.5219 36.8445C26.8176 34.7257 21.8554 33.7487 16.9954 33.9107C16.9232 33.9107 16.8509 33.9154 16.7786 33.9188C13.4766 34.0539 10.2333 34.7135 7.47263 35.9019L7.30694 35.9741C6.71697 36.2337 6.14139 36.5242 5.58265 36.8445L4.70448 37.3522L0 40.0753C0.201988 40.1016 0.396425 40.1684 0.571356 40.2718C1.43044 40.7526 2.13134 41.9382 2.13952 42.92C2.13952 42.9794 2.13951 43.0361 2.13337 43.0915L6.14787 40.7681L7.05331 40.2441C7.76903 39.8355 8.51449 39.4803 9.28351 39.1814C9.36941 39.1476 9.45601 39.1138 9.5426 39.0821C11.708 38.2719 14.1584 37.7992 16.6545 37.6716L16.9232 37.6594C19.7056 37.544 22.5351 37.8519 25.0844 38.5838C25.1758 38.6101 25.2665 38.6365 25.3572 38.6641C26.0951 38.8851 26.8191 39.1493 27.5253 39.4555C28.0648 39.69 28.591 39.9532 29.1017 40.2441L30.2341 40.8835L30.5389 41.055L30.7073 41.1503L38.6463 45.6343L38.8167 45.7302L41.4179 47.1974C41.8213 47.4274 42.2127 47.6776 42.5906 47.9468C42.8026 48.0981 43.0099 48.2568 43.2103 48.4195C43.3276 48.5158 43.4428 48.6146 43.556 48.7159L43.7053 48.8509C44.1078 49.2258 44.4731 49.638 44.7962 50.0818C45.3648 50.8678 45.9471 51.8623 45.9103 52.8677C45.9103 52.9352 45.9021 53.0082 45.8932 53.0777C45.8678 53.2776 45.8254 53.475 45.7664 53.6678C45.7521 53.7151 45.7371 53.7617 45.7207 53.8083C45.6839 53.9163 45.643 54.0232 45.598 54.129C45.5789 54.1736 45.5592 54.2181 45.5387 54.264C45.2148 54.9696 44.7253 55.6293 44.2399 56.1627L44.1458 56.2633L44.0592 56.3558L43.9603 56.4551C43.5584 56.8584 43.1242 57.2289 42.6622 57.5631C42.5258 57.663 42.3853 57.7602 42.2408 57.8548C42.159 57.9088 42.0765 57.9628 41.994 58.0155C41.9115 58.0681 41.8453 58.1086 41.7703 58.1505C41.6794 58.2059 41.5867 58.2606 41.4922 58.3146L34.5323 62.3415C34.6568 62.3792 34.7766 62.4306 34.8895 62.4948C35.7479 62.9762 36.4488 64.1618 36.4543 65.1436C36.4561 65.2632 36.4453 65.3827 36.4222 65.5001L44.7642 60.6751C44.8705 60.6134 44.9753 60.5515 45.0785 60.4894C45.4228 60.2808 45.7603 60.0566 46.0869 59.8203C46.4218 59.5793 46.7443 59.3217 47.053 59.0485L47.1662 58.9466C47.3025 58.8244 47.4328 58.6988 47.561 58.5698C47.5984 58.5327 47.6366 58.4955 47.6721 58.4577L47.7709 58.3531C47.8057 58.3153 47.8425 58.2774 47.8773 58.239C48.9528 57.054 49.6442 55.5766 49.8621 53.998C49.8682 53.9568 49.8743 53.915 49.8791 53.8731C49.8893 53.7927 49.8989 53.7124 49.9064 53.6314C49.9105 53.5895 49.9146 53.5483 49.9173 53.5065C49.9384 53.2553 49.9473 53.0021 49.9459 52.7462C49.9377 51.4755 49.6793 50.1804 49.1277 49.1197C48.9007 48.6825 48.6339 48.2666 48.3307 47.8773C48.3028 47.8402 48.2734 47.8044 48.2448 47.7686C47.2841 46.566 46.0092 45.6032 44.6796 44.8429L40.5206 42.4932L37.8656 40.9936L37.9884 40.9261L58.2933 29.3409L58.3751 29.295L71.5777 21.7685Z" fill="#03476D"/>
</svg>
