<svg width="25" height="22" viewBox="0 0 25 22" fill="none" xmlns="http://www.w3.org/2000/svg">
<path d="M17.1449 12.1721H22.2324L13.1258 21.2787C12.9377 21.4532 12.6905 21.5501 12.4339 21.5501C12.1773 21.5501 11.9302 21.4532 11.742 21.2787L2.99151 12.5282L2.63541 12.1721H7.31588C7.45829 12.1726 7.59795 12.1327 7.71862 12.0571C7.83928 11.9814 7.93606 11.8731 7.99765 11.7447L8.48602 10.7272L10.1954 14.2478C10.2606 14.3737 10.3591 14.4793 10.4802 14.553C10.6013 14.6267 10.7404 14.6657 10.8822 14.6657C11.024 14.6657 11.1631 14.6267 11.2842 14.553C11.4053 14.4793 11.5039 14.3737 11.569 14.2478L14.6927 7.93927L16.4225 11.6938C16.4825 11.8358 16.5831 11.9568 16.7116 12.0419C16.8401 12.127 16.9908 12.1722 17.1449 12.1721Z" fill="#B8BBC3"/>
<path d="M24.9593 6.6776C24.963 8.09969 24.506 9.48474 23.6569 10.6255H17.6231L15.4253 5.87376C15.3652 5.74345 15.2691 5.63303 15.1483 5.55552C15.0275 5.478 14.8871 5.43662 14.7436 5.43625C14.6014 5.43746 14.4623 5.47682 14.3406 5.55021C14.2189 5.62359 14.1191 5.72831 14.0517 5.85343L10.9076 12.1721L9.23892 8.65155C9.16722 8.53363 9.0664 8.43615 8.94611 8.36851C8.82582 8.30087 8.69013 8.26536 8.55212 8.26536C8.41412 8.26536 8.27843 8.30087 8.15814 8.36851C8.03785 8.43615 7.93703 8.53363 7.86533 8.65155L6.90887 10.6255H1.30245C0.453303 9.48474 -0.00365047 8.09969 2.19637e-05 6.6776C-0.000533641 5.35704 0.39063 4.06598 1.12403 2.9678C1.85742 1.86962 2.90013 1.01367 4.12013 0.508238C5.34014 0.00280726 6.68264 -0.129366 7.97779 0.128415C9.27295 0.386195 10.4625 1.02234 11.396 1.95639L11.9964 2.55671C12.1341 2.6862 12.3161 2.7583 12.5051 2.7583C12.6942 2.7583 12.8761 2.6862 13.0139 2.55671L13.604 1.95639C14.5375 1.02234 15.7271 0.386195 17.0222 0.128415C18.3174 -0.129366 19.6599 0.00280726 20.8799 0.508238C22.0999 1.01367 23.1426 1.86962 23.876 2.9678C24.6094 4.06598 25.0005 5.35704 25 6.6776H24.9593Z" fill="#B8BBC3"/>
</svg>
