<svg width="28" height="28" viewBox="0 0 28 28" fill="none" xmlns="http://www.w3.org/2000/svg">
<g clip-path="url(#clip0_0_508)">
<path d="M27.8719 13.66L14.3341 0.174439C14.1517 -0.00801613 13.8562 -0.00801613 13.6737 0.174439L0.135455 13.66C-0.0469999 13.8425 -0.0432941 14.1337 0.135455 14.3185C0.226912 14.4128 0.346368 14.4608 0.464908 14.4618V14.4636H3.73341V27.4965C3.73341 27.6253 3.78566 27.7406 3.87011 27.8246C3.95457 27.9095 4.07123 27.9622 4.20002 27.9622H10.7333C10.9909 27.9622 11.1999 27.7532 11.1999 27.4965V18.1885H16.7999V27.4965C16.7999 27.7527 17.0089 27.9622 17.2666 27.9622H23.7998C24.0574 27.9622 24.2665 27.7532 24.2665 27.4965V14.4636H27.5559C27.6782 14.466 27.7934 14.4179 27.8718 14.319C28.0305 14.116 28.0544 13.8425 27.8719 13.66Z" fill="white"/>
</g>
<defs>
<clipPath id="clip0_0_508">
<rect width="28" height="28" fill="white"/>
</clipPath>
</defs>
</svg>
