<svg width="29" height="29" viewBox="0 0 29 29" fill="none" xmlns="http://www.w3.org/2000/svg">
<g clip-path="url(#clip0_1018_21499)">
<path d="M5.52102 29.0002C4.95849 28.8619 4.43785 28.6456 3.9856 28.2583C2.49205 26.9815 2.73633 24.4528 4.44483 23.4874C4.93318 23.2118 5.48382 23.0705 6.04236 23.0774C12.0114 23.0774 17.9809 23.0774 23.9509 23.0774C25.4675 23.0774 26.647 24.0236 26.9401 25.4437C27.2674 27.0297 26.2185 28.6357 24.6537 28.9421C24.5926 28.9579 24.5322 28.9768 24.473 28.9988L5.52102 29.0002Z" fill="#DB135B"/>
<path d="M23.7584 21.5024H18.1346C18.1346 21.3761 18.1346 21.2655 18.1346 21.1541C18.1346 20.1348 18.1534 19.1148 18.1199 18.0962C18.0641 16.4201 16.6494 15.0731 14.9912 15.0788C13.3329 15.0844 11.9287 16.4265 11.8729 18.1076C11.8394 19.1169 11.8617 20.1277 11.8582 21.1378V21.4953H6.24417C6.23719 21.4244 6.22393 21.3627 6.22393 21.2995C6.23021 18.5998 6.19811 15.8994 6.25673 13.2005C6.3021 11.1491 7.07818 9.34812 8.40423 7.80535C9.61822 6.36793 11.2621 5.37433 13.0845 4.97656C15.2794 4.48429 17.3711 4.79639 19.3232 5.92564C21.2752 7.05488 22.6034 8.72463 23.3278 10.8859C23.6293 11.8099 23.7788 12.7782 23.7703 13.7516C23.7703 16.2532 23.7703 18.7547 23.7703 21.2563C23.7696 21.33 23.7626 21.4045 23.7584 21.5024Z" fill="#DB135B"/>
<path d="M16.4542 21.5048H13.569C13.5537 21.48 13.5426 21.4526 13.5362 21.424C13.5362 20.3493 13.5181 19.274 13.5453 18.2001C13.5586 17.8185 13.7169 17.4571 13.9869 17.1916C14.2569 16.9261 14.6176 16.7773 14.9932 16.7764C15.3689 16.7755 15.7303 16.9225 16.0015 17.1867C16.2728 17.4508 16.4328 17.8115 16.4479 18.193C16.4751 19.2854 16.4542 20.3784 16.4542 21.5048Z" fill="#DB135B"/>
<path d="M9.20563 5.07333C9.1826 5.47765 9.05139 5.73371 8.76664 5.89402C8.47142 6.05929 8.14619 6.07632 7.90471 5.85004C7.32683 5.30741 6.76571 4.74279 6.23389 4.15334C5.95961 3.84904 6.03778 3.36315 6.32881 3.07446C6.61984 2.78576 7.09094 2.7198 7.39244 3.00352C7.95775 3.53268 8.49515 4.09376 9.02557 4.6598C9.13653 4.77896 9.16585 4.97686 9.20563 5.07333Z" fill="#DB135B"/>
<path d="M15.8921 1.88711C15.8921 2.23539 15.8991 2.58438 15.8921 2.93266C15.893 3.15381 15.8083 3.36645 15.6565 3.52485C15.5046 3.68325 15.2977 3.77476 15.0801 3.77968C14.8626 3.78461 14.6518 3.70256 14.4932 3.55119C14.3345 3.39982 14.2407 3.19122 14.2318 2.97025C14.2118 2.25431 14.2118 1.53813 14.2318 0.82171C14.234 0.710865 14.2579 0.601579 14.3021 0.500197C14.3462 0.398814 14.4098 0.307357 14.489 0.231135C14.5682 0.154913 14.6615 0.0954465 14.7635 0.0561872C14.8656 0.0169279 14.9742 -0.00134156 15.0833 0.00244023C15.5404 0.0159174 15.881 0.376963 15.8915 0.872071C15.8977 1.20829 15.8921 1.54735 15.8921 1.88711Z" fill="#DB135B"/>
<path d="M24.1582 3.72551C24.0535 3.91631 23.981 4.13762 23.8386 4.29296C23.3821 4.78949 22.9062 5.26332 22.4267 5.73573C22.0652 6.09039 21.5655 6.09039 21.2326 5.75488C20.8996 5.41937 20.9003 4.90369 21.2507 4.53981C21.7225 4.04659 22.2013 3.56047 22.687 3.08144C22.8028 2.95662 22.9546 2.8724 23.1206 2.84091C23.2865 2.80942 23.458 2.8323 23.6104 2.90624C23.916 3.03675 24.108 3.34956 24.1582 3.72551Z" fill="#DB135B"/>
</g>
<defs>
<clipPath id="clip0_1018_21499">
<rect width="24" height="29" fill="white" transform="translate(3)"/>
</clipPath>
</defs>
</svg>
