<svg width="27" height="27" viewBox="0 0 27 27" fill="none" xmlns="http://www.w3.org/2000/svg">
<path fill-rule="evenodd" clip-rule="evenodd" d="M6.47837 11.458C6.96315 11.458 7.35615 11.837 7.35615 12.3045C7.35615 12.3327 7.35472 12.3606 7.35193 12.388V14.7188H7.34737V14.7256C7.34737 14.7415 7.34852 14.7574 7.34966 14.7733C7.35071 14.7879 7.35177 14.8024 7.35193 14.817V15.1353H7.36844C7.62934 18.1459 10.1841 20.4924 13.3148 20.597H13.6695C16.8012 20.4941 19.3574 18.1469 19.6173 15.1353H19.6384V12.3147L19.6451 12.3147L19.645 12.3045C19.645 11.837 20.038 11.458 20.5228 11.458C21.0076 11.458 21.4006 11.837 21.4006 12.3045C21.4006 12.3289 21.3995 12.353 21.3974 12.3769V14.4547H21.3869C21.3896 18.3435 18.3754 21.6196 14.3713 22.0801V24.6535H17.6788V24.6644C17.6905 24.6639 17.7022 24.6637 17.7139 24.6637C18.1987 24.6637 18.5917 25.0427 18.5917 25.5102C18.5917 25.9777 18.1987 26.3567 17.7139 26.3567C17.7022 26.3567 17.6905 26.3565 17.6788 26.3561L9.31886 26.3567C9.30837 26.3571 9.29783 26.3567 9.28726 26.3567C8.80247 26.3567 8.40948 25.9777 8.40948 25.5102C8.40948 25.0427 8.80247 24.6637 9.28726 24.6637C9.29783 24.6637 9.30837 24.6639 9.31886 24.6642V24.6535H12.6333V22.0801C8.62078 21.6304 5.59571 18.3504 5.60059 14.4547C5.60059 14.4344 5.60236 14.4152 5.60408 14.3964C5.60553 14.3806 5.60694 14.3652 5.60726 14.3497V12.4094C5.60286 12.3751 5.60059 12.3401 5.60059 12.3045C5.60059 11.837 5.99359 11.458 6.47837 11.458ZM18.2055 14.5901C18.2336 14.0788 18.2336 13.5405 18.2336 13.0292L18.2343 8.74917C18.2343 8.61647 18.2365 8.3742 18.2391 8.07956C18.2465 7.2465 18.2577 5.99477 18.2343 5.61706C18.2029 5.15507 18.1205 4.69762 17.9885 4.25248C17.4264 2.30851 15.5901 0.963867 13.4975 0.963867C11.4048 0.963867 9.56853 2.30851 9.00643 4.25248C8.8573 4.69367 8.77453 5.15321 8.76065 5.61706C8.76273 5.89722 8.76174 7.19552 8.76108 8.05958C8.76084 8.36518 8.76065 8.61647 8.76065 8.74917V13.0292C8.76065 13.0687 8.76064 13.1085 8.76062 13.1483C8.76042 13.6236 8.76021 14.1184 8.78839 14.5901C8.80914 15.0513 8.88202 15.5088 9.00573 15.9547C9.27839 16.892 9.86505 17.7159 10.6742 18.2979C12.3296 19.5574 14.6647 19.5574 16.3201 18.2979C17.1271 17.7141 17.7131 16.8909 17.9878 15.9547C18.111 15.5087 18.184 15.0512 18.2055 14.5901ZM16.4498 14.5868C16.4709 14.2617 16.4779 14.1533 16.4779 13.8283C16.4779 11.9418 16.4828 10.268 16.4867 8.93006C16.4922 7.06443 16.4957 5.85203 16.4814 5.62723C16.4586 5.33095 16.4021 5.03799 16.3129 4.75363C16.1447 4.1543 15.7786 3.62415 15.2701 3.24344C14.228 2.46238 12.7694 2.46238 11.7273 3.24344C11.2168 3.62303 10.8493 4.15348 10.681 4.75363C10.6009 5.03931 10.5504 5.33194 10.5301 5.62723C10.5117 5.86224 10.5144 7.3747 10.5184 9.65516C10.5205 10.8576 10.523 12.2735 10.523 13.8283C10.523 14.1533 10.5265 14.2617 10.5441 14.5868C10.558 14.8818 10.6038 15.1746 10.681 15.4604C10.8493 16.0605 11.2168 16.591 11.7273 16.9706C12.7694 17.7516 14.228 17.7516 15.2701 16.9706C15.7786 16.5898 16.1447 16.0597 16.3129 15.4604C16.3918 15.1749 16.4377 14.8819 16.4498 14.5868Z" fill="#8E969B"/>
<rect x="9.81348" y="2.05273" width="7.37333" height="16.8533" rx="3.68667" fill="#8E969B"/>
</svg>
