<svg width="29" height="29" viewBox="0 0 29 29" fill="none" xmlns="http://www.w3.org/2000/svg">
<g clip-path="url(#clip0_0_201)">
<path d="M14.4976 28.9991C10.2167 28.9991 5.93593 28.9991 1.65513 28.9991C0.66849 28.9991 -0.05332 28.2914 0.000775451 27.3627C0.0174471 27.1326 0.0788783 26.9078 0.181631 26.7011C1.12628 24.7913 2.08709 22.8895 3.03093 20.9797C3.13266 20.7748 3.27315 20.7837 3.44593 20.7837C8.58312 20.7837 13.72 20.7837 18.8567 20.7837C21.0932 20.7837 23.3296 20.7836 25.5653 20.7788C25.7841 20.7788 25.9004 20.8353 26.0021 21.0394C26.9153 22.8871 27.8438 24.7268 28.7642 26.5704C29.4021 27.8469 28.6835 28.9991 27.2495 28.9991H14.4976ZM14.0365 24.1579V23.1897H15.4551V22.2336C14.8593 22.2336 14.2779 22.2336 13.6966 22.2336C13.2057 22.2336 13.0507 22.3893 13.0507 22.8863C13.0507 24.3451 13.0507 25.8042 13.0507 27.2635C13.0507 27.3515 13.0604 27.4386 13.0652 27.5273H14.0341V25.1197H15.447V24.1595L14.0365 24.1579Z" fill="white"/>
<path d="M4.12744 18.832C4.17427 18.7279 4.20818 18.6456 4.24693 18.5666C5.44834 16.1664 6.64812 13.765 7.8463 11.3621C7.94318 11.1653 8.05622 11.1144 8.2613 11.1152C12.4215 11.1201 16.5823 11.1201 20.7436 11.1152C20.9051 11.1152 21.0375 11.1104 21.1336 11.3024C22.3533 13.7617 23.5797 16.2175 24.8129 18.6698C24.8339 18.7134 24.8492 18.7594 24.8783 18.8312L4.12744 18.832ZM14.5025 15.9507C14.6244 15.9507 14.7043 15.9507 14.7834 15.9507C15.2008 15.941 15.5999 15.7777 15.9043 15.4921C16.2086 15.2066 16.3969 14.8188 16.4329 14.4032C16.4706 13.9929 16.3547 13.5832 16.1076 13.2533C15.8605 12.9235 15.4997 12.697 15.0951 12.6176C14.8028 12.5587 14.4944 12.5749 14.1932 12.5716C13.6943 12.566 13.5376 12.7233 13.5368 13.2115C13.5368 14.51 13.5368 15.8085 13.5368 17.107V17.3845H14.5057L14.5025 15.9507Z" fill="white"/>
<path d="M20.0363 9.17297H8.96777C9.01057 9.07212 9.04044 8.98901 9.07919 8.91074C10.4017 6.26749 11.7253 3.6245 13.05 0.981774C13.599 -0.111515 14.8989 -0.334204 15.6659 0.531552C15.7775 0.661187 15.872 0.804635 15.9469 0.958372C17.2812 3.61884 18.6134 6.28147 19.9435 8.94624C19.9774 9.0116 20.0016 9.08583 20.0363 9.17297ZM15.0095 6.29976C14.8747 6.65236 14.7035 6.79921 14.4548 6.7637C14.2061 6.7282 14.035 6.57732 14.0293 6.32719C14.0137 5.6532 14.0137 4.97894 14.0293 4.30441C14.035 4.06881 14.1997 3.91712 14.433 3.88C14.5333 3.86066 14.6372 3.87601 14.7276 3.92353C14.818 3.97104 14.8895 4.04788 14.9304 4.14142C14.9659 4.21001 14.9925 4.28181 15.0176 4.3391H15.938C15.9398 3.96605 15.7954 3.60712 15.5357 3.33914C15.276 3.07116 14.9217 2.91543 14.5485 2.90531C13.7653 2.88514 13.0847 3.48948 13.0605 4.26648C13.0378 4.97086 13.0362 5.67687 13.0605 6.38045C13.0879 7.16875 13.7871 7.7747 14.5848 7.73435C15.3446 7.69562 15.9614 7.04368 15.9299 6.29976H15.0095Z" fill="white"/>
<path d="M14.5259 13.5552C15.0822 13.5052 15.4528 13.7779 15.4689 14.237C15.4835 14.6275 15.1338 15.0721 14.5259 14.9712V13.5552Z" fill="white"/>
</g>
<defs>
<clipPath id="clip0_0_201">
<rect width="29" height="29" fill="white"/>
</clipPath>
</defs>
</svg>
