<svg width="29" height="31" viewBox="0 0 29 31" fill="none" xmlns="http://www.w3.org/2000/svg">
<g clip-path="url(#clip0_0_278)">
<path d="M18.3583 31.0013C17.7938 30.7467 17.5927 30.3073 17.6234 29.6937C17.658 28.989 17.6447 28.2816 17.6234 27.5756C17.6087 27.0048 17.8617 26.6378 18.4968 26.3913C18.3755 26.3268 18.2605 26.2509 18.1533 26.1648C15.7852 23.7846 13.4193 21.4008 11.0557 19.0134C10.1118 18.0581 10.4752 16.5831 11.7214 16.2642C11.9737 16.1901 12.2413 16.1857 12.4959 16.2514C12.7506 16.3172 12.9829 16.4507 13.1686 16.638C13.8116 17.2744 14.4294 17.9362 15.0565 18.5887C15.3148 18.8566 15.5571 19.1433 15.834 19.3925C15.8937 19.4438 15.9639 19.4815 16.0395 19.5028C16.1151 19.524 16.1945 19.5285 16.272 19.5158C16.3599 19.4876 16.4398 19.2478 16.4265 19.1138C16.2889 17.7393 16.138 16.3665 15.9738 14.9955C15.9493 14.8948 15.9536 14.7892 15.9861 14.6909C16.0186 14.5925 16.078 14.5054 16.1575 14.4395C16.3239 14.2975 16.4624 14.122 16.6901 13.8809C16.8578 14.0885 16.9896 14.2828 17.1494 14.4435C17.646 14.9567 18.1506 15.4617 18.6565 15.9655C19.0759 16.3821 19.5246 16.3821 19.9453 15.9655C20.611 15.305 21.262 14.6391 21.9956 13.8996C22.1153 14.0668 22.2433 14.2277 22.379 14.3819C22.9045 14.9178 23.437 15.4537 23.9767 15.9896C24.3761 16.3915 24.8115 16.3915 25.2175 15.9896C25.5557 15.6587 25.8832 15.3197 26.2174 14.9848C26.5516 14.6499 26.8751 14.3069 27.2386 13.9331C27.646 14.3471 28.0121 14.7597 28.4208 15.1228C28.5689 15.2444 28.6844 15.4015 28.7567 15.5795C28.8291 15.7576 28.8559 15.9511 28.8349 16.1423C28.7017 19.2853 28.5886 22.431 28.4554 25.574C28.4434 25.8567 28.3223 26.1327 28.2384 26.4435C28.8761 26.6552 29.0066 27.1884 28.9813 27.8341C28.956 28.4584 28.9547 29.0854 28.9813 29.7097C29.008 30.3341 28.8043 30.7668 28.2238 31.0026L18.3583 31.0013Z" fill="white"/>
<path d="M7.80846 22.6657C7.40905 22.2423 7.0376 21.8216 6.64351 21.421C4.61094 19.3561 2.57572 17.2942 0.537827 15.2355C-0.344874 14.3379 -0.127859 12.9821 0.987832 12.548C1.26673 12.4248 1.57632 12.3901 1.87533 12.4485C2.17433 12.5069 2.44853 12.6557 2.66136 12.8749C3.32705 13.5193 3.95147 14.2013 4.59319 14.8671C4.83017 15.1136 5.05251 15.3789 5.3108 15.5999C5.37143 15.6505 5.44213 15.6875 5.51815 15.7083C5.59416 15.7291 5.67374 15.7333 5.75149 15.7205C5.83803 15.6924 5.91657 15.4526 5.90326 15.3186C5.7608 13.9146 5.59971 12.5052 5.44261 11.1092C5.41465 10.86 5.85666 10.2866 6.10829 10.3053C6.23342 10.3256 6.34824 10.3874 6.43449 10.4808C6.99367 11.0301 7.54352 11.5915 8.09737 12.1461C8.56069 12.6083 8.99205 12.6083 9.4527 12.1461C9.9999 11.5982 10.5444 11.0462 11.0916 10.4982C11.3792 10.2102 11.4658 10.2115 11.7573 10.4982C12.3045 11.0462 12.8411 11.6049 13.4002 12.1408C13.552 12.2868 13.7704 12.3618 13.9528 12.4757C14.0127 12.5132 14.0992 12.5668 14.1059 12.6217C14.2217 13.597 14.3282 14.575 14.4347 15.5303C14.0433 15.2958 13.6812 15.0158 13.2738 14.8457C12.8211 14.6566 12.3306 14.5771 11.8419 14.6136C11.3531 14.6502 10.8797 14.8017 10.4598 15.056C10.0399 15.3103 9.68514 15.6602 9.4242 16.0777C9.16325 16.4952 9.00337 16.9685 8.95744 17.4595C8.84826 18.4991 9.18377 19.3766 9.90138 20.1242C11.8984 22.2075 13.8955 24.3015 15.8926 26.374C16.1202 26.6085 16.1149 26.8188 16.0417 27.0707C16.0257 27.1296 15.9205 27.1886 15.85 27.198C15.7003 27.2103 15.5499 27.2125 15.4 27.2047H8.29973C7.44366 27.2047 7.09085 26.851 7.09085 25.9989C7.09085 25.3022 7.11082 24.6056 7.09085 23.9103C7.07354 23.3128 7.26792 22.872 7.80846 22.6657Z" fill="white"/>
<path d="M15.637 8.12685C15.8186 7.50051 16.1227 6.91702 16.5316 6.41067C17.7951 4.82443 19.4793 4.02059 21.4577 3.83169C23.3576 3.64815 25.127 4.07284 26.6847 5.21831C27.9202 6.12798 28.7337 7.32436 28.96 8.90256C28.8375 8.78199 28.715 8.66142 28.5939 8.5395C28.3529 8.29701 28.1159 8.05049 27.8696 7.81336C27.4622 7.41144 27.0295 7.41144 26.6288 7.81336C26.0283 8.4082 25.4372 9.01108 24.8408 9.60994C24.7715 9.67961 24.6983 9.74392 24.5265 9.91272C24.4782 9.7983 24.4161 9.6903 24.3415 9.59118C23.7663 8.99992 23.1858 8.41446 22.6 7.8348C22.178 7.41547 21.7307 7.41681 21.3113 7.8348C20.6456 8.49529 19.9945 9.15845 19.2796 9.87789C19.1305 9.70774 19.0013 9.54428 18.8562 9.39557C18.3503 8.87844 17.8404 8.36444 17.3265 7.85356C16.8738 7.40207 16.4478 7.40207 15.9951 7.85356C15.9006 7.96739 15.8156 8.08881 15.7408 8.21662L15.637 8.12685Z" fill="white"/>
<path d="M17.8325 3.27572C17.4184 3.47936 17.1162 3.81965 16.6116 3.76874C16.4372 3.74998 16.2122 3.93085 16.0577 4.07688C15.392 4.72129 14.7517 5.3858 14.0607 6.08647C13.7012 5.71001 13.3604 5.34695 13.0129 4.98924C12.6978 4.66503 12.3787 4.34438 12.0556 4.02731C11.6629 3.64013 11.2022 3.63611 10.8095 4.02731C10.1438 4.69718 9.47809 5.36705 8.78045 6.07576C8.47823 5.76495 8.19597 5.4702 7.90973 5.17947C7.52895 4.79363 7.14685 4.40645 6.76075 4.02463C6.37465 3.64281 5.91134 3.63879 5.51459 4.02463C5.40335 4.15079 5.28177 4.2673 5.15112 4.37295C5.3044 3.7008 5.61733 3.07606 6.06311 2.55227C7.2933 1.04909 8.90959 0.274735 10.8068 0.0483207C12.3292 -0.139068 13.8723 0.141139 15.2336 0.852158C16.3113 1.39493 17.2128 2.23565 17.8325 3.27572Z" fill="white"/>
<path d="M28.8536 13.3288C28.5407 13.0033 28.2318 12.6751 27.9123 12.3549C27.4623 11.902 27.0296 11.902 26.5809 12.3549C26.0484 12.8908 25.5158 13.4266 24.9833 13.9625C24.6851 14.2613 24.516 14.264 24.2191 13.9625C23.6985 13.4454 23.1846 12.9216 22.6654 12.4017C22.1461 11.8819 21.7427 11.894 21.2474 12.3924L19.715 13.9331C19.3795 14.2693 19.2277 14.268 18.8856 13.925C18.3885 13.4266 17.8924 12.9269 17.3971 12.4259C16.8646 11.89 16.4651 11.8806 15.9326 12.4111C15.8767 12.466 15.8181 12.517 15.7196 12.6067C15.649 11.9556 15.5864 11.3514 15.5199 10.7458C15.5096 10.6868 15.522 10.626 15.5545 10.5757C15.8527 10.2769 16.1416 9.96745 16.4651 9.69951C16.6635 9.53472 16.8646 9.66735 17.023 9.83348C17.5475 10.3613 18.0721 10.8896 18.5967 11.4184C19.0933 11.9168 19.5127 11.9154 20.0146 11.4184C20.5165 10.9214 21.0331 10.3895 21.5457 9.87904C21.8625 9.56287 22.0383 9.56421 22.3578 9.87904C22.8904 10.4056 23.4056 10.9361 23.9328 11.4626C24.3815 11.9087 24.8142 11.906 25.2642 11.4626C25.7967 10.9374 26.3133 10.4056 26.8405 9.88038C27.1547 9.56555 27.3332 9.56823 27.6527 9.88038C28.0521 10.2823 28.4515 10.6722 28.8389 11.0861C28.9347 11.1928 28.9908 11.3297 28.9974 11.4733C28.9907 12.0842 28.9561 12.6951 28.9308 13.3061L28.8536 13.3288Z" fill="white"/>
<path d="M13.9328 8.05852C13.8862 8.76456 13.8383 9.50812 13.7877 10.2758C13.2551 9.73989 12.7053 9.1906 12.1701 8.6373C11.9304 8.38945 11.6735 8.16973 11.31 8.25548C11.1184 8.30433 10.9424 8.40163 10.7987 8.53816C10.2476 9.07405 9.71768 9.61797 9.17714 10.1579C8.88158 10.454 8.68053 10.454 8.3863 10.1579C7.87372 9.64745 7.36513 9.13165 6.85522 8.61854C6.3453 8.10542 5.93258 8.10273 5.41601 8.61183C5.36009 8.66676 5.30017 8.71767 5.19366 8.81547C5.12177 8.14561 5.04722 7.5213 4.99662 6.89699C4.98198 6.7188 5.95256 5.80242 6.11898 5.83458C6.26298 5.86767 6.39517 5.93998 6.50108 6.04358C7.02565 6.55536 7.53822 7.08053 8.05612 7.60035C8.57402 8.12016 8.98809 8.11882 9.49534 7.61106C10.0026 7.1033 10.5285 6.56875 11.0477 6.05027C11.3459 5.75017 11.507 5.75017 11.8053 6.05027C12.2739 6.51918 12.7372 6.9988 13.2099 7.45967C13.4362 7.67536 13.6932 7.86158 13.9328 8.05852Z" fill="white"/>
</g>
<defs>
<clipPath id="clip0_0_278">
<rect width="29" height="31" fill="white"/>
</clipPath>
</defs>
</svg>
