<svg width="27" height="20" viewBox="0 0 27 20" fill="none" xmlns="http://www.w3.org/2000/svg">
<g clip-path="url(#clip0_1002_31178)">
<path fill-rule="evenodd" clip-rule="evenodd" d="M7.14755 2.26172L8.41634 0H18.583L19.8518 2.26172H25.7292C26.431 2.26172 27 2.82833 27 3.52728V18.7347C27 19.4337 26.431 20.0003 25.7292 20.0003H1.27083C0.568971 20.0003 0 19.4337 0 18.7347V3.52728C0 2.82833 0.568971 2.26172 1.27083 2.26172H7.14755Z" fill="#2C3E4F"/>
<path d="M16.667 15.1247C15.772 15.8493 14.6538 16.2449 13.5003 16.2451C12.1356 16.2451 10.8267 15.7052 9.86167 14.7441C8.89664 13.7831 8.35449 12.4797 8.35449 11.1206C8.35449 9.76148 8.89664 8.45805 9.86167 7.49702C10.8267 6.53599 12.1356 5.99609 13.5003 5.99609C14.8615 6.00158 16.165 6.54391 17.1255 7.50434C18.086 8.46477 18.6253 9.76507 18.6253 11.1206" stroke="#DDDEE2" stroke-width="1.5" stroke-miterlimit="10" stroke-linecap="round"/>
<path d="M16.6875 10.3938L18.625 12.2818L20.4583 10.373" stroke="#DDDEE2" stroke-width="1.5" stroke-linecap="round" stroke-linejoin="round"/>
</g>
<defs>
<clipPath id="clip0_1002_31178">
<rect width="27" height="20" fill="white"/>
</clipPath>
</defs>
</svg>
