<svg width="49" height="50" viewBox="0 0 49 50" fill="none" xmlns="http://www.w3.org/2000/svg">
<path d="M42.2125 31.3459H38.3335" stroke="#08863A" stroke-width="1.7" stroke-linecap="round" stroke-linejoin="round"/>
<path d="M43.5243 31.2044L43.7603 31.1477L43.9585 31.0911H44.0057L44.2322 31.0156L44.4587 30.9307L44.638 30.8552H44.7135L44.9117 30.7608L45.1288 30.6381L45.2892 30.5437H45.3364C45.4686 30.4588 45.6007 30.3738 45.7234 30.2794L45.9216 30.1284L46.1103 29.968C46.2895 29.8077 46.4597 29.6375 46.62 29.4583L46.771 29.279C46.7992 29.2467 46.8245 29.212 46.8465 29.1752C46.9019 29.1165 46.9524 29.0534 46.9975 28.9864C47.0636 28.8826 47.1391 28.7788 47.1957 28.675L47.2617 28.5712L47.3278 28.4674L47.3844 28.3541L47.4977 28.137L47.5544 28.0238L47.6959 27.6746L47.7431 27.5613C47.7431 27.4858 47.7903 27.4009 47.8186 27.3254C47.8847 27.1272 47.9319 26.929 47.979 26.7213C48.0262 26.5137 47.979 26.5514 47.979 26.4665C47.9836 26.4257 47.9836 26.3846 47.979 26.3438C47.979 26.3438 47.979 26.2683 47.979 26.2306V25.8436C47.979 25.7587 47.979 25.6737 47.979 25.5793C47.979 25.4849 47.979 25.4 47.979 25.3151C47.9888 25.1422 47.9888 24.9689 47.979 24.796C47.9843 24.7521 47.9843 24.7077 47.979 24.6638C47.9835 24.579 47.9835 24.4939 47.979 24.409V24.2769L47.9224 24.0315C47.9023 23.9762 47.8866 23.9194 47.8752 23.8616C47.849 23.797 47.8269 23.7308 47.8092 23.6634V23.5502C47.762 23.4275 47.7148 23.3237 47.6676 23.2104C47.623 23.1008 47.5726 22.9937 47.5166 22.8895C47.4104 22.6775 47.2906 22.4726 47.1579 22.276L47.073 22.1533L46.8087 21.8136C46.2532 21.1402 45.5555 20.598 44.7658 20.226C43.976 19.8539 43.1138 19.6612 42.2408 19.6617H41.9671C42.6366 18.4142 42.9838 17.0192 42.9769 15.6034C42.9825 14.3128 42.6989 13.0373 42.1472 11.8706C41.5954 10.7038 40.7895 9.6754 39.7884 8.86079C38.7873 8.04618 37.6166 7.46604 36.3621 7.16295C35.1075 6.85985 33.8011 6.84149 32.5385 7.10921C30.9196 4.98585 28.7238 3.37324 26.2133 2.46391C23.7028 1.55458 20.9836 1.38694 18.3804 1.98102C15.7772 2.5751 13.4 3.90579 11.5325 5.81423C9.66502 7.72266 8.38624 10.1282 7.84878 12.7437C5.9276 13.3648 4.25295 14.5793 3.06579 16.2125C1.87863 17.8457 1.24015 19.8134 1.24219 21.8325V22.1062C1.24219 22.1722 1.24219 22.2477 1.24219 22.3232C1.24219 22.3987 1.24219 22.4365 1.24219 22.4931C1.24219 22.5497 1.24219 22.6064 1.24219 22.663C1.24219 22.7196 1.24219 22.7668 1.24219 22.8234C1.24219 22.8801 1.24219 22.9273 1.24219 22.9839C1.24219 23.0405 1.24219 23.0688 1.24219 23.116C1.25567 23.2239 1.27457 23.331 1.29882 23.4369C1.29882 23.4369 1.29882 23.5124 1.29882 23.5407C1.30233 23.6004 1.30233 23.6603 1.29882 23.7201C1.29882 23.7861 1.29882 23.8522 1.29882 23.9182C1.29444 23.9874 1.29444 24.0567 1.29882 24.1259C1.29322 24.1476 1.29322 24.1703 1.29882 24.1919C1.31011 24.2528 1.32587 24.3127 1.346 24.3713C1.346 24.5412 1.44038 24.7016 1.49701 24.862L1.57253 25.0602C1.5951 25.1347 1.6235 25.2073 1.65747 25.2773C1.67855 25.3418 1.70375 25.4048 1.73296 25.4661C1.75869 25.5408 1.79025 25.6134 1.82734 25.6831C1.82734 25.7492 1.89341 25.8153 1.92173 25.8908C1.92173 25.9569 1.98778 26.0324 2.02553 26.0984C2.05925 26.1667 2.09707 26.2329 2.13878 26.2966C2.16143 26.3499 2.18994 26.4006 2.22375 26.4476L2.32755 26.6269C2.37474 26.7024 2.42194 26.7874 2.47857 26.8629C2.47677 26.8849 2.47677 26.907 2.47857 26.929L2.61068 27.1272L2.79001 27.382L2.95046 27.5991L3.02596 27.6934L3.13921 27.835C3.13921 27.835 3.13922 27.835 3.18641 27.835L3.32798 28.0049L3.51675 28.2125C3.56312 28.2542 3.60721 28.2983 3.64887 28.3447L3.71494 28.4107L3.91313 28.59L4.1019 28.7599L4.18684 28.826L4.39447 28.9864L4.63987 29.1752L4.89468 29.364L5.1495 29.5338L5.41376 29.7037L5.68747 29.8547" stroke="#08863A" stroke-width="1.7" stroke-linecap="round" stroke-linejoin="round"/>
<path d="M13.0679 31.3459H10.765" stroke="#08863A" stroke-width="1.7" stroke-linecap="round" stroke-linejoin="round"/>
<path d="M25.6677 15.4619C25.6737 14.1522 25.9772 12.8609 26.5553 11.6856C27.1334 10.5103 27.971 9.48178 29.0048 8.6776C30.0386 7.87343 31.2416 7.31466 32.523 7.0435C33.8044 6.77234 35.1306 6.79588 36.4016 7.11233C37.6725 7.42878 38.855 8.02987 39.8596 8.87022C40.8642 9.71057 41.6648 10.7682 42.2008 11.9632C42.7369 13.1583 42.9944 14.4595 42.9539 15.7686C42.9134 17.0778 42.576 18.3606 41.9671 19.5202" stroke="#08863A" stroke-width="1.7" stroke-linecap="round" stroke-linejoin="round"/>
<path d="M7.84878 12.7437C5.9276 13.3648 4.25295 14.5793 3.06579 16.2125C1.87863 17.8457 1.24015 19.8133 1.24219 21.8324V22.1061C1.24219 22.1722 1.24219 22.2477 1.24219 22.3232C1.24219 22.3987 1.24219 22.4365 1.24219 22.4931C1.24219 22.5497 1.24219 22.6063 1.24219 22.663C1.24219 22.7196 1.24219 22.7668 1.24219 22.8234C1.24219 22.88 1.24219 22.9272 1.24219 22.9839C1.24219 23.0405 1.24219 23.0688 1.24219 23.116C1.25567 23.2238 1.27457 23.3309 1.29882 23.4369C1.29882 23.4369 1.29882 23.5124 1.29882 23.5407C1.30233 23.6004 1.30233 23.6603 1.29882 23.72C1.29882 23.7861 1.29882 23.8522 1.29882 23.9182C1.29444 23.9874 1.29444 24.0567 1.29882 24.1259C1.29322 24.1475 1.29322 24.1703 1.29882 24.1919C1.31011 24.2528 1.32587 24.3127 1.346 24.3712C1.346 24.5411 1.44038 24.7016 1.49701 24.862L1.57253 25.0602C1.5951 25.1347 1.6235 25.2073 1.65747 25.2773C1.67855 25.3418 1.70375 25.4048 1.73296 25.466C1.75869 25.5408 1.79025 25.6133 1.82734 25.6831C1.82734 25.7492 1.89341 25.8153 1.92173 25.8908C1.92173 25.9568 1.98778 26.0323 2.02553 26.0984C2.05925 26.1667 2.09707 26.2329 2.13878 26.2966C2.16143 26.3499 2.18994 26.4006 2.22375 26.4476L2.32755 26.6269C2.37474 26.7024 2.42194 26.7874 2.47857 26.8629C2.47677 26.8849 2.47677 26.9069 2.47857 26.9289L2.61068 27.1271L2.79001 27.382L2.95046 27.599L3.02596 27.6934L3.13921 27.835C3.13921 27.835 3.13922 27.835 3.18641 27.835L3.32798 28.0049L3.51675 28.2125L3.64887 28.3446L3.71494 28.4107L3.91313 28.59L4.1019 28.7599L4.18684 28.826L4.39447 28.9864L4.63987 29.1752L4.89469 29.3639L5.1495 29.5338L5.41376 29.7037L5.68747 29.8547C7.10539 30.6507 8.70492 31.0668 10.331 31.0628" stroke="#08863A" stroke-width="1.7" stroke-linecap="round" stroke-linejoin="round"/>
<path d="M36.3043 25.4282C36.303 23.9029 36.8917 22.4361 37.9472 21.3349C39.0026 20.2337 40.4431 19.5834 41.9671 19.52H42.2314C43.1044 19.5195 43.9666 19.7122 44.7564 20.0843C45.5461 20.4563 46.2438 20.9985 46.7993 21.6719L47.0636 22.0116L47.1486 22.1343C47.2812 22.3309 47.401 22.5358 47.5072 22.7478C47.5632 22.852 47.6136 22.9591 47.6582 23.0687C47.7054 23.182 47.7526 23.2858 47.7998 23.4085V23.5217C47.7998 23.5878 47.847 23.6539 47.8658 23.7199C47.8847 23.786 47.8658 23.8332 47.913 23.8898L47.9696 24.1352V24.2673C47.9741 24.3522 47.9741 24.4373 47.9696 24.5221C47.9749 24.566 47.9749 24.6104 47.9696 24.6543C47.9794 24.8272 47.9794 25.0005 47.9696 25.1734C47.9696 25.2583 47.9696 25.3527 47.9696 25.4376C47.9745 25.5257 47.9745 25.6139 47.9696 25.7019V26.0889C47.9696 26.0889 47.9696 26.1644 47.9696 26.2021C47.9742 26.2429 47.9742 26.284 47.9696 26.3248C47.9696 26.4097 47.9696 26.4947 47.9696 26.5796C47.9696 26.6646 47.8753 26.9855 47.8092 27.1837C47.7884 27.2636 47.7631 27.3424 47.7337 27.4196L47.6865 27.5329L47.545 27.8821L47.4883 27.9953L47.3751 28.2124L47.3185 28.3257L47.2524 28.4295L47.1863 28.5333C47.1297 28.6371 47.0542 28.7409 46.9881 28.8447C46.943 28.9117 46.8925 28.9748 46.8371 29.0335C46.8151 29.0703 46.7898 29.105 46.7616 29.1373L46.6106 29.3166C46.4503 29.4958 46.2801 29.666 46.1009 29.8263L45.9122 29.9867L45.714 30.1377C45.5913 30.2321 45.4592 30.3171 45.327 30.402H45.2798L45.1194 30.4964L44.9023 30.6191L44.7041 30.7135H44.6286L44.4493 30.789L44.2228 30.8739L43.9963 30.9494H43.9491L43.7509 31.006L43.515 31.0627C43.0842 31.1578 42.6442 31.2053 42.2031 31.2042" stroke="#08863A" stroke-width="1.7" stroke-linecap="round" stroke-linejoin="round"/>
<path d="M17.2302 26.4475V23.097L14.3328 21.4265L11.4353 23.097V26.4475L14.3328 28.118L17.2302 26.4475Z" stroke="#08863A" stroke-width="1.7" stroke-linecap="round" stroke-linejoin="round"/>
<path d="M23.4497 34.9985V31.6481L20.5523 29.9775L17.6548 31.6481V34.9985L20.5523 36.6691L23.4497 34.9985Z" stroke="#08863A" stroke-width="1.7" stroke-linecap="round" stroke-linejoin="round"/>
<path d="M36.2948 31.2988V27.9484L33.3973 26.2778L30.4999 27.9484V31.2988L33.3973 32.9694L36.2948 31.2988Z" stroke="#08863A" stroke-width="1.7" stroke-linecap="round" stroke-linejoin="round"/>
<path d="M29.0087 40.9726V38.5564L26.9134 37.3484L24.8276 38.5564V40.9726L26.9134 42.1806L29.0087 40.9726Z" stroke="#08863A" stroke-width="1.7" stroke-linecap="round" stroke-linejoin="round"/>
<path d="M18.1173 47.6264V45.2103L16.0315 44.0022L13.9363 45.2103V47.6264L16.0315 48.8344L18.1173 47.6264Z" stroke="#08863A" stroke-width="1.7" stroke-linecap="round" stroke-linejoin="round"/>
<path d="M12.4357 39.7362V37.3201L10.3405 36.1121L8.24524 37.3201V39.7362L10.3405 40.9443L12.4357 39.7362Z" stroke="#08863A" stroke-width="1.7" stroke-linecap="round" stroke-linejoin="round"/>
<path d="M39.1735 47.0224V43.7002L36.2949 42.0486L33.4258 43.7002V47.0224L36.2949 48.6835L39.1735 47.0224Z" stroke="#08863A" stroke-width="1.7" stroke-linecap="round" stroke-linejoin="round"/>
<path d="M20.5524 18.8501V24.0127" stroke="#08863A" stroke-width="1.7" stroke-linecap="round" stroke-linejoin="round"/>
<path d="M20.816 26.5042C20.816 26.5352 20.7909 26.5602 20.7599 26.5602C20.729 26.5602 20.7039 26.5352 20.7039 26.5042C20.7039 26.4732 20.729 26.4481 20.7599 26.4481C20.7909 26.4481 20.816 26.4732 20.816 26.5042Z" fill="#4B4A49" stroke="#08863A" stroke-width="1.7"/>
<path d="M14.5585 17.9439C14.5585 17.9749 14.5334 17.9999 14.5025 17.9999C14.4715 17.9999 14.4464 17.9749 14.4464 17.9439C14.4464 17.9129 14.4715 17.8878 14.5025 17.8878C14.5334 17.8878 14.5585 17.9129 14.5585 17.9439Z" fill="#4B4A49" stroke="#08863A" stroke-width="1.7"/>
<path d="M33.1514 22.6346C33.1514 22.6655 33.1263 22.6906 33.0954 22.6906C33.0644 22.6906 33.0393 22.6655 33.0393 22.6346C33.0393 22.6036 33.0644 22.5785 33.0954 22.5785C33.1263 22.5785 33.1514 22.6036 33.1514 22.6346Z" fill="#4B4A49" stroke="#08863A" stroke-width="1.7"/>
<path d="M26.9696 34.3472C26.9696 34.3781 26.9445 34.4033 26.9135 34.4033C26.8825 34.4033 26.8574 34.3782 26.8574 34.3472C26.8574 34.3162 26.8825 34.2912 26.9135 34.2912C26.9445 34.2912 26.9696 34.3163 26.9696 34.3472Z" fill="#4B4A49" stroke="#08863A" stroke-width="1.7"/>
<path d="M26.9696 45.9183C26.9696 45.9492 26.9445 45.9743 26.9135 45.9743C26.8825 45.9743 26.8574 45.9492 26.8574 45.9183C26.8574 45.8873 26.8825 45.8622 26.9135 45.8622C26.9445 45.8622 26.9696 45.8873 26.9696 45.9183Z" fill="#4B4A49" stroke="#08863A" stroke-width="1.7"/>
<path d="M16.0876 40.6329C16.0876 40.6638 16.0625 40.6889 16.0315 40.6889C16.0006 40.6889 15.9755 40.6638 15.9755 40.6329C15.9755 40.6019 16.0006 40.5768 16.0315 40.5768C16.0625 40.5768 16.0876 40.6019 16.0876 40.6329Z" fill="#4B4A49" stroke="#08863A" stroke-width="1.7"/>
<path d="M26.9135 26.7874V31.3459" stroke="#08863A" stroke-width="1.7" stroke-linecap="round" stroke-linejoin="round"/>
<path d="M36.2948 34.8569V38.5283" stroke="#08863A" stroke-width="1.7" stroke-linecap="round" stroke-linejoin="round"/>
</svg>
