<svg width="41" height="30" viewBox="0 0 41 30" fill="none" xmlns="http://www.w3.org/2000/svg">
<g clip-path="url(#clip0_999_29451)">
<path d="M6.13652 21.7394H34.8191C34.9277 21.7394 35.0352 21.7598 35.1356 21.7994C35.2359 21.8391 35.3271 21.8972 35.4039 21.9704C35.4807 22.0436 35.5416 22.1306 35.5831 22.2263C35.6247 22.322 35.6461 22.4245 35.6461 22.5281V26.8316C35.6461 27.6721 35.296 28.4781 34.673 29.0723C34.0499 29.6666 33.2049 30.0005 32.3237 30.0005H8.61742C7.73627 30.0005 6.89121 29.6666 6.26815 29.0723C5.64508 28.4781 5.29505 27.6721 5.29505 26.8316V22.542C5.29309 22.4361 5.31351 22.3308 5.3551 22.2326C5.39669 22.1344 5.4586 22.0452 5.53713 21.9703C5.61567 21.8954 5.70921 21.8363 5.81219 21.7967C5.91518 21.757 6.02548 21.7375 6.13652 21.7394Z" fill="#6276DF"/>
<path d="M15.7139 7.87503L20.0169 5.1094C21.3062 4.95315 23.9332 4.7344 24.1266 5.1094C24.3683 5.57815 24.175 7.45315 24.5617 9.32815C24.9485 11.2032 24.7068 14.9532 24.5617 15.1407C24.4167 15.3282 21.1773 16.5938 20.5971 16.6407C20.0169 16.6875 15.7139 14.1094 15.7139 13.5V7.87503Z" fill="#92A3FF"/>
<path d="M40.8112 13.2562L38.1417 8.10856C37.9514 7.73173 37.6525 7.41441 37.2799 7.19384C36.9073 6.97326 36.4764 6.85854 36.038 6.86314C33.3828 6.86425 30.7541 6.36095 28.3052 5.38254C25.8564 4.41982 23.6287 3.00959 21.7475 1.23125C21.0409 0.557345 19.9296 0.557345 19.2231 1.23125C15.4371 4.84529 10.3034 6.88048 4.94702 6.89084C4.50888 6.88791 4.07887 7.00331 3.7066 7.22369C3.33433 7.44408 3.03509 7.76044 2.84341 8.13622L0.188392 13.2838C0.0202754 13.6126 -0.0378545 13.9827 0.0218283 14.3441C0.0815112 14.7054 0.256097 15.0405 0.522051 15.3041L3.42368 18.1547C3.6145 18.3356 3.84089 18.4788 4.08985 18.5762C4.3388 18.6735 4.60543 18.7231 4.87449 18.722H36.154C36.6968 18.7212 37.2177 18.5175 37.6049 18.1547L40.5065 15.3041C40.772 15.0341 40.9438 14.6926 40.9983 14.3261C41.0528 13.9596 40.9875 13.5859 40.8112 13.2562ZM20.4998 15.1104C18.3671 15.1104 16.6406 12.1491 16.6406 10.2949C16.6083 9.79346 16.684 9.29104 16.863 8.81856C17.042 8.34608 17.3205 7.91354 17.6813 7.54759C18.0422 7.18164 18.4777 6.89002 18.9612 6.69068C19.4447 6.49133 19.9658 6.38848 20.4925 6.38848C21.0192 6.38848 21.5404 6.49133 22.0238 6.69068C22.5073 6.89002 22.9429 7.18164 23.3037 7.54759C23.6646 7.91354 23.9431 8.34608 24.122 8.81856C24.301 9.29104 24.3767 9.79346 24.3444 10.2949C24.3444 12.1491 22.618 15.1104 20.4998 15.1104Z" fill="#6276DF"/>
<path d="M21.8492 10.6134C21.8492 11.2638 21.2398 12.3016 20.4999 12.3016C19.76 12.3016 19.1362 11.2638 19.1362 10.6134C19.1165 10.4323 19.1369 10.2492 19.1961 10.0761C19.2553 9.90294 19.352 9.7436 19.4799 9.60835C19.6078 9.4731 19.764 9.36497 19.9384 9.29096C20.1129 9.21695 20.3017 9.17871 20.4927 9.17871C20.6836 9.17871 20.8724 9.21695 21.0469 9.29096C21.2214 9.36497 21.3776 9.4731 21.5054 9.60835C21.6333 9.7436 21.73 9.90294 21.7892 10.0761C21.8484 10.2492 21.8688 10.4323 21.8492 10.6134Z" fill="#6276DF"/>
</g>
<defs>
<clipPath id="clip0_999_29451">
<rect width="41" height="30" fill="white"/>
</clipPath>
</defs>
</svg>
