<svg width="30" height="30" viewBox="0 0 30 30" fill="none" xmlns="http://www.w3.org/2000/svg">
<g clip-path="url(#clip0_999_30762)">
<mask id="mask0_999_30762" style="mask-type:luminance" maskUnits="userSpaceOnUse" x="3" y="5" width="27" height="20">
<path d="M29.4405 5.08008H3.73047V24.3701H29.4405V5.08008Z" fill="white"/>
</mask>
<g mask="url(#mask0_999_30762)">
<path d="M16.8505 14.6358V22.9658C16.8615 23.1866 16.8114 23.4062 16.7055 23.6003C16.5996 23.7944 16.4421 23.9555 16.2505 24.0658C16.0159 24.2385 15.7281 24.3232 15.4373 24.3049C15.1466 24.2866 14.8716 24.1666 14.6605 23.9658L12.3405 21.7358C11.5905 21.0358 10.8505 20.3258 10.0805 19.6258C9.95594 19.5233 9.80164 19.4637 9.6405 19.4558H6.70051C6.35883 19.4822 6.01541 19.4372 5.69207 19.3236C5.36873 19.2101 5.07256 19.0305 4.82237 18.7963C4.57219 18.5621 4.37348 18.2785 4.23887 17.9633C4.10427 17.6482 4.03671 17.3085 4.04051 16.9658C4.04051 15.4358 4.04051 13.8958 4.04051 12.3658C4.03378 12.0192 4.09978 11.6751 4.23424 11.3556C4.36871 11.0361 4.56865 10.7484 4.82118 10.5109C5.0737 10.2735 5.3732 10.0916 5.70034 9.97705C6.02749 9.86248 6.37501 9.81777 6.72051 9.84579C7.66051 9.84579 8.6105 9.84579 9.5505 9.84579C9.67332 9.8503 9.79579 9.82989 9.9105 9.78579C10.0198 9.74412 10.1187 9.67931 10.2005 9.59579L14.6305 5.43579C14.8007 5.23904 15.0275 5.09978 15.28 5.03711C15.5324 4.97445 15.7981 4.99145 16.0405 5.08578C16.2871 5.14406 16.5053 5.28717 16.657 5.49008C16.8088 5.693 16.8843 5.94279 16.8705 6.19579C16.8705 6.81579 16.8705 7.43579 16.8705 8.05579L16.8505 14.6358Z" fill="#2C3E4F"/>
<path d="M20 10C21.2133 12.6135 21.4482 15.5215 20 19" stroke="#2C3E4F" stroke-width="1.8" stroke-miterlimit="10" stroke-linecap="round"/>
<path d="M23 7C25.427 11.3732 25.896 16.2187 23 22" stroke="#2C3E4F" stroke-width="1.8" stroke-miterlimit="10" stroke-linecap="round"/>
</g>
</g>
<defs>
<clipPath id="clip0_999_30762">
<rect width="25.71" height="20" fill="white" transform="translate(3.73047 5)"/>
</clipPath>
</defs>
</svg>
