<svg width="38" height="22" viewBox="0 0 38 22" fill="none" xmlns="http://www.w3.org/2000/svg">
<g clip-path="url(#clip0_0_374)">
<path d="M37.9999 16.7434C37.8096 17.1473 37.4893 17.2882 37.0451 17.2842C35.5747 17.2684 34.1033 17.2793 32.6328 17.2773C32.1093 17.2773 31.7653 16.9916 31.6205 16.4823C30.508 12.5713 29.0842 8.77069 27.4789 5.03506C27.3702 4.774 27.2412 4.5217 27.0932 4.28045C26.7432 3.71991 26.9118 3.3426 27.5672 3.08647C29.0527 2.5069 30.6074 2.12048 32.1926 1.93682C33.786 1.7526 35.3912 1.68167 36.9916 1.55262C37.4457 1.51518 37.7848 1.67182 37.9999 2.06883V16.7434Z" fill="white"/>
<path d="M26.2832 19.3057C25.8766 19.9313 25.3085 20.1923 24.6422 20.0475C24.4675 19.9935 24.3107 19.8938 24.1881 19.7589C22.9983 18.5915 21.8243 17.4152 20.6424 16.2429C20.5332 16.1261 20.4134 16.0196 20.2845 15.9247C20.1361 15.83 19.9596 15.7884 19.7843 15.8069C19.6089 15.8253 19.4451 15.9027 19.32 16.0262C19.1949 16.1497 19.1159 16.3119 19.0962 16.486C19.0765 16.6601 19.1173 16.8357 19.2116 16.9838C19.2916 17.0929 19.3819 17.1942 19.4813 17.2862C20.5561 18.356 21.627 19.4298 22.7127 20.4879C22.911 20.6849 22.9497 20.8445 22.8277 21.0908C22.4777 21.8001 21.6379 21.9538 21.0797 21.3952C20.0981 20.4238 19.1184 19.4509 18.1408 18.4762C17.9118 18.2477 17.6579 18.0822 17.3159 18.1748C16.6991 18.3363 16.5107 19.0378 16.9728 19.5096C17.6718 20.2239 18.3857 20.9213 19.0956 21.6237C19.1948 21.7222 19.3048 21.7971 19.4099 21.8828L19.3752 21.9813C19.166 21.9813 18.94 22.0345 18.7526 21.9715C18.1577 21.7745 17.4993 21.6434 17.0174 21.2819C14.5763 19.4614 12.1728 17.5886 9.77932 15.7031C9.25084 15.2874 8.81953 14.7475 8.35549 14.254C8.3253 14.2139 8.30446 14.1676 8.29452 14.1185C8.28457 14.0695 8.28575 14.0188 8.29798 13.9702C9.29843 10.9863 10.0758 7.94319 10.7332 4.86957C10.748 4.8193 10.7659 4.76996 10.7867 4.7218H13.8723C13.7801 4.83509 13.7186 4.91883 13.6512 4.99468C12.9056 5.84387 12.2809 6.76792 11.917 7.84467C11.7999 8.19352 11.7208 8.55384 11.681 8.91946C11.5759 9.88686 12.1679 10.6848 13.095 10.9882C14.8708 11.5734 16.2837 11.0148 17.4953 9.70756C17.6302 9.56176 17.8473 9.48098 18.0387 9.39922C18.3847 9.25243 18.7476 9.14308 19.0887 8.98546C19.3326 8.87315 19.5081 8.79533 19.7699 9.01206C22.1604 10.9961 24.5758 12.9526 26.9624 14.9416C27.4413 15.3356 27.8498 15.8282 28.2444 16.3208C28.4644 16.5998 28.6323 16.9158 28.7401 17.2537C28.814 17.4343 28.8231 17.6348 28.7658 17.8213C28.7084 18.0078 28.5883 18.169 28.4254 18.2779C28.2626 18.3867 28.067 18.4366 27.8716 18.4191C27.6761 18.4015 27.4926 18.3177 27.352 18.1817C25.9133 16.7789 24.4925 15.3583 23.0687 13.9397C22.8416 13.7141 22.5987 13.5299 22.2536 13.6077C22.1067 13.6354 21.9707 13.7042 21.8617 13.8059C21.7526 13.9076 21.675 14.0381 21.6379 14.182C21.5387 14.5061 21.6766 14.7564 21.8977 14.977C22.8383 15.9077 23.7769 16.837 24.7136 17.765C25.2292 18.2763 25.7507 18.7826 26.2832 19.3057Z" fill="white"/>
<path d="M7.47869e-06 7.87705C7.47869e-06 5.59285 7.47869e-06 3.30833 7.47869e-06 1.02347C7.47869e-06 0.248173 0.307376 -0.0601741 1.08175 0.00780007C3.12528 0.171332 5.1807 0.315162 7.16374 0.831372C7.80228 0.996874 8.4071 1.3003 9.00796 1.57121C9.46902 1.78203 9.5652 2.18692 9.47398 2.65485C9.22015 3.97887 9.04664 5.32358 8.70853 6.62691C8.01446 9.28677 7.21331 11.9141 6.51231 14.57C6.18114 15.8231 5.86386 15.7079 4.97843 15.7069C3.63096 15.7069 2.28348 15.7069 0.936003 15.7069C0.256811 15.7069 0.000998999 15.4478 7.47869e-06 14.7641C-0.000653535 12.4701 -0.000653535 10.1744 7.47869e-06 7.87705Z" fill="white"/>
<path d="M29.8229 15.4065C29.7746 15.3744 29.7295 15.3378 29.6881 15.2972C28.1711 13.5101 26.3338 12.0718 24.5322 10.5941C23.2621 9.55481 22.0306 8.47017 20.7823 7.4082C20.6049 7.24459 20.3854 7.13288 20.1482 7.08542C19.9109 7.03795 19.665 7.05659 19.4378 7.13926C18.9836 7.29491 18.5533 7.51558 18.1042 7.68798C17.9101 7.76522 17.7056 7.81336 17.4974 7.83082C17.3369 7.83886 17.1806 7.88412 17.041 7.96299C16.9014 8.04185 16.7823 8.15213 16.6932 8.28497C16.5081 8.54555 16.3015 8.79038 16.0755 9.01692C15.434 9.63756 14.6874 9.75282 13.8505 9.45137C13.5065 9.32823 13.3627 9.11051 13.4539 8.78049C13.5408 8.3983 13.6719 8.02738 13.8446 7.67517C14.7737 5.96498 16.1558 4.68234 17.8196 3.70114C18.829 3.11006 19.9147 3.19281 20.9736 3.578C22.214 4.02919 23.4376 4.52472 24.67 4.99462C25.012 5.13682 25.3631 5.25628 25.721 5.35223C25.8648 5.38034 25.9983 5.4464 26.1075 5.54347C26.2168 5.64054 26.2976 5.76505 26.3417 5.9039C27.2579 8.28694 28.181 10.667 29.0922 13.052C29.3421 13.7052 29.5632 14.3701 29.7952 15.0302C29.8348 15.1415 29.8646 15.2558 29.8943 15.3681L29.8229 15.4065Z" fill="white"/>
</g>
<defs>
<clipPath id="clip0_0_374">
<rect width="38" height="22" fill="white"/>
</clipPath>
</defs>
</svg>
