<svg width="47" height="42" viewBox="0 0 47 42" fill="none" xmlns="http://www.w3.org/2000/svg">
<path d="M35.9823 28.3046C36.076 28.4728 36.193 28.6268 36.3298 28.7622C36.5842 29.0324 36.8915 29.2471 37.2327 29.3929C37.574 29.5387 37.9416 29.6125 38.3127 29.6096C38.6924 29.6108 39.0682 29.5322 39.4156 29.3789C39.763 29.2257 40.0744 29.0011 40.3295 28.7199C40.4426 28.5902 40.5446 28.4513 40.6345 28.3046M26.1525 28.3046C26.2454 28.459 26.3532 28.6037 26.4746 28.7368C26.7301 29.0147 27.0405 29.2365 27.3862 29.3882C27.7319 29.5399 28.1054 29.6183 28.4829 29.6183C28.8604 29.6183 29.2338 29.5399 29.5795 29.3882C29.9252 29.2365 30.2356 29.0147 30.4912 28.7368M30.4912 28.7368C30.5994 28.6164 30.6959 28.4858 30.7793 28.347M30.4912 28.7368C30.5776 28.6 30.6738 28.4697 30.7793 28.347M30.7793 28.347L30.9234 28.1945C31.1074 28.008 31.3121 27.8431 31.5335 27.703C32.054 27.3732 32.6546 27.1916 33.2706 27.1776H33.4656C33.9322 27.1892 34.3916 27.2959 34.8156 27.4912C35.2396 27.6864 35.6192 27.9661 35.9314 28.3131C36.0592 28.4562 36.1754 28.6092 36.2789 28.7707M16.3226 28.3046C16.4156 28.4611 16.5265 28.6061 16.6531 28.7368M16.3226 28.3046C16.4421 28.4413 16.5525 28.5857 16.6531 28.7368M16.3226 28.3046C16.204 28.1775 16.0685 28.0504 15.9329 27.9318C15.3422 27.446 14.6045 27.1742 13.8398 27.1607H13.7212C13.2394 27.1682 12.7645 27.276 12.3268 27.4774C11.8891 27.6787 11.4982 27.9691 11.179 28.3301C11.0708 28.4505 10.9743 28.5811 10.8909 28.7199M16.6531 28.7368C16.9078 29.0089 17.2165 29.2247 17.5594 29.3707C17.9023 29.5166 18.272 29.5893 18.6446 29.5842C19.0243 29.5854 19.4 29.5068 19.7474 29.3535C20.0948 29.2002 20.4062 28.9757 20.6613 28.6944C20.7778 28.5655 20.8828 28.4265 20.975 28.2792M26.4576 28.7199C26.3627 28.567 26.255 28.4224 26.1356 28.2877C25.8225 27.9389 25.4417 27.6575 25.0162 27.4609C24.5908 27.2642 24.1297 27.1563 23.6611 27.1437H23.4747C23.0035 27.1526 22.5393 27.2597 22.1118 27.4582C21.6843 27.6566 21.3028 27.942 20.9918 28.2962C20.8734 28.4235 20.7683 28.5626 20.6783 28.7114M6.52679 28.3131C6.6112 28.4534 6.71063 28.5841 6.82335 28.7029C7.08173 28.9824 7.39492 29.2056 7.74337 29.3587C8.09181 29.5118 8.46806 29.5914 8.84865 29.5927C9.22712 29.5937 9.60158 29.515 9.94762 29.3617C10.2936 29.2084 10.6035 28.9839 10.857 28.7029C10.9652 28.5825 11.0617 28.4519 11.1451 28.3131M40.787 28.1521C41.1046 27.8303 41.4835 27.5753 41.9012 27.4021C42.3189 27.229 42.767 27.1411 43.2191 27.1437C43.7843 27.1425 44.3411 27.2802 44.8405 27.5447C45.3399 27.8092 45.7667 28.1924 46.0832 28.6606M6.82335 28.6606C6.74322 28.542 6.65552 28.4288 6.56071 28.3216C6.18757 27.8948 5.71496 27.5666 5.18473 27.3659C4.65449 27.1653 4.08297 27.0985 3.52076 27.1714C2.95855 27.2443 2.42291 27.4546 1.96137 27.7839C1.49983 28.1131 1.12657 28.551 0.874606 29.0588" stroke="#A9612D" stroke-width="1.7" stroke-linecap="round" stroke-linejoin="round"/>
<path d="M0.86615 34.8043C1.13535 34.2674 1.5401 33.8101 2.04032 33.4776C2.54054 33.1452 3.1189 32.9492 3.71815 32.909C4.31741 32.8687 4.91684 32.9857 5.45701 33.2482C5.99719 33.5108 6.45937 33.9099 6.79793 34.406M46.0579 34.406C45.7408 33.9383 45.3139 33.5556 44.8146 33.2911C44.3152 33.0267 43.7587 32.8887 43.1937 32.8891C42.7416 32.8865 42.2934 32.9744 41.8758 33.1476C41.4581 33.3207 41.0793 33.5757 40.7617 33.8975M10.8655 34.4653C10.954 34.3251 11.0531 34.192 11.1621 34.067C11.4872 33.7031 11.8855 33.412 12.3308 33.2127C12.7762 33.0133 13.2587 32.9103 13.7467 32.9103C14.2346 32.9103 14.7171 33.0133 15.1625 33.2127C15.6079 33.412 16.0061 33.7031 16.3312 34.067C16.456 34.2044 16.5694 34.3517 16.6701 34.5077M11.1621 34.084C11.0778 34.227 10.9784 34.3605 10.8655 34.4822C10.6105 34.764 10.2993 34.9892 9.95188 35.1433C9.60451 35.2975 9.2287 35.3771 8.84867 35.3771C8.46865 35.3771 8.09283 35.2975 7.74546 35.1433C7.39809 34.9892 7.08687 34.764 6.83186 34.4822C6.71913 34.3635 6.6197 34.2328 6.53529 34.0924M20.6868 34.4907C20.779 34.3461 20.884 34.21 21.0003 34.084C21.3246 33.7231 21.7212 33.4345 22.1643 33.2369C22.6074 33.0393 23.0871 32.9372 23.5722 32.9372C24.0574 32.9372 24.5371 33.0393 24.9802 33.2369C25.4233 33.4345 25.8199 33.7231 26.1441 34.084C26.2637 34.2235 26.3741 34.3707 26.4746 34.5246M20.9918 34.084C20.9068 34.236 20.8013 34.3758 20.6783 34.4992C20.4219 34.7788 20.1103 35.0022 19.7632 35.1554C19.416 35.3085 19.0409 35.388 18.6615 35.389C18.2891 35.3925 17.92 35.3191 17.5773 35.1732C17.2346 35.0274 16.9258 34.8124 16.6701 34.5416C16.5434 34.4079 16.4325 34.26 16.3396 34.1009M30.4997 34.5331C30.5884 34.3909 30.6906 34.2575 30.8048 34.1348C31.1209 33.7702 31.5112 33.4772 31.9496 33.2755C32.388 33.0739 32.8644 32.9681 33.347 32.9654C33.8261 32.9691 34.2992 33.0719 34.7367 33.2674C35.1742 33.4628 35.5666 33.7466 35.8892 34.1009C36.0169 34.244 36.1331 34.397 36.2365 34.5585M30.7369 34.1348C30.6469 34.2761 30.5448 34.4094 30.4319 34.5331C30.1771 34.8107 29.8674 35.0324 29.5224 35.184C29.1774 35.3357 28.8046 35.414 28.4278 35.414C28.0509 35.414 27.6783 35.3357 27.3333 35.184C26.9883 35.0324 26.6785 34.8107 26.4237 34.5331C26.297 34.3994 26.1861 34.2515 26.0932 34.0924M40.5668 34.0924C40.4826 34.2381 40.3831 34.3745 40.2701 34.4992C40.0147 34.7757 39.7048 34.9963 39.3599 35.1472C39.015 35.2982 38.6425 35.3761 38.2661 35.3761C37.8896 35.3761 37.5173 35.2982 37.1724 35.1472C36.8275 34.9963 36.5175 34.7757 36.262 34.4992C36.1304 34.3614 36.0165 34.2076 35.923 34.0416" stroke="#A9612D" stroke-width="1.7" stroke-linecap="round" stroke-linejoin="round"/>
<path d="M0.86615 40.5239C1.13353 39.985 1.53761 39.5256 2.03794 39.1916C2.53828 38.8576 3.11741 38.6606 3.71763 38.6203C4.31786 38.58 4.91817 38.6978 5.45867 38.9619C5.99916 39.226 6.46091 39.6273 6.79793 40.1256M46.0579 40.1256C45.7743 39.703 45.4004 39.3486 44.9633 39.088C44.5262 38.8274 44.0367 38.6669 43.5301 38.6183C43.0235 38.5697 42.5125 38.634 42.0337 38.8068C41.555 38.9795 41.1205 39.2563 40.7617 39.6171M10.8655 40.1849C10.954 40.0447 11.0531 39.9116 11.1621 39.7866C11.4857 39.4203 11.8835 39.127 12.3291 38.9261C12.7747 38.7252 13.2579 38.6214 13.7467 38.6214C14.2354 38.6214 14.7186 38.7252 15.1642 38.9261C15.6098 39.127 16.0075 39.4203 16.3312 39.7866C16.456 39.924 16.5694 40.0714 16.6701 40.2273M11.1621 39.8036C11.0778 39.9466 10.9784 40.0801 10.8655 40.2018C10.6105 40.4836 10.2993 40.7088 9.95188 40.8629C9.60451 41.0171 9.2287 41.0967 8.84867 41.0967C8.46865 41.0967 8.09283 41.0171 7.74546 40.8629C7.39809 40.7088 7.08687 40.4836 6.83186 40.2018C6.72108 40.0814 6.6218 39.9509 6.53529 39.812M20.6868 40.2103C20.779 40.0657 20.884 39.9296 21.0003 39.8036C21.3231 39.4403 21.7192 39.1495 22.1625 38.9504C22.6058 38.7513 23.0863 38.6483 23.5722 38.6483C24.0582 38.6483 24.5386 38.7513 24.9819 38.9504C25.4252 39.1495 25.8213 39.4403 26.1441 39.8036C26.2637 39.9431 26.3741 40.0903 26.4746 40.2442M20.9918 39.8036C20.9046 39.9542 20.7994 40.0937 20.6783 40.2188C20.4182 40.4907 20.1049 40.7063 19.758 40.852C19.411 40.9978 19.0378 41.0707 18.6615 41.0662C18.2891 41.0697 17.92 40.9963 17.5773 40.8505C17.2346 40.7047 16.9258 40.4896 16.6701 40.2188C16.5416 40.0898 16.4304 39.9445 16.3396 39.7866M30.4997 40.2188C30.5884 40.0766 30.6906 39.9432 30.8048 39.8205C31.1276 39.4558 31.5241 39.1639 31.9682 38.9639C32.4123 38.7639 32.8938 38.6605 33.3808 38.6605C33.8678 38.6605 34.3493 38.7639 34.7934 38.9639C35.2375 39.1639 35.6341 39.4558 35.9569 39.8205C36.0847 39.9636 36.2009 40.1166 36.3044 40.2781M30.8048 39.8544C30.7148 39.9957 30.6127 40.129 30.4997 40.2527C30.2449 40.5303 29.9352 40.752 29.5902 40.9037C29.2452 41.0553 28.8725 41.1336 28.4956 41.1336C28.1188 41.1336 27.746 41.0553 27.401 40.9037C27.056 40.752 26.7463 40.5303 26.4914 40.2527C26.3629 40.1237 26.2519 39.9784 26.1611 39.8205M40.6346 39.8205C40.5483 39.9648 40.449 40.101 40.338 40.2273C40.0832 40.5049 39.7734 40.7266 39.4284 40.8782C39.0834 41.0299 38.7108 41.1082 38.3339 41.1082C37.9571 41.1082 37.5843 41.0299 37.2393 40.8782C36.8943 40.7266 36.5846 40.5049 36.3298 40.2273C36.1982 40.0894 36.0843 39.9357 35.9908 39.7697" stroke="#A9612D" stroke-width="1.7" stroke-linecap="round" stroke-linejoin="round"/>
<path d="M6.95046 28.6011V27.1689V18.339L22.9493 7.47538L39.9905 19.0424V27.1689V28.3298" stroke="#A9612D" stroke-width="1.7" stroke-linecap="round" stroke-linejoin="round"/>
<path d="M35.6349 9.33053L45.5071 15.9487L42.3379 20.3637L40.3888 19.0417L23.3562 7.47474L7.34881 18.3384L4.67101 20.1518L1.42551 15.8131L7.88268 11.4829L14.0009 7.37305L23.3562 1.1023L32.4996 7.22899" stroke="#A9612D" stroke-width="1.7" stroke-linecap="round" stroke-linejoin="round"/>
<path d="M13.5094 4.15354V7.37365L7.39119 11.4835V4.15354H13.5094Z" stroke="#A9612D" stroke-width="1.7" stroke-linecap="round" stroke-linejoin="round"/>
<path d="M15.2296 0.865528H5.50145V4.15343H15.2296V0.865528Z" stroke="#A9612D" stroke-width="1.7" stroke-linecap="round" stroke-linejoin="round"/>
<path d="M30.9742 18.6944V28.1853L30.8301 28.3378C30.7467 28.4766 30.6503 28.6071 30.542 28.7276C30.2865 29.0055 29.9761 29.2273 29.6304 29.379C29.2847 29.5307 28.9112 29.6091 28.5337 29.6091C28.1562 29.6091 27.7828 29.5307 27.4371 29.379C27.0914 29.2273 26.7809 29.0055 26.5254 28.7276C26.404 28.5945 26.2962 28.4498 26.2034 28.2954C25.8903 27.9466 25.5094 27.6653 25.084 27.4686C24.6586 27.2719 24.1975 27.164 23.729 27.1514H23.5425C23.0713 27.1604 22.6071 27.2675 22.1796 27.4659C21.752 27.6643 21.3707 27.9497 21.0597 28.3039C20.9675 28.4512 20.8626 28.5902 20.7462 28.7191C20.491 29.0004 20.1797 29.2249 19.8323 29.3782C19.4848 29.5315 19.1091 29.6101 18.7294 29.6089C18.3567 29.614 17.9871 29.5413 17.6442 29.3953C17.3013 29.2494 16.9927 29.0335 16.738 28.7615C16.6114 28.6308 16.5005 28.4857 16.4075 28.3293C16.2889 28.2022 16.1532 28.0751 16.0176 27.9565V18.6944H30.9742Z" stroke="#A9612D" stroke-width="1.7" stroke-linecap="round" stroke-linejoin="round"/>
<path d="M23.2121 18.6944V27.1684" stroke="#A9612D" stroke-width="1.7" stroke-linecap="round" stroke-linejoin="round"/>
</svg>
