<svg width="30" height="30" viewBox="0 0 30 30" fill="none" xmlns="http://www.w3.org/2000/svg">
<g clip-path="url(#clip0_0_340)">
<path d="M30 14.711V15.5913C29.9619 15.8202 29.9268 16.0498 29.8857 16.278C29.4236 18.8683 28.0166 20.7808 25.7109 22.025C24.5341 22.6564 23.2099 22.9604 21.876 22.9053C21.4753 22.8929 21.2388 23.0139 21.0264 23.3455C20.7664 23.7556 20.4309 24.1172 20.1423 24.5097C20.012 24.6858 19.8611 24.7349 19.6465 24.7349C14.959 24.7286 10.273 24.7269 5.58838 24.7298C4.73804 24.7298 4.73804 24.7298 4.20337 24.0784C1.84864 21.2085 0.636479 17.8706 0.175053 14.2275C0.106205 13.6876 0.0585937 13.1455 0.00146484 12.6041V11.2542C0.23584 10.7473 0.638672 10.6006 1.18286 10.6021C6.62183 10.6153 12.061 10.618 17.5005 10.6101C19.5806 10.6101 21.6604 10.6101 23.74 10.6101C24.3831 10.6101 24.7354 10.9769 24.7258 11.6144C24.7214 11.8551 24.7258 12.0964 24.7258 12.3671H25.0042C25.7659 12.3671 26.5276 12.3612 27.2893 12.3671C28.1931 12.3759 28.9666 12.7002 29.4734 13.4594C29.7217 13.8307 29.8279 14.2914 30 14.711ZM24.5501 14.1322C24.2718 16.5653 23.5588 18.9285 22.4451 21.1087C22.6428 21.0919 22.7878 21.086 22.9307 21.0655C24.0698 20.9171 25.1424 20.444 26.0208 19.7024C27.4607 18.4883 28.1946 16.9287 28.2385 15.0477C28.2502 14.5643 27.9251 14.1534 27.4651 14.1402C26.499 14.1131 25.5359 14.1322 24.5501 14.1322Z" fill="white"/>
<path d="M5.91798 30C5.29615 29.8467 4.66261 29.7293 4.0547 29.5327C3.14137 29.2393 2.35402 28.7104 1.65382 28.0582C1.34181 27.7648 1.25245 27.4024 1.39527 27.0488C1.54835 26.6702 1.84571 26.503 2.24195 26.4861C2.31959 26.4861 2.39796 26.4861 2.47633 26.4861H22.251C22.3286 26.4861 22.407 26.4861 22.4846 26.4861C22.8809 26.503 23.1782 26.6702 23.3313 27.0488C23.4778 27.4024 23.3848 27.7684 23.0728 28.0582C22.3726 28.7111 21.5852 29.2371 20.6719 29.5327C20.064 29.7293 19.4268 29.8467 18.8086 30H5.91798Z" fill="white"/>
<path d="M6.94696 0C7.4289 0.0227417 7.70063 0.17093 7.86322 0.484179C7.94977 0.633311 7.98656 0.806204 7.96825 0.97772C7.94994 1.14924 7.87748 1.31043 7.76142 1.43786C7.49335 1.75918 7.28095 2.09371 7.25385 2.52873C7.22089 3.06573 7.43696 3.48829 7.79072 3.86976C8.44989 4.57842 8.74286 5.42353 8.67988 6.38749C8.63576 7.18541 8.29935 7.93899 7.73505 8.50394C7.38715 8.8634 6.88471 8.88761 6.52289 8.5773C6.43311 8.50533 6.35907 8.41563 6.30539 8.31376C6.25172 8.2119 6.21955 8.10006 6.21089 7.98521C6.20224 7.87035 6.21728 7.75495 6.25507 7.64617C6.29287 7.53739 6.35263 7.43756 6.43061 7.35291C6.87006 6.84893 7.07001 6.29212 6.8393 5.65535C6.73749 5.37292 6.53608 5.11249 6.33539 4.8814C5.18696 3.56091 5.20087 1.6154 6.40058 0.354331C6.56904 0.176065 6.82318 0.077762 6.94696 0Z" fill="white"/>
<path d="M12.4958 8.80326C12.0153 8.77465 11.7451 8.62426 11.5854 8.30881C11.5008 8.15847 11.466 7.98508 11.4861 7.81367C11.5063 7.64225 11.5803 7.48168 11.6975 7.35513C11.9758 7.02721 12.1831 6.67948 12.2014 6.23345C12.2233 5.70746 12.0014 5.29664 11.6564 4.92397C11.0068 4.22191 10.7182 3.3834 10.7724 2.42971C10.8122 1.63254 11.1439 0.878011 11.704 0.310331C12.0607 -0.0630733 12.5698 -0.092417 12.9374 0.228168C13.0267 0.301196 13.1 0.391837 13.1528 0.494453C13.2056 0.597069 13.2367 0.709466 13.2443 0.824652C13.2518 0.939838 13.2356 1.05535 13.1967 1.164C13.1578 1.27265 13.097 1.37212 13.018 1.45622C12.5786 1.96021 12.3845 2.51995 12.6166 3.15525C12.7192 3.43768 12.9228 3.69591 13.1249 3.92773C14.2683 5.24235 14.2499 7.19961 13.0473 8.45407C12.8759 8.6316 12.621 8.72623 12.4958 8.80326Z" fill="white"/>
<path d="M18.5632 0.900929C18.4723 1.08873 18.4108 1.29928 18.287 1.46214C17.5949 2.36887 17.6139 3.04965 18.3786 3.91457C18.9398 4.53687 19.2474 5.34744 19.2406 6.18598C19.2338 7.02453 18.9131 7.83 18.342 8.44311C17.9596 8.85613 17.455 8.90968 17.069 8.57883C16.683 8.24797 16.6581 7.74032 17.009 7.30162C17.6799 6.46311 17.6484 5.73905 16.9042 4.89834C15.7243 3.56465 15.7492 1.58905 16.9606 0.325783C17.2536 0.0206042 17.6198 -0.0696293 17.9706 0.0756243C18.2892 0.206939 18.5097 0.53266 18.5632 0.900929Z" fill="white"/>
</g>
<defs>
<clipPath id="clip0_0_340">
<rect width="30" height="30" fill="white"/>
</clipPath>
</defs>
</svg>
