<svg width="30" height="30" viewBox="0 0 30 30" fill="none" xmlns="http://www.w3.org/2000/svg">
<g clip-path="url(#clip0_999_30773)">
<mask id="mask0_999_30773" style="mask-type:luminance" maskUnits="userSpaceOnUse" x="3" y="5" width="27" height="20">
<path d="M29.4405 5.08008H3.73047V24.3701H29.4405V5.08008Z" fill="white"/>
</mask>
<g mask="url(#mask0_999_30773)">
<path d="M16.8505 14.7198V23.0498C16.8615 23.2706 16.8114 23.4902 16.7055 23.6843C16.5996 23.8784 16.4421 24.0395 16.2505 24.1498C16.0159 24.3225 15.7281 24.4072 15.4373 24.3889C15.1466 24.3706 14.8716 24.2506 14.6605 24.0498L12.3405 21.8198C11.5905 21.1198 10.8505 20.4098 10.0805 19.7098C9.95594 19.6073 9.80164 19.5476 9.6405 19.5398H6.70051C6.35883 19.5662 6.01541 19.5211 5.69207 19.4076C5.36873 19.2941 5.07256 19.1145 4.82237 18.8803C4.57219 18.6461 4.37348 18.3624 4.23887 18.0473C4.10427 17.7321 4.03671 17.3924 4.04051 17.0498C4.04051 15.5198 4.04051 13.9798 4.04051 12.4498C4.03378 12.1032 4.09978 11.7591 4.23424 11.4396C4.36871 11.1201 4.56865 10.8324 4.82118 10.5949C5.0737 10.3575 5.3732 10.1756 5.70034 10.061C6.02749 9.94647 6.37501 9.90175 6.72051 9.92977C7.66051 9.92977 8.6105 9.92977 9.5505 9.92977C9.67332 9.93429 9.79579 9.91388 9.9105 9.86977C10.0198 9.82811 10.1187 9.76329 10.2005 9.67977L14.6305 5.51977C14.8007 5.32303 15.0275 5.18376 15.28 5.1211C15.5324 5.05843 15.7981 5.07543 16.0405 5.16977C16.2871 5.22804 16.5053 5.37115 16.657 5.57407C16.8088 5.77698 16.8843 6.02678 16.8705 6.27977C16.8705 6.89977 16.8705 7.51977 16.8705 8.13977L16.8505 14.7198Z" fill="#8E969B"/>
<path d="M19.5908 9.75C21.4508 12.59 21.8108 15.75 19.5908 19.53" stroke="#8E969B" stroke-width="1.8" stroke-miterlimit="10" stroke-linecap="round"/>
<path d="M22.8701 6.0498C26.1301 11.0498 26.7601 16.5898 22.8701 23.1998" stroke="#8E969B" stroke-width="1.8" stroke-miterlimit="10" stroke-linecap="round"/>
</g>
</g>
<defs>
<clipPath id="clip0_999_30773">
<rect width="22.56" height="19.37" fill="white" transform="translate(4 5)"/>
</clipPath>
</defs>
</svg>
