<svg width="38" height="20" viewBox="0 0 38 20" fill="none" xmlns="http://www.w3.org/2000/svg">
<g clip-path="url(#clip0_0_502)">
<path d="M38 10.2223C37.8061 10.5 37.6475 10.8138 37.4118 11.0554C34.2046 14.2952 30.5466 16.8871 26.279 18.5625C23.3631 19.7076 20.3415 20.2288 17.1993 19.9131C14.7389 19.6669 12.4066 18.9523 10.1772 17.9137C6.55445 16.2252 3.37974 13.8981 0.583545 11.0554C0.348828 10.8165 0.189258 10.5 -0.00463867 10.2223V9.77795C0.189258 9.50025 0.3479 9.18645 0.583545 8.94485C3.79072 5.70501 7.44878 3.11313 11.7164 1.43767C14.6322 0.29262 17.6539 -0.228532 20.7961 0.0871215C23.2564 0.333349 25.5888 1.04797 27.8181 2.08657C31.4409 3.77869 34.6156 6.10582 37.4118 8.94855C37.6465 9.18737 37.8061 9.50395 38 9.78165V10.2223ZM18.9879 17.7757C23.2685 17.7859 26.7809 14.2906 26.792 10.0131C26.8032 5.73555 23.2991 2.23745 19.0121 2.22634C14.725 2.21523 11.2182 5.71056 11.207 9.98808C11.1959 14.2656 14.7009 17.7646 18.9879 17.7757Z" fill="white"/>
<path d="M21.4455 5.07719C20.0335 6.6749 19.7561 7.9227 20.5001 9.33527C21.2237 10.7053 22.44 11.2199 24.4068 10.9904C24.4198 12.7112 22.5152 14.8069 20.4259 15.3688C19.236 15.6853 17.9745 15.5988 16.8392 15.1229C15.7038 14.647 14.7589 13.8086 14.1525 12.7392C13.5461 11.6698 13.3126 10.4298 13.4886 9.21368C13.6646 7.99759 14.24 6.87415 15.1248 6.01952C16.9506 4.26075 19.6188 4.03304 21.4455 5.07719Z" fill="white"/>
</g>
<defs>
<clipPath id="clip0_0_502">
<rect width="38" height="20" fill="white"/>
</clipPath>
</defs>
</svg>
