<svg width="33" height="32" viewBox="0 0 33 32" fill="none" xmlns="http://www.w3.org/2000/svg">
<g clip-path="url(#clip0_0_329)">
<path d="M-1.57091e-05 21.9302C0.158488 21.466 0.39456 21.0716 0.871758 20.8698C1.25116 20.7096 1.62212 20.7437 2.0032 20.8595C3.13212 21.2002 4.26357 21.5409 5.39418 21.8817C5.47849 21.9064 5.55605 21.9242 5.67746 21.9558C5.80393 21.3493 5.93039 20.7633 6.04927 20.167C6.21114 19.3715 6.3688 18.5742 6.529 17.7778C6.55299 17.706 6.56718 17.6312 6.57115 17.5555C6.48684 16.6476 6.86287 15.8648 7.21276 15.0709C7.82738 13.6749 8.42936 12.2737 9.0364 10.8743C9.07771 10.778 9.11565 10.6792 9.16286 10.5617H7.55674C7.44208 11.4203 7.33079 12.2558 7.2195 13.0914C7.14362 13.6604 7.08545 14.2337 6.98512 14.795C6.86877 15.45 6.31063 15.8716 5.72046 15.7847C5.05525 15.6876 4.62442 15.128 4.71801 14.4313C4.93834 12.722 5.1671 11.014 5.40429 9.30703C5.49619 8.64777 5.93376 8.27214 6.59223 8.25595C8.20256 8.21592 9.81374 8.12904 11.4232 8.16056C12.612 8.18441 13.692 8.62647 14.5107 9.54212C14.7106 9.76517 14.8567 10.032 14.9374 10.3216C15.0182 10.6113 15.0314 10.9159 14.9761 11.2116C14.9135 11.581 14.958 11.9608 15.1042 12.3053C15.1995 12.5463 15.2787 12.7933 15.3765 13.0718C15.4895 13.0071 15.5907 12.9517 15.6893 12.8921C16.8337 12.2067 17.9775 11.5202 19.1208 10.8325C19.426 10.6494 19.7413 10.5387 20.1005 10.6375C20.5431 10.7593 20.8365 11.0429 20.9394 11.4893C20.9961 11.7009 20.9893 11.9247 20.92 12.1325C20.8506 12.3402 20.7218 12.5225 20.5498 12.6562C20.4393 12.7422 20.3223 12.8194 20.2 12.887C18.6874 13.7967 17.1563 14.6757 15.6691 15.6237C14.8623 16.1399 13.9475 16.1016 13.5436 14.8699C12.9484 16.2387 12.3726 17.5606 11.7933 18.892C12.5698 19.6057 13.3286 20.3161 14.1043 20.9933C14.6532 21.4737 14.8488 22.0282 14.7088 22.7573C14.1962 25.4276 13.7139 28.1038 13.2115 30.7758C13.0732 31.5126 12.4729 32.0134 11.7917 31.9964C11.4494 31.9927 11.1202 31.8635 10.8652 31.6329C10.6102 31.4022 10.4469 31.0858 10.4056 30.7426C10.3865 30.5052 10.4032 30.2662 10.4553 30.0339C10.8828 27.7009 11.3212 25.3688 11.7461 23.0349C11.7672 22.92 11.7394 22.7402 11.6618 22.6721C10.8035 21.9004 9.93093 21.1449 9.06084 20.3868C9.01794 20.3582 8.9725 20.3337 8.92511 20.3136C8.7177 21.3306 8.51536 22.3246 8.31301 23.3177C8.2658 23.5511 8.2287 23.7862 8.17305 24.0187C7.96649 24.9216 7.20432 25.4114 6.32581 25.155C4.56456 24.6439 2.81174 24.0962 1.05471 23.569C0.483928 23.3987 0.177041 22.9847 -0.000854492 22.443L-1.57091e-05 21.9302Z" fill="white"/>
<path d="M20.9537 17.6228C20.7286 18.7301 20.5161 19.7803 20.3011 20.8297C20.2539 21.0631 20.2168 21.2999 20.1468 21.5273C19.9251 22.2786 19.2194 22.7147 18.4707 22.5205C17.6091 22.2973 16.7592 22.029 15.9085 21.7658C15.8576 21.7445 15.8118 21.7127 15.7738 21.6723C15.7359 21.632 15.7068 21.584 15.6885 21.5316C15.5368 21.0427 15.2505 20.6075 14.8631 20.2769C14.2223 19.6986 13.5874 19.1134 12.9484 18.5333C12.8648 18.4677 12.7776 18.4072 12.687 18.3519C13.1482 18.0495 13.5571 18.0589 13.9854 18.1892C15.1143 18.5299 16.2458 18.8706 17.3772 19.2054C17.4775 19.2361 17.5796 19.2608 17.7043 19.2906C17.9505 18.0777 18.2102 16.8945 18.4235 15.7021C18.5002 15.2711 18.6638 14.9883 19.0567 14.7813C19.6646 14.4602 20.237 14.0735 20.8272 13.72C21.602 13.2575 22.0371 12.588 21.9991 11.6664C21.9595 10.7022 21.4562 10.0481 20.5776 9.68775C20.5342 9.66592 20.492 9.64176 20.4512 9.61536L21.1864 7.90416C20.6754 7.90416 20.189 7.89479 19.7033 7.91608C19.6435 7.91608 19.5549 8.07536 19.5347 8.17161C19.4715 8.55661 19.4251 8.94416 19.3838 9.33257C19.3636 9.52592 19.2767 9.60769 19.0938 9.69372C18.6191 9.91688 18.1664 10.1929 17.7111 10.4526C17.443 10.6051 17.1799 10.7686 16.8477 10.9637C16.9127 10.433 16.9666 9.96713 17.0282 9.50207C17.1487 8.5779 17.2769 7.65459 17.3966 6.73042C17.4877 6.02431 17.9101 5.6095 18.6149 5.59076C20.2792 5.54732 21.9494 5.42041 23.6061 5.51666C24.8319 5.58735 26.0115 6.02175 26.7256 7.18271C27.0257 7.67077 27.0628 8.22101 26.9684 8.78659C26.9428 8.94406 26.9526 9.10533 26.997 9.25847C27.1109 9.64006 27.25 10.0123 27.3933 10.4169L29.3249 9.26017C29.9799 8.86836 30.6291 8.46462 31.2935 8.08899C31.5198 7.95891 31.7836 7.91176 32.0403 7.95553C32.297 7.9993 32.5309 8.13129 32.7023 8.32919C32.878 8.52342 32.9811 8.77353 32.9937 9.03634C33.0063 9.29915 32.9277 9.55817 32.7715 9.76867C32.6355 9.93564 32.4703 10.076 32.2842 10.1826C30.7053 11.1434 29.1214 12.0985 27.5324 13.048C26.6783 13.559 26.0148 13.3239 25.6396 12.3862C25.6142 12.3355 25.5861 12.2863 25.5553 12.2388C25.3066 12.8086 25.0689 13.3461 24.8336 13.887C24.531 14.5812 24.2367 15.2787 23.9239 15.9678C23.8329 16.1671 23.8497 16.2847 24.0209 16.4363C24.74 17.0717 25.4348 17.7361 26.1565 18.369C26.6876 18.834 26.868 19.3868 26.7365 20.0827C26.2349 22.7326 25.7484 25.385 25.2543 28.0365C25.1085 28.8167 24.5697 29.3193 23.8666 29.3423C23.2225 29.3636 22.5834 28.9164 22.4687 28.2724C22.4038 27.9028 22.4603 27.4965 22.5286 27.1183C22.9333 24.8799 23.3548 22.6448 23.7764 20.4098C23.8013 20.3232 23.799 20.2309 23.7697 20.1458C23.7403 20.0606 23.6855 19.9868 23.6128 19.9345C22.7368 19.1875 21.8726 18.4243 20.9537 17.6228Z" fill="white"/>
<path d="M23.8379 2.78025C23.816 1.27177 25.0537 0.0128615 26.573 8.49916e-05C28.0408 -0.0118397 29.2633 1.23259 29.2954 2.76577C29.324 4.24699 28.0796 5.5059 26.5713 5.52123C25.0815 5.53571 23.8607 4.31172 23.8379 2.78025Z" fill="white"/>
<path d="M17.2728 5.40613C17.2922 6.9112 16.0435 8.17267 14.5301 8.17948C13.0674 8.18629 11.8145 6.91375 11.8061 5.41124C11.7985 3.92406 13.0378 2.67452 14.5403 2.65492C16.0106 2.63959 17.2542 3.89084 17.2728 5.40613Z" fill="white"/>
</g>
<defs>
<clipPath id="clip0_0_329">
<rect width="33" height="32" fill="white"/>
</clipPath>
</defs>
</svg>
