<svg width="22" height="22" viewBox="0 0 22 22" fill="none" xmlns="http://www.w3.org/2000/svg">
<g clip-path="url(#clip0_1018_24676)">
<path d="M14.8769 7.76429L7.37662 13.889L6.90459 13.311C6.89778 13.3037 6.89261 13.2951 6.88942 13.2857C6.88623 13.2763 6.8851 13.2663 6.8861 13.2564C6.8871 13.2465 6.8902 13.2369 6.8952 13.2283C6.90021 13.2198 6.90701 13.2123 6.91512 13.2066L12.1385 8.88134L8.61646 8.23255C8.60285 8.23044 8.59018 8.22434 8.58005 8.21501C8.56992 8.20569 8.56279 8.19356 8.55955 8.18018C8.55632 8.1668 8.55712 8.15276 8.56188 8.13984C8.56663 8.12692 8.57512 8.1157 8.58625 8.1076L10.0727 6.89381C10.0807 6.88771 10.09 6.88356 10.0999 6.8817C10.1099 6.87984 10.1201 6.88032 10.1298 6.88309L14.8456 7.74796C14.8575 7.75016 14.8684 7.75584 14.8769 7.76429Z" fill="#08863A"/>
<path d="M13.3587 13.8934C13.3478 13.9018 13.3347 13.907 13.321 13.9083C13.3073 13.9097 13.2935 13.9073 13.2811 13.9012C13.2687 13.8952 13.2582 13.8858 13.2509 13.8741C13.2435 13.8625 13.2395 13.849 13.2394 13.8352L13.265 10.2535L8.03864 14.5752C8.02341 14.5876 8.00385 14.5935 7.98428 14.5915C7.96471 14.5896 7.94672 14.5799 7.93428 14.5647L7.38015 13.8861L14.8769 7.76429C14.8839 7.76804 14.8901 7.77315 14.8951 7.77931C14.9002 7.78547 14.9039 7.79257 14.9062 7.80019L14.8821 12.6076C14.8834 12.6184 14.8817 12.6295 14.8772 12.6395C14.8727 12.6495 14.8656 12.658 14.8566 12.6643L13.3587 13.8934Z" fill="#08863A"/>
</g>
<defs>
<clipPath id="clip0_1018_24676">
<rect width="7.20861" height="9.29426" fill="white" transform="translate(12.5196 4.87762) scale(1.04236) rotate(50.7651)"/>
</clipPath>
</defs>
</svg>
