<svg width="15" height="15" viewBox="0 0 15 15" fill="none" xmlns="http://www.w3.org/2000/svg">
<path d="M7.99649 0C5.2373 0 3 2.42155 3 5.40985C3 7.77988 6.14299 12.7424 7.44653 14.6932C7.50524 14.7871 7.58682 14.8645 7.68364 14.9182C7.78046 14.9718 7.88933 15 8 15C8.11067 15 8.21952 14.9718 8.31633 14.9182C8.41315 14.8645 8.49476 14.7871 8.55347 14.6932C9.85467 12.7424 13 7.77988 13 5.40985C12.9953 2.42155 10.758 0 7.99649 0ZM7.99649 7.45903C7.5975 7.45903 7.20746 7.34064 6.87571 7.11881C6.54397 6.89699 6.28541 6.58171 6.13272 6.21283C5.98003 5.84396 5.9401 5.43806 6.01794 5.04646C6.09577 4.65486 6.28791 4.29515 6.57004 4.01283C6.85216 3.7305 7.21161 3.53824 7.60294 3.46034C7.99426 3.38245 8.39986 3.42243 8.76848 3.57522C9.13709 3.72801 9.45215 3.98676 9.67382 4.31874C9.89548 4.65072 10.0138 5.04102 10.0138 5.44029C10.0153 5.70627 9.96428 5.96993 9.86357 6.21608C9.76285 6.46222 9.61447 6.68599 9.42696 6.87451C9.23945 7.06302 9.01652 7.21255 8.77102 7.31448C8.52551 7.4164 8.26228 7.46871 7.99649 7.4684V7.45903Z" fill="#2C3E4F"/>
</svg>
