<svg width="29" height="27" viewBox="0 0 29 27" fill="none" xmlns="http://www.w3.org/2000/svg">
<g clip-path="url(#clip0_0_505)">
<path d="M2.3524e-05 24.681C0.133695 24.0592 0.543016 23.6138 0.998407 23.1792C5.66257 18.7247 10.3215 14.2657 14.9751 9.8025C15.0418 9.72715 15.1 9.64522 15.1487 9.55811L18.1885 12.4663C18.1583 12.4981 18.1009 12.5646 18.0374 12.6254C13.2791 17.1811 8.5233 21.7396 3.77002 26.3007C2.38119 27.6434 0.3225 26.9037 0.0400518 25.3759C0.0303292 25.3425 0.0166437 25.3102 -0.000732422 25.2797L2.3524e-05 24.681Z" fill="white"/>
<path d="M29 10.961C28.9456 11.1693 28.8965 11.379 28.8353 11.5858C28.6627 12.1806 28.3344 12.7233 27.8815 13.1628C27.4284 13.6017 26.9805 14.0384 26.5221 14.4643C25.9716 14.9769 25.2315 14.7774 25.0381 14.068C24.909 13.5966 24.7995 13.1208 24.6605 12.6523C24.0111 10.4607 21.3648 9.69638 19.5599 11.1758C19.5259 11.204 19.4889 11.2307 19.4843 11.2372L16.4635 8.34497C16.6485 8.18011 16.8615 8.00224 17.0586 7.81063C17.9603 6.93572 18.0245 5.7658 17.1439 4.87715C15.9983 3.72024 15.9281 1.87209 17.3071 0.669629C17.4536 0.542369 17.585 0.399202 17.7285 0.268327C18.1816 -0.142374 18.7699 -0.0772986 19.0999 0.425232C19.3363 0.786765 19.5583 1.1483 19.7864 1.51562C20.7478 3.04924 22.0437 4.26327 23.638 5.18879C24.733 5.82798 25.8069 6.50043 26.9043 7.13528C28.0371 7.79038 28.7591 8.70217 28.9622 9.96825C28.9728 10.0109 28.9875 10.0525 29.006 10.0926L29 10.961Z" fill="white"/>
</g>
<defs>
<clipPath id="clip0_0_505">
<rect width="29" height="27" fill="white"/>
</clipPath>
</defs>
</svg>
