<svg width="26" height="26" viewBox="0 0 26 26" fill="none" xmlns="http://www.w3.org/2000/svg">
<g clip-path="url(#clip0_0_547)">
<path d="M20.5319 25.9999C19.9197 25.9838 19.1701 25.741 18.4218 25.51C10.0192 22.957 3.28415 16.3241 0.610089 7.95624C0.379747 7.23612 0.159876 6.5013 0.0516849 5.75668C-0.164697 4.31923 0.358108 3.12813 1.53425 2.29253C2.57079 1.55561 3.66037 0.892878 4.74507 0.224542C4.92452 0.109966 5.12719 0.0369515 5.33834 0.0108128C5.54948 -0.015326 5.76378 0.00606933 5.96564 0.0734412C6.1675 0.140813 6.35183 0.252466 6.50522 0.400272C6.65861 0.548078 6.7772 0.728318 6.85235 0.927869C7.59782 2.8538 8.31467 4.79092 9.03292 6.72804C9.20114 7.18223 9.11459 7.62172 8.85074 8.02692C8.47033 8.61198 8.10038 9.20403 7.7109 9.78279C7.28651 10.4126 7.29628 11.0215 7.7109 11.659C9.43447 14.3221 11.7037 16.5868 14.3678 18.3025C14.9583 18.6839 15.539 18.7007 16.1295 18.3179C16.7201 17.9351 17.3161 17.5558 17.9067 17.1639C18.3799 16.8476 18.8692 16.8007 19.399 17.0008C21.2236 17.6908 23.0531 18.3697 24.8769 19.0618C25.9561 19.4712 26.2688 20.4517 25.6447 21.43C25.0542 22.3566 24.4658 23.2846 23.8697 24.2083C23.1187 25.3743 22.0053 26.0027 20.5319 25.9999Z" fill="white"/>
<path d="M25.9686 11.6358C25.9708 11.7927 25.9624 11.9496 25.9435 12.1053C25.8923 12.3589 25.7496 12.5846 25.5426 12.7392C25.3357 12.8937 25.0791 12.9661 24.8221 12.9426C24.5652 12.9191 24.3259 12.8013 24.1502 12.6118C23.9746 12.4222 23.875 12.1744 23.8704 11.9157C23.8558 10.4915 23.5968 9.11637 22.9784 7.83289C21.5084 4.78164 19.11 2.9096 15.7798 2.26856C15.2438 2.16568 14.6896 2.14119 14.1423 2.1139C13.482 2.08171 13.0255 1.65971 13.0255 1.04666C13.0255 0.433611 13.505 0.00881501 14.1667 0.0137138C16.9022 0.0308277 19.5477 0.994985 21.6556 2.74301C23.7635 4.49103 25.2043 6.91556 25.7341 9.60625C25.8667 10.2718 25.9135 10.9534 26 11.6274L25.9686 11.6358Z" fill="white"/>
<path d="M14.2442 4.25993C18.1321 4.33901 21.3569 7.37626 21.6814 11.2274C21.6975 11.4185 21.7142 11.6102 21.717 11.802C21.7268 12.464 21.2982 12.9434 20.691 12.9518C20.0837 12.9602 19.644 12.4962 19.6293 11.8356C19.6131 10.7051 19.2541 9.60638 18.6 8.68545C17.9459 7.76451 17.0278 7.06501 15.9676 6.67993C15.3591 6.46076 14.7176 6.34785 14.0711 6.34611C13.8607 6.3455 13.6555 6.28091 13.4826 6.16089C13.3097 6.04086 13.1771 5.87106 13.1024 5.6739C13.0278 5.47674 13.0146 5.26152 13.0645 5.05666C13.1145 4.85181 13.2252 4.66697 13.3821 4.52656C13.4992 4.42401 13.6364 4.34727 13.7849 4.30134C13.9334 4.2554 14.0899 4.24129 14.2442 4.25993Z" fill="white"/>
<path d="M14.1786 8.5024C15.9606 8.53949 17.4641 10.0602 17.4795 11.8399C17.4844 12.462 17.0558 12.9365 16.4716 12.954C15.8671 12.9722 15.4162 12.5341 15.3862 11.8938C15.3513 11.1589 14.8326 10.6341 14.1074 10.5977C13.4478 10.5648 13.0088 10.1176 13.0311 9.50105C13.0513 8.9062 13.5357 8.4863 14.1786 8.5024Z" fill="white"/>
</g>
<defs>
<clipPath id="clip0_0_547">
<rect width="26" height="26" fill="white"/>
</clipPath>
</defs>
</svg>
