<svg width="31" height="33" viewBox="0 0 31 33" fill="none" xmlns="http://www.w3.org/2000/svg">
<path d="M1.74753 4.38615H28.3268C28.7899 4.38615 29.2339 4.57075 29.5613 4.89935C29.8887 5.22795 30.0727 5.67362 30.0727 6.13833V7.61945H0.00171487V6.13833C0.00171487 5.67362 0.185649 5.22795 0.513053 4.89935C0.840457 4.57075 1.28451 4.38615 1.74753 4.38615Z" fill="white"/>
<path d="M0.0151489 8.73702H30.1063V26.2943C30.1063 27.4985 29.4601 28.1461 28.2553 28.147H27.4417C27.3971 27.8337 27.3752 27.5508 27.313 27.2772C27.1642 26.6382 26.8549 26.048 26.4144 25.563C26.3296 25.4652 26.2829 25.3398 26.2832 25.2101C26.5356 22.0857 25.3577 19.6293 22.8597 17.7859C22.7614 17.7245 22.6798 17.6397 22.6222 17.5388C22.5646 17.438 22.5329 17.3244 22.5299 17.2083C22.2043 13.0453 18.4013 9.90909 14.2677 10.3786C10.5977 10.7957 7.78929 13.7149 7.54866 17.3611C7.53347 17.4887 7.4684 17.6051 7.36777 17.6846C5.44695 19.0128 4.27073 20.8207 3.87361 23.1294C3.59007 24.7794 3.87361 26.334 4.69561 27.7898C4.75114 27.8886 4.81088 27.9848 4.88997 28.1183C4.77302 28.1301 4.69646 28.1453 4.61905 28.1453C3.65317 28.1453 2.68393 28.152 1.72226 28.1453C0.681502 28.1377 0 27.4571 0 26.4218C0 20.6167 0 14.8113 0 9.00555C0.00252407 8.9228 0.0101008 8.84004 0.0151489 8.73702Z" fill="white"/>
<path d="M7.58984 18.8597C8.18384 22.8141 11.3591 25.3263 14.8087 25.4411C18.4215 25.561 21.882 23.0277 22.518 18.9196C24.0241 19.6289 25.5082 22.771 25.2381 24.6195C24.7274 24.535 24.2176 24.3864 23.7044 24.3721C22.4861 24.3383 21.479 24.8297 20.7159 25.7831C20.1572 26.4814 19.6221 27.2 19.0912 27.917C19.0405 27.9946 18.9702 28.0574 18.8874 28.0988C18.8046 28.1402 18.7123 28.1587 18.62 28.1526C15.9967 28.145 13.3725 28.1526 10.7483 28.1416C10.5956 28.1433 10.447 28.092 10.3276 27.9963C9.09503 26.8521 7.45018 26.7474 6.09812 27.743C6.07288 27.7607 6.04427 27.7751 5.97696 27.8156C5.13561 26.6216 4.73765 25.2992 4.86301 23.8468C5.03969 21.8084 5.95425 20.166 7.58984 18.8597Z" fill="white"/>
<path d="M21.4942 17.861C21.5303 21.4178 18.6554 24.3352 15.0839 24.3631C11.5552 24.3944 8.63906 21.5039 8.61046 17.9455C8.58185 14.3871 11.445 11.4299 14.9619 11.4079C15.8143 11.3961 16.6607 11.5542 17.4518 11.873C18.243 12.1918 18.9632 12.6651 19.5708 13.2653C20.1784 13.8655 20.6613 14.5808 20.9914 15.3697C21.3216 16.1586 21.4925 17.0054 21.4942 17.861ZM13.423 19.506C13.4298 19.6369 13.4365 19.7205 13.4365 19.8041C13.4365 20.3952 13.4365 20.9863 13.4365 21.5773C13.4457 22.312 13.8681 22.7359 14.5917 22.7443C14.9476 22.7443 15.3051 22.7545 15.661 22.7376C15.8994 22.7303 16.1276 22.639 16.3057 22.4799C16.4838 22.3207 16.6005 22.1038 16.6353 21.867C16.6624 21.6477 16.6731 21.4267 16.6673 21.2058C16.6673 20.651 16.6673 20.0962 16.6673 19.5102C17.3867 19.5102 18.0656 19.5102 18.7454 19.5102C19.4421 19.5051 19.8796 19.066 19.8922 18.3643C19.8922 18.1009 19.8922 17.8374 19.8922 17.5739C19.8922 16.6814 19.4934 16.2794 18.6083 16.2794C17.9714 16.2794 17.3345 16.2794 16.6665 16.2794V15.8969C16.6665 15.3176 16.6765 14.7384 16.6665 14.1591C16.6505 13.4675 16.218 13.0503 15.5281 13.0411C15.2134 13.0371 14.8988 13.0371 14.5841 13.0411C13.8782 13.0495 13.4533 13.4709 13.4382 14.1844C13.4298 14.5948 13.4382 15.006 13.4382 15.4164V16.2744C12.707 16.2744 12.0264 16.2701 11.3457 16.2744C10.6651 16.2786 10.2275 16.7228 10.2141 17.4034C10.2082 17.6879 10.2141 17.9725 10.2141 18.2562C10.2141 19.0871 10.6255 19.5032 11.4484 19.5043C12.0954 19.5068 12.7432 19.506 13.423 19.506Z" fill="white"/>
<path d="M8.08724 28.15C8.37586 28.143 8.66291 28.1946 8.93123 28.3016C9.19954 28.4085 9.44361 28.5687 9.64884 28.7725C9.85406 28.9763 10.0162 29.2195 10.1256 29.4877C10.235 29.7558 10.2895 30.0433 10.2856 30.3331C10.2818 30.6228 10.2197 30.9088 10.1032 31.1739C9.98674 31.439 9.81817 31.6778 9.60761 31.8761C9.39704 32.0743 9.1488 32.2279 8.87774 32.3276C8.60668 32.4274 8.31836 32.4712 8.03002 32.4565C7.47514 32.4283 6.95275 32.1853 6.57264 31.7786C6.19253 31.3719 5.9843 30.8332 5.99171 30.2756C5.99911 29.718 6.22158 29.185 6.61236 28.7887C7.00314 28.3923 7.53179 28.1633 8.08724 28.15Z" fill="white"/>
<path d="M26.3186 28.13H20.3096C20.3495 28.0542 20.3936 27.9806 20.4417 27.9097C20.822 27.4081 21.1838 26.8896 21.5918 26.4108C22.3364 25.5368 23.2956 25.2337 24.3919 25.5478C25.5067 25.867 26.1301 26.6616 26.316 27.8041C26.3254 27.9125 26.3262 28.0215 26.3186 28.13Z" fill="white"/>
<path d="M23.9701 31.9095C24.3588 31.4028 24.7408 30.9046 25.1219 30.4056C25.3701 30.0805 25.6049 29.7427 25.8733 29.4345C25.9831 29.3225 26.1282 29.2521 26.2839 29.2352C26.5909 29.2056 26.9039 29.2267 27.2851 29.2267C27.1412 29.4598 27.0461 29.6447 26.9224 29.8086C26.2494 30.7093 25.5701 31.6049 24.8847 32.4955C24.4329 33.0866 23.8229 33.1584 23.2365 32.7117C23.1004 32.6134 22.9701 32.5074 22.8461 32.3942C22.7508 32.3028 22.6927 32.1792 22.683 32.0473C22.6734 31.9154 22.7129 31.7846 22.7939 31.6803C22.8749 31.5759 22.9916 31.5055 23.1214 31.4826C23.2512 31.4598 23.3849 31.4861 23.4964 31.5565C23.6521 31.6562 23.7951 31.7803 23.9701 31.9095Z" fill="white"/>
<path d="M19.5953 29.2239L18.881 30.1815C19.0274 30.3056 19.1654 30.4154 19.2933 30.5353C19.5162 30.7456 19.5499 31.0529 19.3824 31.2733C19.3401 31.3309 19.2865 31.3793 19.2249 31.4155C19.1634 31.4518 19.0952 31.4751 19.0244 31.4841C18.9536 31.4931 18.8817 31.4876 18.8131 31.4679C18.7445 31.4482 18.6806 31.4148 18.6252 31.3696C18.3013 31.1264 17.9404 30.9111 17.8285 30.472C17.709 29.9999 17.9 29.6275 18.2012 29.2965C18.2452 29.2539 18.3033 29.2293 18.3644 29.2273C18.7489 29.2214 19.1342 29.2239 19.5953 29.2239Z" fill="white"/>
<path d="M18.8052 18.4306H16.3257C15.7628 18.4306 15.5962 18.5995 15.5946 19.1653C15.5946 19.8712 15.5946 20.5771 15.5946 21.2831V21.6394H14.5328C14.5269 21.5297 14.5159 21.419 14.5159 21.3076C14.5159 20.5704 14.5159 19.8332 14.5159 19.0952C14.5159 18.6105 14.3266 18.4272 13.8429 18.4264C13.0015 18.4264 12.1669 18.4264 11.307 18.4264V17.3514H13.5156C13.6308 17.3514 13.7461 17.3514 13.8622 17.3514C14.3191 17.3455 14.5084 17.1614 14.5117 16.6953C14.5176 15.9581 14.5117 15.2201 14.5117 14.4829V14.1325H15.5904V15.0529C15.5904 15.601 15.5861 16.1507 15.5904 16.697C15.5954 17.1623 15.783 17.3481 16.2424 17.3498C16.9878 17.3498 17.7333 17.3498 18.4779 17.3498C18.5805 17.3498 18.6823 17.3582 18.8001 17.3633L18.8052 18.4306Z" fill="white"/>
<path d="M9.81519 0H20.2926C20.4155 -4.98899e-08 20.5373 0.0243156 20.6508 0.0715576C20.7644 0.1188 20.8676 0.188041 20.9545 0.275324C21.0414 0.362608 21.1103 0.466223 21.1572 0.580246C21.2042 0.694268 21.2283 0.816461 21.2282 0.939844V3.35912H19.6641V1.62636H10.4597V3.36334H8.8796V0.939844C8.87949 0.816461 8.90361 0.694268 8.95058 0.580246C8.99755 0.466223 9.06644 0.362608 9.15333 0.275324C9.24022 0.188041 9.3434 0.1188 9.45696 0.0715576C9.57053 0.0243156 9.69226 -4.98899e-08 9.81519 0Z" fill="white"/>
</svg>
