<svg width="13" height="13" viewBox="0 0 13 13" fill="none" xmlns="http://www.w3.org/2000/svg">
<path d="M6.5 0C10.0945 0 13 2.91265 13 6.5C13 10.0886 10.0945 13 6.5 13C2.912 13 0 10.0886 0 6.5C0 2.91265 2.912 0 6.5 0ZM6.5 8.40515C6.188 8.40515 5.9345 8.65865 5.9345 8.97065C5.9345 9.28265 6.188 9.54265 6.5065 9.54265C6.8185 9.54265 7.072 9.28265 7.072 8.97065C7.072 8.65865 6.8185 8.40515 6.5 8.40515ZM6.5 3.4645C6.188 3.4645 5.928 3.72515 5.928 4.0365V6.9095C5.928 7.22215 6.188 7.475 6.5 7.475C6.812 7.475 7.0655 7.22215 7.0655 6.9095V4.0365C7.0655 3.72515 6.812 3.4645 6.5 3.4645Z" fill="#DDDEE2"/>
</svg>
