<svg width="59" height="59" viewBox="0 0 59 59" fill="none" xmlns="http://www.w3.org/2000/svg">
<path d="M28.9937 42.6468C30.76 44.5613 33.1648 45.7625 35.7546 46.0238C38.3444 46.2851 40.9402 45.5884 43.0524 44.0652C43.2307 43.9391 43.4406 43.7395 43.3671 43.5188C43.2937 43.2982 42.7901 43.3192 42.4963 43.5188C40.7374 44.4071 38.7226 44.6475 36.8046 44.1981C34.8865 43.7486 33.1874 42.6379 32.0047 41.0604C31.2087 39.9097 30.7309 38.5685 30.6199 37.1731C30.5673 36.4388 30.6096 35.7007 30.7458 34.9773C31.048 33.1862 31.951 31.5519 33.3057 30.344C34.0796 29.6344 34.9951 29.0972 35.9916 28.7681" stroke="white" stroke-width="1.7" stroke-linecap="round" stroke-linejoin="round"/>
<path d="M28.9937 26.7929H29.0776C30.29 26.7493 31.4696 26.3869 32.4979 25.7423C33.304 25.2548 34.015 24.6247 34.5962 23.8827C35.0679 23.3059 35.4629 22.6702 35.7712 21.9916C36.2588 20.9478 36.5141 19.8105 36.5194 18.6582C36.5247 17.5059 36.2799 16.3662 35.8019 15.318C35.3239 14.2698 34.6242 13.3382 33.7512 12.5875C32.8782 11.8368 31.8528 11.2851 30.7458 10.9705C30.3891 10.8654 29.917 10.5292 30.1583 10.2351C30.2271 10.1775 30.3096 10.1386 30.3978 10.122C30.4859 10.1055 30.5768 10.1118 30.6618 10.1405C31.3079 10.2396 31.9436 10.3979 32.5608 10.6133C33.5123 10.9541 34.4125 11.4243 35.2362 12.0106C35.9228 12.5075 36.5433 13.09 37.0827 13.7442C37.6209 14.3909 38.0854 15.0956 38.4676 15.8454C38.8459 16.6126 39.138 17.4196 39.3384 18.2513C39.5373 19.0809 39.6428 19.9302 39.6531 20.7833C39.6551 21.2117 39.6306 21.6398 39.5797 22.0651C39.5797 22.1702 39.3803 23.3153 39.3593 23.3153C41.1905 23.8413 42.8647 24.8094 44.2349 26.1347C45.6051 27.46 46.6295 29.102 47.2179 30.9164C47.8063 32.7308 47.9408 34.6621 47.6097 36.5407C47.2785 38.4193 46.4917 40.1878 45.3185 41.6908C45.2241 41.7958 45.1088 41.9219 44.9724 41.9009C44.836 41.8799 44.8045 41.4281 44.9724 41.197C46.0949 39.5921 46.6222 37.6449 46.4632 35.692C46.3042 33.7391 45.4689 31.9032 44.1015 30.5016C43.2966 29.7706 42.3538 29.2081 41.3286 28.8473C40.3034 28.4864 39.2165 28.3345 38.1318 28.4004" stroke="white" stroke-width="1.7" stroke-linecap="round" stroke-linejoin="round"/>
<path d="M36.0125 28.7681C36.693 28.5514 37.3979 28.4208 38.1108 28.3794" stroke="white" stroke-width="1.7" stroke-linecap="round" stroke-linejoin="round"/>
<path d="M28.9832 31.2896C29.8581 31.2896 30.5673 30.5793 30.5673 29.7031C30.5673 28.827 29.8581 28.1167 28.9832 28.1167C28.1082 28.1167 27.3989 28.827 27.3989 29.7031C27.3989 30.5793 28.1082 31.2896 28.9832 31.2896Z" fill="white"/>
<path d="M5.95417 20.2476C3.44279 26.2306 3.34857 32.9562 5.69143 39.0075C8.0343 45.0587 12.6313 49.9629 18.5138 52.687C24.3964 55.411 31.1051 55.7422 37.2267 53.6106C43.3482 51.479 48.4045 47.0512 51.3302 41.2601" stroke="white" stroke-width="1.7" stroke-linecap="round" stroke-linejoin="round"/>
<path d="M8.59802 15.5407C11.9792 10.7749 16.9186 7.34354 22.5605 5.84119C28.2024 4.33884 34.1914 4.86013 39.4898 7.31474C44.7883 9.76936 49.0624 14.0027 51.5717 19.2812C54.0809 24.5598 54.6674 30.551 53.2292 36.217" stroke="white" stroke-width="1.7" stroke-linecap="round" stroke-linejoin="round"/>
<path d="M28.8782 42.6468C27.1141 44.5578 24.7132 45.7568 22.1276 46.0181C19.542 46.2793 16.9502 45.5847 14.8405 44.0652C14.6516 43.9391 14.4523 43.7395 14.5257 43.5188C14.5992 43.2982 15.1028 43.3192 15.3966 43.5188C17.1554 44.4071 19.1702 44.6475 21.0883 44.1981C23.0063 43.7486 24.7054 42.6379 25.8881 41.0604C26.678 39.909 27.1454 38.5667 27.2415 37.1731C27.2924 36.4392 27.2536 35.7018 27.1261 34.9773C26.8191 33.1879 25.917 31.555 24.5662 30.344C23.7885 29.6341 22.8696 29.097 21.8698 28.7681" stroke="white" stroke-width="1.7" stroke-linecap="round" stroke-linejoin="round"/>
<path d="M28.8782 26.7928H28.7838C27.572 26.7458 26.3933 26.3837 25.3635 25.7422C24.5588 25.2528 23.8481 24.623 23.2652 23.8826C22.7935 23.3058 22.3985 22.6701 22.0902 21.9915C21.5987 20.9489 21.3401 19.8116 21.3324 18.6588C21.3246 17.506 21.5679 16.3653 22.0452 15.3162C22.5226 14.2672 23.2226 13.3349 24.0965 12.5844C24.9703 11.8338 25.997 11.2831 27.1051 10.9704C27.4723 10.8653 27.9444 10.5291 27.7031 10.235C27.6322 10.1774 27.548 10.1385 27.4581 10.122C27.3683 10.1055 27.2758 10.1118 27.1891 10.1404C25.5417 10.3942 23.9777 11.035 22.6253 12.0105C21.9354 12.5072 21.3113 13.0897 20.7682 13.7441C20.2369 14.3959 19.7729 15.0999 19.3833 15.8453C19.005 16.6125 18.7129 17.4194 18.5125 18.2512C18.3171 19.0812 18.2151 19.9305 18.2083 20.7832C18.2063 21.2116 18.2308 21.6397 18.2817 22.065C18.2817 22.1701 18.481 23.3152 18.502 23.3152C16.6708 23.8412 14.9966 24.8093 13.6264 26.1346C12.2562 27.4599 11.2319 29.1019 10.6435 30.9163C10.0551 32.7307 9.92058 34.662 10.2517 36.5406C10.5829 38.4192 11.3696 40.1877 12.5428 41.6907C12.6267 41.7957 12.7527 41.9218 12.889 41.9008C13.0254 41.8798 13.0464 41.428 12.889 41.1969C11.7551 39.5785 11.2271 37.6117 11.3979 35.6422C11.5687 33.6726 12.4273 31.8264 13.8228 30.428C14.6262 29.6978 15.5672 29.1357 16.5906 28.7749C17.6139 28.414 18.699 28.2617 19.782 28.3267" stroke="white" stroke-width="1.7" stroke-linecap="round" stroke-linejoin="round"/>
<path d="M21.8594 28.7681C21.1785 28.5532 20.4738 28.4227 19.7611 28.3794" stroke="white" stroke-width="1.7" stroke-linecap="round" stroke-linejoin="round"/>
<path d="M28.8782 31.2896C29.7531 31.2896 30.4624 30.5793 30.4624 29.7031C30.4624 28.827 29.7531 28.1167 28.8782 28.1167C28.0032 28.1167 27.2939 28.827 27.2939 29.7031C27.2939 30.5793 28.0032 31.2896 28.8782 31.2896Z" fill="white"/>
<path d="M23.6219 24.3765C24.3162 23.6668 25.1439 23.1019 26.0573 22.7143C26.9708 22.3267 27.9518 22.1242 28.9438 22.1183C29.9358 22.1124 30.9192 22.3034 31.8371 22.6802C32.7551 23.0569 33.5894 23.612 34.2919 24.3134" stroke="white" stroke-width="1.7" stroke-miterlimit="10" stroke-linecap="round"/>
<path d="M21.5341 28.7681C21.4919 29.078 21.4708 29.3904 21.4711 29.7031C21.4596 31.4036 22.0254 33.0576 23.0757 34.3939C24.1261 35.7301 25.5986 36.6693 27.252 37.0575" stroke="white" stroke-width="1.7" stroke-miterlimit="10" stroke-linecap="round"/>
<path d="M30.6199 36.984C32.2926 36.6166 33.7891 35.6862 34.8601 34.348C35.9311 33.0098 36.5118 31.3446 36.5056 29.6297C36.5077 29.3095 36.4831 28.9897 36.4322 28.6736" stroke="white" stroke-width="1.7" stroke-miterlimit="10" stroke-linecap="round"/>
</svg>
