<svg width="144" height="144" viewBox="0 0 144 144" fill="none" xmlns="http://www.w3.org/2000/svg">
<circle cx="72" cy="71.5" r="63" stroke="#FF679E" stroke-width="3"/>
<g clip-path="url(#clip0_4661_3028)">
<path d="M24.5 90.9899V45.3818C24.5 43.6762 25.232 43 26.9604 43C34.4129 43 42.1095 43 49.684 43.0606H88.2377C88.5172 43.0374 88.7982 43.0834 89.0554 43.1943C89.3127 43.3053 89.5382 43.4778 89.712 43.6964C91.7047 45.1313 93.4579 46.8683 94.9073 48.8436H97.0424H98.1303C98.4862 48.8436 98.8319 48.8436 99.147 48.8436H99.6351C100.336 48.782 101.038 48.936 101.647 49.2844C102.257 49.6329 102.743 50.159 103.041 50.7914L111.429 63.9117C111.577 64.0983 111.78 64.2355 112.008 64.3053H112.11L113.971 65.1127C115.211 65.6577 116.492 66.2229 117.783 66.7376C118.31 66.8928 118.769 67.22 119.085 67.6661C119.394 68.127 119.538 68.6784 119.491 69.2304C119.491 76.1337 119.491 82.5425 119.491 88.7998C119.491 90.6165 118.414 91 117.458 91H117.194H116.34H61.7625H60.7458H31.3323H30.3156L24.5 90.9899Z" fill="#D3D3D3"/>
<path fill-rule="evenodd" clip-rule="evenodd" d="M117.98 88.4108C117.98 89.2808 117.77 89.6308 116.84 89.5708C116.32 89.5708 115.84 89.5708 115.45 89.5708H61.15H31.22H26.5V45.4108C26.5 44.2908 26.78 44.0508 27.92 44.0508C35.37 44.0508 42.82 44.0508 50.26 44.0508H88.19C88.44 44.0508 88.7 44.0508 88.86 44.3108V49.8408H94.3H95.74C96.83 49.8408 97.92 49.9008 99.01 49.8408C100.3 49.7608 101.33 49.9908 101.91 51.2408L110.2 64.2508C110.472 64.6317 110.862 64.9128 111.31 65.0508L113.14 65.8508C114.41 66.4108 115.68 66.9708 116.97 67.4908C117.288 67.5739 117.565 67.7692 117.75 68.0408V68.1208C117.904 68.372 117.968 68.6684 117.93 68.9608C117.93 70.3408 117.93 71.7208 117.93 73.1008C117.93 78.2074 117.947 83.3108 117.98 88.4108Z" fill="#FDFDFD"/>
<path d="M94.27 49.8398L88.83 49.8898V44.3398C90.9488 45.8435 92.7896 47.7046 94.27 49.8398Z" fill="#D03135"/>
<path d="M92.5601 89.549C93.1401 84.549 95.8101 81.109 100.07 79.919C102.203 79.3039 104.477 79.3907 106.557 80.1668C108.636 80.9429 110.412 82.367 111.62 84.229C112.41 85.4557 112.919 86.8423 113.11 88.289L113.32 89.549C112.82 95.449 109.63 99.049 104.18 99.909C102.812 100.083 101.422 99.9801 100.094 99.6072C98.7663 99.2343 97.5266 98.5987 96.4487 97.738C95.3708 96.8773 94.4765 95.8091 93.8189 94.5966C93.1612 93.3841 92.7536 92.0519 92.6201 90.679C92.6245 90.3015 92.6044 89.924 92.5601 89.549ZM102.96 85.229C102.35 85.1784 101.736 85.2603 101.16 85.469C100.582 85.6904 100.057 86.0311 99.6201 86.469C99.1816 86.8982 98.8406 87.4166 98.6201 87.989C98.3948 88.5576 98.2959 89.1684 98.3301 89.779C98.3149 90.3879 98.4238 90.9935 98.6501 91.559C98.8767 92.1183 99.2129 92.6267 99.6388 93.0543C100.065 93.4819 100.572 93.8201 101.13 94.049C101.689 94.2911 102.291 94.417 102.9 94.419C104.154 94.3858 105.346 93.8703 106.229 92.9799C107.112 92.0895 107.617 90.8928 107.64 89.639C107.59 87.489 105.6 84.939 102.96 85.229Z" fill="#313131"/>
<path d="M31.1899 89.5508C31.4212 86.534 32.8291 83.729 35.1099 81.7408C36.4216 80.7614 37.9354 80.087 39.5408 79.767C41.1463 79.4469 42.8029 79.4892 44.3899 79.8908C45.7211 80.3041 46.9771 80.9287 48.1099 81.7408L48.4199 81.9808C50.5511 83.9361 51.8265 86.6521 51.9699 89.5408C51.9968 91.0364 51.6924 92.5194 51.0787 93.8835C50.4649 95.2475 49.557 96.4589 48.4199 97.4308C47.0563 98.6886 45.3665 99.5375 43.5434 99.8805C41.7203 100.224 39.8374 100.047 38.1099 99.3708C36.3082 98.7774 34.7158 97.6768 33.5239 96.2011C32.332 94.7254 31.591 92.9371 31.3899 91.0508C31.3299 90.5608 31.2699 90.0508 31.1899 89.5508ZM41.6099 94.4408C42.8363 94.4127 44.007 93.9237 44.8891 93.0713C45.7712 92.2188 46.2999 91.0655 46.3699 89.8408C46.3699 88.5837 45.8706 87.3781 44.9816 86.4891C44.0927 85.6002 42.8871 85.1008 41.6299 85.1008C40.3728 85.1008 39.1672 85.6002 38.2783 86.4891C37.3893 87.3781 36.8899 88.5837 36.8899 89.8408C36.9587 91.0627 37.4803 92.2152 38.3531 93.0732C39.2258 93.9311 40.387 94.433 41.6099 94.4808V94.4408Z" fill="#313131"/>
<path fill-rule="evenodd" clip-rule="evenodd" d="M57.28 81.7307H56.17L57.27 81.7207L57.28 81.7307Z" fill="#FDFDFD"/>
<path d="M57.35 50.5706C58.29 50.5706 59.24 50.6306 60.18 50.5706C61.12 50.5106 61.37 50.8906 61.33 51.7606V55.5906C61.33 56.2706 61.58 56.4906 62.24 56.4706H66.38C67.03 56.4706 67.31 56.6906 67.3 57.3606V63.2406C67.3 63.9606 66.98 64.0806 66.36 64.0606H62.22C61.53 64.0606 61.31 64.2806 61.33 64.9406V69.0506C61.33 69.7706 61.1 70.0506 60.33 69.9906C59.33 69.9406 58.25 69.9906 57.22 69.9906V50.7806C57.2725 50.7167 57.3163 50.6461 57.35 50.5706Z" fill="#D1363A"/>
<path d="M57.2699 50.7203V69.8603C53.6399 70.0403 53.6399 70.0403 53.6399 66.5503C53.6399 64.0203 53.6399 64.0403 51.1099 64.0103C49.9999 64.0103 48.5899 64.4803 47.8899 63.7803C47.1899 63.0803 47.7299 61.7803 47.6999 60.7003C47.6699 59.6203 47.7599 58.7003 47.6999 57.6303C47.6399 56.5603 47.9999 56.4703 48.8699 56.5103C50.0699 56.5803 51.2899 56.5103 52.4799 56.5103C53.4799 56.5903 53.7299 56.1903 53.6699 55.2703C53.5999 54.0403 53.6699 52.8003 53.6699 51.5703C53.6699 50.8903 53.8099 50.5703 54.5799 50.5703C55.3499 50.5703 56.3699 50.7003 57.2699 50.7203Z" fill="#EB5353"/>
<path d="M57.53 81.9093L57.27 81.6893V76.8393C60.58 76.8393 63.89 76.7793 67.2 76.7793H88.77V81.7793H59.2C58.65 81.8393 58.11 81.8893 57.53 81.9093Z" fill="#E17B7B"/>
<path d="M107.52 64.8405H92.71C92.06 64.8405 91.71 64.6805 91.71 63.9505V53.2005C91.71 52.4705 92.06 52.3005 92.71 52.3105H99.18C99.3981 52.2925 99.6168 52.3376 99.81 52.4405C100.002 52.5446 100.162 52.7005 100.27 52.8905C102.6 56.7305 104.97 60.6105 107.52 64.8405Z" fill="#69B6F2"/>
<path d="M48.5 81.7705C48.504 81.8438 48.4866 81.9168 48.45 81.9805L48.14 81.7305L48.5 81.7705Z" fill="#E0DFDF"/>
<path d="M102.96 85.2295C105.6 84.9495 107.58 87.4895 107.64 89.6695C107.61 90.9219 107.103 92.1156 106.221 93.006C105.34 93.8965 104.152 94.4165 102.9 94.4595C102.286 94.4388 101.681 94.2996 101.12 94.0495C100.563 93.8165 100.057 93.4768 99.63 93.0495C99.2012 92.6125 98.8616 92.0962 98.63 91.5295C98.4048 90.9602 98.296 90.3516 98.31 89.7395C98.2794 89.128 98.3785 88.5169 98.6008 87.9465C98.8231 87.376 99.1637 86.859 99.6 86.4295C100.039 85.9936 100.563 85.6532 101.14 85.4295C101.725 85.2317 102.346 85.1635 102.96 85.2295Z" fill="#585858"/>
<path d="M41.61 94.4407C40.3791 94.3967 39.2098 93.8906 38.3352 93.0234C37.4605 92.1561 36.9445 90.9912 36.89 89.7607C36.8959 88.8232 37.1814 87.9088 37.71 87.1345C38.2386 86.3602 38.9862 85.7612 39.8572 85.4144C40.7282 85.0675 41.6829 84.9884 42.5991 85.1873C43.5152 85.3862 44.3512 85.8539 45 86.5307C45.8606 87.4199 46.3505 88.6034 46.37 89.8407C46.291 91.0622 45.7595 92.2103 44.8793 93.0609C43.9991 93.9115 42.8335 94.4035 41.61 94.4407Z" fill="#959595"/>
<path fill-rule="evenodd" clip-rule="evenodd" d="M29.66 81.7305H35.11L29.66 81.7505V81.7305Z" fill="#FDFDFD"/>
<path fill-rule="evenodd" clip-rule="evenodd" d="M61.15 81.7305V81.9505H57.53L57.28 81.7305H61.15Z" fill="#FDFDFD"/>
<path d="M26.11 76.7305C26.2785 76.7636 26.4488 76.787 26.62 76.8005H57.31V81.7205L48.54 81.8005H48.2C47.0476 80.9189 45.752 80.2424 44.37 79.8005C42.7835 79.4124 41.1311 79.3783 39.53 79.7005C37.9262 80.0299 36.4161 80.7132 35.11 81.7005H26.11C25.9627 80.0471 25.9627 78.3839 26.11 76.7305Z" fill="#F78888"/>
</g>
<defs>
<clipPath id="clip0_4661_3028">
<rect width="99" height="60" fill="white" transform="translate(21.5 40)"/>
</clipPath>
</defs>
</svg>
