<svg width="375" height="812" viewBox="0 0 375 812" fill="none" xmlns="http://www.w3.org/2000/svg">
    <defs>
        <linearGradient id="paint0_linear_766_20711" x1="299.783" y1="-1.99998" x2="-237.039" y2="276.933" gradientUnits="userSpaceOnUse">
            <stop stop-color="#FFA800"/>
            <stop offset="1" stop-color="#FFC656"/>
        </linearGradient>
        <clipPath id="clip0_766_20711">
            <rect y="-2" width="377" height="819" rx="10" fill="white"/>
        </clipPath>
    </defs>
    <g clip-path="url(#clip0_766_20711)">
<rect y="-2" width="377" height="819" rx="10" fill="url(#paint0_linear_766_20711)"/>
<path d="M41.851 271V236.7H57.188C61.0427 236.7 64.048 237.468 66.204 239.003C68.36 240.506 69.438 242.678 69.438 245.52C69.438 248.329 68.409 250.502 66.351 252.037C64.293 253.54 61.5817 254.291 58.217 254.291L59.099 252.527C62.921 252.527 65.8773 253.295 67.968 254.83C70.0587 256.365 71.104 258.587 71.104 261.494C71.104 264.467 70.0097 266.802 67.821 268.501C65.6323 270.167 62.3983 271 58.119 271H41.851ZM48.123 266.1H57.923C60.1443 266.1 61.8267 265.692 62.97 264.875C64.1133 264.026 64.685 262.735 64.685 261.004C64.685 259.273 64.1133 258.015 62.97 257.231C61.8267 256.414 60.1443 256.006 57.923 256.006H48.123V266.1ZM48.123 251.351H56.649C58.707 251.351 60.275 250.943 61.353 250.126C62.431 249.277 62.97 248.068 62.97 246.5C62.97 244.867 62.431 243.642 61.353 242.825C60.275 242.008 58.707 241.6 56.649 241.6H48.123V251.351ZM103.678 271V244.834H109.803V271H103.678ZM90.0066 253.458C93.3713 253.458 95.9193 254.209 97.6506 255.712C99.4146 257.215 100.297 259.338 100.297 262.082C100.297 264.924 99.3166 267.145 97.3566 268.746C95.4293 270.314 92.6853 271.082 89.1246 271.049L77.2666 271V244.834H83.3916V253.409L90.0066 253.458ZM88.5856 266.541C90.3823 266.574 91.7543 266.198 92.7016 265.414C93.6489 264.63 94.1226 263.487 94.1226 261.984C94.1226 260.481 93.6489 259.403 92.7016 258.75C91.7869 258.064 90.4149 257.705 88.5856 257.672L83.3916 257.623V266.492L88.5856 266.541ZM125.574 271.441C127.991 271.441 130.131 271.098 131.993 270.412C133.888 269.726 135.374 268.779 136.452 267.57C137.53 266.329 138.069 264.908 138.069 263.307C138.069 261.314 137.236 259.746 135.57 258.603C133.904 257.427 131.617 256.839 128.71 256.839L128.514 258.162C130.213 258.162 131.715 257.884 133.022 257.329C134.361 256.774 135.407 256.006 136.158 255.026C136.942 254.013 137.334 252.886 137.334 251.645C137.334 250.142 136.795 248.836 135.717 247.725C134.639 246.614 133.169 245.765 131.307 245.177C129.445 244.589 127.322 244.344 124.937 244.442C123.369 244.475 121.785 244.703 120.184 245.128C118.616 245.52 116.999 246.092 115.333 246.843L116.901 251.351C118.338 250.73 119.743 250.257 121.115 249.93C122.52 249.603 123.875 249.44 125.182 249.44C126.423 249.44 127.485 249.571 128.367 249.832C129.249 250.061 129.919 250.42 130.376 250.91C130.866 251.367 131.111 251.906 131.111 252.527C131.111 253.148 130.915 253.687 130.523 254.144C130.131 254.601 129.559 254.944 128.808 255.173C128.089 255.402 127.207 255.516 126.162 255.516H121.605V259.632H126.652C128.318 259.632 129.592 259.91 130.474 260.465C131.389 260.988 131.846 261.772 131.846 262.817C131.846 263.536 131.568 264.173 131.013 264.728C130.49 265.283 129.739 265.708 128.759 266.002C127.779 266.263 126.603 266.394 125.231 266.394C123.63 266.394 122.03 266.198 120.429 265.806C118.828 265.414 117.391 264.859 116.117 264.14L114.402 268.697C115.97 269.579 117.718 270.265 119.645 270.755C121.605 271.212 123.581 271.441 125.574 271.441ZM155.631 271.343C152.952 271.343 150.568 270.771 148.477 269.628C146.386 268.452 144.737 266.851 143.528 264.826C142.319 262.801 141.715 260.498 141.715 257.917C141.715 255.304 142.319 253.001 143.528 251.008C144.737 248.983 146.386 247.398 148.477 246.255C150.568 245.112 152.952 244.54 155.631 244.54C158.342 244.54 160.743 245.112 162.834 246.255C164.957 247.398 166.607 248.966 167.783 250.959C168.992 252.952 169.596 255.271 169.596 257.917C169.596 260.498 168.992 262.801 167.783 264.826C166.607 266.851 164.957 268.452 162.834 269.628C160.743 270.771 158.342 271.343 155.631 271.343ZM155.631 266.1C157.134 266.1 158.473 265.773 159.649 265.12C160.825 264.467 161.74 263.519 162.393 262.278C163.079 261.037 163.422 259.583 163.422 257.917C163.422 256.218 163.079 254.765 162.393 253.556C161.74 252.315 160.825 251.367 159.649 250.714C158.473 250.061 157.15 249.734 155.68 249.734C154.177 249.734 152.838 250.061 151.662 250.714C150.519 251.367 149.604 252.315 148.918 253.556C148.232 254.765 147.889 256.218 147.889 257.917C147.889 259.583 148.232 261.037 148.918 262.278C149.604 263.519 150.519 264.467 151.662 265.12C152.838 265.773 154.161 266.1 155.631 266.1ZM175.239 271V244.834H188.028C191.197 244.834 193.679 245.422 195.476 246.598C197.305 247.774 198.22 249.44 198.22 251.596C198.22 253.719 197.371 255.385 195.672 256.594C193.973 257.77 191.719 258.358 188.91 258.358L189.645 256.839C192.814 256.839 195.166 257.427 196.701 258.603C198.269 259.746 199.053 261.429 199.053 263.65C199.053 265.969 198.187 267.782 196.456 269.089C194.725 270.363 192.095 271 188.567 271H175.239ZM181.07 266.541H188.077C189.743 266.541 191.001 266.28 191.85 265.757C192.699 265.202 193.124 264.369 193.124 263.258C193.124 262.082 192.732 261.216 191.948 260.661C191.164 260.106 189.939 259.828 188.273 259.828H181.07V266.541ZM181.07 255.761H187.489C189.057 255.761 190.233 255.483 191.017 254.928C191.834 254.34 192.242 253.523 192.242 252.478C192.242 251.4 191.834 250.6 191.017 250.077C190.233 249.554 189.057 249.293 187.489 249.293H181.07V255.761ZM41.851 320V285.7H47.045L62.088 310.739H59.295L74.093 285.7H79.287L79.385 320H73.309L73.26 295.157H74.534L61.99 316.08H59.148L46.408 295.157H47.878V320H41.851ZM109.032 306.672C107.235 307.423 105.487 307.979 103.789 308.338C102.09 308.697 100.44 308.877 98.8396 308.877C94.4623 308.877 91.0813 307.832 88.6966 305.741C86.3446 303.618 85.1686 300.58 85.1686 296.627V285.7H91.4896V295.941C91.4896 298.358 92.1919 300.204 93.5966 301.478C95.0013 302.752 97.0103 303.389 99.6236 303.389C101.192 303.389 102.76 303.209 104.328 302.85C105.928 302.491 107.464 301.935 108.934 301.184L109.032 306.672ZM108.052 320V285.7H114.373V320H108.052ZM139.356 320.49C136.742 320.49 134.309 320.065 132.055 319.216C129.833 318.334 127.89 317.109 126.224 315.541C124.59 313.94 123.316 312.062 122.402 309.906C121.487 307.75 121.03 305.398 121.03 302.85C121.03 300.302 121.487 297.95 122.402 295.794C123.316 293.638 124.607 291.776 126.273 290.208C127.939 288.607 129.882 287.382 132.104 286.533C134.325 285.651 136.759 285.21 139.405 285.21C142.214 285.21 144.778 285.7 147.098 286.68C149.417 287.627 151.377 289.048 152.978 290.943L148.862 294.814C147.62 293.475 146.232 292.478 144.697 291.825C143.161 291.139 141.495 290.796 139.699 290.796C137.902 290.796 136.252 291.09 134.75 291.678C133.28 292.266 131.989 293.099 130.879 294.177C129.801 295.255 128.951 296.529 128.331 297.999C127.743 299.469 127.449 301.086 127.449 302.85C127.449 304.614 127.743 306.231 128.331 307.701C128.951 309.171 129.801 310.445 130.879 311.523C131.989 312.601 133.28 313.434 134.75 314.022C136.252 314.61 137.902 314.904 139.699 314.904C141.495 314.904 143.161 314.577 144.697 313.924C146.232 313.238 147.62 312.209 148.862 310.837L152.978 314.757C151.377 316.619 149.417 318.04 147.098 319.02C144.778 320 142.198 320.49 139.356 320.49Z" fill="white"/>
<path d="M39.398 354V338.6H51.014V340.47H41.576V344.87H46.372C48.2053 344.87 49.5987 345.251 50.552 346.014C51.5053 346.777 51.982 347.884 51.982 349.336C51.982 350.832 51.4613 351.983 50.42 352.79C49.3933 353.597 47.9193 354 45.998 354H39.398ZM41.576 352.262H45.91C47.186 352.262 48.1467 352.02 48.792 351.536C49.452 351.052 49.782 350.333 49.782 349.38C49.782 347.532 48.4913 346.608 45.91 346.608H41.576V352.262ZM55.023 358.4C54.4657 358.4 53.923 358.305 53.395 358.114C52.867 357.938 52.4123 357.674 52.031 357.322L52.933 355.738C53.2263 356.017 53.549 356.229 53.901 356.376C54.253 356.523 54.627 356.596 55.023 356.596C55.5363 356.596 55.9617 356.464 56.299 356.2C56.6363 355.936 56.9517 355.467 57.245 354.792L57.971 353.186L58.191 352.922L62.767 342.34H64.835L59.181 355.166C58.8437 355.987 58.4623 356.633 58.037 357.102C57.6263 357.571 57.1717 357.901 56.673 358.092C56.1743 358.297 55.6243 358.4 55.023 358.4ZM57.795 354.374L52.471 342.34H54.671L59.203 352.724L57.795 354.374ZM73.9303 353.01V344.188H68.8703L68.7603 346.432C68.731 347.165 68.6797 347.877 68.6063 348.566C68.5477 349.241 68.445 349.864 68.2983 350.436C68.1663 351.008 67.9683 351.477 67.7043 351.844C67.4403 352.211 67.0883 352.438 66.6483 352.526L64.5583 352.152C65.013 352.167 65.3797 352.02 65.6583 351.712C65.937 351.389 66.1497 350.949 66.2963 350.392C66.4577 349.835 66.575 349.204 66.6483 348.5C66.7217 347.781 66.7803 347.041 66.8243 346.278L67.0003 342.34H76.0423V353.01H73.9303ZM64.0963 356.706V352.152H77.8243V356.706H75.8443V354H66.0983V356.706H64.0963ZM85.5577 346.3C87.039 346.315 88.1684 346.652 88.9457 347.312C89.723 347.972 90.1117 348.903 90.1117 350.106C90.1117 351.367 89.6864 352.343 88.8357 353.032C87.985 353.707 86.7824 354.037 85.2277 354.022L80.1677 354V342.34H82.2797V346.278L85.5577 346.3ZM85.0517 352.416C86.005 352.431 86.7237 352.24 87.2077 351.844C87.7064 351.448 87.9557 350.861 87.9557 350.084C87.9557 349.321 87.7137 348.764 87.2297 348.412C86.7457 348.06 86.0197 347.877 85.0517 347.862L82.2797 347.818V352.394L85.0517 352.416ZM97.9142 354V342.34H103.326C104.69 342.34 105.761 342.604 106.538 343.132C107.33 343.645 107.726 344.379 107.726 345.332C107.726 346.285 107.352 347.026 106.604 347.554C105.871 348.067 104.896 348.324 103.678 348.324L104.008 347.752C105.402 347.752 106.436 348.009 107.11 348.522C107.785 349.035 108.122 349.791 108.122 350.788C108.122 351.8 107.741 352.592 106.978 353.164C106.23 353.721 105.079 354 103.524 354H97.9142ZM99.9822 352.372H103.37C104.25 352.372 104.91 352.24 105.35 351.976C105.79 351.697 106.01 351.257 106.01 350.656C106.01 350.04 105.805 349.593 105.394 349.314C104.998 349.021 104.368 348.874 103.502 348.874H99.9822V352.372ZM99.9822 347.356H103.15C103.957 347.356 104.566 347.209 104.976 346.916C105.402 346.608 105.614 346.183 105.614 345.64C105.614 345.083 105.402 344.665 104.976 344.386C104.566 344.107 103.957 343.968 103.15 343.968H99.9822V347.356ZM116.102 354.132C114.914 354.132 113.851 353.875 112.912 353.362C111.988 352.849 111.262 352.145 110.734 351.25C110.206 350.355 109.942 349.329 109.942 348.17C109.942 347.011 110.206 345.985 110.734 345.09C111.262 344.195 111.988 343.499 112.912 343C113.851 342.487 114.914 342.23 116.102 342.23C117.158 342.23 118.097 342.443 118.918 342.868C119.754 343.279 120.399 343.895 120.854 344.716L119.248 345.75C118.867 345.178 118.397 344.76 117.84 344.496C117.297 344.217 116.711 344.078 116.08 344.078C115.317 344.078 114.635 344.247 114.034 344.584C113.433 344.921 112.956 345.398 112.604 346.014C112.252 346.615 112.076 347.334 112.076 348.17C112.076 349.006 112.252 349.732 112.604 350.348C112.956 350.964 113.433 351.441 114.034 351.778C114.635 352.115 115.317 352.284 116.08 352.284C116.711 352.284 117.297 352.152 117.84 351.888C118.397 351.609 118.867 351.184 119.248 350.612L120.854 351.624C120.399 352.431 119.754 353.054 118.918 353.494C118.097 353.919 117.158 354.132 116.102 354.132ZM128.2 354.132C126.954 354.132 125.854 353.875 124.9 353.362C123.962 352.849 123.228 352.145 122.7 351.25C122.187 350.355 121.93 349.329 121.93 348.17C121.93 347.011 122.18 345.985 122.678 345.09C123.192 344.195 123.888 343.499 124.768 343C125.663 342.487 126.668 342.23 127.782 342.23C128.912 342.23 129.909 342.479 130.774 342.978C131.64 343.477 132.314 344.181 132.798 345.09C133.297 345.985 133.546 347.033 133.546 348.236C133.546 348.324 133.539 348.427 133.524 348.544C133.524 348.661 133.517 348.771 133.502 348.874H123.58V347.356H132.402L131.544 347.884C131.559 347.136 131.405 346.469 131.082 345.882C130.76 345.295 130.312 344.841 129.74 344.518C129.183 344.181 128.53 344.012 127.782 344.012C127.049 344.012 126.396 344.181 125.824 344.518C125.252 344.841 124.805 345.303 124.482 345.904C124.16 346.491 123.998 347.165 123.998 347.928V348.28C123.998 349.057 124.174 349.754 124.526 350.37C124.893 350.971 125.399 351.441 126.044 351.778C126.69 352.115 127.43 352.284 128.266 352.284C128.956 352.284 129.579 352.167 130.136 351.932C130.708 351.697 131.207 351.345 131.632 350.876L132.798 352.24C132.27 352.856 131.61 353.325 130.818 353.648C130.041 353.971 129.168 354.132 128.2 354.132ZM136.415 354V342.34H144.995V344.188H138.021L138.527 343.704V354H136.415ZM153.961 353.01V344.188H148.901L148.791 346.432C148.762 347.165 148.71 347.877 148.637 348.566C148.578 349.241 148.476 349.864 148.329 350.436C148.197 351.008 147.999 351.477 147.735 351.844C147.471 352.211 147.119 352.438 146.679 352.526L144.589 352.152C145.044 352.167 145.41 352.02 145.689 351.712C145.968 351.389 146.18 350.949 146.327 350.392C146.488 349.835 146.606 349.204 146.679 348.5C146.752 347.781 146.811 347.041 146.855 346.278L147.031 342.34H156.073V353.01H153.961ZM144.127 356.706V352.152H157.855V356.706H155.875V354H146.129V356.706H144.127ZM167.348 354V351.536L167.238 351.074V346.872C167.238 345.977 166.974 345.288 166.446 344.804C165.933 344.305 165.156 344.056 164.114 344.056C163.425 344.056 162.75 344.173 162.09 344.408C161.43 344.628 160.873 344.929 160.418 345.31L159.538 343.726C160.14 343.242 160.858 342.875 161.694 342.626C162.545 342.362 163.432 342.23 164.356 342.23C165.955 342.23 167.187 342.619 168.052 343.396C168.918 344.173 169.35 345.361 169.35 346.96V354H167.348ZM163.52 354.132C162.655 354.132 161.892 353.985 161.232 353.692C160.587 353.399 160.088 352.995 159.736 352.482C159.384 351.954 159.208 351.36 159.208 350.7C159.208 350.069 159.355 349.497 159.648 348.984C159.956 348.471 160.448 348.06 161.122 347.752C161.812 347.444 162.736 347.29 163.894 347.29H167.59V348.808H163.982C162.926 348.808 162.215 348.984 161.848 349.336C161.482 349.688 161.298 350.113 161.298 350.612C161.298 351.184 161.526 351.646 161.98 351.998C162.435 352.335 163.066 352.504 163.872 352.504C164.664 352.504 165.354 352.328 165.94 351.976C166.542 351.624 166.974 351.111 167.238 350.436L167.656 351.888C167.378 352.577 166.886 353.127 166.182 353.538C165.478 353.934 164.591 354.132 163.52 354.132ZM39.046 383V371.34H41.158V376.29H47.802V371.34H49.914V383H47.802V378.116H41.158V383H39.046ZM60.7626 383V380.536L60.6526 380.074V375.872C60.6526 374.977 60.3886 374.288 59.8606 373.804C59.3473 373.305 58.5699 373.056 57.5286 373.056C56.8393 373.056 56.1646 373.173 55.5046 373.408C54.8446 373.628 54.2873 373.929 53.8326 374.31L52.9526 372.726C53.5539 372.242 54.2726 371.875 55.1086 371.626C55.9593 371.362 56.8466 371.23 57.7706 371.23C59.3693 371.23 60.6013 371.619 61.4666 372.396C62.3319 373.173 62.7646 374.361 62.7646 375.96V383H60.7626ZM56.9346 383.132C56.0693 383.132 55.3066 382.985 54.6466 382.692C54.0013 382.399 53.5026 381.995 53.1506 381.482C52.7986 380.954 52.6226 380.36 52.6226 379.7C52.6226 379.069 52.7693 378.497 53.0626 377.984C53.3706 377.471 53.8619 377.06 54.5366 376.752C55.2259 376.444 56.1499 376.29 57.3086 376.29H61.0046V377.808H57.3966C56.3406 377.808 55.6293 377.984 55.2626 378.336C54.8959 378.688 54.7126 379.113 54.7126 379.612C54.7126 380.184 54.9399 380.646 55.3946 380.998C55.8493 381.335 56.4799 381.504 57.2866 381.504C58.0786 381.504 58.7679 381.328 59.3546 380.976C59.9559 380.624 60.3886 380.111 60.6526 379.436L61.0706 380.888C60.7919 381.577 60.3006 382.127 59.5966 382.538C58.8926 382.934 58.0053 383.132 56.9346 383.132ZM71.6599 383V371.34H80.2399V373.188H73.2659L73.7719 372.704V383H71.6599ZM86.4725 383.132C85.2991 383.132 84.2578 382.875 83.3485 382.362C82.4391 381.849 81.7205 381.145 81.1925 380.25C80.6645 379.341 80.4005 378.314 80.4005 377.17C80.4005 376.011 80.6645 374.985 81.1925 374.09C81.7205 373.195 82.4391 372.499 83.3485 372C84.2578 371.487 85.2991 371.23 86.4725 371.23C87.6311 371.23 88.6651 371.487 89.5745 372C90.4985 372.499 91.2171 373.195 91.7305 374.09C92.2585 374.97 92.5225 375.997 92.5225 377.17C92.5225 378.329 92.2585 379.355 91.7305 380.25C91.2171 381.145 90.4985 381.849 89.5745 382.362C88.6651 382.875 87.6311 383.132 86.4725 383.132ZM86.4725 381.284C87.2205 381.284 87.8878 381.115 88.4745 380.778C89.0758 380.441 89.5451 379.964 89.8825 379.348C90.2198 378.717 90.3885 377.991 90.3885 377.17C90.3885 376.334 90.2198 375.615 89.8825 375.014C89.5451 374.398 89.0758 373.921 88.4745 373.584C87.8878 373.247 87.2205 373.078 86.4725 373.078C85.7245 373.078 85.0571 373.247 84.4705 373.584C83.8838 373.921 83.4145 374.398 83.0625 375.014C82.7105 375.615 82.5345 376.334 82.5345 377.17C82.5345 377.991 82.7105 378.717 83.0625 379.348C83.4145 379.964 83.8838 380.441 84.4705 380.778C85.0571 381.115 85.7245 381.284 86.4725 381.284ZM97.0445 383V372.638L97.5725 373.188H92.7765V371.34H103.425V373.188H98.6505L99.1565 372.638V383H97.0445ZM109.655 383.132C108.481 383.132 107.44 382.875 106.531 382.362C105.621 381.849 104.903 381.145 104.375 380.25C103.847 379.341 103.583 378.314 103.583 377.17C103.583 376.011 103.847 374.985 104.375 374.09C104.903 373.195 105.621 372.499 106.531 372C107.44 371.487 108.481 371.23 109.655 371.23C110.813 371.23 111.847 371.487 112.757 372C113.681 372.499 114.399 373.195 114.913 374.09C115.441 374.97 115.705 375.997 115.705 377.17C115.705 378.329 115.441 379.355 114.913 380.25C114.399 381.145 113.681 381.849 112.757 382.362C111.847 382.875 110.813 383.132 109.655 383.132ZM109.655 381.284C110.403 381.284 111.07 381.115 111.657 380.778C112.258 380.441 112.727 379.964 113.065 379.348C113.402 378.717 113.571 377.991 113.571 377.17C113.571 376.334 113.402 375.615 113.065 375.014C112.727 374.398 112.258 373.921 111.657 373.584C111.07 373.247 110.403 373.078 109.655 373.078C108.907 373.078 108.239 373.247 107.653 373.584C107.066 373.921 106.597 374.398 106.245 375.014C105.893 375.615 105.717 376.334 105.717 377.17C105.717 377.991 105.893 378.717 106.245 379.348C106.597 379.964 107.066 380.441 107.653 380.778C108.239 381.115 108.907 381.284 109.655 381.284ZM118.346 383V371.34H123.758C125.122 371.34 126.193 371.604 126.97 372.132C127.762 372.645 128.158 373.379 128.158 374.332C128.158 375.285 127.784 376.026 127.036 376.554C126.303 377.067 125.328 377.324 124.11 377.324L124.44 376.752C125.834 376.752 126.868 377.009 127.542 377.522C128.217 378.035 128.554 378.791 128.554 379.788C128.554 380.8 128.173 381.592 127.41 382.164C126.662 382.721 125.511 383 123.956 383H118.346ZM120.414 381.372H123.802C124.682 381.372 125.342 381.24 125.782 380.976C126.222 380.697 126.442 380.257 126.442 379.656C126.442 379.04 126.237 378.593 125.826 378.314C125.43 378.021 124.8 377.874 123.934 377.874H120.414V381.372ZM120.414 376.356H123.582C124.389 376.356 124.998 376.209 125.408 375.916C125.834 375.608 126.046 375.183 126.046 374.64C126.046 374.083 125.834 373.665 125.408 373.386C124.998 373.107 124.389 372.968 123.582 372.968H120.414V376.356ZM136.644 383.132C135.397 383.132 134.297 382.875 133.344 382.362C132.405 381.849 131.672 381.145 131.144 380.25C130.631 379.355 130.374 378.329 130.374 377.17C130.374 376.011 130.623 374.985 131.122 374.09C131.635 373.195 132.332 372.499 133.212 372C134.107 371.487 135.111 371.23 136.226 371.23C137.355 371.23 138.353 371.479 139.218 371.978C140.083 372.477 140.758 373.181 141.242 374.09C141.741 374.985 141.99 376.033 141.99 377.236C141.99 377.324 141.983 377.427 141.968 377.544C141.968 377.661 141.961 377.771 141.946 377.874H132.024V376.356H140.846L139.988 376.884C140.003 376.136 139.849 375.469 139.526 374.882C139.203 374.295 138.756 373.841 138.184 373.518C137.627 373.181 136.974 373.012 136.226 373.012C135.493 373.012 134.84 373.181 134.268 373.518C133.696 373.841 133.249 374.303 132.926 374.904C132.603 375.491 132.442 376.165 132.442 376.928V377.28C132.442 378.057 132.618 378.754 132.97 379.37C133.337 379.971 133.843 380.441 134.488 380.778C135.133 381.115 135.874 381.284 136.71 381.284C137.399 381.284 138.023 381.167 138.58 380.932C139.152 380.697 139.651 380.345 140.076 379.876L141.242 381.24C140.714 381.856 140.054 382.325 139.262 382.648C138.485 382.971 137.612 383.132 136.644 383.132Z" fill="white"/>
<path d="M414.481 544.099C402.495 524.595 388.936 506.083 373.935 488.743C351.451 460.436 339.257 425.457 339.32 389.449C339.36 388.489 339.132 387.536 338.661 386.696C338.19 385.855 337.494 385.159 336.65 384.684C335.806 384.209 334.846 383.973 333.875 384.002C332.904 384.032 331.961 384.325 331.147 384.85C305.495 403.151 285.782 428.449 274.416 457.654C262.442 488.818 260.428 522.869 268.646 555.202C268.783 555.58 268.796 555.991 268.683 556.376C268.57 556.761 268.336 557.1 268.017 557.347C267.697 557.593 267.307 557.733 266.902 557.747C266.498 557.76 266.098 557.647 265.762 557.423C245.661 545.355 228.44 529.121 215.282 509.839C214.848 509.189 214.272 508.643 213.598 508.241C212.924 507.839 212.169 507.592 211.386 507.516C210.603 507.44 209.812 507.538 209.073 507.802C208.333 508.067 207.662 508.491 207.108 509.045C198.191 518.548 190.641 529.223 184.672 540.768C178.399 554.191 174.445 568.56 172.974 583.277C169.471 612.748 175.473 642.562 190.121 668.454C201.798 688.513 218.796 705.028 239.275 716.211C259.755 727.395 282.936 732.82 306.307 731.9C334.029 729.854 360.26 718.687 380.826 700.177C401.409 681.858 416.023 657.896 422.814 631.337C425.388 620.949 426.786 610.309 426.98 599.614C427.329 580.389 423.044 561.359 414.481 544.099ZM341.724 659.254C340.822 665.67 338.513 671.814 334.958 677.254C331.403 682.694 326.69 687.299 321.147 690.745C315.604 694.191 309.366 696.394 302.871 697.202C296.377 698.009 289.782 697.4 283.55 695.418C276.961 693.352 270.958 689.775 266.029 684.98C261.1 680.184 257.385 674.304 255.185 667.819C252.757 660.857 252.248 653.379 253.712 646.158C255.177 638.936 258.562 632.233 263.518 626.738C263.856 626.42 264.263 626.184 264.708 626.046C265.152 625.909 265.623 625.874 266.083 625.944C272.214 627.468 278.418 628.686 284.672 629.593C283.515 625.568 282.922 621.405 282.91 617.221C282.751 615.162 282.751 613.094 282.91 611.035C283.9 604.405 286.426 598.092 290.291 592.589C294.155 587.086 299.253 582.541 305.186 579.312C305.497 579.158 305.839 579.074 306.187 579.065C306.535 579.055 306.881 579.12 307.201 579.256C307.522 579.392 307.808 579.595 308.041 579.851C308.274 580.107 308.447 580.41 308.55 580.74C311.618 591.423 316.091 601.662 321.852 611.193C324.321 615.75 327.162 620.1 330.346 624.2L333.23 627.848C338.322 635.109 341.009 643.755 340.923 652.592C341.385 654.785 341.653 657.014 341.724 659.254Z" fill="#FEA842"/>
<path d="M431.481 524.099C419.495 504.595 405.936 486.083 390.935 468.743C368.451 440.436 356.257 405.457 356.32 369.449C356.36 368.489 356.132 367.536 355.661 366.696C355.19 365.855 354.494 365.159 353.65 364.684C352.806 364.209 351.846 363.973 350.875 364.002C349.904 364.032 348.961 364.325 348.147 364.85C322.495 383.151 302.782 408.449 291.416 437.654C279.442 468.818 277.428 502.869 285.646 535.202C285.783 535.58 285.796 535.991 285.683 536.376C285.57 536.761 285.336 537.1 285.017 537.347C284.697 537.593 284.307 537.733 283.902 537.747C283.498 537.76 283.098 537.647 282.762 537.423C262.661 525.355 245.44 509.121 232.282 489.839C231.848 489.189 231.272 488.643 230.598 488.241C229.924 487.839 229.169 487.592 228.386 487.516C227.603 487.44 226.812 487.538 226.073 487.802C225.333 488.067 224.662 488.491 224.108 489.045C215.191 498.548 207.641 509.223 201.672 520.768C195.399 534.191 191.445 548.56 189.974 563.277C186.471 592.748 192.473 622.562 207.121 648.454C218.798 668.513 235.796 685.028 256.275 696.211C276.755 707.395 299.936 712.82 323.307 711.9C351.029 709.854 377.26 698.687 397.826 680.177C418.409 661.858 433.023 637.896 439.814 611.337C442.388 600.949 443.786 590.309 443.98 579.614C444.329 560.389 440.044 541.359 431.481 524.099ZM358.724 639.254C357.822 645.67 355.513 651.814 351.958 657.254C348.403 662.694 343.69 667.299 338.147 670.745C332.604 674.191 326.366 676.394 319.871 677.202C313.377 678.009 306.782 677.4 300.55 675.418C293.961 673.352 287.958 669.775 283.029 664.98C278.1 660.184 274.385 654.304 272.185 647.819C269.757 640.857 269.248 633.379 270.712 626.158C272.177 618.936 275.562 612.233 280.518 606.738C280.856 606.42 281.263 606.184 281.708 606.046C282.152 605.909 282.623 605.874 283.083 605.944C289.214 607.468 295.418 608.686 301.672 609.593C300.515 605.568 299.922 601.405 299.91 597.221C299.751 595.162 299.751 593.094 299.91 591.035C300.9 584.405 303.426 578.092 307.291 572.589C311.155 567.086 316.253 562.541 322.186 559.312C322.497 559.158 322.839 559.074 323.187 559.065C323.535 559.055 323.881 559.12 324.201 559.256C324.522 559.392 324.808 559.595 325.041 559.851C325.274 560.107 325.447 560.41 325.55 560.74C328.618 571.423 333.091 581.662 338.852 591.193C341.321 595.75 344.162 600.1 347.346 604.2L350.23 607.848C355.322 615.109 358.009 623.755 357.923 632.592C358.385 634.785 358.653 637.014 358.724 639.254Z" fill="#FC9230"/>
<path d="M113.078 86.3305C106.45 75.5699 98.9527 65.3562 90.6584 55.789C78.2256 40.1715 71.4831 20.8728 71.5183 1.00662C71.5404 0.476724 71.4142 -0.0488968 71.1538 -0.512712C70.8933 -0.976528 70.5086 -1.36048 70.0418 -1.62263C69.575 -1.88478 69.0442 -2.01481 68.5074 -1.99866C67.9706 -1.98251 67.4488 -1.82076 66.999 -1.53103C52.815 8.56597 41.9146 22.5234 35.6298 38.6368C29.0091 55.8304 27.8956 74.6174 32.4398 92.4565C32.5154 92.6647 32.5224 92.8914 32.4598 93.1038C32.3973 93.3163 32.2684 93.5037 32.0915 93.6395C31.9147 93.7754 31.6994 93.8526 31.4755 93.8601C31.2516 93.8677 31.0307 93.8053 30.8449 93.6817C19.7304 87.0233 10.2082 78.0669 2.93222 67.4282C2.69232 67.0698 2.37407 66.7686 2.00142 66.5469C1.62877 66.3252 1.211 66.1885 0.778023 66.1466C0.345041 66.1047 -0.0919247 66.1587 -0.501085 66.3047C-0.910244 66.4507 -1.28128 66.6849 -1.58711 66.9905C-6.51769 72.2335 -10.6925 78.1231 -13.9931 84.4929C-17.4617 91.8985 -19.648 99.8261 -20.4616 107.946C-22.3985 124.206 -19.0798 140.655 -10.98 154.94C-4.52363 166.007 4.87517 175.119 16.1992 181.289C27.5233 187.459 40.3411 190.453 53.2641 189.945C68.5922 188.816 83.0969 182.655 94.4687 172.442C105.849 162.336 113.931 149.115 117.685 134.462C119.109 128.73 119.882 122.86 119.989 116.96C120.182 106.353 117.813 95.853 113.078 86.3305ZM72.8472 149.864C72.3486 153.404 71.0716 156.794 69.1061 159.795C67.1406 162.797 64.5342 165.337 61.4693 167.239C58.4044 169.14 54.9553 170.355 51.3641 170.801C47.773 171.246 44.1265 170.91 40.6807 169.817C37.0374 168.677 33.7179 166.704 30.9925 164.058C28.2671 161.412 26.213 158.168 24.9967 154.59C23.6536 150.749 23.3722 146.623 24.1822 142.639C24.9921 138.654 26.8639 134.956 29.6042 131.924C29.7909 131.749 30.016 131.619 30.2618 131.543C30.5076 131.467 30.7678 131.448 31.0223 131.487C34.4123 132.327 37.8428 132.999 41.3011 133.499C40.6611 131.279 40.3333 128.982 40.3265 126.674C40.2386 125.538 40.2386 124.396 40.3265 123.26C40.8741 119.603 42.271 116.12 44.4077 113.083C46.5444 110.047 49.3633 107.54 52.6438 105.758C52.8162 105.674 53.0051 105.627 53.1976 105.622C53.3901 105.617 53.5815 105.653 53.7585 105.727C53.9354 105.802 54.0937 105.914 54.2225 106.056C54.3513 106.197 54.4473 106.364 54.5043 106.546C56.2007 112.44 58.6736 118.089 61.8593 123.348C63.2248 125.862 64.7957 128.262 66.556 130.524L68.151 132.537C70.9662 136.543 72.4523 141.313 72.4042 146.189C72.6598 147.399 72.8079 148.629 72.8472 149.864Z" fill="#FC9230"/>
</g>
</svg>
