<svg width="93" height="56" viewBox="0 0 93 56" fill="none" xmlns="http://www.w3.org/2000/svg">
<g clip-path="url(#clip0_437_14766)">
<path d="M0.607106 32.6733C0.607106 22.2504 0.631284 11.8275 0.589844 1.40806C0.589844 0.287171 0.869558 -0.00671895 2.00915 0.00011574C11.9409 0.0616279 21.8692 0.0513767 31.7975 0.0650461C31.8252 2.21797 31.8505 4.36975 31.8735 6.5204C31.8493 6.57166 31.8252 6.61951 31.7975 6.66736C30.8962 6.65027 29.9915 6.66735 29.0901 6.60584C28.32 6.55116 28.1508 6.8929 28.175 7.57637C28.2164 8.81003 28.1301 10.0505 28.2026 11.2808C28.2613 12.2 28.03 12.593 27.0112 12.5178C25.8129 12.429 24.5939 12.5452 23.399 12.4802C22.5323 12.4358 22.1524 12.658 22.2249 13.5943C22.3044 14.6195 22.2249 15.6447 22.2491 16.6699C22.2733 17.6951 21.7863 19.1065 22.4356 19.7455C23.1262 20.4495 24.5525 19.9574 25.6575 19.9745C28.1854 20.0087 28.1853 19.9745 28.1853 22.5136C28.1853 26.0061 28.1854 26.0061 31.8182 25.825V25.8899C31.8182 28.1681 31.8182 30.4464 31.8182 32.7246L1.1251 32.7485C0.950849 32.7357 0.777742 32.7106 0.607106 32.6733Z" fill="#FEFEFE"/>
<path d="M31.8733 6.5199C31.8503 4.36926 31.825 2.21748 31.7974 0.0645489L62.5527 0.0337941C62.8393 0.0337941 63.1674 -0.0413908 63.3573 0.286674C63.3573 2.12748 63.3573 3.96944 63.3573 5.81252C63.3573 6.49599 63.3297 7.17946 63.3262 7.86293L63.3055 32.789C56.1203 32.789 48.9328 32.7799 41.7429 32.7617C38.4312 32.7617 35.116 32.7993 31.8043 32.8198V32.7241C31.8043 30.4459 31.8043 28.1676 31.8043 25.8894C32.8403 25.8894 33.8763 25.8347 34.9123 25.8894C35.6444 25.9236 35.8965 25.6707 35.8757 24.9462C35.8308 23.5793 35.8757 22.2123 35.8516 20.8454C35.8516 20.1859 36.0657 19.9501 36.7425 19.9672C38.1239 20.0082 39.5052 19.9672 40.8865 19.9911C41.5047 19.9911 41.8431 19.8851 41.8293 19.1641C41.7947 17.2059 41.8016 15.2444 41.8293 13.2863C41.8293 12.6028 41.5599 12.3909 40.9072 12.4012C39.5259 12.4285 38.1446 12.4012 36.7632 12.4012C36.1037 12.4012 35.8378 12.1859 35.855 11.5161C35.8896 10.2414 35.8205 8.95989 35.8792 7.68522C35.9172 6.81721 35.6685 6.43105 34.7292 6.4994C33.7899 6.56775 32.8196 6.52332 31.8733 6.5199Z" fill="#DFDFDF"/>
<path d="M63.3022 32.7861L63.3229 7.85997C63.3229 7.1765 63.3436 6.49304 63.354 5.80957L68.7999 5.76172C70.3711 5.78222 71.9459 5.88817 73.5068 5.79931C74.8018 5.72072 75.8239 5.94626 76.4075 7.19701C79.1702 11.5461 81.9329 15.8987 84.6955 20.2547C84.9687 20.6357 85.3605 20.9178 85.811 21.0578C87.6965 21.8711 89.5647 22.7323 91.4709 23.4943C92.21 23.7882 92.5069 24.1402 92.5069 24.9706C92.4724 31.4317 92.4724 37.8939 92.5069 44.3572C92.5069 45.2286 92.2997 45.5738 91.3673 45.5123C90.2105 45.4371 89.0467 45.4952 87.8864 45.4952C87.8173 45.0783 87.7414 44.6579 87.6792 44.2376C87.4716 42.7911 86.9528 41.4055 86.1578 40.1745C85.3628 38.9434 84.31 37.8955 83.0707 37.1016C81.8314 36.3076 80.4343 35.786 78.9738 35.5721C77.5134 35.3583 76.0235 35.457 74.6049 35.8617C70.3435 37.0509 67.6776 40.4683 67.0974 45.4918L63.3333 45.4747L63.2607 37.7959C63.2769 36.1282 63.2907 34.4583 63.3022 32.7861ZM80.1164 20.7399C77.8821 17.08 75.7963 13.6695 73.7174 10.2555C73.6257 10.088 73.4869 9.95031 73.3177 9.85932C73.1485 9.76833 72.9563 9.72789 72.7643 9.74293C70.8719 9.74293 68.9656 9.74293 67.0905 9.74293C66.5207 9.74293 66.2064 9.88645 66.2099 10.5255C66.226 13.674 66.226 16.8214 66.2099 19.9676C66.2099 20.6032 66.5172 20.7502 67.087 20.7502C71.3381 20.7331 75.5891 20.7399 80.1164 20.7399Z" fill="#FDFDFD"/>
<path d="M0.607291 32.6729C0.774604 32.7085 0.944242 32.7325 1.11494 32.7446L31.8081 32.7207V32.8164C31.8081 34.4111 31.8081 36.0184 31.8081 37.6383L23.0401 37.7169L22.6948 37.6758C21.5068 36.9104 20.3016 36.1756 18.8961 35.8305C15.5084 35.0001 12.4384 35.7245 9.62048 37.6827L0.641837 37.7032C0.480122 36.0307 0.468553 34.3473 0.607291 32.6729Z" fill="#F78888"/>
<path d="M0.620784 37.7036L9.59943 37.6797C7.32551 39.6856 5.93381 42.4914 5.72133 45.4986L0.789994 45.5293C0.392862 43.3935 0.714021 41.2406 0.617328 39.0979C0.593155 38.6331 0.617331 38.1684 0.620784 37.7036Z" fill="#FDFAFA"/>
<path d="M68.7999 5.76511L63.354 5.81296C63.354 3.96987 63.354 2.12792 63.354 0.287109C65.4467 1.84542 67.3461 3.58485 68.7999 5.76511Z" fill="#D03135"/>
<path d="M67.0903 45.4955C67.6705 40.472 70.3365 37.0546 74.5979 35.8654C76.0165 35.4607 77.5063 35.362 78.9668 35.5758C80.4272 35.7897 81.8243 36.3113 83.0636 37.1052C84.303 37.8992 85.3557 38.9471 86.1507 40.1782C86.9458 41.4092 87.4646 42.7948 87.6721 44.2413C87.7343 44.6616 87.8103 45.0819 87.8793 45.4989C87.3752 51.3938 84.1877 55.0025 78.7384 55.8534C73.1405 56.7248 67.5185 52.2413 67.1801 46.6266C67.1559 46.2575 67.1318 45.8884 67.0903 45.4955ZM77.4917 41.1759C74.6911 41.1759 72.8608 42.9564 72.8608 45.6868C72.8608 48.3079 74.8948 50.4062 77.4296 50.3925C79.9643 50.3788 82.2332 48.1063 82.171 45.6082C82.1157 43.4348 80.1301 40.8923 77.4917 41.1759Z" fill="#313131"/>
<path d="M5.72119 45.4989C5.93543 42.4942 7.32698 39.6911 9.59929 37.6869C12.4172 35.7322 15.4872 35.0077 18.8749 35.8381C20.2562 36.1798 21.4787 36.918 22.6736 37.6835L22.9844 37.9329C25.1191 39.8956 26.3953 42.6054 26.5413 45.4853C26.4411 48.595 25.4362 51.3255 22.9913 53.3793C19.9316 55.9492 16.43 56.7181 12.6589 55.3204C8.81883 53.8953 6.52927 51.0965 5.93875 47.0196C5.85933 46.5105 5.79371 46.0047 5.72119 45.4989ZM16.1364 50.3857C18.609 50.4028 20.8364 48.2396 20.902 45.7518C20.9676 43.264 18.8024 41.1076 16.2504 41.029C13.6984 40.9504 11.471 43.1239 11.4157 45.7074C11.3639 48.0927 13.6604 50.3686 16.1364 50.3857Z" fill="#5A5959"/>
<path d="M63.264 37.7959L63.3365 45.4747C62.2211 45.4952 61.1057 45.5362 59.9937 45.5362H33.5826C33.0681 45.5362 32.5467 45.4952 32.0425 45.4712C32.0425 42.9333 32.0482 40.3942 32.0597 37.854C32.6192 37.854 33.1786 37.813 33.7346 37.813L63.264 37.7959Z" fill="#E0DFDF"/>
<path d="M32.0598 37.854C32.0598 40.3919 32.054 42.931 32.0425 45.4712H26.5345C26.3885 42.5913 25.1123 39.8816 22.9775 37.9189C23.0141 37.8557 23.0309 37.7831 23.0259 37.7104L31.7939 37.6318L32.0598 37.854Z" fill="#FDFDFD"/>
<path d="M31.8737 6.52046C32.8199 6.52046 33.7695 6.57856 34.7123 6.52046C35.655 6.46237 35.9002 6.83828 35.8622 7.70628C35.8035 8.98095 35.8622 10.2625 35.8381 11.5371C35.8381 12.2206 36.0867 12.4393 36.7463 12.4222C38.1276 12.3949 39.5089 12.4222 40.8903 12.4222C41.543 12.4222 41.8192 12.6341 41.8123 13.3073C41.7847 15.2654 41.7778 17.227 41.8123 19.1851C41.8123 19.9062 41.4877 20.0258 40.8696 20.0121C39.4882 19.9814 38.1069 20.0292 36.7256 19.9882C36.0349 19.9711 35.8173 20.2069 35.8346 20.8665C35.8726 22.2334 35.8139 23.6003 35.8588 24.9673C35.8795 25.6918 35.6274 25.9446 34.8953 25.9105C33.8593 25.8626 32.8233 25.9105 31.7873 25.9105V25.8455L31.7666 6.70842C31.8253 6.61957 31.8495 6.58881 31.8737 6.52046Z" fill="#D1363A"/>
<path d="M31.7973 6.6668L31.818 25.8039C28.1851 25.985 28.1851 25.985 28.1851 22.4925C28.1851 19.9637 28.1851 19.9876 25.6573 19.9534C24.5522 19.9363 23.1398 20.4284 22.4353 19.7245C21.7861 19.082 22.2799 17.7014 22.2488 16.6489C22.2177 15.5963 22.3041 14.5984 22.2247 13.5732C22.1521 12.6369 22.532 12.4148 23.3988 12.4592C24.6005 12.5241 25.8161 12.4079 27.011 12.4968C28.0297 12.572 28.2611 12.179 28.2024 11.2597C28.1298 10.0295 28.2024 8.78896 28.1747 7.5553C28.1505 6.87183 28.3198 6.5301 29.0899 6.58478C29.9912 6.67021 30.8959 6.64971 31.7973 6.6668Z" fill="#EB5353"/>
<path d="M32.0599 37.854L31.7939 37.6388C31.7939 36.028 31.7939 34.4208 31.7939 32.8169C35.1057 32.7964 38.4209 32.7588 41.7326 32.7588C48.9178 32.7588 56.1054 32.7679 63.2952 32.7861C63.2814 34.4561 63.2687 36.126 63.2572 37.796L33.7278 37.813C33.1787 37.813 32.6193 37.8404 32.0599 37.854Z" fill="#E17B7B"/>
<path d="M80.1165 20.7398C75.5892 20.7398 71.3382 20.7398 67.0871 20.7398C66.5173 20.7398 66.2065 20.5929 66.21 19.9572C66.2261 16.811 66.2261 13.6636 66.21 10.5151C66.21 9.87608 66.5208 9.72914 67.0906 9.73256C68.9796 9.73256 70.8892 9.73256 72.7644 9.73256C72.9564 9.71752 73.1486 9.75796 73.3178 9.84895C73.487 9.93994 73.6258 10.0776 73.7175 10.2452C75.7964 13.6693 77.8822 17.0798 80.1165 20.7398Z" fill="#69B6F2"/>
<path d="M23.0262 37.7168C23.0312 37.7895 23.0144 37.862 22.9778 37.9253L22.667 37.6758L23.0262 37.7168Z" fill="#E0DFDF"/>
<path d="M77.4917 41.1751C80.1266 40.8915 82.1123 43.434 82.171 45.6176C82.2331 48.102 79.9574 50.3746 77.4296 50.4019C74.9017 50.4293 72.8608 48.3173 72.8608 45.6962C72.8643 42.9555 74.6945 41.1751 77.4917 41.1751Z" fill="#585858"/>
<path d="M16.1366 50.3853C13.6606 50.3853 11.3641 48.0923 11.4159 45.707C11.4712 43.1234 13.7193 40.9466 16.2506 41.0286C18.7818 41.1106 20.9678 43.308 20.9022 45.7514C20.8366 48.1948 18.6092 50.4024 16.1366 50.3853Z" fill="#959595"/>
</g>
<defs>
<clipPath id="clip0_437_14766">
<rect width="92" height="56" fill="white" transform="translate(0.5)"/>
</clipPath>
</defs>
</svg>
