<svg width="30" height="48" viewBox="0 0 30 48" fill="none" xmlns="http://www.w3.org/2000/svg">
<path d="M25.9867 0.788086C26.3086 0.883201 26.6379 0.958806 26.9499 1.07831C28.5927 1.70753 29.5547 3.15133 29.5584 5.00486C29.5641 8.3664 29.5641 11.7279 29.5584 15.0895V38.7109H0.379133C0.371733 38.5561 0.356934 38.3939 0.356934 38.2305C0.356934 27.189 0.356934 16.1467 0.356934 5.10363C0.356934 2.81599 1.54092 1.36244 3.79668 0.852719C3.84059 0.83686 3.88208 0.81511 3.92001 0.788086H25.9867ZM8.65968 26.0814C8.65847 26.133 8.6527 26.1844 8.64241 26.235C8.29832 26.9484 7.93572 27.6532 7.61752 28.3763C7.49232 28.6327 7.44396 28.9192 7.47815 29.2019C7.63479 29.964 8.45248 30.1945 9.14684 29.6896C10.6848 28.5751 12.2092 27.441 13.7545 26.3362C13.9753 26.1847 14.2358 26.0999 14.5044 26.0923C17.0734 26.0753 19.6437 26.0923 22.2139 26.0789C23.52 26.0789 24.5042 25.1131 24.5067 23.834C24.5165 20.4879 24.5165 17.1414 24.5067 13.7945C24.5067 12.5226 23.5472 11.5605 22.2596 11.558C17.3822 11.5475 12.504 11.5475 7.62492 11.558C7.33478 11.5545 7.04681 11.6079 6.7777 11.7152C6.50859 11.8225 6.2637 11.9815 6.05721 12.1831C5.85071 12.3846 5.68674 12.6247 5.57477 12.8894C5.4628 13.154 5.40508 13.4381 5.40493 13.725C5.38767 17.1174 5.38767 20.5098 5.40493 23.9023C5.41268 24.4804 5.6496 25.0325 6.06474 25.4398C6.47989 25.8471 7.0401 26.077 7.62492 26.0802C7.95915 26.0875 8.29708 26.0814 8.65968 26.0814ZM14.9496 5.88894C15.5799 5.88894 16.2101 5.89503 16.8403 5.88894C17.5581 5.87918 17.959 5.52311 17.9614 4.89998C17.9639 4.27686 17.5606 3.91225 16.8514 3.90737C15.5926 3.90006 14.3326 3.90006 13.0713 3.90737C12.3535 3.90737 11.9502 4.2732 11.949 4.89389C11.9477 5.51457 12.3498 5.87796 13.0651 5.88894C13.6916 5.89625 14.3219 5.88894 14.9509 5.88894H14.9496Z" fill="white"/>
<path d="M0.376788 40.7725H29.6066C29.5585 41.9553 29.635 43.1247 29.4376 44.249C29.1022 46.1635 27.3484 47.5208 25.3825 47.5244C18.4282 47.5342 11.4738 47.5342 4.51953 47.5244C3.46093 47.525 2.44245 47.124 1.67399 46.4041C0.905533 45.6843 0.445648 44.7003 0.389118 43.6552C0.328686 42.7052 0.376788 41.748 0.376788 40.7725ZM14.93 44.071C16.0203 44.071 17.1105 44.071 18.2008 44.071C18.9063 44.071 19.3219 43.7052 19.3281 43.0955C19.3342 42.4857 18.9198 42.0882 18.2181 42.0858C16.0376 42.0768 13.8566 42.0768 11.6753 42.0858C10.9797 42.0858 10.5653 42.4906 10.5653 43.0991C10.5653 43.7076 10.992 44.0747 11.6975 44.0747C12.784 44.0771 13.8595 44.0734 14.9337 44.0734L14.93 44.071Z" fill="white"/>
<path d="M11.3111 25.2975V25.2853C11.334 25.1368 11.3242 24.9851 11.2824 24.8406C11.2406 24.6962 11.1677 24.5624 11.0687 24.4483C10.9698 24.3343 10.8471 24.2427 10.7091 24.1799C10.5711 24.117 10.4209 24.0844 10.269 24.0842C9.47594 24.0683 8.68168 24.0671 7.88865 24.0842C7.51865 24.0939 7.41382 23.9549 7.41505 23.6037C7.42574 20.4105 7.42574 17.2172 7.41505 14.0239C7.41505 13.6715 7.51865 13.5447 7.88742 13.5459C12.5954 13.5548 17.3022 13.5548 22.0078 13.5459C22.3654 13.5459 22.4912 13.6532 22.49 14.0166C22.4785 17.2091 22.4785 20.4019 22.49 23.5952C22.49 23.9903 22.3408 24.0829 21.9757 24.0829C19.345 24.072 16.7143 24.0829 14.0824 24.0708C13.6198 24.0462 13.1647 24.1942 12.8071 24.4854C12.4125 24.8109 11.9932 25.106 11.5479 25.4304C11.5244 25.4457 11.497 25.4543 11.4689 25.4552C11.4408 25.4561 11.4129 25.4493 11.3884 25.4356C11.3639 25.4218 11.3437 25.4016 11.3301 25.3773C11.3165 25.3529 11.3099 25.3253 11.3111 25.2975ZM15.9768 17.8688C15.9768 17.5932 15.9768 17.381 15.9768 17.1737C15.9777 16.7635 15.9563 16.3536 15.9127 15.9457C15.8325 15.3946 15.502 15.1263 14.9827 15.1177C14.4364 15.108 14.0861 15.3616 13.9961 15.9311C13.944 16.3376 13.916 16.7469 13.9122 17.1566C13.9023 17.3786 13.9122 17.6017 13.9122 17.8566C13.6433 17.8566 13.4189 17.8468 13.1882 17.8566C12.817 17.8639 12.4465 17.8912 12.0783 17.9383C11.8342 17.9773 11.6139 18.1055 11.4609 18.2974C11.3079 18.4893 11.2333 18.7311 11.2519 18.9748C11.3037 19.5138 11.6466 19.8284 12.3175 19.8613C12.8343 19.8906 13.3547 19.8674 13.9097 19.8674C13.9097 20.1271 13.9011 20.3369 13.9097 20.5454C13.9146 20.9534 13.9455 21.3607 14.0022 21.7648C14.0997 22.2989 14.4536 22.5489 14.9889 22.5379C15.4909 22.5282 15.8226 22.2733 15.904 21.7478C15.9524 21.3255 15.9755 20.9008 15.9731 20.4759C15.9805 20.2844 15.9731 20.0918 15.9731 19.8662C16.5528 19.8662 17.0905 19.8906 17.6245 19.8589C18.2412 19.8223 18.5705 19.543 18.6568 19.0614C18.7801 18.3968 18.3583 17.9322 17.5394 17.8736C17.0313 17.8395 16.5232 17.8688 15.9768 17.8688Z" fill="white"/>
</svg>
