<svg width="177" height="176" viewBox="0 0 177 176" fill="none" xmlns="http://www.w3.org/2000/svg">
    <defs>
        <filter id="filter0_d_1594_6684" x="0.5" y="0" width="176" height="176" filterUnits="userSpaceOnUse" color-interpolation-filters="sRGB">
            <feFlood flood-opacity="0" result="BackgroundImageFix"/>
            <feColorMatrix in="SourceAlpha" type="matrix" values="0 0 0 0 0 0 0 0 0 0 0 0 0 0 0 0 0 0 127 0" result="hardAlpha"/>
            <feOffset dy="4"/>
            <feGaussianBlur stdDeviation="3.5"/>
            <feComposite in2="hardAlpha" operator="out"/>
            <feColorMatrix type="matrix" values="0 0 0 0 0.627431 0 0 0 0 0.685336 0 0 0 0 0.8125 0 0 0 0.29 0"/>
            <feBlend mode="normal" in2="BackgroundImageFix" result="effect1_dropShadow_1594_6684"/>
            <feBlend mode="normal" in="SourceGraphic" in2="effect1_dropShadow_1594_6684" result="shape"/>
        </filter>
        <filter id="filter1_d_1594_6684" x="0.5" y="0" width="176" height="176" filterUnits="userSpaceOnUse" color-interpolation-filters="sRGB">
            <feFlood flood-opacity="0" result="BackgroundImageFix"/>
            <feColorMatrix in="SourceAlpha" type="matrix" values="0 0 0 0 0 0 0 0 0 0 0 0 0 0 0 0 0 0 127 0" result="hardAlpha"/>
            <feOffset dy="4"/>
            <feGaussianBlur stdDeviation="3.5"/>
            <feComposite in2="hardAlpha" operator="out"/>
            <feColorMatrix type="matrix" values="0 0 0 0 0.627431 0 0 0 0 0.685336 0 0 0 0 0.8125 0 0 0 0.29 0"/>
            <feBlend mode="normal" in2="BackgroundImageFix" result="effect1_dropShadow_1594_6684"/>
            <feBlend mode="normal" in="SourceGraphic" in2="effect1_dropShadow_1594_6684" result="shape"/>
        </filter>
        <linearGradient id="paint0_linear_1594_6684" x1="175.847" y1="165" x2="-3.80278" y2="11.2634" gradientUnits="userSpaceOnUse">
            <stop stop-color="#FFA800"/>
            <stop offset="1" stop-color="#FFDB20"/>
        </linearGradient>
        <clipPath id="clip0_1594_6684">
            <rect width="102" height="82" fill="white" transform="matrix(-1 0 0 1 139 43)"/>
        </clipPath>
    </defs>
<g filter="url(#filter0_d_1594_6684)">
<g filter="url(#filter1_d_1594_6684)">
<circle cx="88.5" cy="84" r="81" fill="url(#paint0_linear_1594_6684)"/>
</g>
<g clip-path="url(#clip0_1594_6684)">
<path d="M37.0401 90.1278C37.0401 97.9964 37.0401 105.865 37.0054 113.734C37.0054 114.451 37.2595 114.556 37.8717 114.547C40.4703 114.518 43.043 114.547 45.6301 114.547C45.7138 113.827 45.76 113.09 45.8928 112.39C46.889 107.01 52.4212 103.213 57.7311 104.248C62.8909 105.247 66.0671 109.013 66.4251 114.547L75.0093 114.526L75.0439 107.585C75.0439 101.756 75.0362 95.9273 75.0209 90.0986C74.299 90.0986 73.5772 90.1219 72.8611 90.1219L37.0401 90.1278Z" fill="#FF7C7A"/>
<path d="M130.136 72.7058C128.403 70.0829 125.978 69.0833 122.874 69.1357C116.481 69.2465 110.083 69.1853 103.684 69.1357C102.879 69.1357 102.671 69.3339 102.679 70.1499C102.714 73.8132 102.679 77.4765 102.679 81.1398C102.702 82.4512 102.812 83.7627 102.561 85.0683C102.809 85.4267 102.705 85.8406 102.705 86.234C102.705 89.9255 102.705 93.6169 102.705 97.3084C105.134 97.0519 107.553 96.9033 109.967 97.5037C113.55 98.3984 116.608 100.127 119.065 102.948C120.292 104.349 121.199 105.938 122.094 107.546H130.338C130.338 106.171 130.323 104.798 130.369 103.426C130.398 102.502 129.965 101.348 130.589 100.718C131.126 100.173 132.232 100.622 133.081 100.535H133.188C132.479 92.73 131.77 84.9255 131.059 77.121C131.031 76.7946 131.031 76.4681 131.019 76.1417C131.117 74.9061 130.522 73.8307 130.136 72.7058ZM118.364 90.1042C115.765 90.1042 113.166 90.0663 110.588 90.1275C109.753 90.145 109.586 89.8827 109.595 89.09C109.635 85.0936 109.635 81.098 109.595 77.1035C109.595 76.3516 109.768 76.1213 110.539 76.1301C114.292 76.1709 118.026 76.1301 121.768 76.1505C124.046 76.1505 125.34 77.392 125.608 79.6972C125.981 82.868 126.362 86.0388 126.803 89.1979C126.905 89.941 126.763 90.1304 126.027 90.1188C123.474 90.0809 120.916 90.1042 118.364 90.1042Z" fill="#FF7C7A"/>
<path d="M102.7 97.3164C102.7 93.6249 102.7 89.9335 102.7 86.242C102.7 85.8544 102.804 85.4406 102.556 85.0763C101.591 89.2991 99.062 92.0444 94.9388 93.2713C92.9032 93.8746 90.8964 93.5627 88.8753 93.1198C88.8753 93.2771 88.8551 93.4345 88.8435 93.5919C88.8435 95.6902 88.8435 97.7885 88.8868 99.8868C88.8868 100.397 88.7396 100.583 88.2198 100.575C86.3546 100.551 84.4903 100.551 82.6269 100.575C82.1043 100.575 81.9484 100.397 81.9571 99.8868C81.9888 97.7885 81.9888 95.6902 82.0004 93.5919C82.0004 90.5377 82.0004 87.4845 82.0004 84.4322C81.7463 81.5354 82.4104 78.895 84.2035 76.5898C85.6472 74.7363 87.5731 73.6463 89.7213 72.8828C89.4239 72.6832 89.0644 72.6003 88.7107 72.6496L75.062 72.67L75.0187 76.1497V83.112L75.0418 90.0743C75.0418 95.9029 75.0495 101.732 75.0649 107.56H98.0081C99.3473 106.223 100.944 105.177 102.7 104.488V97.3164Z" fill="#C6312E"/>
<path d="M57.7602 62.2059H113.894C117.887 62.2059 121.883 62.1855 125.877 62.2234C126.642 62.2234 126.948 62.101 126.905 61.2383C126.822 59.6414 126.822 58.0412 126.905 56.4443C126.954 55.468 126.691 55.0425 125.692 55.2232C125.513 55.2326 125.334 55.2219 125.158 55.1911H52.586L52.1442 55.2611C56.3165 56.4443 57.7602 59.5305 57.7602 62.2059Z" fill="#A72A27"/>
<path d="M121.707 55.1768H125.172C125.172 52.927 125.172 50.6752 125.172 48.4215C125.19 47.7046 125.063 46.9915 124.799 46.3257C124.536 45.6599 124.14 45.0551 123.638 44.5483C123.135 44.0415 122.536 43.6433 121.876 43.3777C121.216 43.1122 120.509 42.985 119.799 43.0038H44.1202C41.0394 43.0038 38.7612 45.309 38.7583 48.4215C38.7583 50.6752 38.7583 52.927 38.7583 55.1768H42.2232C42.2232 52.9416 42.2232 50.7034 42.2232 48.4739C42.2232 47.1217 42.844 46.5126 44.201 46.5039C45.844 46.5039 47.4898 46.5039 49.1327 46.5039H114.798C116.441 46.5039 118.087 46.5039 119.729 46.5039C121.087 46.5039 121.702 47.1188 121.707 48.4739C121.719 50.7034 121.707 52.9416 121.707 55.1768Z" fill="#FCFEFF"/>
<path d="M89.7125 72.8892C87.5643 73.6527 85.6326 74.7426 84.1947 76.5961C82.4016 78.9276 81.7375 81.5505 81.9916 84.4386C82.4767 86.9274 83.4844 89.1015 85.3727 90.8763C86.4238 91.8584 87.7231 92.3334 88.8694 93.1261C90.8905 93.5749 92.8973 93.8809 94.9329 93.2777C99.0561 92.0508 101.574 89.3055 102.55 85.0826C102.801 83.7799 102.691 82.4598 102.668 81.1542C102.122 79.4726 101.548 77.8202 100.358 76.43C98.4151 74.1365 96.007 72.8163 93.0128 72.6677C91.9185 72.6152 90.801 72.5715 89.7125 72.8892ZM92.3111 86.6156C91.8518 86.6177 91.3968 86.5266 90.9731 86.3476C90.5494 86.1686 90.1658 85.9054 89.8449 85.5737C89.5241 85.242 89.2726 84.8485 89.1055 84.4166C88.9384 83.9848 88.8591 83.5235 88.8723 83.0601C88.8991 82.1482 89.2751 81.2823 89.9212 80.6443C90.5673 80.0063 91.4333 79.6458 92.3371 79.6387C92.7963 79.6362 93.2513 79.7269 93.6749 79.9056C94.0986 80.0843 94.4823 80.3472 94.8032 80.6787C95.1241 81.0102 95.3756 81.4035 95.5427 81.8351C95.7099 82.2668 95.7892 82.728 95.776 83.1913C95.7485 84.1027 95.3728 84.9681 94.7275 85.6063C94.0822 86.2445 93.2174 86.6062 92.314 86.6156H92.3111Z" fill="#F1F1F1"/>
<path d="M102.699 104.496C100.944 105.185 99.3465 106.231 98.0073 107.568C96.4712 109.643 95.5068 111.94 95.478 114.562C95.6628 118.558 97.3548 121.691 100.834 123.673C107.186 127.286 115.193 123.212 116.123 115.941C116.183 115.475 116.244 115.005 116.308 114.539C116.244 114.146 116.16 113.755 116.12 113.373C115.724 109.64 113.778 106.962 110.55 105.231C108.055 103.867 105.402 103.782 102.699 104.496ZM102.442 114.501C102.444 113.583 102.806 112.703 103.45 112.054C104.093 111.405 104.966 111.04 105.875 111.039C106.35 111.009 106.826 111.078 107.273 111.241C107.72 111.405 108.129 111.659 108.474 111.989C108.82 112.319 109.094 112.717 109.281 113.159C109.467 113.6 109.561 114.076 109.558 114.556C109.554 115.036 109.453 115.51 109.26 115.948C109.067 116.387 108.786 116.781 108.436 117.105C108.086 117.43 107.673 117.678 107.224 117.835C106.774 117.992 106.298 118.053 105.823 118.016C104.914 118.001 104.047 117.622 103.414 116.963C102.78 116.305 102.431 115.419 102.442 114.501Z" fill="#616669"/>
<path d="M66.4229 114.532C66.0648 108.995 62.8887 105.232 57.7289 104.233C52.4103 103.198 46.8781 106.996 45.8906 112.375C45.7578 113.087 45.7116 113.812 45.6279 114.532C45.9166 119.306 48.1428 122.739 52.6558 124.388C59.008 126.72 65.9031 122.106 66.3795 115.293L66.4229 114.532ZM52.5634 114.494C52.5685 113.804 52.7757 113.131 53.1589 112.56C53.5421 111.989 54.0842 111.544 54.7169 111.283C55.3496 111.022 56.0447 110.956 56.7147 111.093C57.3847 111.229 57.9997 111.563 58.4822 112.052C58.9648 112.54 59.2933 113.162 59.4266 113.839C59.5598 114.516 59.4917 115.217 59.2309 115.855C58.9702 116.492 58.5283 117.038 57.961 117.423C57.3937 117.808 56.7262 118.015 56.0427 118.018C55.585 118.017 55.132 117.925 54.7094 117.748C54.2869 117.57 53.9031 117.31 53.58 116.983C53.257 116.656 53.0009 116.268 52.8264 115.841C52.652 115.414 52.5626 114.956 52.5634 114.494Z" fill="#616669"/>
<path d="M75.0098 76.1565L75.0531 72.6768C75.0531 71.8025 74.9982 70.9282 75.0531 70.0539C75.1079 69.1796 74.6604 69.1446 74.0021 69.1475C69.0126 69.1621 64.0232 69.1475 59.0338 69.1475C58.6007 69.1475 58.1676 69.1475 57.7403 69.1475H43.9472C41.9722 69.1475 39.9972 69.1912 38.0223 69.1475C37.1994 69.1271 36.9741 69.4069 37.0001 70.2054C37.055 71.7995 37.0637 73.4112 37.0001 74.9907C36.9655 75.865 37.1994 76.1827 38.1233 76.1565C41.2099 76.0982 44.2995 76.1331 47.389 76.1331H68.132L75.0098 76.1565Z" fill="#F1F1F1"/>
<path d="M75.0332 90.0814L75.0101 83.1191H68.1323H47.3951C44.2738 83.1191 41.1554 83.1453 38.0342 83.1016C37.2228 83.1016 36.9831 83.3405 37.0062 84.1478C37.064 86.1383 37.0351 88.1287 37.0409 90.1192L72.8734 90.0959C73.5924 90.1047 74.3114 90.0901 75.0332 90.0814Z" fill="#F1F1F1"/>
<path d="M102.699 104.497C105.402 103.783 108.055 103.868 110.55 105.206C113.778 106.937 115.724 109.615 116.12 113.348C116.16 113.745 116.244 114.135 116.308 114.514L123.413 114.496C123.535 112.069 122.804 109.804 122.088 107.54C121.193 105.931 120.286 104.334 119.059 102.941C116.593 100.129 113.544 98.392 109.961 97.4973C107.547 96.897 105.128 97.0456 102.699 97.302V104.497Z" fill="#A72A27"/>
<path d="M43.9525 69.1629H57.7455C57.7571 66.8431 57.7667 64.5243 57.7744 62.2065C57.7513 59.5311 56.3163 56.4449 52.144 55.25H49.7561C45.6907 56.1768 44.0506 59.1785 43.9236 62.2036C43.9313 64.5253 43.9409 66.8451 43.9525 69.1629ZM50.8678 63.9317C50.5232 63.9375 50.1848 63.8395 49.8958 63.6501C49.6067 63.4607 49.3802 63.1887 49.2451 62.8687C49.1101 62.5487 49.0727 62.1953 49.1376 61.8537C49.2026 61.5122 49.367 61.1979 49.6098 60.9511C49.8527 60.7044 50.1629 60.5363 50.5009 60.4684C50.8389 60.4005 51.1892 60.436 51.5071 60.5701C51.8251 60.7042 52.0962 60.931 52.2857 61.2215C52.4753 61.5119 52.5747 61.8529 52.5713 62.2006C52.5669 62.6564 52.3863 63.0923 52.0681 63.4156C51.7499 63.739 51.3192 63.9242 50.8678 63.9317Z" fill="#EA423F"/>
<path d="M95.4785 114.552C95.5073 111.929 96.4717 109.644 98.0078 107.558H75.0559L75.0213 114.499L95.4785 114.552Z" fill="#F1F1F1"/>
<path d="M133.182 100.553H133.075C132.226 100.641 131.12 100.192 130.583 100.737C129.96 101.366 130.393 102.52 130.364 103.444C130.318 104.817 130.338 106.19 130.332 107.565C130.346 109.879 130.361 112.194 130.378 114.51C132.423 114.51 134.47 114.495 136.511 114.539C137.138 114.539 137.282 114.341 137.279 113.743C137.253 109.614 137.245 105.484 137.279 101.358C137.279 100.626 137.008 100.536 136.413 100.556C135.336 100.597 134.259 100.559 133.182 100.553Z" fill="#A72A27"/>
<path d="M43.9243 62.2051C44.0513 59.1801 45.6914 56.1783 49.7568 55.2516L49.1158 55.1787H38.7472C37.0148 55.272 37.0148 55.272 37.0148 57.0759C37.0148 58.5331 37.0437 59.9902 37.0003 61.4212C36.983 62.0419 37.1649 62.2197 37.7799 62.208C39.8329 62.1731 41.88 62.2022 43.9243 62.2051Z" fill="#A72A27"/>
<path d="M130.378 114.514C130.363 112.196 130.347 109.881 130.332 107.569H122.088C122.804 109.834 123.532 112.098 123.414 114.526L130.378 114.514Z" fill="#F1F1F1"/>
<path d="M130.136 72.7059C130.534 73.8308 131.117 74.9062 131.002 76.1594C132.223 76.1594 133.45 76.2002 134.669 76.1302C135.414 76.0894 135.564 76.3721 135.535 77.0512C135.486 78.3947 135.509 79.7382 135.535 81.0817C135.549 82.3523 136.234 83.1217 137.285 83.1217C138.336 83.1217 138.98 82.329 138.985 81.0379C138.985 78.8959 139.003 76.751 138.985 74.609C138.985 73.3675 138.336 72.6797 137.146 72.6739C134.81 72.6535 132.474 72.6914 130.136 72.7059Z" fill="#A72A27"/>
<path d="M50.848 84.57C48.1482 84.57 45.9596 82.361 45.9596 79.6361C45.9596 76.9111 48.1482 74.7021 50.848 74.7021C53.5477 74.7021 55.7363 76.9111 55.7363 79.6361C55.7363 82.361 53.5477 84.57 50.848 84.57Z" fill="#B5B8B9"/>
<path d="M118.364 90.1039C120.916 90.1039 123.474 90.0806 126.027 90.1039C126.763 90.1039 126.893 89.9261 126.803 89.183C126.362 86.0239 125.98 82.8531 125.608 79.6823C125.339 77.3771 124.046 76.1415 121.768 76.1356C118.014 76.1356 114.281 76.156 110.539 76.1152C109.768 76.1152 109.589 76.3367 109.595 77.0886C109.631 81.0851 109.631 85.0806 109.595 89.0752C109.595 89.8679 109.753 90.1302 110.588 90.1127C113.178 90.0661 115.771 90.1039 118.364 90.1039Z" fill="#F1F1F1"/>
<path d="M81.9941 93.5986C81.9941 95.6969 81.9941 97.7952 81.9508 99.8935C81.9508 100.404 82.098 100.59 82.6207 100.581C84.4821 100.556 86.3464 100.556 88.2135 100.581C88.7333 100.581 88.8892 100.404 88.8805 99.8935C88.8488 97.7952 88.8488 95.6969 88.8372 93.5986H81.9941Z" fill="#60B7D0"/>
<path d="M81.9943 93.5992H88.8374C88.8374 93.4418 88.8576 93.2844 88.8691 93.127C87.7142 92.3489 86.4235 91.8593 85.3725 90.8772C83.4842 89.1053 82.4851 86.9283 81.9914 84.4395C81.9933 87.4937 81.9943 90.5469 81.9943 93.5992Z" fill="#B5B8B9"/>
<path d="M59.4931 46.4912C59.4931 49.3842 59.4931 52.28 59.4931 55.1788H62.958C62.958 52.2819 62.958 49.3861 62.958 46.4912H59.4931Z" fill="#F1F1F1"/>
<path d="M69.8613 46.4912V55.1788H73.3262V46.4912H69.8613Z" fill="#F1F1F1"/>
<path d="M100.97 46.4912C100.97 49.3842 100.97 52.28 100.97 55.1788H104.435V46.4912H100.97Z" fill="#F1F1F1"/>
<path d="M83.6953 55.1788C83.6953 52.2819 83.6953 49.3861 83.6953 46.4912H80.2304C80.2304 49.3842 80.2304 52.28 80.2304 55.1788H83.6953Z" fill="#F1F1F1"/>
<path d="M90.6015 46.4912V55.1788H94.0664V46.4912H90.6015Z" fill="#F1F1F1"/>
<path d="M52.5859 55.1788V46.4912H49.1211C49.1211 49.3842 49.1211 52.28 49.1211 55.1788L49.7621 55.2516H52.1499L52.5859 55.1788Z" fill="#F1F1F1"/>
<path d="M92.314 86.6156C93.2179 86.607 94.0834 86.2457 94.7293 85.6074C95.3752 84.9691 95.7513 84.1032 95.7789 83.1913C95.792 82.728 95.7127 82.2668 95.5456 81.8352C95.3784 81.4035 95.1269 81.0102 94.8061 80.6787C94.4852 80.3472 94.1015 80.0843 93.6778 79.9056C93.2541 79.727 92.7991 79.6362 92.34 79.6387C91.4361 79.6459 90.5702 80.0063 89.9241 80.6443C89.278 81.2823 88.902 82.1482 88.8751 83.0601C88.8619 83.5235 88.9413 83.9849 89.1084 84.4167C89.2754 84.8485 89.5269 85.242 89.8477 85.5737C90.1686 85.9054 90.5523 86.1686 90.976 86.3476C91.3997 86.5266 91.8547 86.6178 92.314 86.6156Z" fill="#B5B8B9"/>
<path d="M102.443 114.503C102.432 115.421 102.781 116.307 103.415 116.965C104.048 117.624 104.915 118.003 105.824 118.018C106.298 118.055 106.775 117.994 107.224 117.837C107.674 117.68 108.087 117.432 108.437 117.107C108.787 116.783 109.068 116.389 109.261 115.95C109.454 115.512 109.555 115.038 109.558 114.558C109.562 114.078 109.468 113.602 109.281 113.161C109.095 112.719 108.821 112.321 108.475 111.991C108.13 111.661 107.721 111.407 107.274 111.243C106.826 111.08 106.351 111.011 105.876 111.041C104.966 111.042 104.094 111.407 103.451 112.056C102.807 112.705 102.445 113.585 102.443 114.503Z" fill="#E6EBEE"/>
<path d="M52.5627 114.493C52.5541 115.187 52.75 115.867 53.1255 116.448C53.5009 117.029 54.039 117.484 54.6714 117.755C55.3037 118.027 56.0017 118.102 56.6766 117.972C57.3516 117.842 57.973 117.513 58.4619 117.026C58.9508 116.538 59.2851 115.915 59.4224 115.236C59.5596 114.556 59.4936 113.851 59.2326 113.209C58.9717 112.568 58.5277 112.019 57.957 111.633C57.3863 111.246 56.7147 111.04 56.0276 111.04C55.1172 111.044 54.2446 111.407 53.5968 112.053C52.9491 112.699 52.5778 113.575 52.5627 114.493Z" fill="#E6EBEE"/>
<path d="M64.6761 84.57C61.9763 84.57 59.7877 82.361 59.7877 79.6361C59.7877 76.9111 61.9763 74.7021 64.6761 74.7021C67.3759 74.7021 69.5645 76.9111 69.5645 79.6361C69.5645 82.361 67.3759 84.57 64.6761 84.57Z" fill="#B5B8B9"/>
<path d="M50.868 63.9308C51.2128 63.9306 51.5497 63.8266 51.8356 63.632C52.1215 63.4375 52.3434 63.1612 52.4729 62.8387C52.6023 62.5161 52.6335 62.1618 52.5623 61.8213C52.4911 61.4807 52.3209 61.1694 52.0734 60.9271C51.8259 60.6847 51.5124 60.5225 51.1729 60.461C50.8335 60.3996 50.4837 60.4418 50.1682 60.5822C49.8527 60.7227 49.5859 60.9549 49.4019 61.2493C49.2179 61.5437 49.1252 61.8868 49.1355 62.2346C49.149 62.6892 49.3375 63.1206 49.6609 63.4373C49.9844 63.754 50.4174 63.931 50.868 63.9308Z" fill="#E6EBEE"/>
</g>
</g>
</svg>
