<svg width="162" height="161" viewBox="0 0 162 161" fill="none" xmlns="http://www.w3.org/2000/svg">
<g filter="url(#filter0_d_1594_12325)">
<circle cx="81" cy="80.5" r="63" stroke="#FFCD6C" stroke-width="3"/>
<g clip-path="url(#clip0_1594_12325)">
<path d="M40.5346 90.2309C40.5346 96.9481 40.5346 103.665 40.5047 110.382C40.5047 110.994 40.724 111.084 41.2521 111.076C43.494 111.052 45.7136 111.076 47.9456 111.076C48.0178 110.462 48.0577 109.833 48.1723 109.235C49.0317 104.643 53.8046 101.401 58.3857 102.284C62.8373 103.138 65.5775 106.352 65.8864 111.076L73.2924 111.059L73.3223 105.133C73.3223 100.157 73.3156 95.1817 73.3023 90.2061C72.6796 90.2061 72.0568 90.2259 71.439 90.2259L40.5346 90.2309Z" fill="#FF7C7A"/>
<path d="M120.852 75.3588C119.358 73.1198 117.265 72.2665 114.587 72.3112C109.072 72.4058 103.552 72.3535 98.0315 72.3112C97.3365 72.3112 97.1571 72.4804 97.1646 73.177C97.1945 76.3042 97.1646 79.4314 97.1646 82.5586C97.1845 83.6781 97.2792 84.7976 97.0624 85.9122C97.2767 86.2182 97.187 86.5715 97.187 86.9073C97.187 90.0586 97.187 93.2098 97.187 96.3611C99.282 96.1421 101.37 96.0153 103.452 96.5278C106.543 97.2915 109.182 98.7668 111.301 101.175C112.36 102.372 113.142 103.728 113.915 105.101H121.027C121.027 103.927 121.014 102.755 121.054 101.583C121.079 100.794 120.705 99.8092 121.243 99.2718C121.707 98.8066 122.661 99.1897 123.393 99.1151H123.485C122.874 92.4527 122.262 85.7903 121.649 79.1279C121.625 78.8493 121.625 78.5706 121.615 78.292C121.699 77.2371 121.186 76.3191 120.852 75.3588ZM110.696 90.2112C108.454 90.2112 106.212 90.1788 103.988 90.2311C103.268 90.246 103.123 90.0221 103.131 89.3454C103.166 85.9338 103.166 82.5229 103.131 79.113C103.131 78.4711 103.28 78.2746 103.945 78.282C107.184 78.3169 110.405 78.282 113.633 78.2994C115.599 78.2994 116.715 79.3593 116.946 81.3271C117.268 84.0339 117.596 86.7406 117.978 89.4374C118.065 90.0718 117.943 90.2335 117.307 90.2236C115.105 90.1912 112.898 90.2112 110.696 90.2112Z" fill="#FF7C7A"/>
<path d="M97.1825 96.3677C97.1825 93.2164 97.1825 90.0652 97.1825 86.9139C97.1825 86.583 97.2722 86.2298 97.058 85.9188C96.226 89.5236 94.0438 91.8672 90.4865 92.9146C88.7303 93.4295 86.999 93.1633 85.2552 92.7852C85.2552 92.9195 85.2378 93.0539 85.2278 93.1882C85.2278 94.9794 85.2278 96.7707 85.2652 98.5619C85.2652 98.9973 85.1382 99.1565 84.6898 99.149C83.0805 99.1291 81.4721 99.1291 79.8645 99.149C79.4137 99.149 79.2791 98.9973 79.2866 98.5619C79.314 96.7707 79.314 94.9794 79.324 93.1882C79.324 90.581 79.324 87.9746 79.324 85.369C79.1048 82.8961 79.6777 80.6421 81.2247 78.6742C82.4702 77.092 84.1318 76.1615 85.9851 75.5097C85.7285 75.3394 85.4185 75.2686 85.1133 75.3107L73.3379 75.3281L73.3005 78.2986V84.242L73.3205 90.1854C73.3205 95.1611 73.3271 100.137 73.3404 105.112H93.1345C94.2899 103.971 95.6677 103.078 97.1825 102.49V96.3677Z" fill="#C6312E"/>
<path d="M58.4105 66.3949H106.84C110.285 66.3949 113.733 66.3775 117.178 66.4098C117.838 66.4098 118.102 66.3053 118.065 65.5689C117.994 64.2057 117.994 62.8397 118.065 61.4765C118.107 60.643 117.88 60.2798 117.018 60.4341C116.864 60.4421 116.71 60.4329 116.557 60.4067H53.9465L53.5654 60.4664C57.165 61.4765 58.4105 64.1111 58.4105 66.3949Z" fill="#A72A27"/>
<path d="M113.581 60.3952H116.57C116.57 58.4745 116.57 56.5523 116.57 54.6284C116.585 54.0164 116.476 53.4077 116.248 52.8393C116.021 52.2709 115.68 51.7547 115.246 51.322C114.812 50.8894 114.295 50.5494 113.726 50.3227C113.156 50.0961 112.547 49.9875 111.934 50.0035H46.6427C43.9847 50.0035 42.0192 51.9714 42.0167 54.6284C42.0167 56.5523 42.0167 58.4745 42.0167 60.3952H45.006C45.006 58.487 45.006 56.5763 45.006 54.6731C45.006 53.5188 45.5416 52.9989 46.7124 52.9914C48.1299 52.9914 49.5498 52.9914 50.9672 52.9914H107.619C109.037 52.9914 110.457 52.9914 111.874 52.9914C113.045 52.9914 113.576 53.5163 113.581 54.6731C113.591 56.5763 113.581 58.487 113.581 60.3952Z" fill="#DADADA"/>
<path d="M85.9772 75.5154C84.1238 76.1672 82.4573 77.0977 81.2167 78.6799C79.6698 80.6702 79.0968 82.9092 79.316 85.3747C79.7345 87.4993 80.6039 89.3552 82.2331 90.8703C83.1399 91.7087 84.2608 92.1142 85.2498 92.7909C86.9936 93.174 88.7249 93.4352 90.4811 92.9203C94.0383 91.8729 96.2106 89.5294 97.0525 85.9245C97.2693 84.8124 97.1746 83.6855 97.1547 82.5709C96.6839 81.1354 96.1881 79.7248 95.1618 78.5381C93.4853 76.5802 91.4078 75.4532 88.8245 75.3263C87.8804 75.2816 86.9163 75.2442 85.9772 75.5154ZM88.2192 87.2331C87.8229 87.2349 87.4303 87.1571 87.0648 87.0043C86.6993 86.8515 86.3682 86.6269 86.0914 86.3437C85.8146 86.0605 85.5977 85.7246 85.4535 85.356C85.3094 84.9873 85.2409 84.5935 85.2523 84.1979C85.2755 83.4195 85.5998 82.6803 86.1573 82.1356C86.7147 81.591 87.4618 81.2833 88.2416 81.2772C88.6377 81.2751 89.0302 81.3525 89.3958 81.5051C89.7613 81.6576 90.0924 81.882 90.3692 82.165C90.646 82.448 90.863 82.7837 91.0072 83.1522C91.1514 83.5207 91.2198 83.9144 91.2085 84.3099C91.1847 85.088 90.8606 85.8267 90.3039 86.3715C89.7472 86.9164 89.0011 87.2251 88.2217 87.2331H88.2192Z" fill="#F1F1F1"/>
<path d="M97.1824 102.497C95.6675 103.085 94.2898 103.978 93.1344 105.119C91.8091 106.891 90.9771 108.851 90.9522 111.09C91.1116 114.501 92.5714 117.175 95.5731 118.867C101.054 121.952 107.961 118.474 108.763 112.267C108.816 111.869 108.868 111.468 108.923 111.07C108.868 110.734 108.796 110.401 108.761 110.075C108.42 106.888 106.741 104.602 103.956 103.124C101.803 101.96 99.514 101.888 97.1824 102.497ZM96.9607 111.038C96.962 110.254 97.2745 109.503 97.8298 108.948C98.385 108.394 99.1377 108.083 99.9226 108.082C100.332 108.057 100.742 108.115 101.128 108.255C101.514 108.394 101.867 108.612 102.165 108.893C102.463 109.175 102.699 109.515 102.86 109.892C103.021 110.269 103.102 110.674 103.099 111.084C103.096 111.494 103.009 111.899 102.842 112.273C102.676 112.648 102.434 112.984 102.132 113.261C101.83 113.538 101.474 113.75 101.086 113.884C100.698 114.017 100.287 114.07 99.8777 114.038C99.093 114.025 98.3455 113.702 97.7987 113.14C97.252 112.577 96.9507 111.822 96.9607 111.038Z" fill="#616669"/>
<path d="M65.8838 111.064C65.5749 106.337 62.8347 103.126 58.3831 102.272C53.7946 101.389 49.0217 104.631 48.1697 109.223C48.0551 109.83 48.0153 110.45 47.943 111.064C48.1921 115.139 50.1127 118.07 54.0063 119.478C59.4867 121.468 65.4354 117.53 65.8464 111.714L65.8838 111.064ZM53.9266 111.032C53.931 110.443 54.1098 109.869 54.4404 109.381C54.771 108.893 55.2386 108.514 55.7845 108.291C56.3304 108.068 56.9301 108.012 57.5081 108.128C58.0862 108.245 58.6167 108.53 59.0331 108.947C59.4494 109.364 59.7328 109.895 59.8478 110.473C59.9627 111.05 59.904 111.649 59.679 112.193C59.454 112.738 59.0728 113.204 58.5834 113.532C58.0939 113.861 57.5181 114.037 56.9283 114.04C56.5335 114.039 56.1426 113.961 55.7781 113.809C55.4136 113.658 55.0825 113.436 54.8037 113.157C54.525 112.877 54.3041 112.546 54.1536 112.182C54.0031 111.817 53.9259 111.426 53.9266 111.032Z" fill="#616669"/>
<path d="M73.2927 78.3044L73.3301 75.334C73.3301 74.5876 73.2827 73.8413 73.3301 73.0949C73.3774 72.3486 72.9913 72.3187 72.4233 72.3212C68.1187 72.3336 63.8141 72.3212 59.5095 72.3212C59.1359 72.3212 58.7622 72.3212 58.3935 72.3212H46.4936C44.7897 72.3212 43.0858 72.3585 41.3819 72.3212C40.672 72.3038 40.4777 72.5426 40.5001 73.2243C40.5474 74.5851 40.5549 75.9609 40.5001 77.3093C40.4702 78.0556 40.672 78.3268 41.4691 78.3044C44.1321 78.2547 46.7975 78.2845 49.463 78.2845H67.3589L73.2927 78.3044Z" fill="#E7E7E7"/>
<path d="M73.3125 90.1918L73.2926 84.2483H67.3588H49.4679C46.775 84.2483 44.0846 84.2707 41.3918 84.2334C40.6918 84.2334 40.485 84.4374 40.5049 85.1265C40.5548 86.8257 40.5298 88.5249 40.5348 90.2241L71.4492 90.2042C72.0694 90.2116 72.6897 90.1992 73.3125 90.1918Z" fill="#E7E7E7"/>
<path d="M97.182 102.498C99.5136 101.888 101.803 101.96 103.955 103.102C106.74 104.58 108.419 106.866 108.761 110.053C108.795 110.392 108.868 110.725 108.922 111.048L115.053 111.033C115.158 108.961 114.527 107.028 113.91 105.095C113.137 103.722 112.355 102.358 111.296 101.169C109.169 98.7684 106.538 97.2857 103.447 96.5219C101.364 96.0094 99.277 96.1363 97.182 96.3552V102.498Z" fill="#A72A27"/>
<path d="M46.499 72.3339H58.3989C58.4089 70.3536 58.4172 68.3741 58.4238 66.3955C58.4039 64.1116 57.1658 61.477 53.5662 60.457H51.5061C47.9986 61.2482 46.5837 63.8106 46.4741 66.393C46.4807 68.375 46.489 70.3553 46.499 72.3339ZM52.4652 67.8683C52.1679 67.8732 51.8759 67.7895 51.6265 67.6278C51.3772 67.4662 51.1817 67.2339 51.0652 66.9608C50.9487 66.6876 50.9164 66.386 50.9725 66.0944C51.0285 65.8028 51.1704 65.5345 51.3799 65.3239C51.5894 65.1132 51.857 64.9697 52.1486 64.9118C52.4402 64.8538 52.7425 64.8841 53.0168 64.9986C53.2911 65.1131 53.5249 65.3067 53.6885 65.5546C53.852 65.8026 53.9378 66.0936 53.9349 66.3905C53.9311 66.7795 53.7753 67.1517 53.5008 67.4277C53.2262 67.7037 52.8547 67.8618 52.4652 67.8683Z" fill="#EA423F"/>
<path d="M90.9516 111.081C90.9765 108.842 91.8085 106.892 93.1338 105.11H73.3322L73.3023 111.036L90.9516 111.081Z" fill="#F1F1F1"/>
<path d="M123.481 99.1307H123.389C122.656 99.2053 121.702 98.8222 121.239 99.2874C120.701 99.8248 121.074 100.81 121.049 101.599C121.01 102.77 121.027 103.942 121.022 105.116C121.034 107.092 121.047 109.068 121.062 111.045C122.826 111.045 124.592 111.032 126.353 111.07C126.894 111.07 127.018 110.901 127.016 110.391C126.993 106.865 126.986 103.34 127.016 99.8173C127.016 99.1929 126.781 99.1158 126.268 99.1332C125.339 99.168 124.41 99.1357 123.481 99.1307Z" fill="#A72A27"/>
<path d="M46.4739 66.3946C46.5835 63.8123 47.9984 61.2498 51.5059 60.4587L50.9528 60.3965H42.0074C40.5127 60.4761 40.5127 60.4761 40.5127 62.0161C40.5127 63.26 40.5376 64.5039 40.5003 65.7254C40.4853 66.2553 40.6422 66.4071 41.1728 66.3971C42.944 66.3673 44.7102 66.3921 46.4739 66.3946Z" fill="#A72A27"/>
<path d="M121.062 111.049C121.048 109.07 121.035 107.094 121.022 105.12H113.91C114.527 107.053 115.155 108.986 115.053 111.059L121.062 111.049Z" fill="#F1F1F1"/>
<path d="M120.852 75.3586C121.196 76.3189 121.699 77.2369 121.6 78.3066C122.653 78.3066 123.712 78.3415 124.763 78.2818C125.406 78.2469 125.536 78.4883 125.511 79.0679C125.468 80.2148 125.488 81.3617 125.511 82.5086C125.523 83.5933 126.113 84.2501 127.02 84.2501C127.927 84.2501 128.483 83.5734 128.487 82.4713C128.487 80.6427 128.502 78.8117 128.487 76.9831C128.487 75.9233 127.927 75.3362 126.901 75.3312C124.885 75.3138 122.87 75.3461 120.852 75.3586Z" fill="#A72A27"/>
<path d="M52.4476 85.4863C50.1184 85.4863 48.2302 83.6006 48.2302 81.2744C48.2302 78.9482 50.1184 77.0625 52.4476 77.0625C54.7768 77.0625 56.665 78.9482 56.665 81.2744C56.665 83.6006 54.7768 85.4863 52.4476 85.4863Z" fill="#B5B8B9"/>
<path d="M110.696 90.2111C112.898 90.2111 115.105 90.1912 117.308 90.2111C117.943 90.2111 118.055 90.0593 117.978 89.4249C117.597 86.7281 117.268 84.0214 116.946 81.3146C116.715 79.3468 115.599 78.2919 113.633 78.2869C110.395 78.2869 107.174 78.3044 103.945 78.2695C103.28 78.2695 103.126 78.4586 103.131 79.1005C103.162 82.5121 103.162 85.9229 103.131 89.3329C103.131 90.0096 103.268 90.2335 103.988 90.2186C106.222 90.1788 108.459 90.2111 110.696 90.2111Z" fill="#F3F7FB"/>
<path d="M79.3182 93.1934C79.3182 94.9846 79.3182 96.7758 79.2809 98.5671C79.2809 99.0024 79.4079 99.1616 79.8588 99.1542C81.4647 99.1326 83.0731 99.1326 84.684 99.1542C85.1324 99.1542 85.2669 99.0024 85.2595 98.5671C85.2321 96.7758 85.2321 94.9846 85.2221 93.1934H79.3182Z" fill="#60B7D0"/>
<path d="M79.3187 93.1943H85.2226C85.2226 93.0599 85.24 92.9256 85.25 92.7912C84.2536 92.127 83.1401 91.709 82.2333 90.8706C80.6041 89.358 79.7422 87.4996 79.3162 85.375C79.3179 87.9822 79.3187 90.5887 79.3187 93.1943Z" fill="#B5B8B9"/>
<path d="M59.9052 52.9805C59.9052 55.4501 59.9052 57.9221 59.9052 60.3967H62.8945C62.8945 57.9238 62.8945 55.4517 62.8945 52.9805H59.9052Z" fill="#DADADA"/>
<path d="M68.8505 52.9805V60.3967H71.8398V52.9805H68.8505Z" fill="#DADADA"/>
<path d="M95.6904 52.9805C95.6904 55.4501 95.6904 57.9221 95.6904 60.3967H98.6797V52.9805H95.6904Z" fill="#DADADA"/>
<path d="M80.7861 60.3967C80.7861 57.9238 80.7861 55.4517 80.7861 52.9805H77.7968C77.7968 55.4501 77.7968 57.9221 77.7968 60.3967H80.7861Z" fill="#DADADA"/>
<path d="M86.7441 52.9805V60.3967H89.7334V52.9805H86.7441Z" fill="#DADADA"/>
<path d="M53.9473 60.3967V52.9805H50.958C50.958 55.4501 50.958 57.9221 50.958 60.3967L51.511 60.4589H53.5711L53.9473 60.3967Z" fill="#DADADA"/>
<path d="M88.2214 87.2333C89.0012 87.2259 89.748 86.9175 90.3052 86.3726C90.8624 85.8277 91.1869 85.0886 91.2107 84.3101C91.2221 83.9146 91.1536 83.5209 91.0094 83.1524C90.8652 82.7839 90.6483 82.4481 90.3714 82.1652C90.0946 81.8822 89.7635 81.6578 89.398 81.5052C89.0325 81.3527 88.64 81.2752 88.2438 81.2774C87.464 81.2835 86.7169 81.5912 86.1595 82.1358C85.6021 82.6804 85.2777 83.4196 85.2545 84.1981C85.2432 84.5937 85.3116 84.9875 85.4557 85.3561C85.5999 85.7248 85.8168 86.0607 86.0937 86.3438C86.3705 86.627 86.7015 86.8517 87.067 87.0045C87.4326 87.1573 87.8251 87.2351 88.2214 87.2333Z" fill="#B5B8B9"/>
<path d="M96.9608 111.04C96.9508 111.823 97.2521 112.579 97.7989 113.141C98.3456 113.704 99.0931 114.027 99.8778 114.04C100.287 114.072 100.698 114.019 101.086 113.885C101.474 113.752 101.83 113.54 102.132 113.263C102.434 112.986 102.676 112.649 102.842 112.275C103.009 111.9 103.096 111.496 103.1 111.086C103.103 110.676 103.021 110.27 102.86 109.893C102.7 109.516 102.463 109.177 102.165 108.895C101.867 108.613 101.514 108.396 101.128 108.257C100.742 108.117 100.332 108.058 99.9227 108.084C99.1378 108.085 98.3852 108.396 97.8299 108.95C97.2747 109.504 96.9621 110.256 96.9608 111.04Z" fill="#E6EBEE"/>
<path d="M53.9269 111.031C53.9195 111.623 54.0885 112.204 54.4124 112.7C54.7364 113.196 55.2006 113.584 55.7461 113.816C56.2917 114.047 56.8938 114.112 57.4761 114.001C58.0585 113.89 58.5946 113.609 59.0164 113.193C59.4382 112.777 59.7266 112.245 59.845 111.665C59.9634 111.085 59.9065 110.482 59.6814 109.935C59.4562 109.387 59.0732 108.919 58.5808 108.589C58.0884 108.259 57.509 108.083 56.9162 108.083C56.1308 108.086 55.3779 108.397 54.8191 108.948C54.2602 109.499 53.9399 110.247 53.9269 111.031Z" fill="#E6EBEE"/>
<path d="M64.3773 85.4863C62.0481 85.4863 60.1599 83.6006 60.1599 81.2744C60.1599 78.9482 62.0481 77.0625 64.3773 77.0625C66.7065 77.0625 68.5947 78.9482 68.5947 81.2744C68.5947 83.6006 66.7065 85.4863 64.3773 85.4863Z" fill="#B5B8B9"/>
<path d="M52.465 67.8672C52.7625 67.8671 53.0532 67.7783 53.2999 67.6122C53.5465 67.4461 53.738 67.2103 53.8497 66.9349C53.9613 66.6596 53.9882 66.3572 53.9268 66.0665C53.8654 65.7757 53.7185 65.51 53.505 65.3031C53.2915 65.0962 53.021 64.9577 52.7281 64.9053C52.4353 64.8528 52.1335 64.8889 51.8613 65.0087C51.5891 65.1286 51.3589 65.3269 51.2002 65.5782C51.0415 65.8295 50.9614 66.1223 50.9704 66.4193C50.982 66.8074 51.1446 67.1757 51.4237 67.446C51.7027 67.7163 52.0763 67.8674 52.465 67.8672Z" fill="#E6EBEE"/>
</g>
</g>
<defs>
<filter id="filter0_d_1594_12325" x="0.5" y="0" width="161" height="161" filterUnits="userSpaceOnUse" color-interpolation-filters="sRGB">
<feFlood flood-opacity="0" result="BackgroundImageFix"/>
<feColorMatrix in="SourceAlpha" type="matrix" values="0 0 0 0 0 0 0 0 0 0 0 0 0 0 0 0 0 0 127 0" result="hardAlpha"/>
<feOffset/>
<feGaussianBlur stdDeviation="8"/>
<feComposite in2="hardAlpha" operator="out"/>
<feColorMatrix type="matrix" values="0 0 0 0 0.5875 0 0 0 0 0 0 0 0 0 0.099017 0 0 0 0.36 0"/>
<feBlend mode="normal" in2="BackgroundImageFix" result="effect1_dropShadow_1594_12325"/>
<feBlend mode="normal" in="SourceGraphic" in2="effect1_dropShadow_1594_12325" result="shape"/>
</filter>
<clipPath id="clip0_1594_12325">
<rect width="88" height="70" fill="white" transform="matrix(-1 0 0 1 128.5 50)"/>
</clipPath>
</defs>
</svg>
