<svg width="29" height="28" viewBox="0 0 29 28" fill="none" xmlns="http://www.w3.org/2000/svg">
<g clip-path="url(#clip0_1018_21753)">
<path d="M20.501 12.2028C20.501 11.696 20.501 11.2079 20.501 10.7247C20.501 10.3362 20.3658 10.2028 19.9739 10.2028H17.7996C17.4414 10.2028 17.3029 10.3447 17.3012 10.7095C17.3012 11.1994 17.3012 11.6893 17.3012 12.1943H11.7024V10.7433C11.7024 10.3379 11.5707 10.2095 11.1601 10.2095H9.01117C8.63949 10.2095 8.50434 10.3481 8.50434 10.7247C8.50434 11.2062 8.50434 11.6893 8.50434 12.169C7.06326 12.5339 5.54953 11.9595 4.87545 10.794C4.64341 10.4061 4.51756 9.96388 4.51053 9.51191C4.5004 8.4038 4.5004 7.29569 4.51053 6.18759C4.5105 6.03015 4.54191 5.87429 4.60292 5.72916C4.66393 5.58402 4.75331 5.45253 4.86582 5.34239C4.97834 5.23226 5.11171 5.14569 5.25813 5.08778C5.40454 5.02987 5.56106 5.00178 5.71848 5.00515C6.97541 5.00515 8.23403 5.00515 9.49096 5.00515H23.1331C24.0336 5.00515 24.5032 5.47475 24.5032 6.37508C24.5032 7.32441 24.5032 8.27374 24.5032 9.22306C24.5032 11.0237 23.3206 12.2028 21.5112 12.2045L20.501 12.2028Z" fill="white"/>
<path d="M5.30273 12.3779C6.2995 13.0958 7.39593 13.0114 8.51265 12.9979C8.46703 13.6533 8.5836 14.2327 9.11408 14.6499C9.42155 14.8995 9.81195 15.0238 10.2071 14.9979C11.1448 14.9472 11.6533 14.2867 11.7175 13.0215H17.3078C17.2985 13.1407 17.2985 13.2604 17.3078 13.3796C17.3339 13.6179 17.3907 13.8518 17.4767 14.0756C17.5211 14.146 17.5388 14.23 17.5267 14.3124C17.5146 14.3947 17.4735 14.4701 17.4109 14.5249C15.8701 16.3413 15.3796 18.4095 15.9394 20.7293C15.958 20.8087 15.9816 20.8881 16.012 21.0012H7.44831C6.14576 21.0012 5.30443 20.1566 5.30443 18.8627V12.3779H5.30273Z" fill="white"/>
<path d="M22.4995 13.002C23.6881 13.0013 24.8501 13.3536 25.8382 14.0141C26.8262 14.6747 27.5959 15.6137 28.0495 16.7122C28.5031 17.8106 28.6202 19.0191 28.386 20.1842C28.1518 21.3493 27.5769 22.4186 26.734 23.2566C25.8912 24.0945 24.8185 24.6633 23.6519 24.8909C22.4853 25.1185 21.2774 24.9946 20.1814 24.5348C19.0854 24.0751 18.1505 23.3003 17.4955 22.3086C16.8405 21.317 16.4947 20.1532 16.5021 18.9648C16.5123 17.3807 17.1486 15.8648 18.2721 14.7478C19.3955 13.6308 20.9152 13.0033 22.4995 13.002ZM24.9509 15.3668C23.3747 14.2334 20.8963 14.3009 19.3082 15.9783C17.7201 17.6557 17.8164 20.0442 18.869 21.4479L24.9509 15.3668ZM20.0516 22.6303C21.523 23.7283 24.0589 23.7722 25.7145 21.9986C27.3448 20.2536 27.1049 17.8009 26.12 16.5628L20.0516 22.6303Z" fill="white"/>
<path d="M18.5002 4.198H16.9088V2.61861H12.1074V4.18617H10.5295C10.5295 3.56286 10.4704 2.93449 10.543 2.32807C10.593 1.95504 10.7797 1.61382 11.0668 1.37044C11.3539 1.12705 11.7211 0.998801 12.0973 1.0105C13.6978 1.0105 15.2977 1.0105 16.897 1.0105C17.108 1.00892 17.3173 1.04937 17.5125 1.1295C17.7078 1.20963 17.8851 1.32783 18.0342 1.4772C18.1833 1.62657 18.3011 1.80414 18.3808 1.99952C18.4606 2.19491 18.5006 2.40422 18.4986 2.61523C18.5053 3.13212 18.5002 3.65408 18.5002 4.198Z" fill="white"/>
<path d="M9.30633 11.0137H10.9028V12.9157C10.9028 13.0981 10.9113 13.2822 10.9028 13.4647C10.8867 13.6657 10.7952 13.8533 10.6468 13.9898C10.4983 14.1263 10.3038 14.2018 10.1021 14.2012C9.9036 14.2026 9.71203 14.1285 9.56617 13.9939C9.4203 13.8594 9.33104 13.6744 9.31647 13.4765C9.29282 12.6623 9.30633 11.8481 9.30633 11.0137Z" fill="white"/>
<path d="M18.1315 13.7622C18.0673 12.8197 18.118 11.9244 18.0977 11.0156H19.701C19.679 11.3503 19.679 11.686 19.701 12.0207C19.777 12.5815 19.625 12.9481 19.0573 13.1575C18.7482 13.2825 18.4829 13.5291 18.1315 13.7622Z" fill="white"/>
</g>
<defs>
<clipPath id="clip0_1018_21753">
<rect width="24" height="24" fill="white" transform="translate(4.5 1)"/>
</clipPath>
</defs>
</svg>
