<svg width="46" height="46" viewBox="0 0 46 46" fill="none" xmlns="http://www.w3.org/2000/svg">
<path d="M40.1021 12.3145H45.7856V15.8533H40.1021V12.3145Z" fill="white"/>
<path d="M42.9448 3.37793C42.1912 3.37793 41.4686 3.65135 40.9358 4.13803C40.4029 4.62472 40.1036 5.2848 40.1036 5.97308V9.67235H45.7859V5.97308C45.7859 5.2848 45.4866 4.62472 44.9537 4.13803C44.4209 3.65135 43.6983 3.37793 42.9448 3.37793V3.37793Z" fill="white"/>
<path d="M40.0894 18.4961V38.9683C40.0894 39.4332 40.195 39.8931 40.3993 40.3189L42.5612 44.8097C42.5927 44.8759 42.6446 44.9323 42.7107 44.9719C42.7768 45.0115 42.8541 45.0325 42.9331 45.0325C43.0121 45.0325 43.0894 45.0115 43.1555 44.9719C43.2216 44.9323 43.2736 44.8759 43.305 44.8097L45.463 40.3178C45.6673 39.8927 45.7729 39.4336 45.7729 38.9695V18.4961H40.0894Z" fill="white"/>
<path d="M23.2505 0C24.2415 0.352652 24.6139 1.07324 24.5592 2.08652C24.5199 2.90938 24.5354 3.73223 24.5592 4.54685C24.5687 4.89245 24.4652 4.99472 24.1107 4.99355C20.9673 4.98062 17.824 4.98649 14.6807 4.98649H6.19068V3.32198C6.19068 2.91173 6.21567 2.49912 6.19068 2.09122C6.11811 1.07911 6.50359 0.36088 7.49227 0H23.2505Z" fill="white"/>
<path d="M30.5408 3.00293V43.0214C30.5408 44.1259 29.6454 45.0214 28.5408 45.0214H2.21411C1.10954 45.0214 0.214111 44.1259 0.214111 43.0214V3.0041H3.50615V7.59681C3.71673 7.60738 3.87259 7.62267 4.02963 7.62267C11.598 7.62267 19.1664 7.62619 26.7348 7.63325C27.1655 7.63325 27.2487 7.49453 27.2416 7.10897C27.2202 5.90643 27.2333 4.70389 27.2333 3.50252V3.00293H30.5408ZM14.875 23.9268C15.0408 23.9269 15.1752 23.7925 15.1752 23.6268V11.2317C15.1752 11.066 15.0409 10.9317 14.8752 10.9317H3.8454C3.67972 10.9317 3.54541 11.066 3.54541 11.2317V23.6212C3.54541 23.7868 3.67963 23.9211 3.84525 23.9212L14.875 23.9268ZM27.3582 27.5712C27.3582 27.4056 27.2239 27.2712 27.0582 27.2712H3.68717C3.52148 27.2712 3.38717 27.4056 3.38717 27.5712V29.5573C3.38717 29.723 3.52148 29.8573 3.68717 29.8573H27.0582C27.2239 29.8573 27.3582 29.723 27.3582 29.5573V27.5712ZM3.3836 35.4784C3.3836 35.6441 3.51792 35.7784 3.6836 35.7784H27.0546C27.2203 35.7784 27.3546 35.6441 27.3546 35.4784V33.504C27.3546 33.3383 27.2203 33.204 27.0546 33.204H3.6836C3.51791 33.204 3.3836 33.3383 3.3836 33.504V35.4784ZM27.3582 39.4438C27.3582 39.2782 27.2239 39.1438 27.0582 39.1438H3.68598C3.52029 39.1438 3.38598 39.2782 3.38598 39.4438V41.43C3.38598 41.5956 3.52029 41.73 3.68598 41.73H27.0582C27.2239 41.73 27.3582 41.5956 27.3582 41.43V39.4438ZM27.3582 21.6232C27.3582 21.4575 27.2239 21.3232 27.0582 21.3232H18.703C18.5373 21.3232 18.403 21.4575 18.403 21.6232V23.6093C18.403 23.775 18.5373 23.9093 18.703 23.9093H27.0582C27.2239 23.9093 27.3582 23.775 27.3582 23.6093V21.6232ZM27.3583 15.702C27.3583 15.5364 27.224 15.4022 27.0583 15.4022H18.6946C18.529 15.4022 18.3946 15.5365 18.3946 15.7022V17.6847C18.3946 17.8504 18.529 17.9847 18.6946 17.9847H27.0593C27.225 17.9847 27.3593 17.8503 27.3593 17.6846L27.3583 15.702Z" fill="white"/>
<path d="M12.5104 21.2767H6.23096V13.583H12.5104V21.2767Z" fill="white"/>
</svg>
