<svg width="45" height="45" viewBox="0 0 45 45" fill="none" xmlns="http://www.w3.org/2000/svg">
<g clip-path="url(#clip0_2233_2102)">
<path d="M0 41.3972V3.61602C0.0237714 3.57891 0.041935 3.53849 0.0539056 3.49608C0.336641 1.47678 2.05066 -0.0110047 4.31474 -3.90712e-07C11.5459 0.0363139 18.7782 0.0132059 26.0105 0.0132059H26.5331V0.563422C26.5331 3.38933 26.5331 6.21378 26.5331 9.03676C26.5331 10.1581 27.0161 10.6434 28.1316 10.6434H37.0757C37.0757 11.7812 37.0889 12.8762 37.0636 13.97C37.0495 14.1931 36.9589 14.4045 36.8073 14.5686C35.5773 15.8253 34.3356 17.0681 33.0822 18.2969C32.916 18.4466 32.7028 18.5334 32.4793 18.5423C30.0931 18.5588 27.7069 18.5489 25.3207 18.5555C24.4879 18.5555 23.9115 19.0958 23.9016 19.8529C23.8917 20.61 24.478 21.1822 25.3318 21.1866C26.7806 21.1932 28.2295 21.1866 29.6795 21.1866H30.1889C30.0216 21.3693 29.9215 21.486 29.8126 21.5949C27.6585 23.7686 25.5045 25.942 23.3504 28.115C22.8377 28.6344 22.3097 29.1527 21.8718 29.7337C20.3767 31.7222 18.9158 33.736 17.4515 35.7476C17.2314 36.0524 17.084 36.4078 16.8684 36.7214C16.8219 36.7906 16.7622 36.85 16.6927 36.896C16.6232 36.9421 16.5454 36.974 16.4635 36.99C15.8948 37.0197 15.3227 36.9988 14.7517 37.0032C13.8584 37.0087 13.2654 37.5424 13.272 38.3303C13.2787 39.1182 13.8716 39.6332 14.7726 39.6376C15.3139 39.6376 15.8563 39.6508 16.3975 39.6321C16.5032 39.6148 16.6116 39.6367 16.7023 39.6936C16.7931 39.7505 16.8599 39.8386 16.8904 39.9413C17.0295 40.2795 17.2146 40.5968 17.4405 40.8844C18.7199 42.4173 21.0192 42.8244 22.9268 41.4401C25.0941 39.8676 27.2867 38.3292 29.465 36.7721C29.6422 36.6432 29.8085 36.5001 29.9622 36.344C32.2109 34.0991 34.4581 31.8535 36.7039 29.6071C36.8139 29.5026 36.9239 29.4069 37.079 29.2572C37.079 33.2529 37.0955 37.1473 37.0691 41.0406C37.0614 42.2511 36.5443 43.2668 35.6147 44.0701C35.0196 44.584 34.3078 44.8118 33.5696 44.9978H3.51384C3.46557 44.969 3.4138 44.9464 3.35982 44.9307C2.36969 44.7733 1.5754 44.2869 0.931816 43.5221C0.409251 42.9037 0.174922 42.1664 0 41.3972ZM17.2259 14.255C19.6352 11.4324 18.5626 8.23124 16.8387 6.73575C15.8476 5.8589 14.5688 5.37726 13.2457 5.38254C11.9226 5.38781 10.6476 5.87964 9.6636 6.76436C7.91988 8.29946 6.93746 11.4819 9.33356 14.2836C9.31898 14.3076 9.30122 14.3294 9.28075 14.3485C9.16084 14.4322 9.03982 14.5136 8.91661 14.5939C7.44788 15.5294 6.33085 16.9258 5.74051 18.5643C5.28726 19.7847 5.25425 21.0524 5.27075 22.3289C5.28285 23.3017 5.79332 23.82 6.76364 23.8233C7.93529 23.8233 9.10583 23.8233 10.2775 23.8233C13.4547 23.8233 16.6322 23.8233 19.8102 23.8233C20.7255 23.8233 21.2502 23.2907 21.2612 22.3762C21.2612 22.0549 21.2612 21.7324 21.2612 21.41C21.2612 19.2202 20.5605 17.2966 19.0027 15.7373C18.4603 15.1937 17.8211 14.7458 17.2259 14.255ZM11.9453 29.0965C13.6879 29.0965 15.4305 29.0965 17.1731 29.0965C17.7892 29.0965 18.2601 28.8567 18.512 28.2866C18.9058 27.3975 18.2469 26.4676 17.216 26.461C15.4888 26.4511 13.7605 26.461 12.0333 26.461C10.2606 26.461 8.48866 26.461 6.71744 26.461C6.10356 26.461 5.6294 26.6965 5.37857 27.2687C4.98912 28.1601 5.6459 29.0899 6.67453 29.0954C8.43475 29.1042 10.1917 29.0965 11.9486 29.0965H11.9453ZM11.9343 34.3687H16.8541C17.9949 34.3687 18.6143 33.9109 18.6198 33.0614C18.6264 32.1932 18.007 31.7321 16.8321 31.7321H10.6383C9.31816 31.7321 8.00349 31.7321 6.68553 31.7321C6.21797 31.7321 5.81862 31.8806 5.53919 32.2647C5.38616 32.4545 5.29262 32.6852 5.27031 32.928C5.24799 33.1708 5.29791 33.4147 5.41377 33.6292C5.6701 34.1376 6.10356 34.3676 6.66243 34.3676L11.9343 34.3687ZM27.8533 13.2811C27.0183 13.2811 26.1833 13.2811 25.3494 13.2811C24.489 13.2866 23.9027 13.8247 23.9016 14.5961C23.9005 15.3675 24.4835 15.9167 25.345 15.9167C27.0135 15.9225 28.6828 15.9225 30.3528 15.9167C31.212 15.9167 31.8006 15.373 31.8017 14.6027C31.8028 13.8324 31.212 13.2899 30.3572 13.2822C29.5222 13.2767 28.6916 13.2811 27.8533 13.2811Z" fill="white"/>
<path d="M25.4814 29.7051L34.5532 20.7531L38.0978 24.313L29.1317 33.2947C28.5893 31.4988 27.3715 30.2762 25.4814 29.7051Z" fill="white"/>
<path d="M36.4672 18.6831C36.4463 18.7095 36.4848 18.6479 36.5354 18.5984C37.8369 17.2911 39.123 15.9706 40.4453 14.6874C41.8128 13.3592 43.9174 13.7037 44.715 15.3763C45.1792 16.348 45.0813 17.312 44.3849 18.1274C43.7248 18.8977 42.9657 19.6009 42.2463 20.3283C41.5477 21.0358 40.8436 21.7368 40.1802 22.4026L36.4672 18.6831Z" fill="white"/>
<path d="M23.9227 32.0798C25.7544 32.1393 26.8733 33.3387 26.6543 35.3976C26.6196 35.5193 26.5413 35.6239 26.4343 35.6915C24.7342 36.9093 23.032 38.1223 21.3275 39.3306C20.6674 39.7939 19.9655 39.7487 19.4936 39.2492C19.0216 38.7496 19.0128 38.0728 19.4705 37.4444C20.6927 35.7663 21.915 34.0881 23.1702 32.4353C23.3176 32.2394 23.6664 32.1943 23.9227 32.0798Z" fill="white"/>
<path d="M29.1812 7.98805V1.11475L36.0504 7.98475L29.1812 7.98805Z" fill="white"/>
<path d="M7.94639 21.1525C7.81217 18.9033 9.78142 16.0762 13.0279 15.9299C16.0445 15.7934 18.6584 18.2408 18.6089 21.1525H7.94639Z" fill="white"/>
<path d="M13.2633 13.2778C11.7958 13.2778 10.5273 12.0344 10.5471 10.6192C10.5669 9.20404 11.82 8.01007 13.2699 8.01227C14.7375 8.01227 16.006 9.25576 15.9873 10.6698C15.9686 12.0839 14.7111 13.28 13.2633 13.2778Z" fill="white"/>
</g>
<defs>
<clipPath id="clip0_2233_2102">
<rect width="45" height="45" fill="white"/>
</clipPath>
</defs>
</svg>
