<svg width="145" height="144" viewBox="0 0 145 144" fill="none" xmlns="http://www.w3.org/2000/svg">
<circle cx="73" cy="71.5" r="63" stroke="#57A2FB" stroke-width="3"/>
<g clip-path="url(#clip0_4661_373)">
<path d="M37.6201 91.1135C37.6201 87 37.6075 82.8886 37.6327 78.7751C37.6516 75.8473 39.6812 73.4904 42.4461 73.0994L42.5197 73.114L42.5848 73.0847C42.8684 73.0534 43.1521 72.999 43.4378 72.9948C44.795 72.976 46.1544 72.9697 47.5117 72.9593L47.665 73.0199C48.2301 73.1804 48.8291 73.1804 49.3942 73.0199C50.0245 73.0095 50.6548 72.9927 51.2851 72.9927H91.7652C92.1035 72.9927 92.4439 72.976 92.7842 72.9676L97.5115 72.9551L98.4464 73.0011C98.5809 73.4193 99.0221 73.3984 99.3226 73.5469C101.716 74.7285 102.72 76.6838 102.657 79.279C102.303 79.1096 101.915 79.019 101.522 79.0135C97.8603 79.0135 94.1961 79.003 90.5319 79.0135C89.3512 79.0135 88.702 79.7098 88.6851 80.883C88.6683 82.0562 88.6851 83.2796 88.6851 84.4779C88.6851 85.8979 89.3659 86.5692 90.8114 86.5692C94.2654 86.5692 97.7195 86.5692 101.174 86.5692C101.696 86.5887 102.216 86.4825 102.688 86.2597C102.688 87.863 102.692 89.4663 102.699 91.0696C102.359 91.0696 102.02 91.0968 101.68 91.0968H60.6493C52.9722 91.1037 45.2958 91.1093 37.6201 91.1135ZM72.4969 79.0239C69.3832 79.0239 66.2674 79.0239 63.1537 79.0239C61.8931 79.0239 61.2102 79.7161 61.1955 80.95C61.1808 82.1483 61.1829 83.3465 61.1955 84.5448C61.2081 85.8519 61.9288 86.5629 63.2524 86.565C69.4266 86.565 75.6022 86.565 81.7791 86.565C83.1112 86.565 83.8003 85.8665 83.815 84.5323C83.815 83.4114 83.815 82.2905 83.815 81.1716C83.815 79.6659 83.1847 79.026 81.6804 79.0239C78.6185 79.0169 75.5566 79.0169 72.4948 79.0239H72.4969ZM49.4866 79.0072C47.6545 79.0072 45.8245 78.9884 43.9946 79.0072C42.8033 79.0239 42.1541 79.6889 42.1352 80.8621C42.1163 82.1169 42.1184 83.3612 42.1352 84.6118C42.152 85.8623 42.8411 86.5545 44.1542 86.5566C47.7106 86.5566 51.2676 86.5566 54.8253 86.5566C56.1804 86.5566 56.8254 85.9042 56.8422 84.5302C56.8569 83.3842 56.8422 82.2298 56.8422 81.0943C56.8296 79.6157 56.2266 79.003 54.7412 79.003C52.989 78.9988 51.2367 79.0072 49.4845 79.0072H49.4866Z" fill="#5A6C76"/>
<path d="M37.6201 91.1131C45.2971 91.1131 52.9735 91.1131 60.6492 91.1131H101.678C102.018 91.1131 102.356 91.0943 102.697 91.0859L107.397 91.1194C108.027 91.1194 108.657 91.0943 109.277 91.1194C109.856 91.1149 110.413 91.3388 110.826 91.7421C111.24 92.1454 111.476 92.6952 111.483 93.2713C111.507 94.1817 111.507 95.0928 111.483 96.0046C111.447 97.2823 110.588 98.1544 109.302 98.1774C107.735 98.2088 106.166 98.1774 104.598 98.1962C104.321 98.1962 104.02 98.1063 103.768 98.3175C102.718 98.054 101.667 98.1565 100.617 98.2213C99.8444 98.1523 99.0675 98.1523 98.2951 98.2213C97.6041 98.1418 96.9062 98.1418 96.2151 98.2213C95.4462 98.155 94.6729 98.155 93.904 98.2213L90.7756 98.1732C90.7882 95.9502 89.7965 95.4358 87.8174 95.4546C77.2703 95.5048 66.7211 95.4776 56.1741 95.4797C55.8337 95.4797 55.4913 95.4671 55.153 95.4985C54.7453 95.5319 54.3599 95.6978 54.0562 95.9707C53.7525 96.2435 53.5473 96.6081 53.4722 97.0084C53.3986 97.3911 53.3713 97.7822 53.323 98.169L50.161 98.2255H47.9969C47.3065 98.1481 46.6095 98.1481 45.919 98.2255C45.1466 98.1596 44.3699 98.1596 43.5974 98.2255C42.5175 98.1774 41.4355 98.0457 40.3703 98.3468C40.1203 98.1377 39.8219 98.2046 39.5299 98.2046C38.2483 98.2046 36.9666 98.2192 35.6871 98.19C34.4076 98.1607 33.5609 97.3095 33.5168 96.0841C33.4832 95.1242 33.4832 94.158 33.5168 93.196C33.5392 92.6439 33.7727 92.1212 34.1695 91.7348C34.5663 91.3484 35.0964 91.1275 35.6514 91.1173C36.3132 91.0839 36.9666 91.1089 37.6201 91.1131Z" fill="#CCD3D9"/>
<path d="M47.5116 72.9605C46.1543 72.9709 44.795 72.9772 43.4377 72.996C43.152 72.996 42.8684 73.0546 42.5847 73.086C43.0827 70.5764 43.3663 68.0188 43.7214 65.4821C44.1962 62.2595 44.6437 59.0327 45.1564 55.8184C45.6753 52.5644 48.7953 49.9629 52.0897 49.9629C53.7705 49.9629 55.4464 49.9629 57.1174 49.9629H89.286C90.4899 49.9629 91.6937 49.9775 92.8997 49.9775C96.2004 49.9775 99.333 52.5874 99.8457 55.8331C100.31 58.7713 100.686 61.72 101.119 64.6624C101.161 64.9447 101.228 65.2228 101.283 65.4989L102.379 72.9856H98.4464L97.5114 72.9396C97.4274 72.3226 97.3559 71.7057 97.2593 71.093C96.7088 67.6152 96.1038 64.1479 95.6163 60.6618C95.1961 57.6587 93.2611 55.3416 90.3281 54.8815C88.8742 54.6536 87.3572 54.8167 85.8697 54.8042C77.7325 54.7184 69.5932 54.9422 61.456 54.662C59.5462 54.5971 57.6322 54.6327 55.7202 54.662C52.6275 54.6954 49.974 57.1108 49.5349 60.1473C49.1483 62.8116 48.6293 65.4591 48.2175 68.1213C47.9675 69.7316 47.5368 71.3126 47.5116 72.9605Z" fill="#F1F1F1"/>
<path d="M63.5444 36.0332H83.3612L83.3738 45.6781C81.0774 45.6927 78.7831 45.7199 76.4867 45.7199C72.181 45.7199 67.876 45.7102 63.5717 45.6906L63.5444 36.0332Z" fill="#D7EAFD"/>
<path d="M63.5613 45.6825C67.8669 45.6922 72.1719 45.702 76.4762 45.7117C78.7726 45.7117 81.0669 45.6846 83.3633 45.6699L89.1579 45.6929L89.3239 45.7452L89.286 49.9403H57.1175C56.9662 48.5433 57.0923 47.1401 57.0481 45.741L58.6575 45.6825H63.5613Z" fill="#5A6D77"/>
<path d="M45.917 98.2156C46.6074 98.1382 47.3044 98.1382 47.9949 98.2156C47.9949 99.2612 47.9718 100.307 47.9802 101.34C47.9802 102.063 48.3163 102.373 49.0307 102.386C49.8165 102.398 50.161 102.097 50.1694 101.34C50.1694 100.294 50.1694 99.2487 50.1526 98.203L53.3146 98.1466C53.3357 99.1253 53.3273 100.108 53.3861 101.087C53.4638 102.388 54.2559 103.12 55.5417 103.145C56.2939 103.161 57.046 103.17 57.7982 103.18C57.7499 104.435 58.0314 105.734 57.3234 106.907C56.6258 107.725 55.714 107.99 54.6719 107.988C50.9615 107.975 47.2497 107.975 43.5365 107.988C42.4629 107.988 41.5322 107.725 40.8052 106.915C40.446 106.246 40.2788 105.491 40.322 104.734C40.3451 102.599 40.3493 100.464 40.3598 98.3264C41.425 98.0253 42.507 98.157 43.587 98.2051C43.587 99.165 43.566 100.127 43.5702 101.089C43.5702 101.98 43.8979 102.344 44.6753 102.369C45.4022 102.394 45.9065 101.9 45.9212 101.091C45.9464 100.14 45.9233 99.1776 45.917 98.2156Z" fill="#B0BABF"/>
<path d="M90.7714 98.167L93.8998 98.2151C93.8998 99.2043 93.8746 100.193 93.8851 101.185C93.8851 102.021 94.2696 102.391 95.0806 102.379C95.2369 102.382 95.3922 102.353 95.5368 102.294C95.6813 102.235 95.812 102.147 95.9205 102.035C96.0291 101.923 96.1132 101.789 96.1675 101.644C96.2218 101.498 96.2452 101.342 96.2362 101.187C96.2362 100.196 96.2362 99.2064 96.2215 98.2151C96.9125 98.1356 97.6104 98.1356 98.3015 98.2151C98.3015 99.2754 98.2825 100.336 98.2847 101.398C98.2847 102.025 98.6145 102.345 99.2385 102.381C100.11 102.431 100.598 101.986 100.631 101.017C100.663 100.087 100.631 99.1541 100.631 98.2235C101.682 98.1586 102.732 98.0562 103.783 98.3197C103.783 100.647 103.783 102.975 103.8 105.302C103.776 105.872 103.613 106.427 103.325 106.919C102.527 107.801 101.499 108.008 100.356 108.002C96.7761 107.977 93.1953 107.977 89.6138 108.002C88.5192 108.002 87.5506 107.766 86.8047 106.919C86.0757 105.737 86.4118 104.428 86.3614 103.167C87.0905 103.167 87.8321 103.167 88.5507 103.167C89.9268 103.148 90.7231 102.356 90.7483 100.982C90.7504 100.035 90.7588 99.0997 90.7714 98.167Z" fill="#B0BABF"/>
<path d="M98.4464 72.9863H102.38C102.447 73.1327 102.569 73.1285 102.701 73.0993C104.009 73.3295 105.195 74.0095 106.051 75.0207C106.907 76.0319 107.38 77.3103 107.386 78.6327C107.409 82.7922 107.386 86.9518 107.397 91.1113L102.697 91.0778C102.697 89.4717 102.693 87.8684 102.686 86.2679C103.266 85.743 103.462 85.0843 103.443 84.3168C103.415 83.2837 103.417 82.2464 103.443 81.2133C103.462 80.4438 103.256 79.7892 102.659 79.2768C102.722 76.6899 101.718 74.7263 99.3246 73.5447C99.0221 73.392 98.5809 73.4192 98.4464 72.9863Z" fill="#465A61"/>
<path d="M43.7214 65.4821C43.3663 68.0188 43.0911 70.568 42.5847 73.0859L42.5196 73.1152L42.4461 73.1006C42.236 72.8789 41.9523 72.9834 41.7023 72.9814C40.2904 72.9688 38.8786 72.9939 37.4667 72.9667C36.3801 72.9628 35.3396 72.5295 34.574 71.762C33.8084 70.9944 33.3805 69.9557 33.3844 68.8741C33.3883 67.7926 33.8237 66.7569 34.5948 65.9949C35.3659 65.2328 36.4095 64.8069 37.4961 64.8108C38.6201 64.7899 39.7463 64.838 40.8703 64.7941C41.8677 64.7422 42.8586 64.9813 43.7214 65.4821Z" fill="#B8CCD9"/>
<path d="M102.701 73.1057C102.569 73.135 102.447 73.1392 102.38 72.9928L101.283 65.481C102.223 64.9551 103.298 64.7186 104.373 64.8013C105.424 64.8473 106.474 64.8013 107.514 64.818C108.601 64.818 109.643 65.2477 110.411 66.0124C111.18 66.7772 111.611 67.8145 111.611 68.896C111.611 69.9775 111.18 71.0148 110.411 71.7795C109.643 72.5443 108.601 72.974 107.514 72.974C106.155 72.9991 104.794 72.974 103.432 72.9865C103.191 72.9865 102.911 72.8673 102.701 73.1057Z" fill="#B8CCD9"/>
<path d="M89.1578 45.6933L83.3632 45.6703L83.3506 36.0254H88.3741C88.4446 36.0994 88.5244 36.164 88.6115 36.2178C89.9688 36.7971 90.4646 37.872 90.4289 39.2773C90.3785 40.2386 90.3785 41.2019 90.4289 42.1632C90.5507 43.6752 89.9877 44.7773 88.6115 45.4863L89.1578 45.6933Z" fill="#FF707B"/>
<path d="M63.5612 45.6824H58.6575C58.5526 45.604 58.4416 45.534 58.3255 45.4733C56.9451 44.9316 56.4199 43.8839 56.4577 42.4598C56.4892 41.205 56.4577 39.9503 56.4577 38.6955C56.4577 37.6645 56.9872 36.9326 57.8465 36.4056L58.5062 36.002H63.5255C63.5381 39.2392 63.55 42.466 63.5612 45.6824Z" fill="#8CCBFF"/>
<path d="M58.5146 36.0258L57.8549 36.4294C56.9955 36.9564 56.4745 37.6842 56.4661 38.7193C56.4661 39.9741 56.4892 41.2289 56.4661 42.4836C56.4283 43.9078 56.9535 44.9555 58.3339 45.4971C58.45 45.5579 58.561 45.6278 58.6659 45.7062L57.0565 45.7648C56.2455 45.7543 55.4345 45.7522 54.6235 45.7334C52.9952 45.6916 51.785 44.556 51.7262 42.9458C51.6779 41.5655 51.6821 40.1832 51.7262 38.803C51.7745 37.1906 52.9091 36.0697 54.5227 36.03C55.8463 35.9819 57.1804 36.0195 58.5146 36.0258Z" fill="#AADCFF"/>
<path d="M89.1578 45.6923L88.62 45.4832C89.9961 44.7742 90.5592 43.6721 90.4374 42.1602C90.3869 41.1988 90.3869 40.2355 90.4374 39.2742C90.4731 37.8689 89.9772 36.794 88.62 36.2147C88.5329 36.1609 88.4531 36.0963 88.3826 36.0223C89.7692 36.0223 91.1559 35.9721 92.5384 36.0223C93.2389 36.0477 93.9024 36.3418 94.3899 36.8431C94.8775 37.3444 95.1513 38.014 95.1541 38.7117C95.1905 40.1435 95.1905 41.5753 95.1541 43.0071C95.1184 44.3142 94.2549 45.2845 92.9565 45.5773C91.803 45.6421 90.6454 45.4204 89.4919 45.6965L89.3343 45.7425L89.1578 45.6923Z" fill="#FF9198"/>
<path d="M89.4814 45.6992C90.6286 45.4232 91.7926 45.6449 92.946 45.58C91.801 45.8916 90.6475 45.6867 89.4814 45.6992Z" fill="#FB4755"/>
<path d="M47.5116 72.9618C47.5368 71.318 47.9675 69.7328 48.2175 68.1226C48.6377 65.4604 49.1483 62.8129 49.5349 60.1486C49.974 57.1121 52.6276 54.6967 55.7202 54.6632C57.6322 54.6423 59.5462 54.6068 61.456 54.6632C69.5932 54.9435 77.7325 54.7197 85.8697 54.8054C85.9759 54.8727 86.0877 54.9308 86.2038 54.979C88.8343 55.7967 90.3029 57.6119 90.7609 60.2741C91.1811 62.7376 91.5901 65.2046 91.9879 67.675C92.2694 69.4317 92.5194 71.1946 92.7842 72.9534C92.4438 72.9534 92.1034 72.9785 91.7652 72.9785H51.2766C50.6463 72.9785 50.016 72.9952 49.3857 73.0057C48.8124 72.922 48.2299 72.922 47.6566 73.0057L47.5116 72.9618Z" fill="#B2D9FD"/>
<path d="M72.4947 79.02C75.5552 79.02 78.6163 79.02 81.6782 79.02C83.1804 79.02 83.8086 79.662 83.8128 81.1677C83.8128 82.2865 83.8128 83.4074 83.8128 84.5283C83.7981 85.8626 83.109 86.561 81.777 86.561C75.6 86.5694 69.4244 86.5694 63.2502 86.561C61.9266 86.561 61.206 85.8479 61.1934 84.5409C61.1808 83.3426 61.1787 82.1443 61.1934 80.946C61.2081 79.7122 61.8972 79.0262 63.1515 79.02C66.2757 79.0137 69.381 79.022 72.4947 79.02ZM72.4632 83.9156C74.8443 83.9156 77.2255 83.9156 79.6066 83.9156C80.6172 83.9156 80.9975 83.5894 80.9975 82.7529C80.9975 82.0105 80.4869 81.5734 79.5688 81.5734C74.8583 81.5734 70.1493 81.5734 65.4416 81.5734C64.5214 81.5734 64.0108 82.0084 64.0108 82.7529C64.0108 83.5894 64.3911 83.9135 65.4017 83.9156C67.7534 83.9184 70.1073 83.9184 72.4632 83.9156Z" fill="#C4D2DC"/>
<path d="M102.657 79.2722C103.253 79.7846 103.459 80.4392 103.44 81.2087C103.417 82.2418 103.415 83.2791 103.44 84.3122C103.459 85.0797 103.264 85.7384 102.684 86.2633C102.211 86.4861 101.692 86.5923 101.169 86.5728C97.7152 86.5603 94.2612 86.5728 90.8071 86.5728C89.3616 86.5728 88.6872 85.9078 88.6809 84.4816C88.6809 83.2833 88.6683 82.085 88.6809 80.8867C88.6935 79.6884 89.3469 79.0234 90.5277 79.0171C94.1918 78.9962 97.856 79.0171 101.518 79.0171C101.912 79.0188 102.3 79.1058 102.657 79.2722Z" fill="#FEF3F0"/>
<path d="M49.4846 79.007C51.2368 79.007 52.989 79.007 54.7371 79.007C56.2225 79.007 56.8255 79.6218 56.8381 81.0982C56.8381 82.2422 56.8507 83.3882 56.8381 84.5342C56.8213 85.9081 56.1763 86.5585 54.8211 86.5606C51.2634 86.5606 47.7064 86.5606 44.1501 86.5606C42.837 86.5606 42.1478 85.8956 42.131 84.6157C42.1142 83.3359 42.1142 82.1167 42.131 80.8661C42.1499 79.6929 42.7991 79.0279 43.9904 79.0112C45.8204 78.9861 47.6504 79.0112 49.4824 79.0112L49.4846 79.007Z" fill="#FEF3F0"/>
<path d="M92.7842 72.9604C92.5194 71.2017 92.2694 69.4387 91.9879 67.6821C91.5929 65.2116 91.1839 62.7446 90.7609 60.2811C90.3029 57.6189 88.8343 55.8037 86.2038 54.986C86.0877 54.9378 85.9759 54.8797 85.8698 54.8125C87.3573 54.825 88.8742 54.6619 90.3281 54.8898C93.2695 55.3499 95.1982 57.667 95.6163 60.6701C96.1038 64.1562 96.7089 67.6235 97.2593 71.1013C97.356 71.714 97.4274 72.3309 97.5114 72.9479L92.7842 72.9604Z" fill="#8AC8FD"/>
<path d="M47.665 73.0217C48.2384 72.9381 48.8209 72.9381 49.3942 73.0217C48.8291 73.1822 48.2301 73.1822 47.665 73.0217Z" fill="#7A8D99"/>
<path d="M86.3468 103.162H58.5021C58.2689 103.162 58.0336 103.181 57.7983 103.19C57.0461 103.19 56.2939 103.171 55.5418 103.154C54.2559 103.129 53.4639 102.397 53.3861 101.096C53.3273 100.118 53.3357 99.1347 53.3147 98.156C53.363 97.7691 53.3903 97.3781 53.4639 96.9954C53.539 96.5951 53.7442 96.2305 54.0479 95.9576C54.3516 95.6848 54.737 95.5189 55.1447 95.4855C55.4829 95.4541 55.8254 95.4667 56.1658 95.4667C66.7128 95.4667 77.262 95.4918 87.8091 95.4416C89.7882 95.4311 90.7799 95.9456 90.7673 98.1602C90.7547 99.0929 90.7463 100.028 90.7295 100.96C90.7043 102.334 89.908 103.127 88.5318 103.146C87.807 103.162 87.0758 103.16 86.3468 103.162Z" fill="#F1F1F1"/>
<path d="M96.2215 98.2162C96.2215 99.2075 96.2446 100.197 96.2362 101.188C96.2452 101.343 96.2218 101.499 96.1675 101.645C96.1132 101.791 96.0291 101.924 95.9205 102.036C95.812 102.148 95.6813 102.236 95.5368 102.295C95.3922 102.355 95.2369 102.383 95.0806 102.38C94.2696 102.392 93.8935 102.033 93.8851 101.186C93.8851 100.195 93.8851 99.2054 93.8998 98.2162C94.6723 98.1493 95.4491 98.1493 96.2215 98.2162Z" fill="#86989E"/>
<path d="M100.623 98.2224C100.623 99.153 100.663 100.086 100.623 101.016C100.589 101.985 100.102 102.43 99.2301 102.38C98.5998 102.344 98.2783 102.016 98.2762 101.397C98.2762 100.335 98.2762 99.2743 98.2931 98.214C99.0684 98.1473 99.8482 98.1501 100.623 98.2224Z" fill="#86989E"/>
<path d="M45.917 98.2154C45.917 99.1774 45.9465 100.139 45.9296 101.101C45.9149 101.911 45.4107 102.404 44.6837 102.379C43.9064 102.354 43.5828 101.99 43.5786 101.099C43.5786 100.137 43.5786 99.1753 43.5954 98.2154C44.3679 98.1495 45.1446 98.1495 45.917 98.2154Z" fill="#86989E"/>
<path d="M50.161 98.209C50.161 99.2546 50.1862 100.3 50.1778 101.346C50.1778 102.099 49.8248 102.392 49.039 102.392C48.3163 102.392 47.9885 102.072 47.9885 101.346C47.9885 100.3 47.9885 99.2546 48.0032 98.2215L50.161 98.209Z" fill="#86989E"/>
<path d="M72.4633 83.9184C70.1073 83.9184 67.7528 83.9184 65.3997 83.9184C64.3891 83.9184 64.0067 83.5921 64.0088 82.7556C64.0088 82.0112 64.5193 81.5762 65.4396 81.5762C70.1486 81.5762 74.8577 81.5762 79.5668 81.5762C80.4849 81.5762 80.9955 82.0132 80.9955 82.7556C80.9955 83.5921 80.6152 83.9163 79.6046 83.9184C77.2248 83.9212 74.8444 83.9212 72.4633 83.9184Z" fill="#9FACBA"/>
</g>
<defs>
<clipPath id="clip0_4661_373">
<rect width="78" height="72" fill="white" transform="translate(33.5 36)"/>
</clipPath>
</defs>
</svg>
