<svg width="176" height="176" viewBox="0 0 176 176" fill="none" xmlns="http://www.w3.org/2000/svg">
<g filter="url(#filter0_d_4661_2625)">
<g filter="url(#filter1_d_4661_2625)">
<circle cx="88" cy="84" r="81" fill="url(#paint0_linear_4661_2625)"/>
</g>
<g clip-path="url(#clip0_4661_2625)">
<path d="M47.7539 106.298C47.7539 101.499 47.7393 96.7023 47.7684 91.9033C47.7902 88.4875 50.1321 85.7379 53.3224 85.2816L53.4072 85.2987L53.4824 85.2645C53.8096 85.228 54.1369 85.1645 54.4666 85.1596C56.0327 85.1377 57.6012 85.1304 59.1672 85.1182L59.3442 85.1889C59.9962 85.3761 60.6873 85.3761 61.3393 85.1889C62.0666 85.1767 62.7939 85.1572 63.5212 85.1572H110.229C110.619 85.1572 111.012 85.1377 111.405 85.1279L116.859 85.1133L117.938 85.167C118.093 85.6549 118.602 85.6305 118.949 85.8037C121.71 87.1822 122.869 89.4634 122.796 92.4912C122.387 92.2936 121.941 92.1878 121.487 92.1814C117.262 92.1814 113.034 92.1692 108.806 92.1814C107.444 92.1814 106.694 92.9938 106.675 94.3626C106.656 95.7313 106.675 97.1586 106.675 98.5566C106.675 100.213 107.461 100.996 109.128 100.996C113.114 100.996 117.099 100.996 121.085 100.996C121.688 101.019 122.287 100.895 122.833 100.635C122.833 102.506 122.837 104.376 122.845 106.247C122.452 106.247 122.062 106.279 121.669 106.279H74.326C65.4678 106.287 56.6104 106.293 47.7539 106.298ZM87.9963 92.1936C84.4036 92.1936 80.8084 92.1936 77.2157 92.1936C75.7612 92.1936 74.9733 93.0012 74.9563 94.4406C74.9393 95.8387 74.9418 97.2367 74.9563 98.6347C74.9709 100.16 75.8024 100.989 77.3296 100.992C84.4537 100.992 91.5793 100.992 98.7066 100.992C100.244 100.992 101.039 100.177 101.056 98.62C101.056 97.3123 101.056 96.0046 101.056 94.6993C101.056 92.9426 100.328 92.196 98.5927 92.1936C95.0597 92.1855 91.5268 92.1855 87.9939 92.1936H87.9963ZM61.446 92.1741C59.3321 92.1741 57.2206 92.1521 55.109 92.1741C53.7345 92.1936 52.9854 92.9694 52.9636 94.3382C52.9418 95.8021 52.9442 97.2537 52.9636 98.7127C52.983 100.172 53.7781 100.979 55.2933 100.982C59.3967 100.982 63.501 100.982 67.606 100.982C69.1696 100.982 69.9139 100.221 69.9333 98.6176C69.9502 97.2806 69.9333 95.9338 69.9333 94.609C69.9187 92.8841 69.223 92.1692 67.509 92.1692C65.4872 92.1643 63.4654 92.1741 61.4436 92.1741H61.446Z" fill="#5A6C76"/>
<path d="M47.7539 106.299C56.612 106.299 65.4694 106.299 74.326 106.299H121.667C122.059 106.299 122.45 106.277 122.842 106.268L128.265 106.307C128.993 106.307 129.72 106.277 130.435 106.307C131.103 106.301 131.746 106.563 132.223 107.033C132.7 107.504 132.972 108.145 132.981 108.817C133.008 109.879 133.008 110.942 132.981 112.006C132.939 113.497 131.948 114.514 130.464 114.541C128.656 114.578 126.845 114.541 125.036 114.563C124.716 114.563 124.37 114.458 124.079 114.704C122.867 114.397 121.654 114.517 120.442 114.592C119.551 114.512 118.655 114.512 117.764 114.592C116.966 114.499 116.161 114.499 115.364 114.592C114.476 114.515 113.584 114.515 112.697 114.592L109.087 114.536C109.102 111.943 107.958 111.342 105.674 111.364C93.5042 111.423 81.332 111.391 69.1623 111.394C68.7696 111.394 68.3745 111.379 67.9842 111.416C67.5137 111.455 67.069 111.648 66.7186 111.966C66.3682 112.285 66.1314 112.71 66.0448 113.177C65.9599 113.624 65.9284 114.08 65.8727 114.531L62.2242 114.597H59.7272C58.9305 114.507 58.1263 114.507 57.3296 114.597C56.4383 114.52 55.5421 114.52 54.6508 114.597C53.4048 114.541 52.1563 114.387 50.9272 114.739C50.6387 114.495 50.2945 114.573 49.9575 114.573C48.4787 114.573 46.9999 114.59 45.5236 114.556C44.0472 114.521 43.0702 113.528 43.0193 112.099C42.9805 110.979 42.9805 109.852 43.0193 108.729C43.0452 108.085 43.3146 107.475 43.7724 107.025C44.2303 106.574 44.8419 106.316 45.4823 106.304C46.246 106.265 46.9999 106.294 47.7539 106.299Z" fill="#CCD3D9"/>
<path d="M59.1673 85.1196C57.6012 85.1318 56.0327 85.1391 54.4667 85.1611C54.137 85.1611 53.8097 85.2294 53.4824 85.266C54.057 82.3382 54.3842 79.3543 54.7939 76.3948C55.3418 72.6351 55.8582 68.8705 56.4497 65.1205C57.0485 61.3242 60.6485 58.2891 64.4497 58.2891C66.3891 58.2891 68.3228 58.2891 70.2509 58.2891H107.368C108.758 58.2891 110.147 58.3061 111.538 58.3061C115.347 58.3061 118.961 61.351 119.553 65.1376C120.088 68.5655 120.522 72.0056 121.022 75.4384C121.07 75.7678 121.148 76.0923 121.211 76.4144L122.476 85.1489H117.938L116.859 85.0952C116.762 84.3754 116.68 83.6557 116.568 82.9408C115.933 78.8834 115.235 74.8383 114.673 70.7711C114.188 67.2675 111.955 64.5642 108.571 64.0275C106.893 63.7615 105.143 63.9518 103.427 63.9372C94.0376 63.8372 84.6461 64.0982 75.257 63.7713C73.0533 63.6957 70.8449 63.7371 68.6388 63.7713C65.0703 63.8103 62.0085 66.6283 61.5018 70.1709C61.0558 73.2792 60.457 76.368 59.9818 79.4739C59.6933 81.3525 59.1964 83.197 59.1673 85.1196Z" fill="white"/>
<path d="M77.6667 42.0391H100.532L100.547 53.2914C97.8971 53.3085 95.2498 53.3402 92.6001 53.3402C87.632 53.3402 82.6647 53.3288 77.6983 53.3061L77.6667 42.0391Z" fill="#D7EAFD"/>
<path d="M77.6862 53.2959C82.6543 53.3073 87.6215 53.3187 92.588 53.33C95.2377 53.33 97.885 53.2983 100.535 53.2812L107.221 53.3081L107.412 53.3691L107.369 58.2633H70.251C70.0765 56.6335 70.2219 54.9964 70.171 53.3642L72.028 53.2959H77.6862Z" fill="#5A6D77"/>
<path d="M57.3272 114.585C58.1239 114.494 58.9281 114.494 59.7248 114.585C59.7248 115.804 59.6982 117.024 59.7078 118.23C59.7078 119.074 60.0957 119.435 60.92 119.449C61.8266 119.464 62.2242 119.113 62.2339 118.23C62.2339 117.01 62.2339 115.79 62.2145 114.57L65.863 114.504C65.8872 115.646 65.8776 116.793 65.9454 117.934C66.0351 119.452 66.9491 120.306 68.4327 120.335C69.3006 120.355 70.1685 120.364 71.0363 120.377C70.9806 121.84 71.3054 123.356 70.4885 124.724C69.6836 125.678 68.6315 125.988 67.4291 125.986C63.1479 125.971 58.865 125.971 54.5806 125.986C53.3418 125.986 52.2679 125.678 51.4291 124.734C51.0145 123.953 50.8216 123.073 50.8715 122.189C50.8981 119.698 50.903 117.207 50.9151 114.714C52.1442 114.362 53.3927 114.516 54.6388 114.572C54.6388 115.692 54.6145 116.814 54.6194 117.937C54.6194 118.976 54.9975 119.401 55.8945 119.43C56.7333 119.459 57.3151 118.883 57.3321 117.939C57.3612 116.829 57.3345 115.707 57.3272 114.585Z" fill="#B0BABF"/>
<path d="M109.082 114.529L112.692 114.586C112.692 115.74 112.663 116.894 112.675 118.05C112.675 119.026 113.119 119.458 114.055 119.443C114.235 119.447 114.414 119.414 114.581 119.345C114.748 119.275 114.898 119.172 115.024 119.042C115.149 118.911 115.246 118.756 115.309 118.585C115.371 118.415 115.398 118.234 115.388 118.053C115.388 116.896 115.388 115.742 115.371 114.586C116.168 114.493 116.974 114.493 117.771 114.586C117.771 115.823 117.749 117.06 117.752 118.299C117.752 119.031 118.132 119.404 118.852 119.446C119.858 119.504 120.421 118.985 120.459 117.855C120.496 116.769 120.459 115.681 120.459 114.595C121.672 114.52 122.884 114.4 124.096 114.708C124.096 117.423 124.096 120.139 124.115 122.854C124.088 123.518 123.9 124.166 123.567 124.74C122.646 125.77 121.461 126.011 120.142 126.004C116.011 125.975 111.879 125.975 107.747 126.004C106.484 126.004 105.366 125.728 104.505 124.74C103.664 123.362 104.052 121.834 103.994 120.363C104.835 120.363 105.691 120.363 106.52 120.363C108.108 120.341 109.027 119.416 109.056 117.813C109.058 116.708 109.068 115.618 109.082 114.529Z" fill="#B0BABF"/>
<path d="M117.938 85.1504H122.476C122.554 85.3212 122.695 85.3163 122.847 85.2821C124.357 85.5507 125.725 86.344 126.713 87.5238C127.701 88.7036 128.246 90.195 128.253 91.7379C128.28 96.5906 128.253 101.443 128.265 106.296L122.842 106.257C122.842 104.383 122.838 102.513 122.83 100.646C123.499 100.033 123.725 99.2647 123.703 98.3692C123.672 97.164 123.674 95.9538 123.703 94.7486C123.725 93.8507 123.487 93.0871 122.799 92.4893C122.872 89.4713 121.713 87.1803 118.952 85.8018C118.602 85.6237 118.093 85.6554 117.938 85.1504Z" fill="#465A61"/>
<path d="M54.794 76.3968C54.3843 79.3562 54.0667 82.3304 53.4825 85.2679L53.4073 85.302L53.3225 85.285C53.0801 85.0263 52.7528 85.1483 52.4643 85.1459C50.8352 85.1313 49.2061 85.1605 47.577 85.1288C46.3233 85.1243 45.1227 84.6187 44.2393 83.7233C43.356 82.8278 42.8622 81.6159 42.8667 80.3541C42.8712 79.0923 43.3736 77.884 44.2633 76.995C45.153 76.106 46.3572 75.609 47.611 75.6136C48.9079 75.5892 50.2073 75.6453 51.5043 75.5941C52.6551 75.5335 53.7985 75.8125 54.794 76.3968Z" fill="#B8CCD9"/>
<path d="M122.847 85.2913C122.695 85.3254 122.554 85.3303 122.476 85.1595L121.211 76.3958C122.296 75.7822 123.537 75.5063 124.777 75.6028C125.989 75.6565 127.201 75.6028 128.401 75.6223C129.655 75.6223 130.857 76.1236 131.744 77.0158C132.63 77.9081 133.129 79.1182 133.129 80.38C133.129 81.6418 132.63 82.8519 131.744 83.7441C130.857 84.6363 129.655 85.1376 128.401 85.1376C126.833 85.1669 125.262 85.1376 123.691 85.1522C123.412 85.1522 123.09 85.0132 122.847 85.2913Z" fill="#B8CCD9"/>
<path d="M107.221 53.3085L100.535 53.2817L100.52 42.0293H106.316C106.398 42.1156 106.49 42.191 106.59 42.2538C108.156 42.9296 108.729 44.1836 108.687 45.8232C108.629 46.9447 108.629 48.0686 108.687 49.1901C108.828 50.9541 108.178 52.2399 106.59 53.067L107.221 53.3085Z" fill="#FF707B"/>
<path d="M77.6861 53.2958H72.0279C71.9069 53.2043 71.7788 53.1227 71.6449 53.0518C70.0521 52.4199 69.4461 51.1976 69.4897 49.5361C69.5261 48.0722 69.4897 46.6083 69.4897 45.1444C69.4897 43.9416 70.1006 43.0877 71.0922 42.4728L71.8534 42.002H77.6449C77.6594 45.7788 77.6732 49.5434 77.6861 53.2958Z" fill="#8CCBFF"/>
<path d="M71.863 42.0291L71.1018 42.5C70.1103 43.1148 69.509 43.9639 69.4993 45.1716C69.4993 46.6355 69.526 48.0994 69.4993 49.5632C69.4557 51.2247 70.0618 52.4471 71.6545 53.079C71.7885 53.1499 71.9165 53.2315 72.0375 53.323L70.1806 53.3913C69.2448 53.3791 68.309 53.3766 67.3733 53.3547C65.4945 53.3059 64.0981 51.9811 64.0303 50.1024C63.9745 48.4922 63.9793 46.8794 64.0303 45.2692C64.086 43.3881 65.3951 42.0804 67.2569 42.034C68.7842 41.9779 70.3236 42.0218 71.863 42.0291Z" fill="#AADCFF"/>
<path d="M107.221 53.3077L106.6 53.0637C108.188 52.2366 108.838 50.9508 108.697 49.1868C108.639 48.0653 108.639 46.9415 108.697 45.8199C108.738 44.1804 108.166 42.9263 106.6 42.2505C106.5 42.1878 106.408 42.1123 106.326 42.026C107.926 42.026 109.526 41.9675 111.121 42.026C111.93 42.0556 112.695 42.3988 113.258 42.9836C113.82 43.5684 114.136 44.3496 114.14 45.1636C114.182 46.8341 114.182 48.5045 114.14 50.175C114.098 51.6998 113.102 52.8319 111.604 53.1735C110.273 53.2491 108.937 52.9905 107.606 53.3126L107.424 53.3662L107.221 53.3077Z" fill="#FF9198"/>
<path d="M107.594 53.3167C108.917 52.9947 110.26 53.2533 111.591 53.1777C110.27 53.5412 108.939 53.3021 107.594 53.3167Z" fill="#FB4755"/>
<path d="M59.1672 85.122C59.1963 83.2044 59.6933 81.355 59.9818 79.4763C60.4666 76.3705 61.0557 73.2817 61.5018 70.1734C62.0084 66.6308 65.0703 63.8128 68.6388 63.7738C70.8448 63.7494 73.0533 63.7079 75.2569 63.7738C84.646 64.1007 94.0375 63.8396 103.427 63.9397C103.549 64.0181 103.678 64.0859 103.812 64.1422C106.847 65.0961 108.542 67.2139 109.07 70.3198C109.555 73.1938 110.027 76.072 110.486 78.9542C110.811 81.0037 111.099 83.0604 111.405 85.1123C111.012 85.1123 110.619 85.1416 110.229 85.1416H63.5115C62.7842 85.1416 62.0569 85.1611 61.3297 85.1733C60.6681 85.0757 59.996 85.0757 59.3345 85.1733L59.1672 85.122Z" fill="#B2D9FD"/>
<path d="M87.994 92.1903C91.5253 92.1903 95.0574 92.1903 98.5903 92.1903C100.324 92.1903 101.049 92.9393 101.053 94.696C101.053 96.0013 101.053 97.309 101.053 98.6167C101.036 100.173 100.241 100.988 98.7043 100.988C91.577 100.998 84.4513 100.998 77.3273 100.988C75.8 100.988 74.9685 100.156 74.954 98.6314C74.9394 97.2334 74.937 95.8353 74.954 94.4373C74.9709 92.9979 75.7661 92.1976 77.2134 92.1903C80.8182 92.183 84.4012 92.1927 87.994 92.1903ZM87.9576 97.9019C90.7051 97.9019 93.4526 97.9019 96.2 97.9019C97.3661 97.9019 97.8049 97.5212 97.8049 96.5453C97.8049 95.6792 97.2158 95.1693 96.1564 95.1693C90.7213 95.1693 85.2877 95.1693 79.8558 95.1693C78.794 95.1693 78.2049 95.6768 78.2049 96.5453C78.2049 97.5212 78.6437 97.8994 79.8097 97.9019C82.5233 97.9051 85.2392 97.9051 87.9576 97.9019Z" fill="#C4D2DC"/>
<path d="M122.796 92.4843C123.485 93.082 123.722 93.8457 123.701 94.7435C123.674 95.9488 123.671 97.1589 123.701 98.3642C123.722 99.2596 123.497 100.028 122.828 100.641C122.283 100.9 121.683 101.024 121.08 101.002C117.095 100.987 113.109 101.002 109.124 101.002C107.456 101.002 106.678 100.226 106.67 98.5618C106.67 97.1638 106.656 95.7658 106.67 94.3678C106.685 92.9698 107.439 92.1939 108.801 92.1866C113.029 92.1622 117.257 92.1866 121.482 92.1866C121.937 92.1885 122.385 92.2901 122.796 92.4843Z" fill="#FEF3F0"/>
<path d="M61.4437 92.1742C63.4655 92.1742 65.4874 92.1742 67.5043 92.1742C69.2183 92.1742 69.914 92.8915 69.9286 94.614C69.9286 95.9485 69.9431 97.2855 69.9286 98.6226C69.9092 100.226 69.1649 100.984 67.6013 100.987C63.4962 100.987 59.392 100.987 55.2886 100.987C53.7734 100.987 52.9783 100.211 52.9589 98.7177C52.9395 97.2245 52.9395 95.8021 52.9589 94.3431C52.9807 92.9744 53.7298 92.1985 55.1043 92.179C57.2158 92.1498 59.3274 92.179 61.4413 92.179L61.4437 92.1742Z" fill="#FEF3F0"/>
<path d="M111.405 85.1215C111.099 83.0696 110.811 81.0128 110.486 78.9634C110.03 76.0812 109.558 73.203 109.07 70.3289C108.542 67.2231 106.847 65.1053 103.812 64.1513C103.678 64.095 103.549 64.0273 103.427 63.9488C105.143 63.9635 106.893 63.7732 108.571 64.0391C111.965 64.5759 114.19 67.2792 114.673 70.7827C115.235 74.8499 115.933 78.8951 116.569 82.9525C116.68 83.6673 116.763 84.3871 116.859 85.1068L111.405 85.1215Z" fill="#8AC8FD"/>
<path d="M59.3442 85.1923C60.0058 85.0947 60.6779 85.0947 61.3394 85.1923C60.6874 85.3795 59.9963 85.3795 59.3442 85.1923Z" fill="#7A8D99"/>
<path d="M103.977 120.358H71.8485C71.5794 120.358 71.3079 120.38 71.0364 120.389C70.1685 120.389 69.3006 120.367 68.4327 120.348C66.9491 120.319 66.0352 119.465 65.9455 117.947C65.8776 116.805 65.8873 115.658 65.863 114.517C65.9188 114.065 65.9503 113.609 66.0352 113.163C66.1218 112.696 66.3586 112.27 66.709 111.952C67.0594 111.634 67.5041 111.44 67.9746 111.401C68.3649 111.364 68.76 111.379 69.1527 111.379C81.3224 111.379 93.4945 111.408 105.664 111.35C107.948 111.338 109.092 111.938 109.078 114.522C109.063 115.61 109.053 116.7 109.034 117.788C109.005 119.391 108.086 120.316 106.498 120.338C105.662 120.358 104.818 120.355 103.977 120.358Z" fill="white"/>
<path d="M115.371 114.586C115.371 115.742 115.398 116.896 115.388 118.053C115.398 118.234 115.371 118.416 115.309 118.586C115.246 118.756 115.149 118.911 115.024 119.042C114.899 119.173 114.748 119.276 114.581 119.345C114.414 119.414 114.235 119.448 114.055 119.444C113.119 119.458 112.685 119.039 112.675 118.05C112.675 116.894 112.675 115.74 112.692 114.586C113.584 114.508 114.48 114.508 115.371 114.586Z" fill="#86989E"/>
<path d="M120.45 114.593C120.45 115.679 120.496 116.767 120.45 117.853C120.411 118.982 119.848 119.502 118.842 119.443C118.115 119.402 117.744 119.019 117.742 118.297C117.742 117.057 117.742 115.82 117.761 114.583C118.656 114.506 119.556 114.509 120.45 114.593Z" fill="#86989E"/>
<path d="M57.3271 114.585C57.3271 115.707 57.361 116.83 57.3416 117.952C57.3247 118.896 56.7428 119.472 55.9041 119.443C55.0071 119.413 54.6338 118.989 54.6289 117.949C54.6289 116.827 54.6289 115.705 54.6483 114.585C55.5396 114.508 56.4358 114.508 57.3271 114.585Z" fill="#86989E"/>
<path d="M62.2242 114.578C62.2242 115.798 62.2533 117.018 62.2436 118.238C62.2436 119.116 61.8363 119.458 60.9297 119.458C60.0957 119.458 59.7175 119.084 59.7175 118.238C59.7175 117.018 59.7175 115.798 59.7345 114.593L62.2242 114.578Z" fill="#86989E"/>
<path d="M87.9576 97.9045C85.2392 97.9045 82.5224 97.9045 79.8072 97.9045C78.6412 97.9045 78.2 97.5238 78.2024 96.5479C78.2024 95.6794 78.7915 95.1719 79.8533 95.1719C85.2868 95.1719 90.7204 95.1719 96.1539 95.1719C97.2133 95.1719 97.8024 95.6818 97.8024 96.5479C97.8024 97.5238 97.3636 97.902 96.1975 97.9045C93.4517 97.9077 90.705 97.9077 87.9576 97.9045Z" fill="#9FACBA"/>
</g>
</g>
<defs>
<filter id="filter0_d_4661_2625" x="0" y="0" width="176" height="176" filterUnits="userSpaceOnUse" color-interpolation-filters="sRGB">
<feFlood flood-opacity="0" result="BackgroundImageFix"/>
<feColorMatrix in="SourceAlpha" type="matrix" values="0 0 0 0 0 0 0 0 0 0 0 0 0 0 0 0 0 0 127 0" result="hardAlpha"/>
<feOffset dy="4"/>
<feGaussianBlur stdDeviation="3.5"/>
<feComposite in2="hardAlpha" operator="out"/>
<feColorMatrix type="matrix" values="0 0 0 0 0.627431 0 0 0 0 0.685336 0 0 0 0 0.8125 0 0 0 0.29 0"/>
<feBlend mode="normal" in2="BackgroundImageFix" result="effect1_dropShadow_4661_2625"/>
<feBlend mode="normal" in="SourceGraphic" in2="effect1_dropShadow_4661_2625" result="shape"/>
</filter>
<filter id="filter1_d_4661_2625" x="0" y="0" width="176" height="176" filterUnits="userSpaceOnUse" color-interpolation-filters="sRGB">
<feFlood flood-opacity="0" result="BackgroundImageFix"/>
<feColorMatrix in="SourceAlpha" type="matrix" values="0 0 0 0 0 0 0 0 0 0 0 0 0 0 0 0 0 0 127 0" result="hardAlpha"/>
<feOffset dy="4"/>
<feGaussianBlur stdDeviation="3.5"/>
<feComposite in2="hardAlpha" operator="out"/>
<feColorMatrix type="matrix" values="0 0 0 0 0.627431 0 0 0 0 0.685336 0 0 0 0 0.8125 0 0 0 0.29 0"/>
<feBlend mode="normal" in2="BackgroundImageFix" result="effect1_dropShadow_4661_2625"/>
<feBlend mode="normal" in="SourceGraphic" in2="effect1_dropShadow_4661_2625" result="shape"/>
</filter>
<linearGradient id="paint0_linear_4661_2625" x1="164.899" y1="155.772" x2="41.8608" y2="11.2025" gradientUnits="userSpaceOnUse">
<stop stop-color="#218CEF"/>
<stop offset="1" stop-color="#37C6F3"/>
</linearGradient>
<clipPath id="clip0_4661_2625">
<rect width="90" height="84" fill="white" transform="translate(43 42)"/>
</clipPath>
</defs>
</svg>
