<svg width="49" height="49" viewBox="0 0 49 49" fill="none" xmlns="http://www.w3.org/2000/svg">
<g clip-path="url(#clip0_2232_129)">
<path d="M13.3376 24.8947C12.8802 22.8664 12.4411 20.9102 11.9922 18.9179C12.708 18.7986 13.3631 18.6752 14.0224 18.5891C14.1424 18.5739 14.3047 18.689 14.4092 18.7875C15.766 20.1166 17.4009 20.7423 19.3111 20.7298C22.7813 20.7169 26.2511 20.7169 29.7204 20.7298C31.6094 20.7298 33.2259 20.1069 34.5785 18.8C34.7408 18.6661 34.9503 18.6004 35.1615 18.6169C35.7531 18.6779 36.339 18.7986 37.0054 18.9082L35.6613 24.8905C35.3677 24.8905 35.0895 24.8905 34.8142 24.8905C34.1634 24.9002 33.8839 25.1333 33.7949 25.7659C33.634 26.9202 33.3996 28.0495 32.8688 29.1053C31.0729 32.6763 27.3627 34.2649 23.8006 33.9971C20.617 33.7557 18.0955 32.367 16.4182 29.6283C15.7123 28.4796 15.4017 27.2074 15.221 25.8922C15.1081 25.0736 14.8794 24.8933 14.0506 24.8905L13.3376 24.8947Z" fill="white"/>
<path d="M24.9991 9.89878C25.5469 9.60882 26.1286 9.3702 26.6368 9.01503C27.9795 8.06469 28.6614 6.73699 28.7192 5.11379C28.7489 4.26473 28.7334 3.41428 28.7192 2.56522C28.7192 1.88958 28.403 1.59407 27.7084 1.59407C25.5596 1.58852 23.4108 1.58852 21.262 1.59407C20.6832 1.59407 20.2921 1.85212 20.285 2.32798C20.2681 3.46977 20.2003 4.62821 20.3542 5.75336C20.6253 7.72479 21.8211 9.03584 23.7158 9.72674L24.0094 9.83496C22.2644 9.99451 20.5081 10.0944 18.7716 10.3289C16.4548 10.6424 14.1493 11.0489 11.8438 11.4387C11.3779 11.5178 11.0122 11.4623 10.6353 11.1502C9.54396 10.2665 8.63364 9.18688 7.9528 7.96897C7.76361 7.62906 7.81868 7.43483 8.06857 7.16569C10.7143 4.31467 13.9657 2.50001 17.7678 1.60101C19.853 1.10711 21.9298 0.577138 24.0122 0.0749156C24.2616 0.00312505 24.5245 -0.0106495 24.7803 0.0346822C27.4246 0.679802 30.0845 1.2833 32.7006 2.02415C35.9351 2.94674 38.6514 4.73227 40.9286 7.1754C41.1927 7.45287 41.1983 7.6582 41.019 7.98145C40.3259 9.23271 39.385 10.3351 38.2518 11.2237C38.1283 11.3313 37.9808 11.4092 37.8213 11.4511C37.6618 11.493 37.4945 11.4978 37.3328 11.4651C34.9228 11.0628 32.5156 10.6327 30.0944 10.3039C28.4919 10.0888 26.8684 10.0417 25.2546 9.91959L24.9991 9.89878Z" fill="white"/>
<path d="M37.1575 17.242C32.891 16.5761 28.736 15.7242 24.4667 15.7242C20.1973 15.7242 16.0536 16.6066 11.8394 17.2406V13.1146C16.0367 12.4681 20.2058 11.5622 24.5062 11.5649C28.8066 11.5677 32.9559 12.457 37.1575 13.1077V17.242Z" fill="white"/>
<path d="M48.9998 48.1204V48.9986H25.7754L28.1755 46.5777L29.6621 47.8263C30.3257 48.3812 30.769 48.3285 31.2688 47.6154C32.3771 46.0324 33.4966 44.4578 34.5753 42.8554C34.8336 42.4725 35.0835 42.3462 35.5127 42.4961C35.7598 42.5821 36.0224 42.6265 36.3358 42.7042C36.3358 43.1814 36.3358 43.6601 36.3358 44.1387C36.3471 45.5552 37.2704 46.561 38.6893 46.7428C41.9525 47.1654 45.2147 47.5937 48.476 48.0275C48.644 48.0469 48.8134 48.0857 48.9998 48.1204Z" fill="white"/>
<path d="M0.00683594 48.101L3.92463 47.5863C6.08754 47.3088 8.25327 47.0314 10.419 46.7331C11.7701 46.5458 12.6469 45.5302 12.6638 44.1887C12.6709 43.7059 12.6638 43.2175 12.6638 42.768C12.7118 42.7278 12.7217 42.7125 12.7358 42.7084C14.0191 42.3019 14.0191 42.3033 14.7801 43.3951C15.7674 44.8084 16.7557 46.2221 17.7449 47.6363C18.2292 48.3299 18.6753 48.3854 19.3149 47.8541C19.7991 47.4517 20.2791 47.0452 20.7648 46.6374L23.0378 48.9959H0.00683594V48.101Z" fill="white"/>
<path d="M24.5035 41.3376C22.5778 39.9197 20.7 38.5407 18.8322 37.1506C18.6988 37.0487 18.612 36.899 18.5908 36.7344C18.5682 35.8895 18.5795 35.0446 18.5795 34.1178C20.4586 35.1722 22.4154 35.7174 24.5091 35.7119C26.5869 35.7085 28.6256 35.1565 30.4119 34.1136C30.4119 35.064 30.4119 35.9394 30.4049 36.8148C30.3843 36.9301 30.319 37.033 30.2228 37.102C28.3323 38.513 26.4306 39.9156 24.5035 41.3376Z" fill="white"/>
<path d="M18.3438 38.8793L23.144 42.4212L18.7405 46.1365L15.7573 41.8649C16.9845 41.2415 17.9134 40.1693 18.3438 38.8793Z" fill="white"/>
<path d="M25.853 42.4226L30.6532 38.8876C31.091 40.1721 32.0208 41.2385 33.2453 41.8607L30.2635 46.1365L25.853 42.4226Z" fill="white"/>
<path d="M32.6453 18.2146C31.7982 18.7862 30.9779 19.047 30.104 19.0567C26.3759 19.0715 22.6468 19.0715 18.9168 19.0567C18.0007 19.0544 17.1097 18.7626 16.3755 18.2243C21.7428 17.1453 27.2766 17.142 32.6453 18.2146Z" fill="white"/>
<path d="M21.9747 3.27417H26.9952C26.9952 4.03722 26.9952 4.77668 26.9952 5.51614C26.9904 5.55056 26.9824 5.58447 26.9712 5.61741C26.7015 6.89794 25.3843 8.25339 24.461 8.20067C23.3866 8.13824 22.0962 6.67458 21.986 5.33578C21.9338 4.66707 21.9747 3.99005 21.9747 3.27417Z" fill="white"/>
<path d="M24.5022 43.4756L26.8896 45.4914C26.2698 46.1046 25.7178 46.7664 25.0401 47.2603C24.7902 47.442 24.138 47.3727 23.8528 47.1687C23.2217 46.7164 22.7064 46.1074 22.0908 45.5039L24.5022 43.4756Z" fill="white"/>
<path d="M44.8237 44.6007L48.9928 45.5302V46.4112L44.8237 45.8646V44.6007Z" fill="white"/>
<path d="M0 46.4195V45.5386L4.18039 44.6049V45.8674L0 46.4195Z" fill="white"/>
<path d="M10.9218 43.0968C11.1477 44.7797 10.8455 45.1626 9.30807 45.1556C9.29411 45.073 9.28515 44.9896 9.28125 44.9059C9.28125 44.4398 9.28125 43.9736 9.28125 43.4686L10.9218 43.0968Z" fill="white"/>
<path d="M38.0712 43.087L39.6976 43.4575V45.1348C38.1997 45.1986 37.8947 44.8254 38.0712 43.087Z" fill="white"/>
<path d="M7.56296 45.4192L5.8956 45.6426C5.87877 45.2694 5.88349 44.8956 5.90972 44.523C5.92794 44.4439 5.96459 44.37 6.01676 44.3072C6.06894 44.2444 6.13524 44.1943 6.21044 44.1609C6.64387 44.0291 7.09283 43.9542 7.56296 43.8529V45.4192Z" fill="white"/>
<path d="M41.458 43.8557C41.6415 43.8904 41.7954 43.9181 41.9493 43.9514C43.2553 44.2289 43.2553 44.2289 43.0477 45.6163L41.458 45.4262V43.8557Z" fill="white"/>
</g>
<defs>
<clipPath id="clip0_2232_129">
<rect width="49" height="49" fill="white"/>
</clipPath>
</defs>
</svg>
