<svg width="35" height="27" viewBox="0 0 35 27" fill="none" xmlns="http://www.w3.org/2000/svg">
<g clip-path="url(#clip0_1594_6735)">
<path d="M5.23895 19.5646H29.7241C29.8168 19.5646 29.9086 19.5829 29.9942 19.6186C30.0799 19.6543 30.1577 19.7066 30.2233 19.7725C30.2888 19.8384 30.3408 19.9167 30.3763 20.0028C30.4118 20.0889 30.43 20.1812 30.43 20.2744V24.1476C30.43 24.904 30.1312 25.6294 29.5993 26.1642C29.0675 26.6991 28.3461 26.9995 27.5939 26.9995H7.35678C6.60458 26.9995 5.8832 26.6991 5.35131 26.1642C4.81943 25.6294 4.52062 24.904 4.52062 24.1476V20.2869C4.51894 20.1916 4.53637 20.0969 4.57188 20.0085C4.60738 19.9201 4.66023 19.8398 4.72727 19.7724C4.79431 19.705 4.87417 19.6518 4.96208 19.6161C5.04999 19.5804 5.14415 19.5629 5.23895 19.5646Z" fill="white"/>
<path d="M34.8392 11.9304L32.5603 7.29751C32.3979 6.95836 32.1427 6.67277 31.8246 6.47426C31.5066 6.27574 31.1388 6.17249 30.7644 6.17663C28.4979 6.17763 26.2539 5.72466 24.1633 4.84409C22.0729 3.97765 20.1712 2.70843 18.5653 1.10793C17.9711 0.510503 17.0044 0.510503 16.4103 1.10793C13.1784 4.36057 8.79594 6.19223 4.22341 6.20156C3.84939 6.19892 3.4823 6.30278 3.16451 6.50113C2.84673 6.69947 2.59127 6.9842 2.42764 7.3224L0.161168 11.9552C0.0176536 12.2512 -0.0319695 12.5843 0.0189793 12.9095C0.0699281 13.2347 0.218964 13.5363 0.445999 13.7735L2.923 16.339C3.0859 16.5018 3.27915 16.6308 3.49168 16.7184C3.7042 16.806 3.93181 16.8506 4.1615 16.8496H30.8635C31.3269 16.8489 31.7715 16.6656 32.102 16.339L34.579 13.7735C34.8057 13.5305 34.9523 13.2231 34.9989 12.8933C35.0454 12.5634 34.9897 12.2272 34.8392 11.9304ZM17.5002 13.5992C15.6796 13.5992 14.2057 10.934 14.2057 9.2652C14.1782 8.81392 14.2428 8.36174 14.3956 7.93651C14.5484 7.51128 14.7861 7.12199 15.0941 6.79263C15.4022 6.46328 15.774 6.20082 16.1868 6.02141C16.5995 5.84201 17.0443 5.74944 17.494 5.74944C17.9436 5.74944 18.3885 5.84201 18.8012 6.02141C19.2139 6.20082 19.5857 6.46328 19.8938 6.79263C20.2018 7.12199 20.4395 7.51128 20.5923 7.93651C20.7451 8.36174 20.8097 8.81392 20.7821 9.2652C20.7821 10.934 19.3084 13.5992 17.5002 13.5992Z" fill="white"/>
<path d="M18.6518 9.552C18.6518 10.1373 18.1316 11.0714 17.5 11.0714C16.8683 11.0714 16.3358 10.1373 16.3358 9.552C16.319 9.38897 16.3364 9.2242 16.387 9.06837C16.4375 8.91255 16.5201 8.76914 16.6292 8.64742C16.7384 8.5257 16.8717 8.42837 17.0207 8.36176C17.1696 8.29515 17.3308 8.26074 17.4938 8.26074C17.6568 8.26074 17.818 8.29515 17.9669 8.36176C18.1158 8.42837 18.2492 8.5257 18.3583 8.64742C18.4675 8.76914 18.5501 8.91255 18.6006 9.06837C18.6511 9.2242 18.6686 9.38897 18.6518 9.552Z" fill="white"/>
</g>
<defs>
<clipPath id="clip0_1594_6735">
<rect width="35" height="27" fill="white"/>
</clipPath>
</defs>
</svg>
