<svg width="375" height="812" viewBox="0 0 375 812" fill="none" xmlns="http://www.w3.org/2000/svg">
    <defs>
        <linearGradient id="paint0_linear_766_19618" x1="362.5" y1="-18.5" x2="-3.00292e-06" y2="817" gradientUnits="userSpaceOnUse">
            <stop stop-color="#92A3FF"/>
            <stop offset="1" stop-color="#A2B0FF"/>
        </linearGradient>
        <clipPath id="clip0_766_19618">
            <rect y="-2" width="377" height="819" rx="10" fill="white"/>
        </clipPath>
        <clipPath id="clip1_766_19618">
            <rect width="424" height="320" fill="white" transform="translate(107 407)"/>
        </clipPath>
        <clipPath id="clip2_766_19618">
            <rect width="424" height="320" fill="white" transform="translate(131 380)"/>
        </clipPath>
        <clipPath id="clip3_766_19618">
            <rect width="194" height="146" fill="white" transform="translate(-60 26)"/>
        </clipPath>
    </defs>
    <g clip-path="url(#clip0_766_19618)">
<rect y="-2" width="377" height="819" rx="10" fill="url(#paint0_linear_766_19618)"/>
<path d="M41.851 271V236.7H57.188C61.0427 236.7 64.048 237.468 66.204 239.003C68.36 240.506 69.438 242.678 69.438 245.52C69.438 248.329 68.409 250.502 66.351 252.037C64.293 253.54 61.5817 254.291 58.217 254.291L59.099 252.527C62.921 252.527 65.8773 253.295 67.968 254.83C70.0587 256.365 71.104 258.587 71.104 261.494C71.104 264.467 70.0097 266.802 67.821 268.501C65.6323 270.167 62.3983 271 58.119 271H41.851ZM48.123 266.1H57.923C60.1443 266.1 61.8267 265.692 62.97 264.875C64.1133 264.026 64.685 262.735 64.685 261.004C64.685 259.273 64.1133 258.015 62.97 257.231C61.8267 256.414 60.1443 256.006 57.923 256.006H48.123V266.1ZM48.123 251.351H56.649C58.707 251.351 60.275 250.943 61.353 250.126C62.431 249.277 62.97 248.068 62.97 246.5C62.97 244.867 62.431 243.642 61.353 242.825C60.275 242.008 58.707 241.6 56.649 241.6H48.123V251.351ZM103.678 271V244.834H109.803V271H103.678ZM90.0066 253.458C93.3713 253.458 95.9193 254.209 97.6506 255.712C99.4146 257.215 100.297 259.338 100.297 262.082C100.297 264.924 99.3166 267.145 97.3566 268.746C95.4293 270.314 92.6853 271.082 89.1246 271.049L77.2666 271V244.834H83.3916V253.409L90.0066 253.458ZM88.5856 266.541C90.3823 266.574 91.7543 266.198 92.7016 265.414C93.6489 264.63 94.1226 263.487 94.1226 261.984C94.1226 260.481 93.6489 259.403 92.7016 258.75C91.7869 258.064 90.4149 257.705 88.5856 257.672L83.3916 257.623V266.492L88.5856 266.541ZM125.574 271.441C127.991 271.441 130.131 271.098 131.993 270.412C133.888 269.726 135.374 268.779 136.452 267.57C137.53 266.329 138.069 264.908 138.069 263.307C138.069 261.314 137.236 259.746 135.57 258.603C133.904 257.427 131.617 256.839 128.71 256.839L128.514 258.162C130.213 258.162 131.715 257.884 133.022 257.329C134.361 256.774 135.407 256.006 136.158 255.026C136.942 254.013 137.334 252.886 137.334 251.645C137.334 250.142 136.795 248.836 135.717 247.725C134.639 246.614 133.169 245.765 131.307 245.177C129.445 244.589 127.322 244.344 124.937 244.442C123.369 244.475 121.785 244.703 120.184 245.128C118.616 245.52 116.999 246.092 115.333 246.843L116.901 251.351C118.338 250.73 119.743 250.257 121.115 249.93C122.52 249.603 123.875 249.44 125.182 249.44C126.423 249.44 127.485 249.571 128.367 249.832C129.249 250.061 129.919 250.42 130.376 250.91C130.866 251.367 131.111 251.906 131.111 252.527C131.111 253.148 130.915 253.687 130.523 254.144C130.131 254.601 129.559 254.944 128.808 255.173C128.089 255.402 127.207 255.516 126.162 255.516H121.605V259.632H126.652C128.318 259.632 129.592 259.91 130.474 260.465C131.389 260.988 131.846 261.772 131.846 262.817C131.846 263.536 131.568 264.173 131.013 264.728C130.49 265.283 129.739 265.708 128.759 266.002C127.779 266.263 126.603 266.394 125.231 266.394C123.63 266.394 122.03 266.198 120.429 265.806C118.828 265.414 117.391 264.859 116.117 264.14L114.402 268.697C115.97 269.579 117.718 270.265 119.645 270.755C121.605 271.212 123.581 271.441 125.574 271.441ZM155.631 271.343C152.952 271.343 150.568 270.771 148.477 269.628C146.386 268.452 144.737 266.851 143.528 264.826C142.319 262.801 141.715 260.498 141.715 257.917C141.715 255.304 142.319 253.001 143.528 251.008C144.737 248.983 146.386 247.398 148.477 246.255C150.568 245.112 152.952 244.54 155.631 244.54C158.342 244.54 160.743 245.112 162.834 246.255C164.957 247.398 166.607 248.966 167.783 250.959C168.992 252.952 169.596 255.271 169.596 257.917C169.596 260.498 168.992 262.801 167.783 264.826C166.607 266.851 164.957 268.452 162.834 269.628C160.743 270.771 158.342 271.343 155.631 271.343ZM155.631 266.1C157.134 266.1 158.473 265.773 159.649 265.12C160.825 264.467 161.74 263.519 162.393 262.278C163.079 261.037 163.422 259.583 163.422 257.917C163.422 256.218 163.079 254.765 162.393 253.556C161.74 252.315 160.825 251.367 159.649 250.714C158.473 250.061 157.15 249.734 155.68 249.734C154.177 249.734 152.838 250.061 151.662 250.714C150.519 251.367 149.604 252.315 148.918 253.556C148.232 254.765 147.889 256.218 147.889 257.917C147.889 259.583 148.232 261.037 148.918 262.278C149.604 263.519 150.519 264.467 151.662 265.12C152.838 265.773 154.161 266.1 155.631 266.1ZM175.239 271V244.834H188.028C191.197 244.834 193.679 245.422 195.476 246.598C197.305 247.774 198.22 249.44 198.22 251.596C198.22 253.719 197.371 255.385 195.672 256.594C193.973 257.77 191.719 258.358 188.91 258.358L189.645 256.839C192.814 256.839 195.166 257.427 196.701 258.603C198.269 259.746 199.053 261.429 199.053 263.65C199.053 265.969 198.187 267.782 196.456 269.089C194.725 270.363 192.095 271 188.567 271H175.239ZM181.07 266.541H188.077C189.743 266.541 191.001 266.28 191.85 265.757C192.699 265.202 193.124 264.369 193.124 263.258C193.124 262.082 192.732 261.216 191.948 260.661C191.164 260.106 189.939 259.828 188.273 259.828H181.07V266.541ZM181.07 255.761H187.489C189.057 255.761 190.233 255.483 191.017 254.928C191.834 254.34 192.242 253.523 192.242 252.478C192.242 251.4 191.834 250.6 191.017 250.077C190.233 249.554 189.057 249.293 187.489 249.293H181.07V255.761ZM41.116 320V293.834H66.204V320H60.128V297.607L61.549 299.028H45.82L47.241 297.607V320H41.116ZM85.7225 320.343C83.0439 320.343 80.6592 319.771 78.5685 318.628C76.4779 317.452 74.8282 315.851 73.6195 313.826C72.4109 311.801 71.8065 309.498 71.8065 306.917C71.8065 304.304 72.4109 302.001 73.6195 300.008C74.8282 297.983 76.4779 296.398 78.5685 295.255C80.6592 294.112 83.0439 293.54 85.7225 293.54C88.4339 293.54 90.8349 294.112 92.9255 295.255C95.0489 296.398 96.6985 297.966 97.8745 299.959C99.0832 301.952 99.6875 304.271 99.6875 306.917C99.6875 309.498 99.0832 311.801 97.8745 313.826C96.6985 315.851 95.0489 317.452 92.9255 318.628C90.8349 319.771 88.4339 320.343 85.7225 320.343ZM85.7225 315.1C87.2252 315.1 88.5645 314.773 89.7405 314.12C90.9165 313.467 91.8312 312.519 92.4845 311.278C93.1705 310.037 93.5135 308.583 93.5135 306.917C93.5135 305.218 93.1705 303.765 92.4845 302.556C91.8312 301.315 90.9165 300.367 89.7405 299.714C88.5645 299.061 87.2415 298.734 85.7715 298.734C84.2689 298.734 82.9295 299.061 81.7535 299.714C80.6102 300.367 79.6955 301.315 79.0095 302.556C78.3235 303.765 77.9805 305.218 77.9805 306.917C77.9805 308.583 78.3235 310.037 79.0095 311.278C79.6955 312.519 80.6102 313.467 81.7535 314.12C82.9295 314.773 84.2525 315.1 85.7225 315.1ZM101.221 319.951L101.515 314.806C101.744 314.839 101.956 314.871 102.152 314.904C102.348 314.937 102.528 314.953 102.691 314.953C103.704 314.953 104.488 314.643 105.043 314.022C105.598 313.401 106.007 312.568 106.268 311.523C106.562 310.445 106.758 309.253 106.856 307.946C106.987 306.607 107.085 305.267 107.15 303.928L107.591 293.834H128.759V320H122.634V297.362L124.055 299.028H111.609L112.932 297.313L112.589 304.222C112.491 306.541 112.295 308.697 112.001 310.69C111.74 312.65 111.315 314.365 110.727 315.835C110.172 317.305 109.388 318.448 108.375 319.265C107.395 320.082 106.137 320.49 104.602 320.49C104.112 320.49 103.573 320.441 102.985 320.343C102.43 320.245 101.842 320.114 101.221 319.951ZM136.6 320V293.834H142.725V311.082L157.18 293.834H162.766V320H156.641V302.752L142.235 320H136.6ZM170.597 320V293.834H176.722V314.806H189.217V293.834H195.342V320H170.597ZM193.578 325.831V319.853L194.999 320H189.217V314.806H199.311V325.831H193.578ZM204.355 320V293.834H210.48V311.082L224.935 293.834H230.521V320H224.396V302.752L209.99 320H204.355ZM238.353 320V293.834H244.478V311.082L258.933 293.834H264.519V320H258.394V302.752L243.988 320H238.353Z" fill="white"/>
<path d="M39.398 354V338.6H51.014V340.47H41.576V344.87H46.372C48.2053 344.87 49.5987 345.251 50.552 346.014C51.5053 346.777 51.982 347.884 51.982 349.336C51.982 350.832 51.4613 351.983 50.42 352.79C49.3933 353.597 47.9193 354 45.998 354H39.398ZM41.576 352.262H45.91C47.186 352.262 48.1467 352.02 48.792 351.536C49.452 351.052 49.782 350.333 49.782 349.38C49.782 347.532 48.4913 346.608 45.91 346.608H41.576V352.262ZM59.9218 354.132C58.6751 354.132 57.5751 353.875 56.6218 353.362C55.6831 352.849 54.9498 352.145 54.4218 351.25C53.9085 350.355 53.6518 349.329 53.6518 348.17C53.6518 347.011 53.9011 345.985 54.3998 345.09C54.9131 344.195 55.6098 343.499 56.4898 343C57.3845 342.487 58.3891 342.23 59.5038 342.23C60.6331 342.23 61.6305 342.479 62.4958 342.978C63.3611 343.477 64.0358 344.181 64.5198 345.09C65.0185 345.985 65.2678 347.033 65.2678 348.236C65.2678 348.324 65.2605 348.427 65.2458 348.544C65.2458 348.661 65.2385 348.771 65.2238 348.874H55.3018V347.356H64.1238L63.2658 347.884C63.2805 347.136 63.1265 346.469 62.8038 345.882C62.4811 345.295 62.0338 344.841 61.4618 344.518C60.9045 344.181 60.2518 344.012 59.5038 344.012C58.7705 344.012 58.1178 344.181 57.5458 344.518C56.9738 344.841 56.5265 345.303 56.2038 345.904C55.8811 346.491 55.7198 347.165 55.7198 347.928V348.28C55.7198 349.057 55.8958 349.754 56.2478 350.37C56.6145 350.971 57.1205 351.441 57.7658 351.778C58.4111 352.115 59.1518 352.284 59.9878 352.284C60.6771 352.284 61.3005 352.167 61.8578 351.932C62.4298 351.697 62.9285 351.345 63.3538 350.876L64.5198 352.24C63.9918 352.856 63.3318 353.325 62.5398 353.648C61.7625 353.971 60.8898 354.132 59.9218 354.132ZM71.2884 354.154C72.3151 354.154 73.2244 354.007 74.0164 353.714C74.8231 353.406 75.4611 352.988 75.9304 352.46C76.3998 351.917 76.6344 351.294 76.6344 350.59C76.6344 349.71 76.2604 349.013 75.5124 348.5C74.7644 347.987 73.7378 347.73 72.4324 347.73L72.3444 348.236C73.1071 348.236 73.7818 348.111 74.3684 347.862C74.9551 347.613 75.4244 347.275 75.7764 346.85C76.1284 346.41 76.3044 345.911 76.3044 345.354C76.3044 344.694 76.0698 344.122 75.6004 343.638C75.1458 343.154 74.5224 342.787 73.7304 342.538C72.9384 342.274 72.0364 342.157 71.0244 342.186C70.3498 342.201 69.6678 342.303 68.9784 342.494C68.3038 342.67 67.6144 342.927 66.9104 343.264L67.4824 344.914C68.1131 344.606 68.7291 344.379 69.3304 344.232C69.9464 344.085 70.5478 344.005 71.1344 343.99C71.7358 343.99 72.2564 344.056 72.6964 344.188C73.1511 344.32 73.5031 344.511 73.7524 344.76C74.0018 345.009 74.1264 345.31 74.1264 345.662C74.1264 345.985 74.0164 346.271 73.7964 346.52C73.5911 346.755 73.2978 346.931 72.9164 347.048C72.5351 347.165 72.0878 347.224 71.5744 347.224H69.5944V348.742H71.7064C72.5718 348.742 73.2464 348.889 73.7304 349.182C74.2144 349.475 74.4564 349.893 74.4564 350.436C74.4564 350.817 74.3244 351.155 74.0604 351.448C73.7964 351.727 73.4151 351.947 72.9164 352.108C72.4324 352.269 71.8531 352.35 71.1784 352.35C70.4451 352.35 69.7191 352.255 69.0004 352.064C68.2818 351.859 67.6438 351.58 67.0864 351.228L66.4484 352.834C67.1084 353.259 67.8564 353.589 68.6924 353.824C69.5431 354.044 70.4084 354.154 71.2884 354.154ZM84.4312 354.132C83.2579 354.132 82.2166 353.875 81.3072 353.362C80.3979 352.849 79.6792 352.145 79.1512 351.25C78.6232 350.341 78.3592 349.314 78.3592 348.17C78.3592 347.011 78.6232 345.985 79.1512 345.09C79.6792 344.195 80.3979 343.499 81.3072 343C82.2166 342.487 83.2579 342.23 84.4312 342.23C85.5899 342.23 86.6239 342.487 87.5332 343C88.4572 343.499 89.1759 344.195 89.6892 345.09C90.2172 345.97 90.4812 346.997 90.4812 348.17C90.4812 349.329 90.2172 350.355 89.6892 351.25C89.1759 352.145 88.4572 352.849 87.5332 353.362C86.6239 353.875 85.5899 354.132 84.4312 354.132ZM84.4312 352.284C85.1792 352.284 85.8466 352.115 86.4332 351.778C87.0346 351.441 87.5039 350.964 87.8412 350.348C88.1786 349.717 88.3472 348.991 88.3472 348.17C88.3472 347.334 88.1786 346.615 87.8412 346.014C87.5039 345.398 87.0346 344.921 86.4332 344.584C85.8466 344.247 85.1792 344.078 84.4312 344.078C83.6832 344.078 83.0159 344.247 82.4292 344.584C81.8426 344.921 81.3732 345.398 81.0212 346.014C80.6692 346.615 80.4932 347.334 80.4932 348.17C80.4932 348.991 80.6692 349.717 81.0212 350.348C81.3732 350.964 81.8426 351.441 82.4292 351.778C83.0159 352.115 83.6832 352.284 84.4312 352.284ZM93.123 354V342.34H103.925V354H101.813V343.66L102.319 344.188H94.729L95.235 343.66V354H93.123ZM114.754 354V351.536L114.644 351.074V346.872C114.644 345.977 114.38 345.288 113.852 344.804C113.338 344.305 112.561 344.056 111.52 344.056C110.83 344.056 110.156 344.173 109.496 344.408C108.836 344.628 108.278 344.929 107.824 345.31L106.944 343.726C107.545 343.242 108.264 342.875 109.1 342.626C109.95 342.362 110.838 342.23 111.762 342.23C113.36 342.23 114.592 342.619 115.458 343.396C116.323 344.173 116.756 345.361 116.756 346.96V354H114.754ZM110.926 354.132C110.06 354.132 109.298 353.985 108.638 353.692C107.992 353.399 107.494 352.995 107.142 352.482C106.79 351.954 106.614 351.36 106.614 350.7C106.614 350.069 106.76 349.497 107.054 348.984C107.362 348.471 107.853 348.06 108.528 347.752C109.217 347.444 110.141 347.29 111.3 347.29H114.996V348.808H111.388C110.332 348.808 109.62 348.984 109.254 349.336C108.887 349.688 108.704 350.113 108.704 350.612C108.704 351.184 108.931 351.646 109.386 351.998C109.84 352.335 110.471 352.504 111.278 352.504C112.07 352.504 112.759 352.328 113.346 351.976C113.947 351.624 114.38 351.111 114.644 350.436L115.062 351.888C114.783 352.577 114.292 353.127 113.588 353.538C112.884 353.934 111.996 354.132 110.926 354.132ZM125.233 354.132C124.045 354.132 122.981 353.875 122.043 353.362C121.119 352.849 120.393 352.145 119.865 351.25C119.337 350.355 119.073 349.329 119.073 348.17C119.073 347.011 119.337 345.985 119.865 345.09C120.393 344.195 121.119 343.499 122.043 343C122.981 342.487 124.045 342.23 125.233 342.23C126.289 342.23 127.227 342.443 128.049 342.868C128.885 343.279 129.53 343.895 129.985 344.716L128.379 345.75C127.997 345.178 127.528 344.76 126.971 344.496C126.428 344.217 125.841 344.078 125.211 344.078C124.448 344.078 123.766 344.247 123.165 344.584C122.563 344.921 122.087 345.398 121.735 346.014C121.383 346.615 121.207 347.334 121.207 348.17C121.207 349.006 121.383 349.732 121.735 350.348C122.087 350.964 122.563 351.441 123.165 351.778C123.766 352.115 124.448 352.284 125.211 352.284C125.841 352.284 126.428 352.152 126.971 351.888C127.528 351.609 127.997 351.184 128.379 350.612L129.985 351.624C129.53 352.431 128.885 353.054 128.049 353.494C127.227 353.919 126.289 354.132 125.233 354.132ZM132.311 354V342.34H134.423V347.29H141.067V342.34H143.179V354H141.067V349.116H134.423V354H132.311ZM151.872 354.132C150.698 354.132 149.657 353.875 148.748 353.362C147.838 352.849 147.12 352.145 146.592 351.25C146.064 350.341 145.8 349.314 145.8 348.17C145.8 347.011 146.064 345.985 146.592 345.09C147.12 344.195 147.838 343.499 148.748 343C149.657 342.487 150.698 342.23 151.872 342.23C153.03 342.23 154.064 342.487 154.974 343C155.898 343.499 156.616 344.195 157.13 345.09C157.658 345.97 157.922 346.997 157.922 348.17C157.922 349.329 157.658 350.355 157.13 351.25C156.616 352.145 155.898 352.849 154.974 353.362C154.064 353.875 153.03 354.132 151.872 354.132ZM151.872 352.284C152.62 352.284 153.287 352.115 153.874 351.778C154.475 351.441 154.944 350.964 155.282 350.348C155.619 349.717 155.788 348.991 155.788 348.17C155.788 347.334 155.619 346.615 155.282 346.014C154.944 345.398 154.475 344.921 153.874 344.584C153.287 344.247 152.62 344.078 151.872 344.078C151.124 344.078 150.456 344.247 149.87 344.584C149.283 344.921 148.814 345.398 148.462 346.014C148.11 346.615 147.934 347.334 147.934 348.17C147.934 348.991 148.11 349.717 148.462 350.348C148.814 350.964 149.283 351.441 149.87 351.778C150.456 352.115 151.124 352.284 151.872 352.284ZM165.645 354.132C164.457 354.132 163.394 353.875 162.455 353.362C161.531 352.849 160.805 352.145 160.277 351.25C159.749 350.355 159.485 349.329 159.485 348.17C159.485 347.011 159.749 345.985 160.277 345.09C160.805 344.195 161.531 343.499 162.455 343C163.394 342.487 164.457 342.23 165.645 342.23C166.701 342.23 167.64 342.443 168.461 342.868C169.297 343.279 169.943 343.895 170.397 344.716L168.791 345.75C168.41 345.178 167.941 344.76 167.383 344.496C166.841 344.217 166.254 344.078 165.623 344.078C164.861 344.078 164.179 344.247 163.577 344.584C162.976 344.921 162.499 345.398 162.147 346.014C161.795 346.615 161.619 347.334 161.619 348.17C161.619 349.006 161.795 349.732 162.147 350.348C162.499 350.964 162.976 351.441 163.577 351.778C164.179 352.115 164.861 352.284 165.623 352.284C166.254 352.284 166.841 352.152 167.383 351.888C167.941 351.609 168.41 351.184 168.791 350.612L170.397 351.624C169.943 352.431 169.297 353.054 168.461 353.494C167.64 353.919 166.701 354.132 165.645 354.132ZM174.883 354V343.638L175.411 344.188H170.615V342.34H181.263V344.188H176.489L176.995 343.638V354H174.883ZM188.405 346.3C189.886 346.315 191.016 346.652 191.793 347.312C192.57 347.972 192.959 348.903 192.959 350.106C192.959 351.367 192.534 352.343 191.683 353.032C190.832 353.707 189.63 354.037 188.075 354.022L183.015 354V342.34H185.127V346.278L188.405 346.3ZM187.899 352.416C188.852 352.431 189.571 352.24 190.055 351.844C190.554 351.448 190.803 350.861 190.803 350.084C190.803 349.321 190.561 348.764 190.077 348.412C189.593 348.06 188.867 347.877 187.899 347.862L185.127 347.818V352.394L187.899 352.416Z" fill="white"/>
<g clip-path="url(#clip1_766_19618)">
<path d="M170.465 638.882H467.085C468.208 638.882 469.32 639.1 470.358 639.523C471.395 639.945 472.338 640.565 473.132 641.346C473.926 642.128 474.556 643.055 474.986 644.076C475.416 645.097 475.637 646.191 475.637 647.295V693.2C475.637 702.164 472.017 710.761 465.574 717.1C459.13 723.439 450.391 727 441.279 727H196.121C187.009 727 178.269 723.439 171.826 717.1C165.383 710.761 161.763 702.164 161.763 693.2V647.443C161.742 646.313 161.954 645.191 162.384 644.143C162.814 643.096 163.454 642.144 164.266 641.345C165.078 640.546 166.046 639.916 167.111 639.493C168.176 639.07 169.316 638.862 170.465 638.882Z" fill="#7B8FFF"/>
<path d="M529.05 548.396L501.443 493.488C499.476 489.468 496.384 486.083 492.531 483.731C488.678 481.378 484.223 480.154 479.688 480.203C452.23 480.215 425.046 474.847 399.72 464.41C374.396 454.141 351.358 439.099 331.903 420.13L320.253 408.668C319.475 407.902 318.226 407.902 317.448 408.668L305.797 420.13C266.645 458.68 213.555 480.388 158.162 480.499C153.631 480.467 149.184 481.698 145.334 484.049C141.485 486.4 138.39 489.774 136.408 493.783L108.951 548.691C107.212 552.198 106.611 556.145 107.229 560C107.846 563.854 109.651 567.429 112.402 570.24L142.409 600.646C144.382 602.576 146.723 604.104 149.298 605.142C151.872 606.181 154.63 606.709 157.412 606.698H480.888C486.502 606.689 491.888 604.517 495.892 600.646L525.899 570.24C528.645 567.36 530.421 563.717 530.985 559.808C531.549 555.898 530.874 551.913 529.05 548.396ZM319.001 568.174C296.945 568.174 279.091 536.587 279.091 516.809C278.757 511.46 279.54 506.101 281.391 501.061C283.242 496.021 286.122 491.408 289.853 487.504C293.585 483.601 298.09 480.49 303.09 478.364C308.089 476.237 313.479 475.14 318.926 475.14C324.372 475.14 329.762 476.237 334.761 478.364C339.761 480.49 344.266 483.601 347.998 487.504C351.729 491.408 354.609 496.021 356.46 501.061C358.311 506.101 359.093 511.46 358.759 516.809C358.759 536.587 340.906 568.174 319.001 568.174Z" fill="#7B8FFF"/>
</g>
<g clip-path="url(#clip2_766_19618)">
<path d="M194.465 611.882H491.085C492.208 611.882 493.32 612.1 494.358 612.523C495.395 612.945 496.338 613.565 497.132 614.346C497.926 615.128 498.556 616.055 498.986 617.076C499.416 618.097 499.637 619.191 499.637 620.295V666.2C499.637 675.164 496.017 683.761 489.574 690.1C483.13 696.439 474.391 700 465.279 700H220.121C211.009 700 202.269 696.439 195.826 690.1C189.383 683.761 185.763 675.164 185.763 666.2V620.443C185.742 619.313 185.954 618.191 186.384 617.143C186.814 616.096 187.454 615.144 188.266 614.345C189.078 613.546 190.046 612.916 191.111 612.493C192.176 612.07 193.316 611.862 194.465 611.882Z" fill="#6276DF"/>
<path d="M293.5 464L338 434.5C351.333 432.833 378.5 430.5 380.5 434.5C383 439.5 381 459.5 385 479.5C389 499.5 386.5 539.5 385 541.5C383.5 543.5 350 557 344 557.5C338 558 293.5 530.5 293.5 524V464Z" fill="#92A3FF"/>
<path d="M553.05 521.396L525.443 466.488C523.476 462.468 520.384 459.083 516.531 456.731C512.678 454.378 508.223 453.154 503.688 453.203C476.23 453.215 449.046 447.847 423.72 437.41C398.396 427.141 375.358 412.099 355.903 393.13L344.253 381.668C343.475 380.902 342.226 380.902 341.448 381.668L329.797 393.13C290.645 431.68 237.555 453.388 182.162 453.499C177.631 453.467 173.184 454.698 169.334 457.049C165.485 459.4 162.39 462.774 160.408 466.783L132.951 521.691C131.212 525.198 130.611 529.145 131.229 533C131.846 536.854 133.651 540.429 136.402 543.24L166.409 573.646C168.382 575.576 170.723 577.104 173.298 578.142C175.872 579.181 178.63 579.709 181.412 579.698H504.888C510.502 579.689 515.888 577.517 519.892 573.646L549.899 543.24C552.645 540.36 554.421 536.717 554.985 532.808C555.549 528.898 554.874 524.913 553.05 521.396ZM343.001 541.174C320.945 541.174 303.091 509.587 303.091 489.809C302.757 484.46 303.54 479.101 305.391 474.061C307.242 469.021 310.122 464.408 313.853 460.504C317.585 456.601 322.09 453.49 327.09 451.364C332.089 449.237 337.479 448.14 342.926 448.14C348.372 448.14 353.762 449.237 358.761 451.364C363.761 453.49 368.266 456.601 371.998 460.504C375.729 464.408 378.609 469.021 380.46 474.061C382.311 479.101 383.093 484.46 382.759 489.809C382.759 509.587 364.906 541.174 343.001 541.174Z" fill="#6276DF"/>
<path d="M356.954 493.205C356.954 500.142 350.653 511.213 343.001 511.213C335.349 511.213 328.898 500.142 328.898 493.205C328.694 491.273 328.905 489.32 329.518 487.473C330.13 485.626 331.13 483.927 332.452 482.484C333.775 481.042 335.39 479.888 337.194 479.099C338.998 478.309 340.951 477.901 342.926 477.901C344.9 477.901 346.853 478.309 348.657 479.099C350.462 479.888 352.077 481.042 353.399 482.484C354.722 483.927 355.722 485.626 356.334 487.473C356.947 489.32 357.158 491.273 356.954 493.205Z" fill="#6276DF"/>
</g>
<g clip-path="url(#clip3_766_19618)">
<path d="M-30.9619 131.796H104.756C105.27 131.796 105.778 131.896 106.253 132.089C106.728 132.282 107.159 132.564 107.523 132.921C107.886 133.277 108.174 133.7 108.371 134.166C108.567 134.632 108.669 135.131 108.669 135.635V156.579C108.669 160.669 107.012 164.591 104.064 167.484C101.116 170.376 97.1176 172 92.9482 172H-19.223C-23.3923 172 -27.3909 170.376 -30.3391 167.484C-33.2872 164.591 -34.9435 160.669 -34.9435 156.579V135.702C-34.9528 135.187 -34.8561 134.675 -34.6593 134.197C-34.4625 133.719 -34.1696 133.285 -33.798 132.92C-33.4264 132.556 -32.9838 132.268 -32.4965 132.075C-32.0092 131.882 -31.4873 131.787 -30.9619 131.796Z" fill="#7B8FFF"/>
<path d="M133.108 90.5121L120.476 65.4604C119.576 63.6265 118.162 62.0822 116.399 61.0088C114.636 59.9353 112.597 59.377 110.522 59.3994C97.959 59.4048 85.5208 56.9554 73.933 52.1938C62.3462 47.5086 51.8052 40.6454 42.9039 31.9909L38.3321 27.5059C37.5543 26.7428 36.3087 26.7428 35.5309 27.5059L30.9591 31.9909C13.0451 49.5792 -11.246 59.4837 -36.591 59.5342C-38.6641 59.5199 -40.6988 60.0815 -42.4603 61.1541C-44.2217 62.2266 -45.6377 63.7662 -46.5446 65.595L-59.1074 90.6467C-59.9029 92.2468 -60.1779 94.048 -59.8955 95.8066C-59.6131 97.5651 -58.787 99.1961 -57.5286 100.479L-43.7989 114.351C-42.896 115.232 -41.8248 115.929 -40.6468 116.403C-39.4689 116.877 -38.2073 117.118 -36.9341 117.113H111.072C113.64 117.109 116.104 116.117 117.936 114.351L131.666 100.479C132.923 99.1648 133.735 97.5027 133.993 95.719C134.251 93.9353 133.942 92.117 133.108 90.5121ZM37.0002 99.5361C26.9089 99.5361 18.7395 85.1245 18.7395 76.1006C18.5868 73.6603 18.9452 71.2151 19.792 68.9158C20.6389 66.6164 21.9566 64.5113 23.664 62.7304C25.3714 60.9494 27.4325 59.5302 29.7202 58.5601C32.0078 57.5899 34.4736 57.0894 36.9658 57.0894C39.4581 57.0894 41.9239 57.5899 44.2115 58.5601C46.4992 59.5302 48.5603 60.9494 50.2677 62.7304C51.9751 64.5113 53.2928 66.6164 54.1396 68.9158C54.9865 71.2151 55.3445 73.6603 55.1917 76.1006C55.1917 85.1245 47.0229 99.5361 37.0002 99.5361Z" fill="#7B8FFF"/>
<path d="M43.3847 77.6494C43.3847 80.8145 40.5015 85.8652 37.0005 85.8652C33.4994 85.8652 30.5475 80.8145 30.5475 77.6494C30.4545 76.7678 30.551 75.8768 30.8312 75.0342C31.1114 74.1916 31.569 73.4161 32.1741 72.7579C32.7791 72.0997 33.5181 71.5734 34.3436 71.2133C35.1691 70.8531 36.0627 70.667 36.9661 70.667C37.8696 70.667 38.7631 70.8531 39.5886 71.2133C40.4141 71.5734 41.1531 72.0997 41.7582 72.7579C42.3632 73.4161 42.8209 74.1916 43.1011 75.0342C43.3812 75.8768 43.4778 76.7678 43.3847 77.6494Z" fill="#7B8FFF"/>
</g>
</g>

</svg>
