<svg width="51" height="51" viewBox="0 0 51 51" fill="none" xmlns="http://www.w3.org/2000/svg">
<path d="M18.8775 2.71582C15.6841 3.65832 12.7239 5.25974 10.1881 7.41669C7.65227 9.57365 5.59713 12.2382 4.15539 15.2383C2.71365 18.2384 1.91734 21.5074 1.81788 24.8342C1.71841 28.161 2.31803 31.4717 3.57796 34.5525C4.83789 37.6333 6.73012 40.4157 9.13256 42.7202C11.535 45.0247 14.3943 46.8 17.5256 47.9314C20.657 49.0628 23.9909 49.5253 27.3122 49.2889C30.6335 49.0526 33.8683 48.1226 36.8077 46.5591" stroke="#A9612D" stroke-width="1.7" stroke-linecap="round" stroke-linejoin="round"/>
<path d="M21.954 2.03696C27.0547 1.25062 32.273 2.14196 36.823 4.57677C41.3731 7.01157 45.0087 10.858 47.1824 15.537C49.3561 20.216 49.9502 25.4743 48.8754 30.52C47.8005 35.5658 45.1149 40.1259 41.2228 43.5139C40.8831 43.8034 40.5335 44.093 40.2239 44.3626" stroke="#A9612D" stroke-width="1.7" stroke-linecap="round" stroke-linejoin="round"/>
<path d="M25.6001 46.1402C36.9756 46.1402 46.1973 36.9224 46.1973 25.5516C46.1973 14.1808 36.9756 4.96289 25.6001 4.96289C14.2245 4.96289 5.00281 14.1808 5.00281 25.5516C5.00281 36.9224 14.2245 46.1402 25.6001 46.1402Z" stroke="#A9612D" stroke-width="1.7" stroke-linecap="round" stroke-linejoin="round"/>
<path d="M27.8875 30.3534L28.347 35.4656H22.3537L22.893 30.3634C22.1651 29.9025 21.5819 29.246 21.2101 28.469C20.8384 27.692 20.6932 26.826 20.7912 25.9704C20.8892 25.1147 21.2265 24.3039 21.7643 23.631C22.3022 22.9581 23.0187 22.4503 23.832 22.1659L25.5401 7.84766L27.0884 22.1459C27.8961 22.4437 28.6036 22.9627 29.13 23.6437C29.6563 24.3246 29.9803 25.14 30.0647 25.9963C30.1491 26.8527 29.9906 27.7156 29.6074 28.4861C29.2241 29.2567 28.6316 29.9038 27.8975 30.3534H27.8875Z" stroke="#A9612D" stroke-width="1.7" stroke-linecap="round" stroke-linejoin="round"/>
<path d="M25.4102 28.8664C26.7398 28.8664 27.8176 27.789 27.8176 26.46C27.8176 25.1311 26.7398 24.0537 25.4102 24.0537C24.0807 24.0537 23.0029 25.1311 23.0029 26.46C23.0029 27.789 24.0807 28.8664 25.4102 28.8664Z" fill="#A9612D"/>
<path d="M13.5462 15.8128C14.0718 15.8128 14.498 15.3867 14.498 14.861C14.498 14.3353 14.0718 13.9092 13.5462 13.9092C13.0205 13.9092 12.5944 14.3353 12.5944 14.861C12.5944 15.3867 13.0205 15.8128 13.5462 15.8128Z" fill="#A9612D"/>
<path d="M15.574 13.806C16.0997 13.806 16.5258 13.3798 16.5258 12.8542C16.5258 12.3285 16.0997 11.9023 15.574 11.9023C15.0483 11.9023 14.6222 12.3285 14.6222 12.8542C14.6222 13.3798 15.0483 13.806 15.574 13.806Z" fill="#A9612D"/>
<path d="M17.9313 12.178C18.457 12.178 18.8831 11.7519 18.8831 11.2262C18.8831 10.7006 18.457 10.2744 17.9313 10.2744C17.4056 10.2744 16.9795 10.7006 16.9795 11.2262C16.9795 11.7519 17.4056 12.178 17.9313 12.178Z" fill="#A9612D"/>
<path d="M20.5285 10.9798C21.0541 10.9798 21.4803 10.5536 21.4803 10.028C21.4803 9.50231 21.0541 9.07617 20.5285 9.07617C20.0028 9.07617 19.5767 9.50231 19.5767 10.028C19.5767 10.5536 20.0028 10.9798 20.5285 10.9798Z" fill="#A9612D"/>
<path d="M23.2954 10.261C23.8211 10.261 24.2472 9.8349 24.2472 9.30923C24.2472 8.78356 23.8211 8.35742 23.2954 8.35742C22.7698 8.35742 22.3436 8.78356 22.3436 9.30923C22.3436 9.8349 22.7698 10.261 23.2954 10.261Z" fill="#A9612D"/>
<path d="M25.7499 9.23646C26.0589 9.23646 26.3093 8.98612 26.3093 8.67731C26.3093 8.36851 26.0589 8.11816 25.7499 8.11816C25.441 8.11816 25.1906 8.36851 25.1906 8.67731C25.1906 8.98612 25.441 9.23646 25.7499 9.23646Z" fill="#A9612D"/>
<path d="M28.9892 10.2913C29.5148 10.2913 29.941 9.86517 29.941 9.3395C29.941 8.81383 29.5148 8.3877 28.9892 8.3877C28.4635 8.3877 28.0374 8.81383 28.0374 9.3395C28.0374 9.86517 28.4635 10.2913 28.9892 10.2913Z" fill="#A9612D"/>
<path d="M31.7461 11.0394C32.2718 11.0394 32.6979 10.6132 32.6979 10.0875C32.6979 9.56188 32.2718 9.13574 31.7461 9.13574C31.2204 9.13574 30.7943 9.56188 30.7943 10.0875C30.7943 10.6132 31.2204 11.0394 31.7461 11.0394Z" fill="#A9612D"/>
<path d="M34.3333 12.2679C34.8589 12.2679 35.2851 11.8417 35.2851 11.3161C35.2851 10.7904 34.8589 10.3643 34.3333 10.3643C33.8076 10.3643 33.3815 10.7904 33.3815 11.3161C33.3815 11.8417 33.8076 12.2679 34.3333 12.2679Z" fill="#A9612D"/>
<path d="M36.6707 13.9153C37.1964 13.9153 37.6225 13.4892 37.6225 12.9635C37.6225 12.4379 37.1964 12.0117 36.6707 12.0117C36.145 12.0117 35.7189 12.4379 35.7189 12.9635C35.7189 13.4892 36.145 13.9153 36.6707 13.9153Z" fill="#A9612D"/>
<path d="M38.6785 15.9524C39.2042 15.9524 39.6303 15.5263 39.6303 15.0006C39.6303 14.475 39.2042 14.0488 38.6785 14.0488C38.1528 14.0488 37.7267 14.475 37.7267 15.0006C37.7267 15.5263 38.1528 15.9524 38.6785 15.9524Z" fill="#A9612D"/>
<path d="M11.2259 17.374C9.31018 20.6534 8.57093 24.4879 9.13032 28.244C9.68971 32.0002 11.5143 35.4532 14.3025 38.0326" stroke="#A9612D" stroke-width="1.7" stroke-miterlimit="10" stroke-linecap="round"/>
<path d="M39.9841 17.374C41.954 20.7491 42.6732 24.7093 42.0158 28.5611C41.3583 32.4129 39.3661 35.9107 36.3881 38.442" stroke="#A9612D" stroke-width="1.7" stroke-miterlimit="10" stroke-linecap="round"/>
</svg>
