<svg width="162" height="161" viewBox="0 0 162 161" fill="none" xmlns="http://www.w3.org/2000/svg">
<g filter="url(#filter0_d_4661_3425)">
<circle cx="81" cy="80.5" r="63" stroke="#FFCD6C" stroke-width="3"/>
<g clip-path="url(#clip0_4661_3425)">
<path d="M40.5349 90.2319C40.5349 96.949 40.5349 103.666 40.505 110.383C40.505 110.995 40.7242 111.085 41.2523 111.077C43.4943 111.053 45.7138 111.077 47.9459 111.077C48.0181 110.463 48.0579 109.833 48.1725 109.236C49.032 104.644 53.8049 101.402 58.386 102.285C62.8375 103.139 65.5777 106.353 65.8866 111.077L73.2926 111.06L73.3225 105.134C73.3225 100.158 73.3159 95.1827 73.3026 90.207C72.6798 90.207 72.057 90.2269 71.4393 90.2269L40.5349 90.2319Z" fill="#FF7C7A"/>
<path d="M120.852 75.3578C119.358 73.1188 117.265 72.2655 114.587 72.3103C109.072 72.4048 103.552 72.3526 98.0316 72.3103C97.3366 72.3103 97.1572 72.4794 97.1647 73.176C97.1946 76.3032 97.1647 79.4304 97.1647 82.5576C97.1846 83.6771 97.2793 84.7967 97.0626 85.9112C97.2768 86.2172 97.1871 86.5705 97.1871 86.9063C97.1871 90.0576 97.1871 93.2088 97.1871 96.3601C99.2821 96.1412 101.37 96.0143 103.452 96.5268C106.544 97.2905 109.182 98.7658 111.302 101.174C112.36 102.371 113.142 103.727 113.915 105.1H121.027C121.027 103.926 121.014 102.754 121.054 101.582C121.079 100.793 120.705 99.8082 121.243 99.2709C121.707 98.8056 122.661 99.1888 123.393 99.1141H123.485C122.874 92.4517 122.262 85.7893 121.65 79.1269C121.625 78.8483 121.625 78.5696 121.615 78.291C121.699 77.2362 121.186 76.3182 120.852 75.3578ZM110.696 90.2102C108.454 90.2102 106.212 90.1778 103.988 90.2301C103.268 90.245 103.123 90.0211 103.131 89.3444C103.166 85.9328 103.166 82.522 103.131 79.112C103.131 78.4701 103.28 78.2736 103.945 78.281C107.184 78.3159 110.405 78.281 113.633 78.2985C115.599 78.2985 116.715 79.3583 116.946 81.3261C117.268 84.0329 117.597 86.7397 117.978 89.4365C118.065 90.0709 117.943 90.2326 117.308 90.2226C115.105 90.1903 112.898 90.2102 110.696 90.2102Z" fill="#FF7C7A"/>
<path d="M97.1821 96.3677C97.1821 93.2164 97.1821 90.0652 97.1821 86.9139C97.1821 86.583 97.2717 86.2298 97.0575 85.9188C96.2255 89.5236 94.0433 91.8672 90.486 92.9146C88.7298 93.4295 86.9985 93.1633 85.2548 92.7852C85.2548 92.9195 85.2373 93.0539 85.2274 93.1882C85.2274 94.9794 85.2274 96.7707 85.2647 98.5619C85.2647 98.9973 85.1377 99.1565 84.6893 99.149C83.08 99.1291 81.4716 99.1291 79.864 99.149C79.4132 99.149 79.2786 98.9973 79.2861 98.5619C79.3135 96.7707 79.3135 94.9794 79.3235 93.1882C79.3235 90.581 79.3235 87.9746 79.3235 85.369C79.1043 82.8961 79.6772 80.6421 81.2242 78.6742C82.4697 77.092 84.1313 76.1615 85.9846 75.5097C85.7281 75.3394 85.418 75.2686 85.1128 75.3107L73.3374 75.3281L73.3 78.2986V84.242L73.32 90.1854C73.32 95.1611 73.3266 100.137 73.3399 105.112H93.1341C94.2895 103.971 95.6672 103.078 97.1821 102.49V96.3677Z" fill="#C6312E"/>
<path d="M58.4109 66.3959H106.84C110.285 66.3959 113.733 66.3784 117.178 66.4108C117.838 66.4108 118.102 66.3063 118.065 65.5699C117.994 64.2067 117.994 62.8407 118.065 61.4774C118.107 60.644 117.881 60.2808 117.019 60.435C116.864 60.4431 116.71 60.4339 116.558 60.4077H53.9469L53.5657 60.4674C57.1654 61.4774 58.4109 64.112 58.4109 66.3959Z" fill="#A72A27"/>
<path d="M113.581 60.3952H116.57C116.57 58.4745 116.57 56.5523 116.57 54.6284C116.586 54.0164 116.476 53.4077 116.249 52.8393C116.021 52.2709 115.68 51.7547 115.246 51.322C114.813 50.8894 114.295 50.5494 113.726 50.3227C113.157 50.0961 112.547 49.9875 111.934 50.0035H46.643C43.9851 50.0035 42.0196 51.9714 42.0171 54.6284C42.0171 56.5523 42.0171 58.4745 42.0171 60.3952H45.0064C45.0064 58.487 45.0064 56.5763 45.0064 54.6731C45.0064 53.5188 45.542 52.9989 46.7128 52.9914C48.1302 52.9914 49.5501 52.9914 50.9676 52.9914H107.62C109.037 52.9914 110.457 52.9914 111.875 52.9914C113.045 52.9914 113.576 53.5163 113.581 54.6731C113.591 56.5763 113.581 58.487 113.581 60.3952Z" fill="#DADADA"/>
<path d="M85.9772 75.5154C84.1238 76.1672 82.4573 77.0977 81.2167 78.6799C79.6698 80.6702 79.0968 82.9092 79.316 85.3747C79.7345 87.4993 80.6039 89.3552 82.2331 90.8703C83.1399 91.7087 84.2608 92.1142 85.2498 92.7909C86.9936 93.174 88.7249 93.4352 90.4811 92.9203C94.0383 91.8729 96.2106 89.5294 97.0525 85.9245C97.2693 84.8124 97.1746 83.6855 97.1547 82.5709C96.6839 81.1354 96.1881 79.7248 95.1618 78.5381C93.4853 76.5802 91.4078 75.4532 88.8245 75.3263C87.8804 75.2816 86.9163 75.2442 85.9772 75.5154ZM88.2192 87.2331C87.8229 87.2349 87.4303 87.1571 87.0648 87.0043C86.6993 86.8515 86.3682 86.6269 86.0914 86.3437C85.8146 86.0605 85.5977 85.7246 85.4535 85.356C85.3094 84.9873 85.2409 84.5935 85.2523 84.1979C85.2755 83.4195 85.5998 82.6803 86.1573 82.1356C86.7147 81.591 87.4618 81.2833 88.2416 81.2772C88.6377 81.2751 89.0302 81.3525 89.3958 81.5051C89.7613 81.6576 90.0924 81.882 90.3692 82.165C90.646 82.448 90.863 82.7837 91.0072 83.1522C91.1514 83.5207 91.2198 83.9144 91.2085 84.3099C91.1847 85.088 90.8606 85.8267 90.3039 86.3715C89.7472 86.9164 89.0011 87.2251 88.2217 87.2331H88.2192Z" fill="#F1F1F1"/>
<path d="M97.1821 102.497C95.6673 103.085 94.2895 103.978 93.1341 105.119C91.8089 106.891 90.9768 108.851 90.9519 111.09C91.1114 114.501 92.5711 117.175 95.5729 118.867C101.053 121.952 107.961 118.474 108.763 112.267C108.815 111.869 108.868 111.468 108.923 111.07C108.868 110.734 108.796 110.401 108.761 110.075C108.419 106.888 106.74 104.602 103.955 103.124C101.803 101.96 99.5138 101.888 97.1821 102.497ZM96.9604 111.038C96.9617 110.254 97.2743 109.503 97.8296 108.948C98.3848 108.394 99.1374 108.083 99.9223 108.082C100.332 108.057 100.742 108.115 101.128 108.255C101.514 108.394 101.866 108.612 102.164 108.893C102.462 109.175 102.699 109.515 102.86 109.892C103.021 110.269 103.102 110.674 103.099 111.084C103.096 111.494 103.009 111.899 102.842 112.273C102.676 112.648 102.434 112.984 102.132 113.261C101.829 113.538 101.473 113.75 101.085 113.884C100.698 114.017 100.286 114.07 99.8775 114.038C99.0928 114.025 98.3452 113.702 97.7985 113.14C97.2518 112.577 96.9504 111.822 96.9604 111.038Z" fill="#616669"/>
<path d="M65.8842 111.064C65.5753 106.337 62.8351 103.126 58.3835 102.272C53.7949 101.389 49.022 104.631 48.1701 109.223C48.0555 109.83 48.0156 110.45 47.9434 111.064C48.1925 115.139 50.1131 118.07 54.0067 119.478C59.4871 121.468 65.4358 117.53 65.8468 111.714L65.8842 111.064ZM53.927 111.032C53.9314 110.443 54.1102 109.869 54.4408 109.381C54.7713 108.893 55.239 108.514 55.7849 108.291C56.3308 108.068 56.9305 108.012 57.5085 108.128C58.0865 108.245 58.6171 108.53 59.0334 108.947C59.4497 109.364 59.7332 109.895 59.8481 110.473C59.9631 111.05 59.9044 111.649 59.6794 112.193C59.4544 112.738 59.0732 113.204 58.5837 113.532C58.0943 113.861 57.5184 114.037 56.9287 114.04C56.5339 114.039 56.143 113.961 55.7785 113.809C55.4139 113.658 55.0828 113.436 54.8041 113.157C54.5254 112.877 54.3044 112.546 54.1539 112.182C54.0034 111.817 53.9263 111.426 53.927 111.032Z" fill="#616669"/>
<path d="M73.2926 78.3044L73.3299 75.334C73.3299 74.5876 73.2826 73.8413 73.3299 73.0949C73.3773 72.3486 72.9912 72.3187 72.4232 72.3212C68.1186 72.3336 63.814 72.3212 59.5094 72.3212C59.1357 72.3212 58.7621 72.3212 58.3934 72.3212H46.4935C44.7896 72.3212 43.0857 72.3585 41.3818 72.3212C40.6718 72.3038 40.4775 72.5426 40.5 73.2243C40.5473 74.5851 40.5548 75.9609 40.5 77.3093C40.4701 78.0556 40.6718 78.3268 41.469 78.3044C44.132 78.2547 46.7974 78.2845 49.4629 78.2845H67.3588L73.2926 78.3044Z" fill="#E7E7E7"/>
<path d="M73.3125 90.1908L73.2926 84.2474H67.3588H49.4679C46.775 84.2474 44.0846 84.2697 41.3918 84.2324C40.6918 84.2324 40.485 84.4364 40.5049 85.1255C40.5548 86.8247 40.5298 88.5239 40.5348 90.2231L71.4492 90.2032C72.0694 90.2107 72.6897 90.1983 73.3125 90.1908Z" fill="#E7E7E7"/>
<path d="M97.1821 102.498C99.5137 101.888 101.803 101.96 103.955 103.102C106.74 104.58 108.419 106.866 108.761 110.053C108.796 110.392 108.868 110.725 108.923 111.048L115.053 111.033C115.158 108.961 114.527 107.028 113.91 105.095C113.137 103.722 112.355 102.358 111.297 101.169C109.169 98.7684 106.539 97.2857 103.447 96.5219C101.365 96.0094 99.2771 96.1363 97.1821 96.3552V102.498Z" fill="#A72A27"/>
<path d="M46.4985 72.3339H58.3984C58.4084 70.3536 58.4167 68.3741 58.4233 66.3955C58.4034 64.1116 57.1653 61.477 53.5657 60.457H51.5056C47.9982 61.2482 46.5832 63.8106 46.4736 66.393C46.4803 68.375 46.4886 70.3553 46.4985 72.3339ZM52.4647 67.8683C52.1674 67.8732 51.8754 67.7895 51.6261 67.6278C51.3767 67.4662 51.1813 67.2339 51.0647 66.9608C50.9482 66.6876 50.9159 66.386 50.972 66.0944C51.028 65.8028 51.1699 65.5345 51.3794 65.3239C51.5889 65.1132 51.8566 64.9697 52.1481 64.9118C52.4397 64.8538 52.742 64.8841 53.0163 64.9986C53.2906 65.1131 53.5245 65.3067 53.688 65.5546C53.8515 65.8026 53.9373 66.0936 53.9344 66.3905C53.9306 66.7795 53.7748 67.1517 53.5003 67.4277C53.2257 67.7037 52.8542 67.8618 52.4647 67.8683Z" fill="#EA423F"/>
<path d="M90.9518 111.082C90.9768 108.843 91.8088 106.893 93.134 105.111H73.3324L73.3025 111.037L90.9518 111.082Z" fill="#F1F1F1"/>
<path d="M123.48 99.1307H123.388C122.656 99.2053 121.702 98.8222 121.239 99.2874C120.7 99.8248 121.074 100.81 121.049 101.599C121.009 102.77 121.027 103.942 121.022 105.116C121.033 107.092 121.047 109.068 121.062 111.045C122.825 111.045 124.592 111.032 126.353 111.07C126.893 111.07 127.018 110.901 127.015 110.391C126.993 106.865 126.985 103.34 127.015 99.8173C127.015 99.1929 126.781 99.1158 126.268 99.1332C125.339 99.168 124.41 99.1357 123.48 99.1307Z" fill="#A72A27"/>
<path d="M46.4736 66.3946C46.5832 63.8123 47.9982 61.2498 51.5056 60.4587L50.9526 60.3965H42.0071C40.5125 60.4761 40.5125 60.4761 40.5125 62.0161C40.5125 63.26 40.5374 64.5039 40.5 65.7254C40.4851 66.2553 40.642 66.4071 41.1726 66.3971C42.9438 66.3673 44.7099 66.3921 46.4736 66.3946Z" fill="#A72A27"/>
<path d="M121.062 111.048C121.048 109.069 121.035 107.093 121.022 105.119H113.91C114.528 107.052 115.155 108.985 115.053 111.058L121.062 111.048Z" fill="#F1F1F1"/>
<path d="M120.852 75.3586C121.196 76.3189 121.699 77.2369 121.6 78.3066C122.653 78.3066 123.712 78.3415 124.763 78.2818C125.406 78.2469 125.536 78.4883 125.511 79.0679C125.468 80.2148 125.488 81.3617 125.511 82.5086C125.523 83.5933 126.113 84.2501 127.02 84.2501C127.927 84.2501 128.483 83.5734 128.487 82.4713C128.487 80.6427 128.502 78.8117 128.487 76.9831C128.487 75.9233 127.927 75.3362 126.901 75.3312C124.885 75.3138 122.87 75.3461 120.852 75.3586Z" fill="#A72A27"/>
<path d="M52.4473 85.4863C50.1181 85.4863 48.2299 83.6006 48.2299 81.2744C48.2299 78.9482 50.1181 77.0625 52.4473 77.0625C54.7765 77.0625 56.6647 78.9482 56.6647 81.2744C56.6647 83.6006 54.7765 85.4863 52.4473 85.4863Z" fill="#B5B8B9"/>
<path d="M110.696 90.2111C112.898 90.2111 115.105 90.1912 117.308 90.2111C117.943 90.2111 118.055 90.0593 117.978 89.4249C117.597 86.7281 117.268 84.0214 116.946 81.3146C116.715 79.3468 115.599 78.2919 113.633 78.2869C110.395 78.2869 107.174 78.3044 103.945 78.2695C103.28 78.2695 103.126 78.4586 103.131 79.1005C103.162 82.5121 103.162 85.9229 103.131 89.3329C103.131 90.0096 103.268 90.2335 103.988 90.2186C106.222 90.1788 108.459 90.2111 110.696 90.2111Z" fill="#F3F7FB"/>
<path d="M79.3185 93.1934C79.3185 94.9846 79.3185 96.7758 79.2811 98.5671C79.2811 99.0024 79.4082 99.1616 79.8591 99.1542C81.465 99.1326 83.0734 99.1326 84.6843 99.1542C85.1327 99.1542 85.2672 99.0024 85.2597 98.5671C85.2323 96.7758 85.2323 94.9846 85.2224 93.1934H79.3185Z" fill="#60B7D0"/>
<path d="M79.3185 93.1943H85.2224C85.2224 93.0599 85.2398 92.9256 85.2498 92.7912C84.2533 92.127 83.1398 91.709 82.2331 90.8706C80.6039 89.358 79.742 87.4996 79.316 85.375C79.3177 87.9822 79.3185 90.5887 79.3185 93.1943Z" fill="#B5B8B9"/>
<path d="M59.9055 52.9805C59.9055 55.4501 59.9055 57.9221 59.9055 60.3967H62.8948C62.8948 57.9238 62.8948 55.4517 62.8948 52.9805H59.9055Z" fill="#DADADA"/>
<path d="M68.851 52.9805V60.3967H71.8403V52.9805H68.851Z" fill="#DADADA"/>
<path d="M95.6899 52.9805C95.6899 55.4501 95.6899 57.9221 95.6899 60.3967H98.6792V52.9805H95.6899Z" fill="#DADADA"/>
<path d="M80.7858 60.3967C80.7858 57.9238 80.7858 55.4517 80.7858 52.9805H77.7965C77.7965 55.4501 77.7965 57.9221 77.7965 60.3967H80.7858Z" fill="#DADADA"/>
<path d="M86.7445 52.9805V60.3967H89.7338V52.9805H86.7445Z" fill="#DADADA"/>
<path d="M53.9469 60.3967V52.9805H50.9576C50.9576 55.4501 50.9576 57.9221 50.9576 60.3967L51.5106 60.4589H53.5708L53.9469 60.3967Z" fill="#DADADA"/>
<path d="M88.2216 87.2333C89.0015 87.2259 89.7482 86.9175 90.3055 86.3726C90.8627 85.8277 91.1872 85.0886 91.2109 84.3101C91.2223 83.9146 91.1539 83.5209 91.0097 83.1524C90.8655 82.7839 90.6485 82.4481 90.3717 82.1652C90.0948 81.8822 89.7638 81.6578 89.3982 81.5052C89.0327 81.3527 88.6402 81.2752 88.2441 81.2774C87.4643 81.2835 86.7172 81.5912 86.1597 82.1358C85.6023 82.6804 85.2779 83.4196 85.2548 84.1981C85.2434 84.5937 85.3118 84.9875 85.456 85.3561C85.6002 85.7248 85.8171 86.0607 86.0939 86.3438C86.3707 86.627 86.7017 86.8517 87.0673 87.0045C87.4328 87.1573 87.8254 87.2351 88.2216 87.2333Z" fill="#B5B8B9"/>
<path d="M96.9604 111.04C96.9504 111.823 97.2518 112.579 97.7985 113.141C98.3452 113.704 99.0928 114.027 99.8775 114.04C100.286 114.072 100.698 114.019 101.085 113.885C101.473 113.752 101.829 113.54 102.132 113.263C102.434 112.986 102.676 112.649 102.842 112.275C103.009 111.9 103.096 111.496 103.099 111.086C103.102 110.676 103.021 110.27 102.86 109.893C102.699 109.516 102.462 109.177 102.164 108.895C101.866 108.613 101.514 108.396 101.128 108.257C100.742 108.117 100.332 108.058 99.9223 108.084C99.1374 108.085 98.3848 108.396 97.8296 108.95C97.2743 109.504 96.9617 110.256 96.9604 111.04Z" fill="#E6EBEE"/>
<path d="M53.9269 111.032C53.9195 111.624 54.0885 112.205 54.4124 112.701C54.7364 113.197 55.2006 113.585 55.7461 113.817C56.2917 114.048 56.8938 114.113 57.4761 114.002C58.0585 113.891 58.5946 113.61 59.0164 113.194C59.4382 112.778 59.7266 112.246 59.845 111.666C59.9634 111.086 59.9065 110.483 59.6814 109.936C59.4562 109.388 59.0732 108.92 58.5808 108.59C58.0884 108.26 57.509 108.084 56.9162 108.084C56.1308 108.087 55.3779 108.398 54.8191 108.949C54.2602 109.5 53.9399 110.248 53.9269 111.032Z" fill="#E6EBEE"/>
<path d="M64.3771 85.4863C62.0479 85.4863 60.1597 83.6006 60.1597 81.2744C60.1597 78.9482 62.0479 77.0625 64.3771 77.0625C66.7063 77.0625 68.5945 78.9482 68.5945 81.2744C68.5945 83.6006 66.7063 85.4863 64.3771 85.4863Z" fill="#B5B8B9"/>
<path d="M52.4646 67.8682C52.7621 67.8681 53.0528 67.7793 53.2995 67.6132C53.5462 67.4471 53.7376 67.2113 53.8493 66.9359C53.961 66.6605 53.9878 66.3581 53.9264 66.0674C53.865 65.7767 53.7182 65.5109 53.5046 65.3041C53.2911 65.0972 53.0206 64.9587 52.7278 64.9062C52.4349 64.8538 52.1331 64.8898 51.8609 65.0097C51.5887 65.1296 51.3585 65.3279 51.1998 65.5791C51.0411 65.8304 50.9611 66.1233 50.97 66.4203C50.9817 66.8084 51.1443 67.1766 51.4233 67.447C51.7024 67.7173 52.0759 67.8684 52.4646 67.8682Z" fill="#E6EBEE"/>
</g>
</g>
<defs>
<filter id="filter0_d_4661_3425" x="0.5" y="0" width="161" height="161" filterUnits="userSpaceOnUse" color-interpolation-filters="sRGB">
<feFlood flood-opacity="0" result="BackgroundImageFix"/>
<feColorMatrix in="SourceAlpha" type="matrix" values="0 0 0 0 0 0 0 0 0 0 0 0 0 0 0 0 0 0 127 0" result="hardAlpha"/>
<feOffset/>
<feGaussianBlur stdDeviation="8"/>
<feComposite in2="hardAlpha" operator="out"/>
<feColorMatrix type="matrix" values="0 0 0 0 0.5875 0 0 0 0 0 0 0 0 0 0.099017 0 0 0 0.36 0"/>
<feBlend mode="normal" in2="BackgroundImageFix" result="effect1_dropShadow_4661_3425"/>
<feBlend mode="normal" in="SourceGraphic" in2="effect1_dropShadow_4661_3425" result="shape"/>
</filter>
<clipPath id="clip0_4661_3425">
<rect width="88" height="70" fill="white" transform="matrix(-1 0 0 1 128.5 50)"/>
</clipPath>
</defs>
</svg>
