<svg width="177" height="176" viewBox="0 0 177 176" fill="none" xmlns="http://www.w3.org/2000/svg">
<g filter="url(#filter0_d_4661_3364)">
<g filter="url(#filter1_d_4661_3364)">
<circle cx="88.5" cy="84" r="81" fill="url(#paint0_linear_4661_3364)"/>
</g>
<g clip-path="url(#clip0_4661_3364)">
<path d="M37.0406 90.1287C37.0406 97.9974 37.0406 105.866 37.0059 113.735C37.0059 114.452 37.26 114.557 37.8722 114.548C40.4708 114.519 43.0435 114.548 45.6306 114.548C45.7143 113.828 45.7605 113.091 45.8933 112.391C46.8895 107.011 52.4217 103.214 57.7316 104.249C62.8914 105.248 66.0675 109.013 66.4256 114.548L75.0098 114.527L75.0444 107.585C75.0444 101.757 75.0367 95.9282 75.0213 90.0996C74.2995 90.0996 73.5776 90.1229 72.8616 90.1229L37.0406 90.1287Z" fill="#FF7C7A"/>
<path d="M130.136 72.7048C128.403 70.0819 125.978 69.0823 122.874 69.1348C116.481 69.2455 110.083 69.1843 103.684 69.1348C102.879 69.1348 102.671 69.3329 102.679 70.1489C102.714 73.8122 102.679 77.4755 102.679 81.1388C102.702 82.4503 102.812 83.7617 102.561 85.0673C102.809 85.4258 102.705 85.8396 102.705 86.233C102.705 89.9245 102.705 93.616 102.705 97.3074C105.134 97.051 107.553 96.9023 109.967 97.5027C113.55 98.3974 116.608 100.126 119.065 102.947C120.292 104.348 121.199 105.937 122.094 107.545H130.338C130.338 106.17 130.323 104.797 130.369 103.425C130.398 102.501 129.965 101.347 130.589 100.717C131.126 100.172 132.232 100.621 133.081 100.534H133.188C132.479 92.7291 131.77 84.9245 131.059 77.12C131.031 76.7936 131.031 76.4672 131.019 76.1408C131.117 74.9051 130.522 73.8297 130.136 72.7048ZM118.364 90.1032C115.765 90.1032 113.166 90.0653 110.588 90.1265C109.753 90.144 109.586 89.8818 109.595 89.0891C109.635 85.0926 109.635 81.0971 109.595 77.1025C109.595 76.3506 109.768 76.1204 110.539 76.1291C114.292 76.1699 118.026 76.1291 121.768 76.1495C124.046 76.1495 125.34 77.391 125.608 79.6962C125.981 82.867 126.362 86.0378 126.803 89.1969C126.905 89.94 126.763 90.1295 126.027 90.1178C123.474 90.0799 120.916 90.1032 118.364 90.1032Z" fill="#FF7C7A"/>
<path d="M102.7 97.3154C102.7 93.6239 102.7 89.9325 102.7 86.241C102.7 85.8534 102.804 85.4396 102.555 85.0753C101.591 89.2981 99.0615 92.0434 94.9383 93.2703C92.9027 93.8736 90.896 93.5618 88.8748 93.1188C88.8748 93.2762 88.8546 93.4335 88.843 93.5909C88.843 95.6892 88.843 97.7875 88.8863 99.8858C88.8863 100.396 88.7391 100.582 88.2193 100.574C86.3541 100.55 84.4898 100.55 82.6265 100.574C82.1038 100.574 81.9479 100.396 81.9566 99.8858C81.9883 97.7875 81.9883 95.6892 81.9999 93.5909C81.9999 90.5367 81.9999 87.4835 81.9999 84.4312C81.7458 81.5344 82.4099 78.894 84.203 76.5888C85.6467 74.7353 87.5726 73.6453 89.7208 72.8818C89.4234 72.6823 89.064 72.5994 88.7102 72.6487L75.0615 72.6691L75.0182 76.1487V83.111L75.0413 90.0733C75.0413 95.902 75.049 101.731 75.0644 107.559H98.0076C99.3468 106.222 100.944 105.176 102.7 104.488V97.3154Z" fill="#C6312E"/>
<path d="M57.7602 62.2069H113.894C117.887 62.2069 121.883 62.1865 125.877 62.2243C126.642 62.2243 126.948 62.102 126.905 61.2393C126.822 59.6424 126.822 58.0422 126.905 56.4453C126.954 55.469 126.691 55.0435 125.692 55.2242C125.513 55.2336 125.334 55.2229 125.158 55.1921H52.586L52.1442 55.2621C56.3165 56.4453 57.7602 59.5315 57.7602 62.2069Z" fill="#A72A27"/>
<path d="M121.707 55.1768H125.172C125.172 52.927 125.172 50.6752 125.172 48.4215C125.19 47.7046 125.063 46.9915 124.799 46.3257C124.536 45.6599 124.14 45.0551 123.638 44.5483C123.135 44.0415 122.536 43.6433 121.876 43.3777C121.216 43.1122 120.509 42.985 119.799 43.0038H44.1202C41.0394 43.0038 38.7612 45.309 38.7583 48.4215C38.7583 50.6752 38.7583 52.927 38.7583 55.1768H42.2232C42.2232 52.9416 42.2232 50.7034 42.2232 48.4739C42.2232 47.1217 42.844 46.5126 44.201 46.5039C45.844 46.5039 47.4898 46.5039 49.1327 46.5039H114.798C116.441 46.5039 118.087 46.5039 119.729 46.5039C121.087 46.5039 121.702 47.1188 121.707 48.4739C121.719 50.7034 121.707 52.9416 121.707 55.1768Z" fill="#FCFEFF"/>
<path d="M89.7122 72.8892C87.564 73.6527 85.6324 74.7426 84.1944 76.5961C82.4014 78.9276 81.7373 81.5505 81.9914 84.4386C82.4764 86.9274 83.4841 89.1015 85.3725 90.8763C86.4235 91.8584 87.7228 92.3334 88.8691 93.1261C90.8903 93.5749 92.897 93.8809 94.9326 93.2777C99.0558 92.0508 101.574 89.3055 102.55 85.0826C102.801 83.7799 102.691 82.4598 102.668 81.1542C102.122 79.4726 101.548 77.8202 100.358 76.43C98.4148 74.1365 96.0068 72.8163 93.0125 72.6677C91.9182 72.6152 90.8008 72.5715 89.7122 72.8892ZM92.3109 86.6156C91.8516 86.6177 91.3966 86.5266 90.9729 86.3476C90.5492 86.1686 90.1655 85.9054 89.8447 85.5737C89.5238 85.242 89.2724 84.8485 89.1053 84.4166C88.9382 83.9848 88.8588 83.5235 88.872 83.0601C88.8989 82.1482 89.2749 81.2823 89.921 80.6443C90.5671 80.0063 91.433 79.6458 92.3369 79.6387C92.796 79.6362 93.251 79.7269 93.6747 79.9056C94.0984 80.0843 94.4821 80.3472 94.803 80.6787C95.1239 81.0102 95.3754 81.4035 95.5425 81.8351C95.7096 82.2668 95.789 82.728 95.7758 83.1913C95.7482 84.1027 95.3725 84.9681 94.7273 85.6063C94.082 86.2445 93.2172 86.6062 92.3138 86.6156H92.3109Z" fill="#F1F1F1"/>
<path d="M102.7 104.497C100.944 105.186 99.347 106.232 98.0078 107.569C96.4717 109.644 95.5073 111.941 95.4785 114.563C95.6633 118.559 97.3553 121.692 100.835 123.674C107.187 127.287 115.194 123.213 116.123 115.942C116.184 115.476 116.245 115.006 116.308 114.54C116.245 114.147 116.161 113.756 116.12 113.374C115.725 109.641 113.779 106.963 110.551 105.232C108.056 103.868 105.402 103.783 102.7 104.497ZM102.443 114.502C102.444 113.584 102.807 112.704 103.45 112.055C104.094 111.406 104.966 111.041 105.876 111.04C106.351 111.01 106.826 111.079 107.273 111.242C107.72 111.406 108.129 111.66 108.475 111.99C108.82 112.32 109.095 112.718 109.281 113.16C109.467 113.601 109.562 114.077 109.558 114.557C109.555 115.037 109.453 115.511 109.26 115.949C109.067 116.388 108.787 116.782 108.437 117.106C108.086 117.431 107.674 117.679 107.224 117.836C106.775 117.993 106.298 118.054 105.824 118.017C104.914 118.002 104.048 117.623 103.414 116.964C102.781 116.306 102.431 115.42 102.443 114.502Z" fill="#616669"/>
<path d="M66.4224 114.532C66.0643 108.995 62.8882 105.232 57.7284 104.233C52.4099 103.198 46.8776 106.996 45.8901 112.375C45.7573 113.087 45.7111 113.812 45.6274 114.532C45.9161 119.306 48.1423 122.739 52.6553 124.388C59.0075 126.72 65.9026 122.106 66.3791 115.293L66.4224 114.532ZM52.5629 114.494C52.568 113.804 52.7752 113.131 53.1584 112.56C53.5416 111.989 54.0837 111.544 54.7164 111.283C55.3491 111.022 56.0442 110.956 56.7142 111.093C57.3842 111.229 57.9992 111.563 58.4817 112.052C58.9643 112.54 59.2929 113.162 59.4261 113.839C59.5593 114.516 59.4912 115.217 59.2305 115.855C58.9697 116.492 58.5278 117.038 57.9605 117.423C57.3932 117.808 56.7257 118.015 56.0422 118.018C55.5845 118.017 55.1315 117.925 54.7089 117.748C54.2864 117.57 53.9026 117.31 53.5796 116.983C53.2565 116.656 53.0004 116.268 52.826 115.841C52.6515 115.414 52.5621 114.956 52.5629 114.494Z" fill="#616669"/>
<path d="M75.0095 76.1565L75.0528 72.6768C75.0528 71.8025 74.998 70.9282 75.0528 70.0539C75.1077 69.1796 74.6601 69.1446 74.0018 69.1475C69.0124 69.1621 64.023 69.1475 59.0336 69.1475C58.6005 69.1475 58.1674 69.1475 57.74 69.1475H43.947C41.972 69.1475 39.997 69.1912 38.022 69.1475C37.1991 69.1271 36.9739 69.4069 36.9999 70.2054C37.0547 71.7995 37.0634 73.4112 36.9999 74.9907C36.9652 75.865 37.1991 76.1827 38.1231 76.1565C41.2097 76.0982 44.2992 76.1331 47.3887 76.1331H68.1318L75.0095 76.1565Z" fill="#F1F1F1"/>
<path d="M75.0327 90.0814L75.0096 83.1191H68.1318H47.3946C44.2733 83.1191 41.1549 83.1453 38.0337 83.1016C37.2223 83.1016 36.9827 83.3405 37.0058 84.1478C37.0635 86.1383 37.0346 88.1287 37.0404 90.1192L72.8729 90.0959C73.5919 90.1047 74.3109 90.0901 75.0327 90.0814Z" fill="#F1F1F1"/>
<path d="M102.7 104.497C105.402 103.783 108.056 103.868 110.551 105.206C113.779 106.937 115.725 109.615 116.12 113.348C116.161 113.745 116.245 114.135 116.308 114.514L123.414 114.496C123.535 112.069 122.805 109.804 122.089 107.54C121.194 105.931 120.287 104.334 119.06 102.941C116.594 100.129 113.545 98.392 109.962 97.4973C107.548 96.897 105.128 97.0456 102.7 97.302V104.497Z" fill="#A72A27"/>
<path d="M43.953 69.1629H57.746C57.7576 66.8431 57.7672 64.5243 57.7749 62.2065C57.7518 59.5311 56.3168 56.4449 52.1445 55.25H49.7566C45.6912 56.1768 44.0511 59.1785 43.9241 62.2036C43.9318 64.5253 43.9414 66.8451 43.953 69.1629ZM50.8683 63.9317C50.5237 63.9375 50.1853 63.8395 49.8962 63.6501C49.6072 63.4607 49.3807 63.1887 49.2456 62.8687C49.1106 62.5487 49.0731 62.1953 49.1381 61.8537C49.2031 61.5122 49.3675 61.1979 49.6103 60.9511C49.8532 60.7044 50.1634 60.5363 50.5014 60.4684C50.8393 60.4005 51.1897 60.436 51.5076 60.5701C51.8256 60.7042 52.0966 60.931 52.2862 61.2215C52.4758 61.5119 52.5752 61.8529 52.5718 62.2006C52.5674 62.6564 52.3868 63.0923 52.0686 63.4156C51.7504 63.739 51.3197 63.9242 50.8683 63.9317Z" fill="#EA423F"/>
<path d="M95.4785 114.553C95.5073 111.93 96.4717 109.645 98.0078 107.559H75.0559L75.0213 114.5L95.4785 114.553Z" fill="#F1F1F1"/>
<path d="M133.182 100.552H133.075C132.226 100.64 131.12 100.191 130.583 100.736C129.96 101.365 130.393 102.519 130.364 103.443C130.318 104.816 130.338 106.189 130.332 107.564C130.346 109.878 130.361 112.193 130.378 114.509C132.423 114.509 134.47 114.494 136.511 114.538C137.138 114.538 137.282 114.34 137.279 113.742C137.253 109.613 137.245 105.483 137.279 101.357C137.279 100.625 137.008 100.535 136.413 100.555C135.336 100.596 134.259 100.558 133.182 100.552Z" fill="#A72A27"/>
<path d="M43.9238 62.2041C44.0509 59.1791 45.6909 56.1773 49.7563 55.2506L49.1153 55.1777H38.7467C37.0143 55.271 37.0143 55.271 37.0143 57.075C37.0143 58.5321 37.0432 59.9893 36.9999 61.4202C36.9825 62.0409 37.1644 62.2187 37.7794 62.2071C39.8324 62.1721 41.8795 62.2012 43.9238 62.2041Z" fill="#A72A27"/>
<path d="M130.378 114.513C130.363 112.195 130.348 109.88 130.332 107.568H122.089C122.805 109.833 123.532 112.097 123.414 114.525L130.378 114.513Z" fill="#F1F1F1"/>
<path d="M130.136 72.7059C130.534 73.8308 131.117 74.9062 131.002 76.1594C132.223 76.1594 133.45 76.2002 134.669 76.1302C135.414 76.0894 135.564 76.3721 135.535 77.0512C135.486 78.3947 135.509 79.7382 135.535 81.0817C135.549 82.3523 136.234 83.1217 137.285 83.1217C138.336 83.1217 138.98 82.329 138.985 81.0379C138.985 78.8959 139.003 76.751 138.985 74.609C138.985 73.3675 138.336 72.6797 137.146 72.6739C134.81 72.6535 132.474 72.6914 130.136 72.7059Z" fill="#A72A27"/>
<path d="M50.848 84.571C48.1482 84.571 45.9596 82.362 45.9596 79.6371C45.9596 76.9121 48.1482 74.7031 50.848 74.7031C53.5477 74.7031 55.7363 76.9121 55.7363 79.6371C55.7363 82.362 53.5477 84.571 50.848 84.571Z" fill="#B5B8B9"/>
<path d="M118.364 90.1039C120.916 90.1039 123.474 90.0806 126.027 90.1039C126.763 90.1039 126.893 89.9261 126.804 89.183C126.362 86.0239 125.981 82.8531 125.608 79.6823C125.34 77.3771 124.046 76.1415 121.768 76.1356C118.014 76.1356 114.281 76.156 110.539 76.1152C109.768 76.1152 109.589 76.3367 109.595 77.0886C109.631 81.0851 109.631 85.0806 109.595 89.0752C109.595 89.8679 109.754 90.1302 110.588 90.1127C113.178 90.0661 115.771 90.1039 118.364 90.1039Z" fill="#F1F1F1"/>
<path d="M81.9941 93.5977C81.9941 95.696 81.9941 97.7943 81.9508 99.8926C81.9508 100.403 82.098 100.589 82.6207 100.58C84.4821 100.555 86.3464 100.555 88.2135 100.58C88.7333 100.58 88.8892 100.403 88.8805 99.8926C88.8488 97.7943 88.8488 95.696 88.8372 93.5977H81.9941Z" fill="#60B7D0"/>
<path d="M81.9943 93.5992H88.8374C88.8374 93.4418 88.8576 93.2844 88.8691 93.127C87.7142 92.3489 86.4235 91.8593 85.3725 90.8772C83.4842 89.1053 82.4851 86.9283 81.9914 84.4395C81.9933 87.4937 81.9943 90.5469 81.9943 93.5992Z" fill="#B5B8B9"/>
<path d="M59.4926 46.4902C59.4926 49.3832 59.4926 52.279 59.4926 55.1778H62.9575C62.9575 52.281 62.9575 49.3851 62.9575 46.4902H59.4926Z" fill="#F1F1F1"/>
<path d="M69.8613 46.4902V55.1778H73.3262V46.4902H69.8613Z" fill="#F1F1F1"/>
<path d="M100.97 46.4902C100.97 49.3832 100.97 52.279 100.97 55.1778H104.435V46.4902H100.97Z" fill="#F1F1F1"/>
<path d="M83.6948 55.1778C83.6948 52.281 83.6948 49.3851 83.6948 46.4902H80.23C80.23 49.3832 80.23 52.279 80.23 55.1778H83.6948Z" fill="#F1F1F1"/>
<path d="M90.6015 46.4902V55.1778H94.0664V46.4902H90.6015Z" fill="#F1F1F1"/>
<path d="M52.5862 55.1778V46.4902H49.1213C49.1213 49.3832 49.1213 52.279 49.1213 55.1778L49.7623 55.2507H52.1502L52.5862 55.1778Z" fill="#F1F1F1"/>
<path d="M92.3137 86.6156C93.2177 86.607 94.0832 86.2457 94.7291 85.6074C95.375 84.9691 95.7511 84.1032 95.7786 83.1913C95.7918 82.728 95.7125 82.2668 95.5453 81.8352C95.3782 81.4035 95.1267 81.0102 94.8058 80.6787C94.4849 80.3472 94.1012 80.0843 93.6775 79.9056C93.2539 79.727 92.7989 79.6362 92.3397 79.6387C91.4359 79.6459 90.5699 80.0063 89.9238 80.6443C89.2777 81.2823 88.9017 82.1482 88.8749 83.0601C88.8617 83.5235 88.941 83.9849 89.1081 84.4167C89.2752 84.8485 89.5267 85.242 89.8475 85.5737C90.1683 85.9054 90.552 86.1686 90.9757 86.3476C91.3994 86.5266 91.8544 86.6178 92.3137 86.6156Z" fill="#B5B8B9"/>
<path d="M102.443 114.502C102.431 115.42 102.78 116.306 103.414 116.964C104.048 117.623 104.914 118.002 105.824 118.017C106.298 118.054 106.774 117.993 107.224 117.836C107.673 117.679 108.086 117.431 108.436 117.107C108.787 116.782 109.067 116.388 109.26 115.949C109.453 115.511 109.554 115.037 109.558 114.557C109.562 114.077 109.467 113.601 109.281 113.16C109.094 112.718 108.82 112.32 108.475 111.99C108.129 111.66 107.72 111.406 107.273 111.242C106.826 111.079 106.35 111.01 105.876 111.04C104.966 111.041 104.094 111.406 103.45 112.055C102.806 112.704 102.444 113.584 102.443 114.502Z" fill="#E6EBEE"/>
<path d="M52.5632 114.494C52.5546 115.188 52.7505 115.868 53.126 116.449C53.5014 117.03 54.0395 117.485 54.6718 117.756C55.3042 118.028 56.0021 118.103 56.6771 117.973C57.352 117.843 57.9735 117.514 58.4624 117.027C58.9513 116.539 59.2856 115.916 59.4229 115.237C59.5601 114.557 59.4941 113.852 59.2331 113.21C58.9722 112.569 58.5282 112.02 57.9575 111.634C57.3868 111.247 56.7152 111.041 56.0281 111.041C55.1177 111.045 54.2451 111.408 53.5973 112.054C52.9496 112.7 52.5783 113.576 52.5632 114.494Z" fill="#E6EBEE"/>
<path d="M64.6756 84.571C61.9758 84.571 59.7873 82.362 59.7873 79.6371C59.7873 76.9121 61.9758 74.7031 64.6756 74.7031C67.3754 74.7031 69.564 76.9121 69.564 79.6371C69.564 82.362 67.3754 84.571 64.6756 84.571Z" fill="#B5B8B9"/>
<path d="M50.8682 63.9308C51.213 63.9306 51.55 63.8266 51.8359 63.632C52.1218 63.4375 52.3437 63.1612 52.4731 62.8387C52.6026 62.5161 52.6337 62.1618 52.5626 61.8213C52.4914 61.4807 52.3212 61.1694 52.0736 60.9271C51.8261 60.6847 51.5126 60.5225 51.1732 60.461C50.8338 60.3996 50.4839 60.4418 50.1684 60.5822C49.8529 60.7227 49.5861 60.9549 49.4021 61.2493C49.2182 61.5437 49.1254 61.8868 49.1358 62.2346C49.1493 62.6892 49.3378 63.1206 49.6612 63.4373C49.9846 63.754 50.4176 63.931 50.8682 63.9308Z" fill="#E6EBEE"/>
</g>
</g>
<defs>
<filter id="filter0_d_4661_3364" x="0.5" y="0" width="176" height="176" filterUnits="userSpaceOnUse" color-interpolation-filters="sRGB">
<feFlood flood-opacity="0" result="BackgroundImageFix"/>
<feColorMatrix in="SourceAlpha" type="matrix" values="0 0 0 0 0 0 0 0 0 0 0 0 0 0 0 0 0 0 127 0" result="hardAlpha"/>
<feOffset dy="4"/>
<feGaussianBlur stdDeviation="3.5"/>
<feComposite in2="hardAlpha" operator="out"/>
<feColorMatrix type="matrix" values="0 0 0 0 0.627431 0 0 0 0 0.685336 0 0 0 0 0.8125 0 0 0 0.29 0"/>
<feBlend mode="normal" in2="BackgroundImageFix" result="effect1_dropShadow_4661_3364"/>
<feBlend mode="normal" in="SourceGraphic" in2="effect1_dropShadow_4661_3364" result="shape"/>
</filter>
<filter id="filter1_d_4661_3364" x="0.5" y="0" width="176" height="176" filterUnits="userSpaceOnUse" color-interpolation-filters="sRGB">
<feFlood flood-opacity="0" result="BackgroundImageFix"/>
<feColorMatrix in="SourceAlpha" type="matrix" values="0 0 0 0 0 0 0 0 0 0 0 0 0 0 0 0 0 0 127 0" result="hardAlpha"/>
<feOffset dy="4"/>
<feGaussianBlur stdDeviation="3.5"/>
<feComposite in2="hardAlpha" operator="out"/>
<feColorMatrix type="matrix" values="0 0 0 0 0.627431 0 0 0 0 0.685336 0 0 0 0 0.8125 0 0 0 0.29 0"/>
<feBlend mode="normal" in2="BackgroundImageFix" result="effect1_dropShadow_4661_3364"/>
<feBlend mode="normal" in="SourceGraphic" in2="effect1_dropShadow_4661_3364" result="shape"/>
</filter>
<linearGradient id="paint0_linear_4661_3364" x1="175.847" y1="165" x2="-3.80278" y2="11.2634" gradientUnits="userSpaceOnUse">
<stop stop-color="#FFA800"/>
<stop offset="1" stop-color="#FFDB20"/>
</linearGradient>
<clipPath id="clip0_4661_3364">
<rect width="102" height="82" fill="white" transform="matrix(-1 0 0 1 139 43)"/>
</clipPath>
</defs>
</svg>
