<svg width="42" height="42" viewBox="0 0 42 42" fill="none" xmlns="http://www.w3.org/2000/svg">
<g clip-path="url(#clip0_664_12709)">
<path d="M0 31.2539V0.902344C0.186005 0.505296 0.505296 0.186005 0.902344 0H41.0977C41.4947 0.186005 41.814 0.505296 42 0.902344V31.2539C41.6719 31.9648 41.1097 32.1683 40.3484 32.1672C27.4502 32.1519 14.5512 32.1519 1.65156 32.1672C0.89031 32.1683 0.328125 31.9627 0 31.2539ZM25.9219 12.3867H23.788C21.2359 12.3867 18.6812 12.3867 16.1241 12.3867C15.8162 12.3738 15.5148 12.4772 15.2798 12.6765C15.0448 12.8757 14.8934 13.1561 14.8557 13.462C14.8181 13.7678 14.897 14.0765 15.0767 14.3268C15.2563 14.5771 15.5237 14.7505 15.8255 14.8127C16.0003 14.8419 16.1778 14.8526 16.3548 14.8444H34.6719C35.0405 14.8444 35.4091 14.8553 35.7777 14.8444C36.0196 14.8455 36.2561 14.7729 36.4556 14.6361C36.6552 14.4993 36.8082 14.3048 36.8944 14.0788C37.2488 13.2453 36.6308 12.3878 35.6694 12.3867C32.4209 12.3831 29.1718 12.3831 25.9219 12.3867ZM25.9306 24.6914H29.0456C31.2725 24.6914 33.4994 24.6914 35.7262 24.6914C36.0344 24.704 36.336 24.5999 36.5709 24.4C36.8057 24.2001 36.9566 23.919 36.9935 23.6128C37.0303 23.3066 36.9504 22.9977 36.7697 22.7478C36.5889 22.4979 36.3206 22.3253 36.0183 22.2644C35.8433 22.2364 35.6659 22.2265 35.4889 22.2348H17.3327C16.9094 22.2348 16.485 22.2228 16.0628 22.2348C15.821 22.233 15.5845 22.3055 15.3852 22.4424C15.1859 22.5793 15.0334 22.7741 14.9483 23.0005C14.595 23.8328 15.2152 24.6892 16.1766 24.6903C19.4265 24.6947 22.6767 24.6951 25.9273 24.6914H25.9306ZM8.73359 17.3086C7.94172 17.3086 7.14984 17.3086 6.35797 17.3086C5.51031 17.3086 5.01047 17.8106 5.00828 18.6594C5.00828 20.2154 5.00828 21.7718 5.00828 23.3286C5.00828 24.1795 5.50812 24.687 6.34922 24.6892C7.91911 24.6936 9.48901 24.6936 11.0589 24.6892C11.8792 24.6892 12.3856 24.1795 12.3889 23.3581C12.3933 21.789 12.3933 20.2187 12.3889 18.6473C12.3889 17.8062 11.8803 17.3119 11.0272 17.3086C10.2594 17.3064 9.49484 17.3086 8.73031 17.3086H8.73359ZM22.2338 9.92578C24.255 9.92578 26.2762 9.92578 28.2975 9.92578C28.8575 9.92578 29.2819 9.69062 29.5094 9.17984C29.8889 8.33875 29.26 7.46594 28.2756 7.46484C24.2747 7.46484 20.2734 7.46484 16.2717 7.46484C15.4109 7.46484 14.8498 7.9625 14.8498 8.70625C14.8498 9.45 15.4197 9.92469 16.2914 9.92578H22.2338ZM22.2338 19.7695C24.2408 19.7695 26.2489 19.7695 28.2559 19.7695C28.8313 19.7695 29.2709 19.5508 29.5072 19.0192C29.8845 18.177 29.2545 17.3086 28.2702 17.3075C24.2685 17.3075 20.2672 17.3075 16.2662 17.3075C15.4066 17.3075 14.8444 17.8073 14.8444 18.5511C14.8444 19.2948 15.412 19.7673 16.2477 19.7684L22.2338 19.7695ZM8.18453 11.2962C7.83891 10.9375 7.54688 10.593 7.21875 10.2812C7.10542 10.1667 6.97036 10.0759 6.82148 10.0141C6.67261 9.95244 6.51291 9.92107 6.35175 9.92189C6.1906 9.9227 6.03122 9.95568 5.88298 10.0189C5.73473 10.0821 5.6006 10.1743 5.48844 10.29C5.26025 10.5212 5.13312 10.8335 5.13496 11.1583C5.13681 11.4831 5.26748 11.7939 5.49828 12.0225C6.09766 12.6408 6.70615 13.2497 7.32375 13.8491C7.83344 14.3445 8.55313 14.3686 9.05407 13.8764C10.3097 12.6463 11.5547 11.4012 12.7892 10.1413C12.9375 9.99694 13.043 9.81438 13.094 9.6138C13.145 9.41323 13.1394 9.20246 13.078 9.00484C12.8188 8.06203 11.713 7.77328 10.9998 8.47656C10.0713 9.38547 9.16453 10.313 8.18453 11.2962Z" fill="white"/>
<path d="M10.8282 42C10.7614 41.9584 10.698 41.9136 10.6291 41.8764C10.1008 41.5931 9.82847 41.0452 9.95316 40.5147C10.0131 40.2381 10.1661 39.9906 10.3867 39.8134C10.6073 39.6362 10.8821 39.5401 11.165 39.5413C12.4721 39.4964 13.5035 38.9495 14.2385 37.8678C14.7066 37.1777 14.875 36.3989 14.8488 35.5709C14.84 35.2723 14.8488 34.9727 14.8488 34.6445H27.1535C27.1535 35.0613 27.1469 35.4802 27.1535 35.898C27.1687 36.8442 27.5461 37.7487 28.2079 38.4251C28.8698 39.1016 29.7657 39.4987 30.7114 39.5347C31.4574 39.5653 31.931 39.923 32.0546 40.553C32.1639 41.1206 31.8741 41.6052 31.2189 41.9388C31.1982 41.9486 31.1861 41.9781 31.1708 41.9989L10.8282 42Z" fill="white"/>
<path d="M9.89841 22.2108H7.4856V19.7969H9.89841V22.2108Z" fill="white"/>
</g>
<defs>
<clipPath id="clip0_664_12709">
<rect width="42" height="42" fill="white"/>
</clipPath>
</defs>
</svg>
