<svg width="117" height="118" viewBox="0 0 117 118" fill="none" xmlns="http://www.w3.org/2000/svg">
    <defs>
        <filter id="filter0_d_2250_20693" x="0.5" y="4" width="114" height="114" filterUnits="userSpaceOnUse" color-interpolation-filters="sRGB">
            <feFlood flood-opacity="0" result="BackgroundImageFix"/>
            <feColorMatrix in="SourceAlpha" type="matrix" values="0 0 0 0 0 0 0 0 0 0 0 0 0 0 0 0 0 0 127 0" result="hardAlpha"/>
            <feOffset dy="4"/>
            <feGaussianBlur stdDeviation="2"/>
            <feComposite in2="hardAlpha" operator="out"/>
            <feColorMatrix type="matrix" values="0 0 0 0 0 0 0 0 0 0 0 0 0 0 0 0 0 0 0.25 0"/>
            <feBlend mode="normal" in2="BackgroundImageFix" result="effect1_dropShadow_2250_20693"/>
            <feBlend mode="normal" in="SourceGraphic" in2="effect1_dropShadow_2250_20693" result="shape"/>
        </filter>
        <filter id="filter1_d_2250_20693" x="0.5" y="0" width="116" height="116" filterUnits="userSpaceOnUse" color-interpolation-filters="sRGB">
            <feFlood flood-opacity="0" result="BackgroundImageFix"/>
            <feColorMatrix in="SourceAlpha" type="matrix" values="0 0 0 0 0 0 0 0 0 0 0 0 0 0 0 0 0 0 127 0" result="hardAlpha"/>
            <feOffset dx="1" dy="1"/>
            <feGaussianBlur stdDeviation="2.5"/>
            <feComposite in2="hardAlpha" operator="out"/>
            <feColorMatrix type="matrix" values="0 0 0 0 0.566667 0 0 0 0 0.167495 0 0 0 0 0.115694 0 0 0 0.4 0"/>
            <feBlend mode="normal" in2="BackgroundImageFix" result="effect1_dropShadow_2250_20693"/>
            <feBlend mode="normal" in="SourceGraphic" in2="effect1_dropShadow_2250_20693" result="shape"/>
        </filter>
        <linearGradient id="paint0_linear_2250_20693" x1="7.18354" y1="27.481" x2="110.5" y2="105.975" gradientUnits="userSpaceOnUse">
            <stop stop-color="#FF5963"/>
            <stop offset="1" stop-color="#E00E66"/>
        </linearGradient>
    </defs>
<g filter="url(#filter0_d_2250_20693)">
<g filter="url(#filter1_d_2250_20693)">
<circle cx="57.5" cy="57" r="53" fill="url(#paint0_linear_2250_20693)"/>
</g>
<path d="M41.9555 65.7953C40.7235 65.7953 39.5428 65.6339 38.4135 65.3112C37.2842 64.9739 36.3748 64.5412 35.6855 64.0132L36.8955 61.3292C37.5555 61.7986 38.3328 62.1872 39.2275 62.4952C40.1368 62.7886 41.0535 62.9352 41.9775 62.9352C42.6815 62.9352 43.2462 62.8692 43.6715 62.7372C44.1115 62.5906 44.4342 62.3926 44.6395 62.1432C44.8448 61.8939 44.9475 61.6079 44.9475 61.2852C44.9475 60.8746 44.7862 60.5519 44.4635 60.3172C44.1408 60.0679 43.7155 59.8699 43.1875 59.7233C42.6595 59.5619 42.0728 59.4152 41.4275 59.2832C40.7968 59.1366 40.1588 58.9606 39.5135 58.7552C38.8828 58.5499 38.3035 58.2859 37.7755 57.9632C37.2475 57.6406 36.8148 57.2152 36.4775 56.6872C36.1548 56.1592 35.9935 55.4846 35.9935 54.6632C35.9935 53.7832 36.2282 52.9839 36.6975 52.2652C37.1815 51.5319 37.9002 50.9526 38.8535 50.5272C39.8215 50.0872 41.0315 49.8672 42.4835 49.8672C43.4515 49.8672 44.4048 49.9846 45.3435 50.2192C46.2822 50.4392 47.1108 50.7766 47.8295 51.2312L46.7295 53.9372C46.0108 53.5266 45.2922 53.2259 44.5735 53.0352C43.8548 52.8299 43.1508 52.7272 42.4615 52.7272C41.7722 52.7272 41.2075 52.8079 40.7675 52.9692C40.3275 53.1306 40.0122 53.3432 39.8215 53.6072C39.6308 53.8566 39.5355 54.1499 39.5355 54.4872C39.5355 54.8832 39.6968 55.2059 40.0195 55.4552C40.3422 55.6899 40.7675 55.8806 41.2955 56.0272C41.8235 56.1739 42.4028 56.3206 43.0335 56.4672C43.6788 56.6139 44.3168 56.7826 44.9475 56.9732C45.5928 57.1639 46.1795 57.4206 46.7075 57.7432C47.2355 58.0659 47.6608 58.4912 47.9835 59.0192C48.3208 59.5472 48.4895 60.2146 48.4895 61.0212C48.4895 61.8866 48.2475 62.6786 47.7635 63.3972C47.2795 64.1159 46.5535 64.6952 45.5855 65.1352C44.6322 65.5752 43.4222 65.7953 41.9555 65.7953ZM57.9968 65.7953C56.7795 65.7953 55.6501 65.5972 54.6088 65.2012C53.5821 64.8052 52.6875 64.2479 51.9248 63.5292C51.1768 62.8106 50.5901 61.9672 50.1648 60.9992C49.7541 60.0312 49.5488 58.9752 49.5488 57.8312C49.5488 56.6872 49.7541 55.6312 50.1648 54.6632C50.5901 53.6952 51.1841 52.8519 51.9468 52.1332C52.7095 51.4146 53.6041 50.8572 54.6308 50.4612C55.6575 50.0652 56.7721 49.8672 57.9748 49.8672C59.1921 49.8672 60.3068 50.0652 61.3188 50.4612C62.3455 50.8572 63.2328 51.4146 63.9808 52.1332C64.7435 52.8519 65.3375 53.6952 65.7628 54.6632C66.1881 55.6166 66.4008 56.6726 66.4008 57.8312C66.4008 58.9752 66.1881 60.0386 65.7628 61.0212C65.3375 61.9892 64.7435 62.8326 63.9808 63.5512C63.2328 64.2552 62.3455 64.8052 61.3188 65.2012C60.3068 65.5972 59.1995 65.7953 57.9968 65.7953ZM57.9748 62.7592C58.6641 62.7592 59.2948 62.6419 59.8668 62.4072C60.4535 62.1726 60.9668 61.8352 61.4068 61.3952C61.8468 60.9552 62.1841 60.4346 62.4188 59.8332C62.6681 59.2319 62.7928 58.5646 62.7928 57.8312C62.7928 57.0979 62.6681 56.4306 62.4188 55.8292C62.1841 55.2279 61.8468 54.7072 61.4068 54.2672C60.9815 53.8272 60.4755 53.4899 59.8888 53.2552C59.3021 53.0206 58.6641 52.9032 57.9748 52.9032C57.2855 52.9032 56.6475 53.0206 56.0608 53.2552C55.4888 53.4899 54.9828 53.8272 54.5428 54.2672C54.1028 54.7072 53.7581 55.2279 53.5088 55.8292C53.2741 56.4306 53.1568 57.0979 53.1568 57.8312C53.1568 58.5499 53.2741 59.2172 53.5088 59.8332C53.7581 60.4346 54.0955 60.9552 54.5208 61.3952C54.9608 61.8352 55.4741 62.1726 56.0608 62.4072C56.6475 62.6419 57.2855 62.7592 57.9748 62.7592ZM73.7313 65.7953C72.4993 65.7953 71.3186 65.6339 70.1893 65.3112C69.06 64.9739 68.1506 64.5412 67.4613 64.0132L68.6713 61.3292C69.3313 61.7986 70.1086 62.1872 71.0033 62.4952C71.9126 62.7886 72.8293 62.9352 73.7533 62.9352C74.4573 62.9352 75.022 62.8692 75.4473 62.7372C75.8873 62.5906 76.21 62.3926 76.4153 62.1432C76.6206 61.8939 76.7233 61.6079 76.7233 61.2852C76.7233 60.8746 76.562 60.5519 76.2393 60.3172C75.9166 60.0679 75.4913 59.8699 74.9633 59.7233C74.4353 59.5619 73.8486 59.4152 73.2033 59.2832C72.5726 59.1366 71.9346 58.9606 71.2893 58.7552C70.6586 58.5499 70.0793 58.2859 69.5513 57.9632C69.0233 57.6406 68.5906 57.2152 68.2533 56.6872C67.9306 56.1592 67.7693 55.4846 67.7693 54.6632C67.7693 53.7832 68.004 52.9839 68.4733 52.2652C68.9573 51.5319 69.676 50.9526 70.6293 50.5272C71.5973 50.0872 72.8073 49.8672 74.2593 49.8672C75.2273 49.8672 76.1806 49.9846 77.1193 50.2192C78.058 50.4392 78.8866 50.7766 79.6053 51.2312L78.5053 53.9372C77.7866 53.5266 77.068 53.2259 76.3493 53.0352C75.6306 52.8299 74.9266 52.7272 74.2373 52.7272C73.548 52.7272 72.9833 52.8079 72.5433 52.9692C72.1033 53.1306 71.788 53.3432 71.5973 53.6072C71.4066 53.8566 71.3113 54.1499 71.3113 54.4872C71.3113 54.8832 71.4726 55.2059 71.7953 55.4552C72.118 55.6899 72.5433 55.8806 73.0713 56.0272C73.5993 56.1739 74.1786 56.3206 74.8093 56.4672C75.4546 56.6139 76.0926 56.7826 76.7233 56.9732C77.3686 57.1639 77.9553 57.4206 78.4833 57.7432C79.0113 58.0659 79.4366 58.4912 79.7593 59.0192C80.0966 59.5472 80.2653 60.2146 80.2653 61.0212C80.2653 61.8866 80.0233 62.6786 79.5393 63.3972C79.0553 64.1159 78.3293 64.6952 77.3613 65.1352C76.408 65.5752 75.198 65.7953 73.7313 65.7953Z" fill="white"/>
</g>

</svg>
