<svg width="50" height="43" viewBox="0 0 50 43" fill="none" xmlns="http://www.w3.org/2000/svg">
<path d="M7.63103 41V35.062C7.63103 33.9472 7.3858 33.7149 6.21944 33.7134C5.75964 33.7134 5.29984 33.7207 4.84004 33.7134C3.1541 33.6813 2.00153 32.584 2 30.9738C2 25.3417 2 19.7092 2 14.0761C2 11.0136 2 7.9516 2 4.89008C2 3.08122 3.13418 2 5.04082 2C18.3393 2 31.6372 2 44.9347 2C46.8766 2 48 3.07392 48 4.92222C48 13.5253 48 22.1288 48 30.7328C48 32.6731 46.9271 33.7105 44.8902 33.712C36.7073 33.712 28.5259 33.712 20.3445 33.7295C19.8565 33.74 19.3802 33.8747 18.9651 34.1196C15.3557 36.2894 11.7692 38.4942 8.17512 40.6873C8.02798 40.775 7.88085 40.8554 7.63103 41ZM24.99 24.6195C25.1969 24.7656 25.3701 24.8722 25.5387 24.9891C27.4137 26.2837 29.2892 27.5787 31.1652 28.8742C31.789 29.3038 32.2779 29.3213 32.7269 28.9487C33.176 28.5762 33.1592 28.0998 32.986 27.5987C32.3249 25.6807 31.6689 23.7599 31.018 21.8361C30.8908 21.4606 30.7697 21.0836 30.6487 20.7183C30.7697 20.6306 30.8448 20.5722 30.923 20.5211C32.8741 19.1724 34.8328 17.8297 36.7717 16.465C37.051 16.2851 37.2689 16.0311 37.3985 15.7345C37.6376 15.0039 37.092 14.4282 36.1862 14.4195C33.809 14.4092 31.4349 14.4034 29.0577 14.4195C28.6179 14.4195 28.4339 14.2982 28.3006 13.8934C27.5986 11.7588 26.8584 9.63285 26.1273 7.50693C25.8866 6.80414 25.5142 6.51484 24.9149 6.56159C24.3157 6.60835 24.0306 6.99993 23.8589 7.50255C23.1278 9.64746 22.3845 11.7909 21.6687 13.9417C21.5507 14.2953 21.3929 14.4224 20.9913 14.4195C18.6524 14.399 16.3151 14.4078 13.9778 14.4107C13.1578 14.4107 12.7517 14.6255 12.5861 15.1281C12.413 15.6614 12.6015 16.0471 13.2513 16.4957C14.9403 17.6646 16.6298 18.8335 18.3199 20.0024C19.3498 20.7125 19.3498 20.711 18.9483 21.8872C18.2907 23.8071 17.6286 25.727 16.9834 27.6498C16.6768 28.5499 17.2347 29.3272 18.0946 29.1971C18.3923 29.1274 18.6696 28.994 18.9053 28.807C20.9269 27.4321 22.9393 26.0309 24.99 24.6195Z" fill="white"/>
</svg>
