<svg width="18" height="18" viewBox="0 0 18 18" fill="none" xmlns="http://www.w3.org/2000/svg">
<path d="M10.5504 0.888816L12.3201 3.79626C12.5726 4.20545 12.9643 4.50049 13.4167 4.62246L16.6196 5.4762C16.9195 5.55584 17.1951 5.71315 17.4208 5.93349C17.6466 6.15382 17.815 6.43002 17.9105 6.73634C18.006 7.04266 18.0255 7.36914 17.967 7.68538C17.9086 8.00161 17.7741 8.29732 17.5763 8.54494L15.47 11.1967C15.1711 11.5704 15.0209 12.049 15.0503 12.5343L15.2583 15.9689C15.2782 16.2901 15.2197 16.6113 15.0883 16.9026C14.9568 17.194 14.7567 17.446 14.5065 17.6352C14.2563 17.8245 13.9642 17.9448 13.6573 17.985C13.3503 18.0253 13.0387 17.9841 12.7512 17.8653L9.67689 16.5984C9.24237 16.4176 8.75763 16.4176 8.32311 16.5984L5.24882 17.8653C4.96112 17.9838 4.64934 18.0248 4.34233 17.9846C4.03532 17.9443 3.74304 17.824 3.49262 17.6349C3.2422 17.4458 3.04173 17.1939 2.90981 16.9027C2.77789 16.6114 2.71881 16.2903 2.738 15.9689L2.94974 12.5343C2.97911 12.049 2.82894 11.5704 2.53001 11.1967L0.423778 8.54494C0.2259 8.29732 0.0914357 8.00161 0.0329886 7.68538C-0.0254586 7.36914 -0.00600873 7.04266 0.0894882 6.73634C0.184985 6.43002 0.353425 6.15382 0.579152 5.93349C0.804879 5.71315 1.08054 5.55584 1.38044 5.4762L4.58333 4.62246C5.03579 4.50049 5.42735 4.20545 5.67991 3.79626L7.44963 0.888816C7.61497 0.616586 7.84385 0.392321 8.11493 0.236911C8.38602 0.0815004 8.69049 0 9 0C9.30951 0 9.61398 0.0815004 9.88507 0.236911C10.1562 0.392321 10.385 0.616586 10.5504 0.888816Z" fill="#8E969B"/>
</svg>
