<svg width="373" height="323" viewBox="0 0 373 323" fill="none" xmlns="http://www.w3.org/2000/svg">
<path d="M255.221 182.423H330.952L195.392 318.898C192.591 321.513 188.913 322.966 185.093 322.966C181.273 322.966 177.594 321.513 174.793 318.898L44.534 187.76L39.2332 182.423H108.906C111.026 182.431 113.105 181.833 114.901 180.699C116.697 179.566 118.138 177.943 119.055 176.018L126.325 160.769L151.771 213.53C152.741 215.417 154.207 217 156.01 218.104C157.813 219.209 159.883 219.793 161.994 219.793C164.105 219.793 166.175 219.209 167.978 218.104C169.781 217 171.248 215.417 172.218 213.53L218.717 118.988L244.466 175.256C245.36 177.383 246.857 179.197 248.77 180.472C250.682 181.747 252.927 182.425 255.221 182.423Z" fill="#FFCAD5"/>
<path d="M371.541 100.073C371.596 121.385 364.794 142.142 352.153 159.238H262.336L229.62 88.0266C228.725 86.0737 227.294 84.4189 225.496 83.2572C223.698 82.0956 221.607 81.4755 219.471 81.4698C217.356 81.488 215.284 82.0779 213.472 83.1777C211.66 84.2774 210.175 85.8468 209.172 87.7218L162.37 182.416L137.53 129.656C136.462 127.888 134.961 126.428 133.171 125.414C131.38 124.4 129.36 123.868 127.306 123.868C125.252 123.868 123.232 124.4 121.441 125.414C119.651 126.428 118.15 127.888 117.082 129.656L102.845 159.238H19.3881C6.74781 142.142 -0.0543405 121.385 0.00032695 100.073C-0.00794372 80.2828 5.81487 60.9345 16.7321 44.4767C27.6494 28.0189 43.171 15.1912 61.3318 7.61665C79.4927 0.0420707 99.4771 -1.93873 118.757 1.92447C138.036 5.78768 155.744 15.3212 169.64 29.3193L178.577 38.3159C180.627 40.2565 183.335 41.337 186.15 41.337C188.964 41.337 191.672 40.2565 193.723 38.3159L202.507 29.3193C216.403 15.3212 234.112 5.78768 253.391 1.92447C272.671 -1.93873 292.655 0.0420707 310.816 7.61665C328.977 15.1912 344.498 28.0189 355.415 44.4767C366.332 60.9345 372.155 80.2828 372.147 100.073H371.541Z" fill="#FFCAD5"/>
</svg>
