<svg width="49" height="48" viewBox="0 0 49 48" fill="none" xmlns="http://www.w3.org/2000/svg">
<path d="M30.8302 47.3633H28.4641C24.5417 47.3633 20.6333 47.3633 16.7179 47.3536C16.3743 47.3514 16.0358 47.2709 15.7289 47.1181C11.8345 45.0959 7.95409 43.0474 4.0569 41.0238C3.68558 40.8455 3.28018 40.7473 2.86757 40.7357C1.92759 40.6942 0.984805 40.7233 0 40.7233V34.1248C0.0980109 34.1066 0.197303 34.0959 0.296982 34.0929C3.01465 34.2065 5.70571 33.8672 8.40376 33.6442C10.7138 33.4544 12.7324 34.1373 14.3756 35.7412C15.4431 36.7827 16.4251 37.9143 17.4057 39.0404C17.7784 39.4665 17.9835 40.011 17.9835 40.5744C17.9835 41.1377 17.7784 41.6822 17.4057 42.1083C16.1038 41.2505 14.7992 40.3918 13.4917 39.5321C13.3071 39.4009 13.1149 39.2807 12.9159 39.172C12.4957 38.9601 12.1315 39.0598 11.8513 39.4213C11.7267 39.5905 11.674 39.8013 11.7047 40.0084C11.7353 40.2155 11.8468 40.4025 12.0152 40.5294C12.3444 40.7842 12.703 41.0017 13.0518 41.2316C14.3014 42.0557 15.5384 42.8937 16.8103 43.6873C17.1604 43.8995 17.5611 44.0162 17.9717 44.0253C20.9261 44.0544 23.8805 44.0253 26.8349 44.046C27.7337 44.051 28.6061 44.3471 29.3185 44.8889C30.031 45.4307 30.5442 46.1885 30.7797 47.0461C30.8022 47.1509 30.8191 47.2568 30.8302 47.3633Z" fill="white"/>
<path d="M17.6018 0.908203H18.1916C22.7192 0.908203 27.2467 0.908204 31.7799 0.9179C32.1062 0.923232 32.4269 1.00286 32.7171 1.15059C36.6255 3.18526 40.5213 5.24209 44.4311 7.2726C44.772 7.43642 45.1448 7.52525 45.5238 7.533C46.4806 7.56762 47.4401 7.54408 48.439 7.54408V14.1509C48.338 14.1674 48.2359 14.1766 48.1336 14.1786C45.4159 14.0664 42.7248 14.4085 40.0268 14.6273C37.6761 14.8185 35.6393 14.0996 33.9807 12.4542C32.9566 11.4389 32.0097 10.3488 31.0585 9.26849C30.6722 8.84361 30.4565 8.29365 30.4521 7.72236C30.4478 7.15108 30.655 6.59795 31.0347 6.16732C32.3795 7.05284 33.7276 7.94021 35.0789 8.82942C35.2342 8.94092 35.3981 9.04004 35.5693 9.12583C35.7416 9.2177 35.9432 9.24017 36.132 9.18855C36.3207 9.13693 36.482 9.01521 36.5821 8.84881C36.7014 8.69574 36.7583 8.50403 36.7417 8.31149C36.7251 8.11895 36.6362 7.93954 36.4924 7.80863C36.3899 7.71162 36.2761 7.627 36.1534 7.55654C34.6279 6.5496 33.1107 5.53018 31.5684 4.54955C31.2631 4.35986 30.9118 4.25507 30.5514 4.24622C27.5801 4.22268 24.6089 4.24622 21.6363 4.2296C20.7368 4.23244 19.8611 3.94371 19.1433 3.40764C18.4255 2.87156 17.9052 2.11768 17.662 1.2614C17.6368 1.16444 17.6284 1.06333 17.6018 0.908203Z" fill="white"/>
<path d="M26.7326 15.0361V18.985C26.7326 19.539 26.7326 20.093 26.7326 20.6471C26.741 21.3507 27.0408 21.6443 27.765 21.6457C29.5987 21.6457 31.4339 21.6457 33.2676 21.6457C33.3149 21.651 33.3617 21.6598 33.4077 21.672V26.6181H32.8557C31.1747 26.6181 29.4937 26.6181 27.8238 26.6181C27.0085 26.6181 26.7354 26.8951 26.734 27.7151C26.734 29.3568 26.734 30.9977 26.734 32.6376V33.2249H21.6979V32.6972C21.6979 31.0351 21.6979 29.3772 21.6979 27.7234C21.6979 26.884 21.4177 26.6153 20.5618 26.6153H15.0242V21.6471H20.6038C21.4163 21.6471 21.6937 21.3701 21.6951 20.5487C21.6951 18.9069 21.6951 17.2661 21.6951 15.6262V15.0361H26.7326Z" fill="white"/>
<path d="M15.4207 6.13574C15.7107 6.72994 15.9362 7.19255 16.1617 7.65239C15.3969 8.10808 14.646 8.51114 13.9414 8.98206C10.8907 10.9962 8.51781 13.8651 7.12666 17.2211C5.73551 20.5771 5.3895 24.2674 6.13297 27.819C6.21842 28.2345 6.26605 28.6501 5.85279 28.9492C5.43954 29.2484 5.06691 29.0711 4.68307 28.8647C3.24719 28.0877 1.8043 27.3204 0.315186 26.524L1.11228 25.0724L4.14934 26.6805C3.52876 17.4504 7.25785 10.6538 15.4207 6.13574Z" fill="white"/>
<path d="M10.7095 28.7803L9.13634 29.3343C7.49593 24.0987 8.14313 19.2441 11.3861 14.816C15.2007 9.6095 21.3729 7.85185 25.9775 8.52638L25.7954 10.0929C20.622 9.73554 16.3073 11.3824 13.0826 15.3728C9.85778 19.3632 9.21479 23.8591 10.7095 28.7803Z" fill="white"/>
<path d="M22.4448 39.838C22.5023 39.3159 22.5443 38.9059 22.5933 38.4959C22.6059 38.3962 22.6367 38.2978 22.662 38.1857C27.8017 38.543 32.1164 36.9017 35.3426 32.9099C38.5687 28.9181 39.2201 24.3903 37.724 19.5218C37.7869 19.4836 37.8524 19.4498 37.9201 19.4207L39.286 18.9512C40.8886 24.015 40.3618 28.7852 37.2715 33.1108C33.6979 38.1219 28.6731 40.2314 22.4448 39.838Z" fill="white"/>
<path d="M33.8838 41.6834L33.0615 40.1945C33.2254 40.0878 33.3627 39.9923 33.5056 39.9064C38.8681 36.6607 41.8958 31.9492 42.5888 25.7717C42.7992 23.7043 42.6332 21.6163 42.0985 19.6068C41.9794 19.1372 41.9584 18.6816 42.4697 18.4475C42.6784 18.3519 43.03 18.327 43.2066 18.435C44.585 19.2425 45.9396 20.0971 47.3209 20.9392C47.0141 21.4212 46.7381 21.8575 46.4327 22.3395L44.1788 20.9669C45.1019 30.0059 41.6978 36.8662 33.8838 41.6834Z" fill="white"/>
</svg>
