<svg width="88" height="88" viewBox="0 0 88 88" fill="none" xmlns="http://www.w3.org/2000/svg">
    <defs>
        <filter id="filter0_d_2250_20345" x="0" y="0" width="88" height="88" filterUnits="userSpaceOnUse" color-interpolation-filters="sRGB">
            <feFlood flood-opacity="0" result="BackgroundImageFix"/>
            <feColorMatrix in="SourceAlpha" type="matrix" values="0 0 0 0 0 0 0 0 0 0 0 0 0 0 0 0 0 0 127 0" result="hardAlpha"/>
            <feOffset dx="1" dy="1"/>
            <feGaussianBlur stdDeviation="2.5"/>
            <feComposite in2="hardAlpha" operator="out"/>
            <feColorMatrix type="matrix" values="0 0 0 0 0.24375 0 0 0 0 0.4875 0 0 0 0 0 0 0 0 0.4 0"/>
            <feBlend mode="normal" in2="BackgroundImageFix" result="effect1_dropShadow_2250_20345"/>
            <feBlend mode="normal" in="SourceGraphic" in2="effect1_dropShadow_2250_20345" result="shape"/>
        </filter>
        <linearGradient id="paint0_linear_2250_20345" x1="82" y1="82" x2="21.2785" y2="4" gradientUnits="userSpaceOnUse">
            <stop stop-color="#02BEBE"/>
            <stop offset="0.0001" stop-color="#4902BE"/>
            <stop offset="0.999749" stop-color="#BA12D6"/>
        </linearGradient>
    </defs>
<g filter="url(#filter0_d_2250_20345)">
<circle cx="43" cy="43" r="39" fill="url(#paint0_linear_2250_20345)"/>
</g>
<path d="M50.7962 34.5664H31.1949C30.1469 34.5664 29.2974 35.416 29.2974 36.4639V52.2282C29.2974 53.2762 30.1469 54.1257 31.1949 54.1257H50.7962C51.8442 54.1257 52.6937 53.2762 52.6937 52.2282V36.4639C52.6937 35.416 51.8442 34.5664 50.7962 34.5664Z" fill="white"/>
<path d="M59.1459 52.0283L54.1826 48.974V39.6353L59.1459 36.5809C59.2734 36.5028 59.4193 36.4601 59.5688 36.4572C59.7182 36.4543 59.8657 36.4913 59.9961 36.5645C60.1264 36.6376 60.2349 36.7443 60.3103 36.8733C60.3857 37.0024 60.4253 37.1492 60.425 37.2987V51.2991C60.4273 51.4495 60.3892 51.5979 60.3147 51.7285C60.2401 51.8592 60.1318 51.9675 60.0011 52.042C59.8704 52.1165 59.7221 52.1546 59.5717 52.1522C59.4212 52.1498 59.2742 52.107 59.1459 52.0283Z" fill="white"/>

</svg>
