<svg width="30" height="29" viewBox="0 0 30 29" fill="none" xmlns="http://www.w3.org/2000/svg">
<g clip-path="url(#clip0_2978_20188)">
<path d="M3 26C3.43692 24.4034 3.86102 22.8553 4.28512 21.3073C4.40161 20.8821 4.52677 20.4589 4.6293 20.0304C4.6567 19.9133 4.64341 19.7903 4.59161 19.6817C3.46708 17.6426 2.9525 15.4569 3.12742 13.1425C3.42259 9.24198 5.22229 6.17177 8.46356 3.97925C10.624 2.51656 13.0484 1.84278 15.6503 2.03088C20.3625 2.36947 23.8537 4.68163 25.8257 8.9508C27.7483 13.1158 27.2865 17.1991 24.6039 20.9352C22.6768 23.6194 19.9984 25.1863 16.7186 25.6754C14.1808 26.052 11.7712 25.6156 9.4863 24.4493C9.36891 24.3967 9.23724 24.3849 9.11234 24.4158C7.16713 24.9162 5.2238 25.4263 3.2801 25.9338C3.20168 25.9541 3.12214 25.9718 3 26ZM5.86127 23.1732C5.93667 23.1593 5.96758 23.1552 5.99849 23.1469C7.09512 22.8595 8.19289 22.5766 9.28688 22.2816C9.51307 22.2203 9.68987 22.244 9.89382 22.3663C12.0954 23.6751 14.4673 24.1073 16.9739 23.595C22.2761 22.5111 25.6787 17.5091 24.7717 12.1907C24.0015 7.67622 20.0926 4.21776 15.5199 4.02703C12.9911 3.91755 10.7156 4.64062 8.76137 6.2489C6.52664 8.08628 5.30674 10.4718 5.12805 13.3565C4.99648 15.481 5.53179 17.4511 6.68309 19.246C6.81616 19.4533 6.84293 19.6313 6.77469 19.8686C6.46255 20.9547 6.17039 22.0469 5.86127 23.1732Z" fill="white"/>
<path d="M11.1404 8.42514C11.6817 8.28519 11.9275 8.61324 12.1092 9.08576C12.3742 9.77647 12.6687 10.4566 12.9608 11.1372C13.0592 11.3663 13.0562 11.5725 12.9077 11.7719C12.6687 12.0924 12.4357 12.4182 12.1831 12.7278C12.0244 12.9223 11.9995 13.0984 12.1296 13.3177C13.1026 14.9591 14.4669 16.1445 16.2443 16.8506C16.4754 16.9424 16.6662 16.9071 16.8245 16.7107C17.1261 16.3345 17.4431 15.9673 17.7334 15.5821C17.9019 15.3563 18.0987 15.2898 18.3411 15.403C19.1863 15.7976 20.0307 16.193 20.8638 16.614C20.9648 16.6648 21.0523 16.8551 21.0523 16.9789C21.0308 18.2403 20.6591 18.8494 19.3005 19.4175C18.5318 19.7388 17.7353 19.6597 16.9444 19.4397C14.0793 18.6432 11.9701 16.8465 10.2794 14.4805C9.74783 13.7368 9.26794 12.9693 9.06588 12.0653C8.77824 10.7772 9.09679 9.6606 10.0483 8.73137C10.3469 8.4368 10.7103 8.36608 11.1404 8.42514Z" fill="white"/>
</g>
<defs>
<clipPath id="clip0_2978_20188">
<rect width="24" height="24" fill="white" transform="translate(3 2)"/>
</clipPath>
</defs>
</svg>
