<svg width="83" height="83" viewBox="0 0 83 83" fill="none" xmlns="http://www.w3.org/2000/svg">
<path d="M46.1664 55.3604V64.5638" stroke="#A9612D" stroke-width="1.7" stroke-linecap="round" stroke-linejoin="round"/>
<path d="M38.3706 60.2432V55.292" stroke="#A9612D" stroke-width="1.7" stroke-linecap="round" stroke-linejoin="round"/>
<path d="M38.3706 62.9814V64.8357" stroke="#A9612D" stroke-width="1.7" stroke-linecap="round" stroke-linejoin="round"/>
<path d="M22.0703 64.8359H59.9036" stroke="#A9612D" stroke-width="1.7" stroke-linecap="round" stroke-linejoin="round"/>
<path d="M51.5836 64.8357C51.0753 63.8604 50.8916 62.7482 51.0593 61.6611" stroke="#A9612D" stroke-width="1.7" stroke-linecap="round" stroke-linejoin="round"/>
<path d="M52.0399 64.8357C52.2661 63.6781 52.9394 62.6561 53.9137 61.9912" stroke="#A9612D" stroke-width="1.7" stroke-linecap="round" stroke-linejoin="round"/>
<path d="M32.4388 64.8353C32.3097 64.2825 32.3316 63.705 32.5024 63.1636C32.6732 62.6221 32.9866 62.1365 33.4096 61.7578" stroke="#A9612D" stroke-width="1.7" stroke-linecap="round" stroke-linejoin="round"/>
<path d="M31.6718 64.5054C31.22 64.1507 30.9245 63.6335 30.8483 63.0641C30.7722 62.4947 30.9213 61.9181 31.2641 61.457" stroke="#A9612D" stroke-width="1.7" stroke-linecap="round" stroke-linejoin="round"/>
<path d="M36.0504 38.244C36.1067 37.7389 36.3589 37.2759 36.7528 36.9546C37.1467 36.6333 37.6509 36.4793 38.1571 36.5257M38.1571 42.3507H29.3322H38.3998C40.3415 42.3507 41.8753 41.0012 41.8753 39.4382C41.8753 37.8751 40.2541 36.5257 38.2639 36.5257H38.1959" stroke="#A9612D" stroke-width="1.7" stroke-linecap="round" stroke-linejoin="round"/>
<path d="M33.6233 48.4185C33.622 48.5582 33.6484 48.6969 33.701 48.8264C33.7536 48.9559 33.8313 49.0737 33.9297 49.173C34.0281 49.2723 34.1452 49.3511 34.2742 49.4049C34.4033 49.4587 34.5417 49.4864 34.6814 49.4864C35.1629 49.4954 35.6283 49.3128 35.9751 48.9787C36.3219 48.6446 36.5219 48.1864 36.5309 47.7049C36.5399 47.2234 36.3573 46.7581 36.0232 46.4112C35.6891 46.0644 35.231 45.8645 34.7495 45.8555H25.9149" stroke="#A9612D" stroke-width="1.7" stroke-linecap="round" stroke-linejoin="round"/>
<path d="M22.0703 35.2451H26.6236" stroke="#A9612D" stroke-width="1.7" stroke-linecap="round" stroke-linejoin="round"/>
<path d="M26.9244 25.1289H33.9727" stroke="#A9612D" stroke-width="1.7" stroke-linecap="round" stroke-linejoin="round"/>
<path d="M49.2536 20.8958C49.9138 22.8374 48.0596 23.2549 48.7197 23.2549C51.2245 23.6626 53.8748 26.6334 53.5739 28.9828C53.1855 31.5652 50.8943 31.7885 51.3312 31.973C52.5354 32.5285 53.5595 33.4108 54.2872 34.5194C55.0149 35.6281 55.4169 36.9187 55.4475 38.2445C55.4475 40.5357 53.4088 41.8366 51.3312 42.8851C53.1272 44.0016 55.0786 46.3219 55.0786 48.4189C55.0786 51.8168 52.5641 54.0691 48.7682 54.0691C48.2662 54.0702 47.7655 54.0214 47.2732 53.9235C46.7426 54.7257 46.0215 55.384 45.1745 55.8397C44.3275 56.2954 43.3809 56.5343 42.419 56.535C41.5218 56.5479 40.6309 56.3829 39.7977 56.0496C38.9646 55.7164 38.2057 55.2214 37.5649 54.5933C36.9022 54.811 36.213 54.9383 35.5163 54.972C31.2738 55.3797 29.2545 52.2828 29.2545 49.0693C29.4093 47.9525 29.8772 46.9023 30.604 46.0403C28.9438 45.0695 28.3031 43.1278 28.3031 41.0697C28.3023 40.0693 28.5591 39.0856 29.0488 38.2133C29.5385 37.341 30.2446 36.6095 31.0991 36.0893C30.5993 35.4138 30.281 34.6214 30.1748 33.7878C30.0687 32.9542 30.1782 32.1073 30.4928 31.3281C30.8074 30.5489 31.3167 29.8635 31.9718 29.3373C32.627 28.8111 33.4061 28.4617 34.2349 28.3226C34.1059 27.9077 34.0405 27.4756 34.0408 27.0411C34.0408 25.8773 34.503 24.7612 35.326 23.9382C36.1489 23.1153 37.265 22.653 38.4288 22.653C38.9779 22.6717 39.5257 22.7203 40.0696 22.7986C40.0696 22.2841 40.7686 17.3619 45.8072 17.8279C46.963 18.0242 48.0027 18.648 48.7197 19.5754" stroke="#A9612D" stroke-width="1.7" stroke-linecap="round" stroke-linejoin="round"/>
<g clip-path="url(#clip0_1549_21679)">
<path d="M12.215 16.6076L19.0638 22.2002L19.4948 21.6724C19.501 21.6658 19.5057 21.6579 19.5086 21.6493C19.5115 21.6407 19.5126 21.6316 19.5117 21.6226C19.5107 21.6135 19.5079 21.6048 19.5033 21.597C19.4988 21.5891 19.4926 21.5823 19.4852 21.5771L14.7155 17.6276L17.9316 17.0352C17.944 17.0332 17.9556 17.0277 17.9649 17.0191C17.9741 17.0106 17.9806 16.9996 17.9836 16.9873C17.9865 16.9751 17.9858 16.9623 17.9815 16.9505C17.9771 16.9387 17.9694 16.9285 17.9592 16.9211L16.6019 15.8127C16.5946 15.8072 16.586 15.8034 16.577 15.8017C16.568 15.8 16.5586 15.8004 16.5498 15.8029L12.2436 16.5927C12.2328 16.5947 12.2228 16.5999 12.215 16.6076Z" fill="#A9612D"/>
<path d="M13.6012 22.2038C13.6112 22.2115 13.6231 22.2162 13.6357 22.2175C13.6482 22.2187 13.6608 22.2165 13.6721 22.211C13.6834 22.2055 13.693 22.1969 13.6997 22.1862C13.7064 22.1756 13.7101 22.1633 13.7102 22.1507L13.6868 18.8802L18.4591 22.8264C18.473 22.8378 18.4909 22.8431 18.5088 22.8413C18.5266 22.8395 18.5431 22.8307 18.5544 22.8168L19.0604 22.1971L12.215 16.6072C12.2085 16.6106 12.2029 16.6153 12.1983 16.6209C12.1937 16.6265 12.1903 16.633 12.1882 16.64L12.2102 21.0297C12.209 21.0396 12.2106 21.0497 12.2147 21.0588C12.2188 21.0679 12.2253 21.0758 12.2335 21.0815L13.6012 22.2038Z" fill="#A9612D"/>
</g>
<g clip-path="url(#clip1_1549_21679)">
<path d="M70.6929 16.6076L63.8442 22.2002L63.4132 21.6724C63.407 21.6658 63.4023 21.6579 63.3993 21.6493C63.3964 21.6407 63.3954 21.6316 63.3963 21.6226C63.3972 21.6135 63.4 21.6048 63.4046 21.597C63.4092 21.5891 63.4154 21.5823 63.4228 21.5771L68.1924 17.6276L64.9763 17.0352C64.9639 17.0332 64.9524 17.0277 64.9431 17.0191C64.9338 17.0106 64.9273 16.9996 64.9244 16.9873C64.9214 16.9751 64.9222 16.9623 64.9265 16.9505C64.9308 16.9387 64.9386 16.9285 64.9488 16.9211L66.306 15.8127C66.3134 15.8072 66.3219 15.8034 66.331 15.8017C66.34 15.8 66.3493 15.8004 66.3582 15.8029L70.6644 16.5927C70.6752 16.5947 70.6851 16.5999 70.6929 16.6076Z" fill="#A9612D"/>
<path d="M69.3067 22.2038C69.2967 22.2115 69.2848 22.2162 69.2723 22.2175C69.2598 22.2187 69.2471 22.2165 69.2358 22.211C69.2245 22.2055 69.215 22.1969 69.2082 22.1862C69.2015 22.1756 69.1979 22.1633 69.1978 22.1507L69.2211 18.8802L64.4488 22.8264C64.4349 22.8378 64.4171 22.8431 64.3992 22.8413C64.3813 22.8395 64.3649 22.8307 64.3535 22.8168L63.8475 22.1971L70.693 16.6072C70.6994 16.6106 70.7051 16.6153 70.7097 16.6209C70.7143 16.6265 70.7177 16.633 70.7198 16.64L70.6977 21.0297C70.6989 21.0396 70.6974 21.0497 70.6933 21.0588C70.6892 21.0679 70.6827 21.0758 70.6745 21.0815L69.3067 22.2038Z" fill="#A9612D"/>
</g>
<g clip-path="url(#clip2_1549_21679)">
<path d="M12.215 67.2518L19.0638 61.6592L19.4948 62.187C19.501 62.1936 19.5057 62.2015 19.5086 62.2101C19.5115 62.2187 19.5126 62.2278 19.5117 62.2368C19.5107 62.2459 19.5079 62.2546 19.5033 62.2624C19.4988 62.2703 19.4926 62.277 19.4852 62.2823L14.7155 66.2318L17.9316 66.8242C17.944 66.8261 17.9556 66.8317 17.9649 66.8402C17.9741 66.8487 17.9806 66.8598 17.9836 66.872C17.9865 66.8843 17.9858 66.8971 17.9815 66.9089C17.9771 66.9207 17.9694 66.9309 17.9592 66.9383L16.6019 68.0467C16.5946 68.0522 16.586 68.056 16.577 68.0577C16.568 68.0594 16.5586 68.059 16.5498 68.0564L12.2436 67.2667C12.2328 67.2647 12.2228 67.2595 12.215 67.2518Z" fill="#A9612D"/>
<path d="M13.6012 61.6555C13.6112 61.6479 13.6231 61.6432 13.6357 61.6419C13.6482 61.6406 13.6608 61.6429 13.6721 61.6484C13.6834 61.6539 13.693 61.6625 13.6997 61.6731C13.7064 61.6838 13.7101 61.6961 13.7102 61.7087L13.6868 64.9792L18.4591 61.033C18.473 61.0216 18.4909 61.0163 18.5088 61.0181C18.5266 61.0199 18.5431 61.0287 18.5544 61.0426L19.0604 61.6622L12.215 67.2522C12.2085 67.2488 12.2029 67.2441 12.1983 67.2385C12.1937 67.2329 12.1903 67.2264 12.1882 67.2194L12.2102 62.8297C12.209 62.8198 12.2106 62.8097 12.2147 62.8006C12.2188 62.7914 12.2253 62.7836 12.2335 62.7779L13.6012 61.6555Z" fill="#A9612D"/>
</g>
<g clip-path="url(#clip3_1549_21679)">
<path d="M70.6929 67.2518L63.8442 61.6592L63.4132 62.187C63.407 62.1936 63.4023 62.2015 63.3993 62.2101C63.3964 62.2187 63.3954 62.2278 63.3963 62.2368C63.3972 62.2459 63.4 62.2546 63.4046 62.2624C63.4092 62.2703 63.4154 62.277 63.4228 62.2823L68.1924 66.2318L64.9763 66.8242C64.9639 66.8261 64.9524 66.8317 64.9431 66.8402C64.9338 66.8487 64.9273 66.8598 64.9244 66.872C64.9214 66.8843 64.9222 66.8971 64.9265 66.9089C64.9308 66.9207 64.9386 66.9309 64.9488 66.9383L66.306 68.0467C66.3134 68.0522 66.3219 68.056 66.331 68.0577C66.34 68.0594 66.3493 68.059 66.3582 68.0564L70.6644 67.2667C70.6752 67.2647 70.6851 67.2595 70.6929 67.2518Z" fill="#A9612D"/>
<path d="M69.3067 61.6555C69.2967 61.6479 69.2848 61.6432 69.2723 61.6419C69.2598 61.6406 69.2471 61.6429 69.2358 61.6484C69.2245 61.6539 69.215 61.6625 69.2082 61.6731C69.2015 61.6838 69.1979 61.6961 69.1978 61.7087L69.2211 64.9792L64.4488 61.033C64.4349 61.0216 64.4171 61.0163 64.3992 61.0181C64.3813 61.0199 64.3649 61.0287 64.3535 61.0426L63.8475 61.6622L70.693 67.2522C70.6994 67.2488 70.7051 67.2441 70.7097 67.2385C70.7143 67.2329 70.7177 67.2264 70.7198 67.2194L70.6977 62.8297C70.6989 62.8198 70.6974 62.8097 70.6933 62.8006C70.6892 62.7914 70.6827 62.7836 70.6745 62.7779L69.3067 61.6555Z" fill="#A9612D"/>
</g>
<g clip-path="url(#clip4_1549_21679)">
<path d="M42.306 2.52734L42.306 11.3695H41.6246C41.6155 11.3701 41.6064 11.3688 41.5979 11.3656C41.5894 11.3624 41.5817 11.3574 41.5753 11.351C41.5689 11.3446 41.5639 11.3369 41.5607 11.3284C41.5575 11.3199 41.5562 11.3108 41.5568 11.3017L41.5145 5.10929L39.0214 7.22565C39.0121 7.23405 39.0005 7.23948 38.988 7.24126C38.9756 7.24304 38.9629 7.24108 38.9515 7.23564C38.9402 7.2302 38.9307 7.22152 38.9243 7.2107C38.918 7.19988 38.9149 7.18739 38.9156 7.17484L38.9156 5.42251C38.916 5.41331 38.9184 5.40431 38.9228 5.39622C38.9272 5.38814 38.9335 5.3812 38.941 5.37594L42.2764 2.54004C42.2848 2.53295 42.2951 2.52852 42.306 2.52734Z" fill="#A9612D"/>
<path d="M45.7642 7.14132C45.7638 7.1539 45.7599 7.16612 45.7529 7.17662C45.746 7.18712 45.7363 7.19549 45.7248 7.20076C45.7134 7.20604 45.7007 7.20801 45.6882 7.20648C45.6757 7.20496 45.6639 7.19998 45.6541 7.19211L43.1356 5.10539L43.1737 11.2978C43.1737 11.3158 43.1666 11.333 43.1539 11.3457C43.1412 11.3584 43.124 11.3656 43.106 11.3656H42.306L42.306 2.52767C42.3127 2.52488 42.3199 2.52344 42.3272 2.52344C42.3345 2.52344 42.3417 2.52488 42.3484 2.52767L45.7345 5.32126C45.743 5.32662 45.7498 5.33417 45.7543 5.34312C45.7588 5.35207 45.7607 5.36208 45.7599 5.37205L45.7642 7.14132Z" fill="#A9612D"/>
</g>
<g clip-path="url(#clip5_1549_21679)">
<path d="M42.4047 80.2793L42.4047 71.4372L43.0861 71.4372C43.0952 71.4366 43.1043 71.4379 43.1128 71.4411C43.1213 71.4442 43.129 71.4492 43.1354 71.4556C43.1418 71.4621 43.1468 71.4698 43.15 71.4783C43.1532 71.4868 43.1545 71.4959 43.1539 71.5049L43.1962 77.6973L45.6892 75.581C45.6986 75.5726 45.7102 75.5672 45.7227 75.5654C45.7351 75.5636 45.7478 75.5656 45.7592 75.571C45.7705 75.5764 45.78 75.5851 45.7863 75.5959C45.7927 75.6068 45.7958 75.6192 45.7951 75.6318L45.7951 77.3841C45.7947 77.3933 45.7923 77.4023 45.7879 77.4104C45.7835 77.4185 45.7772 77.4254 45.7697 77.4307L42.4343 80.2666C42.4259 80.2737 42.4156 80.2781 42.4047 80.2793Z" fill="#A9612D"/>
<path d="M38.9465 75.6653C38.9469 75.6527 38.9508 75.6405 38.9578 75.63C38.9647 75.6195 38.9744 75.6112 38.9858 75.6059C38.9973 75.6006 39.01 75.5986 39.0225 75.6002C39.0349 75.6017 39.0468 75.6067 39.0566 75.6145L41.575 77.7013L41.537 71.5088C41.537 71.4908 41.5441 71.4736 41.5568 71.4609C41.5695 71.4482 41.5867 71.4411 41.6047 71.4411L42.4047 71.4411L42.4047 80.279C42.398 80.2818 42.3908 80.2832 42.3835 80.2832C42.3762 80.2832 42.369 80.2818 42.3623 80.279L38.9762 77.4854C38.9677 77.48 38.9609 77.4725 38.9564 77.4635C38.9519 77.4546 38.95 77.4446 38.9508 77.4346L38.9465 75.6653Z" fill="#A9612D"/>
</g>
<g clip-path="url(#clip6_1549_21679)">
<path d="M2.52771 42.4044L11.3698 42.4044L11.3698 43.0859C11.3704 43.0949 11.3691 43.104 11.3659 43.1125C11.3628 43.121 11.3578 43.1288 11.3514 43.1352C11.345 43.1416 11.3372 43.1466 11.3287 43.1497C11.3202 43.1529 11.3111 43.1542 11.3021 43.1536L5.10966 43.1959L7.22601 45.689C7.23441 45.6984 7.23985 45.71 7.24163 45.7224C7.24341 45.7349 7.24145 45.7476 7.23601 45.7589C7.23057 45.7702 7.22189 45.7797 7.21107 45.7861C7.20024 45.7925 7.18776 45.7955 7.17521 45.7948L5.42288 45.7948C5.41368 45.7945 5.40467 45.792 5.39659 45.7876C5.38851 45.7832 5.38156 45.777 5.37631 45.7694L2.54041 42.4341C2.53331 42.4257 2.52889 42.4154 2.52771 42.4044Z" fill="#A9612D"/>
<path d="M7.14132 38.9462C7.1539 38.9466 7.16612 38.9504 7.17662 38.9574C7.18712 38.9643 7.19549 38.9741 7.20076 38.9855C7.20604 38.9969 7.20801 39.0096 7.20648 39.0221C7.20496 39.0346 7.19998 39.0464 7.19211 39.0562L5.10539 41.5747L11.2978 41.5366C11.3158 41.5366 11.333 41.5437 11.3457 41.5564C11.3584 41.5691 11.3656 41.5863 11.3656 41.6043L11.3656 42.4043L2.52767 42.4043C2.52488 42.3976 2.52344 42.3904 2.52344 42.3831C2.52344 42.3759 2.52488 42.3687 2.52767 42.362L5.32126 38.9758C5.32662 38.9674 5.33417 38.9605 5.34312 38.956C5.35207 38.9516 5.36207 38.9496 5.37205 38.9504L7.14132 38.9462Z" fill="#A9612D"/>
</g>
<g clip-path="url(#clip7_1549_21679)">
<path d="M80.2794 42.3065L71.4373 42.3065L71.4373 41.625C71.4367 41.616 71.438 41.6069 71.4412 41.5984C71.4444 41.5899 71.4493 41.5822 71.4558 41.5758C71.4622 41.5693 71.4699 41.5644 71.4784 41.5612C71.4869 41.558 71.496 41.5567 71.505 41.5573L77.6975 41.515L75.5811 39.0219C75.5727 39.0126 75.5673 39.0009 75.5655 38.9885C75.5637 38.9761 75.5657 38.9634 75.5711 38.952C75.5766 38.9407 75.5852 38.9312 75.5961 38.9248C75.6069 38.9184 75.6194 38.9154 75.6319 38.9161L77.3843 38.9161C77.3935 38.9164 77.4025 38.9189 77.4105 38.9233C77.4186 38.9277 77.4256 38.934 77.4308 38.9415L80.2667 42.2769C80.2738 42.2853 80.2782 42.2956 80.2794 42.3065Z" fill="#A9612D"/>
<path d="M75.6658 45.7648C75.6532 45.7644 75.641 45.7605 75.6305 45.7536C75.62 45.7466 75.6116 45.7369 75.6064 45.7255C75.6011 45.714 75.5991 45.7013 75.6006 45.6889C75.6022 45.6764 75.6071 45.6645 75.615 45.6547L77.7017 43.1363L71.5093 43.1744C71.4913 43.1744 71.4741 43.1672 71.4614 43.1545C71.4487 43.1418 71.4416 43.1246 71.4416 43.1066L71.4416 42.3066L80.2795 42.3066C80.2822 42.3133 80.2837 42.3205 80.2837 42.3278C80.2837 42.3351 80.2822 42.3423 80.2795 42.349L77.4859 45.7351C77.4805 45.7436 77.473 45.7504 77.464 45.7549C77.4551 45.7594 77.4451 45.7613 77.4351 45.7605L75.6658 45.7648Z" fill="#A9612D"/>
</g>
<defs>
<clipPath id="clip0_1549_21679">
<rect width="6.86121" height="8.84635" fill="white" transform="matrix(-0.632501 0.77456 0.77456 0.632501 14.3674 13.9717)"/>
</clipPath>
<clipPath id="clip1_1549_21679">
<rect width="6.86121" height="8.84635" fill="white" transform="translate(68.5405 13.9717) rotate(50.7651)"/>
</clipPath>
<clipPath id="clip2_1549_21679">
<rect width="6.86121" height="8.84635" fill="white" transform="translate(14.3674 69.8877) rotate(-129.235)"/>
</clipPath>
<clipPath id="clip3_1549_21679">
<rect width="6.86121" height="8.84635" fill="white" transform="matrix(0.632501 -0.77456 -0.77456 -0.632501 68.5405 69.8877)"/>
</clipPath>
<clipPath id="clip4_1549_21679">
<rect width="6.86121" height="8.84635" fill="white" transform="translate(38.903 2.52734)"/>
</clipPath>
<clipPath id="clip5_1549_21679">
<rect width="6.86121" height="8.84635" fill="white" transform="translate(45.8077 80.2793) rotate(-180)"/>
</clipPath>
<clipPath id="clip6_1549_21679">
<rect width="6.86121" height="8.84635" fill="white" transform="translate(2.52771 45.8076) rotate(-90)"/>
</clipPath>
<clipPath id="clip7_1549_21679">
<rect width="6.86121" height="8.84635" fill="white" transform="translate(80.2794 38.9033) rotate(90)"/>
</clipPath>
</defs>
</svg>
