<svg width="187" height="158" viewBox="0 0 187 158" fill="none" xmlns="http://www.w3.org/2000/svg">
<path d="M106.995 59.4495C103.901 68.4387 101.219 77.3204 98.0211 86.3013C97.3114 85.0227 97.1959 83.9156 96.936 82.8622C94.6116 73.2741 92.301 63.6818 90.0042 54.0854C89.41 51.6067 88.8468 49.1281 88.2403 46.6495C88.1515 46.2839 88.2299 45.656 87.7245 45.6601C87.3119 45.6601 87.3655 46.2653 87.2995 46.6061C86.246 51.909 85.2035 57.2105 84.1719 62.5106C82.9341 68.891 81.6963 75.2735 80.4378 81.6477C79.887 84.4155 79.8437 84.4072 76.9616 84.4093C75.2761 84.4093 73.5906 84.3948 71.9072 84.4237C71.1335 84.4361 70.7849 84.2564 70.921 83.3517C71.0572 82.447 70.9706 81.5113 70.8757 80.5798C70.7086 78.9088 69.5244 77.9359 68.5465 76.7999C65.5922 73.3649 62.7989 69.7895 59.6754 66.5012C57.8496 64.5803 55.6546 63.7107 52.985 64.0949C51.9308 64.2457 51.0272 64.7001 50.138 65.2268C48.8115 66.0158 47.4829 66.7986 46.1584 67.5939C45.5931 67.9326 45.3002 67.7302 45.0732 67.1601C42.4573 60.5504 41.8673 53.7797 44.2872 47.0791C48.108 36.5057 55.7185 30.2905 66.9353 28.917C75.6 27.8553 82.9919 30.9247 89.4224 36.6028C92.0034 38.8388 94.0669 41.611 95.4691 44.7265C95.8652 45.6188 96.1458 46.5607 96.5254 47.6017C96.6421 47.4663 96.7418 47.3171 96.8225 47.1576C98.2666 41.8967 101.629 38.0239 105.852 34.8264C111.198 30.7759 117.245 28.4791 123.989 28.7827C134.688 29.264 142.68 34.2997 147.526 43.9271C150.814 50.4562 151.089 57.3158 149.017 64.3014C147.117 70.7045 143.674 76.2505 139.589 81.4453C138.824 82.4181 137.992 83.3331 137.202 84.2853C137.008 84.5254 136.759 84.7151 136.476 84.8384C136.193 84.9617 135.885 85.015 135.577 84.9938C133.41 84.969 131.244 85.0248 129.08 84.9835C128.274 84.969 127.778 85.19 127.327 85.9171C125.554 88.7551 122.862 89.8416 119.646 89.4285C116.529 89.0154 114.404 87.2039 113.302 84.2337C113.228 84.005 113.166 83.7727 113.116 83.5376C112.894 82.6433 113.22 82.2983 114.16 82.3107C117.766 82.35 121.381 82.3376 124.983 82.3293C126.186 82.3293 127.388 82.2529 128.589 82.2673C129.235 82.2673 129.548 81.943 129.891 81.4515C131.413 79.2723 130.51 77.308 129.227 75.5503C125.532 70.4443 119.157 69.5933 114.166 73.4393C112.459 74.7406 111.262 76.6012 110.785 78.696C110.562 79.6297 110.133 79.9932 109.225 79.8713C109.191 79.8693 109.157 79.8693 109.122 79.8713C107.317 79.8713 107.315 79.8713 107.315 78.0991C107.315 72.3514 107.309 66.6031 107.297 60.8541C107.278 60.4885 107.365 60.1064 106.995 59.4495Z" fill="#E8242F"/>
<path d="M83.1404 129.509C79.427 126.923 75.9961 123.765 72.8562 120.985C67.0035 115.764 61.4622 110.204 56.2611 104.332C53.3288 101.048 50.4791 97.6938 47.7119 94.2691C46.1729 92.373 44.6771 90.4376 43.2887 88.4299C40.3798 84.2204 37.7453 76.9002 42.9937 73.3082C45.9418 71.2902 49.0219 69.4684 52.0298 67.5248C53.6122 66.5085 55.7041 66.6986 57.2039 68.2043C59.2051 70.2079 65.027 77.4847 66.108 78.6208C68.0349 80.647 68.5836 82.4254 67.5851 84.8442C67.1951 85.7944 66.6952 86.6956 66.0956 87.5294C65.5584 88.2776 65.0954 89.0766 64.7134 89.915C64.4163 90.5615 64.8949 91.08 65.2807 91.5674C66.7248 93.35 68.2762 95.0334 69.7905 96.7436C71.9175 99.1479 74.3292 101.315 76.6522 103.533C78.5832 105.371 80.572 107.148 82.5566 108.932C83.1301 109.447 83.8419 109.647 84.5577 109.285C85.8513 108.629 87.1077 107.895 88.3909 107.22C90.0269 106.35 91.6917 105.634 93.5773 106.485C94.3407 106.83 94.8998 107.468 95.4939 108.003C98.149 110.399 104.707 115.779 106.053 117.114C107.29 118.353 107.424 121.038 106.465 122.528C105.079 124.686 103.893 126.964 102.572 129.162C101.594 130.792 100.618 132.673 98.9082 133.648C96.8287 134.832 93.8951 134.559 91.6979 133.894C88.6941 132.969 85.8389 131.387 83.1404 129.509Z" fill="#1C77BD"/>
<path d="M88.2011 59.373C91.4112 71.3861 94.5841 83.2567 97.755 95.1272L98.1326 95.1582C100.285 88.3681 102.437 81.5795 104.59 74.7922L104.972 74.8417V76.837C104.972 78.3511 104.972 79.8651 104.972 81.3812C104.972 82.7217 104.994 82.7382 106.383 82.7403C107.344 82.7403 108.31 82.7837 109.271 82.73C110.096 82.6845 110.474 82.9365 110.686 83.7999C111.604 87.5054 113.845 90.1163 117.494 91.3163C121.565 92.6548 125.187 91.7294 128.131 88.6312C129.076 87.6356 130.011 87.1398 131.352 87.2989C131.971 87.3712 132.589 87.2989 133.208 87.3216C133.437 87.3216 133.734 87.272 133.827 87.5509C133.92 87.8297 133.679 87.9867 133.512 88.1478C131.797 89.7837 130.12 91.465 128.354 93.0369C123.957 96.9834 119.301 100.631 114.418 103.955C111.025 106.244 107.524 108.349 103.936 110.309C103.303 110.654 102.857 110.414 102.374 109.985C100.425 108.252 98.4709 106.523 96.4842 104.835C93.8641 102.611 90.98 102.931 88.0484 104.067C86.9604 104.504 85.9228 105.058 84.9539 105.719C84.2215 106.205 83.6439 106.081 83.0373 105.496C80.0232 102.59 76.8276 99.8759 73.9826 96.7941C72.3549 95.0301 70.7169 93.2827 69.0871 91.5105C68.0019 90.3311 68.0411 90.2402 68.8168 88.8253C69.4171 87.7409 70.1268 87.2183 71.474 87.27C74.6304 87.3898 77.7972 87.2906 80.964 87.3134C81.8944 87.3134 82.3049 86.9002 82.4803 86.0141C83.3818 81.4287 84.3226 76.8515 85.2551 72.2702C86.0555 68.3291 86.8588 64.3888 87.6647 60.4492C87.7452 60.127 87.741 59.7696 88.2011 59.373Z" fill="#E8242F"/>
<path d="M120.793 80.0576C118.629 80.0576 116.461 80.0576 114.305 80.0576C113.067 80.0576 112.846 79.8139 113.317 78.6593C114.637 75.4102 118.14 72.6465 122.188 73.5925C125.169 74.2928 127.151 76.0712 128.191 78.9629C128.503 79.8242 128.238 80.0721 127.391 80.0617C125.193 80.037 122.996 80.0617 120.801 80.0617L120.793 80.0576Z" fill="#E8242F"/>
<path d="M99.3023 133.059C99.3023 133.059 99.3196 133.074 99.3174 133.076L99.3023 133.059Z" fill="#E8242F"/>
</svg>
