<svg width="19" height="17" viewBox="0 0 19 17" fill="none" xmlns="http://www.w3.org/2000/svg">
<g id="Group 7337">
<path id="Vector" d="M13.0188 9.30954L16.7595 9.30147L10.0777 16.2714C9.9396 16.405 9.75805 16.4795 9.56936 16.4799C9.38068 16.4803 9.19882 16.4066 9.06021 16.2736L2.61257 9.60401L2.35018 9.33257L5.79164 9.32514C5.89636 9.32532 5.99898 9.29464 6.08759 9.23668C6.1762 9.17871 6.24719 9.09582 6.29227 8.99764L6.64979 8.21971L7.91212 10.906C7.96023 11.002 8.03283 11.0825 8.12201 11.1386C8.21119 11.1948 8.3135 11.2243 8.41776 11.2241C8.52202 11.2239 8.62422 11.1939 8.71317 11.1374C8.80212 11.0809 8.87439 11.0001 8.9221 10.9038L11.2092 6.08048L12.4868 8.94542C12.5312 9.05373 12.6053 9.14604 12.6999 9.21081C12.7945 9.27557 12.9055 9.30991 13.0188 9.30954Z" fill="#FF5391"/>
<path id="Vector_2" d="M18.7559 5.10167C18.7608 6.18784 18.427 7.24645 17.8044 8.11909L13.3679 8.12867L11.7445 4.50284C11.7001 4.40341 11.6293 4.31922 11.5403 4.26021C11.4514 4.2012 11.3481 4.16982 11.2426 4.16976C11.1381 4.17091 11.0358 4.20119 10.9464 4.25744C10.8571 4.31368 10.7839 4.39382 10.7345 4.48949L8.43252 9.32059L7.2001 6.6343C7.14719 6.54435 7.07291 6.47005 6.98435 6.41858C6.8958 6.36711 6.79598 6.3402 6.69451 6.34042C6.59304 6.34064 6.49332 6.36798 6.40498 6.41983C6.31664 6.47168 6.24265 6.5463 6.19011 6.63648L5.48991 8.14567L1.36761 8.15457C0.741484 7.28462 0.403351 6.22746 0.403849 5.14128C0.401396 4.13266 0.687012 3.14594 1.22456 2.306C1.76212 1.46606 2.52747 0.81064 3.42374 0.422663C4.32 0.0346855 5.30691 -0.0683972 6.25961 0.126437C7.21231 0.321271 8.08797 0.805261 8.7758 1.5172L9.21815 1.97476C9.31964 2.07345 9.45353 2.12822 9.59254 2.12792C9.73155 2.12762 9.86522 2.07227 9.9663 1.97315L10.3993 1.51369C11.0842 0.798795 11.9579 0.311029 12.9098 0.112084C13.8617 -0.0868604 14.8491 0.0119614 15.7469 0.396067C16.6447 0.780172 17.4127 1.43228 17.9536 2.2699C18.4946 3.10751 18.7842 4.09298 18.7858 5.10161L18.7559 5.10167Z" fill="#FF5391"/>
</g>
</svg>
