<svg width="54" height="54" viewBox="0 0 54 54" fill="none" xmlns="http://www.w3.org/2000/svg">
<rect width="54" height="54" rx="27" fill="url(#paint0_linear_383_11117)"/>
<g clip-path="url(#clip0_383_11117)">
<path d="M39.9852 33.9435C31.357 32.8353 22.6265 32.8424 14 33.9646C14.0502 33.0251 14.064 32.1359 14.1527 31.2547C14.3055 29.8563 14.6642 28.4894 15.2167 27.2005C16.1201 25.0314 16.99 22.8451 17.8531 20.6599C17.9516 20.4112 18.0629 20.3578 18.3131 20.391C22.7199 21.0194 27.1443 21.2329 31.5836 20.8764C32.9628 20.7646 34.3421 20.5582 35.7213 20.3779C35.9706 20.3457 36.0839 20.395 36.1834 20.6458C37.1735 23.1311 38.2168 25.5963 39.1675 28.0977C39.867 29.9547 40.064 31.9133 39.9852 33.9435Z" fill="white"/>
<path d="M39.9437 35.1582C39.6698 36.2155 39.4727 37.2306 39.1397 38.2044C38.8295 39.1034 38.4466 39.9745 37.995 40.8086C37.2393 42.2184 36.0246 42.9757 34.4483 42.9827C29.4961 43.0069 24.5439 43.0069 19.5917 42.9827C18.0795 42.9767 16.8874 42.2778 16.1091 40.9475C15.1012 39.2286 14.4904 37.3535 14.1909 35.3737C14.1864 35.3023 14.1864 35.2306 14.1909 35.1592C22.7408 34.0488 31.3937 34.0485 39.9437 35.1582ZM29.3785 37.8771C29.3809 37.3992 29.2445 36.9313 28.9867 36.5326C28.729 36.1339 28.3613 35.8222 27.9303 35.6371C27.4993 35.4519 27.0242 35.4015 26.5651 35.4922C26.1061 35.583 25.6837 35.8108 25.3513 36.1469C25.0189 36.483 24.7914 36.9123 24.6977 37.3805C24.6039 37.8487 24.6481 38.3348 24.8246 38.7774C25.0011 39.22 25.302 39.5991 25.6892 39.8669C26.0765 40.1347 26.5328 40.2791 27.0003 40.2819C27.3113 40.2838 27.6196 40.2229 27.9075 40.1028C28.1955 39.9826 28.4574 39.8056 28.6783 39.5819C28.8993 39.3581 29.0748 39.092 29.195 38.7988C29.3151 38.5056 29.3775 38.191 29.3785 37.8731V37.8771Z" fill="white"/>
<path d="M35.5882 19.1861C29.9172 20.055 24.1514 20.0584 18.4795 19.1961C18.4967 19.1196 18.5178 19.0439 18.5425 18.9696C19.0401 17.7279 19.5336 16.4842 20.039 15.2436C20.3661 14.438 20.9622 14.0352 21.8124 14.0352C25.2934 14.0352 28.7707 14.0352 32.2445 14.0352C33.0169 14.0352 33.6149 14.3745 33.9242 15.0996C34.4966 16.4339 35.0217 17.7863 35.5882 19.1861Z" fill="white"/>
<path d="M22.5403 10.9389C22.5225 10.9168 22.4605 10.8382 22.3964 10.7667C21.8851 10.1625 21.8871 9.45759 22.3885 8.85338C22.4794 8.74065 22.5489 8.61155 22.5935 8.47273C22.7018 8.14847 22.959 7.95713 23.2575 8.00547C23.3343 8.01547 23.4083 8.04126 23.475 8.08128C23.5418 8.1213 23.5999 8.17473 23.646 8.23833C23.692 8.30194 23.725 8.37442 23.7428 8.45139C23.7607 8.52837 23.7632 8.60825 23.7501 8.68622C23.691 8.9712 23.5442 9.23907 23.4171 9.50492C23.3484 9.61273 23.267 9.71149 23.1747 9.79897C23.2476 9.89162 23.3048 9.97017 23.3718 10.0437C23.8978 10.6479 23.8969 11.3619 23.3767 11.9802C23.2929 12.083 23.229 12.2013 23.1885 12.3286C23.0782 12.674 22.8082 12.8724 22.4989 12.812C22.4203 12.7982 22.3454 12.768 22.2788 12.7232C22.2121 12.6785 22.1553 12.6202 22.1117 12.5519C22.0682 12.4837 22.0389 12.407 22.0256 12.3266C22.0124 12.2462 22.0155 12.164 22.0349 12.0849C22.1413 11.7123 22.3452 11.3689 22.5403 10.9389Z" fill="white"/>
<path d="M27.2935 9.81515C27.4038 9.94002 27.4905 10.0276 27.5664 10.1253C27.8964 10.5523 28.0077 11.0316 27.7831 11.5351C27.6137 11.9033 27.4161 12.2572 27.192 12.5935C27.1248 12.7017 27.0212 12.7811 26.9007 12.8167C26.7802 12.8523 26.6512 12.8417 26.5378 12.7869C26.2492 12.6721 26.0817 12.4233 26.1615 12.1343C26.2669 11.7486 26.4639 11.3901 26.6216 11.0195L26.7358 11.0246C26.6531 10.9239 26.5703 10.8232 26.4866 10.7225C26.0285 10.1656 26.0354 9.45766 26.4866 8.89775C26.5893 8.76409 26.671 8.61496 26.7289 8.45567C26.8482 8.15356 27.0521 7.98338 27.3772 8.0156C27.6728 8.04581 27.9368 8.32979 27.8806 8.647C27.8284 8.94911 27.6836 9.22705 27.5545 9.50599C27.5063 9.61072 27.3999 9.69128 27.2935 9.81515Z" fill="white"/>
<path d="M30.8711 11.021C30.7558 10.8841 30.6623 10.7844 30.5756 10.6756C30.2593 10.2547 30.1608 9.78642 30.3785 9.29802C30.5475 8.93026 30.7452 8.577 30.9696 8.24165C31.037 8.1336 31.1406 8.05436 31.261 8.01877C31.3814 7.98318 31.5104 7.99368 31.6238 8.0483C31.9125 8.1631 32.0799 8.41184 32.0011 8.70085C31.8947 9.08654 31.6967 9.44605 31.5391 9.81563L31.4307 9.80555C31.4967 9.88914 31.5578 9.97675 31.6277 10.0573C32.141 10.6535 32.144 11.3664 31.6474 11.9706C31.5535 12.0957 31.48 12.2355 31.4297 12.3845C31.3115 12.6917 31.1056 12.8558 30.7805 12.8236C30.48 12.7934 30.2229 12.5084 30.279 12.1902C30.3322 11.8881 30.4761 11.6111 30.6071 11.3322C30.6642 11.2214 30.7687 11.1409 30.8711 11.021Z" fill="white"/>
<path d="M25.8379 37.8644C25.8379 37.6243 25.9079 37.3897 26.039 37.1905C26.17 36.9913 26.3561 36.8364 26.5736 36.7458C26.791 36.6551 27.03 36.6327 27.26 36.6814C27.4899 36.7301 27.7005 36.8477 27.8648 37.0192C28.0291 37.1908 28.1397 37.4084 28.1825 37.6445C28.2253 37.8805 28.1984 38.1242 28.1051 38.3446C28.0118 38.5649 27.8565 38.7518 27.6589 38.8815C27.4612 39.0112 27.2303 39.0778 26.9955 39.0728C26.6862 39.0663 26.3918 38.936 26.1754 38.7101C25.959 38.4842 25.8378 38.1806 25.8379 37.8644Z" fill="white"/>
</g>
<defs>
<linearGradient id="paint0_linear_383_11117" x1="52.6329" y1="50.9241" x2="11.6203" y2="2.73418" gradientUnits="userSpaceOnUse">
<stop stop-color="#218CEF"/>
<stop offset="1" stop-color="#37C6F3"/>
</linearGradient>
<clipPath id="clip0_383_11117">
<rect width="26" height="35" fill="white" transform="translate(14 8)"/>
</clipPath>
</defs>
</svg>
