<svg width="54" height="54" viewBox="0 0 54 54" fill="none" xmlns="http://www.w3.org/2000/svg">
<rect width="54" height="54" rx="27" fill="url(#paint0_linear_385_10231)"/>
<g clip-path="url(#clip0_385_10231)">
<path d="M22.2352 6.99915C22.9125 7.2607 23.1438 7.76142 23.1356 8.46365C23.113 10.5561 23.1273 12.6495 23.1273 14.742C23.1273 14.8305 23.1273 14.9201 23.1273 15.0086C23.0924 15.6996 22.6134 16.1922 21.9761 16.1953C21.3389 16.1983 20.828 15.6864 20.8249 14.974C20.8167 12.7157 20.8249 10.4584 20.8249 8.20107C20.8249 7.5823 21.1703 7.2261 21.7027 6.99609L22.2352 6.99915Z" fill="white"/>
<path d="M31.5407 7C32.2119 7.2697 32.437 7.76939 32.4278 8.47162C32.4021 10.5763 32.4196 12.6819 32.4165 14.7876C32.4237 14.9776 32.4086 15.1679 32.3713 15.3545C32.3038 15.5946 32.1593 15.8065 31.9597 15.9583C31.76 16.1101 31.516 16.1935 31.2642 16.1961C31.0057 16.193 30.7558 16.1038 30.5547 15.9431C30.3535 15.7823 30.2128 15.5592 30.1552 15.3097C30.1212 15.1227 30.1068 14.9327 30.112 14.7428C30.112 12.6494 30.1254 10.5569 30.1017 8.4645C30.0945 7.76126 30.3248 7.26155 31.0032 7H31.5407Z" fill="white"/>
<path d="M31.4765 27.7336C32.601 27.8354 33.6473 28.0979 34.6176 28.6261C38.5441 30.7633 39.7107 35.6372 37.1986 39.4414C35.85 41.485 33.9526 42.9017 31.8075 44.0323C29.465 45.2607 26.9857 46.0149 24.3113 45.9996C22.5762 45.9894 20.9265 45.6373 19.4803 44.6226C18.5501 43.9765 17.8374 43.0684 17.4349 42.0162C17.3842 41.868 17.2798 41.7436 17.1419 41.6672C14.9084 40.8164 13.7212 39.1229 13.2422 36.8839C12.6738 34.2378 13.1579 31.6844 14.1519 29.2144C15.1273 26.7912 16.4913 24.6153 18.5049 22.8923C20.1063 21.5214 21.94 20.691 24.0975 20.7195C27.7978 20.7693 30.9605 23.5955 31.4045 27.2329C31.422 27.3916 31.4477 27.5402 31.4765 27.7336Z" fill="white"/>
<path d="M27.776 13.8075C27.776 14.8741 27.776 15.9447 27.776 17.0052C27.776 17.7715 27.297 18.2855 26.6053 18.2763C25.932 18.2682 25.4746 17.7573 25.4746 17.0103C25.4746 14.8656 25.4746 12.7216 25.4746 10.5783C25.4746 9.82316 25.9701 9.28682 26.6443 9.29903C27.3186 9.31125 27.775 9.83333 27.7811 10.5732C27.778 11.651 27.776 12.7298 27.776 13.8075Z" fill="white"/>
<path d="M33.2227 24.846C35.2887 23.6573 38.2859 23.9901 40.2255 25.6083C40.3622 25.7233 40.4989 25.8404 40.6233 25.9665C41.1074 26.4561 41.1269 27.141 40.6747 27.6041C40.2224 28.0671 39.544 28.0793 39.0496 27.6285C38.5552 27.1776 38.0094 26.8011 37.3557 26.6209C37.0011 26.5192 36.6228 26.4174 36.2651 26.4449C35.6675 26.4917 35.0689 26.3688 34.5393 26.0907C34.4164 26.0215 34.2815 25.9756 34.1416 25.9554C33.458 25.8973 33.3018 25.42 33.2227 24.846Z" fill="white"/>
</g>
<defs>
<linearGradient id="paint0_linear_385_10231" x1="52.6329" y1="50.9241" x2="11.6203" y2="2.73418" gradientUnits="userSpaceOnUse">
<stop stop-color="#218CEF"/>
<stop offset="1" stop-color="#37C6F3"/>
</linearGradient>
<clipPath id="clip0_385_10231">
<rect width="28" height="39" fill="white" transform="translate(13 7)"/>
</clipPath>
</defs>
</svg>
