<svg width="54" height="54" viewBox="0 0 54 54" fill="none" xmlns="http://www.w3.org/2000/svg">
<rect width="54" height="54" rx="27" fill="url(#paint0_linear_388_12548)"/>
<g clip-path="url(#clip0_388_12548)">
<path d="M41.9971 28.8557C41.9971 29.6019 42.0044 30.349 41.9971 31.096C41.9906 31.5962 41.7729 31.9857 41.3148 32.2046C40.8566 32.4236 40.4099 32.4047 40.0243 32.0775C38.4843 30.7705 36.6819 29.9972 34.7735 29.4478C31.8737 28.6122 28.9088 28.3416 25.9039 28.4424C23.4664 28.5244 21.0688 28.8664 18.7365 29.6044C17.0376 30.1423 15.4349 30.8664 14.0669 32.0497C13.6667 32.3965 13.1971 32.4228 12.7226 32.2137C12.2743 32.0144 11.9979 31.6552 12.002 31.1641C12.0167 29.5388 11.9686 27.9062 12.1129 26.2907C12.3754 23.3666 13.5493 20.791 15.4414 18.5671C18.0028 15.556 21.2678 13.8069 25.171 13.3149C28.3535 12.9138 31.5802 13.5442 34.382 15.1143C37.1839 16.6844 39.4148 19.1125 40.7506 22.0456C41.6474 23.9996 42.0281 26.0636 42.0004 28.2128C41.9955 28.426 41.9979 28.6425 41.9971 28.8557ZM26.9621 21.9586C26.9621 21.9996 26.9621 22.0406 26.9621 22.0808C26.1697 22.0808 25.3773 22.0693 24.5849 22.0857C24.1773 22.0948 23.7754 22.153 23.371 22.1923C23.075 22.2241 22.7894 22.3203 22.5341 22.4744C22.2788 22.6285 22.06 22.8367 21.8928 23.0845C21.7257 23.3323 21.6142 23.6138 21.5663 23.9094C21.5183 24.2049 21.5349 24.5074 21.615 24.7959C21.9085 25.8086 22.7563 26.3777 23.8903 26.262C25.9939 26.039 28.1153 26.0431 30.218 26.2743C30.4784 26.3059 30.7424 26.2855 30.9949 26.2143C31.2474 26.143 31.4835 26.0224 31.6895 25.8592C31.8956 25.696 32.0676 25.4936 32.1958 25.2634C32.3239 25.0332 32.4056 24.7799 32.4362 24.5179C32.5699 23.333 31.7841 22.3039 30.6428 22.203C29.4158 22.1005 28.1881 22.039 26.9621 21.9586Z" fill="white"/>
<path d="M39.5601 36.387C39.5601 37.2879 39.5601 38.1899 39.5601 39.093C39.5601 39.5768 39.397 39.831 39.0285 39.9557C38.6446 40.0811 38.3242 39.9631 38.056 39.5867C37.0044 38.1107 35.5459 37.1882 33.9163 36.5117C31.2921 35.4227 28.5457 35.0889 25.7291 35.2554C23.6226 35.38 21.5829 35.8114 19.6541 36.6962C18.1623 37.38 16.8367 38.2845 15.878 39.6613C15.6571 39.9786 15.3171 40.0713 14.9601 39.9549C14.603 39.8384 14.4318 39.5908 14.431 39.1841C14.4266 37.3423 14.4266 35.5006 14.431 33.6588C14.4396 33.5449 14.4919 33.4387 14.5769 33.3628C16.778 31.544 19.3598 30.6371 22.1307 30.1804C24.5218 29.7859 26.9275 29.7203 29.3381 29.8884C31.9084 30.068 34.4275 30.5248 36.7622 31.6711C37.6875 32.1254 38.5337 32.7437 39.406 33.303C39.4875 33.3571 39.5487 33.517 39.5503 33.631C39.565 34.5469 39.5601 35.4661 39.5601 36.387Z" fill="white"/>
<path d="M26.9951 11.886C26.5671 11.868 26.1709 11.7671 25.8579 11.4531C25.5448 11.139 25.5473 10.7388 25.8579 10.4231C26.4082 9.85896 27.5919 9.85896 28.1356 10.4231C28.4446 10.7429 28.4478 11.1382 28.1356 11.4531C27.8234 11.7679 27.4215 11.868 26.9951 11.886Z" fill="white"/>
<path d="M27.0246 23.3467C28.1496 23.4188 29.2754 23.4812 30.3987 23.573C30.6069 23.5906 30.8029 23.6788 30.9547 23.8231C31.1488 24.0314 31.2588 24.3151 31.0966 24.6111C30.9344 24.9072 30.6694 24.976 30.3458 24.9596C29.017 24.8916 27.6882 24.8055 26.3585 24.7956C25.5278 24.7866 24.6963 24.8899 23.8656 24.9523C23.564 24.9752 23.2721 24.9974 23.0651 24.7128C22.7023 24.2151 22.9526 23.6468 23.5835 23.5722C24.1175 23.5107 24.6555 23.4631 25.1936 23.4443C25.8017 23.4229 26.4164 23.4393 27.0221 23.4393L27.0246 23.3467Z" fill="white"/>
</g>
<defs>
<linearGradient id="paint0_linear_388_12548" x1="52.6329" y1="50.9241" x2="11.6203" y2="2.73418" gradientUnits="userSpaceOnUse">
<stop stop-color="#218CEF"/>
<stop offset="1" stop-color="#37C6F3"/>
</linearGradient>
<clipPath id="clip0_388_12548">
<rect width="30" height="30" fill="white" transform="translate(12 10)"/>
</clipPath>
</defs>
</svg>
