<svg width="54" height="54" viewBox="0 0 54 54" fill="none" xmlns="http://www.w3.org/2000/svg">
<rect width="54" height="54" rx="27" fill="url(#paint0_linear_403_11368)"/>
<path d="M42 35.3592V36.0955C41.85 36.4186 41.7469 36.7765 41.5414 37.0595C41.0461 37.7511 40.3157 38 39.461 38C31.1539 37.9955 22.8469 37.9942 14.5398 37.9962C14.4031 37.9962 14.2663 37.9909 14.1304 37.9796C13.6508 37.9404 13.1954 37.7585 12.8268 37.4586C12.4583 37.1588 12.1945 36.7559 12.0719 36.3051C12.0523 36.2339 12.0242 36.1651 12 36.0955V35.3592C12.1477 35.0346 12.2656 34.6933 12.4461 34.3869C15.2023 29.7081 17.9626 25.0324 20.7271 20.3597C22.1417 17.9701 23.5557 15.5793 24.9692 13.1872C25.3559 12.5319 25.9153 12.1059 26.6988 12.0189C27.7535 11.9023 28.53 12.3284 29.0535 13.2129C32.9195 19.7632 36.7863 26.3137 40.6539 32.8645C41.1336 33.6786 41.5531 34.5269 42 35.3592ZM26.484 15.9884C25.1043 19.4895 23.7333 22.9687 22.3435 26.4978H27.0004L25.4543 29.9876L23.9013 28.9918C23.7278 31.3375 23.5583 33.6302 23.3841 35.9933L29.0722 31.4926L27.5262 30.9864C28.9035 28.6536 30.2691 26.3419 31.6667 23.9819H26.4895C27.534 21.9608 28.5558 19.9836 29.5863 17.9883L26.484 15.9884Z" fill="white"/>
<defs>
<linearGradient id="paint0_linear_403_11368" x1="52.6329" y1="50.9241" x2="11.6203" y2="2.73418" gradientUnits="userSpaceOnUse">
<stop stop-color="#218CEF"/>
<stop offset="1" stop-color="#37C6F3"/>
</linearGradient>
</defs>
</svg>
