<svg width="54" height="54" viewBox="0 0 54 54" fill="none" xmlns="http://www.w3.org/2000/svg">
<rect width="54" height="54" rx="27" fill="url(#paint0_linear_403_11385)"/>
<g clip-path="url(#clip0_403_11385)">
<path d="M27.3513 13C27.4328 13.0226 27.5144 13.0466 27.5974 13.0677C28.1971 13.2193 28.7189 13.5667 29.0681 14.0469C31.2535 16.9213 33.4399 19.7942 35.6273 22.6658C36.3551 23.6224 35.9413 24.8456 34.7893 25.1574C34.5726 25.2113 34.349 25.2365 34.1249 25.2322C29.3746 25.2322 24.6243 25.2322 19.8741 25.2322C18.8292 25.2322 18.1331 24.7017 18.0123 23.8129C17.9489 23.3515 18.1376 22.9663 18.4185 22.5939C20.1187 20.3694 21.8153 18.1431 23.5085 15.9148C23.8814 15.4253 24.2755 14.9484 24.6228 14.4419C25.1151 13.7266 25.719 13.1721 26.6492 13.0014L27.3513 13Z" fill="white"/>
<path d="M26.9928 28.7675C29.3528 28.7675 31.7113 28.7675 34.0714 28.7675C34.3261 28.7609 34.5805 28.7894 34.8263 28.8522C35.077 28.9228 35.3063 29.0479 35.4954 29.2171C35.6846 29.3863 35.8282 29.5949 35.9146 29.8259C36.0011 30.0568 36.0278 30.3036 35.9927 30.5461C35.9576 30.7885 35.8616 31.0198 35.7127 31.221C35.2144 31.918 34.6783 32.5896 34.1574 33.2724C32.4653 35.495 30.7741 37.7148 29.084 39.9317C28.1177 41.2015 26.3435 41.3637 25.2367 40.2999C25.1227 40.1879 25.0177 40.0681 24.9226 39.9416C22.7403 37.0775 20.5599 34.2135 18.3816 31.3494C17.7127 30.469 17.9648 29.3643 18.9523 28.951C19.2574 28.8342 19.5846 28.7766 19.9142 28.7816C22.2742 28.7619 24.6327 28.7675 26.9928 28.7675Z" fill="white"/>
</g>
<defs>
<linearGradient id="paint0_linear_403_11385" x1="52.6329" y1="50.9241" x2="11.6203" y2="2.73418" gradientUnits="userSpaceOnUse">
<stop stop-color="#218CEF"/>
<stop offset="1" stop-color="#37C6F3"/>
</linearGradient>
<clipPath id="clip0_403_11385">
<rect width="18" height="28" fill="white" transform="translate(18 13)"/>
</clipPath>
</defs>
</svg>
