<svg width="54" height="54" viewBox="0 0 54 54" fill="none" xmlns="http://www.w3.org/2000/svg">
<rect width="54" height="54" rx="27" fill="url(#paint0_linear_383_10899)"/>
<g clip-path="url(#clip0_383_10899)">
<path fill-rule="evenodd" clip-rule="evenodd" d="M27.3677 38.9995C22.9257 39.0318 18.5619 37.8301 14.7628 35.5281C11.5202 33.5193 9.00451 30.8629 7.71362 27.2022C7.17551 25.7285 6.94313 24.1606 7.03071 22.5942C7.05418 22.2604 7.11781 21.9305 7.22018 21.6118C7.76209 19.8277 9.14987 18.9995 10.9827 19.3563C12.7009 19.6911 14.0359 20.6779 15.2298 21.885C15.3248 22.0047 15.4579 22.0883 15.6069 22.1219C15.756 22.1556 15.9121 22.1373 16.0493 22.07C18.305 21.2859 20.5696 20.5282 22.8342 19.7749C25.931 18.7198 29.2931 18.74 32.3771 19.8321C33.4596 20.2022 34.5442 20.5671 35.6284 20.9318C36.7769 21.3182 37.9249 21.7044 39.0694 22.0964C39.1818 22.1513 39.3097 22.1659 39.4315 22.1378C39.5534 22.1098 39.662 22.0407 39.7391 21.9422C40.8934 20.766 42.1755 19.7704 43.8276 19.4048C46.1098 18.8982 47.7928 20.1317 47.9779 22.4665C48.1372 24.8656 47.5707 27.2571 46.3521 29.3299C44.3563 32.8938 41.2987 35.2682 37.6243 36.9158C34.3895 38.3222 30.8949 39.0321 27.3677 38.9995ZM14.3046 33.0392C14.3215 32.9843 14.3347 32.9284 14.3443 32.8718V23.8057C14.3442 23.6721 14.2975 23.5428 14.2121 23.44C13.4558 22.5608 12.5178 21.856 11.4629 21.374C9.70063 20.6339 8.71369 21.3255 8.77537 23.2418C8.86949 25.8907 9.85532 28.4301 11.5731 30.4489C12.3654 31.4289 13.2839 32.2999 14.3046 33.0392ZM40.629 32.9907H40.7656C43.1976 31.1229 45.0084 28.8145 45.8279 25.8233C46.1846 24.7195 46.287 23.5494 46.1274 22.4004C45.9424 21.3519 45.3564 20.9555 44.3078 21.1493C43.9903 21.1844 43.6831 21.2833 43.4047 21.44C42.7427 21.8929 42.1027 22.3761 41.4631 22.8591L41.463 22.8592L41.4627 22.8594C41.2936 22.9871 41.1245 23.1147 40.9551 23.2418C40.8361 23.3343 40.7428 23.4558 40.6842 23.5946C40.6256 23.7334 40.6035 23.885 40.6202 24.0348V32.5634L40.629 32.9907ZM29.2423 25.2373C28.5129 24.9551 27.7063 24.9453 26.9704 25.2097L19.6778 27.8301C19.288 27.9702 18.8584 27.7677 18.7184 27.3779C18.5783 26.9881 18.7808 26.5585 19.1706 26.4184L26.4632 23.7981C27.5388 23.4116 28.7177 23.4259 29.7836 23.8384L36.4676 26.4248C36.8539 26.5743 37.0459 27.0086 36.8964 27.3949C36.7469 27.7812 36.3126 27.9732 35.9263 27.8237L29.2423 25.2373ZM26.6208 30.194C27.3457 29.9383 28.1378 29.9477 28.8563 30.2207L34.0669 32.2004C34.4541 32.3475 34.8873 32.1528 35.0344 31.7656C35.1815 31.3784 34.9869 30.9453 34.5997 30.7982L29.3891 28.8185C28.3389 28.4195 27.1812 28.4057 26.1218 28.7794L20.4171 30.792C20.0265 30.9298 19.8215 31.3582 19.9593 31.7488C20.0972 32.1394 20.5255 32.3443 20.9161 32.2065L26.6208 30.194Z" fill="white"/>
</g>
<defs>
<linearGradient id="paint0_linear_383_10899" x1="52.6329" y1="50.9241" x2="11.6203" y2="2.73418" gradientUnits="userSpaceOnUse">
<stop stop-color="#218CEF"/>
<stop offset="1" stop-color="#37C6F3"/>
</linearGradient>
<clipPath id="clip0_383_10899">
<rect width="41" height="20" fill="white" transform="translate(7 19)"/>
</clipPath>
</defs>
</svg>
