<svg width="54" height="54" viewBox="0 0 54 54" fill="none" xmlns="http://www.w3.org/2000/svg">
<rect width="54" height="54" rx="27" fill="url(#paint0_linear_888_21959)"/>
<g clip-path="url(#clip0_888_21959)">
<path d="M9.99986 32.9307C10.1584 32.4665 10.3944 32.0721 10.8716 31.8702C11.251 31.7101 11.622 31.7442 12.0031 31.86C13.132 32.2007 14.2635 32.5414 15.3941 32.8821C15.4784 32.9068 15.5559 32.9247 15.6773 32.9562C15.8038 32.3498 15.9303 31.7638 16.0491 31.1675C16.211 30.372 16.3687 29.5747 16.5289 28.7783C16.5529 28.7065 16.5671 28.6317 16.571 28.556C16.4867 27.648 16.8627 26.8653 17.2126 26.0714C17.8273 24.6754 18.4292 23.2742 19.0363 21.8748C19.0776 21.7785 19.1155 21.6797 19.1627 21.5622H17.5566C17.442 22.4208 17.3307 23.2563 17.2194 24.0919C17.1435 24.6609 17.0853 25.2341 16.985 25.7955C16.8686 26.4505 16.3105 26.8721 15.7203 26.7852C15.0551 26.6881 14.6243 26.1285 14.7179 25.4317C14.9382 23.7225 15.167 22.0145 15.4042 20.3075C15.4961 19.6483 15.9336 19.2726 16.5921 19.2564C18.2024 19.2164 19.8136 19.1295 21.4231 19.161C22.6119 19.1849 23.6919 19.627 24.5106 20.5426C24.7105 20.7657 24.8566 21.0325 24.9373 21.3221C25.0181 21.6118 25.0313 21.9164 24.9759 22.2121C24.9134 22.5815 24.9579 22.9613 25.1041 23.3057C25.1994 23.5468 25.2786 23.7938 25.3764 24.0723C25.4894 24.0076 25.5906 23.9522 25.6892 23.8926C26.8336 23.2072 27.9774 22.5207 29.1207 21.833C29.4259 21.6499 29.7412 21.5392 30.1003 21.638C30.543 21.7598 30.8364 22.0434 30.9392 22.4897C30.996 22.7014 30.9892 22.9252 30.9199 23.133C30.8505 23.3407 30.7217 23.523 30.5497 23.6567C30.4392 23.7427 30.3222 23.8199 30.1998 23.8875C28.6873 24.7972 27.1562 25.6762 25.669 26.6242C24.8621 27.1404 23.9474 27.1021 23.5435 25.8704C22.9483 27.2392 22.3724 28.5611 21.7932 29.8924C22.5697 30.6062 23.3285 31.3166 24.1042 31.9938C24.653 32.4741 24.8486 33.0286 24.7087 33.7578C24.1961 36.428 23.7138 39.1043 23.2113 41.7763C23.0731 42.5131 22.4728 43.0139 21.7915 42.9969C21.4493 42.9932 21.12 42.864 20.8651 42.6334C20.6101 42.4027 20.4468 42.0863 20.4055 41.7431C20.3863 41.5057 20.4031 41.2667 20.4552 41.0344C20.8827 38.7014 21.3211 36.3693 21.746 34.0354C21.7671 33.9204 21.7393 33.7407 21.6617 33.6726C20.8034 32.9009 19.9308 32.1454 19.0607 31.3873C19.0178 31.3587 18.9724 31.3342 18.925 31.314C18.7176 32.3311 18.5152 33.3251 18.3129 34.3182C18.2657 34.5516 18.2286 34.7867 18.1729 35.0192C17.9664 35.9221 17.2042 36.4119 16.3257 36.1555C14.5644 35.6444 12.8116 35.0967 11.0546 34.5695C10.4838 34.3991 10.1769 33.9852 9.99902 33.4435L9.99986 32.9307Z" fill="white"/>
<path d="M30.9541 28.6238C30.729 29.7311 30.5166 30.7813 30.3016 31.8307C30.2544 32.0641 30.2173 32.3009 30.1473 32.5283C29.9256 33.2795 29.2199 33.7156 28.4712 33.5214C27.6095 33.2983 26.7597 33.03 25.909 32.7668C25.8581 32.7455 25.8122 32.7136 25.7743 32.6733C25.7364 32.6329 25.7073 32.585 25.689 32.5325C25.5373 32.0436 25.251 31.6085 24.8636 31.2779C24.2228 30.6995 23.5879 30.1144 22.9489 29.5343C22.8653 29.4687 22.7781 29.4081 22.6875 29.3529C23.1487 29.0505 23.5576 29.0599 23.9859 29.1902C25.1148 29.5309 26.2462 29.8716 27.3777 30.2064C27.478 30.237 27.58 30.2617 27.7048 30.2915C27.951 29.0786 28.2107 27.8955 28.424 26.7031C28.5007 26.2721 28.6643 25.9893 29.0572 25.7823C29.665 25.4612 30.2375 25.0745 30.8277 24.721C31.6025 24.2585 32.0375 23.589 31.9996 22.6674C31.96 21.7032 31.4566 21.049 30.5781 20.6887C30.5347 20.6669 30.4925 20.6427 30.4517 20.6163L31.1868 18.9051C30.6759 18.9051 30.1895 18.8958 29.7038 18.9171C29.644 18.9171 29.5554 19.0763 29.5352 19.1726C29.472 19.5576 29.4256 19.9451 29.3843 20.3335C29.3641 20.5269 29.2772 20.6087 29.0943 20.6947C28.6196 20.9179 28.1668 21.1938 27.7116 21.4536C27.4435 21.6061 27.1804 21.7696 26.8482 21.9647C26.9131 21.434 26.9671 20.9681 27.0286 20.503C27.1492 19.5789 27.2774 18.6556 27.3971 17.7314C27.4881 17.0253 27.9105 16.6105 28.6154 16.5917C30.2797 16.5483 31.9499 16.4214 33.6066 16.5176C34.8324 16.5883 36.0119 17.0227 36.7261 18.1837C37.0262 18.6717 37.0633 19.222 36.9689 19.7876C36.9433 19.945 36.9531 20.1063 36.9975 20.2594C37.1113 20.641 37.2505 21.0133 37.3938 21.4178L39.3253 20.2611C39.9804 19.8693 40.6296 19.4656 41.294 19.09C41.5203 18.9599 41.7841 18.9127 42.0408 18.9565C42.2975 19.0003 42.5313 19.1323 42.7028 19.3302C42.8785 19.5244 42.9816 19.7745 42.9942 20.0373C43.0068 20.3001 42.9282 20.5591 42.772 20.7696C42.636 20.9366 42.4708 21.0769 42.2846 21.1836C40.7058 22.1444 39.1219 23.0995 37.5329 24.0489C36.6788 24.56 36.0153 24.3249 35.6401 23.3871C35.6147 23.3365 35.5866 23.2873 35.5558 23.2398C35.3071 23.8096 35.0693 24.3471 34.8341 24.8879C34.5314 25.5821 34.2372 26.2797 33.9244 26.9688C33.8334 27.1681 33.8502 27.2857 34.0214 27.4373C34.7405 28.0727 35.4353 28.7371 36.157 29.3699C36.6881 29.835 36.8685 30.3878 36.737 31.0837C36.2354 33.7335 35.7489 36.3859 35.2548 39.0375C35.109 39.8177 34.5702 40.3202 33.8671 40.3432C33.2229 40.3645 32.5839 39.9173 32.4692 39.2734C32.4043 38.9037 32.4608 38.4975 32.5291 38.1193C32.9338 35.8808 33.3553 33.6458 33.7769 31.4108C33.8018 31.3242 33.7994 31.2319 33.7701 31.1468C33.7408 31.0616 33.686 30.9878 33.6133 30.9355C32.7373 30.1885 31.8731 29.4253 30.9541 28.6238Z" fill="white"/>
<path d="M33.8382 13.7802C33.8163 12.2718 35.0539 11.0129 36.5732 11.0001C38.0411 10.9882 39.2636 12.2326 39.2956 13.7658C39.3243 15.247 38.0798 16.5059 36.5715 16.5212C35.0818 16.5357 33.8609 15.3117 33.8382 13.7802Z" fill="white"/>
<path d="M27.2724 16.4056C27.2918 17.9107 26.0431 19.1722 24.5298 19.179C23.067 19.1858 21.8141 17.9133 21.8057 16.4108C21.7981 14.9236 23.0375 13.674 24.5399 13.6544C26.0103 13.6391 27.2539 14.8903 27.2724 16.4056Z" fill="white"/>
</g>
<defs>
<linearGradient id="paint0_linear_888_21959" x1="52.6329" y1="50.9241" x2="11.6203" y2="2.73418" gradientUnits="userSpaceOnUse">
<stop stop-color="#218CEF"/>
<stop offset="1" stop-color="#37C6F3"/>
</linearGradient>
<clipPath id="clip0_888_21959">
<rect width="33" height="32" fill="white" transform="translate(10 11)"/>
</clipPath>
</defs>
</svg>
