<svg width="54" height="54" viewBox="0 0 54 54" fill="none" xmlns="http://www.w3.org/2000/svg">
<rect width="54" height="54" rx="27" fill="url(#paint0_linear_388_12558)"/>
<path d="M26.2396 15.0089C26.4214 13.635 27.0268 12.3477 27.9753 11.3181C28.5893 10.6257 29.3432 10.065 30.1897 9.6712C31.0362 9.27741 31.9569 9.0591 32.8939 9.02999C34.1086 8.97972 35.3283 9.00566 36.5447 9.01539C36.721 9.01238 36.8961 9.04371 37.0599 9.10755C37.2236 9.17139 37.3727 9.26648 37.4985 9.38725C37.6242 9.50801 37.7241 9.65204 37.7923 9.81093C37.8604 9.96983 37.8955 10.1404 37.8955 10.3127C37.8955 10.4853 37.8603 10.6561 37.792 10.8152C37.7236 10.9743 37.6234 11.1185 37.4973 11.2393C37.3712 11.3601 37.2217 11.4551 37.0576 11.5188C36.8934 11.5824 36.7179 11.6134 36.5414 11.61C35.4727 11.6246 34.4024 11.6003 33.3337 11.61C31.4071 11.6424 30.0148 12.5019 29.1967 14.2192C29.0844 14.4913 28.9869 14.7689 28.9046 15.0511C29.507 15.1808 30.0878 15.2732 30.6487 15.4354C34.5683 16.5592 37.2549 19.003 38.7053 22.7327C39.1475 23.8934 39.3811 25.1201 39.3956 26.3586C39.4122 27.184 39.1201 27.4938 38.2639 27.4938H16.8388C15.8531 27.4938 15.591 27.223 15.6158 26.2743C15.6925 23.8512 16.5431 21.5122 18.0482 19.5851C19.5534 17.658 21.6377 16.2393 24.0093 15.5278C24.7195 15.2976 25.4679 15.1808 26.2396 15.0089Z" fill="white"/>
<path d="M27.4593 32.386C22.9722 32.386 18.4851 32.386 13.9979 32.386C13.208 32.386 12.5741 32.1476 12.1941 31.4406C12.0641 31.1943 11.9975 30.9208 12.0001 30.6438C12.0026 30.3667 12.0743 30.0944 12.2088 29.8505C12.3433 29.6066 12.5367 29.3985 12.7721 29.244C13.0075 29.0896 13.2779 28.9936 13.5598 28.9644C13.7424 28.9465 13.9266 28.9417 14.1108 28.9417C23.0353 28.9417 31.9603 28.9417 40.8859 28.9417C41.1918 28.9334 41.4973 28.9672 41.7936 29.0422C42.1839 29.1634 42.5174 29.4161 42.7348 29.7553C42.9521 30.0945 43.039 30.4981 42.9801 30.8941C42.9261 31.2778 42.7401 31.6322 42.4527 31.8989C42.1653 32.1656 41.7936 32.3288 41.3986 32.3616C41.2144 32.3762 41.0302 32.3779 40.846 32.3779L27.4593 32.386Z" fill="white"/>
<path d="M21.5834 41.5293C21.5834 43.4461 20.2558 44.9996 18.5964 44.9996C16.9369 44.9996 15.6094 43.4461 15.6094 41.5293C15.6094 40.1201 17.2257 37.2969 18.0803 35.9055C18.1334 35.8185 18.2088 35.7465 18.2989 35.6964C18.3891 35.6464 18.491 35.6201 18.5947 35.6201C18.6984 35.6201 18.8003 35.6464 18.8905 35.6964C18.9807 35.7465 19.056 35.8185 19.1091 35.9055C19.9671 37.2969 21.5834 40.1201 21.5834 41.5293Z" fill="white"/>
<path d="M30.4896 41.5293C30.4896 43.4461 29.1621 44.9996 27.5026 44.9996C25.8432 44.9996 24.5156 43.4461 24.5156 41.5293C24.5156 40.1201 26.1319 37.2969 26.9865 35.9055C27.0397 35.8185 27.115 35.7465 27.2052 35.6964C27.2953 35.6464 27.3973 35.6201 27.501 35.6201C27.6046 35.6201 27.7066 35.6464 27.7967 35.6964C27.8869 35.7465 27.9622 35.8185 28.0154 35.9055C28.8733 37.2969 30.4896 40.1201 30.4896 41.5293Z" fill="white"/>
<path d="M39.3959 41.5293C39.3959 43.4461 38.0683 44.9996 36.4089 44.9996C34.7494 44.9996 33.4219 43.4461 33.4219 41.5293C33.4219 40.1201 35.0382 37.2969 35.8928 35.9055C35.9459 35.8185 36.0212 35.7465 36.1114 35.6964C36.2016 35.6464 36.3035 35.6201 36.4072 35.6201C36.5109 35.6201 36.6128 35.6464 36.703 35.6964C36.7931 35.7465 36.8685 35.8185 36.9216 35.9055C37.7796 37.2969 39.3959 40.1201 39.3959 41.5293Z" fill="white"/>
<defs>
<linearGradient id="paint0_linear_388_12558" x1="52.6329" y1="50.9241" x2="11.6203" y2="2.73418" gradientUnits="userSpaceOnUse">
<stop stop-color="#218CEF"/>
<stop offset="1" stop-color="#37C6F3"/>
</linearGradient>
</defs>
</svg>
