<svg width="54" height="54" viewBox="0 0 54 54" fill="none" xmlns="http://www.w3.org/2000/svg">
<rect width="54" height="54" rx="27" fill="url(#paint0_linear_888_21965)"/>
<g clip-path="url(#clip0_888_21965)">
<path d="M27.4635 40.9995L26.3596 40.8596C26.4201 40.7604 26.464 40.684 26.5109 40.6091C26.837 40.0987 27.0573 39.528 27.1586 38.9308C27.26 38.3337 27.2403 37.7222 27.1009 37.1328C26.9614 36.5434 26.705 35.988 26.3468 35.4995C25.9887 35.0111 25.536 34.5996 25.0158 34.2894C24.8976 34.2181 24.804 34.1125 24.7472 33.9868C23.106 29.9182 18.2347 28.5932 14.7708 31.2779C14.7345 31.3067 14.6951 31.3339 14.6369 31.3778C14.6051 31.3119 14.574 31.2597 14.5536 31.203C12.5001 25.3888 14.4341 18.7611 19.288 14.9528C21.1988 13.4443 23.4556 12.436 25.8541 12.0192C26.2567 11.9473 26.6108 12.1025 26.7939 12.4361C26.9891 12.788 26.9346 13.1595 26.6108 13.4955C25.7359 14.3988 25.0064 15.4323 24.4483 16.5592C22.2003 21.0894 23.162 26.7099 26.8022 30.236C28.774 32.1473 31.1257 33.2687 33.8534 33.5691C35.7951 33.7836 37.7596 33.5073 39.5668 32.7655C39.7722 32.6746 39.9925 32.622 40.2168 32.6104C40.6284 32.6104 40.8463 32.8972 40.9999 33.2422V33.6387C40.953 33.7295 40.9114 33.8241 40.8569 33.9111C38.5325 37.643 35.2222 39.9493 30.8964 40.7726C30.3426 40.8777 29.7781 40.9239 29.2189 40.9995H27.4635Z" fill="white"/>
<path d="M14.436 40.9996C14.1447 40.8989 13.8398 40.8278 13.5644 40.6969C13.0653 40.4512 12.6505 40.0628 12.3726 39.581C12.0947 39.0991 11.9661 38.5456 12.0034 37.9905C12.0406 37.4355 12.2418 36.9041 12.5816 36.4636C12.9214 36.0232 13.3843 35.6936 13.9117 35.5168C14.094 35.4562 14.1568 35.3654 14.1985 35.1922C14.7009 33.1227 16.5176 31.6358 18.5923 31.5912C20.8085 31.5412 22.6782 32.8858 23.2767 34.9962C23.3683 35.317 23.5082 35.4782 23.8215 35.6015C24.9391 36.051 25.6435 37.2488 25.5202 38.4057C25.3832 39.6974 24.4911 40.6977 23.2585 40.9451C23.2068 40.9596 23.1562 40.9781 23.1072 41.0003L14.436 40.9996Z" fill="white"/>
<path d="M32.8862 26.7214C31.556 26.7214 30.2258 26.7335 28.8956 26.7214C28.2409 26.7094 27.6108 26.4694 27.114 26.0427C26.6172 25.616 26.2849 25.0293 26.1742 24.3838C26.0636 23.7383 26.1816 23.0744 26.508 22.5066C26.8343 21.9389 27.3485 21.5027 27.9619 21.2734C28.1791 21.1977 28.2835 21.0971 28.3403 20.8625C28.5987 19.8423 29.192 18.9384 30.0252 18.2955C30.8584 17.6526 31.8832 17.3078 32.9356 17.3166C33.9879 17.3253 35.0069 17.6869 35.8293 18.3436C36.6517 19.0002 37.23 19.9139 37.4715 20.9382C37.4815 21.0104 37.5131 21.0779 37.5621 21.1319C37.6111 21.1859 37.6752 21.2239 37.7461 21.2408C39.0672 21.707 39.8542 23.0273 39.6204 24.3636C39.5104 25.0259 39.1683 25.6274 38.6554 26.0605C38.1424 26.4936 37.4921 26.73 36.8208 26.7274H32.8862V26.7214Z" fill="white"/>
</g>
<defs>
<linearGradient id="paint0_linear_888_21965" x1="52.6329" y1="50.9241" x2="11.6203" y2="2.73418" gradientUnits="userSpaceOnUse">
<stop stop-color="#218CEF"/>
<stop offset="1" stop-color="#37C6F3"/>
</linearGradient>
<clipPath id="clip0_888_21965">
<rect width="29" height="29" fill="white" transform="translate(12 12)"/>
</clipPath>
</defs>
</svg>
