<svg width="54" height="54" viewBox="0 0 54 54" fill="none" xmlns="http://www.w3.org/2000/svg">
<rect width="54" height="54" rx="27" fill="url(#paint0_linear_888_21970)"/>
<g clip-path="url(#clip0_888_21970)">
<path d="M43.9995 26.7105V27.5908C43.9614 27.8197 43.9263 28.0493 43.8853 28.2775C43.4231 30.8678 42.0161 32.7803 39.7105 34.0245C38.5336 34.6559 37.2094 34.9599 35.8755 34.9048C35.4749 34.8924 35.2383 35.0134 35.0259 35.345C34.7659 35.7551 34.4304 36.1168 34.1418 36.5092C34.0115 36.6853 33.8606 36.7345 33.646 36.7345C28.9585 36.7281 24.2725 36.7264 19.5879 36.7293C18.7376 36.7293 18.7376 36.7293 18.2029 36.0779C15.8481 33.208 14.636 29.8701 14.1746 26.227C14.1057 25.6871 14.0581 25.145 14.001 24.6036V23.2537C14.2354 22.7468 14.6382 22.6001 15.1824 22.6016C20.6213 22.6148 26.0605 22.6175 31.5 22.6096C33.5801 22.6096 35.6599 22.6096 37.7395 22.6096C38.3826 22.6096 38.7349 22.9764 38.7253 23.6139C38.7209 23.8546 38.7253 24.0959 38.7253 24.3666H39.0037C39.7654 24.3666 40.5271 24.3608 41.2888 24.3666C42.1926 24.3754 42.9661 24.6997 43.4729 25.459C43.7212 25.8302 43.8274 26.2909 43.9995 26.7105ZM38.5496 26.1317C38.2714 28.5648 37.5583 30.928 36.4446 33.1082C36.6423 33.0914 36.7874 33.0855 36.9302 33.065C38.0693 32.9166 39.1419 32.4435 40.0203 31.7019C41.4602 30.4878 42.1941 28.9282 42.238 27.0472C42.2498 26.5638 41.9246 26.1529 41.4646 26.1397C40.4985 26.1126 39.5354 26.1317 38.5496 26.1317Z" fill="white"/>
<path d="M19.918 42.0003C19.2962 41.847 18.6626 41.7296 18.0547 41.533C17.1414 41.2395 16.354 40.7106 15.6538 40.0584C15.3418 39.765 15.2525 39.4026 15.3953 39.049C15.5483 38.6705 15.8457 38.5032 16.242 38.4863C16.3196 38.4863 16.398 38.4863 16.4763 38.4863H36.251C36.3286 38.4863 36.407 38.4863 36.4846 38.4863C36.8809 38.5032 37.1782 38.6705 37.3313 39.049C37.4778 39.4026 37.3848 39.7687 37.0728 40.0584C36.3726 40.7114 35.5852 41.2373 34.6719 41.533C34.064 41.7296 33.4268 41.847 32.8086 42.0003H19.918Z" fill="white"/>
<path d="M20.9471 12C21.429 12.0227 21.7007 12.1709 21.8633 12.4842C21.9499 12.6333 21.9867 12.8062 21.9684 12.9777C21.9501 13.1492 21.8776 13.3104 21.7615 13.4379C21.4935 13.7592 21.2811 14.0937 21.254 14.5287C21.221 15.0657 21.4371 15.4883 21.7908 15.8698C22.45 16.5784 22.743 17.4235 22.68 18.3875C22.6359 19.1854 22.2995 19.939 21.7352 20.5039C21.3873 20.8634 20.8848 20.8876 20.523 20.5773C20.4332 20.5053 20.3592 20.4156 20.3055 20.3138C20.2518 20.2119 20.2197 20.1001 20.211 19.9852C20.2024 19.8704 20.2174 19.7549 20.2552 19.6462C20.293 19.5374 20.3527 19.4376 20.4307 19.3529C20.8702 18.8489 21.0701 18.2921 20.8394 17.6554C20.7376 17.3729 20.5362 17.1125 20.3355 16.8814C19.1871 15.5609 19.201 13.6154 20.4007 12.3543C20.5692 12.1761 20.8233 12.0778 20.9471 12Z" fill="white"/>
<path d="M26.4954 20.8038C26.015 20.7751 25.7447 20.6248 25.585 20.3093C25.5004 20.159 25.4656 19.9856 25.4858 19.8142C25.5059 19.6427 25.5799 19.4822 25.6971 19.3556C25.9754 19.0277 26.1827 18.68 26.201 18.2339C26.223 17.7079 26.001 17.2971 25.6561 16.9245C25.0064 16.2224 24.7178 15.3839 24.772 14.4302C24.8118 13.633 25.1435 12.8785 25.7037 12.3108C26.0604 11.9374 26.5694 11.9081 26.9371 12.2287C27.0263 12.3017 27.0996 12.3923 27.1524 12.4949C27.2052 12.5976 27.2363 12.71 27.2439 12.8251C27.2514 12.9403 27.2353 13.0558 27.1963 13.1645C27.1574 13.2731 27.0966 13.3726 27.0176 13.4567C26.5782 13.9607 26.3841 14.5204 26.6163 15.1557C26.7188 15.4382 26.9224 15.6964 27.1246 15.9282C28.2679 17.2428 28.2496 19.2001 27.0469 20.4546C26.8756 20.6321 26.6207 20.7267 26.4954 20.8038Z" fill="white"/>
<path d="M32.5629 12.9009C32.4721 13.0887 32.4106 13.2993 32.2868 13.4621C31.5946 14.3689 31.6137 15.0497 32.3783 15.9146C32.9395 16.5369 33.2472 17.3474 33.2404 18.186C33.2336 19.0245 32.9129 19.83 32.3417 20.4431C31.9594 20.8561 31.4548 20.9097 31.0688 20.5788C30.6828 20.248 30.6579 19.7403 31.0087 19.3016C31.6796 18.4631 31.6481 17.739 30.904 16.8983C29.724 15.5646 29.7489 13.589 30.9604 12.3258C31.2533 12.0206 31.6196 11.9304 31.9704 12.0756C32.289 12.2069 32.5094 12.5327 32.5629 12.9009Z" fill="white"/>
</g>
<defs>
<linearGradient id="paint0_linear_888_21970" x1="52.6329" y1="50.9241" x2="11.6203" y2="2.73418" gradientUnits="userSpaceOnUse">
<stop stop-color="#218CEF"/>
<stop offset="1" stop-color="#37C6F3"/>
</linearGradient>
<clipPath id="clip0_888_21970">
<rect width="30" height="30" fill="white" transform="translate(14 12)"/>
</clipPath>
</defs>
</svg>
