<svg width="54" height="54" viewBox="0 0 54 54" fill="none" xmlns="http://www.w3.org/2000/svg">
<rect width="54" height="54" rx="27" fill="url(#paint0_linear_403_11415)"/>
<g clip-path="url(#clip0_403_11415)">
<path d="M24.3903 27.7334C24.24 27.89 24.1443 27.993 24.0458 28.0941C23.709 28.4422 23.3062 28.7201 22.8607 28.9117C22.4152 29.1033 21.936 29.2049 21.4508 29.2105C20.9656 29.2161 20.4841 29.1257 20.0343 28.9444C19.5845 28.7631 19.1753 28.4946 18.8305 28.1544C18.7695 28.0837 18.6898 28.0314 18.6004 28.0034C18.5111 27.9754 18.4157 27.9728 18.325 27.996C17.5512 28.1295 16.7548 28.0127 16.0524 27.6628C15.35 27.313 14.7785 26.7483 14.4214 26.0515C13.6778 24.6029 13.9335 22.9335 15.1045 21.7552C15.248 21.6103 15.2646 21.5082 15.1894 21.3196C14.2877 19.0572 15.6101 16.6879 18.0059 16.264C18.2011 16.229 18.2899 16.1668 18.3065 15.95C18.4568 13.9297 20.107 12.4499 22.1242 12.5248C22.3301 12.5326 22.4414 12.4937 22.5516 12.2992C23.4651 10.6912 24.8597 9.87739 26.709 10.0077C28.4793 10.1321 29.7119 11.0888 30.4291 12.7066C30.4574 12.7717 30.4887 12.8349 30.5267 12.9147C31.8208 12.5063 33.0416 12.6288 34.1532 13.4008C35.2647 14.1727 35.8034 15.2791 35.863 16.615C36.2826 16.6558 36.7003 16.649 37.0926 16.7433C38.5565 17.0972 39.5187 18.0072 39.8808 19.4704C40.2428 20.9336 39.7968 22.1548 38.6882 23.1474C38.5272 23.2923 38.4657 23.3983 38.5272 23.6335C38.9175 25.1356 38.5457 26.4433 37.3649 27.4476C36.2065 28.4325 34.8754 28.5773 33.4662 28.0076C33.3988 27.9804 33.3324 27.9503 33.231 27.9104C32.4717 28.975 31.4538 29.6089 30.1081 29.6147C28.7623 29.6206 27.7425 28.9993 26.9286 27.8647C26.8827 28.5375 26.831 29.1286 26.8046 29.7119C26.5624 34.0691 26.6224 38.4377 26.9842 42.7865C27.0027 43.0043 27.0193 43.2231 27.0281 43.4418C27.0408 43.8064 26.8798 43.9814 26.507 43.9863C25.9585 43.995 25.411 43.9931 24.8626 43.9863C24.4312 43.9863 24.2771 43.8152 24.3024 43.3738C24.3776 42.1857 24.4752 40.9986 24.5405 39.8096C24.7118 36.6418 24.7157 33.4673 24.5522 30.2992C24.5181 29.6186 24.4771 28.938 24.4371 28.2575C24.4283 28.1165 24.4108 27.9629 24.3903 27.7334Z" fill="white"/>
<path d="M17.0508 29.4578C17.3992 29.4578 17.7017 29.4491 18.0033 29.4627C18.1085 29.4695 18.2099 29.5052 18.296 29.5658C19.7238 30.5954 21.2745 30.887 22.9647 30.3669C23.0292 30.3556 23.0945 30.3498 23.1599 30.3494V32.1169C22.9478 31.9616 22.7467 31.7921 22.5578 31.6094C22.3958 31.4334 22.2719 31.4295 22.0611 31.5277C21.6168 31.7358 21.1351 31.8529 20.6445 31.872C20.154 31.8912 19.6645 31.8121 19.2052 31.6394C18.7459 31.4667 18.3261 31.2039 17.9706 30.8665C17.6151 30.5292 17.3312 30.1243 17.1357 29.6756C17.1025 29.6105 17.0781 29.5424 17.0508 29.4578Z" fill="white"/>
<path d="M28.0918 32.6553C28.1211 31.9874 28.1484 31.3584 28.1787 30.6904L28.6119 30.8129C30.2651 31.2748 31.8119 31.0414 33.1645 29.9827C33.6125 29.6317 33.997 29.5811 34.5367 29.7882C34.361 29.9224 34.2224 30.0799 34.0487 30.1509C33.5608 30.354 33.0669 30.602 32.5526 30.6797C32.1486 30.741 31.932 30.8917 31.6987 31.2048C30.8165 32.387 29.6054 32.8323 28.0918 32.6553Z" fill="white"/>
</g>
<defs>
<linearGradient id="paint0_linear_403_11415" x1="52.6329" y1="50.9241" x2="11.6203" y2="2.73418" gradientUnits="userSpaceOnUse">
<stop stop-color="#218CEF"/>
<stop offset="1" stop-color="#37C6F3"/>
</linearGradient>
<clipPath id="clip0_403_11415">
<rect width="26" height="34" fill="white" transform="translate(14 10)"/>
</clipPath>
</defs>
</svg>
