<svg width="54" height="54" viewBox="0 0 54 54" fill="none" xmlns="http://www.w3.org/2000/svg">
<rect width="54" height="54" rx="27" fill="url(#paint0_linear_388_12542)"/>
<g clip-path="url(#clip0_388_12542)">
<path d="M18.2077 25.5622C17.9733 25.8196 17.7467 26.0843 17.5046 26.3335C16.3525 27.5186 14.8425 27.2982 14.0451 25.8304C13.4397 24.7141 12.8368 23.5965 12.2366 22.4777C11.8786 21.8129 11.9149 21.4453 12.4044 20.8944C14.2097 18.8639 16.0167 16.835 17.8254 14.8076C18.0363 14.5638 18.2935 14.3685 18.5805 14.234C18.8676 14.0995 19.1783 14.0288 19.4929 14.0263C20.8187 14.0046 22.1463 14.011 23.4713 14.0191C24.0447 14.0191 24.4823 14.4897 24.5385 15.1192C24.632 16.1724 25.2036 16.7224 26.2078 16.7251H26.7907C27.7204 16.7197 28.3371 16.1317 28.421 15.1707C28.4927 14.3451 28.8404 14.0055 29.624 14.0046C30.7994 14.0046 31.9756 14.0146 33.1509 14.0046C33.5612 13.9897 33.9693 14.073 34.344 14.248C34.7188 14.423 35.0502 14.6852 35.3131 15.0144C37.0774 17.1135 38.8591 19.199 40.6277 21.2927C41.0775 21.8247 41.1078 22.2465 40.7488 22.8553C40.1106 23.9391 39.4697 25.0206 38.8262 26.0996C38.0288 27.43 36.5386 27.617 35.4714 26.5169C35.1747 26.2107 34.9049 25.8765 34.6221 25.555L34.5183 25.6182V25.9704C34.5183 29.732 34.5183 33.4955 34.5183 37.2607C34.5183 38.6155 33.6984 39.6858 32.4582 39.9541C32.2352 39.9944 32.0089 40.0114 31.7827 40.0046C28.201 40.0046 24.6198 40.0046 21.0393 40.0046C19.3588 40.0046 18.2976 38.8892 18.2968 37.127C18.2968 33.4214 18.2968 29.7152 18.2968 26.0084V25.6191L18.2077 25.5622Z" fill="white"/>
</g>
<defs>
<linearGradient id="paint0_linear_388_12542" x1="52.6329" y1="50.9241" x2="11.6203" y2="2.73418" gradientUnits="userSpaceOnUse">
<stop stop-color="#218CEF"/>
<stop offset="1" stop-color="#37C6F3"/>
</linearGradient>
<clipPath id="clip0_388_12542">
<rect width="29" height="26" fill="white" transform="translate(12 14)"/>
</clipPath>
</defs>
</svg>
