<svg width="54" height="54" viewBox="0 0 54 54" fill="none" xmlns="http://www.w3.org/2000/svg">
<rect width="54" height="54" rx="27" fill="url(#paint0_linear_403_11132)"/>
<g clip-path="url(#clip0_403_11132)">
<path d="M17.4338 40.9991C17.3289 40.9728 17.2247 40.9451 17.1198 40.9202C16.0069 40.655 15.2542 39.7418 15.1933 38.5823C15.1882 38.4918 15.1896 38.4004 15.1896 38.3091C15.1896 31.6295 15.1896 24.95 15.1896 18.2704V17.9277H26.7419V18.2689C26.7419 24.948 26.7419 31.6276 26.7419 38.3076C26.7419 39.7893 26.02 40.6631 24.5513 40.9655C24.5257 40.9739 24.501 40.9852 24.478 40.9991H24.2579C24.2579 40.034 24.2645 39.0682 24.2652 38.1031C24.2652 36.335 24.2652 34.567 24.2652 32.799C24.2652 32.2876 23.9226 31.9223 23.4494 31.9223C22.9762 31.9223 22.63 32.2876 22.6168 32.7924C22.6168 32.8742 22.6168 32.9568 22.6168 33.0386C22.6168 35.3984 22.6182 37.7585 22.6212 40.1188C22.6212 40.3036 22.5808 40.4468 22.4114 40.5191C22.0218 40.6865 21.6264 40.8406 21.2332 40.9999H20.738C20.3499 40.8538 19.9589 40.7076 19.5759 40.5462C19.3727 40.46 19.3096 40.2934 19.3104 40.0633C19.3177 35.0071 19.3194 29.9509 19.3155 24.8947C19.3155 24.7851 19.3155 24.6755 19.3104 24.5666C19.294 24.3793 19.2129 24.2034 19.081 24.0688C18.9491 23.9343 18.7744 23.8494 18.5868 23.8285C18.3991 23.8077 18.21 23.8522 18.0515 23.9545C17.8931 24.0569 17.7751 24.2107 17.7177 24.3898C17.6797 24.5395 17.6629 24.6937 17.6678 24.8479C17.6649 30.095 17.6649 35.3426 17.6678 40.5907C17.6678 40.7266 17.6627 40.8633 17.6597 40.9999L17.4338 40.9991Z" fill="white"/>
<path d="M36.2511 41.0006C36.1043 40.8954 35.9327 40.8128 35.8204 40.6799C35.5094 40.3146 35.6003 39.8492 36.0963 39.4079H35.7683C33.476 39.4079 31.1837 39.4079 28.8914 39.4079C28.7453 39.4113 28.5994 39.396 28.4571 39.3626C28.2713 39.3096 28.1105 39.1924 28.0034 39.0321C27.8964 38.8718 27.8501 38.6787 27.8729 38.4875C27.8956 38.2964 27.9859 38.1195 28.1277 37.9885C28.2694 37.8576 28.4533 37.7811 28.6464 37.7728C29.022 37.7611 29.3984 37.7728 29.774 37.7728H36.0354L36.0882 37.6932C36.0307 37.6711 35.9762 37.6419 35.9261 37.6062C35.5871 37.2877 35.5468 36.8121 35.8248 36.4746C35.9603 36.3103 36.1543 36.2046 36.3662 36.1796C36.5782 36.1545 36.7916 36.2121 36.9619 36.3401C37.496 36.7252 38.0198 37.1248 38.548 37.5179C38.7241 37.6494 38.9024 37.7772 39.0755 37.9124C39.5472 38.2835 39.5692 38.8833 39.0953 39.2428C38.3037 39.8433 37.4938 40.4198 36.6912 41.0064L36.2511 41.0006Z" fill="white"/>
<path d="M28.4072 19.8429V17.9434H38.7079V33.1192C39.2171 33.1192 39.6998 33.1134 40.1818 33.1192C40.3807 33.1165 40.5736 33.187 40.7235 33.3173C40.8734 33.4476 40.9697 33.6284 40.9939 33.825C41.0526 34.3013 40.7268 34.7017 40.2353 34.7529C40.1621 34.758 40.0886 34.7595 40.0152 34.7572H28.4146V31.5324H34.4111C35.1029 31.5324 35.4155 31.2197 35.4155 30.5271C35.4155 27.3008 35.4155 24.0745 35.4155 20.8482C35.4155 20.1541 35.1037 19.8436 34.4111 19.8429H28.4072Z" fill="white"/>
<path d="M27.2576 16.2804C23.4164 16.2804 19.5752 16.2804 15.734 16.2804C14.905 16.2804 14.2755 15.8237 14.0621 15.0807C13.9963 14.8451 13.9843 14.5978 14.0269 14.3569C14.0695 14.1161 14.1656 13.8877 14.3083 13.6886C14.4509 13.4895 14.6364 13.3247 14.8512 13.2062C15.066 13.0877 15.3047 13.0185 15.5498 13.0037C15.6137 13 15.6782 13 15.742 13H38.7629C39.5493 13 40.145 13.3865 40.4018 14.0557C40.4952 14.2995 40.5288 14.5619 40.4997 14.8212C40.4707 15.0805 40.3798 15.3292 40.2348 15.5464C40.0898 15.7637 39.8947 15.9433 39.6659 16.0704C39.437 16.1974 39.181 16.2681 38.9192 16.2767C38.5443 16.2899 38.1679 16.2804 37.7916 16.2804H27.2576Z" fill="white"/>
<path d="M33.7516 24.9707V29.8723H28.4102V24.9707H33.7516Z" fill="white"/>
<path d="M33.7438 23.2914H28.4023V21.5059H33.7438V23.2914Z" fill="white"/>
</g>
<defs>
<linearGradient id="paint0_linear_403_11132" x1="52.6329" y1="50.9241" x2="11.6203" y2="2.73418" gradientUnits="userSpaceOnUse">
<stop stop-color="#218CEF"/>
<stop offset="1" stop-color="#37C6F3"/>
</linearGradient>
<clipPath id="clip0_403_11132">
<rect width="27" height="28" fill="white" transform="translate(14 13)"/>
</clipPath>
</defs>
</svg>
