<svg width="54" height="54" viewBox="0 0 54 54" fill="none" xmlns="http://www.w3.org/2000/svg">
<rect width="54" height="54" rx="27" fill="url(#paint0_linear_388_12553)"/>
<path d="M16.6746 13H37.3125C37.7778 13.2128 38.052 13.5426 37.9917 14.0831C37.9271 14.6641 37.8733 15.2471 37.8137 15.8288C37.516 18.7469 37.218 21.6653 36.9198 24.584C36.6426 27.3248 36.3677 30.0666 36.0948 32.8093C35.8158 35.5686 35.5348 38.3276 35.2519 41.0864C35.193 41.6666 34.8462 41.9993 34.2589 42C29.4154 42 24.572 42 19.729 42C19.1424 42 18.792 41.668 18.7338 41.0871C18.6534 40.2709 18.5708 39.4545 18.4861 38.6378C18.2836 36.6484 18.0814 34.6587 17.8794 32.6688C17.6798 30.6983 17.4814 28.7274 17.2842 26.7559C17.064 24.5882 16.8431 22.4205 16.6215 20.2528C16.4205 18.2724 16.2288 16.2913 16.0227 14.3115C15.9459 13.571 16.0406 13.3547 16.6746 13ZM18.4488 20.0329C19.3032 19.884 20.1246 19.7159 20.9531 19.6024C22.2629 19.4248 23.5962 19.5321 24.8597 19.9166C25.9661 20.2457 26.9153 20.8458 27.8193 21.5374C28.7641 22.2602 29.8548 22.6277 31.038 22.7497C32.3814 22.8915 33.6773 22.6582 34.9661 22.312C35.2677 22.2311 35.3424 22.0928 35.3682 21.8155C35.5398 20.0039 35.7272 18.1937 35.9117 16.3828C35.9634 15.8699 36.0122 15.3571 36.0639 14.8308H17.9218C18.0994 16.5847 18.275 18.3187 18.4488 20.0329Z" fill="white"/>
<defs>
<linearGradient id="paint0_linear_388_12553" x1="52.6329" y1="50.9241" x2="11.6203" y2="2.73418" gradientUnits="userSpaceOnUse">
<stop stop-color="#218CEF"/>
<stop offset="1" stop-color="#37C6F3"/>
</linearGradient>
</defs>
</svg>
