<svg width="18" height="18" viewBox="0 0 18 18" fill="none" xmlns="http://www.w3.org/2000/svg">
<g clip-path="url(#clip0_4664_6543)">
<path d="M12.5489 13.6088C12.8418 13.9017 13.3167 13.9017 13.6096 13.6088C13.9025 13.3159 13.9025 12.8411 13.6096 12.5482L10.0605 8.99914L13.6093 5.45037C13.9022 5.15747 13.9022 4.6826 13.6093 4.3897C13.3164 4.09681 12.8415 4.09681 12.5487 4.38971L8.99988 7.93848L5.45099 4.38959C5.15809 4.0967 4.68322 4.0967 4.39033 4.38959C4.09743 4.68248 4.09743 5.15736 4.39033 5.45025L7.93922 8.99914L4.39008 12.5483C4.09719 12.8412 4.09719 13.316 4.39008 13.6089C4.68297 13.9018 5.15785 13.9018 5.45074 13.6089L8.99988 10.0598L12.5489 13.6088Z" fill="#A4A5A5"/>
</g>
<defs>
<clipPath id="clip0_4664_6543">
<rect width="18" height="18" fill="white"/>
</clipPath>
</defs>
</svg>
