<svg width="92" height="92" viewBox="0 0 92 92" fill="none" xmlns="http://www.w3.org/2000/svg">
<g filter="url(#filter0_d_4740_557)">
<circle cx="46" cy="42" r="39" fill="url(#paint0_linear_4740_557)"/>
</g>
<g clip-path="url(#clip0_4740_557)">
<path d="M30 58C30.6008 55.8047 31.1839 53.6761 31.767 51.5475C31.9272 50.9629 32.0993 50.381 32.2403 49.7918C32.278 49.6307 32.2597 49.4617 32.1885 49.3123C30.6422 46.5086 29.9347 43.5032 30.1752 40.3209C30.5811 34.9577 33.0557 30.7362 37.5124 27.7215C40.483 25.7103 43.8165 24.7838 47.3941 25.0425C53.8735 25.508 58.6739 28.6872 61.3853 34.5573C64.0289 40.2842 63.3939 45.8988 59.7054 51.0359C57.0556 54.7267 53.3728 56.8812 48.8631 57.5536C45.3736 58.0714 42.0604 57.4714 38.9187 55.8678C38.7572 55.7955 38.5762 55.7793 38.4045 55.8218C35.7298 56.5098 33.0577 57.2112 30.3851 57.909C30.2773 57.9369 30.1679 57.9613 30 58ZM33.9342 54.1132C34.0379 54.094 34.0804 54.0884 34.1229 54.077C35.6308 53.6818 37.1402 53.2928 38.6445 52.8872C38.9555 52.8029 39.1986 52.8355 39.479 53.0036C42.5061 54.8032 45.7676 55.3976 49.2141 54.6931C56.5046 53.2028 61.1832 46.325 59.9361 39.0122C58.8771 32.8048 53.5023 28.0494 47.2148 27.7872C43.7377 27.6366 40.609 28.6309 37.9219 30.8422C34.8491 33.3686 33.1718 36.6487 32.9261 40.6152C32.7452 43.5363 33.4812 46.2453 35.0642 48.7133C35.2472 48.9983 35.284 49.243 35.1902 49.5694C34.761 51.0628 34.3593 52.5644 33.9342 54.1132Z" fill="white"/>
<path d="M41.1934 33.8358C41.9377 33.6434 42.2757 34.0944 42.5256 34.7441C42.89 35.6939 43.2948 36.6291 43.6965 37.5649C43.8318 37.8799 43.8276 38.1634 43.6234 38.4375C43.2948 38.8783 42.9744 39.3262 42.6272 39.7519C42.4089 40.0194 42.3747 40.2615 42.5535 40.563C43.8914 42.8199 45.7673 44.4499 48.2113 45.4208C48.529 45.5471 48.7913 45.4984 49.009 45.2284C49.4237 44.7111 49.8596 44.2063 50.2588 43.6766C50.4905 43.3662 50.761 43.2746 51.0943 43.4303C52.2565 43.973 53.4176 44.5166 54.5631 45.0955C54.702 45.1653 54.8223 45.427 54.8223 45.5972C54.7927 47.3317 54.2816 48.1692 52.4135 48.9502C51.3566 49.392 50.2614 49.2834 49.1739 48.9808C45.2344 47.8857 42.3343 45.4151 40.0095 42.162C39.2786 41.1393 38.6188 40.084 38.3409 38.841C37.9454 37.0698 38.3834 35.5345 39.6918 34.2569C40.1023 33.8518 40.602 33.7546 41.1934 33.8358Z" fill="white"/>
</g>
<defs>
<filter id="filter0_d_4740_557" x="0" y="0" width="92" height="92" filterUnits="userSpaceOnUse" color-interpolation-filters="sRGB">
<feFlood flood-opacity="0" result="BackgroundImageFix"/>
<feColorMatrix in="SourceAlpha" type="matrix" values="0 0 0 0 0 0 0 0 0 0 0 0 0 0 0 0 0 0 127 0" result="hardAlpha"/>
<feOffset dy="4"/>
<feGaussianBlur stdDeviation="3.5"/>
<feComposite in2="hardAlpha" operator="out"/>
<feColorMatrix type="matrix" values="0 0 0 0 0.435748 0 0 0 0 0.766667 0 0 0 0 0.406972 0 0 0 0.29 0"/>
<feBlend mode="normal" in2="BackgroundImageFix" result="effect1_dropShadow_4740_557"/>
<feBlend mode="normal" in="SourceGraphic" in2="effect1_dropShadow_4740_557" result="shape"/>
</filter>
<linearGradient id="paint0_linear_4740_557" x1="18.5" y1="10.5" x2="74" y2="73.5" gradientUnits="userSpaceOnUse">
<stop stop-color="#52D86A"/>
<stop offset="1" stop-color="#33C74A"/>
</linearGradient>
<clipPath id="clip0_4740_557">
<rect width="33" height="33" fill="white" transform="translate(30 25)"/>
</clipPath>
</defs>
</svg>
