<svg width="18" height="26" viewBox="0 0 18 26" fill="none" xmlns="http://www.w3.org/2000/svg">
<path d="M6.7211 25.7721L6.55383 25.7099C4.60702 24.9864 3.71793 22.5385 4.56935 20.2476L9.52652 6.90971C9.62618 6.64154 9.82812 6.4239 10.0879 6.30464C10.3477 6.18538 10.644 6.17427 10.9118 6.27378C11.1795 6.37328 11.3967 6.57524 11.5155 6.83522C11.6343 7.0952 11.6451 7.39189 11.5454 7.66006L6.58827 20.998C6.1588 22.1535 6.4863 23.3833 7.3054 23.6877L7.47267 23.7499C8.28889 24.0532 9.34293 23.337 9.7724 22.1814L15.0624 7.94792C15.4053 7.02075 15.3672 5.9957 14.9566 5.09737C14.5459 4.19904 13.7962 3.50069 12.8717 3.15534L12.641 3.06959C11.7153 2.7273 10.6915 2.76649 9.79382 3.17858C8.89616 3.59068 8.19789 4.34207 7.85198 5.26811L3.06984 18.1351C2.97017 18.4033 2.76822 18.621 2.50844 18.7402C2.24866 18.8595 1.95232 18.8706 1.68459 18.7711C1.41687 18.6716 1.19968 18.4696 1.08084 18.2096C0.962008 17.9497 0.951253 17.653 1.05092 17.3848L5.83307 4.51776C6.3783 3.0554 7.48045 1.86872 8.89768 1.2181C10.3149 0.567493 11.9314 0.506083 13.3925 1.04738L13.6233 1.13313C15.0833 1.67749 16.2673 2.77975 16.9156 4.19803C17.5639 5.61632 17.6235 7.23478 17.0813 8.69827L11.7913 22.9318C10.9399 25.2226 8.66503 26.4946 6.7211 25.7721Z" fill="#0500FF"/>
</svg>
