<svg width="24" height="24" viewBox="0 0 24 24" fill="none" xmlns="http://www.w3.org/2000/svg">
<path d="M16.95 0C18.95 0 20.625 0.822222 21.975 2.46667C23.325 4.11111 24 6.06667 24 8.33333C24 8.73333 23.98 9.12778 23.94 9.51667C23.9 9.90556 23.83 10.2889 23.73 10.6667H16.23L14.19 7.26667C14.09 7.08889 13.95 6.94444 13.77 6.83333C13.59 6.72222 13.4 6.66667 13.2 6.66667C12.94 6.66667 12.705 6.75556 12.495 6.93333C12.285 7.11111 12.14 7.33333 12.06 7.6L10.44 13L9.39 11.2667C9.29 11.0889 9.15 10.9444 8.97 10.8333C8.79 10.7222 8.6 10.6667 8.4 10.6667H0.27C0.17 10.2889 0.1 9.90556 0.06 9.51667C0.02 9.12778 0 8.74444 0 8.36667C0 6.07778 0.67 4.11111 2.01 2.46667C3.35 0.822222 5.02 0 7.02 0C7.98 0 8.885 0.211111 9.735 0.633333C10.585 1.05556 11.34 1.64444 12 2.4C12.64 1.64444 13.385 1.05556 14.235 0.633333C15.085 0.211111 15.99 0 16.95 0ZM12 24C11.64 24 11.295 23.9278 10.965 23.7833C10.635 23.6389 10.34 23.4222 10.08 23.1333L2.04 14.1667C1.92 14.0333 1.81 13.9 1.71 13.7667C1.61 13.6333 1.51 13.4889 1.41 13.3333H7.74L9.78 16.7333C9.88 16.9111 10.02 17.0556 10.2 17.1667C10.38 17.2778 10.57 17.3333 10.77 17.3333C11.03 17.3333 11.27 17.2444 11.49 17.0667C11.71 16.8889 11.86 16.6667 11.94 16.4L13.56 11L14.58 12.7333C14.7 12.9111 14.85 13.0556 15.03 13.1667C15.21 13.2778 15.4 13.3333 15.6 13.3333H22.56L22.26 13.7333L21.96 14.1333L13.89 23.1333C13.63 23.4222 13.34 23.6389 13.02 23.7833C12.7 23.9278 12.36 24 12 24Z" fill="#EB3223"/>
</svg>
