<svg width="59" height="58" viewBox="0 0 59 58" fill="none" xmlns="http://www.w3.org/2000/svg">
<circle cx="29.5" cy="29" r="29" fill="#8E969B"/>
<path d="M29.9978 15C24.7529 15 20.5 19.5202 20.5 25.0984C20.5 29.5224 26.4745 38.7858 28.9524 42.4273C29.064 42.6026 29.219 42.7471 29.4031 42.8472C29.5871 42.9474 29.7941 42.9999 30.0044 42.9999C30.2148 42.9999 30.4217 42.9474 30.6058 42.8472C30.7898 42.7471 30.9449 42.6026 31.0565 42.4273C33.53 38.7858 39.5089 29.5224 39.5089 25.0984C39.5 19.5202 35.2471 15 29.9978 15ZM29.9978 28.9235C29.2393 28.9235 28.4979 28.7025 27.8673 28.2884C27.2367 27.8744 26.7452 27.2858 26.455 26.5973C26.1647 25.9087 26.0888 25.151 26.2368 24.42C26.3847 23.6891 26.75 23.0176 27.2862 22.4906C27.8225 21.9636 28.5058 21.6047 29.2497 21.4593C29.9935 21.3139 30.7645 21.3885 31.4652 21.6737C32.1659 21.9589 32.7648 22.4419 33.1862 23.0616C33.6075 23.6813 33.8325 24.4099 33.8325 25.1552C33.8354 25.6517 33.7383 26.1438 33.5469 26.6033C33.3554 27.0628 33.0734 27.4805 32.7169 27.8324C32.3605 28.1843 31.9367 28.4634 31.4701 28.6537C31.0034 28.8439 30.503 28.9416 29.9978 28.941V28.9235Z" fill="white"/>
</svg>
