<svg width="57" height="56" viewBox="0 0 57 56" fill="none" xmlns="http://www.w3.org/2000/svg">
<rect width="57" height="56" rx="7" fill="#FFBB26"/>
<path d="M41.6253 25.9421C40.3093 23.7564 38.8204 21.6817 37.1733 19.7384C34.7044 16.5661 33.3654 12.646 33.3724 8.61072C33.3768 8.50308 33.3518 8.39632 33.3 8.30211C33.2483 8.20789 33.1719 8.1299 33.0792 8.07665C32.9865 8.0234 32.8811 7.99699 32.7745 8.00027C32.6679 8.00355 32.5643 8.03641 32.475 8.09526C29.6583 10.1462 27.4937 12.9813 26.2456 16.2544C24.9309 19.7468 24.7098 23.5629 25.6122 27.1865C25.6272 27.2288 25.6286 27.2748 25.6161 27.318C25.6037 27.3611 25.5781 27.3992 25.543 27.4268C25.5079 27.4544 25.4651 27.4701 25.4207 27.4716C25.3762 27.4731 25.3323 27.4605 25.2954 27.4354C23.0883 26.0829 21.1974 24.2636 19.7525 22.1026C19.7049 22.0298 19.6417 21.9686 19.5677 21.9236C19.4937 21.8786 19.4107 21.8508 19.3247 21.8423C19.2387 21.8338 19.152 21.8447 19.0707 21.8744C18.9895 21.904 18.9158 21.9516 18.855 22.0137C17.8759 23.0787 17.0469 24.275 16.3914 25.5689C15.7026 27.0731 15.2685 28.6834 15.1069 30.3328C14.7223 33.6356 15.3813 36.9768 16.9898 39.8784C18.2719 42.1264 20.1383 43.9773 22.3871 45.2306C24.6358 46.4839 27.1812 47.0919 29.7475 46.9887C32.7914 46.7595 35.6717 45.508 37.9299 43.4336C40.19 41.3807 41.7947 38.6953 42.5403 35.7188C42.823 34.5546 42.9765 33.3622 42.9978 32.1637C43.0361 30.0091 42.5656 27.8764 41.6253 25.9421ZM33.6363 38.8474C33.5373 39.5665 33.2837 40.255 32.8934 40.8647C32.5031 41.4743 31.9855 41.9904 31.3769 42.3766C30.7683 42.7627 30.0833 43.0097 29.3702 43.1002C28.657 43.1907 27.9329 43.1224 27.2487 42.9003C26.5252 42.6687 25.866 42.2679 25.3248 41.7305C24.7835 41.193 24.3756 40.5341 24.1341 39.8073C23.8674 39.0271 23.8115 38.189 23.9723 37.3797C24.1332 36.5704 24.5049 35.8192 25.0491 35.2034C25.0861 35.1678 25.1308 35.1413 25.1797 35.1259C25.2285 35.1104 25.2801 35.1065 25.3307 35.1145C26.0039 35.2852 26.6851 35.4217 27.3718 35.5233C27.2448 35.0723 27.1797 34.6058 27.1783 34.1368C27.1609 33.9061 27.1609 33.6743 27.1783 33.4435C27.2871 32.7006 27.5645 31.9931 27.9888 31.3763C28.4131 30.7596 28.9728 30.2503 29.6243 29.8884C29.6585 29.8712 29.6961 29.8618 29.7343 29.8607C29.7725 29.8596 29.8105 29.8669 29.8457 29.8821C29.8808 29.8973 29.9122 29.9201 29.9378 29.9488C29.9634 29.9775 29.9825 30.0115 29.9938 30.0484C30.3306 31.2457 30.8217 32.3931 31.4543 33.4613C31.7255 33.972 32.0374 34.4595 32.387 34.919L32.7037 35.3278C33.2628 36.1415 33.5579 37.1104 33.5484 38.1008C33.5991 38.3466 33.6285 38.5964 33.6363 38.8474Z" fill="#FC9230"/>
</svg>
