<svg width="57" height="59" viewBox="0 0 57 59" fill="none" xmlns="http://www.w3.org/2000/svg">
<rect width="57" height="59" rx="7" fill="#FF679E"/>
<path d="M34.6431 31.6876H41.1558L29.498 43.424C29.2572 43.6489 28.9408 43.7739 28.6123 43.7739C28.2838 43.7739 27.9675 43.6489 27.7266 43.424L16.5247 32.1466L16.0688 31.6876H22.0605C22.2428 31.6883 22.4216 31.6369 22.5761 31.5394C22.7305 31.4419 22.8544 31.3023 22.9333 31.1368L23.5585 29.8255L25.7467 34.3627C25.8301 34.525 25.9562 34.6611 26.1113 34.7561C26.2664 34.8511 26.4444 34.9013 26.6259 34.9013C26.8074 34.9013 26.9855 34.8511 27.1405 34.7561C27.2956 34.6611 27.4217 34.525 27.5051 34.3627L31.5039 26.2324L33.7182 31.0713C33.7951 31.2542 33.9238 31.4102 34.0883 31.5198C34.2528 31.6294 34.4458 31.6878 34.6431 31.6876Z" fill="#FFCAD5"/>
<path d="M44.6467 24.606C44.6514 26.4387 44.0664 28.2238 42.9794 29.694H35.2553L32.4419 23.57C32.3649 23.4021 32.2419 23.2598 32.0872 23.1599C31.9326 23.06 31.7528 23.0066 31.5691 23.0061C31.3872 23.0077 31.2091 23.0584 31.0533 23.153C30.8974 23.2476 30.7697 23.3826 30.6834 23.5438L26.6586 31.6872L24.5224 27.15C24.4306 26.998 24.3016 26.8724 24.1476 26.7852C23.9936 26.698 23.8199 26.6523 23.6432 26.6523C23.4666 26.6523 23.2929 26.698 23.1389 26.7852C22.9849 26.8724 22.8558 26.998 22.764 27.15L21.5396 29.694H14.3626C13.2756 28.2238 12.6906 26.4387 12.6953 24.606C12.6946 22.9041 13.1954 21.2402 14.1342 19.8249C15.0731 18.4095 16.4079 17.3064 17.9697 16.655C19.5314 16.0036 21.25 15.8333 22.908 16.1655C24.566 16.4977 26.0888 17.3176 27.2838 18.5214L28.0523 19.295C28.2287 19.4619 28.4616 19.5548 28.7036 19.5548C28.9456 19.5548 29.1785 19.4619 29.3549 19.295L30.1103 18.5214C31.3053 17.3176 32.8282 16.4977 34.4862 16.1655C36.1441 15.8333 37.8627 16.0036 39.4245 16.655C40.9863 17.3064 42.321 18.4095 43.2599 19.8249C44.1987 21.2402 44.6995 22.9041 44.6988 24.606H44.6467Z" fill="#FFCAD5"/>
</svg>
