<svg width="57" height="56" viewBox="0 0 57 56" fill="none" xmlns="http://www.w3.org/2000/svg">
<rect width="57" height="56" rx="7" fill="#92A3FF"/>
<g clip-path="url(#clip0_4742_11475)">
<path d="M14.137 34.7394H42.8196C42.9282 34.7394 43.0357 34.7598 43.1361 34.7994C43.2364 34.8391 43.3276 34.8972 43.4044 34.9704C43.4811 35.0436 43.5421 35.1306 43.5836 35.2263C43.6252 35.322 43.6466 35.4245 43.6466 35.5281V39.8316C43.6466 40.6721 43.2965 41.4781 42.6735 42.0723C42.0504 42.6666 41.2054 43.0005 40.3242 43.0005H16.6179C15.7368 43.0005 14.8917 42.6666 14.2686 42.0723C13.6456 41.4781 13.2955 40.6721 13.2955 39.8316V35.542C13.2936 35.4361 13.314 35.3308 13.3556 35.2326C13.3972 35.1344 13.4591 35.0452 13.5376 34.9703C13.6162 34.8954 13.7097 34.8363 13.8127 34.7967C13.9157 34.757 14.026 34.7375 14.137 34.7394Z" fill="#6276DF"/>
<path d="M23.7134 20.875L28.0164 18.1094C29.3058 17.9532 31.9327 17.7344 32.1261 18.1094C32.3679 18.5782 32.1745 20.4532 32.5613 22.3282C32.948 24.2032 32.7063 27.9532 32.5613 28.1407C32.4162 28.3282 29.1768 29.5938 28.5966 29.6407C28.0164 29.6875 23.7134 27.1094 23.7134 26.5V20.875Z" fill="#92A3FF"/>
<path d="M48.8117 26.2562L46.1421 21.1086C45.9519 20.7317 45.653 20.4144 45.2804 20.1938C44.9078 19.9733 44.4769 19.8585 44.0384 19.8631C41.3833 19.8643 38.7546 19.361 36.3057 18.3825C33.8569 17.4198 31.6292 16.0096 29.748 14.2313C29.0414 13.5573 27.9301 13.5573 27.2236 14.2313C23.4376 17.8453 18.3039 19.8805 12.9475 19.8908C12.5094 19.8879 12.0794 20.0033 11.7071 20.2237C11.3348 20.4441 11.0356 20.7604 10.8439 21.1362L8.18888 26.2838C8.02076 26.6126 7.96263 26.9827 8.02232 27.3441C8.082 27.7054 8.25658 28.0405 8.52254 28.3041L11.4242 31.1547C11.615 31.3356 11.8414 31.4788 12.0903 31.5762C12.3393 31.6735 12.6059 31.7231 12.875 31.722H44.1545C44.6973 31.7212 45.2182 31.5175 45.6053 31.1547L48.507 28.3041C48.7725 28.0341 48.9443 27.6926 48.9988 27.3261C49.0533 26.9596 48.988 26.5859 48.8117 26.2562ZM28.5003 28.1104C26.3676 28.1104 24.6411 25.1491 24.6411 23.2949C24.6088 22.7935 24.6845 22.291 24.8635 21.8186C25.0425 21.3461 25.3209 20.9135 25.6818 20.5476C26.0426 20.1816 26.4782 19.89 26.9617 19.6907C27.4452 19.4913 27.9663 19.3885 28.493 19.3885C29.0197 19.3885 29.5409 19.4913 30.0243 19.6907C30.5078 19.89 30.9434 20.1816 31.3042 20.5476C31.6651 20.9135 31.9436 21.3461 32.1225 21.8186C32.3015 22.291 32.3772 22.7935 32.3449 23.2949C32.3449 25.1491 30.6185 28.1104 28.5003 28.1104Z" fill="#6276DF"/>
<path d="M29.8492 23.6134C29.8492 24.2638 29.2398 25.3016 28.4999 25.3016C27.76 25.3016 27.1362 24.2638 27.1362 23.6134C27.1165 23.4323 27.1369 23.2492 27.1961 23.0761C27.2553 22.9029 27.352 22.7436 27.4799 22.6084C27.6078 22.4731 27.764 22.365 27.9384 22.291C28.1129 22.2169 28.3017 22.1787 28.4927 22.1787C28.6836 22.1787 28.8724 22.2169 29.0469 22.291C29.2214 22.365 29.3776 22.4731 29.5054 22.6084C29.6333 22.7436 29.73 22.9029 29.7892 23.0761C29.8484 23.2492 29.8688 23.4323 29.8492 23.6134Z" fill="#6276DF"/>
</g>
<defs>
<clipPath id="clip0_4742_11475">
<rect width="41" height="30" fill="white" transform="translate(8 13)"/>
</clipPath>
</defs>
</svg>
