<svg width="85" height="85" viewBox="0 0 85 85" fill="none" xmlns="http://www.w3.org/2000/svg">
<path d="M67.3825 36.9038L57.2075 26.7288C55.9125 25.4338 55.5425 23.63 56.0513 22.0113C57.7625 16.8313 58.6875 11.2812 58.6875 5.5C58.6875 2.95625 60.7687 0.875 63.3125 0.875H79.5C82.0437 0.875 84.125 2.95625 84.125 5.5C84.125 48.9288 48.9288 84.125 5.5 84.125C2.95625 84.125 0.875 82.0437 0.875 79.5V63.3587C0.875 60.815 2.95625 58.7337 5.5 58.7337C11.235 58.7337 16.8313 57.8087 22.0113 56.0975C23.63 55.5425 25.48 55.9588 26.7288 57.2075L36.9038 67.3825C49.9925 60.6762 60.7225 49.9925 67.3825 36.9038Z" fill="#EB3223"/>
</svg>
