<svg width="30" height="29" viewBox="0 0 30 29" fill="none" xmlns="http://www.w3.org/2000/svg">
<g clip-path="url(#clip0_4740_607)">
<path d="M6.02102 28.9993C5.45849 28.861 4.93785 28.6446 4.4856 28.2573C2.99205 26.9805 3.23633 24.4518 4.94483 23.4864C5.43318 23.2108 5.98382 23.0695 6.54236 23.0764C12.5114 23.0764 18.4809 23.0764 24.4509 23.0764C25.9675 23.0764 27.147 24.0227 27.4401 25.4427C27.7674 27.0288 26.7185 28.6347 25.1537 28.9411C25.0926 28.9569 25.0322 28.9758 24.973 28.9979L6.02102 28.9993Z" fill="#DB135B"/>
<path d="M24.2589 21.5034H18.6351C18.6351 21.3771 18.6351 21.2665 18.6351 21.1551C18.6351 20.1358 18.6539 19.1158 18.6204 18.0972C18.5646 16.4211 17.1499 15.0741 15.4917 15.0797C13.8334 15.0854 12.4292 16.4274 12.3734 18.1085C12.3399 19.1179 12.3622 20.1287 12.3587 21.1388V21.4963H6.74466C6.73768 21.4253 6.72442 21.3636 6.72442 21.3005C6.7307 18.6008 6.6986 15.9004 6.75722 13.2014C6.80259 11.1501 7.57867 9.3491 8.90471 7.80632C10.1187 6.36891 11.7626 5.37531 13.585 4.97754C15.7799 4.48527 17.8716 4.79737 19.8236 5.92661C21.7757 7.05586 23.1039 8.72561 23.8283 10.8869C24.1298 11.8109 24.2793 12.7791 24.2708 13.7526C24.2708 16.2541 24.2708 18.7557 24.2708 21.2572C24.2701 21.331 24.2631 21.4055 24.2589 21.5034Z" fill="#DB135B"/>
<path d="M16.9547 21.5058H14.0695C14.0541 21.4809 14.0431 21.4536 14.0367 21.4249C14.0367 20.3503 14.0185 19.275 14.0458 18.2011C14.0591 17.8195 14.2174 17.458 14.4874 17.1926C14.7574 16.9271 15.1181 16.7783 15.4937 16.7773C15.8694 16.7764 16.2308 16.9235 16.502 17.1876C16.7733 17.4518 16.9333 17.8125 16.9484 18.194C16.9756 19.2863 16.9547 20.3794 16.9547 21.5058Z" fill="#DB135B"/>
<path d="M9.70612 5.07236C9.68309 5.47667 9.55188 5.73274 9.26713 5.89304C8.97191 6.05832 8.64668 6.07534 8.4052 5.84906C7.82732 5.30643 7.2662 4.74181 6.73438 4.15236C6.4601 3.84806 6.53827 3.36218 6.8293 3.07348C7.12033 2.78479 7.59143 2.71882 7.89293 3.00255C8.45824 3.5317 8.99564 4.09278 9.52605 4.65882C9.63702 4.77799 9.66634 4.97589 9.70612 5.07236Z" fill="#DB135B"/>
<path d="M16.3921 1.88711C16.3921 2.23539 16.3991 2.58438 16.3921 2.93266C16.393 3.15381 16.3083 3.36645 16.1565 3.52485C16.0046 3.68325 15.7977 3.77476 15.5801 3.77968C15.3626 3.78461 15.1518 3.70256 14.9932 3.55119C14.8345 3.39982 14.7407 3.19122 14.7318 2.97025C14.7118 2.25431 14.7118 1.53813 14.7318 0.82171C14.734 0.710865 14.7579 0.601579 14.8021 0.500197C14.8462 0.398814 14.9098 0.307357 14.989 0.231135C15.0682 0.154913 15.1615 0.0954465 15.2635 0.0561872C15.3656 0.0169279 15.4742 -0.00134156 15.5833 0.00244023C16.0404 0.0159174 16.381 0.376963 16.3915 0.872071C16.3977 1.20829 16.3921 1.54735 16.3921 1.88711Z" fill="#DB135B"/>
<path d="M24.6582 3.72453C24.5535 3.91534 24.481 4.13665 24.3386 4.29199C23.8821 4.78851 23.4062 5.26234 22.9267 5.73475C22.5652 6.08942 22.0655 6.08942 21.7326 5.7539C21.3996 5.41839 21.4003 4.90272 21.7507 4.53883C22.2225 4.04562 22.7013 3.55949 23.187 3.08046C23.3028 2.95564 23.4546 2.87142 23.6206 2.83993C23.7865 2.80844 23.958 2.83132 24.1104 2.90526C24.416 3.03578 24.608 3.34859 24.6582 3.72453Z" fill="#DB135B"/>
</g>
<defs>
<clipPath id="clip0_4740_607">
<rect width="24" height="29" fill="white" transform="translate(3.5)"/>
</clipPath>
</defs>
</svg>
